<svg xmlns="http://www.w3.org/2000/svg" xmlns:xlink="http://www.w3.org/1999/xlink" width="1019.187" height="284.433" viewBox="0 0 1019.187 284.433"><defs><clipPath id="a"><path d="M526.45,63h983.364a13.766,13.766,0,0,1,13.75,13.75V327.143a13.766,13.766,0,0,1-13.75,13.75H526.45a13.766,13.766,0,0,1-13.75-13.75V76.75A13.766,13.766,0,0,1,526.45,63Z" transform="translate(-512.7 -63)" fill="none"/></clipPath><clipPath id="b"><path d="M1486.642,100.2q3.01,99,6.02,198-73.914,7.358-148.274,12.263c-243.481,16.128-489.043,12.412-733.788,8.7a543.563,543.563,0,0,0,8.621-152.287c-1.263-14.642,8.176-54.479,8.176-54.479s83.39.223,110.295.595q240.248,3.122,480.57-2.973c22.668-.595,268.528-7.284,268.453-9.736Z" transform="translate(-610.6 -100.2)" fill="none"/></clipPath><clipPath id="c"><path d="M1229.856,116.828a16.128,16.128,0,1,1-16.128-16.128A16.113,16.113,0,0,1,1229.856,116.828Z" transform="translate(-1197.6 -100.7)" fill="none"/></clipPath><clipPath id="d"><path d="M1228.656,116.328a16.128,16.128,0,1,1-16.128-16.128A16.113,16.113,0,0,1,1228.656,116.328Z" transform="translate(-1196.4 -100.2)" fill="none"/></clipPath></defs><g transform="translate(1333.594 -4405)"><g transform="translate(-1846.294 4342)"><g transform="translate(512.7 63)"><path d="M537.65,71.8h983.364a13.766,13.766,0,0,1,13.75,13.75V335.943a13.766,13.766,0,0,1-13.75,13.75H537.65a13.766,13.766,0,0,1-13.75-13.75V85.55A13.766,13.766,0,0,1,537.65,71.8Z" transform="translate(-515.576 -65.26)" fill="#4a1d1d"/><path d="M526.45,63h983.364a13.766,13.766,0,0,1,13.75,13.75V327.143a13.766,13.766,0,0,1-13.75,13.75H526.45a13.766,13.766,0,0,1-13.75-13.75V76.75A13.766,13.766,0,0,1,526.45,63Z" transform="translate(-512.7 -63)" fill="#4a1d1d"/><g clip-path="url(#a)"><path d="M706.114,429.837v5.871c-2.9,2.75-6.466,2.824-10.405,2.824-52.323.149-104.646,0-156.97-2.527-57.08-2.824-114.085-2.75-171.017,3.865q-40.915,4.794-82.35,6.912c-28.614,1.561-57.3,2.3-85.843,4.088-42.29,2.6-84.5-.3-126.646,1.858C52,453.769,31.487,453.7,10.9,450.8,6.44,450.2,2.65,448.938-.026,445.52V406.277c9.216-3.865,18.952-2.3,28.243-1.486,25.79,2.155,51.357,5.648,77,8.993,31.513,4.162,62.951,2.081,94.39-.892,15.236-1.412,30.547-.372,45.783-.743,42.661-1.115,85.322-.149,127.761,2.527,31.067,1.932,61.316,0,91.863-4.162,11.148-1.486,22.668-1.486,33.891-1.784,16.648-.446,33.074-3.939,49.8-2.378,1.412,0,1.041-1.412,1.041-.074s.372,0-1.041,0c-35.3,1.709-70.532,3.122-105.687,7.284-22,2.6-44.222,3.419-66.742,1.115-19.993-2.007-40.357-1.561-60.573-2.378-17.763-.743-35.526-.149-53.289-.149-32.628,0-65.181.52-97.809,3.493-36.938,3.345-73.505-3.939-110.072-8.1-14.047-1.635-28.094-3.493-42.364-3.27-4.162,0-8.621.892-12.263-1.932V372.906c3.865-4.385,9.365-5.574,15.013-6.615,50.316-9.067,100.856-9.662,151.544-3.419,28.54,3.567,57.228,4.831,85.991,6.094,26.013,1.189,51.952,3.716,78.113,4.831,74.248,3.2,148.348,2.676,222.522-.372,26.608-1.115,53.215-3.79,79.9-3.419,19.25.223,38.2-3.2,57.451-2.007,5.648.372,11.52,0,15.533,4.757v9.811c-7.581,5.871-17.168,1.932-25.641,4.608-8.621,2.75-17.912,3.642-25.864,8.176-3.047,1.709-6.392,3.2-6.243,7.209.149,4.385,3.79,6.243,7.432,7.432,13.081,4.236,25.493,9.885,38.871,13.3,4.459,1.189,8.844,2.378,11.52,6.317Z" transform="translate(-381.027 -138.938)" fill="#c4781c"/><path d="M706.14,106.067V135.5c-9.067,4.459-17.912-.223-26.608-1.189-22.52-2.453-43.776-9.885-65.4-15.756-28.466-8.919-57.9-12.412-87.849-12.486H490.01c41.323-.818,82.5-.595,122.335,11.817,28.763,8.77,57.823,16.351,88,19.547a10.411,10.411,0,0,1,5.8,1.932v7.878c-4.236,3.493-9.588,2.007-14.344,2.23-26.682,1.412-51.729,9.959-77.667,14.493a238.834,238.834,0,0,1-44.3,3.865c27.2.446,53.289-5.128,79.3-11.52a250.408,250.408,0,0,1,45.857-6.986c3.791-.223,7.878-.966,11.148,1.858v25.493c-4.757,4.013-10.628,5.2-16.8,4.831-27.2-1.412-54.256,1.635-81.383,2.378-18.581.52-37.31,1.561-55.891,1.412-14.79-.149-29.506-.818-44.3,0-29.878,1.709-59.458-2.973-89.187-4.534-35.452-1.784-70.83-4.385-106.207-7.284-30.026-2.453-60.053-.3-90-2.081-42.364-2.453-84.8-1.041-127.092-2.973-28.912-1.338-57.823-2.453-86.809-2.6-3.2,0-6.169-.669-8.473-2.973V111.864c4.013-3.79,9.216-2.973,14.047-2.9,37.979.52,75.883-1.635,113.714-3.345,47.492-2.081,94.91-4.682,142.4-4.534,6.763,0,13.452,0,20.141,1.041,12.635-.149,25.047,2.378,37.682,2.676,49.871,2.378,99.146-3.122,148.274-10.108,31.439-4.459,62.8-4.162,94.39-1.784,41.249,3.122,82.35,7.655,123.673,8.844,4.162.149,8.993.223,11.817,4.236Z" transform="translate(-381.053 -70.243)" fill="#c4781c"/><path d="M0,245.692V194.707c2.9-2.824,6.54-2.75,10.405-2.824C55,191.362,99.444,195,144.037,195.524c28.094.372,56.188.595,84.282.892,32.851.3,65.85.074,98.4,2.824,37.682,3.122,75.661,3.122,113.045,7.8,30.026,3.716,59.83,2.824,89.782,2.973,26.013.149,52.026.892,78.039-.3,29.58-1.338,59.087-3.419,88.667-3.493,3.642,0,7.061-.52,9.811,2.23V253.57c-2.75,2.527-5.723,3.493-9.885,3.716-29.8,1.412-59.458,4.385-89.336,5.649-37.161,1.635-73.8-1.635-110.592-4.162-13.081-.892-26.236-1.412-39.391-2.378-30.249-2.155-60.573-2.9-90.822-5.5-13.3-1.115-26.682-.149-39.986-.446-26.682-2.75-53.364-2.527-80.046-1.412-76.106,3.2-152.287.52-228.394,1.486-6.466.074-12.932.223-17.614-4.905Z" transform="translate(-381.052 -96.081)" fill="#c4781c"/><path d="M706.166,278.637v33.371c-3.344,3.2-7.73,2.9-11.966,2.9-9.588,0-19.175.074-28.763,0-31.364-.3-62.654,1.486-93.8,3.419-37.979,2.378-75.809,6.986-113.937,4.98-35.378-1.858-70.83-3.27-106.133-5.946-12.486-.966-25.047,0-37.533-.669-15.608-3.2-31.587-2.081-47.418-3.122-22.148-1.486-44.519-4.385-66.742-2.527-39.317,3.2-78.856,3.2-118.1,7.135-21.479,2.155-43.107,3.642-64.809,2.6-6.094-.3-12.04-1.041-16.871-4.905V270.759c2.527-2.453,5.649-2.081,8.919-2.081,58.269.149,116.612,0,174.881.149,26.979,0,53.958-.3,80.937-1.784,21.851-1.189,43.776.149,65.627,1.784,46.972.669,93.8,4.459,140.618,7.358,37.83,2.378,75.66,6.169,113.639,6.243,32.4,0,64.661-1.932,96.917-5.128,8.176-.818,16.648-2.081,24.6,1.338Z" transform="translate(-381.078 -115.276)" fill="#c4781c"/><path d="M706.14,2.255V43.43c-3.939,4.013-9.216,3.345-13.973,2.676-31.364-4.162-62.58-2.75-93.944,0-14.493,1.263-29.135.743-43.7,1.709-33.222,2.155-66.37,5.723-99.89,4.682-16.425-.52-32.553-2.081-48.756-4.088-27.276-3.345-54.627-1.635-81.978-2.081-54.553.223-109.031,1.486-163.51,3.122C121.666,50.639,83.167,56.287,44.3,56.139c-10.479,0-20.885-.818-31.364-.892C7.358,55.247,2.973,53.76,0,49.3V8.126C3.419,5.748,7.284,6.343,11.223,6.64,57.9,9.836,104.5,14.146,151.4,14.592c34.709.3,69.343-2.453,103.9-5.277,15.162-1.263,30.324-2.378,45.56-2.6C354.742,5.674,408.4-.346,462.287,1.363c59.978,1.858,120.031.372,180.01.966A101.118,101.118,0,0,0,663.479.545c14.2.595,28.614-2.3,42.661,1.784Z" transform="translate(-381.052 -46.848)" fill="#c38a41"/><path d="M706.14,64.11V89.6c-3.047,4.013-7.8,4.311-12.338,3.939-34.709-2.676-69.417-4.757-104.052-8.1-40.58-3.939-81.235-4.608-121.889,1.486-46.229,6.986-92.68,12.115-139.727,8.547a18.582,18.582,0,0,0-5.277.818c-9.067-1.115-18.06-2.973-27.351-2.824C272.1,92.13,248.684,92.2,225.272,92.65q-43.033.892-85.991,3.27-63.546,3.456-127.017,5.5c-4.162.149-8.621.892-12.263-1.932V74c5.649-5.871,13.081-3.939,19.918-3.567,34.857,1.932,69.417-.966,104.126-3.716,24.749-2.007,49.5-4.459,74.4-4.311,39.465.3,78.782-3.419,118.247-2.081a49.335,49.335,0,0,0,7.432-.669c15.236,1.412,30.472.818,45.708.52,22.445-.372,44.371,2.75,66.519,5.351,18.283,2.081,37.013,1.784,55.3.3,39.688-3.27,79.451-4.162,119.139-6.615,27.574-1.709,55.222-2.453,82.721,1.041,4.534.595,9.29.52,12.784,3.939Z" transform="translate(-381.052 -61.658)" fill="#c4781c"/><path d="M0,354.78V335.159c2.676-2.081,5.871-2.155,9.067-1.635,24.452,4.088,48.607-.966,72.911-1.784,23.263-.818,46.6-1.784,69.789-3.568,55.519-4.311,110.741,0,166.037,3.122,61.762,2.23,123.3,9.439,185.212,7.581,28.168-.892,56.188-4.757,84.356-6.169,36.492-1.858,72.985-4.905,109.626-3.344,3.2.149,6.466-.149,9.142,1.932v23.56c-4.013,4.831-9.885,4.608-15.533,4.757-66.3,1.412-132.369,6.169-198.665,8.1-49.945,1.412-99.89,2.378-149.612-.669-59.161-3.567-118.322-6.912-177.334-12.561-22.222-2.155-44.445-4.534-66.89-4.608-28.168-.074-55.816,4.534-83.539,8.175-5.426.743-10.628,1.486-14.567-3.2Z" transform="translate(-381.052 -130.623)" fill="#c4781c"/><path d="M0,361.272c20.736-2.6,41.4-5.351,62.208-7.878,36.269-4.385,72.316.52,108.362,3.047,100.113,7.061,199.854,20.587,300.635,16.277,47.864-2.007,95.653-6.02,143.443-8.473,30.472-1.561,61.019-2.007,91.566-2.9v9.811c-114.383,2.6-228.691,8.993-343.074,5.649-74.174-2.155-148.348-4.831-222.076-13.081-43.85-4.98-87.181-.52-130.362,6.392-3.493.52-7.061.743-10.554,1.115V361.42Z" transform="translate(-381.052 -137.114)" fill="#4b1e1e"/><path d="M432.781,97.888c52.4,2.527,104.052-2.75,155.632-10.405,37.756-5.649,75.809-3.642,113.565,0C740.105,91.2,778.307,93.5,816.435,96.4v7.878a980.914,980.914,0,0,1-111.558-6.392A529.172,529.172,0,0,0,559.5,101.232c-36.864,6.02-74.025,7.878-111.41,6.763-3.865-.149-7.878.52-11.446-1.561-1.932-1.338-4.385-2.3-5.8-4.162-1.412-1.932-2.676-4.311,1.858-4.311Z" transform="translate(-491.347 -68.382)" fill="#4b1e1e"/><path d="M706.14,207.421c-27.351-1.04-54.627,1.115-81.9,2.676a1424.864,1424.864,0,0,1-145.821.818c-49.8-2.453-99.815-5.8-149.537-10.405-31.364-2.9-63.1-1.932-94.687-2.3-43.7-.446-87.329,0-131.031-.743-30.175-.52-60.276-2.6-90.376-3.939-4.236-.149-8.473.074-12.784.149V187.8c36.938,0,73.8.223,110.741,1.709,59.978,2.378,120.031,2.155,179.935,4.757,56.931,2.453,114.011,5.8,170.719,12.635a60.165,60.165,0,0,0,6.392.446c77.741-.3,155.483-.595,233.15-5.2,1.784-.074,3.493-.372,5.277-.595v5.871Z" transform="translate(-381.052 -95.045)" fill="#4b1e1e"/><path d="M806.333,331.539c-45.188-1.709-90,1.858-134.821,6.615-55.519,5.946-110.964,7.284-166.632,2.378-28.911-2.527-57.9-4.608-86.883-6.912-8.175-3.047-17.243.595-27.8-2.824,9.216-3.493,16.5-2.3,23.783-1.561,36.864.446,73.8,1.041,110.518,3.939,44.371,3.419,88.518,1.263,132.815-1.858,49.5-3.493,99.221-3.716,148.943-3.716v3.939Z" transform="translate(-481.245 -130.942)" fill="#4b1e1e"/><path d="M0,417.386c38.573-.669,76.255,7.061,114.383,10.48,25.641,2.3,51.208,1.338,76.627-.892,38.722-3.493,77.37-1.709,116.092-1.338,28.02.223,56.039,2.378,84.133,3.047,44.148,1.115,87.7-7.061,131.7-8.324,16.946-.446,33.891-1.486,52.843-2.3-5.8,5.2-11.52,4.757-16.648,4.905-45.485,1.264-90.748,4.831-135.936,9.216-28.02,2.75-56.114-1.04-84.133-1.709-58.269-1.412-116.464-3.2-174.658,2.081-30.7,2.824-60.945-2.378-91.194-6.02C48.9,423.629,24.6,420.507,0,421.4v-4.013Z" transform="translate(-381.052 -153.986)" fill="#4b1e1e"/><path d="M818.874,278.69c-28.466,3.865-57.154,4.534-85.768,5.649-55.742,2.155-111.187-3.419-166.706-6.838-41.026-2.6-82.052-4.682-123.078-7.061-1.263-1.189-5.351.446-4.013-3.345,27.425-1.189,54.627,1.412,81.9,2.824,57.08,2.9,114.011,8.77,171.24,10.034,34.114.743,68.08-2.824,102.045-6.02,8.1-.743,16.277-.743,24.452-1.041v5.871Z" transform="translate(-493.787 -115.328)" fill="#4b1e1e"/><path d="M436.3,59.956l.149-1.784c29.878-2.081,59.9-2.453,89.336,1.858,36.269,5.277,72.316,3.716,108.362.892,33.668-2.676,67.411-2.9,101.079-5.5,27.8-2.23,55.37.743,82.944,2.155v5.871c-41.7-6.838-83.464-2.6-125.234-1.263-45.337,1.486-90.674,7.8-136.01,4.682-34.263-2.378-68.377-6.54-102.788-5.8-5.946.149-12.04,1.412-17.837-1.041Z" transform="translate(-493.083 -60.848)" fill="#4b1e1e"/><path d="M928.8,421.507v13.75c-4.682,2.007-8.919,0-13.155-1.263-13.155-3.865-25.716-9.067-38.648-13.452-4.088-1.412-9.365-2.824-9.811-7.878-.52-5.351,4.831-6.763,8.844-8.473a104.554,104.554,0,0,1,43.479-8.993c3.642,0,6.763.223,9.29,2.75v9.811C922.633,412.365,923.97,416.9,928.8,421.507Z" transform="translate(-603.714 -148.296)" fill="#c4781c"/><path d="M927.478,396.846c-17.466-.372-34.634.818-50.762,7.878-3.419,1.486-8.25,2.3-8.473,6.466-.149,4.459,4.905,5.128,8.324,6.243,16.946,5.5,33.074,13.229,50.837,16.648v3.939c-19.25-3.642-37.013-11.3-55.147-17.837-4.385-1.561-10.182-3.493-10.257-8.844s5.649-7.061,9.885-9.29C889.128,393.13,908.005,390.9,927.4,390.9v5.871Z" transform="translate(-602.391 -147.196)" fill="#4b1e1e"/><path d="M895.382,170.539c-22.668-1.412-44.222,4.236-65.85,9.365-26.533,6.243-53.438,10.034-80.937,8.547-3.642-.223-7.581.595-11.594-2.155,1.635-.818,2.453-1.709,3.2-1.635,36.418,4.385,70.978-4.608,105.613-12.709,16.277-3.79,32.925-4.385,49.5-5.351v3.939Z" transform="translate(-570.294 -89.602)" fill="#834f27"/><path d="M917.723,148.41c-32.4-2.007-63.1-10.7-93.647-20.141-.223-1.635,0-2.824,2.23-1.635,21.182,4.534,41.472,12.189,63.174,14.79,9.365,1.115,18.8,2.007,28.243,3.047Z" transform="translate(-592.636 -79.216)" fill="#89552b"/><path d="M945.591,425.85H943.51c-4.682-2.081-11.594-3.419-10.925-8.919.818-6.54,8.176-4.162,13.007-4.831v3.939c-2.453,1.932-2.453,3.939,0,5.871v3.939Z" transform="translate(-620.503 -152.639)" fill="#854f2d"/><path d="M947.774,423.227c-2.824-.966-7.209-.966-6.689-4.608.3-2.081,4.311-1.189,6.689-1.264v5.871Z" transform="translate(-622.687 -153.956)" fill="#c4781c"/><path d="M794.5,417.5h29.209A52.063,52.063,0,0,1,794.5,417.5Z" transform="translate(-585.059 -154.026)" fill="#4b1e1e"/><path d="M350.437,153.314c-22.891-3.2-46.006-2.155-69.046-2.527-64.289-.892-128.5-2.23-192.644-6.986-19.993-1.486-39.688,1.858-59.532,2.676-3.419.149-6.986,1.338-12.115-1.041,13.229-3.79,25.418-3.865,37.31-4.98,24.526-2.3,48.979-.223,73.357,2.378,4.236.446,8.473.966,12.709,1.041,65.33,1.412,130.659,2.527,195.989,4.088,42.067,1.041,83.167,8.77,123.822,18.209,16.5,3.865,33.074,7.432,50.019,9.29,2.378.223,4.905.446,6.986,3.865-13.006-.3-24.6-2.973-36.27-5.2-34.337-6.615-68.08-16.054-103.234-19.1-7.061-.595-14.121-.892-21.256-1.338-2.23,1.412-4.311,1.709-6.095-.52Z" transform="translate(-385.443 -82.634)" fill="#4b1e1e"/><path d="M703.565,167.628c-30.547-5.426-67.039-3.27-100.856-16.277-3.79-1.486-8.919-2.155-9.216-6.986-.372-5.351,4.608-7.135,8.993-8.324,42.81-11.743,85.843-17.094,129.47-3.122,12.04,3.865,24.3,7.135,36.418,10.7,2.378.669,5.277,1.486,5.723,3.865.595,2.973-2.973,3.2-4.98,4.162-19.77,9.736-43.4,15.831-65.478,15.979Z" transform="translate(-533.441 -78.813)" fill="#4b1e1e"/><path d="M782.935,122.363,780.705,124C739.828,111.809,697.39,112.181,655.1,111.14c43.256-2.973,86.289-3.2,127.761,11.223Z" transform="translate(-549.265 -74.945)" fill="#8d592c"/><path d="M719.6,191.575c-7.135.52-14.2,3.642-21.4.223A43.485,43.485,0,0,1,719.6,191.575Z" transform="translate(-560.331 -95.698)" fill="#7c4722"/><path d="M770.569,149.227c-21.256,11.966-41.844,18.655-63.62,16.648-28.094-2.676-56.188-6.392-83.836-12.263a66.1,66.1,0,0,1-10.182-2.676c-3.716-1.486-10.331-1.263-10.331-5.2,0-4.385,6.169-5.723,10.479-6.615,42.215-8.7,84.356-14.493,126.349,1.189,9.142,3.419,18.8,5.5,31.141,9.067Z" transform="translate(-535.784 -80.33)" fill="#c4781c"/><path d="M718.569,160.012c-12.189-2.6-25.939-2.6-38.351-7.8-3.2-1.338-7.432-2.824-6.838-6.54.669-4.385,5.8-4.905,9.365-4.682,8.77.595,17.466,2.23,26.162,3.345,8.4,1.115,16.8,1.932,25.2,3.2,2.6.372,6.392.446,6.466,3.865.074,2.973-3.122,4.162-5.648,5.2a44.036,44.036,0,0,1-16.277,3.419Z" transform="translate(-553.944 -83.014)" fill="#8b572d"/><path d="M735.926,152.272C724.034,160.15,692.67,157.1,678.4,146.7,699.062,143.2,716.379,151.231,735.926,152.272Z" transform="translate(-555.247 -84.267)" fill="#c38d4f"/><path d="M949,429.837v5.871c2.9,2.75,6.466,2.824,10.405,2.824,52.323.149,104.646,0,156.969-2.527,57.08-2.824,114.085-2.75,171.016,3.865,27.276,3.2,54.776,5.5,82.35,6.912,28.614,1.561,57.3,2.3,85.843,4.088,42.29,2.6,84.505-.3,126.646,1.858,20.885,1.04,41.4.966,61.985-1.932,4.459-.595,8.25-1.858,10.925-5.277V406.277c-9.216-3.865-18.952-2.3-28.243-1.486-25.79,2.155-51.357,5.648-77,8.993-31.513,4.162-62.951,2.081-94.39-.892-15.236-1.412-30.547-.372-45.783-.743-42.661-1.115-85.322-.149-127.761,2.527-31.067,1.932-61.316,0-91.863-4.162-11.148-1.486-22.669-1.486-33.891-1.784-16.648-.446-33.073-3.939-49.8-2.378-1.412,0-1.041-1.412-1.041-.074s-.371,0,1.041,0c35.3,1.709,70.532,3.122,105.687,7.284,22,2.6,44.222,3.419,66.742,1.115,19.993-2.007,40.357-1.561,60.573-2.378,17.763-.743,35.526-.149,53.29-.149,32.628,0,65.181.52,97.809,3.493,36.938,3.345,73.505-3.939,110.072-8.1,14.047-1.635,28.094-3.493,42.364-3.27,4.162,0,8.621.892,12.263-1.932V372.906c-3.865-4.385-9.365-5.574-15.013-6.615-50.317-9.067-100.856-9.662-151.544-3.419-28.54,3.567-57.229,4.831-85.992,6.094-26.013,1.189-51.952,3.716-78.113,4.831-74.248,3.2-148.348,2.676-222.522-.372-26.607-1.115-53.215-3.79-79.9-3.419-19.25.223-38.2-3.2-57.451-2.007-5.648.372-11.52,0-15.533,4.757v9.811c7.581,5.871,17.169,1.932,25.641,4.608,8.621,2.75,17.912,3.642,25.864,8.176,3.047,1.709,6.392,3.2,6.243,7.209-.149,4.385-3.791,6.243-7.432,7.432-13.081,4.236-25.493,9.885-38.871,13.3-4.459,1.189-8.844,2.378-11.52,6.317Z" transform="translate(-624.73 -138.938)" fill="#c4781c"/><path d="M949,106.067V135.5c9.067,4.459,17.912-.223,26.608-1.189,22.52-2.453,43.776-9.885,65.4-15.756,28.466-8.919,57.9-12.412,87.849-12.486h36.27c-41.323-.818-82.5-.595-122.335,11.817-28.763,8.77-57.823,16.351-88,19.547a10.411,10.411,0,0,0-5.8,1.932v7.878c4.236,3.493,9.588,2.007,14.344,2.23,26.682,1.412,51.729,9.959,77.667,14.493a238.832,238.832,0,0,0,44.3,3.865c-27.2.446-53.289-5.128-79.3-11.52a250.409,250.409,0,0,0-45.857-6.986c-3.79-.223-7.878-.966-11.148,1.858v25.493c4.757,4.013,10.628,5.2,16.8,4.831,27.2-1.412,54.256,1.635,81.383,2.378,18.581.52,37.31,1.561,55.891,1.412,14.79-.149,29.506-.818,44.3,0,29.878,1.709,59.458-2.973,89.187-4.534,35.452-1.784,70.829-4.385,106.207-7.284,30.026-2.453,60.053-.3,90-2.081,42.364-2.453,84.8-1.041,127.092-2.973,28.912-1.338,57.823-2.453,86.809-2.6,3.2,0,6.169-.669,8.473-2.973V111.864c-4.014-3.79-9.216-2.973-14.047-2.9-37.979.52-75.884-1.635-113.714-3.345-47.492-2.081-94.91-4.682-142.4-4.534-6.763,0-13.452,0-20.141,1.041-12.635-.149-25.047,2.378-37.682,2.676-49.871,2.378-99.147-3.122-148.274-10.108-31.439-4.459-62.8-4.162-94.39-1.784-41.249,3.122-82.349,7.655-123.673,8.844-4.162.149-8.993.223-11.817,4.236Z" transform="translate(-624.73 -70.243)" fill="#c4781c"/><path d="M1655.166,245.692V194.707c-2.9-2.824-6.54-2.75-10.405-2.824-44.594-.52-89.039,3.122-133.632,3.642-28.094.372-56.188.595-84.282.892-32.851.3-65.85.074-98.4,2.824-37.682,3.122-75.661,3.122-113.045,7.8-30.026,3.716-59.83,2.824-89.782,2.973-26.013.149-52.026.892-78.039-.3-29.581-1.338-59.087-3.419-88.667-3.493-3.642,0-7.061-.52-9.811,2.23V253.57c2.75,2.527,5.723,3.493,9.885,3.716,29.8,1.412,59.458,4.385,89.336,5.649,37.161,1.635,73.8-1.635,110.592-4.162,13.081-.892,26.236-1.412,39.391-2.378,30.249-2.155,60.573-2.9,90.822-5.5,13.3-1.115,26.682-.149,39.986-.446,26.682-2.75,53.364-2.527,80.046-1.412,76.106,3.2,152.287.52,228.394,1.486,6.466.074,12.932.223,17.615-4.905Z" transform="translate(-624.756 -96.081)" fill="#c4781c"/><path d="M948.974,278.637v33.371c3.345,3.2,7.73,2.9,11.966,2.9,9.588,0,19.175.074,28.763,0,31.364-.3,62.654,1.486,93.8,3.419,37.979,2.378,75.809,6.986,113.937,4.98,35.377-1.858,70.829-3.27,106.133-5.946,12.486-.966,25.047,0,37.533-.669,15.608-3.2,31.587-2.081,47.418-3.122,22.148-1.486,44.519-4.385,66.742-2.527,39.317,3.2,78.856,3.2,118.1,7.135,21.479,2.155,43.107,3.642,64.809,2.6,6.094-.3,12.04-1.041,16.871-4.905V270.759c-2.527-2.453-5.648-2.081-8.919-2.081-58.269.149-116.612,0-174.881.149-26.979,0-53.958-.3-80.937-1.784-21.851-1.189-43.776.149-65.627,1.784-46.972.669-93.8,4.459-140.619,7.358-37.83,2.378-75.661,6.169-113.64,6.243-32.4,0-64.661-1.932-96.917-5.128-8.176-.818-16.648-2.081-24.6,1.338Z" transform="translate(-624.704 -115.276)" fill="#c4781c"/><path d="M949,2.255V43.43c3.939,4.013,9.216,3.345,13.973,2.676,31.364-4.162,62.58-2.75,93.944,0,14.493,1.263,29.134.743,43.7,1.709,33.222,2.155,66.37,5.723,99.89,4.682,16.425-.52,32.553-2.081,48.756-4.088,27.276-3.345,54.627-1.635,81.978-2.081,54.553.223,109.031,1.486,163.51,3.122,38.722,1.189,77.221,6.838,116.092,6.689,10.479,0,20.885-.818,31.364-.892,5.574,0,9.959-1.486,12.932-5.946V8.126c-3.419-2.378-7.284-1.784-11.223-1.486-46.675,3.2-93.275,7.507-140.173,7.953-34.709.3-69.343-2.453-103.9-5.277-15.162-1.263-30.324-2.378-45.56-2.6C1300.4,5.674,1246.737-.346,1192.853,1.363c-59.978,1.858-120.031.372-180.009.966A101.117,101.117,0,0,1,991.661.545c-14.2.595-28.614-2.3-42.661,1.784Z" transform="translate(-624.73 -46.848)" fill="#c38a41"/><path d="M948.949,64.11V89.6c3.047,4.013,7.8,4.311,12.338,3.939,34.709-2.676,69.417-4.757,104.052-8.1,40.58-3.939,81.235-4.608,121.889,1.486,46.229,6.986,92.68,12.115,139.727,8.547a18.583,18.583,0,0,1,5.277.818c9.067-1.115,18.06-2.973,27.351-2.824,23.412-1.338,46.823-1.263,70.235-.818q43.033.892,85.991,3.27,63.546,3.456,127.018,5.5c4.162.149,8.621.892,12.263-1.932V74c-5.648-5.871-13.081-3.939-19.918-3.567-34.857,1.932-69.418-.966-104.126-3.716-24.749-2.007-49.5-4.459-74.4-4.311-39.465.3-78.782-3.419-118.247-2.081a49.336,49.336,0,0,1-7.432-.669c-15.236,1.412-30.472.818-45.708.52-22.446-.372-44.371,2.75-66.519,5.351-18.283,2.081-37.013,1.784-55.3.3-39.688-3.27-79.451-4.162-119.139-6.615-27.574-1.709-55.222-2.453-82.721,1.041-4.534.595-9.29.52-12.784,3.939Z" transform="translate(-624.679 -61.658)" fill="#c4781c"/><path d="M1655.14,354.78V335.159c-2.676-2.081-5.871-2.155-9.067-1.635-24.452,4.088-48.607-.966-72.911-1.784-23.263-.818-46.6-1.784-69.789-3.568-55.519-4.311-110.741,0-166.037,3.122-61.762,2.23-123.3,9.439-185.212,7.581-28.168-.892-56.188-4.757-84.356-6.169-36.492-1.858-72.985-4.905-109.626-3.344-3.2.149-6.466-.149-9.142,1.932v23.56c4.013,4.831,9.885,4.608,15.533,4.757,66.3,1.412,132.369,6.169,198.665,8.1,49.945,1.412,99.89,2.378,149.612-.669,59.161-3.567,118.322-6.912,177.334-12.561,22.223-2.155,44.445-4.534,66.891-4.608,28.168-.074,55.816,4.534,83.539,8.175,5.426.743,10.628,1.486,14.567-3.2Z" transform="translate(-624.73 -130.623)" fill="#c4781c"/><path d="M1655.114,361.272c-20.736-2.6-41.4-5.351-62.208-7.878-36.269-4.385-72.316.52-108.363,3.047-100.113,7.061-199.854,20.587-300.635,16.277-47.864-2.007-95.653-6.02-143.443-8.473-30.472-1.561-61.019-2.007-91.566-2.9v9.811c114.383,2.6,228.691,8.993,343.074,5.649,74.174-2.155,148.348-4.831,222.076-13.081,43.85-4.98,87.181-.52,130.362,6.392,3.493.52,7.061.743,10.554,1.115V361.42Z" transform="translate(-624.704 -137.114)" fill="#4b1e1e"/><path d="M1332.754,97.888c-52.4,2.527-104.052-2.75-155.632-10.405-37.756-5.649-75.809-3.642-113.565,0C1025.43,91.2,987.228,93.5,949.1,96.4v7.878a980.912,980.912,0,0,0,111.558-6.392,529.172,529.172,0,0,1,145.375,3.345c36.864,6.02,74.025,7.878,111.41,6.763,3.865-.149,7.878.52,11.446-1.561,1.932-1.338,4.385-2.3,5.8-4.162,1.412-1.932,2.676-4.311-1.858-4.311Z" transform="translate(-624.756 -68.382)" fill="#4b1e1e"/><path d="M948.974,207.421c27.351-1.04,54.627,1.115,81.9,2.676a1424.862,1424.862,0,0,0,145.821.818c49.8-2.453,99.815-5.8,149.537-10.405,31.364-2.9,63.1-1.932,94.687-2.3,43.7-.446,87.329,0,131.031-.743,30.175-.52,60.276-2.6,90.376-3.939,4.236-.149,8.473.074,12.783.149V187.8c-36.938,0-73.8.223-110.741,1.709-59.978,2.378-120.031,2.155-179.935,4.757-56.931,2.453-114.011,5.8-170.719,12.635a60.166,60.166,0,0,1-6.392.446c-77.741-.3-155.483-.595-233.15-5.2-1.784-.074-3.493-.372-5.277-.595v5.871Z" transform="translate(-624.704 -95.045)" fill="#4b1e1e"/><path d="M949,331.539c45.188-1.709,90,1.858,134.821,6.615,55.519,5.946,110.964,7.284,166.631,2.378,28.912-2.527,57.9-4.608,86.883-6.912,8.176-3.047,17.243.595,27.8-2.824-9.216-3.493-16.5-2.3-23.783-1.561-36.864.446-73.8,1.041-110.518,3.939-44.371,3.419-88.518,1.263-132.815-1.858-49.5-3.493-99.221-3.716-148.943-3.716v3.939Z" transform="translate(-624.73 -130.942)" fill="#7d4a2e"/><path d="M1795.546,109.562c-68.451-1.041-136.531-8.621-204.908-10.777-30.472-.966-60.945-3.345-91.343,1.189-1.635,2.007-4.608,3.79-3.047,6.689,1.635,3.047,4.757,1.858,7.432,1.115,78.931-1.784,157.638,3.642,236.42,4.905,18.506.3,36.938.446,55.445.743v-3.865Z" transform="translate(-765.136 -71.806)" fill="#4b1e1e"/><path d="M1700.178,417.386c-38.573-.669-76.255,7.061-114.383,10.48-25.641,2.3-51.208,1.338-76.627-.892-38.722-3.493-77.37-1.709-116.092-1.338-28.02.223-56.039,2.378-84.133,3.047-44.148,1.115-87.7-7.061-131.7-8.324-16.946-.446-33.891-1.486-52.843-2.3,5.8,5.2,11.52,4.757,16.648,4.905,45.485,1.264,90.748,4.831,135.936,9.216,28.02,2.75,56.114-1.04,84.133-1.709,58.269-1.412,116.464-3.2,174.658,2.081,30.7,2.824,60.945-2.378,91.194-6.02,24.3-2.9,48.607-6.02,73.208-5.128v-4.013Z" transform="translate(-669.768 -153.986)" fill="#4b1e1e"/><path d="M1462.775,61.055c12.189,3.2,24.749,1.561,37.087,1.486,71.275-.595,141.882,7.209,212.637,12.784,24.9,1.932,49.722-.074,74.546-.966V64.549c-28.986,3.865-58.046,2.75-87.106,1.263-29.729-1.561-59.458-4.162-89.262-4.98-46.526-1.263-93.052-1.412-139.5-1.932-2.824,0-5.649.3-8.473.446l.149,1.784Z" transform="translate(-756.634 -61.947)" fill="#4b1e1e"/><path d="M948.974,278.69c28.466,3.865,57.154,4.534,85.768,5.649,55.742,2.155,111.187-3.419,166.706-6.838,41.026-2.6,82.052-4.682,123.078-7.061,1.263-1.189,5.351.446,4.013-3.345-27.425-1.189-54.627,1.412-81.9,2.824-57.08,2.9-114.011,8.77-171.24,10.034-34.114.743-68.08-2.824-102.045-6.02-8.1-.743-16.277-.743-24.452-1.041v5.871Z" transform="translate(-624.704 -115.328)" fill="#804d28"/><path d="M1330.87,59.956l-.149-1.784c-29.878-2.081-59.9-2.453-89.336,1.858-36.27,5.277-72.316,3.716-108.363.892-33.668-2.676-67.411-2.9-101.079-5.5-27.8-2.23-55.37.743-82.944,2.155v5.871c41.7-6.838,83.464-2.6,125.234-1.263,45.337,1.486,90.674,7.8,136.011,4.682,34.263-2.378,68.377-6.54,102.788-5.8,5.946.149,12.04,1.412,17.837-1.041Z" transform="translate(-624.73 -60.848)" fill="#4b1e1e"/><path d="M1475.414,328.067h16.8c-6.615,3.79-14.419.3-20.81,4.311,26.31.372,52.4-2.824,78.633-4.236,38.425-2.007,76.626,1.858,114.9,2.824,41.472,1.041,82.8,6.838,124.416,3.2v-3.939c-37.31,4.459-74.249-1.338-111.336-3.122-55.147-2.6-110.295-7.507-165.517-1.412-12.263,1.338-24.824-.446-37.013,2.3Z" transform="translate(-758.869 -129.7)" fill="#4b1e1e"/><path d="M1458.414,266.381l-4.013,3.345q162.1.446,324.2.966a60.31,60.31,0,0,0,6.317-.52V264.3c-4.905.52-9.885,1.486-14.79,1.486-69.566.223-139.206,1.115-208.772,0-32.256-.52-64.512-1.932-96.768-.52a36.113,36.113,0,0,0-6.169,1.189Z" transform="translate(-754.503 -114.688)" fill="#4b1e1e"/><path d="M949,421.507v13.75c4.682,2.007,8.919,0,13.155-1.263,13.155-3.865,25.716-9.067,38.648-13.452,4.088-1.412,9.365-2.824,9.811-7.878.52-5.351-4.831-6.763-8.844-8.473A104.554,104.554,0,0,0,958.29,395.2c-3.642,0-6.763.223-9.29,2.75v9.811C955.169,412.365,953.831,416.9,949,421.507Z" transform="translate(-624.73 -148.296)" fill="#c4781c"/><path d="M949,396.846c17.466-.372,34.634.818,50.762,7.878,3.419,1.486,8.25,2.3,8.473,6.466.149,4.459-4.905,5.128-8.324,6.243-16.946,5.5-33.074,13.229-50.837,16.648v3.939c19.25-3.642,37.013-11.3,55.148-17.837,4.385-1.561,10.182-3.493,10.257-8.844s-5.648-7.061-9.885-9.29c-17.243-8.919-36.121-11.148-55.519-11.148v5.871Z" transform="translate(-624.73 -147.196)" fill="#4b1e1e"/><path d="M949,170.539c22.668-1.412,44.222,4.236,65.85,9.365,26.533,6.243,53.438,10.034,80.937,8.547,3.642-.223,7.581.595,11.594-2.155-1.635-.818-2.453-1.709-3.2-1.635-36.418,4.385-70.978-4.608-105.613-12.709-16.277-3.79-32.925-4.385-49.5-5.351v3.939Z" transform="translate(-624.73 -89.602)" fill="#834f27"/><path d="M949,148.41c32.4-2.007,63.1-10.7,93.647-20.141.223-1.635,0-2.824-2.23-1.635-21.182,4.534-41.472,12.189-63.174,14.79-9.365,1.115-18.8,2.007-28.243,3.047Z" transform="translate(-624.73 -79.216)" fill="#89552b"/><path d="M949,425.85h2.081c4.682-2.081,11.594-3.419,10.925-8.919-.818-6.54-8.176-4.162-13.007-4.831v3.939c2.453,1.932,2.453,3.939,0,5.871v3.939Z" transform="translate(-624.73 -152.639)" fill="#4b1e1e"/><path d="M949,423.227c2.824-.966,7.209-.966,6.689-4.608-.3-2.081-4.311-1.189-6.689-1.264v5.871Z" transform="translate(-624.73 -153.956)" fill="#c4781c"/><path d="M1094.509,417.5H1065.3A52.062,52.062,0,0,0,1094.509,417.5Z" transform="translate(-654.593 -154.026)" fill="#4b1e1e"/><path d="M1375.954,153.314c22.891-3.2,46.006-2.155,69.046-2.527,64.289-.892,128.5-2.23,192.644-6.986,19.993-1.486,39.688,1.858,59.532,2.676,3.419.149,6.986,1.338,12.115-1.041-13.229-3.79-25.418-3.865-37.31-4.98-24.526-2.3-48.979-.223-73.356,2.378-4.236.446-8.473.966-12.709,1.041-65.33,1.412-130.659,2.527-195.989,4.088-42.067,1.041-83.167,8.77-123.822,18.209-16.5,3.865-33.074,7.432-50.019,9.29-2.378.223-4.905.446-6.986,3.865,13.007-.3,24.6-2.973,36.27-5.2,34.337-6.615,68.08-16.054,103.234-19.1,7.061-.595,14.121-.892,21.256-1.338,2.23,1.412,4.311,1.709,6.094-.52Z" transform="translate(-691.517 -82.634)" fill="#4b1e1e"/><path d="M1133.21,167.628c30.546-5.426,67.039-3.27,100.856-16.277,3.791-1.486,8.919-2.155,9.216-6.986.372-5.351-4.608-7.135-8.993-8.324-42.81-11.743-85.843-17.094-129.47-3.122-12.04,3.865-24.3,7.135-36.418,10.7-2.378.669-5.277,1.486-5.723,3.865-.595,2.973,2.973,3.2,4.98,4.162,19.77,9.736,43.4,15.831,65.478,15.979Z" transform="translate(-653.903 -78.813)" fill="#804d28"/><path d="M1430.109,158.1c-2.007.149-4.088.372-6.094.52-1.115,3.122-2.453,6.169-3.344,9.29-2.081,7.507.669,12.709,8.844,15.31,10.479,3.345,11.966-5.2,14.641-10.331,3.345-6.54-1.04-11.148-7.8-13.675-1.932-.743-4.162-.743-6.243-1.115Z" transform="translate(-745.671 -87.419)" fill="#c7904e"/><path d="M1072,122.363l2.23,1.635c40.877-12.189,83.316-11.817,125.605-12.858-43.256-2.973-86.289-3.2-127.761,11.223Z" transform="translate(-656.313 -74.945)" fill="#4b1e1e"/><path d="M1494.586,108.749c-6.986,0-3.2-5.128-4.385-7.878-8.77-.223-17.615-1.189-26.236,1.263-1.263,2.824-2.6,5.649-3.865,8.473,11.52.074,23.114.52,34.486-1.784Z" transform="translate(-755.967 -72.628)" fill="#4b1e1e"/><path d="M1172.1,191.575c7.135.52,14.2,3.642,21.4.223A43.485,43.485,0,0,0,1172.1,191.575Z" transform="translate(-682.016 -95.698)" fill="#7c4722"/><path d="M1070.5,149.227c21.256,11.966,41.844,18.655,63.62,16.648,28.094-2.676,56.188-6.392,83.836-12.263a66.088,66.088,0,0,0,10.182-2.676c3.716-1.486,10.331-1.263,10.331-5.2,0-4.385-6.169-5.723-10.479-6.615-42.215-8.7-84.356-14.493-126.349,1.189-9.142,3.419-18.8,5.5-31.141,9.067Z" transform="translate(-655.928 -80.33)" fill="#c7904e"/><path d="M1157.3,160.012c12.189-2.6,25.939-2.6,38.35-7.8,3.2-1.338,7.432-2.824,6.838-6.54-.669-4.385-5.8-4.905-9.365-4.682-8.77.595-17.466,2.23-26.161,3.345-8.4,1.115-16.8,1.932-25.2,3.2-2.6.372-6.392.446-6.466,3.865-.074,2.973,3.122,4.162,5.648,5.2a44.036,44.036,0,0,0,16.277,3.419Z" transform="translate(-672.567 -83.014)" fill="#8b572d"/><path d="M1143.3,152.272c11.892,7.878,43.256,4.831,57.526-5.574C1180.164,143.2,1162.847,151.231,1143.3,152.272Z" transform="translate(-674.621 -84.267)" fill="#c38d4f"/></g><path d="M1486.616,100.2c6.466,67.262,13.006,147.382,12.932,212.786-49.276,4.905-98.7,2.081-148.274,5.426-243.481,16.128-505.469,8.919-740.774.743,10.034-50.465,19.918-93.572,15.608-144.409-1.263-14.642,8.176-54.479,8.176-54.479s83.39.223,110.295.595q240.248,3.122,480.571-2.973c22.668-.595,261.616-15.236,261.542-17.689Z" transform="translate(-537.812 -72.552)" fill="#2f0c0d"/><path d="M1486.642,100.2q3.01,99,6.02,198-73.914,7.358-148.274,12.263c-243.481,16.128-489.043,12.412-733.788,8.7a543.563,543.563,0,0,0,8.621-152.287c-1.263-14.642,8.176-54.479,8.176-54.479s83.39.223,110.295.595q240.248,3.122,480.57-2.973c22.668-.595,268.528-7.284,268.453-9.736Z" transform="translate(-537.838 -72.552)" fill="#e9e5b2"/><g transform="translate(857.947 114.16)"><path d="M1752.226,313.22a29.8,29.8,0,0,1,5.872-3.642,32.638,32.638,0,0,1,29.135,1.041,25.425,25.425,0,0,1,9.067,8.25l1.635.743,1.263-1.264v-.892l-.743-1.338a36.578,36.578,0,0,0-7.209-6.763,32.914,32.914,0,0,0-23.263-6.02,35.716,35.716,0,0,0-14.716,4.98,33.657,33.657,0,0,0-3.419,2.23l-1.04-.149-2.23-2.676V306.9l1.709-1.635,1.263-.892.966-.149c6.169-.966,12.412-1.932,18.581-3.047,2.3-.372,4.534-.818,6.838-1.04,1.338-.149,1.784-.595,1.932-1.932a5.057,5.057,0,0,0-1.412-4.162l.223-1.486,2.3-1.561a4.594,4.594,0,0,0,2.081-4.311l-.223-2.155a69.839,69.839,0,0,0-2.527-10.331c-1.189-3.493-2.453-6.912-3.493-10.479a17.837,17.837,0,0,1-.892-3.27,16.357,16.357,0,0,0-.446-2.75,9.39,9.39,0,0,0-4.831-6.392l-1.338-.966a25.031,25.031,0,0,0-2.75-2.155l-1.041-1.263a10.7,10.7,0,0,0-5.128-5.426,18.775,18.775,0,0,0,5.723.3,30.816,30.816,0,0,0,6.243-1.189,6.983,6.983,0,0,0,2.675-1.338l.743-.372a7.7,7.7,0,0,1,5.277.669c1.932.966,3.716,2.23,5.649,3.345a24.159,24.159,0,0,0,7.953,3.047,4.929,4.929,0,0,0,3.27-.149l.669-1.635-.3-.52c-.817-1.338-1.561-2.676-2.378-4.013a45.821,45.821,0,0,1-2.973-5.277,5.589,5.589,0,0,1,.52-5.871,37.434,37.434,0,0,1,5.277-6.094c.966-.818.966-1.338.074-2.23a6.107,6.107,0,0,0-2.378-1.709,29.58,29.58,0,0,0-6.095-1.635c-.966-.149-2.007,0-2.973-.223h-4.013l-2.081.3a47.812,47.812,0,0,0-7.8,2.527c-2.973,1.115-5.871,2.676-8.844,3.79a17.03,17.03,0,0,1-12.263.223,12.129,12.129,0,0,1-4.905-3.047l-1.412-1.189-.966.372c-1.561,4.162-3.122,8.324-4.459,12.561a69.618,69.618,0,0,0-2.155,8.621l-.966.818c-1.115,0-2.156.223-3.27.223l-.818-.818a87.723,87.723,0,0,0,0-9.885,13.362,13.362,0,0,0-3.2-8.7,16.229,16.229,0,0,0-27.128,4.311,11.518,11.518,0,0,0-.966,5.277l.595.892.669.892c-.149,1.784,0,3.567,0,5.351l-.149.818c-.817,2.378-1.486,4.831-2.155,7.209l.446,1.041,1.784.669c1.784.372,3.568.669,5.426.892a5.11,5.11,0,0,0-1.487,3.2l-.3,2.007c-1.041,2.824-1.635,5.8-2.6,8.7a47.255,47.255,0,0,1-6.615,12.189c-1.189,1.709-2.453,3.567-4.459,4.534l-.669.743-1.115.966a6.6,6.6,0,0,0-3.345,2.676,31,31,0,0,0-1.932,3.419l.148,1.041,1.561,1.486a35.263,35.263,0,0,0,3.79,2.75,2.862,2.862,0,0,1,1.189,3.344c-1.338,4.311-2.75,8.621-4.088,12.932-.446,1.412-.372,1.412-1.858,1.263a28.165,28.165,0,0,0-22.52,7.432,30.935,30.935,0,0,0-7.209,10.7,14.911,14.911,0,0,0-1.263,4.98c-.074,1.115-.223,2.23-.372,3.27v3.716l.149,2.3a27.3,27.3,0,0,0,9.885,17.392,28.261,28.261,0,0,0,39.614-3.493,28.018,28.018,0,0,0,6.318-22.966l-.3-1.932a10.56,10.56,0,0,0,3.716.372l.817.595.52,1.263,1.635.818,1.858-.223.595.149-.149.52-.223.3a8.306,8.306,0,0,0-.892,5.5,8.723,8.723,0,0,0,2.007,4.162v1.412l-1.263,1.932V351.2a4.244,4.244,0,0,1,.074.966,1.47,1.47,0,0,0,1.041,2.453,5.174,5.174,0,0,0,4.682-1.338l1.635-1.338.743.149.223.372,1.561.52a27.992,27.992,0,0,0,5.871-3.939c1.487-1.412,1.338-1.635.52-2.9v-.892c1.04-.892,1.784-1.932,2.75-2.75l.818-.446h4.236l.446.52.149,1.561a25.4,25.4,0,0,0,1.263,6.615,28.98,28.98,0,0,0,8.324,12.635,26.686,26.686,0,0,0,13.6,6.466c1.115.223,2.3.149,3.419.3h4.311a16.768,16.768,0,0,0,4.236-.669,29.137,29.137,0,0,0,14.2-8.7,26.627,26.627,0,0,0,4.905-7.8,30.33,30.33,0,0,0,2.23-9.885,26.84,26.84,0,0,0-1.709-10.851,37.5,37.5,0,0,0-4.608-8.473l-1.115-1.263-2.007-1.709a29.52,29.52,0,0,0-7.953-5.054,28.893,28.893,0,0,0-25.567,1.858l-1.189-.149-2.9-3.345.149-1.115Zm-63.323-24.6-.3-.892,1.189-1.412,2.6-.743.446.446a2.345,2.345,0,0,0,2.378,2.378,11.113,11.113,0,0,0,4.905-2.007l.595-1.561.446-.52a2.791,2.791,0,0,0,1.635-2.378l-.892-1.115h-.3c-1.041-.223-1.115-.372-.52-1.189,1.635-2.155,3.27-4.311,4.98-6.317a25.063,25.063,0,0,0,3.2-5.649l.743-1.338h.446c0-.074.595,1.412.595,1.412L1711.2,269a16.056,16.056,0,0,0,4.534,6.169l.149.818a22.134,22.134,0,0,1-2.6,3.716,38.553,38.553,0,0,0-5.723,7.73,12.054,12.054,0,0,1-2.527,3.27l-.743,1.115-.595.743-1.709,1.338-2.081.966h-.446a5.66,5.66,0,0,1-2.824-2.081,3.66,3.66,0,0,0-3.642-2.081l-1.338-.372-2.6-1.561Zm22.074,8.77c-.372.966-.966,1.709-1.263,2.6l-.52.223c-5.2.446-10.479.669-15.682.669l-.446-.595.669-2.378,1.784-.743c1.115.52,2.3,1.04,3.419,1.635a5.928,5.928,0,0,0,2.75.595l1.115-.595,1.709-2.007,1.338.149c.818,1.189,2.007,1.115,3.2.966l2.007-.446Zm-23.114,20.736.892-.446a22.858,22.858,0,0,1,10.034,6.615v.743c-5.128,3.345-10.256,6.763-15.31,10.108l-.372.149v-.669c1.635-5.5,3.27-11,4.831-16.5Zm-17.763,1.858a21.584,21.584,0,0,1,14.344-3.2c-.892,2.75-1.709,5.5-2.527,8.176s-1.635,5.277-2.453,7.953l-.818.818-.966-.595c-1.709-2.973-3.642-5.8-5.5-8.7-.743-1.189-1.486-2.378-2.3-3.567l.223-.892Zm-8.844,10.331a22.3,22.3,0,0,1,7.135-9.216l.817.149c2.378,3.79,4.831,7.581,7.209,11.3l.446,1.263-.372,1.561-.743.223c-1.858-.595-3.642-1.115-5.5-1.709-2.824-.892-5.723-1.784-8.547-2.6l-.446-.892Zm.52,18.506a24.261,24.261,0,0,1-2.3-10.331,24.519,24.519,0,0,1,.966-6.094l.966-.52c4.608,1.486,9.216,2.9,13.824,4.311l.669.892.52,2.155-.149.595c-4.608,3.047-9.29,6.095-13.9,9.216l-.669-.223Zm13.973,11.669a22.576,22.576,0,0,1-13.081-9.959l.223-.818c4.608-3.047,9.216-6.094,13.75-9.142h1.115l.966.446.52.669c-.3,2.007-.595,3.939-.966,5.946-.669,4.162-1.338,8.4-2.007,12.561l-.52.372ZM1692.4,358.7a22.567,22.567,0,0,1-10.405,2.676,21.091,21.091,0,0,1-4.459-.446l-.446-.669c.966-6.169,1.932-12.263,2.9-18.432l1.338-1.189.595.372c3.568,5.649,7.135,11.223,10.7,16.8l-.223.818Zm10.777-13.081a22.448,22.448,0,0,1-8.919,11.966l-1.115-.223c-2.973-4.682-5.946-9.365-8.993-14.047l-1.709-2.6v-1.041c.074,0,.52-.595.52-.595l.595-.223.446.149c6.243,1.932,12.412,3.865,18.655,5.723l.446.892Zm.52-2.007-.743.446c-6.243-1.932-12.561-3.865-18.8-5.8l-.446-2.23.446-.372c4.905-3.27,9.811-6.466,14.716-9.736l1.115.223a21.48,21.48,0,0,1,4.088,12.338,32.337,32.337,0,0,1-.446,5.2Zm8.993-19.027-2.378.669-1.858.966-1.412.818-.372-.3a28.5,28.5,0,0,0-3.419-5.351,27.745,27.745,0,0,0-13.006-8.919l-.52-.892c.595-2.007,1.263-4.013,1.709-6.02.223-1.189.446-1.338,1.635-1.263h3.27c3.122-.149,6.243-.223,9.365-.446,1.115,0,2.3,0,3.419-.074l.52.52c.372,1.932.743,3.939,1.041,5.871.595,3.642,1.412,7.209,2.155,10.777l.446,2.75-.595.892Zm5.054-35.155a43.845,43.845,0,0,0-3.79,3.642l-.446.52a2.206,2.206,0,0,1,.52-2.453,28.254,28.254,0,0,1,3.865-3.419l1.561-1.486a4.049,4.049,0,0,1-1.635,3.27Zm32.033,8.621a22.624,22.624,0,0,0-3.865.966,4.023,4.023,0,0,0-2.676,2.973l-.669,1.412-.966-.966a2.736,2.736,0,0,1-.743-3.79,27.269,27.269,0,0,0,1.115-3.2l1.115-1.784h.892l2.156,1.784c1.709,1.486,3.79,1.784,6.02,2.081l-2.3.446Zm-10.256-61.391.669-.446,2.007.149a44.891,44.891,0,0,1,10.034,3.568c-2.378.074-4.682.149-6.986.3a57.228,57.228,0,0,0-6.986.743c.3-1.561.818-2.973,1.189-4.385Zm-1.189,58.938-.892,1.338C1736.841,295.456,1736.841,295.679,1738.328,295.605Zm-1.932.818.446,2.3-.892.743h-1.264a15.732,15.732,0,0,1,1.71-3.047Zm-7.655,25.2c-.223-3.716-.3-7.432-.149-11.223l.3-1.635.446-2.155.669-1.561,1.041-1.858.3-.3a42.02,42.02,0,0,1,4.385-.3c-2.23,6.912-4.385,13.75-6.615,20.587l-.3-1.561ZM1752,355.212a22.428,22.428,0,0,1-4.162-12.486l.594-.669h19.621c-1.486,1.338-2.9,2.527-4.236,3.79-3.568,3.2-7.209,6.317-10.777,9.513l-.966-.149Zm-3.716-17.615.743-.52,8.027,1.338.3.149h-8.324l-.669-1.041Zm19.027,25.641c-.149,1.115-.223,1.115-1.263.966a22.117,22.117,0,0,1-12.709-7.284v-.892l14.493-12.709h1.412l.595.3.372.743c-.3,1.784-.52,3.642-.818,5.426-.669,4.459-1.338,8.844-2.007,13.3v.149Zm15.459-2.6a21.624,21.624,0,0,1-12.561,3.865h-1.71l-.446-.52c.52-3.2.966-6.317,1.412-9.513.52-3.27,1.041-6.466,1.487-9.736l.669-.595c1.189-.223,1.709.372,2.23,1.263,3.047,4.757,6.095,9.439,9.142,14.121l-.223,1.189Zm9.513-15.31a22.554,22.554,0,0,1-7.581,13.9l-.966-.149c-3.2-4.98-6.466-9.885-9.662-14.865l.149-.966,1.189-1.412.372-.372c1.338.223,2.453.372,3.642.595,4.013.669,8.027,1.338,11.966,2.007.966.149.966.149.818,1.189Zm-5.426-17.986a22.452,22.452,0,0,1,5.649,14.716l-.149,1.338-1.338-.149c-4.757-.818-9.588-1.561-14.344-2.378l-.817-.966-.743-2.453v-.669c3.716-3.2,7.432-6.392,11.074-9.662h.669Zm-11.817-6.838a22.457,22.457,0,0,1,10.48,5.574v.743c-3.568,3.122-7.061,6.169-10.628,9.29l-1.115.3-1.412-1.561c.223-1.635.446-3.27.743-4.905.446-3.047.892-6.094,1.412-9.142l.52-.372Zm-15.608,2.155a21.621,21.621,0,0,1,7.655-2.527,21.018,21.018,0,0,1,3.047-.223,19.289,19.289,0,0,1,2.973.223l.52.743c-.52,3.493-1.115,6.986-1.635,10.48a28.677,28.677,0,0,0-.446,3.642l-.595.966-1.412-.446-6.689-7.8c-1.189-1.412-2.453-2.9-3.642-4.311l.149-.743Zm-4.162,2.9h.892c3.493,4.236,7.061,8.473,10.628,12.635l.223.446h-.446a13.154,13.154,0,0,1-1.709.074c-2.453.149-4.905-.52-7.284-.892-2.75-.446-5.5-.966-8.25-1.412l-.446-.743a22.543,22.543,0,0,1,6.541-10.182Zm-3.419-4.98v.669a27.8,27.8,0,0,0-9.142,16.871l-.669.595h-5.277l-.52-.52a1.8,1.8,0,0,0-1.189-2.155l-.595-.743c-1.041-2.155-1.784-4.385-2.75-6.54v-1.412c2.378-7.061,4.385-14.2,6.763-21.256l.3-.818,1.041,1.04-.149.595v1.858l1.635,1.412h1.858c.892,1.041,1.784,2.081,2.75,3.122v.52a40.615,40.615,0,0,0-5.2,5.5,8.576,8.576,0,0,0-2.007,3.345,2.209,2.209,0,0,0,1.189,2.75l1.412-.372c.743-1.189,1.412-2.378,2.081-3.567a18.351,18.351,0,0,1,4.459-5.128h.669c1.115,1.412,2.3,2.75,3.419,4.088Z" transform="translate(-1653.6 -216.6)" fill="#341514"/><path d="M1824.107,245.592a21.319,21.319,0,0,1-6.466-1.709,48.991,48.991,0,0,1-6.392-3.642,13.517,13.517,0,0,0-4.757-2.007,10.461,10.461,0,0,0-3.716.223l-.3.149a9.96,9.96,0,0,1-4.757,1.932,23.534,23.534,0,0,1-7.209.669,30.908,30.908,0,0,1-10.554-2.824,34.757,34.757,0,0,0-8.176-2.527h-1.338l-.446-.669c1.04-3.2,2.081-6.392,3.2-9.588.446-1.189.892-2.378,1.338-3.642l.669-.149a16.132,16.132,0,0,0,11.743,3.642,21.57,21.57,0,0,0,6.763-1.709c3.27-1.338,6.466-2.973,9.811-4.162a31.206,31.206,0,0,1,6.838-1.932,28.036,28.036,0,0,1,7.878.3,29.792,29.792,0,0,1,5.054,1.338,6.614,6.614,0,0,1,2.6,1.709v.743a41.141,41.141,0,0,0-5.8,6.689,6.283,6.283,0,0,0-.372,6.54,70.634,70.634,0,0,0,3.716,6.54l1.635,2.676-.52,1.189h-.52Z" transform="translate(-1683.488 -216.829)" fill="#3f77ac"/><path d="M1748.7,320.427l-2.23,1.189c-1.189.892-2.3,1.784-3.493,2.6-2.3,1.487-2.9,3.568-2.527,6.169.669,4.98,1.858,9.885,2.824,14.79.372,1.858.595,3.79,1.115,5.649l-.595,1.263a8.108,8.108,0,0,1-2.9,1.115l-1.486.3h-1.412a32.139,32.139,0,0,1-5.648-3.122l-.223-.149.223-.3c1.412-.595,1.486-.818,1.338-2.378-.223-2.155-.892-4.311-1.338-6.466-.892-4.534-1.71-8.993-2.378-13.6a5.936,5.936,0,0,1,.743-4.162c.669-1.04,1.041-2.23,2.081-2.973l.3-.52.966-1.635a75.882,75.882,0,0,1,6.169-5.8l1.264.149a52.013,52.013,0,0,0,6.689,7.358l.3.3Z" transform="translate(-1673.185 -241.199)" fill="#e3a575"/><path d="M1751.648,265.969l-.595,2.3c-2.6,5.351-4.831,10.851-7.209,16.277a61.255,61.255,0,0,1-8.176,13.081,32.879,32.879,0,0,1-4.013,3.865,3.443,3.443,0,0,0-1.115,3.493l.149.892-.52,1.115a8.654,8.654,0,0,1-4.608,1.635l-1.486-.669a9.734,9.734,0,0,1-1.635-2.973,2.057,2.057,0,0,1,.595-2.453,17.642,17.642,0,0,0,3.2-4.236,54.237,54.237,0,0,1,6.466-8.324l1.115-1.784.3-.669a58.165,58.165,0,0,0,5.5-11.223,76.308,76.308,0,0,0,2.676-8.25,44.759,44.759,0,0,1,2.156-6.02,2.473,2.473,0,0,1,3.344-1.486,5.408,5.408,0,0,1,3.939,5.426Z" transform="translate(-1671.231 -227.841)" fill="#e3a675"/><path d="M1743.3,307.748a6.6,6.6,0,0,1,.966-3.567,39.005,39.005,0,0,0,3.493-5.574l1.189-1.041,2.527-.966,1.263.372a54.656,54.656,0,0,0,4.088,5.2,29.347,29.347,0,0,0,8.1,6.392l.595.3.148.743a19.906,19.906,0,0,1-3.939,3.568c-1.932,1.338-3.79,2.9-5.574,4.385h-1.264l-1.858-1.709-2.378-2.007a55.7,55.7,0,0,1-5.8-6.763l.223-1.189,1.561-1.115.223-.595h-.595l-2.081,1.338-.446,1.189-.446.892Z" transform="translate(-1676.632 -237.142)" fill="#aa5f44"/><path d="M1797.7,294.777a17.06,17.06,0,0,0,5.054-1.784,6.961,6.961,0,0,0,3.344-3.493l.446.743a70.05,70.05,0,0,1,3.791,14.047,51.307,51.307,0,0,0,1.189,5.871,9.71,9.71,0,0,1,.372,2.9,3,3,0,0,1-1.115,2.3,11.522,11.522,0,0,1-5.723,2.378l-1.263.149-.966-.743c-.818-3.567-1.635-7.061-2.453-10.628-.669-2.973-1.189-5.871-1.71-8.844l-.966-2.3V294.7Z" transform="translate(-1690.601 -235.319)" fill="#c5a981"/><path d="M1725.638,237c.595,1.858,1.784,2.23,3.493,2.081,1.709-.074,3.344-.223,5.054-.446l.743.743a22.71,22.71,0,0,1-2.3,7.209c-.446.892-.3,1.412.743,1.561l.669.966a44.039,44.039,0,0,1-1.784,5.277l.743,1.264.669.892.149,2.378v2.23a6.782,6.782,0,0,1-.52,1.041,4.441,4.441,0,0,1-3.493.669l-.743-.743a13.641,13.641,0,0,1-1.189-4.534l-.149-.669.446-1.189,1.189.446.148.669.372.3.223-.372c-.223-1.115-.446-2.23-.743-3.345l-.892-.372a14.367,14.367,0,0,1-6.541-1.561,4.193,4.193,0,0,1-2.378-2.973,31.775,31.775,0,0,1-.743-7.507V239.3l.669-.669a34.246,34.246,0,0,0,3.939.149c1.189,0,2.155-.223,2.378-1.709Z" transform="translate(-1670.342 -221.838)" fill="#e3a675"/><path d="M1788.22,252.286a8.463,8.463,0,0,1,3.047,3.79l-.223,1.263-1.263,1.041a39.718,39.718,0,0,1-11,4.608,10.287,10.287,0,0,1-5.2-.074c-1.338-.372-2.676-.818-4.088-1.189a7.418,7.418,0,0,1-3.419-2.6l-.372-1.784c.52-1.932.595-3.939,1.189-5.871l.594-.669c2.155,2.081,4.905,2.23,7.655,2.6a32.2,32.2,0,0,0,5.351.149,33.516,33.516,0,0,0,7.655-1.189Z" transform="translate(-1682.384 -225.382)" fill="#a08769"/><path d="M1794.465,295.855v.52a3.785,3.785,0,0,1,1.115,2.6c.669,4.162,1.561,8.324,2.527,12.412.52,2.3,1.115,4.682,1.635,6.986l.818.669a13.946,13.946,0,0,1-6.317-.3,3.521,3.521,0,0,1-2.676-2.3,45.222,45.222,0,0,1-2.3-6.986c-1.338-4.459-2.676-8.844-3.716-13.378l-.446-2.378c2.75,2.23,5.872,2.6,9.216,2.007h.3Z" transform="translate(-1687.365 -236.397)" fill="#a08769"/><path d="M1778.748,303.421l-.669,2.3-1.784.818c-1.858-.149-3.2-1.412-4.534-2.453l-.446-.372v-.966l.595-1.189.52-.595c1.858,0,2.378-.743,2.23-2.6a49.4,49.4,0,0,0-1.561-8.027,80.745,80.745,0,0,0-8.324-19.918c-1.115-2.007-2.155-3.939-3.419-5.871l-.223-.595a9.492,9.492,0,0,0-1.635-3.642,3.871,3.871,0,0,0-2.378-1.486l-.52-.669v-.149l.52-1.709,2.75.372,2.007,2.6a17.26,17.26,0,0,0,3.122,3.493l1.412,1.932c3.27,4.385,4.979,9.513,6.317,14.716,1.709,6.54,3.344,13.155,5.277,19.621a16.037,16.037,0,0,1,.595,4.385Z" transform="translate(-1680.047 -226.794)" fill="#a08769"/><path d="M1800.749,272.8c.966,0,1.784.149,2.6.223a37.121,37.121,0,0,0,4.98-.074h1.189l.669.669a31.1,31.1,0,0,0,1.041,3.493c1.041,4.311,2.824,8.4,4.088,12.561a65.769,65.769,0,0,1,2.453,10.554v1.635a3.512,3.512,0,0,1-2.3,3.047l-1.932-.818a9.429,9.429,0,0,1-1.858-4.831,53.419,53.419,0,0,0-3.345-12.709c-.966-2.6-1.932-5.128-2.973-7.73a5.6,5.6,0,0,0-3.122-3.122l-.669-.966-.223-.446-.743-1.486Z" transform="translate(-1691.345 -231.031)" fill="#c5a981"/><path d="M1792.089,291.124a13.093,13.093,0,0,1-4.311-.743l-.966-1.115c-.446-2.3-.966-4.608-1.412-6.986l.595-2.3a26.644,26.644,0,0,1,2.676-2.378h.818a10.665,10.665,0,0,0,7.432-.3h.743c1.561.743,2.824,1.635,3.27,3.419a24.977,24.977,0,0,0,1.041,3.345c.818,2.081-.223,3.27-1.635,4.385A14.912,14.912,0,0,1,1792.089,291.124Z" transform="translate(-1687.442 -232.186)" fill="#fff"/><path d="M1683.073,348.9a13.7,13.7,0,0,1,2.973.223l.446.3-.52.669h-1.412a20.711,20.711,0,0,0-11.52,2.378,22.539,22.539,0,0,0-12.338,16.5c-2.3,11.892,5.574,23.709,17.317,26.533a23.072,23.072,0,0,0,12.263-44.445l-.446-.149-.149-.669.669-.149a25.405,25.405,0,0,1,5.574,2.6c7.507,5.054,11.371,12.04,11.148,21.108a23.77,23.77,0,0,1-15.831,22,24.137,24.137,0,1,1-12.561-46.452,20.956,20.956,0,0,1,4.385-.372Z" transform="translate(-1654.979 -250.571)" fill="#e8e7e6"/><path d="M1718.55,270.423l.223.818c.371,2.007,1.709,3.642,2.824,5.277l1.041,2.155-.3,1.338-1.561,3.345a14.8,14.8,0,0,1-1.858,2.9c-1.858,2.3-3.642,4.682-5.426,6.986l-1.412.818-1.635.446-1.487,1.486-.223.446-.149-.149-.372-.743-.372.743V298c.074,0-.074.818-.074.818l-.966.149a3.851,3.851,0,0,1-1.189-2.453l-.818-.818v-.669c3.419-2.3,5.277-5.871,7.432-9.29a41.632,41.632,0,0,0,4.831-11c.372-1.338.892-2.75,1.263-4.088l.223-.446Z" transform="translate(-1666.747 -230.363)" fill="#e3a675"/><path d="M1825.4,377.445a23.045,23.045,0,0,0-34.04-20.439h-1.115v-.595l.52-.372a24.188,24.188,0,1,1-11.817,25.716,36.781,36.781,0,0,1-.446-4.013l.371-.743.52.669a21.464,21.464,0,0,0,4.459,13.155,22.28,22.28,0,0,0,15.905,9.216,23.035,23.035,0,0,0,25.27-19.027,16.014,16.014,0,0,0,.3-3.642Z" transform="translate(-1685.671 -251.617)" fill="#e8e7e6"/><path d="M1780.557,281.559l-.149,1.115-.148.446-.3,1.412a157.154,157.154,0,0,0,4.757,18.506,42.966,42.966,0,0,0,2.081,6.169l-.372.446c-1.487,0-2.973-.223-4.385-.3l-.223-.446c1.486-1.561,1.189-3.419.966-5.351-.3-2.6-1.338-5.054-2.007-7.581-1.338-5.054-2.6-10.108-4.014-15.162a49.794,49.794,0,0,0-3.642-10.108c-.743-1.338-1.635-2.676-2.452-3.939l-.372-.669.966.149a35.779,35.779,0,0,0,5.723,1.412l2.23-.149.743.3.743.52-1.189.223c-1.635,0-1.635,0-1.264,1.635q1.115,5.574,2.453,11.148Z" transform="translate(-1683.565 -229.31)" fill="#a08769"/><path d="M1753.745,333.1l-.446.892a8.263,8.263,0,0,0-1.412,4.311,53.363,53.363,0,0,0-.3,10.331,31.976,31.976,0,0,0,.3,4.608l.3,1.115v.966c-.669,2.081-1.338,4.236-2.007,6.317l-.669.52-2.23.149-.595-.223.446-.446a8.449,8.449,0,0,0,2.6-1.263c1.635-1.115,1.338-2.824-.149-3.345l-.669-.966c-.52-2.155-.669-4.311-1.189-6.466-.966-4.311-1.858-8.621-2.6-13.006l-.223-2.23.52-.669c1.115-.074,2.23-.223,3.345-.3,1.486-.149,2.973-.223,4.385-.3h.594Z" transform="translate(-1677.043 -246.514)" fill="#c8936b"/><path d="M1750.489,368.749l-1.189-1.635c.3-1.189.669-2.3,1.041-3.419,2.378-7.8,4.682-15.608,7.284-23.337,1.635-4.905,3.047-9.811,4.757-14.642l1.338-2.6,1.858-1.115.446.446-.446,1.338c-2.007,6.169-4.311,12.338-6.02,18.655-1.264,4.459-2.676,8.77-4.013,13.229-1.189,4.088-2.527,8.175-3.79,12.189l-1.264.966Z" transform="translate(-1678.173 -243.664)" fill="#3f77ac"/><path d="M1806.964,324.522v.3c-.074,1.041-.223,1.189-1.189,1.338-6.838.966-13.527,2.3-20.364,3.27q-3.233.446-6.466,1.115l-1.338.966-.966,1.041a35.928,35.928,0,0,0-3.121,2.75h-.669l-.892-1.04-.595-.223v.595a14.289,14.289,0,0,1,1.041,1.115v.52c.074,0-.446.074-.446.074l-1.858-1.709v-.52c.074,0,2.155-2.453,2.155-2.453h1.041l1.189,1.412h.52v-.446l-1.338-1.487-.149-.966.446-1.264a3.356,3.356,0,0,1,2.23-2.527,31.041,31.041,0,0,1,5.8-1.264c1.486-.223,2.9-.372,4.385-.595l1.635.446a7.586,7.586,0,0,0,5.128,1.932,22.938,22.938,0,0,0,7.135-.892,11.633,11.633,0,0,0,3.716-1.858,4.094,4.094,0,0,0,1.561-2.378l.223-.372.3.3a4.683,4.683,0,0,1,.818,2.6Z" transform="translate(-1683.514 -243.51)" fill="#3f77ac"/><path d="M1775.174,383.83h-21.851a3.622,3.622,0,0,0-.223-.52h0c.594-1.932.148-1.635,2.081-1.635,3.716,0,7.358,0,11.074-.074h30.175c1.041,0,1.486.3,1.71,1.041.3.892-.223,1.486-1.189,1.338h-21.777Z" transform="translate(-1679.149 -258.968)" fill="#3f77ac"/><path d="M1805.417,334a33.07,33.07,0,0,1,22.148,8.993,33.468,33.468,0,0,1,4.088,4.459l-.3,1.486-1.041-.223a23.78,23.78,0,0,0-7.8-7.581,32.2,32.2,0,0,0-15.311-4.98,31.622,31.622,0,0,0-20.587,5.426l-2.081,1.635h-.818c-1.041-1.412-1.263-1.115.3-2.155a36.876,36.876,0,0,1,15.979-6.54,40.049,40.049,0,0,1,5.426-.446Z" transform="translate(-1686.797 -246.745)" fill="#3f77ac"/><path d="M1776.689,339.174l.52.446c2.23,2.527,4.311,5.2,6.466,7.8,3.865,4.682,7.878,9.216,11.817,13.824,1.709,2.007,3.493,4.013,5.277,6.02v.966c-1.338,1.189-1.115,1.412-2.527-.149-6.02-6.615-11.669-13.6-17.466-20.439-1.709-2.007-3.642-3.939-5.277-6.02v-1.635a7.887,7.887,0,0,0,.818-.669l.372-.223Z" transform="translate(-1684.9 -248.055)" fill="#3f77ac"/><path d="M1691.087,361.756l-1.486-.446v-.669c.446-1.858,1.041-3.642,1.635-5.5,3.047-9.885,6.169-19.77,9.216-29.655l.446-1.263.595-.223.372.149.594,1.264c-1.115,3.567-2.155,7.135-3.2,10.7-2.007,6.986-4.014,13.9-6.02,20.81-.372,1.264-.743,2.6-1.115,3.865l-1.041.818Z" transform="translate(-1662.844 -244.177)" fill="#3f77ac"/><path d="M1772.532,305.719l-.3,1.486-.52.3h-.595l-2.23-.595a29.668,29.668,0,0,1-10.108-8.324,49.994,49.994,0,0,1-4.682-6.54l.223-.743h.966a15.549,15.549,0,0,0,3.79,4.162,42.458,42.458,0,0,0,7.135,5.5,17.879,17.879,0,0,0,4.385,1.932C1771.789,303.192,1772.458,303.935,1772.532,305.719Z" transform="translate(-1679.406 -235.781)" fill="#a08769"/><path d="M1771.172,300.928l-.595.372a22.453,22.453,0,0,1-4.682-2.676,57.079,57.079,0,0,1-6.094-5.128l.149-.743a69.266,69.266,0,0,0,7.581-2.453l.892.372a15,15,0,0,1,1.338,4.013c.446,1.932.818,3.79,1.263,5.723v.52Z" transform="translate(-1680.869 -235.524)" fill="#aa5f44"/><path d="M1739.9,382.059a7.742,7.742,0,0,1,1.115-4.311l.892-.149,1.189,1.189.223,1.115a4.706,4.706,0,0,0,3.2,6.466,4.657,4.657,0,0,0,5.351-2.527l1.04-.595h1.412l.52.669a7.373,7.373,0,0,1-4.831,4.98,7.54,7.54,0,0,1-10.034-6.912Z" transform="translate(-1675.759 -257.94)" fill="#e8e7e6"/><path d="M1788.862,251.927l-.372.372a50.8,50.8,0,0,1-5.872.892,31.392,31.392,0,0,1-5.277.074,21.021,21.021,0,0,1-7.655-1.561l-1.487-1.338a31.384,31.384,0,0,1,4.385-.669c2.824-.223,5.649-.223,8.547-.3A12.522,12.522,0,0,1,1788.862,251.927Z" transform="translate(-1683.026 -225.022)" fill="#c5a981"/><path d="M1783.1,282.432l-.446-1.041c-.818-3.79-1.635-7.507-2.453-11.3l.446-.595h2.527c1.338.446,2.75.966,4.162,1.338-.818,1.04-.3,2.081-.149,3.122l-.52,1.263-2.453,2.155a3.115,3.115,0,0,0-.817,3.493l-.223,1.635Z" transform="translate(-1686.107 -230.183)" fill="#c5a981"/><path d="M1799.486,261.3l2.156,1.858v.52c-1.561,1.412-3.122,2.9-4.757,4.162h-.743l-1.115-.223a12.571,12.571,0,0,0-4.088.446h-.743a15.685,15.685,0,0,1-3.2-.892V266.8l.52-.223a35.841,35.841,0,0,0,11-4.98l1.115-.3Z" transform="translate(-1687.853 -228.078)" fill="#c5a981"/><path d="M1756.376,284l-2.676,1.338c.149-1.189,5.128-12.56,6.317-14.642a39.645,39.645,0,0,1,2.378,5.5l-2.378,1.561-1.635,1.932a33.713,33.713,0,0,1-2.081,4.385Z" transform="translate(-1679.303 -230.491)" fill="#7da836"/><path d="M1702.412,313.773l-1.338,1.932-.446.149a27.531,27.531,0,0,1-4.98-3.79l-.149-.892c.594-1.04,1.115-2.081,1.784-3.122a7.105,7.105,0,0,1,4.088-2.75l1.115.446v.149l.669,1.635-1.486.595-1.486.595c-1.041.52-1.263,1.486-1.561,2.453l.446.52c1.115.669,2.155,1.338,3.344,2.007Z" transform="translate(-1664.359 -239.376)" fill="#3f77ac"/><path d="M1729.565,278.466a5.188,5.188,0,0,1-.223-3.344l.818.372c2.23-.372,4.534-.446,6.615-1.486,1.189-.595,2.453-1.041,3.642-1.784l.595-.223c.372.966.669,1.858,1.041,2.824l-.446.372a23.732,23.732,0,0,1-4.682,2.081,38.255,38.255,0,0,1-6.466,1.263l-.818-.149Z" transform="translate(-1673.005 -230.825)" fill="#7da836"/><path d="M1763.3,269.6l4.014,7.358c3.493,6.54,6.838,15.533,7.581,20.513l-1.635-.892-.372-.818a62.5,62.5,0,0,0-1.858-8.4l-1.115-2.676-1.487-.446-.594-.223a16.266,16.266,0,0,1-1.041-3.716l.3-.892v-.966l-.669-1.115c-.892-2.23-1.858-4.385-2.973-6.54l-.149-1.115Z" transform="translate(-1681.768 -230.209)" fill="#c5a981"/><path d="M1721.043,332.43c-4.905-.074-9.736.372-14.642.3-.966,0-.966,0-.743-.966l.223-.669.594-.372c3.344.372,6.763-.074,10.108-.149,1.932,0,3.791-.3,5.723-.372l.743.669c0,1.338-.074,1.486-1.487,1.486h-.52Z" transform="translate(-1666.936 -245.769)" fill="#3f77ac"/><path d="M1810.359,270.326c-1.561-.52-2.973-.149-4.385-.074-1.709,0-3.419-.149-5.2-.3l-.371-.3.223-.372a47.508,47.508,0,0,0,5.054-4.385h.892a7.743,7.743,0,0,1,3.27,3.939l.52,1.412Z" transform="translate(-1691.294 -229.002)" fill="#c5a981"/><path d="M1732.136,370.562h-2.75a15.715,15.715,0,0,0-1.486-.892v-.595l.372-.074a26.065,26.065,0,0,0,9.29-.595,43.264,43.264,0,0,0,4.459-1.04l1.858-.966,1.561.223-.3,1.561a7.627,7.627,0,0,1-3.939,1.561c-2.3.3-4.608.669-6.912.818h-2.156Z" transform="translate(-1672.678 -255.065)" fill="#aa5f44"/><path d="M1747.466,392.04a8.256,8.256,0,0,0,8.1-5.723l1.189-.818h1.338l.52.074-.3.446a22.394,22.394,0,0,1-4.757,4.088c-2.9,2.155-5.723,4.311-8.621,6.466a4.646,4.646,0,0,1-3.419.669l-.52-.446.371-.818,2.156-1.561,2.676-2.007,1.338-.372Z" transform="translate(-1676.042 -259.969)" fill="#aa5f44"/><path d="M1684.674,377.6l.595-1.412A4.226,4.226,0,0,1,1687.8,375l1.709.669,1.412,2.081a2.623,2.623,0,0,1-2.453,3.493,3.571,3.571,0,0,1-3.865-3.642Z" transform="translate(-1661.56 -257.273)" fill="#e8e7e6"/><path d="M1729.674,279.468a38.568,38.568,0,0,0,7.655-1.412,28.505,28.505,0,0,0,4.311-2.007l.372-.149v.446a27.839,27.839,0,0,1-1.189,3.2l-1.635.743c-1.858.669-3.716,1.338-5.648,1.858h-.966a4.635,4.635,0,0,1-2.973-2.676Z" transform="translate(-1673.115 -231.827)" fill="#9fbe5b"/><path d="M1740.894,271.281a20.037,20.037,0,0,1-8.324,3.2l-2.676.372-.595-.52.223-1.635.149-.372,2.23-.52a5.764,5.764,0,0,0,3.344-.3l1.784-1.263,1.412-.52,1.486-.52h.669l.3,2.081Z" transform="translate(-1673.037 -230.106)" fill="#afc76c"/><path d="M1764.232,284.2l.3.446a18.9,18.9,0,0,0,.966,3.345l-.371.669-4.905,1.561-1.709.52-.892-.223-.818-1.263.223-.595a51.414,51.414,0,0,0,6.986-4.236l.3-.149Z" transform="translate(-1680.099 -233.958)" fill="#c8936b"/><path d="M1724.391,266.726a8.747,8.747,0,0,1,.743-3.865,2.525,2.525,0,0,1,2.155-1.561l.966,1.189c-.3,1.04-.669,2.007-.966,3.047a6.407,6.407,0,0,0,.149,5.351v.52l-.3,1.709-.223.372-.3-.223c-1.115-2.081-2.453-4.088-2.23-6.615Z" transform="translate(-1671.771 -228.078)" fill="#a08769"/><path d="M1808.823,383.341l2.453.223,1.264-.595.371-1.264a2.3,2.3,0,0,0-2.155-1.709h-1.784l-.372-.595a3.57,3.57,0,0,1,3.568-1.709,3.4,3.4,0,0,1,3.047,2.6,3.627,3.627,0,0,1-1.115,3.865,3.49,3.49,0,0,1-4.014.52l-1.263-1.338Z" transform="translate(-1693.4 -257.959)" fill="#e8e7e6"/><path d="M1716,325.323l-.743-.223a21.187,21.187,0,0,1-4.162-1.932v-.52a14.876,14.876,0,0,1,.743-1.561l.52-.223.892.52a2.935,2.935,0,0,0,3.568-.52l1.561-1.263.669.223.818,1.858-.223.595-1.932,1.932-1.561.966Z" transform="translate(-1668.363 -243.048)" fill="#3f77ac"/><path d="M1768.9,357.342l.669-1.932a32.783,32.783,0,0,1,3.493-4.311,20.4,20.4,0,0,1,2.75-2.9h.966c.817,1.189.892,1.189-.223,2.081a21.747,21.747,0,0,0-5.128,6.763l-.818,1.412-.818.223-.892-1.263Z" transform="translate(-1683.206 -250.391)" fill="#3f77ac"/><path d="M1714.612,304.415l-.446,1.784-.372,1.412-.372.669a11.711,11.711,0,0,1-4.236,1.635l-1.487-1.04.223-.3,1.338-.818.818-2.155a2.212,2.212,0,0,1,1.784-1.932l1.784-.372c.892,0,1.041.149,1.041,1.115Z" transform="translate(-1667.491 -238.862)" fill="#e3a575"/><path d="M1764.572,249.717l-.372-1.338c.446-2.23.966-4.459,1.412-6.689,1.338-6.54,3.642-12.709,5.871-18.952l.3-.818.372-.52.595.743-.149.595a201.415,201.415,0,0,0-6.689,20.587,47.4,47.4,0,0,0-1.115,5.649l-.223.743Z" transform="translate(-1681.999 -217.832)" fill="#fcfcfb"/><path d="M1746.069,331.85l-.669-.52,1.338-1.115c1.561-.223,3.121-.3,4.682-.52,2.676-.372,5.426-.372,8.1-.595l.52.595c-.371,1.115-.371,1.115-1.561,1.189-4.236.3-8.4.669-12.486.966Z" transform="translate(-1677.172 -245.487)" fill="#3f77ac"/><path d="M1757.3,285.9l.149-.52c.669-1.338,1.338-2.75,1.932-4.162l1.561-1.709,2.453-1.412,1.189,2.676-.149.669A47.629,47.629,0,0,1,1757.3,285.9Z" transform="translate(-1680.227 -232.392)" fill="#9fbe5b"/><path d="M1705.83,317a3.31,3.31,0,0,1,3.345,2.453,2.044,2.044,0,0,1-1.784,2.824,3.433,3.433,0,0,1-3.79-3.047,2.147,2.147,0,0,1,2.23-2.23Z" transform="translate(-1666.438 -242.38)" fill="#e8e7e6"/><path d="M1798.819,260.915l-.743.3a35.056,35.056,0,0,1-11.52,5.2l-.3.372-1.486-.52-.372-.3.446-.3a45.552,45.552,0,0,0,8.621-3.493,9.516,9.516,0,0,0,3.27-2.378h.595Z" transform="translate(-1687.186 -227.693)" fill="#a08769"/><path d="M1757.938,368.274c.372.966.743,1.858,1.115,2.824a38.757,38.757,0,0,0,1.784,4.013l.743.52.669,1.115-.743.818c-1.635,0-1.635,0-2.23-1.412a7.307,7.307,0,0,0-2.3-3.122l-.372-1.412c.446-1.115.743-2.23,1.115-3.419h.149Z" transform="translate(-1680.047 -255.527)" fill="#c8946a"/><path d="M1733.7,283.376c1.932-.372,3.642-1.189,5.5-1.709a28.377,28.377,0,0,1,2.676-.966,34.576,34.576,0,0,1-1.486,3.865c-1.412.223-2.75.818-4.162,1.189l-.669.372-.966-1.784-.892-.966Z" transform="translate(-1674.167 -233.059)" fill="#7da836"/><path d="M1746.615,271.542a15.1,15.1,0,0,1-.743-6.54l.223-1.486,1.263-.966,1.858-.149.3.52c-.595,1.338-1.189,2.676-1.709,4.013a12.146,12.146,0,0,0-.669,3.345l-.52,1.338Z" transform="translate(-1677.271 -228.36)" fill="#9e8869"/><path d="M1752.206,384.247a3.582,3.582,0,0,1-4.534,2.007,3.627,3.627,0,0,1-2.007-5.054l2.081,2.155a2,2,0,0,0,2.527,1.04h1.932Z" transform="translate(-1677.14 -258.865)" fill="#e8e7e6"/><path d="M1779.1,375.17a20.5,20.5,0,0,1,1.412-5.054,24.22,24.22,0,0,1,6.094-8.844l.52-.372.52.3v.52l-1.115.966a22.394,22.394,0,0,0-6.392,11.3l-.372,1.189-.372.595-.3-.669Z" transform="translate(-1685.825 -253.652)" fill="#e8e7e6"/><path d="M1758.053,327.07a15.318,15.318,0,0,1-5.054-1.264v-.669c-.074,0,1.71-1.338,1.71-1.338l.818.149,1.858,1.709h1.189c0,.074,1.933-1.412,1.933-1.412l.52-.223-.149.52-.669,1.263a1.747,1.747,0,0,1-2.155,1.264Z" transform="translate(-1679.122 -244.126)" fill="#aa5e43"/><path d="M1737.081,367.1a5.19,5.19,0,0,1-3.345.149,11.882,11.882,0,0,1-4.236-2.6l.149-.743,2.155.149a17.132,17.132,0,0,0,4.534,2.6l.743.372Z" transform="translate(-1673.089 -254.423)" fill="#aa5e43"/><path d="M1749.78,373.3l-.817,2.3-.669.372-1.412.372-.818-.149-1.264-1.189.149-.595,1.709-1.115.818-.223,1.932-.074Z" transform="translate(-1677.017 -256.759)" fill="#e8e7e6"/><path d="M1758.816,379.434h-2.824l-.892-2.453.743-2.081a7.418,7.418,0,0,1,3.047,4.608Z" transform="translate(-1679.662 -257.247)" fill="#e8e7e6"/><path d="M1731.8,285.946l.3-.446,1.635.966c.52,1.189,1.115,2.3,1.635,3.419l1.412,1.338v.743a4.412,4.412,0,0,1-.595.3l-.52-.446a17.975,17.975,0,0,1-3.642-4.831l-.223-.669v-.3Z" transform="translate(-1673.679 -234.292)" fill="#9e8868"/><path d="M1759.4,252.241l.743-.818,2.6-.223.372.372c-.3,1.263-.52,2.6-.818,3.865l-.223.372-.3-.223-2.156-2.527-.223-.743Z" transform="translate(-1680.766 -225.484)" fill="#9e8869"/><path d="M1790.1,271.989a11.294,11.294,0,0,1,4.831-1.189h.669l.818.743-.52.818a5.841,5.841,0,0,1-4.311.52Z" transform="translate(-1688.649 -230.517)" fill="#fdfdfd"/><path d="M1743.342,268.222c-1.189.3-2.378.818-3.642,1.04a7.741,7.741,0,0,0,.149-3.2l.966-.223,1.264-.743c.446,1.041.817,2.081,1.263,3.047Z" transform="translate(-1675.708 -229.053)" fill="#7da836"/><path d="M1746.862,381.051l-1.264-1.486-2.9-2.9v-.818l.892-.149c1.189,1.115,2.378,2.23,3.493,3.344.446.446.372.818-.223,2.007Z" transform="translate(-1676.478 -257.453)" fill="#3f77ac"/><path d="M1768.7,333.478l.818-2.3.446-.074,1.858,2.155v.595l-1.264,1.412-.446.074-1.338-1.486Z" transform="translate(-1683.154 -246)" fill="#3f77ac"/><path d="M1731.722,271.057l-2.007.595-.3.372a14.176,14.176,0,0,1-.818-3.047l.669-2.527.148-.149.223.372.52,1.932A3.656,3.656,0,0,0,1731.722,271.057Z" transform="translate(-1672.858 -229.362)" fill="#83ac3f"/><path d="M1740.714,287.2c-.446,1.041-.966,2.081-1.486,3.122h-1.487c0,.074-1.041-1.784-1.041-1.784l.818-.3,2.378-.892.743-.149Z" transform="translate(-1674.938 -234.728)" fill="#7da836"/><path d="M1740.9,395.381l1.338-2.081.3.074,1.561,1.189v.52l-1.784,1.263-.818.3Z" transform="translate(-1676.016 -261.972)" fill="#e2a675"/><path d="M1742.027,264.432l-.3.52-1.858.372-.372-2.23.669-.595c1.412,0,1.412,0,1.709,1.412v.595Z" transform="translate(-1675.656 -228.386)" fill="#9fbd59"/><path d="M1740.585,286.841c-.892.372-1.784.818-2.75,1.115l-1.189.223-.446-.743.594-.52,3.568-1.115h.669l-.446,1.115Z" transform="translate(-1674.809 -234.369)" fill="#afc66a"/><path d="M1747.9,328.809l2.3-1.709h.52c.966.446,2.007.818,2.973,1.338-1.932.223-3.791.446-5.723.595v-.223Z" transform="translate(-1677.813 -244.973)" fill="#c69369"/><path d="M1731,368.786l-1.932-.149-.372-1.189,1.858-.149,1.858.966.3.372-.372.074Z" transform="translate(-1672.884 -255.296)" fill="#e2a675"/><path d="M1750.775,295.445c.52-1.115,1.041-2.155,1.561-3.345l1.263,2.155-.223.3-2.527.966h-.149Z" transform="translate(-1678.532 -235.986)" fill="#c6926a"/><path d="M1793.6,274.949l.743-.149.892.595.149.595.149.818-.966.074-.223-.149Z" transform="translate(-1689.548 -231.544)" fill="#f6f6f9"/><path d="M1744.292,265.847l-.892-2.75.3-.3h.743l.372.446q-.223,1.226-.446,2.676Z" transform="translate(-1676.658 -228.463)" fill="#c49068"/><path d="M1779.032,313l.149.595-.372,1.115h-1.561l-.149-.595.372-.372.52-.074Z" transform="translate(-1685.311 -241.353)" fill="#c0a47f"/><path d="M1797.318,276.581l-.372-.372-.446-1.263.148-.446.669.074.595,1.486Z" transform="translate(-1690.293 -231.467)" fill="#f4f4f4"/><path d="M1785.9,291.939a3.469,3.469,0,0,1-.892-3.939C1785.305,289.338,1785.6,290.6,1785.9,291.939Z" transform="translate(-1687.273 -234.934)" fill="#e5e1df"/><path d="M1727.4,367.33l.3-2.007.3-.223.818.669-.3.3Z" transform="translate(-1672.55 -254.731)" fill="#db9f70"/><path d="M1743.6,392.2l2.3,1.115.3.3-.446.372Z" transform="translate(-1676.709 -261.689)" fill="#a45b41"/><path d="M1791.574,274.7c.818.3.966.52,1.561,2.007l-.892-.223-.743-1.709Z" transform="translate(-1689.009 -231.518)" fill="#f0efee"/><path d="M1717.9,305.858l.074-1.635.3-.223.372.372Z" transform="translate(-1670.11 -239.042)" fill="#3e75a9"/><path d="M1799.192,276.1l-.892-1.932.149-.372.223.149.818,2.007Z" transform="translate(-1690.755 -231.287)" fill="#d9d6d6"/><path d="M1800.443,275.6l-.743-2.3Z" transform="translate(-1691.114 -231.159)" fill="#cfc8c8"/><path d="M1749.415,378.7l-.52.743-.595-.669.892-.372Z" transform="translate(-1677.916 -258.146)" fill="#d6d4d6"/><path d="M1791.312,276.284c-.743,0-.892-.52-.818-1.784h.074Z" transform="translate(-1688.746 -231.467)" fill="#d6d1d1"/><path d="M1804,234.413a6.755,6.755,0,0,1-4.236,6.615c-2.3.818-4.162-.074-4.757-2.453a6.361,6.361,0,0,1,1.115-5.946,6.449,6.449,0,0,1,4.831-2.23,3.012,3.012,0,0,1,3.047,3.047Z" transform="translate(-1689.839 -220.143)" fill="#fff"/><path d="M1828.695,232.734v.743a2.505,2.505,0,0,1-2.824,2.676,8.306,8.306,0,0,1-3.27-.669c-2.676-1.115-3.419-3.419-3.121-6.169l.595-2.007a3.438,3.438,0,0,1,4.831-1.561,6.6,6.6,0,0,1,3.493,4.757l.3,2.3Z" transform="translate(-1696.177 -218.836)" fill="#fff"/><path d="M1811.988,231.026c.52-1.561.966-2.973,1.412-4.385l.817-.743,1.858-.3-.3.818c-.743,1.784-1.486,3.642-2.3,5.426l-.371,1.709v2.23l-.3.52-1.635.446-.372-.3v-2.23l-.52-1.784c-.818-1.338-1.561-2.75-2.378-4.088l.223-.669,1.635-.595.669.3c.446,1.189.966,2.3,1.561,3.567Z" transform="translate(-1693.22 -218.911)" fill="#fff"/><path d="M1791.3,231.378l-.223.743a22.663,22.663,0,0,1-1.412,3.047,8.9,8.9,0,0,0-1.189,5.649l-.52.446c-1.858-.372-2.007-.372-1.858-2.3a11.488,11.488,0,0,0-1.189-4.682c-.669-1.709-1.263-3.419-2.007-5.277l2.453,1.338.223.52c.52,1.486,1.041,2.973,1.561,4.682.52-1.264.966-2.453,1.412-3.567l.966-.669h1.784Z" transform="translate(-1686.8 -219.784)" fill="#fff"/><path d="M1725.418,252.83h-.3l-.52-.3.52-.372,1.264-.223a8.3,8.3,0,0,0,3.121-1.338h.743l-.372.595a10.028,10.028,0,0,1-4.534,1.561Z" transform="translate(-1671.831 -225.33)" fill="#3d1c18"/><path d="M1724,246.8l.892-2.155.52-.149v.52l-.595,1.338.595,1.189h.52a3.233,3.233,0,0,0,.446.52l-.52.3A1.655,1.655,0,0,1,1724,246.8Z" transform="translate(-1671.677 -223.764)" fill="#41201a"/><path d="M1733.518,265.563l-.595-.074-.223-.52.446-.149,1.412-.372.595-.149-.074.669Z" transform="translate(-1673.91 -228.848)" fill="#3e1e1a"/><path d="M1731.741,242.795l-.52.669-.52-.52.595-.743Z" transform="translate(-1673.397 -223.173)" fill="#49261e"/><path d="M1721.1,242.395l.372-.595.372.595-.372.595Z" transform="translate(-1670.932 -223.071)" fill="#45231d"/><path d="M1791.293,290.226a11.2,11.2,0,0,1-2.824-.52l-.669-.52.223-.595.52.223.669.446a9.6,9.6,0,0,0,5.946-.595,13.852,13.852,0,0,0,5.054-3.419l.446-.446h.595v.595a15.052,15.052,0,0,1-7.729,4.608l-2.156.3Z" transform="translate(-1688.059 -234.112)" fill="#371a19"/><path d="M1802.4,235.915l-.595,2.6-1.338,1.189-2.007-.743a5.047,5.047,0,0,1,.223-4.385l.594-.669c1.412-1.041,2.676-.595,2.973,1.115v.966Z" transform="translate(-1690.695 -220.901)" fill="#4078ac"/><path d="M1827.111,232.439v.743c-.074,0-1.189,1.561-1.189,1.561l-2.081-.595a4.073,4.073,0,0,1-1.04-3.27l.371-1.635,2.081-.743,1.338,1.412A5.5,5.5,0,0,1,1827.111,232.439Z" transform="translate(-1697.046 -219.656)" fill="#4078ac"/></g><path d="M1229.856,116.828a16.128,16.128,0,1,1-16.128-16.128A16.113,16.113,0,0,1,1229.856,116.828Z" transform="translate(-688.564 -72.68)" fill="#2d2d2e"/><g transform="translate(509.036 28.02)" clip-path="url(#c)"><path d="M1207.623,128.87h0l-.223-2.453,13.9-17.02,2.453-.3.3,2.453-13.973,17.094Z" transform="translate(-1200.116 -102.857)" fill="#2d2d2e"/></g><path d="M1228.656,116.328a16.128,16.128,0,1,1-16.128-16.128A16.113,16.113,0,0,1,1228.656,116.328Z" transform="translate(-688.256 -72.552)" fill="#737575"/><g transform="translate(508.144 27.648)" clip-path="url(#d)"><path d="M1206.5,128.37h0l-.3-2.453,13.973-17.02,2.453-.3.3,2.453-13.973,17.094Z" transform="translate(-1198.917 -102.357)" fill="#2d2d2e"/></g></g></g></g></svg>