<svg xmlns="http://www.w3.org/2000/svg" xmlns:xlink="http://www.w3.org/1999/xlink" width="395.594" height="222.054" viewBox="0 0 395.594 222.054"><defs><clipPath id="a"><path d="M518.037,63H899.726c2.943,0,5.337,4.873,5.337,10.861V271.654c0,5.988-2.394,10.861-5.337,10.861H518.037c-2.943,0-5.337-4.873-5.337-10.861V73.861C512.7,67.873,515.094,63,518.037,63Z" transform="translate(-512.7 -63)" fill="none"/></clipPath><clipPath id="b"><path d="M950.632,100.2l2.337,176.355q-28.689,6.554-57.552,10.923c-94.506,14.365-189.82,11.055-284.817,7.745a1102.266,1102.266,0,0,0,3.346-135.642c-.49-13.041,3.173-48.524,3.173-48.524s32.367.2,42.81.53q93.251,2.78,186.532-2.648c8.8-.53,104.228-6.488,104.2-8.672Z" transform="translate(-610.6 -100.2)" fill="none"/></clipPath><clipPath id="c"><path d="M1210.12,106.96a6.26,6.26,0,1,1-6.26-6.26A6.254,6.254,0,0,1,1210.12,106.96Z" transform="translate(-1197.6 -100.7)" fill="none"/></clipPath><clipPath id="d"><path d="M1208.92,106.46a6.26,6.26,0,1,1-6.26-6.26A6.254,6.254,0,0,1,1208.92,106.46Z" transform="translate(-1196.4 -100.2)" fill="none"/></clipPath></defs><g transform="translate(1333.594 -4405)"><g transform="translate(-1333.594 4405)"><g transform="translate(0 0)"><path d="M529.237,71.8H910.926c2.943,0,5.337,4.873,5.337,10.861V280.454c0,5.988-2.394,10.861-5.337,10.861H529.237c-2.942,0-5.337-4.873-5.337-10.861V82.661C523.9,76.673,526.294,71.8,529.237,71.8Z" transform="translate(-520.669 -69.261)" fill="#4a1d1d"/><path d="M518.037,63H899.726c2.943,0,5.337,4.873,5.337,10.861V271.654c0,5.988-2.394,10.861-5.337,10.861H518.037c-2.943,0-5.337-4.873-5.337-10.861V73.861C512.7,67.873,515.094,63,518.037,63Z" transform="translate(-512.7 -63)" fill="#4a1d1d"/><g clip-path="url(#a)"><path d="M274.014,414.9v4.638c-1.125,2.172-2.51,2.231-4.039,2.231-20.309.117-40.618,0-60.927-2-22.155-2.231-44.282-2.172-66.379,3.053a249.139,249.139,0,0,1-31.964,5.46c-11.106,1.233-22.242,1.82-33.32,3.229-16.415,2.055-32.8-.235-49.157,1.468-8.106.822-16.068.763-24.059-1.526-1.731-.47-3.2-1.468-4.241-4.168v-31c3.577-3.053,7.356-1.82,10.962-1.174,10.01,1.7,19.934,4.462,29.887,7.1,12.232,3.288,24.434,1.644,36.637-.7,5.914-1.116,11.857-.294,17.77-.587a274.677,274.677,0,0,1,49.59,2c12.059,1.526,23.8,0,35.656-3.288,4.327-1.174,8.8-1.174,13.155-1.409,6.462-.352,12.837-3.112,19.328-1.879.548,0,.4-1.115.4-.059s.144,0-.4,0c-13.7,1.35-27.377,2.466-41.022,5.754-8.539,2.055-17.165,2.7-25.906.881-7.76-1.585-15.665-1.233-23.511-1.879-6.895-.587-13.789-.117-20.684-.117-12.664,0-25.3.411-37.964,2.759-14.337,2.642-28.531-3.112-42.724-6.4C15.651,396,10.2,394.53,4.66,394.706c-1.615,0-3.346.7-4.76-1.526V369.931c1.5-3.464,3.635-4.4,5.827-5.225,19.53-7.163,39.147-7.632,58.821-2.7,11.078,2.818,22.213,3.816,33.377,4.814,10.1.939,20.165,2.936,30.319,3.816a505.142,505.142,0,0,0,86.371-.294c10.328-.881,20.655-2.994,31.012-2.7,7.472.176,14.828-2.525,22.3-1.585,2.192.294,4.471,0,6.029,3.757v7.75c-2.942,4.638-6.664,1.526-9.953,3.64-3.346,2.172-6.952,2.877-10.039,6.458-1.183,1.35-2.481,2.525-2.423,5.695.058,3.464,1.471,4.932,2.885,5.871,5.077,3.346,9.895,7.808,15.088,10.509a7.868,7.868,0,0,1,4.471,4.99Z" transform="translate(-147.833 -187.113)" fill="#c4781c"/><path d="M274.086,102.946v23.249c-3.519,3.523-6.952-.176-10.328-.939-8.741-1.937-16.992-7.808-25.386-12.446a62.358,62.358,0,0,0-34.1-9.863H190.2c16.04-.646,32.021-.47,47.484,9.335,11.164,6.928,22.444,12.916,34.156,15.441a3.063,3.063,0,0,1,2.25,1.526v6.223c-1.644,2.759-3.721,1.585-5.568,1.761-10.356,1.115-20.078,7.867-30.146,11.448a47.479,47.479,0,0,1-17.193,3.053c10.558.352,20.684-4.051,30.781-9.1a53.233,53.233,0,0,1,17.8-5.519c1.471-.176,3.058-.763,4.327,1.468V158.72c-1.846,3.17-4.125,4.11-6.52,3.816-10.558-1.115-21.059,1.292-31.589,1.879-7.212.411-14.482,1.233-21.694,1.116-5.741-.117-11.453-.646-17.193,0-11.6,1.35-23.078-2.348-34.618-3.581-13.761-1.409-27.492-3.464-41.224-5.754-11.655-1.937-23.309-.235-34.935-1.644-16.443-1.937-32.916-.822-49.33-2.348-11.222-1.057-22.444-1.937-33.695-2.055-1.24,0-2.394-.528-3.289-2.348V107.525c1.558-2.994,3.577-2.348,5.452-2.29,14.741.411,29.454-1.292,44.138-2.642,18.434-1.644,36.839-3.7,55.273-3.581a25.259,25.259,0,0,1,7.818.822c4.9-.117,9.722,1.879,14.626,2.114,19.357,1.879,38.483-2.466,57.552-7.985,12.2-3.523,24.377-3.288,36.637-1.409,16.011,2.466,31.964,6.047,48,6.986,1.615.117,3.491.176,4.587,3.346Z" transform="translate(-147.904 -76.647)" fill="#c4781c"/><path d="M0,234.378V194.1c1.125-2.231,2.539-2.172,4.039-2.231,17.309-.411,34.56,2.466,51.869,2.877,10.9.294,21.809.47,32.714.7,12.751.235,25.559.059,38.195,2.231,14.626,2.466,29.367,2.466,43.878,6.165,11.655,2.935,23.223,2.231,34.848,2.348,10.1.117,20.194.7,30.29-.235,11.482-1.057,22.934-2.7,34.416-2.759,1.414,0,2.741-.411,3.808,1.761V240.6c-1.067,2-2.221,2.759-3.837,2.935C258.652,244.652,247.142,247,235.545,248c-14.424,1.292-28.646-1.292-42.926-3.288-5.077-.7-10.183-1.116-15.289-1.879-11.741-1.7-23.511-2.29-35.252-4.345-5.164-.881-10.356-.117-15.52-.352-10.356-2.172-20.713-2-31.069-1.115-29.54,2.525-59.11.411-88.65,1.174-2.51.059-5.02.176-6.837-3.875Z" transform="translate(-147.904 -118.195)" fill="#c4781c"/><path d="M274.157,276.106v26.361c-1.3,2.524-3,2.29-4.645,2.29-3.721,0-7.443.059-11.164,0-12.174-.235-24.319,1.174-36.406,2.7-14.741,1.879-29.425,5.519-44.224,3.934-13.732-1.468-27.492-2.583-41.2-4.7-4.846-.763-9.722,0-14.568-.528-6.058-2.524-12.26-1.644-18.405-2.466-8.6-1.174-17.28-3.464-25.906-2-15.261,2.525-30.608,2.525-45.84,5.636-8.337,1.7-16.732,2.877-25.156,2.055A7.654,7.654,0,0,1,.1,305.52V269.883c.981-1.937,2.192-1.644,3.462-1.644,22.617.117,45.263,0,67.88.117a281.24,281.24,0,0,0,31.416-1.409c8.481-.939,16.992.117,25.473,1.409,18.232.528,36.406,3.523,54.581,5.812,14.684,1.879,29.367,4.873,44.109,4.932a190.109,190.109,0,0,0,37.618-4.051c3.173-.646,6.462-1.644,9.549,1.057Z" transform="translate(-147.975 -149.062)" fill="#c4781c"/><path d="M274.086,1.8V34.327c-1.529,3.17-3.577,2.642-5.423,2.114-12.174-3.288-24.29-2.172-36.464,0-5.625,1-11.308.587-16.963,1.35-12.9,1.7-25.761,4.521-38.772,3.7a105.038,105.038,0,0,1-18.924-3.229c-10.587-2.642-21.2-1.292-31.819-1.644-21.174.176-42.32,1.174-63.466,2.466-15.03.939-29.973,5.4-45.061,5.284-4.068,0-8.106-.646-12.174-.7-2.164,0-3.866-1.174-5.02-4.7V6.44C1.327,4.561,2.827,5.031,4.356,5.266c18.117,2.525,36.2,5.93,54.407,6.282,13.472.235,26.915-1.937,40.33-4.168a129.026,129.026,0,0,1,17.684-2.055C137.692,4.5,158.52-.253,179.435,1.1c23.28,1.468,46.59.294,69.87.763A20.089,20.089,0,0,0,257.527.451c5.51.47,11.106-1.82,16.559,1.409Z" transform="translate(-147.904 -39.028)" fill="#c38a41"/><path d="M274.086,62.779V82.917c-1.183,3.17-3.029,3.405-4.789,3.112-13.472-2.114-26.944-3.757-40.387-6.4-15.751-3.112-31.531-3.64-47.311,1.174-17.944,5.519-35.974,9.57-54.234,6.752a3.989,3.989,0,0,0-2.048.646c-3.519-.881-7.01-2.348-10.616-2.231a176.226,176.226,0,0,0-27.261-.646q-16.7.7-33.377,2.583c-16.443,1.82-32.858,3.229-49.3,4.345-1.615.117-3.346.7-4.76-1.526V70.588c2.192-4.638,5.077-3.112,7.731-2.818,13.53,1.526,26.944-.763,40.416-2.935,9.606-1.585,19.213-3.523,28.877-3.405,15.318.235,30.579-2.7,45.9-1.644a9.809,9.809,0,0,0,2.885-.528c5.914,1.115,11.828.646,17.742.411,8.712-.294,17.222,2.172,25.819,4.227a55.027,55.027,0,0,0,21.463.235c15.4-2.583,30.839-3.288,46.243-5.225,10.7-1.35,21.434-1.937,32.108.822,1.76.47,3.606.411,4.962,3.112Z" transform="translate(-147.904 -62.842)" fill="#c4781c"/><path d="M0,348.809v-15.5a2.7,2.7,0,0,1,3.519-1.292c9.491,3.229,18.867-.763,28.3-1.409,9.029-.646,18.088-1.409,27.088-2.818,21.55-3.405,42.984,0,64.447,2.466,23.973,1.761,47.859,7.456,71.889,5.988,10.933-.7,21.809-3.757,32.743-4.873,14.164-1.468,28.329-3.875,42.551-2.642,1.241.117,2.51-.117,3.548,1.526v18.611c-1.558,3.816-3.837,3.64-6.029,3.757-25.732,1.115-51.378,4.873-77.111,6.4-19.386,1.116-38.772,1.879-58.071-.528-22.963-2.818-45.926-5.46-68.832-9.922-8.626-1.7-17.251-3.581-25.963-3.64-10.933-.059-21.665,3.581-32.425,6.458-2.106.587-4.125,1.174-5.654-2.524Z" transform="translate(-147.904 -173.74)" fill="#c4781c"/><path d="M0,359.248c8.049-2.055,16.068-4.227,24.146-6.223,14.078-3.464,28.069.411,42.06,2.407,38.858,5.577,77.572,16.263,116.69,12.857,18.578-1.585,37.127-4.755,55.677-6.693,11.828-1.233,23.684-1.585,35.541-2.29v7.75c-44.4,2.055-88.766,7.1-133.163,4.462-28.79-1.7-57.581-3.816-86.2-10.333-17.02-3.934-33.839-.411-50.6,5.049-1.356.411-2.741.587-4.1.881v-7.75Z" transform="translate(-147.904 -184.179)" fill="#4b1e1e"/><path d="M430.8,94.962c20.338,2,40.387-2.172,60.408-8.219,14.655-4.462,29.425-2.877,44.08,0,14.8,2.936,29.627,4.755,44.426,7.045v6.223a190.442,190.442,0,0,1-43.3-5.049A102.676,102.676,0,0,0,479.985,97.6a113.683,113.683,0,0,1-43.243,5.343c-1.5-.117-3.058.411-4.443-1.233a13.32,13.32,0,0,1-2.25-3.288c-.548-1.526-1.039-3.405.721-3.405Z" transform="translate(-453.532 -73.654)" fill="#4b1e1e"/><path d="M274.086,203.3c-10.616-.822-21.2.881-31.791,2.114a272.356,272.356,0,0,1-56.6.646c-19.328-1.937-38.743-4.579-58.042-8.219-12.174-2.29-24.492-1.526-36.752-1.82-16.963-.352-33.9,0-50.859-.587-11.712-.411-23.4-2.055-35.079-3.112A46.85,46.85,0,0,0,0,192.438V187.8c14.337,0,28.646.176,42.984,1.35,23.28,1.879,46.59,1.7,69.841,3.757,22.1,1.937,44.253,4.579,66.264,9.981a11.764,11.764,0,0,0,2.481.352c30.175-.235,60.35-.47,90.5-4.11a12.877,12.877,0,0,0,2.048-.47V203.3Z" transform="translate(-147.904 -116.53)" fill="#4b1e1e"/><path d="M551.72,330.712c-17.54-1.35-34.935,1.468-52.33,5.225-21.549,4.7-43.07,5.754-64.677,1.879-11.222-2-22.473-3.64-33.723-5.46-3.173-2.407-6.693.47-10.789-2.231,3.577-2.759,6.4-1.82,9.231-1.233,14.309.352,28.646.822,42.9,3.112,17.222,2.7,34.358,1,51.552-1.468,19.213-2.759,38.512-2.935,57.812-2.935v3.112Z" transform="translate(-425.539 -174.254)" fill="#4b1e1e"/><path d="M0,417.377c14.972-.528,29.6,5.577,44.4,8.278,9.953,1.82,19.876,1.057,29.742-.7,15.03-2.759,30.031-1.35,45.061-1.057,10.876.176,21.751,1.879,32.656,2.407,17.136.881,34.041-5.577,51.119-6.575,6.577-.352,13.155-1.174,20.511-1.82-2.25,4.11-4.471,3.757-6.462,3.875-17.655,1-35.223,3.816-52.763,7.28-10.876,2.172-21.78-.822-32.656-1.35-22.617-1.116-45.2-2.525-67.793,1.644-11.914,2.231-23.655-1.879-35.4-4.755-9.433-2.29-18.867-4.756-28.415-4.051v-3.17Z" transform="translate(-147.904 -211.31)" fill="#4b1e1e"/><path d="M586.473,276.191c-11.049,3.053-22.184,3.581-33.291,4.462-21.636,1.7-43.157-2.7-64.706-5.4-15.924-2.055-31.848-3.7-47.772-5.577-.49-.939-2.077.352-1.558-2.642,10.645-.939,21.2,1.116,31.791,2.231,22.155,2.29,44.253,6.928,66.466,7.926,13.241.587,26.425-2.231,39.608-4.755a85.666,85.666,0,0,1,9.491-.822v4.638Z" transform="translate(-460.291 -149.147)" fill="#4b1e1e"/><path d="M436.3,58.835l.058-1.409c11.6-1.644,23.252-1.937,34.675,1.468,14.078,4.168,28.069,2.935,42.06.7,13.068-2.114,26.165-2.29,39.233-4.345,10.789-1.761,21.492.587,32.194,1.7v4.638c-16.184-5.4-32.4-2.055-48.609-1-17.6,1.174-35.195,6.165-52.792,3.7-13.3-1.879-26.54-5.166-39.9-4.579-2.308.117-4.673,1.115-6.924-.822Z" transform="translate(-458.34 -61.54)" fill="#4b1e1e"/><path d="M891.081,415.977v10.861c-1.817,1.585-3.462,0-5.106-1-5.106-3.053-9.981-7.163-15-10.627-1.587-1.115-3.635-2.231-3.808-6.223-.2-4.227,1.875-5.343,3.433-6.693,5.337-4.7,10.933-7.28,16.876-7.1a3.385,3.385,0,0,1,3.606,2.172v7.75C888.687,408.756,889.206,412.337,891.081,415.977Z" transform="translate(-764.9 -202.16)" fill="#c4781c"/><path d="M887.414,395.6c-6.779-.294-13.443.646-19.7,6.223-1.327,1.174-3.2,1.82-3.289,5.108-.058,3.523,1.9,4.051,3.231,4.932,6.577,4.344,12.837,10.45,19.732,13.151v3.112c-7.472-2.877-14.366-8.924-21.405-14.09-1.7-1.233-3.952-2.759-3.981-6.986s2.193-5.578,3.837-7.339c6.693-7.045,14.02-8.806,21.55-8.806v4.638Z" transform="translate(-761.233 -200.391)" fill="#4b1e1e"/><path d="M798.475,169.712c-8.8-1.115-17.165,3.346-25.559,7.4-10.3,4.932-20.742,7.926-31.416,6.752-1.414-.176-2.943.47-4.5-1.7.635-.646.952-1.35,1.24-1.292,14.136,3.464,27.55-3.64,40.993-10.039,6.318-2.994,12.78-3.464,19.213-4.227v3.112Z" transform="translate(-672.294 -107.777)" fill="#834f27"/><path d="M860.383,143.734c-12.578-1.585-24.492-8.454-36.349-15.91-.086-1.292,0-2.231.865-1.292,8.222,3.581,16.1,9.628,24.521,11.683,3.635.881,7.3,1.585,10.962,2.407Z" transform="translate(-734.202 -91.075)" fill="#89552b"/><path d="M937.605,422.961H936.8c-1.817-1.644-4.5-2.7-4.241-7.045.317-5.166,3.173-3.288,5.048-3.816v3.112a4.123,4.123,0,0,0,0,4.638Z" transform="translate(-811.424 -209.144)" fill="#854f2d"/><path d="M943.656,421.967c-1.1-.763-2.8-.763-2.6-3.64.115-1.644,1.673-.939,2.6-1Z" transform="translate(-817.474 -211.262)" fill="#c4781c"/><path d="M794.5,417.5h11.337C802.087,419.79,798.308,419.614,794.5,417.5Z" transform="translate(-713.206 -211.374)" fill="#4b1e1e"/><path d="M146.484,150.4c-8.885-2.525-17.857-1.7-26.8-2-24.954-.7-49.878-1.761-74.774-5.519-7.76-1.174-15.4,1.468-23.107,2.114-1.327.117-2.712,1.057-4.7-.822,5.135-2.994,9.866-3.053,14.482-3.934,9.52-1.82,19.011-.176,28.473,1.879a28.838,28.838,0,0,0,4.933.822c25.357,1.116,50.715,2,76.072,3.229,16.328.822,32.281,6.928,48.061,14.384,6.4,3.053,12.837,5.871,19.415,7.339.923.176,1.9.352,2.712,3.053-5.048-.235-9.549-2.348-14.078-4.11-13.328-5.225-26.425-12.681-40.07-15.088-2.741-.47-5.481-.7-8.251-1.057-.865,1.115-1.673,1.35-2.366-.411Z" transform="translate(-160.071 -96.572)" fill="#4b1e1e"/><path d="M636.205,158.586c-11.857-4.286-26.021-2.583-39.147-12.857-1.471-1.174-3.462-1.7-3.577-5.519-.144-4.227,1.789-5.636,3.491-6.575,16.616-9.276,33.32-13.5,50.253-2.466,4.673,3.053,9.433,5.636,14.136,8.454a3.606,3.606,0,0,1,2.221,3.053c.231,2.348-1.154,2.525-1.933,3.288-7.674,7.691-16.847,12.505-25.415,12.623Z" transform="translate(-570.172 -90.427)" fill="#4b1e1e"/><path d="M704.719,119.665l-.865,1.292c-15.866-9.628-32.339-9.335-48.753-10.157,16.79-2.348,33.493-2.525,49.59,8.865Z" transform="translate(-614.02 -84.209)" fill="#8d592c"/><path d="M706.508,191.316c-2.769.411-5.51,2.877-8.308.176A8.7,8.7,0,0,1,706.508,191.316Z" transform="translate(-644.687 -117.58)" fill="#7c4722"/><path d="M667.8,145.292c-8.25,9.452-16.241,14.736-24.694,13.151a156.07,156.07,0,0,1-32.541-9.687,16.674,16.674,0,0,1-3.952-2.114c-1.442-1.174-4.01-1-4.01-4.11,0-3.464,2.394-4.521,4.068-5.225,16.386-6.869,32.743-11.448,49.042.939,3.548,2.7,7.3,4.345,12.087,7.163Z" transform="translate(-576.666 -92.868)" fill="#c4781c"/><path d="M690.886,156.006c-4.731-2.055-10.068-2.055-14.886-6.165-1.24-1.057-2.885-2.231-2.654-5.166.26-3.464,2.25-3.875,3.635-3.7,3.4.47,6.779,1.761,10.155,2.642,3.26.881,6.52,1.526,9.78,2.525,1.01.294,2.481.352,2.51,3.053a4.719,4.719,0,0,1-2.193,4.11,10.347,10.347,0,0,1-6.318,2.7Z" transform="translate(-626.987 -97.183)" fill="#8b572d"/><path d="M700.728,150.917c-4.616,6.223-16.79,3.816-22.328-4.4C686.42,143.755,693.141,150.1,700.728,150.917Z" transform="translate(-630.599 -99.198)" fill="#c38d4f"/><path d="M949,414.9v4.638c1.125,2.172,2.51,2.231,4.039,2.231,20.309.117,40.618,0,60.927-2,22.155-2.231,44.282-2.172,66.379,3.053a249.141,249.141,0,0,0,31.964,5.46c11.106,1.233,22.242,1.82,33.319,3.229,16.415,2.055,32.8-.235,49.157,1.468,8.106.822,16.068.763,24.059-1.526,1.731-.47,3.2-1.468,4.241-4.168v-31c-3.577-3.053-7.356-1.82-10.962-1.174-10.01,1.7-19.934,4.462-29.887,7.1-12.232,3.288-24.434,1.644-36.637-.7-5.914-1.116-11.856-.294-17.77-.587a274.677,274.677,0,0,0-49.59,2c-12.058,1.526-23.8,0-35.656-3.288-4.327-1.174-8.8-1.174-13.155-1.409-6.462-.352-12.837-3.112-19.328-1.879-.548,0-.4-1.115-.4-.059s-.144,0,.4,0c13.7,1.35,27.377,2.466,41.022,5.754,8.539,2.055,17.165,2.7,25.906.881,7.76-1.585,15.665-1.233,23.511-1.879,6.895-.587,13.79-.117,20.684-.117,12.664,0,25.3.411,37.964,2.759,14.337,2.642,28.531-3.112,42.724-6.4,5.452-1.292,10.9-2.759,16.443-2.583,1.615,0,3.346.7,4.76-1.526V369.931c-1.5-3.464-3.635-4.4-5.827-5.225-19.53-7.163-39.147-7.632-58.821-2.7-11.078,2.818-22.213,3.816-33.377,4.814-10.1.939-20.165,2.936-30.319,3.816a505.142,505.142,0,0,1-86.371-.294c-10.328-.881-20.655-2.994-31.012-2.7-7.472.176-14.828-2.525-22.3-1.585-2.192.294-4.471,0-6.029,3.757v7.75c2.943,4.638,6.664,1.526,9.953,3.64,3.346,2.172,6.952,2.877,10.039,6.458,1.183,1.35,2.481,2.525,2.423,5.695-.058,3.464-1.471,4.932-2.885,5.871-5.077,3.346-9.895,7.808-15.088,10.509a7.868,7.868,0,0,0-4.471,4.99Z" transform="translate(-823.136 -187.113)" fill="#c4781c"/><path d="M949,102.946v23.249c3.519,3.523,6.952-.176,10.328-.939,8.741-1.937,16.991-7.808,25.386-12.446a62.358,62.358,0,0,1,34.1-9.863h14.078c-16.04-.646-32.021-.47-47.484,9.335-11.164,6.928-22.444,12.916-34.156,15.441a3.063,3.063,0,0,0-2.25,1.526v6.223c1.644,2.759,3.721,1.585,5.568,1.761,10.357,1.115,20.078,7.867,30.146,11.448a47.478,47.478,0,0,0,17.193,3.053c-10.558.352-20.684-4.051-30.781-9.1a53.233,53.233,0,0,0-17.8-5.519c-1.471-.176-3.058-.763-4.327,1.468V158.72c1.846,3.17,4.125,4.11,6.52,3.816,10.558-1.115,21.059,1.292,31.589,1.879,7.212.411,14.482,1.233,21.694,1.116,5.741-.117,11.453-.646,17.193,0,11.6,1.35,23.078-2.348,34.618-3.581,13.76-1.409,27.492-3.464,41.224-5.754,11.655-1.937,23.309-.235,34.935-1.644,16.443-1.937,32.916-.822,49.33-2.348,11.222-1.057,22.444-1.937,33.695-2.055,1.241,0,2.395-.528,3.289-2.348V107.525c-1.558-2.994-3.577-2.348-5.452-2.29-14.741.411-29.454-1.292-44.138-2.642-18.434-1.644-36.839-3.7-55.273-3.581a25.259,25.259,0,0,0-7.818.822c-4.9-.117-9.722,1.879-14.626,2.114-19.357,1.879-38.483-2.466-57.552-7.985-12.2-3.523-24.377-3.288-36.637-1.409-16.011,2.466-31.964,6.047-48,6.986-1.615.117-3.491.176-4.587,3.346Z" transform="translate(-823.136 -76.647)" fill="#c4781c"/><path d="M1223.157,234.378V194.1c-1.125-2.231-2.539-2.172-4.039-2.231-17.309-.411-34.56,2.466-51.869,2.877-10.9.294-21.809.47-32.714.7-12.751.235-25.559.059-38.195,2.231-14.626,2.466-29.367,2.466-43.878,6.165-11.655,2.935-23.223,2.231-34.849,2.348-10.1.117-20.194.7-30.291-.235-11.482-1.057-22.934-2.7-34.416-2.759-1.414,0-2.741-.411-3.808,1.761V240.6c1.067,2,2.221,2.759,3.837,2.935C964.5,244.652,976.015,247,987.612,248c14.424,1.292,28.646-1.292,42.926-3.288,5.077-.7,10.183-1.116,15.289-1.879,11.741-1.7,23.511-2.29,35.252-4.345,5.164-.881,10.356-.117,15.52-.352,10.357-2.172,20.713-2,31.069-1.115,29.54,2.525,59.11.411,88.65,1.174,2.51.059,5.02.176,6.837-3.875Z" transform="translate(-823.207 -118.195)" fill="#c4781c"/><path d="M948.929,276.106v26.361c1.3,2.524,3,2.29,4.645,2.29,3.721,0,7.443.059,11.164,0,12.174-.235,24.319,1.174,36.406,2.7,14.741,1.879,29.425,5.519,44.224,3.934,13.732-1.468,27.492-2.583,41.2-4.7,4.846-.763,9.722,0,14.568-.528,6.058-2.524,12.26-1.644,18.405-2.466,8.6-1.174,17.28-3.464,25.906-2,15.261,2.525,30.608,2.525,45.84,5.636,8.337,1.7,16.732,2.877,25.156,2.055a7.654,7.654,0,0,0,6.548-3.875V269.883c-.981-1.937-2.193-1.644-3.462-1.644-22.617.117-45.263,0-67.879.117a281.24,281.24,0,0,1-31.416-1.409c-8.481-.939-16.992.117-25.473,1.409-18.232.528-36.406,3.523-54.581,5.812-14.684,1.879-29.367,4.873-44.109,4.932a190.107,190.107,0,0,1-37.618-4.051c-3.173-.646-6.462-1.644-9.549,1.057Z" transform="translate(-823.065 -149.062)" fill="#c4781c"/><path d="M949,1.8V34.327c1.529,3.17,3.577,2.642,5.423,2.114,12.174-3.288,24.29-2.172,36.464,0,5.625,1,11.308.587,16.963,1.35,12.9,1.7,25.761,4.521,38.772,3.7a105.038,105.038,0,0,0,18.924-3.229c10.587-2.642,21.2-1.292,31.819-1.644,21.174.176,42.32,1.174,63.466,2.466,15.03.939,29.973,5.4,45.061,5.284,4.068,0,8.106-.646,12.174-.7,2.164,0,3.866-1.174,5.02-4.7V6.44c-1.327-1.879-2.827-1.409-4.356-1.174-18.117,2.525-36.2,5.93-54.407,6.282-13.472.235-26.915-1.937-40.33-4.168a129.026,129.026,0,0,0-17.684-2.055c-20.915-.822-41.743-5.577-62.658-4.227-23.28,1.468-46.59.294-69.87.763A20.089,20.089,0,0,1,965.559.451c-5.51.47-11.107-1.82-16.559,1.409Z" transform="translate(-823.136 -39.028)" fill="#c38a41"/><path d="M948.858,62.779V82.917c1.183,3.17,3.029,3.405,4.789,3.112,13.472-2.114,26.944-3.757,40.387-6.4,15.751-3.112,31.531-3.64,47.311,1.174,17.943,5.519,35.974,9.57,54.234,6.752a3.989,3.989,0,0,1,2.048.646c3.519-.881,7.01-2.348,10.616-2.231a176.226,176.226,0,0,1,27.261-.646q16.7.7,33.377,2.583c16.443,1.82,32.858,3.229,49.3,4.345,1.615.117,3.346.7,4.76-1.526V70.588c-2.193-4.638-5.077-3.112-7.731-2.818-13.53,1.526-26.944-.763-40.416-2.935-9.606-1.585-19.213-3.523-28.877-3.405-15.318.235-30.579-2.7-45.9-1.644a9.81,9.81,0,0,1-2.885-.528c-5.914,1.115-11.828.646-17.741.411-8.712-.294-17.222,2.172-25.819,4.227a55.027,55.027,0,0,1-21.463.235c-15.4-2.583-30.839-3.288-46.244-5.225-10.7-1.35-21.434-1.937-32.108.822-1.76.47-3.606.411-4.962,3.112Z" transform="translate(-822.994 -62.842)" fill="#c4781c"/><path d="M1223.086,348.809v-15.5a2.7,2.7,0,0,0-3.52-1.292c-9.491,3.229-18.867-.763-28.3-1.409-9.029-.646-18.088-1.409-27.088-2.818-21.55-3.405-42.984,0-64.447,2.466-23.973,1.761-47.859,7.456-71.889,5.988-10.933-.7-21.809-3.757-32.743-4.873-14.164-1.468-28.329-3.875-42.551-2.642-1.24.117-2.51-.117-3.548,1.526v18.611c1.558,3.816,3.837,3.64,6.029,3.757,25.732,1.115,51.378,4.873,77.111,6.4,19.386,1.116,38.772,1.879,58.071-.528,22.963-2.818,45.926-5.46,68.832-9.922,8.626-1.7,17.251-3.581,25.963-3.64,10.933-.059,21.665,3.581,32.425,6.458,2.106.587,4.125,1.174,5.654-2.524Z" transform="translate(-823.136 -173.74)" fill="#c4781c"/><path d="M1223.014,359.248c-8.049-2.055-16.068-4.227-24.146-6.223-14.078-3.464-28.069.411-42.061,2.407-38.858,5.577-77.573,16.263-116.69,12.857-18.578-1.585-37.127-4.755-55.677-6.693-11.828-1.233-23.684-1.585-35.541-2.29v7.75c44.4,2.055,88.766,7.1,133.163,4.462,28.79-1.7,57.581-3.816,86.2-10.333,17.021-3.934,33.839-.411,50.6,5.049,1.356.411,2.741.587,4.1.881v-7.75Z" transform="translate(-823.065 -184.179)" fill="#4b1e1e"/><path d="M1098.014,94.962c-20.338,2-40.387-2.172-60.408-8.219-14.655-4.462-29.425-2.877-44.08,0-14.8,2.936-29.627,4.755-44.426,7.045v6.223a190.442,190.442,0,0,0,43.3-5.049,102.676,102.676,0,0,1,56.427,2.642,113.684,113.684,0,0,0,43.243,5.343c1.5-.117,3.058.411,4.443-1.233a13.317,13.317,0,0,0,2.25-3.288c.548-1.526,1.039-3.405-.721-3.405Z" transform="translate(-823.207 -73.654)" fill="#4b1e1e"/><path d="M948.929,203.3c10.616-.822,21.2.881,31.791,2.114a272.355,272.355,0,0,0,56.6.646c19.328-1.937,38.743-4.579,58.042-8.219,12.174-2.29,24.492-1.526,36.752-1.82,16.963-.352,33.9,0,50.859-.587,11.712-.411,23.4-2.055,35.079-3.112a46.849,46.849,0,0,1,4.962.117V187.8c-14.337,0-28.646.176-42.984,1.35-23.28,1.879-46.59,1.7-69.841,3.757-22.1,1.937-44.253,4.579-66.264,9.981a11.763,11.763,0,0,1-2.481.352c-30.175-.235-60.35-.47-90.5-4.11a12.877,12.877,0,0,1-2.048-.47V203.3Z" transform="translate(-823.065 -116.53)" fill="#4b1e1e"/><path d="M949,330.712c17.54-1.35,34.935,1.468,52.33,5.225,21.549,4.7,43.07,5.754,64.677,1.879,11.222-2,22.473-3.64,33.723-5.46,3.173-2.407,6.693.47,10.789-2.231-3.577-2.759-6.4-1.82-9.231-1.233-14.309.352-28.646.822-42.9,3.112-17.222,2.7-34.358,1-51.551-1.468-19.213-2.759-38.512-2.935-57.812-2.935v3.112Z" transform="translate(-823.136 -174.254)" fill="#7d4a2e"/><path d="M1612.151,106.985c-26.569-.822-52.994-6.81-79.534-8.513-11.828-.763-23.656-2.642-35.454.939-.635,1.585-1.789,2.994-1.183,5.284.635,2.407,1.846,1.468,2.885.881,30.637-1.409,61.187,2.877,91.766,3.875,7.183.235,14.337.352,21.521.587v-3.053Z" transform="translate(-1212.201 -79.16)" fill="#4b1e1e"/><path d="M1347.886,417.377c-14.972-.528-29.6,5.577-44.4,8.278-9.953,1.82-19.876,1.057-29.742-.7-15.03-2.759-30.031-1.35-45.061-1.057-10.876.176-21.751,1.879-32.656,2.407-17.136.881-34.041-5.577-51.119-6.575-6.577-.352-13.155-1.174-20.511-1.82,2.25,4.11,4.471,3.757,6.462,3.875,17.655,1,35.224,3.816,52.763,7.28,10.876,2.172,21.78-.822,32.656-1.35,22.617-1.116,45.2-2.525,67.793,1.644,11.914,2.231,23.656-1.879,35.4-4.755,9.433-2.29,18.867-4.756,28.415-4.051v-3.17Z" transform="translate(-947.936 -211.31)" fill="#4b1e1e"/><path d="M1462.729,60.6c4.731,2.525,9.606,1.233,14.4,1.174,27.665-.47,55.071,5.695,82.534,10.1,9.664,1.526,19.3-.059,28.935-.763v-7.75c-11.251,3.053-22.53,2.172-33.81,1-11.539-1.233-23.078-3.288-34.647-3.934-18.059-1-36.118-1.115-54.148-1.526a31.253,31.253,0,0,0-3.289.352l.058,1.409Z" transform="translate(-1188.643 -63.307)" fill="#4b1e1e"/><path d="M948.929,276.191c11.049,3.053,22.184,3.581,33.291,4.462,21.636,1.7,43.157-2.7,64.706-5.4,15.924-2.055,31.848-3.7,47.772-5.577.49-.939,2.077.352,1.558-2.642-10.645-.939-21.2,1.116-31.791,2.231-22.155,2.29-44.253,6.928-66.466,7.926-13.241.587-26.425-2.231-39.608-4.755a85.668,85.668,0,0,0-9.491-.822v4.638Z" transform="translate(-823.065 -149.147)" fill="#804d28"/><path d="M1097.221,58.835l-.058-1.409c-11.6-1.644-23.251-1.937-34.675,1.468-14.078,4.168-28.069,2.935-42.06.7-13.068-2.114-26.165-2.29-39.233-4.345-10.789-1.761-21.492.587-32.194,1.7v4.638c16.184-5.4,32.4-2.055,48.609-1,17.6,1.174,35.195,6.165,52.792,3.7,13.3-1.879,26.54-5.166,39.9-4.579,2.308.117,4.673,1.115,6.923-.822Z" transform="translate(-823.136 -61.54)" fill="#4b1e1e"/><path d="M1472.958,326.952h6.52c-2.568,2.994-5.6.235-8.077,3.405,10.212.294,20.338-2.231,30.521-3.346,14.914-1.585,29.742,1.468,44.6,2.231,16.1.822,32.137,5.4,48.292,2.525v-3.112c-14.482,3.523-28.819-1.057-43.214-2.466-21.405-2.055-42.811-5.93-64.245-1.115-4.76,1.057-9.635-.352-14.366,1.82Z" transform="translate(-1194.834 -172.256)" fill="#4b1e1e"/><path d="M1455.958,265.944l-1.558,2.642q62.918.352,125.835.763a11.9,11.9,0,0,0,2.452-.411V264.3c-1.9.411-3.837,1.174-5.741,1.174-27,.176-54.032.881-81.034,0-12.52-.411-25.04-1.526-37.56-.411a8.11,8.11,0,0,0-2.394.939Z" transform="translate(-1182.738 -148.117)" fill="#4b1e1e"/><path d="M949,415.977v10.861c1.817,1.585,3.462,0,5.106-1,5.106-3.053,9.981-7.163,15-10.627,1.587-1.115,3.635-2.231,3.808-6.223.2-4.227-1.875-5.343-3.433-6.693-5.337-4.7-10.933-7.28-16.876-7.1A3.385,3.385,0,0,0,949,397.366v7.75C951.394,408.756,950.875,412.337,949,415.977Z" transform="translate(-823.136 -202.16)" fill="#c4781c"/><path d="M949,395.6c6.779-.294,13.443.646,19.7,6.223,1.327,1.174,3.2,1.82,3.289,5.108.058,3.523-1.9,4.051-3.231,4.932-6.577,4.344-12.837,10.45-19.732,13.151v3.112c7.472-2.877,14.366-8.924,21.405-14.09,1.7-1.233,3.952-2.759,3.981-6.986s-2.192-5.578-3.837-7.339c-6.693-7.045-14.02-8.806-21.55-8.806v4.638Z" transform="translate(-823.136 -200.391)" fill="#4b1e1e"/><path d="M949,169.712c8.8-1.115,17.165,3.346,25.559,7.4,10.3,4.932,20.742,7.926,31.416,6.752,1.414-.176,2.942.47,4.5-1.7-.635-.646-.952-1.35-1.24-1.292-14.135,3.464-27.55-3.64-40.993-10.039-6.318-2.994-12.78-3.464-19.213-4.227v3.112Z" transform="translate(-823.136 -107.777)" fill="#834f27"/><path d="M949,143.734c12.578-1.585,24.492-8.454,36.349-15.91.087-1.292,0-2.231-.865-1.292-8.222,3.581-16.1,9.628-24.521,11.683-3.635.881-7.3,1.585-10.962,2.407Z" transform="translate(-823.136 -91.075)" fill="#89552b"/><path d="M949,422.961h.808c1.817-1.644,4.5-2.7,4.241-7.045-.317-5.166-3.173-3.288-5.048-3.816v3.112a4.123,4.123,0,0,1,0,4.638Z" transform="translate(-823.136 -209.144)" fill="#4b1e1e"/><path d="M949,421.967c1.1-.763,2.8-.763,2.6-3.64-.115-1.644-1.673-.939-2.6-1Z" transform="translate(-823.136 -211.262)" fill="#c4781c"/><path d="M1076.637,417.5H1065.3C1069.05,419.79,1072.829,419.614,1076.637,417.5Z" transform="translate(-905.885 -211.374)" fill="#4b1e1e"/><path d="M1273.864,150.4c8.885-2.525,17.857-1.7,26.8-2,24.954-.7,49.878-1.761,74.774-5.519,7.76-1.174,15.405,1.468,23.107,2.114,1.327.117,2.712,1.057,4.7-.822-5.135-2.994-9.866-3.053-14.482-3.934-9.52-1.82-19.011-.176-28.473,1.879a28.838,28.838,0,0,1-4.933.822c-25.357,1.116-50.715,2-76.072,3.229-16.328.822-32.281,6.928-48.061,14.384-6.4,3.053-12.837,5.871-19.415,7.339-.923.176-1.9.352-2.712,3.053,5.048-.235,9.549-2.348,14.078-4.11,13.328-5.225,26.425-12.681,40.07-15.088,2.741-.47,5.481-.7,8.251-1.057.865,1.115,1.673,1.35,2.365-.411Z" transform="translate(-1008.202 -96.572)" fill="#4b1e1e"/><path d="M1090.014,158.586c11.857-4.286,26.021-2.583,39.147-12.857,1.471-1.174,3.462-1.7,3.577-5.519.144-4.227-1.789-5.636-3.491-6.575-16.616-9.276-33.32-13.5-50.253-2.466-4.673,3.053-9.433,5.636-14.135,8.454a3.606,3.606,0,0,0-2.221,3.053c-.231,2.348,1.154,2.525,1.933,3.288,7.674,7.691,16.847,12.505,25.415,12.623Z" transform="translate(-903.973 -90.427)" fill="#804d28"/><path d="M1423.926,158.1c-.779.117-1.587.294-2.366.411-.433,2.466-.952,4.873-1.3,7.339-.808,5.93.26,10.039,3.433,12.094,4.068,2.642,4.645-4.11,5.683-8.161,1.3-5.166-.4-8.806-3.029-10.8A7.55,7.55,0,0,0,1423.926,158.1Z" transform="translate(-1158.264 -104.267)" fill="#c7904e"/><path d="M1072,119.665l.865,1.292c15.866-9.628,32.339-9.335,48.753-10.157-16.789-2.348-33.493-2.525-49.59,8.865Z" transform="translate(-910.653 -84.209)" fill="#4b1e1e"/><path d="M1473.486,107.015c-2.712,0-1.24-4.051-1.7-6.223-3.4-.176-6.837-.939-10.183,1-.49,2.231-1.01,4.462-1.5,6.693,4.471.059,8.972.411,13.385-1.409Z" transform="translate(-1186.793 -80.482)" fill="#4b1e1e"/><path d="M1172.1,191.316c2.769.411,5.51,2.877,8.308.176A8.7,8.7,0,0,0,1172.1,191.316Z" transform="translate(-981.876 -117.58)" fill="#7c4722"/><path d="M1070.5,145.292c8.25,9.452,16.241,14.736,24.694,13.151a156.07,156.07,0,0,0,32.541-9.687,16.676,16.676,0,0,0,3.952-2.114c1.442-1.174,4.01-1,4.01-4.11,0-3.464-2.394-4.521-4.068-5.225-16.386-6.869-32.743-11.448-49.042.939-3.548,2.7-7.3,4.345-12.087,7.163Z" transform="translate(-909.585 -92.868)" fill="#c7904e"/><path d="M1143.838,156.006c4.731-2.055,10.068-2.055,14.885-6.165,1.241-1.057,2.885-2.231,2.654-5.166-.26-3.464-2.25-3.875-3.635-3.7-3.4.47-6.779,1.761-10.154,2.642-3.26.881-6.52,1.526-9.78,2.525-1.01.294-2.481.352-2.51,3.053a4.719,4.719,0,0,0,2.192,4.11,10.347,10.347,0,0,0,6.318,2.7Z" transform="translate(-955.691 -97.183)" fill="#8b572d"/><path d="M1143.3,150.917c4.616,6.223,16.79,3.816,22.328-4.4C1157.609,143.755,1150.887,150.1,1143.3,150.917Z" transform="translate(-961.384 -99.198)" fill="#c38d4f"/></g><path d="M950.561,100.2c2.51,59.067,5.048,129.426,5.02,186.862-19.126,4.308-38.31,1.827-57.552,4.765-94.506,14.163-196.2,7.832-287.529.653,3.894-44.317,7.731-82.172,6.058-126.815-.49-12.858,3.173-47.841,3.173-47.841s32.368.2,42.811.522q93.251,2.741,186.532-2.611c8.8-.522,101.545-13.38,101.516-15.534Z" transform="translate(-582.287 -89.468)" fill="#2f0c0d"/><path d="M950.632,100.2l2.337,176.355q-28.689,6.554-57.552,10.923c-94.506,14.365-189.82,11.055-284.817,7.745a1102.266,1102.266,0,0,0,3.346-135.642c-.49-13.041,3.173-48.524,3.173-48.524s32.367.2,42.81.53q93.251,2.78,186.532-2.648c8.8-.53,104.228-6.488,104.2-8.672Z" transform="translate(-584.191 -89.469)" fill="#e9e5b2"/><g transform="translate(316.438 136.487)"><path d="M1703.106,265.1a14.962,14.962,0,0,1,2.947-1.828,16.383,16.383,0,0,1,14.625.522,12.765,12.765,0,0,1,4.551,4.141l.821.373.634-.634v-.448l-.373-.672a18.359,18.359,0,0,0-3.619-3.395,16.522,16.522,0,0,0-11.677-3.022,17.927,17.927,0,0,0-7.387,2.5,16.881,16.881,0,0,0-1.716,1.119l-.522-.075-1.119-1.343v-.41l.858-.821.634-.448.485-.075c3.1-.485,6.23-.97,9.327-1.53,1.156-.187,2.276-.41,3.432-.522.672-.075.9-.3.97-.97a2.538,2.538,0,0,0-.709-2.089l.112-.746,1.157-.783a2.306,2.306,0,0,0,1.045-2.164l-.112-1.082a35.139,35.139,0,0,0-1.269-5.186c-.6-1.753-1.231-3.469-1.754-5.26a8.943,8.943,0,0,1-.447-1.642,8.216,8.216,0,0,0-.224-1.38,4.714,4.714,0,0,0-2.425-3.208l-.671-.485a12.566,12.566,0,0,0-1.381-1.082l-.522-.634a5.371,5.371,0,0,0-2.574-2.723,9.424,9.424,0,0,0,2.873.149,15.469,15.469,0,0,0,3.134-.6,3.5,3.5,0,0,0,1.343-.672l.373-.186a3.868,3.868,0,0,1,2.649.336c.97.485,1.865,1.119,2.835,1.679a12.127,12.127,0,0,0,3.992,1.53,2.474,2.474,0,0,0,1.641-.075l.336-.821-.149-.261c-.41-.672-.783-1.343-1.194-2.015a22.991,22.991,0,0,1-1.492-2.649,2.806,2.806,0,0,1,.261-2.947,18.788,18.788,0,0,1,2.649-3.059c.485-.41.485-.672.037-1.119a3.067,3.067,0,0,0-1.194-.858,14.846,14.846,0,0,0-3.059-.821c-.485-.075-1.007,0-1.492-.112h-2.015l-1.045.149a24.007,24.007,0,0,0-3.917,1.268c-1.492.56-2.947,1.343-4.439,1.9a8.548,8.548,0,0,1-6.156.112,6.087,6.087,0,0,1-2.462-1.53l-.709-.6-.485.187c-.783,2.089-1.567,4.178-2.238,6.3a34.987,34.987,0,0,0-1.082,4.328l-.485.41c-.56,0-1.082.112-1.641.112l-.411-.41a44.061,44.061,0,0,0,0-4.962,6.708,6.708,0,0,0-1.6-4.365,8.146,8.146,0,0,0-13.617,2.164,5.778,5.778,0,0,0-.485,2.649l.3.448.336.448c-.075.9,0,1.791,0,2.686l-.075.41c-.41,1.194-.746,2.425-1.082,3.619l.224.522.9.336c.9.187,1.791.336,2.724.448a2.564,2.564,0,0,0-.746,1.6l-.149,1.007c-.522,1.418-.821,2.91-1.306,4.365a23.72,23.72,0,0,1-3.32,6.118,6.235,6.235,0,0,1-2.238,2.276l-.336.373-.559.485a3.315,3.315,0,0,0-1.679,1.343,15.582,15.582,0,0,0-.97,1.716l.075.522.784.746a17.651,17.651,0,0,0,1.9,1.38,1.437,1.437,0,0,1,.6,1.679c-.671,2.164-1.38,4.328-2.052,6.491-.224.709-.187.709-.933.634a14.138,14.138,0,0,0-11.3,3.731,15.528,15.528,0,0,0-3.619,5.372,7.488,7.488,0,0,0-.634,2.5c-.037.56-.112,1.119-.187,1.641v1.865l.075,1.157a13.705,13.705,0,0,0,4.962,8.73,14.186,14.186,0,0,0,19.885-1.753,14.063,14.063,0,0,0,3.171-11.528l-.149-.97a5.3,5.3,0,0,0,1.865.187l.41.3.261.634.821.41.933-.112.3.075-.074.261-.112.149a4.169,4.169,0,0,0-.448,2.761,4.378,4.378,0,0,0,1.007,2.089v.709l-.634.97v1.007a2.124,2.124,0,0,1,.037.485.738.738,0,0,0,.522,1.231,2.6,2.6,0,0,0,2.35-.672l.821-.672.373.075.112.187.783.261a14.05,14.05,0,0,0,2.947-1.977c.746-.709.671-.821.261-1.455v-.448c.522-.448.9-.97,1.38-1.38l.411-.224h2.126l.224.261.075.783a12.751,12.751,0,0,0,.634,3.32,14.547,14.547,0,0,0,4.178,6.342,13.394,13.394,0,0,0,6.827,3.246c.56.112,1.156.075,1.716.149h2.164a8.417,8.417,0,0,0,2.126-.336,14.624,14.624,0,0,0,7.126-4.365,13.367,13.367,0,0,0,2.462-3.917,15.223,15.223,0,0,0,1.119-4.962,13.475,13.475,0,0,0-.858-5.447,18.846,18.846,0,0,0-2.313-4.253l-.56-.634-1.007-.858a14.818,14.818,0,0,0-3.992-2.537,14.5,14.5,0,0,0-12.834.933l-.6-.075-1.455-1.679.075-.56Zm-31.785-12.349-.149-.448.6-.709,1.306-.373.224.224a1.177,1.177,0,0,0,1.194,1.194,5.579,5.579,0,0,0,2.462-1.007l.3-.783.224-.261a1.4,1.4,0,0,0,.821-1.194l-.448-.56h-.149c-.522-.112-.56-.187-.261-.6.821-1.082,1.641-2.164,2.5-3.171a12.58,12.58,0,0,0,1.6-2.835l.373-.672h.224c0-.037.3.709.3.709l.074.634a8.057,8.057,0,0,0,2.276,3.1l.075.41a11.087,11.087,0,0,1-1.306,1.865,19.353,19.353,0,0,0-2.873,3.88,6.05,6.05,0,0,1-1.268,1.642l-.373.56-.3.373-.858.671-1.045.485h-.224a2.841,2.841,0,0,1-1.418-1.045,1.837,1.837,0,0,0-1.828-1.045l-.671-.187-1.306-.783Zm11.08,4.4c-.187.485-.485.858-.634,1.306l-.261.112c-2.612.224-5.26.336-7.872.336l-.224-.3.336-1.194.9-.373c.56.261,1.156.522,1.716.821a2.975,2.975,0,0,0,1.38.3l.559-.3.858-1.007.672.075c.41.6,1.007.56,1.6.485l1.007-.224Zm-11.6,10.409.448-.224a11.474,11.474,0,0,1,5.036,3.32v.373c-2.574,1.679-5.148,3.395-7.685,5.074l-.187.075v-.336c.821-2.761,1.642-5.521,2.425-8.282Zm-8.916.933a10.834,10.834,0,0,1,7.2-1.6c-.448,1.38-.858,2.761-1.268,4.1s-.821,2.649-1.231,3.992l-.411.41-.485-.3c-.858-1.492-1.828-2.91-2.761-4.365-.373-.6-.746-1.194-1.157-1.791l.112-.448Zm-4.44,5.186a11.193,11.193,0,0,1,3.581-4.626l.41.075c1.194,1.9,2.425,3.805,3.619,5.671l.224.634-.187.783-.373.112c-.933-.3-1.828-.56-2.761-.858-1.418-.448-2.873-.9-4.291-1.306l-.224-.448Zm.261,9.289a12.178,12.178,0,0,1-1.156-5.186,12.3,12.3,0,0,1,.485-3.059l.485-.261c2.313.746,4.626,1.455,6.939,2.164l.336.448.261,1.082-.075.3c-2.313,1.53-4.663,3.059-6.976,4.626l-.336-.112Zm7.014,5.857a11.331,11.331,0,0,1-6.566-5l.112-.41c2.313-1.53,4.626-3.059,6.9-4.589h.56l.485.224.261.336c-.149,1.007-.3,1.977-.485,2.985-.336,2.089-.671,4.216-1.007,6.3l-.261.187Zm8.357-.9a11.325,11.325,0,0,1-5.223,1.343,10.584,10.584,0,0,1-2.239-.224l-.224-.336c.485-3.1.97-6.156,1.455-9.252l.672-.6.3.187c1.791,2.835,3.581,5.633,5.372,8.431l-.112.41Zm5.41-6.566a11.266,11.266,0,0,1-4.477,6.006l-.56-.112c-1.492-2.35-2.984-4.7-4.514-7.051l-.858-1.306v-.522c.037,0,.261-.3.261-.3l.3-.112.224.075c3.134.97,6.23,1.94,9.364,2.873l.224.448Zm.261-1.007-.373.224c-3.134-.97-6.3-1.94-9.439-2.91l-.224-1.119.224-.187c2.462-1.641,4.924-3.246,7.387-4.887l.56.112a10.782,10.782,0,0,1,2.052,6.193,16.215,16.215,0,0,1-.224,2.611Zm4.514-9.551-1.194.336-.932.485-.709.41-.186-.149a14.3,14.3,0,0,0-1.716-2.686,13.928,13.928,0,0,0-6.529-4.477l-.261-.448c.3-1.007.634-2.015.858-3.022.112-.6.224-.672.821-.634h1.642c1.567-.075,3.134-.112,4.7-.224.56,0,1.156,0,1.716-.037l.261.261c.187.97.373,1.977.522,2.947.3,1.828.709,3.619,1.082,5.41l.224,1.38-.3.448Zm2.537-17.646a22.054,22.054,0,0,0-1.9,1.828l-.224.261a1.108,1.108,0,0,1,.261-1.231,14.185,14.185,0,0,1,1.94-1.716l.783-.746a2.032,2.032,0,0,1-.821,1.642Zm16.079,4.328a11.346,11.346,0,0,0-1.94.485,2.019,2.019,0,0,0-1.343,1.492l-.336.709-.485-.485a1.373,1.373,0,0,1-.373-1.9,13.676,13.676,0,0,0,.56-1.6l.56-.9h.448l1.082.9a5.367,5.367,0,0,0,3.022,1.045l-1.156.224Zm-5.148-30.816.336-.224,1.007.075a22.536,22.536,0,0,1,5.037,1.791c-1.194.037-2.35.075-3.507.149a28.731,28.731,0,0,0-3.507.373c.149-.783.41-1.492.6-2.2Zm-.6,29.584-.448.672C1695.384,256.183,1695.384,256.295,1696.13,256.257Zm-.97.41.224,1.157-.448.373h-.634A7.9,7.9,0,0,1,1695.16,256.668Zm-3.843,12.647c-.112-1.865-.149-3.731-.075-5.633l.149-.821.224-1.082.336-.783.522-.933.149-.149a21.084,21.084,0,0,1,2.2-.149c-1.119,3.47-2.2,6.9-3.321,10.334l-.149-.784Zm11.677,16.863a11.259,11.259,0,0,1-2.089-6.268l.3-.336h9.849c-.746.672-1.455,1.268-2.126,1.9-1.791,1.6-3.619,3.171-5.41,4.775l-.485-.075Zm-1.865-8.842.373-.261,4.029.671.149.075H1701.5l-.336-.522Zm9.551,12.871c-.075.56-.112.56-.634.485a11.1,11.1,0,0,1-6.379-3.656v-.448l7.275-6.379h.709l.3.149.187.373c-.149.9-.261,1.828-.411,2.723-.336,2.238-.671,4.44-1.007,6.678v.075Zm7.76-1.306a10.854,10.854,0,0,1-6.3,1.94h-.858l-.224-.261c.261-1.6.485-3.171.709-4.775.261-1.642.522-3.246.746-4.887l.336-.3c.6-.112.858.187,1.119.634,1.53,2.388,3.059,4.738,4.589,7.088l-.112.6Zm4.776-7.685a11.322,11.322,0,0,1-3.806,6.976l-.485-.075c-1.6-2.5-3.246-4.962-4.85-7.461l.075-.485.6-.709.186-.186c.672.112,1.231.186,1.828.3,2.015.336,4.029.672,6.007,1.007.485.075.485.075.41.6Zm-2.724-9.028a11.268,11.268,0,0,1,2.835,7.387l-.074.672-.672-.075c-2.388-.41-4.813-.783-7.2-1.194l-.41-.485-.373-1.231v-.336c1.865-1.6,3.731-3.208,5.559-4.85h.336Zm-5.932-3.432a11.273,11.273,0,0,1,5.26,2.8v.373c-1.791,1.567-3.545,3.1-5.335,4.663l-.56.149-.709-.783c.112-.821.224-1.641.373-2.462.224-1.53.448-3.059.709-4.589l.261-.187Zm-7.834,1.082a10.855,10.855,0,0,1,3.843-1.268,10.545,10.545,0,0,1,1.529-.112,9.685,9.685,0,0,1,1.492.112l.261.373c-.261,1.753-.56,3.507-.821,5.26a14.359,14.359,0,0,0-.224,1.828l-.3.485-.709-.224-3.358-3.917c-.6-.709-1.231-1.455-1.828-2.164l.075-.373Zm-2.089,1.455h.448c1.753,2.127,3.544,4.253,5.335,6.342l.112.224h-.224a6.6,6.6,0,0,1-.858.037,17.2,17.2,0,0,1-3.656-.448c-1.38-.224-2.76-.485-4.141-.709l-.224-.373a11.316,11.316,0,0,1,3.283-5.111Zm-1.716-2.5v.336a13.952,13.952,0,0,0-4.589,8.469l-.336.3h-2.649l-.261-.261a.9.9,0,0,0-.6-1.082l-.3-.373c-.522-1.082-.9-2.2-1.38-3.283v-.709c1.194-3.544,2.2-7.126,3.4-10.67l.149-.41.522.522-.075.3v.933l.821.709h.932c.448.522.9,1.045,1.38,1.567v.261a20.379,20.379,0,0,0-2.612,2.761,4.307,4.307,0,0,0-1.007,1.679,1.109,1.109,0,0,0,.6,1.38l.709-.187c.373-.6.709-1.194,1.044-1.791a9.213,9.213,0,0,1,2.238-2.574h.336c.559.709,1.156,1.38,1.716,2.052Z" transform="translate(-1653.6 -216.6)" fill="#341514"/><path d="M1797.16,231.6a10.7,10.7,0,0,1-3.245-.858,24.584,24.584,0,0,1-3.208-1.828,6.784,6.784,0,0,0-2.387-1.007,5.252,5.252,0,0,0-1.865.112l-.149.075a5,5,0,0,1-2.388.97,11.813,11.813,0,0,1-3.619.336,15.513,15.513,0,0,1-5.3-1.418,17.441,17.441,0,0,0-4.1-1.268h-.671l-.224-.336c.522-1.6,1.045-3.208,1.6-4.813.224-.6.448-1.194.671-1.828l.336-.075a8.1,8.1,0,0,0,5.894,1.828,10.827,10.827,0,0,0,3.4-.858c1.641-.671,3.246-1.492,4.925-2.089a15.664,15.664,0,0,1,3.432-.97,14.072,14.072,0,0,1,3.955.149,14.946,14.946,0,0,1,2.537.672,3.32,3.32,0,0,1,1.306.858v.373a20.65,20.65,0,0,0-2.91,3.358,3.154,3.154,0,0,0-.187,3.283,35.472,35.472,0,0,0,1.865,3.283l.821,1.343-.261.6h-.261Z" transform="translate(-1726.575 -217.159)" fill="#3f77ac"/><path d="M1739.323,316.429l-1.119.6c-.6.448-1.156.9-1.753,1.306a2.838,2.838,0,0,0-1.269,3.1c.336,2.5.933,4.962,1.418,7.424.187.933.3,1.9.56,2.835l-.3.634a4.068,4.068,0,0,1-1.455.56l-.746.149h-.709a16.131,16.131,0,0,1-2.835-1.567l-.112-.075.112-.149c.709-.3.746-.41.671-1.194-.112-1.082-.447-2.164-.671-3.246-.448-2.276-.858-4.514-1.194-6.827a2.979,2.979,0,0,1,.373-2.089,4.682,4.682,0,0,1,1.045-1.492l.149-.261.485-.821a38.106,38.106,0,0,1,3.1-2.91l.634.075a26.114,26.114,0,0,0,3.358,3.693l.149.149Z" transform="translate(-1701.418 -276.66)" fill="#e3a575"/><path d="M1737.013,263.184l-.3,1.156c-1.306,2.686-2.425,5.447-3.619,8.17a30.737,30.737,0,0,1-4.1,6.566,16.493,16.493,0,0,1-2.015,1.94,1.728,1.728,0,0,0-.56,1.753l.075.448-.261.56a4.344,4.344,0,0,1-2.313.821l-.746-.336a4.889,4.889,0,0,1-.821-1.492,1.033,1.033,0,0,1,.3-1.231,8.855,8.855,0,0,0,1.6-2.126,27.225,27.225,0,0,1,3.246-4.178l.56-.9.149-.336a29.2,29.2,0,0,0,2.76-5.633,38.308,38.308,0,0,0,1.343-4.141,22.439,22.439,0,0,1,1.082-3.022,1.241,1.241,0,0,1,1.679-.746,2.714,2.714,0,0,1,1.977,2.723Z" transform="translate(-1696.647 -244.046)" fill="#e3a675"/><path d="M1743.3,302.2a3.312,3.312,0,0,1,.485-1.791,19.571,19.571,0,0,0,1.753-2.8l.6-.522,1.268-.485.634.187a27.393,27.393,0,0,0,2.052,2.612,14.737,14.737,0,0,0,4.067,3.208l.3.149.075.373a9.99,9.99,0,0,1-1.978,1.791c-.97.672-1.9,1.455-2.8,2.2h-.634l-.933-.858-1.194-1.007a27.983,27.983,0,0,1-2.91-3.395l.112-.6.783-.56.112-.3h-.3l-1.045.672-.224.6-.224.448Z" transform="translate(-1709.836 -266.754)" fill="#aa5f44"/><path d="M1797.7,292.149a8.563,8.563,0,0,0,2.537-.9,3.493,3.493,0,0,0,1.679-1.753l.224.373a35.179,35.179,0,0,1,1.9,7.051,25.7,25.7,0,0,0,.6,2.947,4.875,4.875,0,0,1,.187,1.455,1.507,1.507,0,0,1-.56,1.157,5.784,5.784,0,0,1-2.873,1.194l-.634.075-.485-.373c-.41-1.791-.821-3.544-1.231-5.335-.336-1.492-.6-2.947-.858-4.44l-.485-1.156v-.336Z" transform="translate(-1743.94 -262.303)" fill="#c5a981"/><path d="M1722.233,237a1.421,1.421,0,0,0,1.754,1.045c.858-.037,1.678-.112,2.537-.224l.373.373a11.4,11.4,0,0,1-1.156,3.619c-.224.448-.149.709.373.783l.336.485a22.086,22.086,0,0,1-.9,2.649l.373.634.336.448.075,1.194v1.119a3.4,3.4,0,0,1-.261.522,2.229,2.229,0,0,1-1.753.336l-.373-.373a6.847,6.847,0,0,1-.6-2.276l-.075-.336.224-.6.6.224.075.336.187.149.112-.187c-.112-.56-.224-1.119-.373-1.679l-.448-.187a7.212,7.212,0,0,1-3.283-.783,2.1,2.1,0,0,1-1.194-1.492,15.956,15.956,0,0,1-.373-3.768v-.858l.336-.336a17.194,17.194,0,0,0,1.977.075c.6,0,1.082-.112,1.194-.858Z" transform="translate(-1694.476 -229.389)" fill="#e3a675"/><path d="M1777,251.546a4.248,4.248,0,0,1,1.53,1.9l-.112.634-.634.522a19.939,19.939,0,0,1-5.521,2.313,5.164,5.164,0,0,1-2.612-.037c-.672-.187-1.343-.41-2.052-.6a3.723,3.723,0,0,1-1.716-1.306l-.187-.9c.261-.97.3-1.977.6-2.947l.3-.336c1.082,1.045,2.462,1.119,3.843,1.306a16.16,16.16,0,0,0,2.686.075,16.824,16.824,0,0,0,3.843-.6Z" transform="translate(-1723.879 -238.041)" fill="#a08769"/><path d="M1789.8,294.782v.261a1.9,1.9,0,0,1,.56,1.306c.335,2.089.783,4.178,1.268,6.23.261,1.156.56,2.35.821,3.507l.41.336a7,7,0,0,1-3.171-.149,1.767,1.767,0,0,1-1.343-1.156,22.7,22.7,0,0,1-1.157-3.507c-.671-2.238-1.343-4.44-1.865-6.715l-.224-1.194a5.429,5.429,0,0,0,4.626,1.007h.149Z" transform="translate(-1736.042 -264.936)" fill="#a08769"/><path d="M1767.718,279.953l-.336,1.157-.9.41a4.4,4.4,0,0,1-2.276-1.231l-.224-.187v-.485l.3-.6.261-.3c.933,0,1.194-.373,1.119-1.306a24.811,24.811,0,0,0-.783-4.029,40.531,40.531,0,0,0-4.178-10c-.559-1.007-1.082-1.977-1.716-2.947l-.112-.3a4.763,4.763,0,0,0-.821-1.828,1.944,1.944,0,0,0-1.194-.746l-.261-.336v-.075l.261-.858,1.38.187,1.007,1.306a8.662,8.662,0,0,0,1.567,1.753l.709.97a20.647,20.647,0,0,1,3.171,7.387c.858,3.283,1.679,6.6,2.649,9.849a8.043,8.043,0,0,1,.3,2.2Z" transform="translate(-1718.174 -241.489)" fill="#a08769"/><path d="M1800.675,272.8c.485,0,.9.075,1.306.112a18.637,18.637,0,0,0,2.5-.037h.6l.336.336a15.621,15.621,0,0,0,.522,1.753c.522,2.164,1.418,4.216,2.052,6.3a33.025,33.025,0,0,1,1.231,5.3v.821a1.763,1.763,0,0,1-1.156,1.53l-.97-.41a4.732,4.732,0,0,1-.933-2.425,26.809,26.809,0,0,0-1.679-6.379c-.485-1.306-.97-2.574-1.492-3.88a2.811,2.811,0,0,0-1.567-1.567l-.336-.485-.112-.224-.373-.746Z" transform="translate(-1745.759 -251.833)" fill="#c5a981"/><path d="M1788.758,284.239a6.575,6.575,0,0,1-2.164-.373l-.485-.56c-.224-1.157-.485-2.313-.709-3.507l.3-1.157a13.372,13.372,0,0,1,1.343-1.194h.411a5.353,5.353,0,0,0,3.731-.149h.373a2.6,2.6,0,0,1,1.641,1.716,12.519,12.519,0,0,0,.522,1.679c.41,1.045-.112,1.641-.82,2.2A7.486,7.486,0,0,1,1788.758,284.239Z" transform="translate(-1736.229 -254.655)" fill="#fff"/><path d="M1671.068,348.9a6.876,6.876,0,0,1,1.492.112l.224.149-.261.336h-.709a10.4,10.4,0,0,0-5.782,1.194,11.314,11.314,0,0,0-6.193,8.282,11.541,11.541,0,1,0,14.848-8.991l-.224-.075-.075-.336.336-.075a12.75,12.75,0,0,1,2.8,1.306,11.767,11.767,0,0,1,5.6,10.6,11.931,11.931,0,0,1-7.947,11.043,12.116,12.116,0,1,1-6.3-23.317,10.518,10.518,0,0,1,2.2-.187Z" transform="translate(-1656.966 -299.543)" fill="#e8e7e6"/><path d="M1711.7,270.312l.112.41a7.287,7.287,0,0,0,1.418,2.649l.522,1.082-.149.671-.783,1.679a7.422,7.422,0,0,1-.933,1.455c-.932,1.157-1.828,2.35-2.723,3.507l-.709.41-.821.224-.746.746-.112.224-.075-.075-.187-.373-.187.373v.858c.037,0-.037.41-.037.41l-.485.075a1.933,1.933,0,0,1-.6-1.231l-.41-.41v-.336c1.716-1.156,2.649-2.947,3.731-4.663a20.9,20.9,0,0,0,2.425-5.521c.187-.672.448-1.38.634-2.052l.112-.224Z" transform="translate(-1685.699 -250.203)" fill="#e3a675"/><path d="M1802.041,365.256A11.567,11.567,0,0,0,1784.954,355h-.56v-.3l.261-.187a12.141,12.141,0,1,1-5.932,12.908,18.427,18.427,0,0,1-.224-2.015l.187-.373.261.336a10.773,10.773,0,0,0,2.238,6.6,11.184,11.184,0,0,0,7.984,4.626,11.563,11.563,0,0,0,12.684-9.551,8.019,8.019,0,0,0,.149-1.828Z" transform="translate(-1731.904 -302.096)" fill="#e8e7e6"/><path d="M1775.448,273.86l-.075.56-.074.224-.149.709a78.916,78.916,0,0,0,2.388,9.289,21.594,21.594,0,0,0,1.045,3.1l-.187.224c-.746,0-1.492-.112-2.2-.149l-.112-.224c.746-.783.6-1.716.485-2.686a27.273,27.273,0,0,0-1.007-3.805c-.672-2.537-1.306-5.074-2.015-7.611a25,25,0,0,0-1.828-5.074c-.373-.672-.821-1.343-1.231-1.977l-.187-.336.485.075a17.961,17.961,0,0,0,2.873.709l1.119-.075.373.149.373.261-.6.112c-.821,0-.821,0-.634.821q.56,2.8,1.231,5.6Z" transform="translate(-1726.763 -247.633)" fill="#a08769"/><path d="M1749.34,333.1l-.224.448a4.146,4.146,0,0,0-.709,2.164,26.789,26.789,0,0,0-.149,5.186,16.034,16.034,0,0,0,.149,2.313l.149.56v.485c-.336,1.045-.672,2.127-1.007,3.171l-.336.261-1.119.075-.3-.112.224-.224a4.241,4.241,0,0,0,1.306-.634c.821-.56.672-1.418-.074-1.679l-.336-.485c-.261-1.082-.336-2.164-.6-3.246-.485-2.164-.933-4.328-1.306-6.529l-.112-1.119.261-.336c.56-.037,1.119-.112,1.679-.149.746-.075,1.492-.112,2.2-.149h.3Z" transform="translate(-1710.839 -289.637)" fill="#c8936b"/><path d="M1749.9,345.466l-.6-.821c.149-.6.336-1.157.522-1.716,1.194-3.917,2.35-7.834,3.656-11.714.821-2.462,1.529-4.925,2.388-7.349l.671-1.306.933-.56.224.224-.224.672c-1.007,3.1-2.164,6.193-3.022,9.364-.634,2.238-1.343,4.4-2.015,6.641-.6,2.052-1.268,4.1-1.9,6.118l-.634.485Z" transform="translate(-1713.597 -282.678)" fill="#3f77ac"/><path d="M1788.6,322.967v.149c-.037.522-.112.6-.6.672-3.432.485-6.79,1.156-10.222,1.641q-1.623.224-3.246.56l-.671.485-.485.522a18.01,18.01,0,0,0-1.567,1.38h-.336l-.448-.522-.3-.112v.3a7.157,7.157,0,0,1,.522.56v.261c.037,0-.224.037-.224.037l-.933-.858v-.261c.037,0,1.082-1.231,1.082-1.231h.522l.6.709h.261v-.224l-.672-.746-.074-.485.224-.634a1.684,1.684,0,0,1,1.119-1.268,15.582,15.582,0,0,1,2.91-.634c.746-.112,1.455-.187,2.2-.3l.821.224a3.808,3.808,0,0,0,2.574.97,11.514,11.514,0,0,0,3.582-.448,5.838,5.838,0,0,0,1.865-.933,2.054,2.054,0,0,0,.784-1.194l.112-.187.15.149a2.352,2.352,0,0,1,.41,1.306Z" transform="translate(-1726.637 -282.302)" fill="#3f77ac"/><path d="M1764.18,382.719h-10.968a1.82,1.82,0,0,0-.112-.261h0c.3-.97.074-.821,1.044-.821,1.865,0,3.693,0,5.559-.037h15.146c.522,0,.746.149.858.522.149.448-.112.746-.6.672H1764.18Z" transform="translate(-1715.98 -320.043)" fill="#3f77ac"/><path d="M1794.2,334a16.6,16.6,0,0,1,11.118,4.514,16.811,16.811,0,0,1,2.052,2.238l-.149.746-.522-.112a11.938,11.938,0,0,0-3.917-3.805,16.165,16.165,0,0,0-7.685-2.5,15.873,15.873,0,0,0-10.334,2.723l-1.045.821h-.411c-.522-.709-.634-.56.149-1.082a18.51,18.51,0,0,1,8.021-3.283,20.107,20.107,0,0,1,2.724-.224Z" transform="translate(-1734.654 -290.202)" fill="#3f77ac"/><path d="M1776.1,339.137l.261.224c1.119,1.268,2.164,2.611,3.245,3.917,1.94,2.35,3.955,4.626,5.932,6.939.858,1.007,1.754,2.015,2.649,3.022v.485c-.671.6-.56.709-1.268-.075-3.022-3.32-5.857-6.827-8.767-10.259-.858-1.007-1.828-1.977-2.649-3.022v-.821a3.95,3.95,0,0,0,.411-.336l.187-.112Z" transform="translate(-1730.022 -293.399)" fill="#3f77ac"/><path d="M1690.346,342.952l-.746-.224v-.336c.224-.933.522-1.828.821-2.761,1.529-4.962,3.1-9.924,4.626-14.885l.224-.634.3-.112.187.075.3.634c-.56,1.791-1.082,3.581-1.6,5.372-1.008,3.507-2.015,6.976-3.022,10.446-.186.634-.373,1.306-.56,1.94l-.522.41Z" transform="translate(-1676.17 -283.932)" fill="#3f77ac"/><path d="M1763.352,298.538l-.149.746-.261.149h-.3l-1.119-.3a14.9,14.9,0,0,1-5.074-4.178,25.111,25.111,0,0,1-2.35-3.283l.112-.373h.485a7.8,7.8,0,0,0,1.9,2.089,21.313,21.313,0,0,0,3.581,2.761,8.974,8.974,0,0,0,2.2.97C1762.979,297.269,1763.315,297.642,1763.352,298.538Z" transform="translate(-1716.606 -263.432)" fill="#a08769"/><path d="M1765.508,295.635l-.3.187a11.279,11.279,0,0,1-2.35-1.343,28.691,28.691,0,0,1-3.059-2.574l.075-.373a34.775,34.775,0,0,0,3.805-1.231l.448.187a7.537,7.537,0,0,1,.671,2.015c.224.97.411,1.9.634,2.873v.261Z" transform="translate(-1720.18 -262.805)" fill="#aa5f44"/><path d="M1739.9,379.838a3.884,3.884,0,0,1,.56-2.164l.448-.075.6.6.112.56a2.362,2.362,0,0,0,1.6,3.246,2.338,2.338,0,0,0,2.686-1.268l.522-.3h.709l.261.336a3.7,3.7,0,0,1-2.425,2.5,3.785,3.785,0,0,1-5.036-3.47Z" transform="translate(-1707.704 -317.536)" fill="#e8e7e6"/><path d="M1778.571,250.668l-.187.187a25.49,25.49,0,0,1-2.947.448,15.753,15.753,0,0,1-2.649.037,10.551,10.551,0,0,1-3.843-.783l-.746-.672a15.753,15.753,0,0,1,2.2-.336c1.418-.112,2.835-.112,4.29-.149A6.285,6.285,0,0,1,1778.571,250.668Z" transform="translate(-1725.446 -237.163)" fill="#c5a981"/><path d="M1781.655,275.991l-.224-.522c-.41-1.9-.821-3.768-1.231-5.671l.224-.3h1.269c.671.224,1.38.485,2.089.672-.41.522-.149,1.045-.075,1.567l-.261.634-1.231,1.082a1.564,1.564,0,0,0-.41,1.753l-.112.821Z" transform="translate(-1732.969 -249.765)" fill="#c5a981"/><path d="M1793.267,261.3l1.082.933v.261c-.784.709-1.567,1.455-2.388,2.089h-.373l-.56-.112a6.309,6.309,0,0,0-2.052.224h-.373a7.872,7.872,0,0,1-1.6-.448v-.187l.261-.112a17.988,17.988,0,0,0,5.521-2.5l.56-.149Z" transform="translate(-1737.232 -244.624)" fill="#c5a981"/><path d="M1755.043,277.378l-1.343.672a70.475,70.475,0,0,1,3.171-7.349,19.933,19.933,0,0,1,1.194,2.761l-1.194.784-.821.97a16.918,16.918,0,0,1-1.045,2.2Z" transform="translate(-1716.356 -250.517)" fill="#7da836"/><path d="M1698.969,309.553l-.671.97-.224.075a13.821,13.821,0,0,1-2.5-1.9l-.074-.448c.3-.522.559-1.045.9-1.567a3.568,3.568,0,0,1,2.052-1.38l.56.224v.075l.336.821-.746.3-.746.3c-.522.261-.634.746-.783,1.231l.224.261c.56.336,1.082.671,1.679,1.007Z" transform="translate(-1679.868 -272.209)" fill="#3f77ac"/><path d="M1729.371,275.246a2.605,2.605,0,0,1-.112-1.679l.411.186a11.289,11.289,0,0,0,3.32-.746c.6-.3,1.231-.522,1.828-.9l.3-.112c.187.485.336.933.522,1.418l-.224.187a11.918,11.918,0,0,1-2.35,1.045,19.211,19.211,0,0,1-3.246.634l-.41-.075Z" transform="translate(-1700.98 -251.332)" fill="#7da836"/><path d="M1763.3,269.6l2.015,3.693a39.175,39.175,0,0,1,3.805,10.3l-.821-.448-.186-.41a31.4,31.4,0,0,0-.933-4.216l-.56-1.343-.746-.224-.3-.112a8.167,8.167,0,0,1-.522-1.865l.149-.448v-.485l-.336-.56c-.448-1.119-.933-2.2-1.492-3.283l-.075-.56Z" transform="translate(-1722.374 -249.827)" fill="#c5a981"/><path d="M1713.32,331.319c-2.462-.037-4.887.187-7.349.149-.485,0-.485,0-.373-.485l.112-.336.3-.187a38.39,38.39,0,0,0,5.074-.075c.97,0,1.9-.149,2.873-.187l.373.336c0,.671-.037.746-.746.746h-.261Z" transform="translate(-1686.161 -287.819)" fill="#3f77ac"/><path d="M1805.4,267.623a5.488,5.488,0,0,0-2.2-.037c-.858,0-1.716-.075-2.611-.149l-.187-.149.112-.186a23.864,23.864,0,0,0,2.537-2.2h.447a3.888,3.888,0,0,1,1.642,1.977l.261.709Z" transform="translate(-1745.633 -246.881)" fill="#c5a981"/><path d="M1730.027,368.489h-1.38a7.891,7.891,0,0,0-.746-.448v-.3l.187-.037a13.082,13.082,0,0,0,4.663-.3,21.728,21.728,0,0,0,2.239-.522l.933-.485.783.112-.149.783a3.827,3.827,0,0,1-1.977.783c-1.156.149-2.313.336-3.469.41Z" transform="translate(-1700.181 -310.514)" fill="#aa5f44"/><path d="M1744.246,388.783a4.144,4.144,0,0,0,4.066-2.873l.6-.41h.671l.261.037-.149.224a11.241,11.241,0,0,1-2.388,2.052c-1.455,1.082-2.873,2.164-4.328,3.246a2.331,2.331,0,0,1-1.716.336l-.261-.224.186-.41,1.082-.783,1.343-1.007.671-.187Z" transform="translate(-1708.394 -322.489)" fill="#aa5f44"/><path d="M1684.638,376.306l.3-.709a2.121,2.121,0,0,1,1.268-.6l.858.336.709,1.045a1.316,1.316,0,0,1-1.231,1.753,1.792,1.792,0,0,1-1.94-1.828Z" transform="translate(-1673.035 -315.906)" fill="#e8e7e6"/><path d="M1729.637,277.691a19.361,19.361,0,0,0,3.843-.709,14.29,14.29,0,0,0,2.164-1.007l.187-.075v.224a14,14,0,0,1-.6,1.6l-.821.373c-.933.336-1.865.671-2.835.933h-.485a2.326,2.326,0,0,1-1.492-1.343Z" transform="translate(-1701.247 -253.777)" fill="#9fbe5b"/><path d="M1735.12,270.245a10.056,10.056,0,0,1-4.178,1.6l-1.343.187-.3-.261.112-.821.075-.186,1.119-.261a2.894,2.894,0,0,0,1.679-.149l.9-.634.709-.261.746-.261h.336l.149,1.045Z" transform="translate(-1701.058 -249.576)" fill="#afc76c"/><path d="M1760.531,284.2l.149.224a9.492,9.492,0,0,0,.485,1.679l-.186.336-2.462.783-.858.261-.448-.112-.411-.634.112-.3a25.846,25.846,0,0,0,3.507-2.126l.149-.075Z" transform="translate(-1718.299 -258.98)" fill="#c8936b"/><path d="M1724.379,264.023a4.389,4.389,0,0,1,.373-1.94,1.267,1.267,0,0,1,1.082-.783l.485.6c-.149.522-.336,1.007-.485,1.53a3.215,3.215,0,0,0,.075,2.686v.261l-.15.858-.112.186-.149-.112a5.914,5.914,0,0,1-1.119-3.32Z" transform="translate(-1697.966 -244.624)" fill="#a08769"/><path d="M1808.712,380.518l1.231.112.634-.3.187-.634a1.154,1.154,0,0,0-1.082-.858h-.9l-.187-.3a1.792,1.792,0,0,1,1.791-.858,1.707,1.707,0,0,1,1.53,1.306,1.821,1.821,0,0,1-.56,1.94,1.752,1.752,0,0,1-2.015.261Z" transform="translate(-1750.774 -317.581)" fill="#e8e7e6"/><path d="M1713.558,322.473l-.373-.112a10.637,10.637,0,0,1-2.089-.97v-.261a7.449,7.449,0,0,1,.373-.783l.261-.112.448.261a1.473,1.473,0,0,0,1.791-.261l.784-.634.336.112.411.933-.112.3-.97.97-.783.485Z" transform="translate(-1689.645 -281.174)" fill="#3f77ac"/><path d="M1768.9,352.789l.336-.97a16.455,16.455,0,0,1,1.754-2.164,10.234,10.234,0,0,1,1.38-1.455h.485c.41.6.448.6-.112,1.045a10.916,10.916,0,0,0-2.574,3.395l-.411.709-.41.112-.448-.634Z" transform="translate(-1725.885 -299.104)" fill="#3f77ac"/><path d="M1711.17,303.86l-.224.9-.186.709-.187.336a5.88,5.88,0,0,1-2.127.821l-.746-.522.112-.149.672-.41.41-1.082a1.111,1.111,0,0,1,.9-.97l.9-.187c.448,0,.522.075.522.56Z" transform="translate(-1687.517 -270.955)" fill="#e3a575"/><path d="M1764.387,235.614l-.187-.672c.224-1.119.485-2.238.709-3.358a70.124,70.124,0,0,1,2.947-9.513l.149-.41.187-.261.3.373-.075.3a101.178,101.178,0,0,0-3.358,10.334,23.857,23.857,0,0,0-.56,2.835Z" transform="translate(-1722.938 -219.609)" fill="#fcfcfb"/><path d="M1745.736,330.48l-.336-.261.672-.56c.783-.112,1.567-.149,2.35-.261,1.343-.187,2.723-.187,4.067-.3l.261.3c-.186.56-.186.56-.783.6-2.127.149-4.216.336-6.268.485Z" transform="translate(-1711.152 -287.13)" fill="#3f77ac"/><path d="M1757.3,282.017l.074-.261c.336-.672.672-1.38.97-2.089l.783-.858,1.231-.709.6,1.343-.075.336A23.916,23.916,0,0,1,1757.3,282.017Z" transform="translate(-1718.613 -255.156)" fill="#9fbe5b"/><path d="M1704.719,317a1.662,1.662,0,0,1,1.679,1.231,1.026,1.026,0,0,1-.9,1.418,1.723,1.723,0,0,1-1.9-1.53,1.077,1.077,0,0,1,1.119-1.119Z" transform="translate(-1684.946 -279.544)" fill="#e8e7e6"/><path d="M1791.637,260.36l-.373.149a17.6,17.6,0,0,1-5.783,2.612l-.149.187-.746-.261-.187-.149.224-.149a22.866,22.866,0,0,0,4.328-1.753,4.779,4.779,0,0,0,1.641-1.194h.3Z" transform="translate(-1735.602 -243.683)" fill="#a08769"/><path d="M1757.272,368.237c.186.485.373.933.559,1.418a19.521,19.521,0,0,0,.9,2.015l.373.261.336.56-.373.41c-.821,0-.821,0-1.119-.709a3.666,3.666,0,0,0-1.157-1.567l-.186-.709c.224-.56.373-1.119.56-1.716h.075Z" transform="translate(-1718.174 -311.643)" fill="#c8946a"/><path d="M1733.7,282.043c.97-.187,1.828-.6,2.761-.858a14.257,14.257,0,0,1,1.343-.485,17.294,17.294,0,0,1-.746,1.94c-.709.112-1.38.41-2.089.6l-.336.187-.485-.9-.448-.485Z" transform="translate(-1703.817 -256.786)" fill="#7da836"/><path d="M1746.2,266.989a7.576,7.576,0,0,1-.373-3.283l.112-.746.634-.485.933-.075.149.261c-.3.672-.6,1.343-.858,2.015a6.1,6.1,0,0,0-.336,1.679l-.261.672Z" transform="translate(-1711.396 -245.313)" fill="#9e8869"/><path d="M1748.755,382.73a1.8,1.8,0,0,1-2.276,1.007,1.821,1.821,0,0,1-1.007-2.537l1.045,1.082a1.006,1.006,0,0,0,1.268.522h.97Z" transform="translate(-1711.074 -319.793)" fill="#e8e7e6"/><path d="M1779.1,368.063a10.285,10.285,0,0,1,.709-2.537,12.156,12.156,0,0,1,3.059-4.44l.261-.187.261.149v.261l-.56.485a11.241,11.241,0,0,0-3.208,5.671l-.187.6-.187.3-.149-.336Z" transform="translate(-1732.28 -307.066)" fill="#e8e7e6"/><path d="M1755.535,325.442a7.689,7.689,0,0,1-2.537-.634v-.336c-.037,0,.858-.672.858-.672l.41.075.933.858h.6c0,.037.97-.709.97-.709l.261-.112-.075.261-.336.634A.877.877,0,0,1,1755.535,325.442Z" transform="translate(-1715.915 -283.807)" fill="#aa5e43"/><path d="M1733.306,365.5a2.607,2.607,0,0,1-1.679.075,5.965,5.965,0,0,1-2.126-1.306l.075-.373,1.082.075a8.6,8.6,0,0,0,2.276,1.306l.373.187Z" transform="translate(-1701.184 -308.947)" fill="#aa5e43"/><path d="M1747.3,373.149l-.411,1.156-.336.187-.709.186-.41-.075-.634-.6.075-.3.858-.56.411-.112.97-.037Z" transform="translate(-1710.776 -314.652)" fill="#e8e7e6"/><path d="M1756.965,377.176h-1.418l-.448-1.231.373-1.045a3.724,3.724,0,0,1,1.53,2.313Z" transform="translate(-1717.233 -315.843)" fill="#e8e7e6"/><path d="M1731.8,285.724l.149-.224.821.485c.261.6.56,1.157.821,1.716l.709.672v.373a2.205,2.205,0,0,1-.3.149l-.261-.224a9.02,9.02,0,0,1-1.828-2.425l-.112-.336v-.149Z" transform="translate(-1702.626 -259.795)" fill="#9e8868"/><path d="M1759.4,251.722l.373-.41,1.306-.112.187.187c-.149.634-.261,1.306-.411,1.94l-.112.187-.149-.112-1.082-1.268-.112-.373Z" transform="translate(-1719.929 -238.292)" fill="#9e8869"/><path d="M1790.1,271.4a5.669,5.669,0,0,1,2.425-.6h.336l.41.373-.261.41a2.933,2.933,0,0,1-2.164.261Z" transform="translate(-1739.176 -250.58)" fill="#fdfdfd"/><path d="M1741.528,266.667c-.6.149-1.194.41-1.828.522a3.886,3.886,0,0,0,.075-1.6l.485-.112.634-.373c.224.522.411,1.045.634,1.53Z" transform="translate(-1707.578 -247.006)" fill="#7da836"/><path d="M1744.79,378.386l-.634-.746-1.455-1.455v-.41l.447-.075c.6.56,1.194,1.119,1.754,1.679.224.224.187.41-.112,1.007Z" transform="translate(-1709.46 -316.345)" fill="#3f77ac"/><path d="M1768.7,332.294l.41-1.156.224-.037.932,1.082v.3l-.634.709-.224.037-.671-.746Z" transform="translate(-1725.76 -288.383)" fill="#3f77ac"/><path d="M1730.167,268.688l-1.007.3-.149.187a7.107,7.107,0,0,1-.41-1.53l.336-1.268.074-.075.112.187.261.97A1.835,1.835,0,0,0,1730.167,268.688Z" transform="translate(-1700.62 -247.758)" fill="#83ac3f"/><path d="M1738.714,287.2c-.224.522-.485,1.045-.746,1.567h-.746c0,.037-.522-.9-.522-.9l.41-.149,1.194-.448.373-.075Z" transform="translate(-1705.698 -260.861)" fill="#7da836"/><path d="M1740.9,394.345l.672-1.045.149.037.783.6v.261l-.9.634-.411.149Z" transform="translate(-1708.331 -327.379)" fill="#e2a675"/><path d="M1740.769,263.47l-.149.261-.932.187-.187-1.119.336-.3c.709,0,.709,0,.858.709v.3Z" transform="translate(-1707.453 -245.376)" fill="#9fbd59"/><path d="M1738.4,286.322c-.448.187-.9.41-1.38.56l-.6.112-.224-.373.3-.261,1.791-.56h.336l-.224.56Z" transform="translate(-1705.384 -259.984)" fill="#afc66a"/><path d="M1747.9,327.958l1.156-.858h.261c.485.224,1.007.41,1.492.672-.97.112-1.9.224-2.873.3v-.112Z" transform="translate(-1712.719 -285.876)" fill="#c69369"/><path d="M1729.856,368.046l-.97-.075-.186-.6.932-.075.933.485.149.186-.186.037Z" transform="translate(-1700.682 -311.078)" fill="#e2a675"/><path d="M1750.737,293.779c.261-.56.522-1.082.784-1.679l.634,1.082-.112.149-1.268.485h-.075Z" transform="translate(-1714.475 -263.933)" fill="#c6926a"/><path d="M1793.6,274.875l.373-.075.448.3.074.3.075.41-.485.037-.112-.075Z" transform="translate(-1741.37 -253.087)" fill="#f6f6f9"/><path d="M1743.848,264.33l-.448-1.38.149-.149h.373l.187.224q-.112.616-.224,1.343Z" transform="translate(-1709.898 -245.564)" fill="#c49068"/><path d="M1778.07,313l.075.3-.187.56h-.783l-.075-.3.187-.187.261-.037Z" transform="translate(-1731.026 -277.036)" fill="#c0a47f"/><path d="M1796.911,275.545l-.187-.187-.224-.634.074-.224.336.037.3.746Z" transform="translate(-1743.188 -252.899)" fill="#f4f4f4"/><path d="M1785.323,289.977a1.741,1.741,0,0,1-.448-1.977C1785.025,288.672,1785.174,289.306,1785.323,289.977Z" transform="translate(-1735.817 -261.363)" fill="#e5e1df"/><path d="M1727.4,366.219l.149-1.007.149-.112.411.336-.149.149Z" transform="translate(-1699.867 -309.699)" fill="#db9f70"/><path d="M1743.6,392.2l1.156.56.149.149-.224.187Z" transform="translate(-1710.024 -326.689)" fill="#a45b41"/><path d="M1791.537,274.7c.41.149.485.261.783,1.007l-.447-.112-.373-.858Z" transform="translate(-1740.054 -253.025)" fill="#f0efee"/><path d="M1717.9,304.933l.037-.821.149-.112.186.186Z" transform="translate(-1693.912 -271.394)" fill="#3e75a9"/><path d="M1798.748,274.957l-.448-.97.074-.187.112.075.41,1.007Z" transform="translate(-1744.317 -252.46)" fill="#d9d6d6"/><path d="M1800.073,274.456l-.373-1.156Z" transform="translate(-1745.194 -252.147)" fill="#cfc8c8"/><path d="M1748.859,378.549l-.261.373-.3-.336.448-.187Z" transform="translate(-1712.97 -318.037)" fill="#d6d4d6"/><path d="M1790.9,275.4c-.373,0-.448-.261-.41-.9h.037Z" transform="translate(-1739.412 -252.899)" fill="#d6d1d1"/><path d="M1799.384,232.415a3.39,3.39,0,0,1-2.126,3.32,1.664,1.664,0,0,1-2.388-1.231,3.193,3.193,0,0,1,.56-2.985,3.237,3.237,0,0,1,2.425-1.119,1.512,1.512,0,0,1,1.53,1.53Z" transform="translate(-1742.081 -225.252)" fill="#fff"/><path d="M1824.074,229.035v.373a1.258,1.258,0,0,1-1.418,1.343,4.169,4.169,0,0,1-1.641-.336,2.677,2.677,0,0,1-1.567-3.1l.3-1.007a1.726,1.726,0,0,1,2.425-.783,3.311,3.311,0,0,1,1.754,2.388l.149,1.157Z" transform="translate(-1757.556 -222.059)" fill="#fff"/><path d="M1809.952,228.323c.261-.783.485-1.492.709-2.2l.41-.373.933-.149-.149.41c-.373.9-.746,1.828-1.156,2.723l-.187.858v1.119l-.149.261-.821.224-.187-.149v-1.119l-.261-.9c-.41-.672-.783-1.38-1.194-2.052l.112-.336.821-.3.336.149c.224.6.485,1.157.783,1.791Z" transform="translate(-1750.335 -222.242)" fill="#fff"/><path d="M1787.116,230.194l-.112.373a11.4,11.4,0,0,1-.709,1.53,4.468,4.468,0,0,0-.6,2.835l-.261.224c-.932-.187-1.007-.187-.932-1.157a5.771,5.771,0,0,0-.6-2.35c-.336-.858-.634-1.716-1.007-2.649l1.231.672.112.261c.261.746.522,1.492.783,2.35.261-.634.485-1.231.709-1.791l.485-.336h.9Z" transform="translate(-1734.662 -224.374)" fill="#fff"/><path d="M1725.011,251.719h-.149l-.261-.149.261-.187.634-.112a4.165,4.165,0,0,0,1.567-.672h.373l-.187.3a5.033,5.033,0,0,1-2.276.783Z" transform="translate(-1698.112 -237.916)" fill="#3d1c18"/><path d="M1724,245.657l.448-1.082.261-.075v.261l-.3.672.3.6h.261a1.622,1.622,0,0,0,.224.261l-.261.149a.831.831,0,0,1-.933-.783Z" transform="translate(-1697.735 -234.091)" fill="#41201a"/><path d="M1733.11,264.934l-.3-.037-.112-.261.224-.075.709-.187.3-.075-.037.336Z" transform="translate(-1703.19 -246.505)" fill="#3e1e1a"/><path d="M1731.222,242.5l-.261.336-.261-.261.3-.373Z" transform="translate(-1701.936 -232.649)" fill="#49261e"/><path d="M1721.1,242.1l.187-.3.187.3-.187.3Z" transform="translate(-1695.918 -232.399)" fill="#45231d"/><path d="M1789.553,287.523a5.626,5.626,0,0,1-1.418-.261L1787.8,287l.112-.3.261.112.336.224a4.817,4.817,0,0,0,2.985-.3,6.955,6.955,0,0,0,2.537-1.716l.224-.224h.3v.3a7.555,7.555,0,0,1-3.88,2.313l-1.082.149Z" transform="translate(-1737.734 -259.357)" fill="#371a19"/><path d="M1800.243,234.638l-.3,1.306-.671.6-1.007-.373a2.534,2.534,0,0,1,.112-2.2l.3-.336c.709-.522,1.343-.3,1.492.56v.485Z" transform="translate(-1744.17 -227.102)" fill="#4078ac"/><path d="M1824.964,230.477v.373c-.037,0-.6.783-.6.783l-1.045-.3a2.045,2.045,0,0,1-.522-1.642l.186-.821,1.045-.373.672.709A2.758,2.758,0,0,1,1824.964,230.477Z" transform="translate(-1759.677 -224.06)" fill="#4078ac"/></g><path d="M1210.12,106.96a6.26,6.26,0,1,1-6.26-6.26A6.254,6.254,0,0,1,1210.12,106.96Z" transform="translate(-1006.02 -89.824)" fill="#2d2d2e"/><g transform="translate(189.401 10.876)" clip-path="url(#c)"><path d="M1207.487,116.774h0l-.087-.952,5.395-6.606.952-.115.115.952-5.423,6.635Z" transform="translate(-1204.573 -106.677)" fill="#2d2d2e"/></g><path d="M1208.92,106.46a6.26,6.26,0,1,1-6.26-6.26A6.254,6.254,0,0,1,1208.92,106.46Z" transform="translate(-1006.999 -89.469)" fill="#737575"/><g transform="translate(191.234 10.731)" clip-path="url(#d)"><path d="M1206.315,116.274h0l-.115-.952,5.423-6.606.952-.115.115.952-5.423,6.635Z" transform="translate(-1203.373 -106.177)" fill="#2d2d2e"/></g></g></g></g></svg>