<svg xmlns="http://www.w3.org/2000/svg" xmlns:xlink="http://www.w3.org/1999/xlink" width="410" height="400.388" viewBox="0 0 410 400.388"><defs><clipPath id="a"><path d="M518.233,63h395.7c3.051,0,5.533,8.832,5.533,19.685V441.164c0,10.853-2.482,19.685-5.533,19.685h-395.7c-3.051,0-5.533-8.832-5.533-19.685V82.685C512.7,71.832,515.182,63,518.233,63Z" transform="translate(-512.7 -63)" fill="none"/></clipPath><clipPath id="b"><path d="M964.94,100.2l2.435,335.283A506.013,506.013,0,0,1,907.4,456.249c-98.483,27.311-197.808,21.018-296.8,14.725,4.058-85.457,5.231-171.92,3.487-257.881-.511-24.794,3.307-92.253,3.307-92.253s33.729.378,44.612,1.007a1208.75,1208.75,0,0,0,194.381-5.034c9.169-1.007,108.614-12.334,108.584-16.487Z" transform="translate(-610.6 -100.2)" fill="none"/></clipPath><clipPath id="c"><path d="M1210.12,106.96a6.26,6.26,0,1,1-6.26-6.26A6.254,6.254,0,0,1,1210.12,106.96Z" transform="translate(-1197.6 -100.7)" fill="none"/></clipPath><clipPath id="d"><path d="M1208.92,106.46a6.26,6.26,0,1,1-6.26-6.26A6.254,6.254,0,0,1,1208.92,106.46Z" transform="translate(-1196.4 -100.2)" fill="none"/></clipPath></defs><g transform="translate(1328.594 -4240.571)"><g transform="translate(-1328.594 4240.571)"><g transform="translate(0 0)"><path d="M529.433,71.8h395.7c3.051,0,5.533,8.832,5.533,19.685V449.964c0,10.853-2.482,19.685-5.533,19.685h-395.7c-3.05,0-5.533-8.832-5.533-19.685V91.485C523.9,80.632,526.382,71.8,529.433,71.8Z" transform="translate(-520.669 -69.261)" fill="#4a1d1d"/><path d="M518.233,63h395.7c3.051,0,5.533,8.832,5.533,19.685V441.164c0,10.853-2.482,19.685-5.533,19.685h-395.7c-3.051,0-5.533-8.832-5.533-19.685V82.685C512.7,71.832,515.182,63,518.233,63Z" transform="translate(-512.7 -63)" fill="#4a1d1d"/><g clip-path="url(#a)"><path d="M284.079,460.527v8.406c-1.166,3.937-2.6,4.043-4.187,4.043-21.055.213-42.109,0-63.164-3.618-22.969-4.043-45.908-3.937-68.817,5.533a161.113,161.113,0,0,1-33.137,9.9c-11.514,2.235-23.059,3.3-34.543,5.852-17.017,3.724-34-.426-50.962,2.66-8.4,1.49-16.658,1.383-24.943-2.767-1.794-.851-3.32-2.66-4.4-7.555V426.8c3.709-5.533,7.626-3.3,11.365-2.128,10.378,3.086,20.666,8.087,30.984,12.875,12.681,5.959,25.331,2.979,37.982-1.277,6.131-2.022,12.292-.532,18.423-1.064a164.382,164.382,0,0,1,51.411,3.618c12.5,2.766,24.674,0,36.965-5.959,4.486-2.128,9.122-2.128,13.638-2.554,6.7-.639,13.309-5.64,20.038-3.405.568,0,.419-2.022.419-.106s.15,0-.419,0c-14.206,2.447-28.382,4.469-42.528,10.428-8.853,3.724-17.795,4.895-26.857,1.6-8.045-2.873-16.24-2.234-24.374-3.4-7.148-1.064-14.3-.213-21.444-.213-13.129,0-26.229.745-39.358,5-14.864,4.788-29.578-5.639-44.293-11.6-5.652-2.341-11.3-5-17.047-4.682-1.675,0-3.469,1.277-4.935-2.766V379.021c1.555-6.278,3.768-7.98,6.041-9.47,20.247-12.981,40.584-13.833,60.981-4.895,11.484,5.107,23.029,6.916,34.6,8.725,10.468,1.7,20.905,5.32,31.433,6.916,29.877,4.575,59.695,3.831,89.542-.532,10.707-1.6,21.414-5.427,32.15-4.895,7.746.319,15.372-4.575,23.118-2.873,2.273.532,4.636,0,6.251,6.81v14.046c-3.051,8.406-6.909,2.766-10.318,6.6-3.469,3.937-7.208,5.214-10.408,11.7a18.168,18.168,0,0,0-2.512,10.321c.06,6.278,1.525,8.938,2.991,10.64,5.264,6.065,10.258,14.152,15.642,19.047,1.794,1.7,3.559,3.4,4.636,9.044Z" transform="translate(-153.265 -47.682)" fill="#c4781c"/><path d="M284.149,112.48v42.136c-3.649,6.384-7.208-.319-10.707-1.7-9.062-3.511-17.615-14.152-26.318-22.558-11.454-12.769-23.3-17.77-35.35-17.876H197.179c16.628-1.17,33.2-.851,49.227,16.918,11.574,12.556,23.268,23.409,35.41,27.985.867.319,1.675.851,2.333,2.767v11.279c-1.7,5-3.858,2.873-5.772,3.192-10.737,2.022-20.815,14.258-31.253,20.749-5.892,3.618-11.813,5.852-17.825,5.533,10.946.638,21.444-7.342,31.911-16.493,6.041-5.32,12.2-8.725,18.453-10,1.525-.319,3.17-1.383,4.486,2.66v36.5c-1.914,5.746-4.277,7.448-6.759,6.916-10.946-2.022-21.832,2.341-32.749,3.4-7.477.745-15.013,2.235-22.49,2.022-5.952-.213-11.873-1.171-17.825,0-12.023,2.447-23.926-4.256-35.889-6.491A414.411,414.411,0,0,1,125.7,208.99c-12.083-3.511-24.165-.426-36.218-2.979-17.047-3.511-34.124-1.49-51.141-4.256-11.634-1.915-23.268-3.511-34.932-3.724-1.286,0-2.482-.958-3.409-4.256V120.78c1.615-5.427,3.709-4.256,5.652-4.15,15.283.745,30.535-2.341,45.758-4.788,19.111-2.979,38.192-6.7,57.3-6.491,2.722,0,5.413,0,8.1,1.49,5.084-.213,10.079,3.4,15.163,3.831,20.068,3.4,39.9-4.469,59.665-14.471,12.651-6.384,25.272-5.959,37.982-2.554,16.6,4.469,33.137,10.96,49.766,12.662,1.675.213,3.619.319,4.755,6.065Z" transform="translate(-153.335 -64.818)" fill="#c4781c"/><path d="M0,268.942V195.948c1.166-4.044,2.632-3.937,4.187-4.044,17.944-.745,35.829,4.469,53.773,5.214,11.3.532,22.61.851,33.915,1.277,13.219.426,26.5.106,39.6,4.043,15.163,4.469,30.446,4.469,45.489,11.173,12.083,5.32,24.075,4.043,36.128,4.256,10.468.213,20.935,1.277,31.4-.426,11.9-1.915,23.776-4.895,35.679-5,1.466,0,2.841-.745,3.948,3.192v64.588c-1.107,3.618-2.3,5-3.978,5.32-11.993,2.022-23.926,6.278-35.949,8.087-14.954,2.341-29.7-2.341-44.5-5.959-5.264-1.277-10.557-2.022-15.851-3.4-12.172-3.086-24.374-4.15-36.547-7.874-5.353-1.6-10.737-.213-16.09-.638-10.737-3.937-21.473-3.618-32.21-2.022-30.625,4.575-61.28.745-91.905,2.128-2.6.107-5.2.319-7.088-7.023Z" transform="translate(-153.335 -58.373)" fill="#c4781c"/><path d="M284.219,283.838v47.776c-1.346,4.575-3.11,4.15-4.815,4.15-3.858,0-7.716.106-11.574,0-12.621-.426-25.212,2.128-37.743,4.895-15.283,3.4-30.505,10-45.848,7.129-14.236-2.66-28.5-4.682-42.708-8.512-5.024-1.383-10.079,0-15.1-.958-6.281-4.575-12.711-2.979-19.081-4.469-8.912-2.128-17.914-6.278-26.857-3.618-15.821,4.576-31.732,4.576-47.523,10.215-8.643,3.086-17.346,5.214-26.079,3.724-2.452-.426-4.845-1.49-6.789-7.023V272.559c1.017-3.511,2.273-2.979,3.589-2.979,23.447.213,46.925,0,70.372.213,10.856,0,21.713-.426,32.569-2.554,8.793-1.7,17.615.213,26.408,2.554,18.9.958,37.743,6.384,56.585,10.534,15.223,3.4,30.446,8.832,45.728,8.938,13.04,0,26.019-2.766,39-7.342,3.29-1.17,6.7-2.979,9.9,1.915Z" transform="translate(-153.405 -53.585)" fill="#c4781c"/><path d="M284.149,3.186V62.134c-1.585,5.746-3.708,4.788-5.623,3.831-12.621-5.959-25.182-3.937-37.8,0-5.832,1.809-11.724,1.064-17.585,2.447-13.369,3.086-26.707,8.193-40.2,6.7-6.61-.745-13.1-2.979-19.619-5.852-10.976-4.788-21.982-2.341-32.988-2.979-21.952.319-43.874,2.128-65.8,4.469-15.582,1.7-31.074,9.789-46.715,9.576-4.217,0-8.4-1.17-12.621-1.277-2.243,0-4.008-2.128-5.2-8.512V11.592c1.376-3.4,2.931-2.554,4.516-2.128C23.3,14.039,42.05,20.211,60.921,20.849c13.967.426,27.9-3.511,41.81-7.555,6.1-1.809,12.2-3.4,18.333-3.724,21.683-1.49,43.276-10.108,64.959-7.661,24.135,2.66,48.3.532,72.435,1.383A13.2,13.2,0,0,0,266.982.739c5.712.851,11.514-3.3,17.167,2.554Z" transform="translate(-153.335 -70.654)" fill="#c38a41"/><path d="M284.149,66.846v36.5c-1.226,5.746-3.14,6.172-4.965,5.639-13.967-3.831-27.933-6.81-41.87-11.6-16.329-5.639-32.689-6.6-49.048,2.128-18.6,10-37.294,17.344-56.226,12.237-.718-.213-1.406.638-2.123,1.17-3.649-1.6-7.267-4.256-11.006-4.043-9.421-1.915-18.842-1.809-28.262-1.17a295.882,295.882,0,0,0-34.6,4.682c-17.047,3.3-34.064,5.852-51.112,7.874C3.26,120.474,1.465,121.538,0,117.5V81c2.273-8.406,5.264-5.639,8.015-5.107,14.027,2.767,27.933-1.383,41.9-5.32C59.874,67.7,69.834,64.186,79.852,64.4c15.881.426,31.7-4.895,47.582-2.979a6.464,6.464,0,0,0,2.991-.958c6.131,2.022,12.262,1.17,18.393.745,9.032-.532,17.855,3.937,26.767,7.661,7.357,2.979,14.894,2.554,22.251.426,15.97-4.682,31.971-5.959,47.941-9.47,11.1-2.447,22.221-3.511,33.287,1.49,1.824.851,3.738.745,5.144,5.639Z" transform="translate(-153.335 -66.96)" fill="#c4781c"/><path d="M0,367.05V338.959c1.077-2.979,2.363-3.086,3.649-2.341,9.839,5.852,19.559-1.383,29.339-2.554a199.02,199.02,0,0,0,28.083-5.107c22.341-6.172,44.562,0,66.813,4.469,24.853,3.192,49.616,13.514,74.529,10.853,11.335-1.277,22.61-6.81,33.945-8.832,14.684-2.66,29.369-7.023,44.113-4.788,1.286.213,2.6-.213,3.679,2.766v33.73c-1.615,6.916-3.978,6.6-6.251,6.81-26.677,2.022-53.265,8.832-79.942,11.6-20.1,2.022-40.2,3.405-60.2-.958-23.806-5.107-47.612-9.9-71.359-17.982-8.942-3.086-17.885-6.491-26.917-6.6-11.335-.106-22.46,6.491-33.616,11.7C3.679,372.8,1.585,373.86,0,367.156Z" transform="translate(-153.335 -49.757)" fill="#c4781c"/><path d="M0,365.43c8.344-3.724,16.658-7.661,25.032-11.279,14.595-6.278,29.1.745,43.6,4.363,40.285,10.109,80.421,29.474,120.975,23.3,19.26-2.873,38.491-8.619,57.721-12.13,12.262-2.234,24.554-2.873,36.846-4.15v14.046c-46.027,3.724-92.025,12.875-138.052,8.087-29.847-3.086-59.695-6.916-89.363-18.727-17.645-7.129-35.081-.745-52.457,9.151a34.481,34.481,0,0,1-4.247,1.6V365.643Z" transform="translate(-153.335 -48.137)" fill="#4b1e1e"/><path d="M430.846,103.9c21.085,3.618,41.87-3.937,62.626-14.9,15.193-8.087,30.505-5.214,45.7,0,15.342,5.32,30.715,8.619,46.057,12.769v11.279c-15.013.106-30-3.192-44.891-9.151-19.589-7.874-39.059-6.491-58.5,4.788a71.73,71.73,0,0,1-44.831,9.683c-1.555-.213-3.17.745-4.606-2.235-.778-1.915-1.765-3.3-2.333-5.959-.568-2.767-1.077-6.171.748-6.171Z" transform="translate(-454.413 -65.282)" fill="#4b1e1e"/><path d="M284.149,215.891c-11.006-1.49-21.982,1.6-32.958,3.831a162.474,162.474,0,0,1-58.678,1.17A427.149,427.149,0,0,1,132.34,206c-12.621-4.15-25.391-2.767-38.1-3.3-17.585-.638-35.141,0-52.727-1.064-12.142-.745-24.255-3.724-36.367-5.64A27.869,27.869,0,0,0,0,196.206V187.8c14.864,0,29.7.319,44.562,2.447,24.135,3.4,48.3,3.086,72.406,6.81,22.909,3.511,45.878,8.3,68.7,18.089a7.443,7.443,0,0,0,2.572.638c31.283-.426,62.566-.851,93.819-7.448a8.858,8.858,0,0,0,2.123-.851v8.406Z" transform="translate(-153.335 -58.631)" fill="#4b1e1e"/><path d="M557.651,333.24c-18.184-2.447-36.218,2.66-54.252,9.47-22.341,8.512-44.652,10.428-67.052,3.4-11.634-3.618-23.3-6.6-34.962-9.9-3.29-4.363-6.939.851-11.185-4.043,3.708-5,6.639-3.3,9.57-2.235,14.834.638,29.7,1.49,44.472,5.639,17.855,4.895,35.62,1.809,53.444-2.66,19.918-5,39.926-5.32,59.934-5.32v5.639Z" transform="translate(-426.836 -49.677)" fill="#4b1e1e"/><path d="M0,417.4c15.522-.958,30.685,10.108,46.027,15,10.318,3.3,20.606,1.915,30.834-1.277,15.582-5,31.133-2.447,46.715-1.915,11.275.319,22.55,3.405,33.855,4.363,17.765,1.6,35.291-10.108,53-11.917,6.819-.638,13.638-2.128,21.264-3.3-2.333,7.448-4.636,6.81-6.7,7.023-18.3,1.809-36.517,6.916-54.7,13.194-11.275,3.937-22.58-1.49-33.855-2.447-23.447-2.022-46.865-4.575-70.282,2.979-12.352,4.043-24.524-3.405-36.7-8.619C19.679,426.341,9.9,421.872,0,423.149V417.4Z" transform="translate(-153.335 -43.928)" fill="#4b1e1e"/><path d="M591.886,283.825c-11.455,5.533-23,6.491-34.513,8.087-22.431,3.086-44.741-4.895-67.082-9.789-16.509-3.724-33.018-6.7-49.526-10.109-.508-1.7-2.153.639-1.615-4.788,11.036-1.7,21.982,2.022,32.958,4.043,22.969,4.15,45.878,12.556,68.906,14.365,13.727,1.064,27.4-4.043,41.063-8.619,3.26-1.064,6.55-1.064,9.84-1.49v8.406Z" transform="translate(-461.072 -53.572)" fill="#4b1e1e"/><path d="M436.3,62.26l.06-2.554c12.023-2.979,24.105-3.511,35.949,2.66,14.595,7.555,29.1,5.32,43.6,1.277,13.548-3.831,27.126-4.15,40.674-7.874,11.185-3.192,22.281,1.064,33.377,3.086v8.406c-16.778-9.789-33.586-3.724-50.394-1.809-18.243,2.128-36.487,11.173-54.73,6.7-13.787-3.4-27.515-9.364-41.362-8.3-2.393.213-4.845,2.022-7.178-1.49Z" transform="translate(-459.149 -67.162)" fill="#4b1e1e"/><path d="M891.96,432.868v19.685c-1.884,2.873-3.589,0-5.294-1.809-5.294-5.533-10.348-12.982-15.552-19.26-1.645-2.022-3.768-4.043-3.948-11.279-.209-7.661,1.944-9.683,3.559-12.13,5.533-8.513,11.335-13.194,17.5-12.875,1.465,0,2.721.319,3.738,3.937v14.045C889.478,419.781,890.016,426.271,891.96,432.868Z" transform="translate(-761.145 -45.348)" fill="#c4781c"/><path d="M888.348,399.413c-7.028-.532-13.937,1.17-20.427,11.279-1.376,2.128-3.32,3.3-3.409,9.257-.06,6.384,1.974,7.342,3.35,8.938,6.819,7.874,13.309,18.94,20.457,23.835v5.639c-7.746-5.214-14.894-16.174-22.191-25.537-1.765-2.235-4.1-5-4.127-12.662s2.273-10.109,3.978-13.3c6.939-12.769,14.535-15.961,22.341-15.961v8.406Z" transform="translate(-757.533 -45.622)" fill="#4b1e1e"/><path d="M800.732,172.239c-9.122-2.022-17.795,6.065-26.5,13.407-10.677,8.938-21.5,14.365-32.569,12.237-1.465-.319-3.051.851-4.666-3.086.658-1.171.987-2.447,1.286-2.341,14.655,6.278,28.561-6.6,42.5-18.2,6.55-5.427,13.249-6.278,19.918-7.661v5.639Z" transform="translate(-669.918 -59.989)" fill="#834f27"/><path d="M861.719,158.018c-13.04-2.873-25.391-15.322-37.683-28.836-.09-2.341,0-4.043.9-2.341,8.524,6.491,16.688,17.45,25.421,21.175,3.768,1.6,7.567,2.873,11.365,4.363Z" transform="translate(-730.904 -62.58)" fill="#89552b"/><path d="M937.791,431.785h-.837c-1.884-2.979-4.666-4.895-4.4-12.769.329-9.363,3.29-5.959,5.234-6.916v5.64a12.3,12.3,0,0,0,0,8.406Z" transform="translate(-806.977 -44.264)" fill="#854f2d"/><path d="M943.752,425.817c-1.136-1.383-2.9-1.383-2.692-6.6.12-2.979,1.735-1.7,2.692-1.809Z" transform="translate(-812.937 -43.936)" fill="#c4781c"/><path d="M794.5,417.5h11.754C802.366,421.65,798.448,421.331,794.5,417.5Z" transform="translate(-710.221 -43.919)" fill="#4b1e1e"/><path d="M151.234,159.294c-9.211-4.575-18.513-3.086-27.784-3.618-25.87-1.277-51.71-3.192-77.52-10-8.045-2.128-15.97,2.66-23.956,3.831-1.376.213-2.811,1.915-4.875-1.49,5.323-5.427,10.228-5.533,15.013-7.129,9.869-3.3,19.709-.319,29.518,3.4a18.6,18.6,0,0,0,5.114,1.49c26.288,2.022,52.577,3.618,78.866,5.852,16.928,1.49,33.466,12.556,49.826,26.069,6.639,5.533,13.309,10.641,20.128,13.3.957.319,1.974.638,2.811,5.533-5.234-.426-9.9-4.256-14.595-7.448-13.817-9.47-27.4-22.983-41.541-27.346-2.841-.851-5.682-1.277-8.553-1.915-.9,2.022-1.735,2.447-2.452-.745Z" transform="translate(-165.321 -61.727)" fill="#4b1e1e"/><path d="M637.774,186.21c-12.292-7.768-26.976-4.682-40.584-23.3-1.525-2.128-3.589-3.086-3.708-10-.15-7.661,1.854-10.215,3.619-11.917,17.227-16.812,34.543-24.473,52.1-4.469,4.845,5.533,9.78,10.215,14.655,15.322.957.958,2.123,2.128,2.3,5.533.239,4.256-1.2,4.575-2,5.959C656.2,177.272,646.686,186,637.8,186.21Z" transform="translate(-569.317 -62.68)" fill="#4b1e1e"/><path d="M706.541,127.907l-.9,2.341c-16.449-17.45-33.526-16.918-50.543-18.408,17.406-4.256,34.722-4.575,51.411,16.067Z" transform="translate(-612.512 -63.645)" fill="#8d592c"/><path d="M706.813,192.106c-2.871.745-5.712,5.214-8.613.319C701.071,189.872,703.942,189.552,706.813,192.106Z" transform="translate(-642.722 -58.468)" fill="#7c4722"/><path d="M670.19,157.315c-8.553,17.131-16.838,26.708-25.6,23.835a117.015,117.015,0,0,1-33.735-17.557,17.378,17.378,0,0,1-4.1-3.831c-1.5-2.128-4.157-1.809-4.157-7.448,0-6.278,2.482-8.193,4.217-9.47,16.987-12.449,33.945-20.749,50.842,1.7,3.678,4.895,7.567,7.874,12.531,12.981Z" transform="translate(-575.713 -62.302)" fill="#c4781c"/><path d="M691.531,168.243c-4.9-3.724-10.438-3.724-15.432-11.173a12.977,12.977,0,0,1-2.751-9.364c.269-6.278,2.333-7.023,3.768-6.7,3.529.851,7.028,3.192,10.527,4.788,3.38,1.6,6.759,2.766,10.139,4.575,1.047.532,2.572.638,2.6,5.533a10.983,10.983,0,0,1-2.273,7.448c-1.944,2.979-4.037,4.575-6.55,4.895Z" transform="translate(-625.286 -61.633)" fill="#8b572d"/><path d="M701.548,155.056c-4.785,11.279-17.406,6.916-23.148-7.98C686.714,142.074,693.683,153.566,701.548,155.056Z" transform="translate(-628.844 -61.32)" fill="#c38d4f"/><path d="M949,460.527v8.406c1.166,3.937,2.6,4.043,4.187,4.043,21.055.213,42.109,0,63.164-3.618,22.969-4.043,45.908-3.937,68.817,5.533a161.113,161.113,0,0,0,33.137,9.9c11.514,2.235,23.058,3.3,34.543,5.852,17.017,3.724,34-.426,50.962,2.66,8.4,1.49,16.658,1.383,24.943-2.767,1.794-.851,3.32-2.66,4.4-7.555V426.8c-3.708-5.533-7.626-3.3-11.365-2.128-10.378,3.086-20.666,8.087-30.984,12.875-12.681,5.959-25.331,2.979-37.982-1.277-6.131-2.022-12.292-.532-18.423-1.064a164.383,164.383,0,0,0-51.411,3.618c-12.5,2.766-24.673,0-36.965-5.959-4.486-2.128-9.122-2.128-13.638-2.554-6.7-.639-13.309-5.64-20.038-3.405-.568,0-.419-2.022-.419-.106s-.15,0,.419,0c14.206,2.447,28.382,4.469,42.528,10.428,8.852,3.724,17.795,4.895,26.857,1.6,8.045-2.873,16.24-2.234,24.374-3.4,7.148-1.064,14.3-.213,21.444-.213,13.129,0,26.229.745,39.358,5,14.864,4.788,29.578-5.639,44.293-11.6,5.652-2.341,11.3-5,17.047-4.682,1.675,0,3.469,1.277,4.935-2.766V379.021c-1.555-6.278-3.768-7.98-6.041-9.47-20.247-12.981-40.584-13.833-60.981-4.895-11.484,5.107-23.029,6.916-34.6,8.725-10.468,1.7-20.905,5.32-31.433,6.916-29.877,4.575-59.695,3.831-89.542-.532-10.707-1.6-21.414-5.427-32.15-4.895-7.746.319-15.372-4.575-23.118-2.873-2.273.532-4.636,0-6.251,6.81v14.046c3.051,8.406,6.909,2.766,10.318,6.6,3.469,3.937,7.208,5.214,10.408,11.7a18.168,18.168,0,0,1,2.512,10.321c-.06,6.278-1.525,8.938-2.991,10.64-5.264,6.065-10.258,14.152-15.641,19.047-1.795,1.7-3.559,3.4-4.636,9.044Z" transform="translate(-818.514 -47.682)" fill="#c4781c"/><path d="M949,112.48v42.136c3.649,6.384,7.208-.319,10.707-1.7,9.062-3.511,17.615-14.152,26.318-22.558,11.454-12.769,23.3-17.77,35.35-17.876h14.595c-16.628-1.17-33.2-.851-49.227,16.918-11.574,12.556-23.268,23.409-35.41,27.985-.867.319-1.675.851-2.333,2.767v11.279c1.7,5,3.858,2.873,5.772,3.192,10.737,2.022,20.815,14.258,31.253,20.749,5.892,3.618,11.813,5.852,17.825,5.533-10.946.638-21.444-7.342-31.911-16.493-6.041-5.32-12.2-8.725-18.453-10-1.525-.319-3.17-1.383-4.486,2.66v36.5c1.914,5.746,4.277,7.448,6.759,6.916,10.946-2.022,21.832,2.341,32.749,3.4,7.477.745,15.013,2.235,22.49,2.022,5.952-.213,11.873-1.171,17.825,0,12.023,2.447,23.926-4.256,35.889-6.491a414.41,414.41,0,0,0,42.737-10.428c12.083-3.511,24.165-.426,36.218-2.979,17.047-3.511,34.124-1.49,51.141-4.256,11.634-1.915,23.268-3.511,34.932-3.724,1.286,0,2.482-.958,3.41-4.256V120.78c-1.615-5.427-3.709-4.256-5.653-4.15-15.283.745-30.535-2.341-45.758-4.788-19.111-2.979-38.192-6.7-57.3-6.491-2.722,0-5.413,0-8.1,1.49-5.084-.213-10.079,3.4-15.163,3.831-20.068,3.4-39.9-4.469-59.665-14.471-12.651-6.384-25.272-5.959-37.982-2.554-16.6,4.469-33.137,10.96-49.766,12.662-1.675.213-3.619.319-4.755,6.065Z" transform="translate(-818.514 -64.818)" fill="#c4781c"/><path d="M1233.219,268.942V195.948c-1.166-4.044-2.632-3.937-4.187-4.044-17.944-.745-35.829,4.469-53.773,5.214-11.305.532-22.61.851-33.915,1.277-13.219.426-26.5.106-39.6,4.043-15.163,4.469-30.446,4.469-45.489,11.173-12.083,5.32-24.075,4.043-36.128,4.256-10.468.213-20.935,1.277-31.4-.426-11.9-1.915-23.776-4.895-35.679-5-1.465,0-2.841-.745-3.948,3.192v64.588c1.107,3.618,2.3,5,3.978,5.32,11.993,2.022,23.926,6.278,35.948,8.087,14.954,2.341,29.7-2.341,44.5-5.959,5.264-1.277,10.557-2.022,15.851-3.4,12.172-3.086,24.375-4.15,36.547-7.874,5.353-1.6,10.737-.213,16.09-.638,10.737-3.937,21.474-3.618,32.21-2.022,30.625,4.575,61.28.745,91.905,2.128,2.6.107,5.2.319,7.088-7.023Z" transform="translate(-818.585 -58.373)" fill="#c4781c"/><path d="M948.93,283.838v47.776c1.346,4.575,3.11,4.15,4.815,4.15,3.858,0,7.716.106,11.574,0,12.621-.426,25.212,2.128,37.743,4.895,15.283,3.4,30.505,10,45.848,7.129,14.236-2.66,28.5-4.682,42.708-8.512,5.024-1.383,10.079,0,15.1-.958,6.28-4.575,12.711-2.979,19.081-4.469,8.912-2.128,17.914-6.278,26.857-3.618,15.821,4.576,31.732,4.576,47.523,10.215,8.643,3.086,17.346,5.214,26.079,3.724,2.452-.426,4.845-1.49,6.789-7.023V272.559c-1.017-3.511-2.273-2.979-3.589-2.979-23.447.213-46.925,0-70.372.213-10.856,0-21.713-.426-32.569-2.554-8.793-1.7-17.615.213-26.408,2.554-18.9.958-37.743,6.384-56.585,10.534-15.223,3.4-30.446,8.832-45.728,8.938-13.04,0-26.019-2.766-39-7.342-3.29-1.17-6.7-2.979-9.9,1.915Z" transform="translate(-818.445 -53.585)" fill="#c4781c"/><path d="M949,3.186V62.134c1.585,5.746,3.709,4.788,5.623,3.831,12.621-5.959,25.182-3.937,37.8,0,5.832,1.809,11.724,1.064,17.585,2.447,13.369,3.086,26.707,8.193,40.2,6.7,6.609-.745,13.1-2.979,19.619-5.852,10.976-4.788,21.982-2.341,32.988-2.979,21.952.319,43.874,2.128,65.8,4.469,15.582,1.7,31.074,9.789,46.715,9.576,4.217,0,8.4-1.17,12.621-1.277,2.243,0,4.008-2.128,5.2-8.512V11.592c-1.376-3.4-2.931-2.554-4.516-2.128-18.782,4.575-37.534,10.747-56.405,11.385-13.967.426-27.9-3.511-41.81-7.555-6.1-1.809-12.2-3.4-18.333-3.724-21.683-1.49-43.276-10.108-64.958-7.661-24.135,2.66-48.3.532-72.435,1.383A13.2,13.2,0,0,1,966.167.739c-5.712.851-11.514-3.3-17.167,2.554Z" transform="translate(-818.514 -70.654)" fill="#c38a41"/><path d="M948.86,66.846v36.5c1.226,5.746,3.14,6.172,4.965,5.639,13.967-3.831,27.933-6.81,41.87-11.6,16.329-5.639,32.689-6.6,49.048,2.128,18.6,10,37.294,17.344,56.226,12.237.718-.213,1.406.638,2.123,1.17,3.649-1.6,7.267-4.256,11.006-4.043,9.421-1.915,18.842-1.809,28.262-1.17a295.88,295.88,0,0,1,34.6,4.682c17.047,3.3,34.064,5.852,51.112,7.874,1.675.213,3.469,1.277,4.935-2.767V81c-2.273-8.406-5.264-5.639-8.015-5.107-14.027,2.767-27.934-1.383-41.9-5.32-9.959-2.873-19.918-6.384-29.937-6.172-15.881.426-31.7-4.895-47.583-2.979a6.465,6.465,0,0,1-2.991-.958c-6.131,2.022-12.262,1.17-18.393.745-9.032-.532-17.855,3.937-26.767,7.661-7.357,2.979-14.894,2.554-22.251.426-15.97-4.682-31.971-5.959-47.941-9.47-11.1-2.447-22.221-3.511-33.287,1.49-1.824.851-3.738.745-5.144,5.639Z" transform="translate(-818.374 -66.96)" fill="#c4781c"/><path d="M1233.149,367.05V338.959c-1.077-2.979-2.363-3.086-3.649-2.341-9.839,5.852-19.559-1.383-29.339-2.554a199.019,199.019,0,0,1-28.083-5.107c-22.341-6.172-44.562,0-66.813,4.469-24.853,3.192-49.616,13.514-74.529,10.853-11.335-1.277-22.61-6.81-33.945-8.832-14.685-2.66-29.369-7.023-44.113-4.788-1.286.213-2.6-.213-3.679,2.766v33.73c1.615,6.916,3.978,6.6,6.251,6.81,26.677,2.022,53.265,8.832,79.942,11.6,20.1,2.022,40.2,3.405,60.2-.958,23.806-5.107,47.612-9.9,71.359-17.982,8.942-3.086,17.885-6.491,26.917-6.6,11.335-.106,22.46,6.491,33.616,11.7,2.183,1.064,4.277,2.128,5.862-4.575Z" transform="translate(-818.515 -49.757)" fill="#c4781c"/><path d="M1233.079,365.43c-8.344-3.724-16.658-7.661-25.032-11.279-14.595-6.278-29.1.745-43.6,4.363-40.285,10.109-80.421,29.474-120.975,23.3-19.26-2.873-38.491-8.619-57.721-12.13-12.262-2.234-24.554-2.873-36.846-4.15v14.046c46.027,3.724,92.025,12.875,138.052,8.087,29.847-3.086,59.695-6.916,89.363-18.727,17.646-7.129,35.081-.745,52.458,9.151a34.488,34.488,0,0,0,4.247,1.6V365.643Z" transform="translate(-818.444 -48.137)" fill="#4b1e1e"/><path d="M1103.481,103.9c-21.084,3.618-41.87-3.937-62.626-14.9-15.193-8.087-30.505-5.214-45.7,0-15.342,5.32-30.715,8.619-46.057,12.769v11.279c15.013.106,30-3.192,44.891-9.151,19.589-7.874,39.059-6.491,58.5,4.788a71.731,71.731,0,0,0,44.831,9.683c1.555-.213,3.17.745,4.606-2.235.778-1.915,1.765-3.3,2.333-5.959.568-2.767,1.077-6.171-.748-6.171Z" transform="translate(-818.585 -65.282)" fill="#4b1e1e"/><path d="M948.93,215.891c11.006-1.49,21.982,1.6,32.958,3.831a162.473,162.473,0,0,0,58.678,1.17,427.14,427.14,0,0,0,60.173-14.9c12.621-4.15,25.391-2.767,38.1-3.3,17.585-.638,35.141,0,52.727-1.064,12.142-.745,24.255-3.724,36.367-5.64a27.867,27.867,0,0,1,5.144.213V187.8c-14.864,0-29.7.319-44.562,2.447-24.135,3.4-48.3,3.086-72.406,6.81-22.909,3.511-45.878,8.3-68.7,18.089a7.442,7.442,0,0,1-2.572.638c-31.283-.426-62.566-.851-93.819-7.448a8.858,8.858,0,0,1-2.123-.851v8.406Z" transform="translate(-818.444 -58.631)" fill="#4b1e1e"/><path d="M949,333.24c18.184-2.447,36.218,2.66,54.252,9.47,22.341,8.512,44.652,10.428,67.052,3.4,11.634-3.618,23.3-6.6,34.962-9.9,3.29-4.363,6.939.851,11.185-4.043-3.709-5-6.639-3.3-9.57-2.235-14.834.638-29.7,1.49-44.472,5.639-17.855,4.895-35.62,1.809-53.444-2.66-19.918-5-39.926-5.32-59.934-5.32v5.639Z" transform="translate(-818.514 -49.677)" fill="#7d4a2e"/><path d="M1616.422,114.857c-27.544-1.49-54.939-12.343-82.454-15.429-12.262-1.383-24.524-4.788-36.756,1.7-.658,2.873-1.854,5.427-1.226,9.576.658,4.363,1.914,2.66,2.991,1.6,31.761-2.554,63.433,5.214,95.135,7.023,7.447.426,14.864.638,22.311,1.064v-5.533Z" transform="translate(-1201.788 -64.428)" fill="#4b1e1e"/><path d="M1356.092,417.4c-15.522-.958-30.685,10.108-46.027,15-10.318,3.3-20.606,1.915-30.834-1.277-15.582-5-31.134-2.447-46.715-1.915-11.275.319-22.55,3.405-33.855,4.363-17.765,1.6-35.291-10.108-53-11.917-6.819-.638-13.638-2.128-21.264-3.3,2.333,7.448,4.636,6.81,6.7,7.023,18.3,1.809,36.517,6.916,54.7,13.194,11.275,3.937,22.58-1.49,33.855-2.447,23.447-2.022,46.865-4.575,70.282,2.979,12.352,4.043,24.524-3.405,36.7-8.619,9.779-4.15,19.559-8.619,29.459-7.342V417.4Z" transform="translate(-941.457 -43.928)" fill="#4b1e1e"/><path d="M1462.73,61.986c4.9,4.575,9.959,2.235,14.924,2.128,28.681-.851,57.093,10.321,85.565,18.3,10.019,2.767,20.008-.106,30-1.383V66.987c-11.664,5.533-23.357,3.937-35.051,1.809-11.963-2.235-23.926-5.959-35.919-7.129-18.722-1.809-37.444-2.022-56.136-2.767a19.213,19.213,0,0,0-3.41.638l.06,2.554Z" transform="translate(-1178.581 -66.887)" fill="#4b1e1e"/><path d="M948.93,283.825c11.454,5.533,23,6.491,34.513,8.087,22.431,3.086,44.741-4.895,67.082-9.789,16.509-3.724,33.018-6.7,49.526-10.109.508-1.7,2.153.639,1.615-4.788-11.036-1.7-21.982,2.022-32.958,4.043-22.969,4.15-45.878,12.556-68.906,14.365-13.727,1.064-27.395-4.043-41.063-8.619-3.26-1.064-6.55-1.064-9.84-1.49v8.406Z" transform="translate(-818.445 -53.572)" fill="#804d28"/><path d="M1102.664,62.26l-.06-2.554c-12.023-2.979-24.105-3.511-35.949,2.66-14.595,7.555-29.1,5.32-43.6,1.277-13.548-3.831-27.126-4.15-40.674-7.874C971.191,52.577,960.1,56.833,949,58.855v8.406c16.778-9.789,33.586-3.724,50.394-1.809,18.243,2.128,36.487,11.173,54.73,6.7,13.787-3.4,27.515-9.364,41.362-8.3,2.393.213,4.845,2.022,7.178-1.49Z" transform="translate(-818.515 -67.162)" fill="#4b1e1e"/><path d="M1473.015,330.357h6.759c-2.662,5.427-5.8.426-8.374,6.171,10.587.532,21.085-4.043,31.642-6.065,15.462-2.873,30.834,2.66,46.237,4.043,16.688,1.49,33.317,9.789,50.065,4.575v-5.64c-15.014,6.384-29.877-1.915-44.8-4.469-22.191-3.724-44.382-10.747-66.6-2.022-4.935,1.915-9.989-.638-14.894,3.3Z" transform="translate(-1184.679 -49.987)" fill="#4b1e1e"/><path d="M1456.015,267.279l-1.615,4.788q65.228.639,130.455,1.383a7.689,7.689,0,0,0,2.542-.745V264.3c-1.974.745-3.978,2.128-5.951,2.128-27.993.319-56.016,1.6-84.01,0-12.98-.745-25.96-2.767-38.939-.745-.837.106-1.645,1.064-2.482,1.7Z" transform="translate(-1172.763 -53.731)" fill="#4b1e1e"/><path d="M949,432.868v19.685c1.884,2.873,3.589,0,5.294-1.809,5.294-5.533,10.348-12.982,15.552-19.26,1.645-2.022,3.768-4.043,3.948-11.279.209-7.661-1.944-9.683-3.559-12.13-5.533-8.513-11.335-13.194-17.5-12.875-1.466,0-2.722.319-3.738,3.937v14.045C951.482,419.781,950.944,426.271,949,432.868Z" transform="translate(-818.514 -45.348)" fill="#c4781c"/><path d="M949,399.413c7.028-.532,13.937,1.17,20.427,11.279,1.376,2.128,3.32,3.3,3.409,9.257.06,6.384-1.974,7.342-3.35,8.938-6.819,7.874-13.309,18.94-20.457,23.835v5.639c7.746-5.214,14.894-16.174,22.191-25.537,1.764-2.235,4.1-5,4.127-12.662s-2.273-10.109-3.978-13.3c-6.938-12.769-14.535-15.961-22.341-15.961v8.406Z" transform="translate(-818.514 -45.622)" fill="#4b1e1e"/><path d="M949,172.239c9.122-2.022,17.795,6.065,26.5,13.407,10.677,8.938,21.5,14.365,32.569,12.237,1.465-.319,3.051.851,4.666-3.086-.658-1.171-.987-2.447-1.286-2.341-14.655,6.278-28.561-6.6-42.5-18.2-6.55-5.427-13.249-6.278-19.918-7.661v5.639Z" transform="translate(-818.514 -59.989)" fill="#834f27"/><path d="M949,158.018c13.04-2.873,25.391-15.322,37.683-28.836.09-2.341,0-4.043-.9-2.341-8.524,6.491-16.688,17.45-25.421,21.175-3.768,1.6-7.567,2.873-11.365,4.363Z" transform="translate(-818.514 -62.58)" fill="#89552b"/><path d="M949,431.785h.837c1.884-2.979,4.666-4.895,4.4-12.769-.329-9.363-3.29-5.959-5.234-6.916v5.64a12.3,12.3,0,0,1,0,8.406Z" transform="translate(-818.514 -44.264)" fill="#4b1e1e"/><path d="M949,425.817c1.136-1.383,2.9-1.383,2.692-6.6-.12-2.979-1.735-1.7-2.692-1.809Z" transform="translate(-818.514 -43.936)" fill="#c4781c"/><path d="M1077.053,417.5H1065.3C1069.188,421.65,1073.106,421.331,1077.053,417.5Z" transform="translate(-900.032 -43.919)" fill="#4b1e1e"/><path d="M1276.242,159.294c9.212-4.575,18.513-3.086,27.784-3.618,25.87-1.277,51.71-3.192,77.52-10,8.045-2.128,15.971,2.66,23.956,3.831,1.376.213,2.811,1.915,4.875-1.49-5.323-5.427-10.228-5.533-15.013-7.129-9.869-3.3-19.709-.319-29.518,3.4a18.6,18.6,0,0,1-5.114,1.49c-26.288,2.022-52.577,3.618-78.866,5.852-16.927,1.49-33.466,12.556-49.826,26.069-6.639,5.533-13.309,10.641-20.128,13.3-.957.319-1.974.638-2.811,5.533,5.234-.426,9.9-4.256,14.595-7.448,13.817-9.47,27.4-22.983,41.541-27.346,2.841-.851,5.682-1.277,8.554-1.915.9,2.022,1.734,2.447,2.452-.745Z" transform="translate(-1000.826 -61.727)" fill="#4b1e1e"/><path d="M1091.02,186.21c12.292-7.768,26.976-4.682,40.584-23.3,1.525-2.128,3.589-3.086,3.708-10,.15-7.661-1.854-10.215-3.619-11.917-17.227-16.812-34.543-24.473-52.1-4.469-4.845,5.533-9.78,10.215-14.654,15.322-.957.958-2.124,2.128-2.3,5.533-.239,4.256,1.2,4.575,2,5.959,7.955,13.939,17.466,22.664,26.348,22.877Z" transform="translate(-898.148 -62.68)" fill="#804d28"/><path d="M1424.07,158.1c-.807.213-1.645.532-2.452.745-.448,4.469-.987,8.832-1.346,13.3-.837,10.747.269,18.2,3.559,21.919,4.217,4.788,4.815-7.448,5.892-14.79,1.346-9.364-.419-15.961-3.14-19.579C1425.8,158.632,1424.907,158.632,1424.07,158.1Z" transform="translate(-1148.653 -60.534)" fill="#c7904e"/><path d="M1072,127.907l.9,2.341c16.449-17.45,33.526-16.918,50.543-18.408-17.406-4.256-34.722-4.575-51.411,16.067Z" transform="translate(-904.729 -63.645)" fill="#4b1e1e"/><path d="M1473.977,112.311c-2.811,0-1.286-7.342-1.765-11.279-3.529-.319-7.088-1.7-10.557,1.809-.508,4.043-1.047,8.087-1.555,12.13,4.636.106,9.3.745,13.877-2.554Z" transform="translate(-1176.759 -64.223)" fill="#4b1e1e"/><path d="M1172.1,192.106c2.871.745,5.712,5.214,8.613.319C1177.842,189.872,1174.971,189.552,1172.1,192.106Z" transform="translate(-974.891 -58.468)" fill="#7c4722"/><path d="M1070.5,157.315c8.553,17.131,16.838,26.708,25.6,23.835a117.015,117.015,0,0,0,33.735-17.557,17.379,17.379,0,0,0,4.1-3.831c1.5-2.128,4.157-1.809,4.157-7.448,0-6.278-2.482-8.193-4.217-9.47-16.987-12.449-33.945-20.749-50.842,1.7-3.679,4.895-7.567,7.874-12.531,12.981Z" transform="translate(-903.677 -62.302)" fill="#c7904e"/><path d="M1144.151,168.243c4.9-3.724,10.438-3.724,15.432-11.173a12.976,12.976,0,0,0,2.751-9.364c-.269-6.278-2.333-7.023-3.768-6.7-3.529.851-7.028,3.192-10.527,4.788-3.38,1.6-6.759,2.766-10.139,4.575-1.047.532-2.572.638-2.6,5.533a10.984,10.984,0,0,0,2.273,7.448c1.944,2.979,4.038,4.575,6.55,4.895Z" transform="translate(-949.096 -61.633)" fill="#8b572d"/><path d="M1143.3,155.056c4.785,11.279,17.406,6.916,23.148-7.98C1158.134,142.074,1151.166,153.566,1143.3,155.056Z" transform="translate(-954.705 -61.32)" fill="#c38d4f"/></g><path d="M964.758,100.2c2.615,111.711,5.259,244.778,5.229,353.4-19.925,8.147-39.91,3.456-59.955,9.011C811.581,489.4,705.646,477.427,610.5,463.849c4.057-83.814,8.054-155.409,6.311-239.84-.511-24.317,3.306-90.48,3.306-90.48s33.719.37,44.6.988a1231.539,1231.539,0,0,0,194.319-4.938c9.166-.988,105.784-25.3,105.754-29.378Z" transform="translate(-582.287 -89.469)" fill="#2f0c0d"/><path d="M964.94,100.2l2.435,335.283A506.013,506.013,0,0,1,907.4,456.249c-98.483,27.311-197.808,21.018-296.8,14.725,4.058-85.457,5.231-171.92,3.487-257.881-.511-24.794,3.307-92.253,3.307-92.253s33.729.378,44.612,1.007a1208.75,1208.75,0,0,0,194.381-5.034c9.169-1.007,108.614-12.334,108.584-16.487Z" transform="translate(-584.191 -89.468)" fill="#e9e5b2"/><g transform="translate(330.844 314.82)"><path d="M1703.106,265.1a14.962,14.962,0,0,1,2.947-1.828,16.383,16.383,0,0,1,14.625.522,12.765,12.765,0,0,1,4.551,4.141l.821.373.634-.634v-.448l-.373-.672a18.359,18.359,0,0,0-3.619-3.395,16.522,16.522,0,0,0-11.677-3.022,17.927,17.927,0,0,0-7.387,2.5,16.881,16.881,0,0,0-1.716,1.119l-.522-.075-1.119-1.343v-.41l.858-.821.634-.448.485-.075c3.1-.485,6.23-.97,9.327-1.53,1.156-.187,2.276-.41,3.432-.522.672-.075.9-.3.97-.97a2.538,2.538,0,0,0-.709-2.089l.112-.746,1.157-.783a2.306,2.306,0,0,0,1.045-2.164l-.112-1.082a35.139,35.139,0,0,0-1.269-5.186c-.6-1.753-1.231-3.469-1.754-5.26a8.943,8.943,0,0,1-.447-1.642,8.216,8.216,0,0,0-.224-1.38,4.714,4.714,0,0,0-2.425-3.208l-.671-.485a12.566,12.566,0,0,0-1.381-1.082l-.522-.634a5.371,5.371,0,0,0-2.574-2.723,9.424,9.424,0,0,0,2.873.149,15.469,15.469,0,0,0,3.134-.6,3.5,3.5,0,0,0,1.343-.672l.373-.186a3.868,3.868,0,0,1,2.649.336c.97.485,1.865,1.119,2.835,1.679a12.127,12.127,0,0,0,3.992,1.53,2.474,2.474,0,0,0,1.641-.075l.336-.821-.149-.261c-.41-.672-.783-1.343-1.194-2.015a22.991,22.991,0,0,1-1.492-2.649,2.806,2.806,0,0,1,.261-2.947,18.788,18.788,0,0,1,2.649-3.059c.485-.41.485-.672.037-1.119a3.067,3.067,0,0,0-1.194-.858,14.846,14.846,0,0,0-3.059-.821c-.485-.075-1.007,0-1.492-.112h-2.015l-1.045.149a24.007,24.007,0,0,0-3.917,1.268c-1.492.56-2.947,1.343-4.439,1.9a8.548,8.548,0,0,1-6.156.112,6.087,6.087,0,0,1-2.462-1.53l-.709-.6-.485.187c-.783,2.089-1.567,4.178-2.238,6.3a34.987,34.987,0,0,0-1.082,4.328l-.485.41c-.56,0-1.082.112-1.641.112l-.411-.41a44.061,44.061,0,0,0,0-4.962,6.708,6.708,0,0,0-1.6-4.365,8.146,8.146,0,0,0-13.617,2.164,5.778,5.778,0,0,0-.485,2.649l.3.448.336.448c-.075.9,0,1.791,0,2.686l-.075.41c-.41,1.194-.746,2.425-1.082,3.619l.224.522.9.336c.9.187,1.791.336,2.724.448a2.564,2.564,0,0,0-.746,1.6l-.149,1.007c-.522,1.418-.821,2.91-1.306,4.365a23.72,23.72,0,0,1-3.32,6.118,6.235,6.235,0,0,1-2.238,2.276l-.336.373-.559.485a3.315,3.315,0,0,0-1.679,1.343,15.582,15.582,0,0,0-.97,1.716l.075.522.784.746a17.651,17.651,0,0,0,1.9,1.38,1.437,1.437,0,0,1,.6,1.679c-.671,2.164-1.38,4.328-2.052,6.491-.224.709-.187.709-.933.634a14.138,14.138,0,0,0-11.3,3.731,15.528,15.528,0,0,0-3.619,5.372,7.488,7.488,0,0,0-.634,2.5c-.037.56-.112,1.119-.187,1.641v1.865l.075,1.157a13.705,13.705,0,0,0,4.962,8.73,14.186,14.186,0,0,0,19.885-1.753,14.063,14.063,0,0,0,3.171-11.528l-.149-.97a5.3,5.3,0,0,0,1.865.187l.41.3.261.634.821.41.933-.112.3.075-.074.261-.112.149a4.169,4.169,0,0,0-.448,2.761,4.378,4.378,0,0,0,1.007,2.089v.709l-.634.97v1.007a2.124,2.124,0,0,1,.037.485.738.738,0,0,0,.522,1.231,2.6,2.6,0,0,0,2.35-.672l.821-.672.373.075.112.187.783.261a14.05,14.05,0,0,0,2.947-1.977c.746-.709.671-.821.261-1.455v-.448c.522-.448.9-.97,1.38-1.38l.411-.224h2.126l.224.261.075.783a12.751,12.751,0,0,0,.634,3.32,14.547,14.547,0,0,0,4.178,6.342,13.394,13.394,0,0,0,6.827,3.246c.56.112,1.156.075,1.716.149h2.164a8.417,8.417,0,0,0,2.126-.336,14.624,14.624,0,0,0,7.126-4.365,13.367,13.367,0,0,0,2.462-3.917,15.223,15.223,0,0,0,1.119-4.962,13.475,13.475,0,0,0-.858-5.447,18.846,18.846,0,0,0-2.313-4.253l-.56-.634-1.007-.858a14.818,14.818,0,0,0-3.992-2.537,14.5,14.5,0,0,0-12.834.933l-.6-.075-1.455-1.679.075-.56Zm-31.785-12.349-.149-.448.6-.709,1.306-.373.224.224a1.177,1.177,0,0,0,1.194,1.194,5.579,5.579,0,0,0,2.462-1.007l.3-.783.224-.261a1.4,1.4,0,0,0,.821-1.194l-.448-.56h-.149c-.522-.112-.56-.187-.261-.6.821-1.082,1.641-2.164,2.5-3.171a12.58,12.58,0,0,0,1.6-2.835l.373-.672h.224c0-.037.3.709.3.709l.074.634a8.057,8.057,0,0,0,2.276,3.1l.075.41a11.087,11.087,0,0,1-1.306,1.865,19.353,19.353,0,0,0-2.873,3.88,6.05,6.05,0,0,1-1.268,1.642l-.373.56-.3.373-.858.671-1.045.485h-.224a2.841,2.841,0,0,1-1.418-1.045,1.837,1.837,0,0,0-1.828-1.045l-.671-.187-1.306-.783Zm11.08,4.4c-.187.485-.485.858-.634,1.306l-.261.112c-2.612.224-5.26.336-7.872.336l-.224-.3.336-1.194.9-.373c.56.261,1.156.522,1.716.821a2.975,2.975,0,0,0,1.38.3l.559-.3.858-1.007.672.075c.41.6,1.007.56,1.6.485l1.007-.224Zm-11.6,10.409.448-.224a11.474,11.474,0,0,1,5.036,3.32v.373c-2.574,1.679-5.148,3.395-7.685,5.074l-.187.075v-.336c.821-2.761,1.642-5.521,2.425-8.282Zm-8.916.933a10.834,10.834,0,0,1,7.2-1.6c-.448,1.38-.858,2.761-1.268,4.1s-.821,2.649-1.231,3.992l-.411.41-.485-.3c-.858-1.492-1.828-2.91-2.761-4.365-.373-.6-.746-1.194-1.157-1.791l.112-.448Zm-4.44,5.186a11.193,11.193,0,0,1,3.581-4.626l.41.075c1.194,1.9,2.425,3.805,3.619,5.671l.224.634-.187.783-.373.112c-.933-.3-1.828-.56-2.761-.858-1.418-.448-2.873-.9-4.291-1.306l-.224-.448Zm.261,9.289a12.178,12.178,0,0,1-1.156-5.186,12.3,12.3,0,0,1,.485-3.059l.485-.261c2.313.746,4.626,1.455,6.939,2.164l.336.448.261,1.082-.075.3c-2.313,1.53-4.663,3.059-6.976,4.626l-.336-.112Zm7.014,5.857a11.331,11.331,0,0,1-6.566-5l.112-.41c2.313-1.53,4.626-3.059,6.9-4.589h.56l.485.224.261.336c-.149,1.007-.3,1.977-.485,2.985-.336,2.089-.671,4.216-1.007,6.3l-.261.187Zm8.357-.9a11.325,11.325,0,0,1-5.223,1.343,10.584,10.584,0,0,1-2.239-.224l-.224-.336c.485-3.1.97-6.156,1.455-9.252l.672-.6.3.187c1.791,2.835,3.581,5.633,5.372,8.431l-.112.41Zm5.41-6.566a11.266,11.266,0,0,1-4.477,6.006l-.56-.112c-1.492-2.35-2.984-4.7-4.514-7.051l-.858-1.306v-.522c.037,0,.261-.3.261-.3l.3-.112.224.075c3.134.97,6.23,1.94,9.364,2.873l.224.448Zm.261-1.007-.373.224c-3.134-.97-6.3-1.94-9.439-2.91l-.224-1.119.224-.187c2.462-1.641,4.924-3.246,7.387-4.887l.56.112a10.782,10.782,0,0,1,2.052,6.193,16.215,16.215,0,0,1-.224,2.611Zm4.514-9.551-1.194.336-.932.485-.709.41-.186-.149a14.3,14.3,0,0,0-1.716-2.686,13.928,13.928,0,0,0-6.529-4.477l-.261-.448c.3-1.007.634-2.015.858-3.022.112-.6.224-.672.821-.634h1.642c1.567-.075,3.134-.112,4.7-.224.56,0,1.156,0,1.716-.037l.261.261c.187.97.373,1.977.522,2.947.3,1.828.709,3.619,1.082,5.41l.224,1.38-.3.448Zm2.537-17.646a22.054,22.054,0,0,0-1.9,1.828l-.224.261a1.108,1.108,0,0,1,.261-1.231,14.185,14.185,0,0,1,1.94-1.716l.783-.746a2.032,2.032,0,0,1-.821,1.642Zm16.079,4.328a11.346,11.346,0,0,0-1.94.485,2.019,2.019,0,0,0-1.343,1.492l-.336.709-.485-.485a1.373,1.373,0,0,1-.373-1.9,13.676,13.676,0,0,0,.56-1.6l.56-.9h.448l1.082.9a5.367,5.367,0,0,0,3.022,1.045l-1.156.224Zm-5.148-30.816.336-.224,1.007.075a22.536,22.536,0,0,1,5.037,1.791c-1.194.037-2.35.075-3.507.149a28.731,28.731,0,0,0-3.507.373c.149-.783.41-1.492.6-2.2Zm-.6,29.584-.448.672C1695.384,256.183,1695.384,256.295,1696.13,256.257Zm-.97.41.224,1.157-.448.373h-.634A7.9,7.9,0,0,1,1695.16,256.668Zm-3.843,12.647c-.112-1.865-.149-3.731-.075-5.633l.149-.821.224-1.082.336-.783.522-.933.149-.149a21.084,21.084,0,0,1,2.2-.149c-1.119,3.47-2.2,6.9-3.321,10.334l-.149-.784Zm11.677,16.863a11.259,11.259,0,0,1-2.089-6.268l.3-.336h9.849c-.746.672-1.455,1.268-2.126,1.9-1.791,1.6-3.619,3.171-5.41,4.775l-.485-.075Zm-1.865-8.842.373-.261,4.029.671.149.075H1701.5l-.336-.522Zm9.551,12.871c-.075.56-.112.56-.634.485a11.1,11.1,0,0,1-6.379-3.656v-.448l7.275-6.379h.709l.3.149.187.373c-.149.9-.261,1.828-.411,2.723-.336,2.238-.671,4.44-1.007,6.678v.075Zm7.76-1.306a10.854,10.854,0,0,1-6.3,1.94h-.858l-.224-.261c.261-1.6.485-3.171.709-4.775.261-1.642.522-3.246.746-4.887l.336-.3c.6-.112.858.187,1.119.634,1.53,2.388,3.059,4.738,4.589,7.088l-.112.6Zm4.776-7.685a11.322,11.322,0,0,1-3.806,6.976l-.485-.075c-1.6-2.5-3.246-4.962-4.85-7.461l.075-.485.6-.709.186-.186c.672.112,1.231.186,1.828.3,2.015.336,4.029.672,6.007,1.007.485.075.485.075.41.6Zm-2.724-9.028a11.268,11.268,0,0,1,2.835,7.387l-.074.672-.672-.075c-2.388-.41-4.813-.783-7.2-1.194l-.41-.485-.373-1.231v-.336c1.865-1.6,3.731-3.208,5.559-4.85h.336Zm-5.932-3.432a11.273,11.273,0,0,1,5.26,2.8v.373c-1.791,1.567-3.545,3.1-5.335,4.663l-.56.149-.709-.783c.112-.821.224-1.641.373-2.462.224-1.53.448-3.059.709-4.589l.261-.187Zm-7.834,1.082a10.855,10.855,0,0,1,3.843-1.268,10.545,10.545,0,0,1,1.529-.112,9.685,9.685,0,0,1,1.492.112l.261.373c-.261,1.753-.56,3.507-.821,5.26a14.359,14.359,0,0,0-.224,1.828l-.3.485-.709-.224-3.358-3.917c-.6-.709-1.231-1.455-1.828-2.164l.075-.373Zm-2.089,1.455h.448c1.753,2.127,3.544,4.253,5.335,6.342l.112.224h-.224a6.6,6.6,0,0,1-.858.037,17.2,17.2,0,0,1-3.656-.448c-1.38-.224-2.76-.485-4.141-.709l-.224-.373a11.316,11.316,0,0,1,3.283-5.111Zm-1.716-2.5v.336a13.952,13.952,0,0,0-4.589,8.469l-.336.3h-2.649l-.261-.261a.9.9,0,0,0-.6-1.082l-.3-.373c-.522-1.082-.9-2.2-1.38-3.283v-.709c1.194-3.544,2.2-7.126,3.4-10.67l.149-.41.522.522-.075.3v.933l.821.709h.932c.448.522.9,1.045,1.38,1.567v.261a20.379,20.379,0,0,0-2.612,2.761,4.307,4.307,0,0,0-1.007,1.679,1.109,1.109,0,0,0,.6,1.38l.709-.187c.373-.6.709-1.194,1.044-1.791a9.213,9.213,0,0,1,2.238-2.574h.336c.559.709,1.156,1.38,1.716,2.052Z" transform="translate(-1653.6 -216.6)" fill="#341514"/><path d="M1797.16,231.6a10.7,10.7,0,0,1-3.245-.858,24.584,24.584,0,0,1-3.208-1.828,6.784,6.784,0,0,0-2.387-1.007,5.252,5.252,0,0,0-1.865.112l-.149.075a5,5,0,0,1-2.388.97,11.813,11.813,0,0,1-3.619.336,15.513,15.513,0,0,1-5.3-1.418,17.441,17.441,0,0,0-4.1-1.268h-.671l-.224-.336c.522-1.6,1.045-3.208,1.6-4.813.224-.6.448-1.194.671-1.828l.336-.075a8.1,8.1,0,0,0,5.894,1.828,10.827,10.827,0,0,0,3.4-.858c1.641-.671,3.246-1.492,4.925-2.089a15.664,15.664,0,0,1,3.432-.97,14.072,14.072,0,0,1,3.955.149,14.946,14.946,0,0,1,2.537.672,3.32,3.32,0,0,1,1.306.858v.373a20.65,20.65,0,0,0-2.91,3.358,3.154,3.154,0,0,0-.187,3.283,35.472,35.472,0,0,0,1.865,3.283l.821,1.343-.261.6h-.261Z" transform="translate(-1726.575 -217.159)" fill="#3f77ac"/><path d="M1739.323,316.429l-1.119.6c-.6.448-1.156.9-1.753,1.306a2.838,2.838,0,0,0-1.269,3.1c.336,2.5.933,4.962,1.418,7.424.187.933.3,1.9.56,2.835l-.3.634a4.068,4.068,0,0,1-1.455.56l-.746.149h-.709a16.131,16.131,0,0,1-2.835-1.567l-.112-.075.112-.149c.709-.3.746-.41.671-1.194-.112-1.082-.447-2.164-.671-3.246-.448-2.276-.858-4.514-1.194-6.827a2.979,2.979,0,0,1,.373-2.089,4.682,4.682,0,0,1,1.045-1.492l.149-.261.485-.821a38.106,38.106,0,0,1,3.1-2.91l.634.075a26.114,26.114,0,0,0,3.358,3.693l.149.149Z" transform="translate(-1701.418 -276.66)" fill="#e3a575"/><path d="M1737.013,263.184l-.3,1.156c-1.306,2.686-2.425,5.447-3.619,8.17a30.737,30.737,0,0,1-4.1,6.566,16.493,16.493,0,0,1-2.015,1.94,1.728,1.728,0,0,0-.56,1.753l.075.448-.261.56a4.344,4.344,0,0,1-2.313.821l-.746-.336a4.889,4.889,0,0,1-.821-1.492,1.033,1.033,0,0,1,.3-1.231,8.855,8.855,0,0,0,1.6-2.126,27.225,27.225,0,0,1,3.246-4.178l.56-.9.149-.336a29.2,29.2,0,0,0,2.76-5.633,38.308,38.308,0,0,0,1.343-4.141,22.439,22.439,0,0,1,1.082-3.022,1.241,1.241,0,0,1,1.679-.746,2.714,2.714,0,0,1,1.977,2.723Z" transform="translate(-1696.647 -244.046)" fill="#e3a675"/><path d="M1743.3,302.2a3.312,3.312,0,0,1,.485-1.791,19.571,19.571,0,0,0,1.753-2.8l.6-.522,1.268-.485.634.187a27.393,27.393,0,0,0,2.052,2.612,14.737,14.737,0,0,0,4.067,3.208l.3.149.075.373a9.99,9.99,0,0,1-1.978,1.791c-.97.672-1.9,1.455-2.8,2.2h-.634l-.933-.858-1.194-1.007a27.983,27.983,0,0,1-2.91-3.395l.112-.6.783-.56.112-.3h-.3l-1.045.672-.224.6-.224.448Z" transform="translate(-1709.836 -266.754)" fill="#aa5f44"/><path d="M1797.7,292.149a8.563,8.563,0,0,0,2.537-.9,3.493,3.493,0,0,0,1.679-1.753l.224.373a35.179,35.179,0,0,1,1.9,7.051,25.7,25.7,0,0,0,.6,2.947,4.875,4.875,0,0,1,.187,1.455,1.507,1.507,0,0,1-.56,1.157,5.784,5.784,0,0,1-2.873,1.194l-.634.075-.485-.373c-.41-1.791-.821-3.544-1.231-5.335-.336-1.492-.6-2.947-.858-4.44l-.485-1.156v-.336Z" transform="translate(-1743.94 -262.303)" fill="#c5a981"/><path d="M1722.233,237a1.421,1.421,0,0,0,1.754,1.045c.858-.037,1.678-.112,2.537-.224l.373.373a11.4,11.4,0,0,1-1.156,3.619c-.224.448-.149.709.373.783l.336.485a22.086,22.086,0,0,1-.9,2.649l.373.634.336.448.075,1.194v1.119a3.4,3.4,0,0,1-.261.522,2.229,2.229,0,0,1-1.753.336l-.373-.373a6.847,6.847,0,0,1-.6-2.276l-.075-.336.224-.6.6.224.075.336.187.149.112-.187c-.112-.56-.224-1.119-.373-1.679l-.448-.187a7.212,7.212,0,0,1-3.283-.783,2.1,2.1,0,0,1-1.194-1.492,15.956,15.956,0,0,1-.373-3.768v-.858l.336-.336a17.194,17.194,0,0,0,1.977.075c.6,0,1.082-.112,1.194-.858Z" transform="translate(-1694.476 -229.389)" fill="#e3a675"/><path d="M1777,251.546a4.248,4.248,0,0,1,1.53,1.9l-.112.634-.634.522a19.939,19.939,0,0,1-5.521,2.313,5.164,5.164,0,0,1-2.612-.037c-.672-.187-1.343-.41-2.052-.6a3.723,3.723,0,0,1-1.716-1.306l-.187-.9c.261-.97.3-1.977.6-2.947l.3-.336c1.082,1.045,2.462,1.119,3.843,1.306a16.16,16.16,0,0,0,2.686.075,16.824,16.824,0,0,0,3.843-.6Z" transform="translate(-1723.879 -238.041)" fill="#a08769"/><path d="M1789.8,294.782v.261a1.9,1.9,0,0,1,.56,1.306c.335,2.089.783,4.178,1.268,6.23.261,1.156.56,2.35.821,3.507l.41.336a7,7,0,0,1-3.171-.149,1.767,1.767,0,0,1-1.343-1.156,22.7,22.7,0,0,1-1.157-3.507c-.671-2.238-1.343-4.44-1.865-6.715l-.224-1.194a5.429,5.429,0,0,0,4.626,1.007h.149Z" transform="translate(-1736.042 -264.936)" fill="#a08769"/><path d="M1767.718,279.953l-.336,1.157-.9.41a4.4,4.4,0,0,1-2.276-1.231l-.224-.187v-.485l.3-.6.261-.3c.933,0,1.194-.373,1.119-1.306a24.811,24.811,0,0,0-.783-4.029,40.531,40.531,0,0,0-4.178-10c-.559-1.007-1.082-1.977-1.716-2.947l-.112-.3a4.763,4.763,0,0,0-.821-1.828,1.944,1.944,0,0,0-1.194-.746l-.261-.336v-.075l.261-.858,1.38.187,1.007,1.306a8.662,8.662,0,0,0,1.567,1.753l.709.97a20.647,20.647,0,0,1,3.171,7.387c.858,3.283,1.679,6.6,2.649,9.849a8.043,8.043,0,0,1,.3,2.2Z" transform="translate(-1718.174 -241.489)" fill="#a08769"/><path d="M1800.675,272.8c.485,0,.9.075,1.306.112a18.637,18.637,0,0,0,2.5-.037h.6l.336.336a15.621,15.621,0,0,0,.522,1.753c.522,2.164,1.418,4.216,2.052,6.3a33.025,33.025,0,0,1,1.231,5.3v.821a1.763,1.763,0,0,1-1.156,1.53l-.97-.41a4.732,4.732,0,0,1-.933-2.425,26.809,26.809,0,0,0-1.679-6.379c-.485-1.306-.97-2.574-1.492-3.88a2.811,2.811,0,0,0-1.567-1.567l-.336-.485-.112-.224-.373-.746Z" transform="translate(-1745.759 -251.833)" fill="#c5a981"/><path d="M1788.758,284.239a6.575,6.575,0,0,1-2.164-.373l-.485-.56c-.224-1.157-.485-2.313-.709-3.507l.3-1.157a13.372,13.372,0,0,1,1.343-1.194h.411a5.353,5.353,0,0,0,3.731-.149h.373a2.6,2.6,0,0,1,1.641,1.716,12.519,12.519,0,0,0,.522,1.679c.41,1.045-.112,1.641-.82,2.2A7.486,7.486,0,0,1,1788.758,284.239Z" transform="translate(-1736.229 -254.655)" fill="#fff"/><path d="M1671.068,348.9a6.876,6.876,0,0,1,1.492.112l.224.149-.261.336h-.709a10.4,10.4,0,0,0-5.782,1.194,11.314,11.314,0,0,0-6.193,8.282,11.541,11.541,0,1,0,14.848-8.991l-.224-.075-.075-.336.336-.075a12.75,12.75,0,0,1,2.8,1.306,11.767,11.767,0,0,1,5.6,10.6,11.931,11.931,0,0,1-7.947,11.043,12.116,12.116,0,1,1-6.3-23.317,10.518,10.518,0,0,1,2.2-.187Z" transform="translate(-1656.966 -299.543)" fill="#e8e7e6"/><path d="M1711.7,270.312l.112.41a7.287,7.287,0,0,0,1.418,2.649l.522,1.082-.149.671-.783,1.679a7.422,7.422,0,0,1-.933,1.455c-.932,1.157-1.828,2.35-2.723,3.507l-.709.41-.821.224-.746.746-.112.224-.075-.075-.187-.373-.187.373v.858c.037,0-.037.41-.037.41l-.485.075a1.933,1.933,0,0,1-.6-1.231l-.41-.41v-.336c1.716-1.156,2.649-2.947,3.731-4.663a20.9,20.9,0,0,0,2.425-5.521c.187-.672.448-1.38.634-2.052l.112-.224Z" transform="translate(-1685.699 -250.203)" fill="#e3a675"/><path d="M1802.041,365.256A11.567,11.567,0,0,0,1784.954,355h-.56v-.3l.261-.187a12.141,12.141,0,1,1-5.932,12.908,18.427,18.427,0,0,1-.224-2.015l.187-.373.261.336a10.773,10.773,0,0,0,2.238,6.6,11.184,11.184,0,0,0,7.984,4.626,11.563,11.563,0,0,0,12.684-9.551,8.019,8.019,0,0,0,.149-1.828Z" transform="translate(-1731.904 -302.096)" fill="#e8e7e6"/><path d="M1775.448,273.86l-.075.56-.074.224-.149.709a78.916,78.916,0,0,0,2.388,9.289,21.594,21.594,0,0,0,1.045,3.1l-.187.224c-.746,0-1.492-.112-2.2-.149l-.112-.224c.746-.783.6-1.716.485-2.686a27.273,27.273,0,0,0-1.007-3.805c-.672-2.537-1.306-5.074-2.015-7.611a25,25,0,0,0-1.828-5.074c-.373-.672-.821-1.343-1.231-1.977l-.187-.336.485.075a17.961,17.961,0,0,0,2.873.709l1.119-.075.373.149.373.261-.6.112c-.821,0-.821,0-.634.821q.56,2.8,1.231,5.6Z" transform="translate(-1726.763 -247.633)" fill="#a08769"/><path d="M1749.34,333.1l-.224.448a4.146,4.146,0,0,0-.709,2.164,26.789,26.789,0,0,0-.149,5.186,16.034,16.034,0,0,0,.149,2.313l.149.56v.485c-.336,1.045-.672,2.127-1.007,3.171l-.336.261-1.119.075-.3-.112.224-.224a4.241,4.241,0,0,0,1.306-.634c.821-.56.672-1.418-.074-1.679l-.336-.485c-.261-1.082-.336-2.164-.6-3.246-.485-2.164-.933-4.328-1.306-6.529l-.112-1.119.261-.336c.56-.037,1.119-.112,1.679-.149.746-.075,1.492-.112,2.2-.149h.3Z" transform="translate(-1710.839 -289.637)" fill="#c8936b"/><path d="M1749.9,345.466l-.6-.821c.149-.6.336-1.157.522-1.716,1.194-3.917,2.35-7.834,3.656-11.714.821-2.462,1.529-4.925,2.388-7.349l.671-1.306.933-.56.224.224-.224.672c-1.007,3.1-2.164,6.193-3.022,9.364-.634,2.238-1.343,4.4-2.015,6.641-.6,2.052-1.268,4.1-1.9,6.118l-.634.485Z" transform="translate(-1713.597 -282.678)" fill="#3f77ac"/><path d="M1788.6,322.967v.149c-.037.522-.112.6-.6.672-3.432.485-6.79,1.156-10.222,1.641q-1.623.224-3.246.56l-.671.485-.485.522a18.01,18.01,0,0,0-1.567,1.38h-.336l-.448-.522-.3-.112v.3a7.157,7.157,0,0,1,.522.56v.261c.037,0-.224.037-.224.037l-.933-.858v-.261c.037,0,1.082-1.231,1.082-1.231h.522l.6.709h.261v-.224l-.672-.746-.074-.485.224-.634a1.684,1.684,0,0,1,1.119-1.268,15.582,15.582,0,0,1,2.91-.634c.746-.112,1.455-.187,2.2-.3l.821.224a3.808,3.808,0,0,0,2.574.97,11.514,11.514,0,0,0,3.582-.448,5.838,5.838,0,0,0,1.865-.933,2.054,2.054,0,0,0,.784-1.194l.112-.187.15.149a2.352,2.352,0,0,1,.41,1.306Z" transform="translate(-1726.637 -282.302)" fill="#3f77ac"/><path d="M1764.18,382.719h-10.968a1.82,1.82,0,0,0-.112-.261h0c.3-.97.074-.821,1.044-.821,1.865,0,3.693,0,5.559-.037h15.146c.522,0,.746.149.858.522.149.448-.112.746-.6.672H1764.18Z" transform="translate(-1715.98 -320.043)" fill="#3f77ac"/><path d="M1794.2,334a16.6,16.6,0,0,1,11.118,4.514,16.811,16.811,0,0,1,2.052,2.238l-.149.746-.522-.112a11.938,11.938,0,0,0-3.917-3.805,16.165,16.165,0,0,0-7.685-2.5,15.873,15.873,0,0,0-10.334,2.723l-1.045.821h-.411c-.522-.709-.634-.56.149-1.082a18.51,18.51,0,0,1,8.021-3.283,20.107,20.107,0,0,1,2.724-.224Z" transform="translate(-1734.654 -290.202)" fill="#3f77ac"/><path d="M1776.1,339.137l.261.224c1.119,1.268,2.164,2.611,3.245,3.917,1.94,2.35,3.955,4.626,5.932,6.939.858,1.007,1.754,2.015,2.649,3.022v.485c-.671.6-.56.709-1.268-.075-3.022-3.32-5.857-6.827-8.767-10.259-.858-1.007-1.828-1.977-2.649-3.022v-.821a3.95,3.95,0,0,0,.411-.336l.187-.112Z" transform="translate(-1730.022 -293.399)" fill="#3f77ac"/><path d="M1690.346,342.952l-.746-.224v-.336c.224-.933.522-1.828.821-2.761,1.529-4.962,3.1-9.924,4.626-14.885l.224-.634.3-.112.187.075.3.634c-.56,1.791-1.082,3.581-1.6,5.372-1.008,3.507-2.015,6.976-3.022,10.446-.186.634-.373,1.306-.56,1.94l-.522.41Z" transform="translate(-1676.17 -283.932)" fill="#3f77ac"/><path d="M1763.352,298.538l-.149.746-.261.149h-.3l-1.119-.3a14.9,14.9,0,0,1-5.074-4.178,25.111,25.111,0,0,1-2.35-3.283l.112-.373h.485a7.8,7.8,0,0,0,1.9,2.089,21.313,21.313,0,0,0,3.581,2.761,8.974,8.974,0,0,0,2.2.97C1762.979,297.269,1763.315,297.642,1763.352,298.538Z" transform="translate(-1716.606 -263.432)" fill="#a08769"/><path d="M1765.508,295.635l-.3.187a11.279,11.279,0,0,1-2.35-1.343,28.691,28.691,0,0,1-3.059-2.574l.075-.373a34.775,34.775,0,0,0,3.805-1.231l.448.187a7.537,7.537,0,0,1,.671,2.015c.224.97.411,1.9.634,2.873v.261Z" transform="translate(-1720.18 -262.805)" fill="#aa5f44"/><path d="M1739.9,379.838a3.884,3.884,0,0,1,.56-2.164l.448-.075.6.6.112.56a2.362,2.362,0,0,0,1.6,3.246,2.338,2.338,0,0,0,2.686-1.268l.522-.3h.709l.261.336a3.7,3.7,0,0,1-2.425,2.5,3.785,3.785,0,0,1-5.036-3.47Z" transform="translate(-1707.704 -317.536)" fill="#e8e7e6"/><path d="M1778.571,250.668l-.187.187a25.49,25.49,0,0,1-2.947.448,15.753,15.753,0,0,1-2.649.037,10.551,10.551,0,0,1-3.843-.783l-.746-.672a15.753,15.753,0,0,1,2.2-.336c1.418-.112,2.835-.112,4.29-.149A6.285,6.285,0,0,1,1778.571,250.668Z" transform="translate(-1725.446 -237.163)" fill="#c5a981"/><path d="M1781.655,275.991l-.224-.522c-.41-1.9-.821-3.768-1.231-5.671l.224-.3h1.269c.671.224,1.38.485,2.089.672-.41.522-.149,1.045-.075,1.567l-.261.634-1.231,1.082a1.564,1.564,0,0,0-.41,1.753l-.112.821Z" transform="translate(-1732.969 -249.765)" fill="#c5a981"/><path d="M1793.267,261.3l1.082.933v.261c-.784.709-1.567,1.455-2.388,2.089h-.373l-.56-.112a6.309,6.309,0,0,0-2.052.224h-.373a7.872,7.872,0,0,1-1.6-.448v-.187l.261-.112a17.988,17.988,0,0,0,5.521-2.5l.56-.149Z" transform="translate(-1737.232 -244.624)" fill="#c5a981"/><path d="M1755.043,277.378l-1.343.672a70.475,70.475,0,0,1,3.171-7.349,19.933,19.933,0,0,1,1.194,2.761l-1.194.784-.821.97a16.918,16.918,0,0,1-1.045,2.2Z" transform="translate(-1716.356 -250.517)" fill="#7da836"/><path d="M1698.969,309.553l-.671.97-.224.075a13.821,13.821,0,0,1-2.5-1.9l-.074-.448c.3-.522.559-1.045.9-1.567a3.568,3.568,0,0,1,2.052-1.38l.56.224v.075l.336.821-.746.3-.746.3c-.522.261-.634.746-.783,1.231l.224.261c.56.336,1.082.671,1.679,1.007Z" transform="translate(-1679.868 -272.209)" fill="#3f77ac"/><path d="M1729.371,275.246a2.605,2.605,0,0,1-.112-1.679l.411.186a11.289,11.289,0,0,0,3.32-.746c.6-.3,1.231-.522,1.828-.9l.3-.112c.187.485.336.933.522,1.418l-.224.187a11.918,11.918,0,0,1-2.35,1.045,19.211,19.211,0,0,1-3.246.634l-.41-.075Z" transform="translate(-1700.98 -251.332)" fill="#7da836"/><path d="M1763.3,269.6l2.015,3.693a39.175,39.175,0,0,1,3.805,10.3l-.821-.448-.186-.41a31.4,31.4,0,0,0-.933-4.216l-.56-1.343-.746-.224-.3-.112a8.167,8.167,0,0,1-.522-1.865l.149-.448v-.485l-.336-.56c-.448-1.119-.933-2.2-1.492-3.283l-.075-.56Z" transform="translate(-1722.374 -249.827)" fill="#c5a981"/><path d="M1713.32,331.319c-2.462-.037-4.887.187-7.349.149-.485,0-.485,0-.373-.485l.112-.336.3-.187a38.39,38.39,0,0,0,5.074-.075c.97,0,1.9-.149,2.873-.187l.373.336c0,.671-.037.746-.746.746h-.261Z" transform="translate(-1686.161 -287.819)" fill="#3f77ac"/><path d="M1805.4,267.623a5.488,5.488,0,0,0-2.2-.037c-.858,0-1.716-.075-2.611-.149l-.187-.149.112-.186a23.864,23.864,0,0,0,2.537-2.2h.447a3.888,3.888,0,0,1,1.642,1.977l.261.709Z" transform="translate(-1745.633 -246.881)" fill="#c5a981"/><path d="M1730.027,368.489h-1.38a7.891,7.891,0,0,0-.746-.448v-.3l.187-.037a13.082,13.082,0,0,0,4.663-.3,21.728,21.728,0,0,0,2.239-.522l.933-.485.783.112-.149.783a3.827,3.827,0,0,1-1.977.783c-1.156.149-2.313.336-3.469.41Z" transform="translate(-1700.181 -310.514)" fill="#aa5f44"/><path d="M1744.246,388.783a4.144,4.144,0,0,0,4.066-2.873l.6-.41h.671l.261.037-.149.224a11.241,11.241,0,0,1-2.388,2.052c-1.455,1.082-2.873,2.164-4.328,3.246a2.331,2.331,0,0,1-1.716.336l-.261-.224.186-.41,1.082-.783,1.343-1.007.671-.187Z" transform="translate(-1708.394 -322.489)" fill="#aa5f44"/><path d="M1684.638,376.306l.3-.709a2.121,2.121,0,0,1,1.268-.6l.858.336.709,1.045a1.316,1.316,0,0,1-1.231,1.753,1.792,1.792,0,0,1-1.94-1.828Z" transform="translate(-1673.035 -315.906)" fill="#e8e7e6"/><path d="M1729.637,277.691a19.361,19.361,0,0,0,3.843-.709,14.29,14.29,0,0,0,2.164-1.007l.187-.075v.224a14,14,0,0,1-.6,1.6l-.821.373c-.933.336-1.865.671-2.835.933h-.485a2.326,2.326,0,0,1-1.492-1.343Z" transform="translate(-1701.247 -253.777)" fill="#9fbe5b"/><path d="M1735.12,270.245a10.056,10.056,0,0,1-4.178,1.6l-1.343.187-.3-.261.112-.821.075-.186,1.119-.261a2.894,2.894,0,0,0,1.679-.149l.9-.634.709-.261.746-.261h.336l.149,1.045Z" transform="translate(-1701.058 -249.576)" fill="#afc76c"/><path d="M1760.531,284.2l.149.224a9.492,9.492,0,0,0,.485,1.679l-.186.336-2.462.783-.858.261-.448-.112-.411-.634.112-.3a25.846,25.846,0,0,0,3.507-2.126l.149-.075Z" transform="translate(-1718.299 -258.98)" fill="#c8936b"/><path d="M1724.379,264.023a4.389,4.389,0,0,1,.373-1.94,1.267,1.267,0,0,1,1.082-.783l.485.6c-.149.522-.336,1.007-.485,1.53a3.215,3.215,0,0,0,.075,2.686v.261l-.15.858-.112.186-.149-.112a5.914,5.914,0,0,1-1.119-3.32Z" transform="translate(-1697.966 -244.624)" fill="#a08769"/><path d="M1808.712,380.518l1.231.112.634-.3.187-.634a1.154,1.154,0,0,0-1.082-.858h-.9l-.187-.3a1.792,1.792,0,0,1,1.791-.858,1.707,1.707,0,0,1,1.53,1.306,1.821,1.821,0,0,1-.56,1.94,1.752,1.752,0,0,1-2.015.261Z" transform="translate(-1750.774 -317.581)" fill="#e8e7e6"/><path d="M1713.558,322.473l-.373-.112a10.637,10.637,0,0,1-2.089-.97v-.261a7.449,7.449,0,0,1,.373-.783l.261-.112.448.261a1.473,1.473,0,0,0,1.791-.261l.784-.634.336.112.411.933-.112.3-.97.97-.783.485Z" transform="translate(-1689.645 -281.174)" fill="#3f77ac"/><path d="M1768.9,352.789l.336-.97a16.455,16.455,0,0,1,1.754-2.164,10.234,10.234,0,0,1,1.38-1.455h.485c.41.6.448.6-.112,1.045a10.916,10.916,0,0,0-2.574,3.395l-.411.709-.41.112-.448-.634Z" transform="translate(-1725.885 -299.104)" fill="#3f77ac"/><path d="M1711.17,303.86l-.224.9-.186.709-.187.336a5.88,5.88,0,0,1-2.127.821l-.746-.522.112-.149.672-.41.41-1.082a1.111,1.111,0,0,1,.9-.97l.9-.187c.448,0,.522.075.522.56Z" transform="translate(-1687.517 -270.955)" fill="#e3a575"/><path d="M1764.387,235.614l-.187-.672c.224-1.119.485-2.238.709-3.358a70.124,70.124,0,0,1,2.947-9.513l.149-.41.187-.261.3.373-.075.3a101.178,101.178,0,0,0-3.358,10.334,23.857,23.857,0,0,0-.56,2.835Z" transform="translate(-1722.938 -219.609)" fill="#fcfcfb"/><path d="M1745.736,330.48l-.336-.261.672-.56c.783-.112,1.567-.149,2.35-.261,1.343-.187,2.723-.187,4.067-.3l.261.3c-.186.56-.186.56-.783.6-2.127.149-4.216.336-6.268.485Z" transform="translate(-1711.152 -287.13)" fill="#3f77ac"/><path d="M1757.3,282.017l.074-.261c.336-.672.672-1.38.97-2.089l.783-.858,1.231-.709.6,1.343-.075.336A23.916,23.916,0,0,1,1757.3,282.017Z" transform="translate(-1718.613 -255.156)" fill="#9fbe5b"/><path d="M1704.719,317a1.662,1.662,0,0,1,1.679,1.231,1.026,1.026,0,0,1-.9,1.418,1.723,1.723,0,0,1-1.9-1.53,1.077,1.077,0,0,1,1.119-1.119Z" transform="translate(-1684.946 -279.544)" fill="#e8e7e6"/><path d="M1791.637,260.36l-.373.149a17.6,17.6,0,0,1-5.783,2.612l-.149.187-.746-.261-.187-.149.224-.149a22.866,22.866,0,0,0,4.328-1.753,4.779,4.779,0,0,0,1.641-1.194h.3Z" transform="translate(-1735.602 -243.683)" fill="#a08769"/><path d="M1757.272,368.237c.186.485.373.933.559,1.418a19.521,19.521,0,0,0,.9,2.015l.373.261.336.56-.373.41c-.821,0-.821,0-1.119-.709a3.666,3.666,0,0,0-1.157-1.567l-.186-.709c.224-.56.373-1.119.56-1.716h.075Z" transform="translate(-1718.174 -311.643)" fill="#c8946a"/><path d="M1733.7,282.043c.97-.187,1.828-.6,2.761-.858a14.257,14.257,0,0,1,1.343-.485,17.294,17.294,0,0,1-.746,1.94c-.709.112-1.38.41-2.089.6l-.336.187-.485-.9-.448-.485Z" transform="translate(-1703.817 -256.786)" fill="#7da836"/><path d="M1746.2,266.989a7.576,7.576,0,0,1-.373-3.283l.112-.746.634-.485.933-.075.149.261c-.3.672-.6,1.343-.858,2.015a6.1,6.1,0,0,0-.336,1.679l-.261.672Z" transform="translate(-1711.396 -245.313)" fill="#9e8869"/><path d="M1748.755,382.73a1.8,1.8,0,0,1-2.276,1.007,1.821,1.821,0,0,1-1.007-2.537l1.045,1.082a1.006,1.006,0,0,0,1.268.522h.97Z" transform="translate(-1711.074 -319.793)" fill="#e8e7e6"/><path d="M1779.1,368.063a10.285,10.285,0,0,1,.709-2.537,12.156,12.156,0,0,1,3.059-4.44l.261-.187.261.149v.261l-.56.485a11.241,11.241,0,0,0-3.208,5.671l-.187.6-.187.3-.149-.336Z" transform="translate(-1732.28 -307.066)" fill="#e8e7e6"/><path d="M1755.535,325.442a7.689,7.689,0,0,1-2.537-.634v-.336c-.037,0,.858-.672.858-.672l.41.075.933.858h.6c0,.037.97-.709.97-.709l.261-.112-.075.261-.336.634A.877.877,0,0,1,1755.535,325.442Z" transform="translate(-1715.915 -283.807)" fill="#aa5e43"/><path d="M1733.306,365.5a2.607,2.607,0,0,1-1.679.075,5.965,5.965,0,0,1-2.126-1.306l.075-.373,1.082.075a8.6,8.6,0,0,0,2.276,1.306l.373.187Z" transform="translate(-1701.184 -308.947)" fill="#aa5e43"/><path d="M1747.3,373.149l-.411,1.156-.336.187-.709.186-.41-.075-.634-.6.075-.3.858-.56.411-.112.97-.037Z" transform="translate(-1710.776 -314.652)" fill="#e8e7e6"/><path d="M1756.965,377.176h-1.418l-.448-1.231.373-1.045a3.724,3.724,0,0,1,1.53,2.313Z" transform="translate(-1717.233 -315.843)" fill="#e8e7e6"/><path d="M1731.8,285.724l.149-.224.821.485c.261.6.56,1.157.821,1.716l.709.672v.373a2.205,2.205,0,0,1-.3.149l-.261-.224a9.02,9.02,0,0,1-1.828-2.425l-.112-.336v-.149Z" transform="translate(-1702.626 -259.795)" fill="#9e8868"/><path d="M1759.4,251.722l.373-.41,1.306-.112.187.187c-.149.634-.261,1.306-.411,1.94l-.112.187-.149-.112-1.082-1.268-.112-.373Z" transform="translate(-1719.929 -238.292)" fill="#9e8869"/><path d="M1790.1,271.4a5.669,5.669,0,0,1,2.425-.6h.336l.41.373-.261.41a2.933,2.933,0,0,1-2.164.261Z" transform="translate(-1739.176 -250.58)" fill="#fdfdfd"/><path d="M1741.528,266.667c-.6.149-1.194.41-1.828.522a3.886,3.886,0,0,0,.075-1.6l.485-.112.634-.373c.224.522.411,1.045.634,1.53Z" transform="translate(-1707.578 -247.006)" fill="#7da836"/><path d="M1744.79,378.386l-.634-.746-1.455-1.455v-.41l.447-.075c.6.56,1.194,1.119,1.754,1.679.224.224.187.41-.112,1.007Z" transform="translate(-1709.46 -316.345)" fill="#3f77ac"/><path d="M1768.7,332.294l.41-1.156.224-.037.932,1.082v.3l-.634.709-.224.037-.671-.746Z" transform="translate(-1725.76 -288.383)" fill="#3f77ac"/><path d="M1730.167,268.688l-1.007.3-.149.187a7.107,7.107,0,0,1-.41-1.53l.336-1.268.074-.075.112.187.261.97A1.835,1.835,0,0,0,1730.167,268.688Z" transform="translate(-1700.62 -247.758)" fill="#83ac3f"/><path d="M1738.714,287.2c-.224.522-.485,1.045-.746,1.567h-.746c0,.037-.522-.9-.522-.9l.41-.149,1.194-.448.373-.075Z" transform="translate(-1705.698 -260.861)" fill="#7da836"/><path d="M1740.9,394.345l.672-1.045.149.037.783.6v.261l-.9.634-.411.149Z" transform="translate(-1708.331 -327.379)" fill="#e2a675"/><path d="M1740.769,263.47l-.149.261-.932.187-.187-1.119.336-.3c.709,0,.709,0,.858.709v.3Z" transform="translate(-1707.453 -245.376)" fill="#9fbd59"/><path d="M1738.4,286.322c-.448.187-.9.41-1.38.56l-.6.112-.224-.373.3-.261,1.791-.56h.336l-.224.56Z" transform="translate(-1705.384 -259.984)" fill="#afc66a"/><path d="M1747.9,327.958l1.156-.858h.261c.485.224,1.007.41,1.492.672-.97.112-1.9.224-2.873.3v-.112Z" transform="translate(-1712.719 -285.876)" fill="#c69369"/><path d="M1729.856,368.046l-.97-.075-.186-.6.932-.075.933.485.149.186-.186.037Z" transform="translate(-1700.682 -311.078)" fill="#e2a675"/><path d="M1750.737,293.779c.261-.56.522-1.082.784-1.679l.634,1.082-.112.149-1.268.485h-.075Z" transform="translate(-1714.475 -263.933)" fill="#c6926a"/><path d="M1793.6,274.875l.373-.075.448.3.074.3.075.41-.485.037-.112-.075Z" transform="translate(-1741.37 -253.087)" fill="#f6f6f9"/><path d="M1743.848,264.33l-.448-1.38.149-.149h.373l.187.224q-.112.616-.224,1.343Z" transform="translate(-1709.898 -245.564)" fill="#c49068"/><path d="M1778.07,313l.075.3-.187.56h-.783l-.075-.3.187-.187.261-.037Z" transform="translate(-1731.026 -277.036)" fill="#c0a47f"/><path d="M1796.911,275.545l-.187-.187-.224-.634.074-.224.336.037.3.746Z" transform="translate(-1743.188 -252.899)" fill="#f4f4f4"/><path d="M1785.323,289.977a1.741,1.741,0,0,1-.448-1.977C1785.025,288.672,1785.174,289.306,1785.323,289.977Z" transform="translate(-1735.817 -261.363)" fill="#e5e1df"/><path d="M1727.4,366.219l.149-1.007.149-.112.411.336-.149.149Z" transform="translate(-1699.867 -309.699)" fill="#db9f70"/><path d="M1743.6,392.2l1.156.56.149.149-.224.187Z" transform="translate(-1710.024 -326.689)" fill="#a45b41"/><path d="M1791.537,274.7c.41.149.485.261.783,1.007l-.447-.112-.373-.858Z" transform="translate(-1740.054 -253.025)" fill="#f0efee"/><path d="M1717.9,304.933l.037-.821.149-.112.186.186Z" transform="translate(-1693.912 -271.394)" fill="#3e75a9"/><path d="M1798.748,274.957l-.448-.97.074-.187.112.075.41,1.007Z" transform="translate(-1744.317 -252.46)" fill="#d9d6d6"/><path d="M1800.073,274.456l-.373-1.156Z" transform="translate(-1745.194 -252.147)" fill="#cfc8c8"/><path d="M1748.859,378.549l-.261.373-.3-.336.448-.187Z" transform="translate(-1712.97 -318.037)" fill="#d6d4d6"/><path d="M1790.9,275.4c-.373,0-.448-.261-.41-.9h.037Z" transform="translate(-1739.412 -252.899)" fill="#d6d1d1"/><path d="M1799.384,232.415a3.39,3.39,0,0,1-2.126,3.32,1.664,1.664,0,0,1-2.388-1.231,3.193,3.193,0,0,1,.56-2.985,3.237,3.237,0,0,1,2.425-1.119,1.512,1.512,0,0,1,1.53,1.53Z" transform="translate(-1742.081 -225.252)" fill="#fff"/><path d="M1824.074,229.035v.373a1.258,1.258,0,0,1-1.418,1.343,4.169,4.169,0,0,1-1.641-.336,2.677,2.677,0,0,1-1.567-3.1l.3-1.007a1.726,1.726,0,0,1,2.425-.783,3.311,3.311,0,0,1,1.754,2.388l.149,1.157Z" transform="translate(-1757.556 -222.059)" fill="#fff"/><path d="M1809.952,228.323c.261-.783.485-1.492.709-2.2l.41-.373.933-.149-.149.41c-.373.9-.746,1.828-1.156,2.723l-.187.858v1.119l-.149.261-.821.224-.187-.149v-1.119l-.261-.9c-.41-.672-.783-1.38-1.194-2.052l.112-.336.821-.3.336.149c.224.6.485,1.157.783,1.791Z" transform="translate(-1750.335 -222.242)" fill="#fff"/><path d="M1787.116,230.194l-.112.373a11.4,11.4,0,0,1-.709,1.53,4.468,4.468,0,0,0-.6,2.835l-.261.224c-.932-.187-1.007-.187-.932-1.157a5.771,5.771,0,0,0-.6-2.35c-.336-.858-.634-1.716-1.007-2.649l1.231.672.112.261c.261.746.522,1.492.783,2.35.261-.634.485-1.231.709-1.791l.485-.336h.9Z" transform="translate(-1734.662 -224.374)" fill="#fff"/><path d="M1725.011,251.719h-.149l-.261-.149.261-.187.634-.112a4.165,4.165,0,0,0,1.567-.672h.373l-.187.3a5.033,5.033,0,0,1-2.276.783Z" transform="translate(-1698.112 -237.916)" fill="#3d1c18"/><path d="M1724,245.657l.448-1.082.261-.075v.261l-.3.672.3.6h.261a1.622,1.622,0,0,0,.224.261l-.261.149a.831.831,0,0,1-.933-.783Z" transform="translate(-1697.735 -234.091)" fill="#41201a"/><path d="M1733.11,264.934l-.3-.037-.112-.261.224-.075.709-.187.3-.075-.037.336Z" transform="translate(-1703.19 -246.505)" fill="#3e1e1a"/><path d="M1731.222,242.5l-.261.336-.261-.261.3-.373Z" transform="translate(-1701.936 -232.649)" fill="#49261e"/><path d="M1721.1,242.1l.187-.3.187.3-.187.3Z" transform="translate(-1695.918 -232.399)" fill="#45231d"/><path d="M1789.553,287.523a5.626,5.626,0,0,1-1.418-.261L1787.8,287l.112-.3.261.112.336.224a4.817,4.817,0,0,0,2.985-.3,6.955,6.955,0,0,0,2.537-1.716l.224-.224h.3v.3a7.555,7.555,0,0,1-3.88,2.313l-1.082.149Z" transform="translate(-1737.734 -259.357)" fill="#371a19"/><path d="M1800.243,234.638l-.3,1.306-.671.6-1.007-.373a2.534,2.534,0,0,1,.112-2.2l.3-.336c.709-.522,1.343-.3,1.492.56v.485Z" transform="translate(-1744.17 -227.102)" fill="#4078ac"/><path d="M1824.964,230.477v.373c-.037,0-.6.783-.6.783l-1.045-.3a2.045,2.045,0,0,1-.522-1.642l.186-.821,1.045-.373.672.709A2.758,2.758,0,0,1,1824.964,230.477Z" transform="translate(-1759.677 -224.06)" fill="#4078ac"/></g><path d="M1210.12,106.96a6.26,6.26,0,1,1-6.26-6.26A6.254,6.254,0,0,1,1210.12,106.96Z" transform="translate(-998.815 -89.824)" fill="#2d2d2e"/><g transform="translate(196.524 10.876)" clip-path="url(#c)"><path d="M1207.487,116.774h0l-.087-.952,5.395-6.606.952-.115.115.952-5.423,6.635Z" transform="translate(-1204.573 -106.677)" fill="#2d2d2e"/></g><path d="M1208.92,106.46a6.26,6.26,0,1,1-6.26-6.26A6.254,6.254,0,0,1,1208.92,106.46Z" transform="translate(-999.876 -89.469)" fill="#737575"/><g transform="translate(198.426 10.731)" clip-path="url(#d)"><path d="M1206.315,116.274h0l-.115-.952,5.423-6.606.952-.115.115.952-5.423,6.635Z" transform="translate(-1203.373 -106.177)" fill="#2d2d2e"/></g></g></g></g></svg>