<svg xmlns="http://www.w3.org/2000/svg" width="284.329" height="154.649" viewBox="0 0 284.329 154.649"><g transform="translate(-0.068 95.487) rotate(-20)"><path d="M281.543,33.927c-1.216-5.129,2.285-21.336-5.983-22.141-14.547-.805-29.883-13.1-43.149-4.767-4.5-8.12-17.079-1.808-24.887-3.616-4.29-.921-8.58,1.578-13.15,1.562-4.274.69-9.961-1.545-12.493,3.172-6.9-2.318-21.3-1.611-26.2,3.9-6.608-1.857-21.3-.822-25.758,4.537-6.608-1.792-20.909-1.052-25.626,4.011-6.559-1.94-20.317-2.022-25.462,2.482-6.756-2.3-19.183-3.715-25.215,0-7.183-3.09-17.506-5.786-24.886-3.551C24.328,16.224,9.468,10.093,4.9,13.331-.608,18.657,6.033,26.942,4.57,33.8c1.167,7.282-6.92,20.958,5.079,21.533,5.013.247,11.473,6.049,16.224,1.742,22.9,15.517,83.388,2.975,111.628-1.184,21.336-5.622,45.746-4.52,65.98-12.23,3.32,4.833,9.337,1.184,13.956,1.644,4.816-.789,10.339,2.663,14.186-1.2,5.934,5.309,16.257,5.194,21.533-.953-1,7.66,7.906,7.035,12.821,8.646,8.449,4.241,12.443-3.978,9.534-11.243a6.4,6.4,0,0,0,6.016-6.657Z" transform="translate(-2.236 -2.134)" fill="#f05f7c"/><path d="M279.307,31.793l.427-.1a18.9,18.9,0,0,1-.279-3.994c0-1.512.049-3.222.049-4.964a29.811,29.811,0,0,0-.953-8.761,7.788,7.788,0,0,0-1.841-3.222,5.325,5.325,0,0,0-3.337-1.529h0c-5.359-.3-10.882-2.186-16.4-4.027s-11.046-3.616-16.421-3.616A19.32,19.32,0,0,0,229.962,4.54l.23.378.378-.214a7.985,7.985,0,0,0-3.978-3.6A14.092,14.092,0,0,0,221.25.2c-4.077,0-8.63,1-12.509,1a15.626,15.626,0,0,1-3.37-.329h0a10.271,10.271,0,0,0-2.1-.214c-3.764,0-7.38,1.775-11.079,1.775h-.115a12.512,12.512,0,0,1-2.12.148c-1.2,0-2.482-.1-3.748-.1a10.623,10.623,0,0,0-3.9.575,5.8,5.8,0,0,0-3.057,2.762l.395.214.148-.411a31.009,31.009,0,0,0-9.353-1.266,38.558,38.558,0,0,0-9.879,1.233,15.488,15.488,0,0,0-7.446,4.044l.329.3.115-.427a29.7,29.7,0,0,0-7.726-.871,42.565,42.565,0,0,0-10.6,1.3c-3.337.888-6.23,2.252-7.89,4.241l.345.279.115-.427a32.508,32.508,0,0,0-8.2-.9,42.71,42.71,0,0,0-10.158,1.167c-3.189.805-5.983,2.038-7.693,3.879l.329.3.132-.427a39.169,39.169,0,0,0-10.536-1.282c-5.9,0-12.082,1.036-15.336,3.846l.3.329.148-.411a48.477,48.477,0,0,0-14.613-2.3c-4.192,0-8.186.641-10.98,2.351l.23.378.181-.411c-5.375-2.3-12.476-4.405-18.887-4.405a21.672,21.672,0,0,0-6.3.838l.132.427.263-.345a42.279,42.279,0,0,0-9.106-4.6,34.628,34.628,0,0,0-11.21-2.6,6.921,6.921,0,0,0-4.027,1H2.433a.166.166,0,0,1-.016.049A7.506,7.506,0,0,0,0,16.736,27.958,27.958,0,0,0,1.068,23.13,27,27,0,0,1,2.1,29.492a9.78,9.78,0,0,1-.214,2.088v.082c-.016,0,0,.082,0,.082a9.627,9.627,0,0,1,.115,1.578,37.6,37.6,0,0,1-.855,6.46A38.23,38.23,0,0,0,.3,46.488a7.453,7.453,0,0,0,1.463,4.931c1.1,1.315,2.926,2.1,5.638,2.236a19.866,19.866,0,0,1,5.786,1.71,18.111,18.111,0,0,0,6.312,1.627A6.4,6.4,0,0,0,23.933,55.3l-.3-.329-.247.362c8.416,5.687,21.665,7.627,36.475,7.627,26.218,0,57.433-6.082,75.448-8.745h.033c21.254-5.622,45.664-4.5,66.03-12.246l-.164-.411-.362.247a5.879,5.879,0,0,0,2.531,2.153,7.394,7.394,0,0,0,2.992.559c2.663,0,5.507-.937,7.939-.921a7.147,7.147,0,0,1,.838.033h.1a9.293,9.293,0,0,1,1.529-.115c2.449,0,5.112.789,7.66.789a6.978,6.978,0,0,0,5.244-2.005l-.312-.312-.3.329a16.2,16.2,0,0,0,10.75,3.945,14.943,14.943,0,0,0,11.408-4.931l-.329-.279L250.459,41a10.005,10.005,0,0,0-.082,1.184,5.588,5.588,0,0,0,1.479,3.994c1.381,1.447,3.485,2.12,5.638,2.614,2.153.477,4.405.773,6.082,1.331l.132-.411-.2.394a10.157,10.157,0,0,0,4.5,1.2,5.967,5.967,0,0,0,4.915-2.433,9.358,9.358,0,0,0,1.693-5.638,13.357,13.357,0,0,0-.97-4.931l-.411.164v.444a6.846,6.846,0,0,0,6.46-6.772v-.411l-.427.1h-.444v.329a5.959,5.959,0,0,1-5.605,5.885l-.625.033.23.575a12.349,12.349,0,0,1,.92,4.6,8.567,8.567,0,0,1-1.512,5.112,5.138,5.138,0,0,1-4.208,2.088,9.165,9.165,0,0,1-4.109-1.118h-.033l-.033-.016c-2.416-.789-5.622-1.052-8.2-1.907A7.569,7.569,0,0,1,252.5,45.6a4.6,4.6,0,0,1-1.233-3.386,8.691,8.691,0,0,1,.066-1.085l.2-1.463-.953,1.118a14.069,14.069,0,0,1-10.75,4.619,15.3,15.3,0,0,1-10.158-3.715l-.312-.279-.3.3a6.108,6.108,0,0,1-4.619,1.742c-2.367,0-5.03-.789-7.66-.789a9.607,9.607,0,0,0-1.677.132l.066.427.049-.444a8.409,8.409,0,0,0-.921-.049c-2.63,0-5.474.937-7.939.921a6.255,6.255,0,0,1-2.63-.493,5.141,5.141,0,0,1-2.153-1.857l-.2-.279-.329.115c-20.12,7.676-44.513,6.575-65.931,12.213l.115.427-.066-.427c-18.048,2.663-49.231,8.728-75.317,8.728-14.745,0-27.862-1.956-35.982-7.479l-.279-.2-.263.23a5.43,5.43,0,0,1-3.846,1.463,17.558,17.558,0,0,1-6-1.562,20.648,20.648,0,0,0-6.065-1.759c-2.581-.132-4.093-.855-5.013-1.923a6.574,6.574,0,0,1-1.249-4.356,37.861,37.861,0,0,1,.855-6.542,37.937,37.937,0,0,0,.855-6.624,9.612,9.612,0,0,0-.132-1.71l-.427.066.427.1a10.416,10.416,0,0,0,.23-2.268A28.44,28.44,0,0,0,1.89,22.933,26.679,26.679,0,0,1,.855,16.753a6.8,6.8,0,0,1,2.088-5.227l-.312-.312.263.362a6.214,6.214,0,0,1,3.518-.838c3.041,0,7.15,1.1,10.9,2.531A41.372,41.372,0,0,1,26.2,17.755l.181.132.214-.066a20.949,20.949,0,0,1,6.049-.805c6.213,0,13.249,2.055,18.542,4.34l.214.082.2-.115c2.548-1.578,6.427-2.219,10.52-2.219a47.726,47.726,0,0,1,14.334,2.268l.247.082.2-.164c2.893-2.564,8.975-3.649,14.761-3.633a38.579,38.579,0,0,1,10.29,1.249l.263.082.181-.2c1.5-1.627,4.159-2.844,7.265-3.616A41.663,41.663,0,0,1,119.6,14.04a31.954,31.954,0,0,1,7.972.871l.279.066.181-.214c1.447-1.759,4.208-3.09,7.446-3.961a41.3,41.3,0,0,1,10.372-1.266,28.974,28.974,0,0,1,7.479.838l.263.082.181-.2a14.683,14.683,0,0,1,7.019-3.781,37.187,37.187,0,0,1,9.632-1.2A30.445,30.445,0,0,1,179.5,6.5l.345.115.181-.329a4.847,4.847,0,0,1,2.6-2.367,9.861,9.861,0,0,1,3.567-.526c1.216,0,2.5.1,3.748.1A14.749,14.749,0,0,0,192.2,3.34l-.066-.427v.444h.049c3.961,0,7.611-1.775,11.079-1.775a9.548,9.548,0,0,1,1.923.2l.1-.427-.1.427a15.629,15.629,0,0,0,3.567.362c4.027,0,8.564-1,12.509-1a12.973,12.973,0,0,1,5,.822A6.985,6.985,0,0,1,229.8,5.164l.23.411.395-.247A18.649,18.649,0,0,1,240.531,2.5c5.194,0,10.635,1.742,16.142,3.583,5.523,1.841,11.112,3.764,16.635,4.077V9.717a4.01,4.01,0,0,1-.016.444,4.451,4.451,0,0,1,2.811,1.282,8.9,8.9,0,0,1,2.088,4.767,38.481,38.481,0,0,1,.444,6.591c0,1.742-.049,3.435-.049,4.964a19.25,19.25,0,0,0,.312,4.208l.427-.1h-.444a4,4,0,0,0,.444,0Z" transform="translate(0)" fill="#020202"/><path d="M57.63,140.184c-1.94-.608-2.926-.937-4.866-1.627v-9.649c1.94.69,2.926,1,4.866,1.627.575,2.811,1.677,4.471,3.271,4.931,1.167.329,1.742-.164,1.742-1.463a2.079,2.079,0,0,0-.608-1.857A25.528,25.528,0,0,0,59.29,129.3a35.127,35.127,0,0,1-3.879-4.109,13.494,13.494,0,0,1-1.989-3.731,13.114,13.114,0,0,1-.822-4.553c0-2.794.658-4.75,1.956-5.885a4.726,4.726,0,0,1,4.783-.822,9.066,9.066,0,0,1,4.816,3.616V111.96c1.956.526,2.942.756,4.9,1.216v8.564c-1.94-.444-2.893-.69-4.833-1.2-.592-2.515-1.644-3.978-3.14-4.422-1.052-.312-1.578.164-1.578,1.414s.164,1.1.444,1.5a36.651,36.651,0,0,0,2.811,2.909c2.12,2.055,3.551,3.485,4.257,4.34a9.972,9.972,0,0,1,1.118,1.66,14.394,14.394,0,0,1,.937,2.071,13.593,13.593,0,0,1,.855,4.783,8.344,8.344,0,0,1-2.022,5.934,4.735,4.735,0,0,1-5.1,1.348,9.909,9.909,0,0,1-5.178-3.879v1.972Z" transform="translate(-43.954 -91.673)" fill="#b7cf61"/><path d="M56.209,139.342l.082-.279c-1.94-.608-2.909-.937-4.849-1.611l-.1.279h.3v-9.649h-.3l-.1.279c1.94.69,2.926,1.019,4.866,1.627l.082-.279-.279.066a9.906,9.906,0,0,0,1.3,3.452,4,4,0,0,0,2.186,1.71,3,3,0,0,0,.723.115,1.3,1.3,0,0,0,1.068-.51,2.354,2.354,0,0,0,.329-1.331,3.417,3.417,0,0,0-.658-2.022,22.8,22.8,0,0,0-2.794-2.877,34.4,34.4,0,0,1-3.846-4.077,14.057,14.057,0,0,1-1.94-3.649,12.558,12.558,0,0,1-.805-4.455c0-2.762.658-4.619,1.857-5.655a4.071,4.071,0,0,1,2.778-1.052,6.289,6.289,0,0,1,1.742.279,8.863,8.863,0,0,1,4.668,3.5l.526.756v-2.778h-.3l-.082.279c1.956.526,2.942.756,4.9,1.216l.066-.279h-.3v8.564h.3l.066-.279c-1.94-.444-2.893-.69-4.816-1.2l-.082.279.279-.066a8.54,8.54,0,0,0-1.282-3.09,3.95,3.95,0,0,0-2.071-1.545,2.343,2.343,0,0,0-.641-.1,1.136,1.136,0,0,0-1,.51,2.338,2.338,0,0,0-.312,1.3,2.782,2.782,0,0,0,.51,1.677,38.135,38.135,0,0,0,2.844,2.942c2.12,2.038,3.534,3.485,4.241,4.307h0a8.8,8.8,0,0,1,1.068,1.611,13.763,13.763,0,0,1,.921,2.022h0a13.41,13.41,0,0,1,.838,4.685,8.1,8.1,0,0,1-1.94,5.737,4.307,4.307,0,0,1-3.271,1.5,5.8,5.8,0,0,1-1.529-.214,9.624,9.624,0,0,1-5.013-3.781l-.526-.707v2.86h.3l.082-.279-.082.279h.3v-1.973h-.3l-.23.181a10.2,10.2,0,0,0,5.326,3.994,6.274,6.274,0,0,0,1.677.247,4.906,4.906,0,0,0,3.7-1.677,8.676,8.676,0,0,0,2.1-6.131,14.154,14.154,0,0,0-.871-4.882h0a14.076,14.076,0,0,0-.953-2.1,9.605,9.605,0,0,0-1.151-1.709l-.23.2.23-.181c-.74-.871-2.153-2.3-4.274-4.356a32.516,32.516,0,0,1-2.778-2.877,2.173,2.173,0,0,1-.395-1.331,1.858,1.858,0,0,1,.2-.97.551.551,0,0,1,.526-.247,1.382,1.382,0,0,1,.477.082,3.223,3.223,0,0,1,1.759,1.315A8.381,8.381,0,0,1,62.5,119.88l.033.164.164.049c1.94.51,2.909.756,4.849,1.2l.362.082V112.22l-.23-.049c-1.956-.444-2.926-.69-4.882-1.216l-.362-.1v2.236h.3l.247-.164a9.412,9.412,0,0,0-4.964-3.731,6.653,6.653,0,0,0-1.907-.3,4.682,4.682,0,0,0-3.156,1.184c-1.4,1.216-2.055,3.255-2.055,6.1a13.229,13.229,0,0,0,.838,4.652,14.236,14.236,0,0,0,2.038,3.8,37.252,37.252,0,0,0,3.912,4.142,23.577,23.577,0,0,1,2.712,2.794,2.98,2.98,0,0,1,.559,1.693,1.79,1.79,0,0,1-.23,1,.642.642,0,0,1-.592.263,2,2,0,0,1-.559-.1,3.359,3.359,0,0,1-1.857-1.463,9.605,9.605,0,0,1-1.216-3.238l-.033-.164-.164-.049c-1.94-.608-2.909-.937-4.849-1.611l-.395-.132v10.273l.2.066c1.94.69,2.926,1.019,4.866,1.627l.378.115v-.394h-.3Z" transform="translate(-42.533 -90.832)" fill="#020202"/><path d="M202.88,169.109A142.337,142.337,0,0,1,182.3,166.4v-7.2c.773.148,1.167.23,1.94.378v-15.7c-.773-.148-1.167-.214-1.94-.378v-7.2c4.948.97,7.413,1.348,12.361,1.94v7.2c-.822-.1-1.233-.148-2.055-.263v15.7c2.038.263,3.074.378,5.112.592v-4.833c2.071.214,3.09.3,5.161.444Z" transform="translate(-152.334 -113.728)" fill="#b7cf61"/><path d="M201.459,167.438v-.3a141.753,141.753,0,0,1-20.514-2.712l-.049.3h.3v-7.2h-.3l-.049.3c.773.148,1.167.23,1.94.378l.345.066v-16.29l-.247-.049c-.773-.148-1.167-.214-1.94-.362l-.049.3h.3v-7.2h-.3l-.049.3c4.948.97,7.43,1.364,12.377,1.94l.033-.3h-.3v7.2h.3l.033-.3c-.822-.1-1.233-.148-2.055-.263l-.329-.049v16.273l.263.033c2.038.263,3.074.395,5.129.592l.329.033v-5.145h-.3l-.033.3c2.071.214,3.107.3,5.161.444v-.3h-.279v12.032h.3l.016-.3v.3h.279V155.143h-.279c-2.055-.164-3.09-.247-5.145-.46l-.329-.033v5.161h.3l.033-.3c-2.038-.214-3.057-.329-5.112-.592l-.033.3h.3V143.538h-.3l-.033.3c.822.115,1.233.164,2.055.263l.329.033v-7.791l-.263-.033c-4.931-.592-7.4-.97-12.328-1.94l-.345-.066v7.808l.23.049c.773.148,1.167.23,1.94.378l.049-.3h-.3v15.681h.3l.049-.3c-.773-.148-1.167-.214-1.94-.362l-.345-.066v7.808l.23.049a140.565,140.565,0,0,0,20.613,2.729h.312v-.3h-.3Z" transform="translate(-150.914 -112.057)" fill="#020202"/><path d="M327.66,161.182,326,161.1v-7.2c4.422.247,6.641.3,11.063.3v7.2h-1.019v10.142a16.575,16.575,0,0,0,.493,4.964,1.786,1.786,0,0,0,1.792,1.3,1.613,1.613,0,0,0,1.545-1.118,13.312,13.312,0,0,0,.477-4.438V161.379h-1.085v-7.2c3.255-.033,4.882-.082,8.12-.23v7.2c-.69.033-1.019.049-1.71.066v10.915A22.923,22.923,0,0,1,344.8,179a8.356,8.356,0,0,1-2.893,4.208,8.013,8.013,0,0,1-4.964,1.545,10.277,10.277,0,0,1-4.208-.838,6.888,6.888,0,0,1-2.959-2.466,11.613,11.613,0,0,1-1.594-3.9,31.861,31.861,0,0,1-.526-6.739v-9.632Z" transform="translate(-272.414 -128.435)" fill="#b7cf61"/><path d="M326.073,159.507v-.3l-1.644-.082v.3h.279v-7.2h-.3v.3c4.422.247,6.657.3,11.079.3v-.3h-.3v7.2h.3v-.3h-1.315v10.438a16.87,16.87,0,0,0,.51,5.063,2.415,2.415,0,0,0,.789,1.1,2.045,2.045,0,0,0,1.249.378h0a1.829,1.829,0,0,0,1.1-.345,2.267,2.267,0,0,0,.723-.953,13.327,13.327,0,0,0,.51-4.553V159.392h-1.381v.3h.3v-7.2h-.3v.3c3.255-.033,4.882-.082,8.137-.23v-.3H345.5v7.2h.3v-.3c-.69.033-1.036.049-1.726.066h-.279v11.21a22.138,22.138,0,0,1-.855,6.772,8.1,8.1,0,0,1-2.794,4.076,7.645,7.645,0,0,1-4.783,1.479h0v0a9.989,9.989,0,0,1-4.093-.822,6.43,6.43,0,0,1-2.827-2.367,11.576,11.576,0,0,1-1.562-3.8,32.167,32.167,0,0,1-.526-6.674v-9.928h-.279v.279h-.3v9.649a31.562,31.562,0,0,0,.542,6.805,12.363,12.363,0,0,0,1.644,3.994,7.1,7.1,0,0,0,3.074,2.564,10.623,10.623,0,0,0,4.323.871h0v0h0v0a8.247,8.247,0,0,0,5.145-1.611,8.724,8.724,0,0,0,2.992-4.356,23.076,23.076,0,0,0,.888-6.953V159.507h-.3v.3c.69-.033,1.036-.033,1.71-.066h.279V151.93h-.312c-3.255.148-4.866.2-8.12.23h-.3v7.791h1.381v-.3h-.3v10.865a13.186,13.186,0,0,1-.46,4.323,1.765,1.765,0,0,1-.526.707,1.252,1.252,0,0,1-.756.23v0h0a1.513,1.513,0,0,1-.9-.263,1.748,1.748,0,0,1-.592-.838,16.077,16.077,0,0,1-.477-4.849V159.688h-.3v.3h1.331v-7.791h-.3c-4.422,0-6.624-.049-11.046-.3H324.1v7.775h.279c.658.049,1,.066,1.66.1v-.3h.016Z" transform="translate(-270.826 -126.761)" fill="#020202"/><path d="M491.353,176.045c-4.7.46-7.052.657-11.753.937v-7.2c.707-.049,1.052-.066,1.759-.115v-15.7c-.707.049-1.052.066-1.759.115v-7.2c4.7-.279,7.052-.477,11.753-.937,1.052-.1,2.038-.181,2.942-.23s1.677-.066,2.318-.049a14.2,14.2,0,0,1,1.775.164,5.473,5.473,0,0,1,3.682,2.466,9.064,9.064,0,0,1,1.43,5.227,10.964,10.964,0,0,1-.871,4.356,7.419,7.419,0,0,1-2.285,3.057c1.2,2.6,1.792,3.9,2.975,6.493.625-.082.937-.132,1.562-.214v7.2c-3.107.427-4.668.625-7.775.986-1.89-4.7-2.827-7.052-4.7-11.769-1.068.115-1.594.164-2.663.263v5.079c.657-.066.986-.1,1.627-.164v7.2ZM489.726,152.7v5.737l.937-.082a12.42,12.42,0,0,0,2.482-.411,2.323,2.323,0,0,0,1.184-.986,3.426,3.426,0,0,0,.477-1.89,3.032,3.032,0,0,0-.477-1.808,1.761,1.761,0,0,0-1.233-.74,16.725,16.725,0,0,0-2.614.115C490.169,152.671,490.021,152.688,489.726,152.7Z" transform="translate(-400.765 -121.552)" fill="#b7cf61"/><path d="M490.1,174.656l-.033-.3c-4.7.46-7.035.658-11.736.937v.3h.312v-7.2h-.3v.3c.723-.049,1.068-.066,1.775-.115h.279v-16.29l-.312.016c-.707.049-1.052.066-1.759.115v.3h.312v-7.2h-.3l.016.3c4.7-.279,7.052-.477,11.753-.937,1.052-.1,2.022-.181,2.926-.23.641-.033,1.216-.049,1.71-.049h.575a13.4,13.4,0,0,1,1.726.164,5.241,5.241,0,0,1,3.485,2.334,8.751,8.751,0,0,1,1.381,5.063,10.613,10.613,0,0,1-.838,4.241,7.131,7.131,0,0,1-2.186,2.942l-.181.148.1.214c1.2,2.6,1.792,3.912,2.975,6.493l.082.2.214-.033c.625-.082.937-.131,1.562-.214l-.033-.3h-.3v7.2h.3l-.033-.3c-3.107.427-4.668.625-7.775.986l.033.3.279-.115c-1.89-4.7-2.827-7.052-4.7-11.769l-.082-.214h-.214c-1.068.132-1.594.181-2.663.279l-.263.033v5.671l.329-.033c.657-.066.986-.1,1.627-.164l-.033-.3h-.3v7.2h.3l-.033-.3.033.3h.3v-7.528l-.329.033-1.627.164.033.3h.3v-5.079h-.3l.033.3c1.068-.1,1.594-.148,2.663-.263l-.033-.3-.279.115c1.89,4.718,2.827,7.085,4.7,11.769l.082.214.23-.033c3.107-.362,4.668-.559,7.791-.986l.247-.033V165.5l-.329.049c-.625.082-.937.132-1.545.214l.033.3.263-.115c-1.2-2.6-1.792-3.9-2.975-6.493l-.263.115.181.23a7.712,7.712,0,0,0,2.383-3.172,11.249,11.249,0,0,0,.888-4.471,9.449,9.449,0,0,0-1.479-5.392,5.737,5.737,0,0,0-3.879-2.581,14.951,14.951,0,0,0-1.808-.181H494.8c-.51,0-1.1.016-1.742.049-.9.049-1.89.132-2.942.23-4.7.46-7.035.658-11.736.937H478.1v7.808h.312c.707-.066,1.052-.082,1.759-.132v-.3h-.312v15.681h.3l-.016-.3c-.707.049-1.052.066-1.759.115H478.1v7.808l.312-.016c4.7-.279,7.052-.477,11.753-.937l.263-.033v-.263H490.1Zm-1.627-23.341h-.3v6.065l.329-.033.937-.082a13.883,13.883,0,0,0,2.548-.411,2.568,2.568,0,0,0,1.331-1.118,3.775,3.775,0,0,0,.526-2.055,3.315,3.315,0,0,0-.542-1.989,2.031,2.031,0,0,0-1.43-.855c-.148,0-.329-.016-.526-.016-.526,0-1.233.049-2.137.132-.312.033-.46.049-.756.066l-.263.033v.263h.3l.033.3c.312-.033.46-.049.756-.066.9-.082,1.594-.132,2.088-.132a3.589,3.589,0,0,1,.46.016,1.378,1.378,0,0,1,1.019.625,2.713,2.713,0,0,1,.427,1.627,3.18,3.18,0,0,1-.427,1.726,2.019,2.019,0,0,1-1.019.871,12.914,12.914,0,0,1-2.416.395l-.937.082.033.3h.3v-5.737h-.3l.033.3-.033-.3Z" transform="translate(-399.512 -120.163)" fill="#020202"/><path d="M666.436,150.773c-4.7.773-7.052,1.134-11.736,1.808v-7.2l1.759-.247v-15.7l-1.759.247v-7.2c4.7-.674,7.052-1.036,11.736-1.808,1.052-.164,2.038-.312,2.942-.411a22.4,22.4,0,0,1,2.318-.164,12.146,12.146,0,0,1,1.775.082,5.124,5.124,0,0,1,3.682,2.285,8.812,8.812,0,0,1,1.43,5.161,11.184,11.184,0,0,1-.871,4.389,8.069,8.069,0,0,1-2.285,3.172c1.2,2.548,1.792,3.814,2.975,6.361.625-.115.937-.164,1.562-.279v7.2c-3.107.542-4.668.822-7.775,1.348-1.89-4.6-2.827-6.9-4.7-11.506-1.068.181-1.594.263-2.663.427v5.079c.657-.1.986-.164,1.627-.263v7.2Zm-1.627-23.243v5.737c.378-.066.559-.082.937-.148a14.506,14.506,0,0,0,2.482-.559,2.517,2.517,0,0,0,1.184-1.068,3.545,3.545,0,0,0,.477-1.923,2.824,2.824,0,0,0-.477-1.775,1.609,1.609,0,0,0-1.233-.658,15.071,15.071,0,0,0-2.614.279C665.253,127.464,665.1,127.48,664.809,127.53Z" transform="translate(-547.083 -100.191)" fill="#b7cf61"/><path d="M665.016,149.519l-.049-.3c-4.7.773-7.035,1.134-11.737,1.808l.049.3h.3v-7.2h-.3l.049.3,1.759-.247.247-.033V127.871l-.329.049-1.759.247.049.3h.3v-7.2h-.3l.049.3c4.7-.674,7.052-1.036,11.753-1.808,1.052-.164,2.022-.312,2.926-.411.888-.1,1.66-.148,2.285-.164h.345a12,12,0,0,1,1.381.082,4.856,4.856,0,0,1,3.485,2.17,8.549,8.549,0,0,1,1.381,5,10.615,10.615,0,0,1-.855,4.274,7.656,7.656,0,0,1-2.2,3.057l-.181.148.1.214c1.2,2.548,1.792,3.814,2.975,6.361l.1.2.214-.033c.625-.115.937-.164,1.562-.279l-.049-.3h-.3v7.2h.3l-.049-.3c-3.107.542-4.668.822-7.775,1.348l.049.3.279-.115c-1.89-4.6-2.827-6.9-4.7-11.506l-.082-.214-.23.033c-1.068.181-1.594.263-2.663.427l-.247.033v5.671l.345-.049c.658-.1.986-.164,1.627-.263l-.049-.3h-.3v7.2h.3l-.049-.3.049.3h.3v-7.545l-.345.049c-.657.1-.986.164-1.627.263l.049.3h.3V137.52h-.3l.049.3c1.068-.164,1.594-.263,2.663-.427l-.049-.3-.279.115c1.89,4.6,2.827,6.9,4.7,11.506l.082.214.23-.033c3.107-.526,4.668-.805,7.791-1.348l.247-.049v-7.791l-.345.066c-.625.115-.937.164-1.562.279l.049.3.263-.131c-1.2-2.548-1.792-3.814-2.975-6.361l-.263.131.181.23a8.207,8.207,0,0,0,2.367-3.288,11.467,11.467,0,0,0,.888-4.5A9.124,9.124,0,0,0,676,121.1a5.445,5.445,0,0,0-3.879-2.416,13.524,13.524,0,0,0-1.463-.082h-.362a22.908,22.908,0,0,0-2.334.181c-.9.1-1.89.23-2.959.411-4.7.773-7.035,1.134-11.736,1.808l-.247.033v7.791l.329-.049,1.759-.247-.049-.3h-.3v15.681h.3l-.049-.3-1.759.247L653,143.9v7.791l.329-.049c4.7-.674,7.052-1.036,11.753-1.808l.247-.033v-.247h-.3Zm-1.627-23.243h-.3v6.082l.345-.049c.378-.066.559-.082.937-.148a14.456,14.456,0,0,0,2.548-.575,2.755,2.755,0,0,0,1.315-1.184,3.874,3.874,0,0,0,.526-2.071,3.176,3.176,0,0,0-.543-1.956,1.864,1.864,0,0,0-1.446-.773h-.148a18.6,18.6,0,0,0-2.515.279c-.312.049-.46.066-.756.115l-.247.033v.247h.3l.049.3c.312-.049.46-.066.756-.115a18.316,18.316,0,0,1,2.433-.279h.132a1.269,1.269,0,0,1,1,.559,2.534,2.534,0,0,1,.427,1.594,3.234,3.234,0,0,1-.444,1.759,2.216,2.216,0,0,1-1.036.937,14.922,14.922,0,0,1-2.433.542c-.378.066-.559.1-.937.148l.049.3h.3v-5.737h-.3l.049.3-.049-.3Z" transform="translate(-545.662 -98.938)" fill="#020202"/><path d="M841.436,120.092c-4.7.822-7.052,1.249-11.736,2.088v-7.2c.707-.131,1.052-.181,1.759-.312v-15.7c-.707.132-1.052.181-1.759.312v-7.2c4.7-.838,7.052-1.249,11.736-2.088,1.052-.181,2.038-.329,2.942-.444.9-.1,1.677-.164,2.318-.181a12.257,12.257,0,0,1,1.775.066,5.124,5.124,0,0,1,3.682,2.285,8.829,8.829,0,0,1,1.43,5.178,11.184,11.184,0,0,1-.871,4.389,8.009,8.009,0,0,1-2.285,3.156c1.2,2.548,1.792,3.83,2.975,6.378.625-.1.937-.148,1.562-.263v7.2c-3.107.51-4.668.789-7.775,1.315-1.89-4.586-2.827-6.887-4.7-11.473-1.068.181-1.594.279-2.663.477v5.079c.658-.115.986-.181,1.627-.3v7.2Zm-1.627-23.21v5.737l.937-.164a13.655,13.655,0,0,0,2.482-.592,2.606,2.606,0,0,0,1.183-1.068,3.584,3.584,0,0,0,.477-1.923,2.89,2.89,0,0,0-.477-1.775,1.608,1.608,0,0,0-1.233-.657,16.233,16.233,0,0,0-2.614.312C840.253,96.8,840.1,96.833,839.809,96.882Z" transform="translate(-693.317 -74.508)" fill="#b7cf61"/><path d="M839.765,118.868l-.049-.3c-4.7.822-7.052,1.249-11.736,2.088l.049.3h.3v-7.2h-.3l.049.3c.707-.132,1.052-.181,1.759-.312l.247-.049V97.417l-.345.066c-.707.132-1.052.181-1.759.312l.049.3h.3v-7.2h-.3l.049.3c4.7-.838,7.052-1.249,11.736-2.088,1.052-.181,2.022-.329,2.926-.444.888-.1,1.66-.164,2.285-.181h.395a11.133,11.133,0,0,1,1.332.082,4.856,4.856,0,0,1,3.485,2.17,8.465,8.465,0,0,1,1.381,5,10.615,10.615,0,0,1-.855,4.274,7.481,7.481,0,0,1-2.2,3.041l-.181.148.1.214c1.2,2.548,1.792,3.83,2.975,6.378l.1.2.214-.033c.625-.1.937-.148,1.545-.263l-.049-.3h-.3v7.2h.3l-.049-.3c-3.107.51-4.668.789-7.791,1.315l.049.3.279-.115c-1.89-4.586-2.827-6.887-4.7-11.473l-.082-.214-.23.033c-1.068.181-1.594.279-2.663.477l-.246.049v5.671l.345-.066c.657-.115.986-.181,1.627-.3l-.049-.3h-.3v7.2h.3l-.049-.3.049.3h.3v-7.545l-.345.066c-.657.115-.986.181-1.627.3l.049.3h.3V106.9h-.3l.049.3c1.068-.181,1.594-.279,2.663-.477l-.049-.3-.279.115c1.89,4.586,2.827,6.871,4.7,11.473l.082.214.23-.033c3.107-.542,4.668-.805,7.775-1.315l.247-.033v-7.791l-.345.049c-.625.1-.937.148-1.562.263l.049.3.263-.132c-1.2-2.548-1.792-3.83-2.975-6.378l-.263.131.181.23a8.261,8.261,0,0,0,2.367-3.271,11.466,11.466,0,0,0,.888-4.5,9.213,9.213,0,0,0-1.479-5.342,5.445,5.445,0,0,0-3.879-2.416,12.527,12.527,0,0,0-1.4-.082h-.411c-.657.016-1.43.082-2.334.2s-1.89.263-2.959.444c-4.7.822-7.052,1.249-11.736,2.088l-.247.049v7.791l.345-.066c.707-.132,1.052-.181,1.759-.312l-.049-.3h-.3v15.681h.3l-.049-.3c-.707.132-1.052.181-1.759.312l-.247.049v7.791l.345-.066c4.7-.838,7.052-1.249,11.736-2.088l.247-.049v-.247h-.3Zm-1.627-23.21h-.3v6.082l.345-.066.937-.164a13.723,13.723,0,0,0,2.548-.608,2.754,2.754,0,0,0,1.315-1.184,3.874,3.874,0,0,0,.526-2.071,3.177,3.177,0,0,0-.542-1.956,1.8,1.8,0,0,0-1.446-.756h-.1a16.147,16.147,0,0,0-2.564.312c-.312.049-.46.082-.756.132l-.247.049v.247h.3l.049.3c.312-.049.46-.082.756-.132a15.932,15.932,0,0,1,2.466-.312h.082a1.251,1.251,0,0,1,1,.542,2.535,2.535,0,0,1,.427,1.594,3.3,3.3,0,0,1-.444,1.775,2.26,2.26,0,0,1-1.036.953,13.917,13.917,0,0,1-2.433.575l-.937.164.049.3h.3V95.691h-.3l.049.3-.049-.3Z" transform="translate(-691.646 -73.284)" fill="#020202"/><path d="M1016.336,92.687c-4.7.657-7.052,1.019-11.736,1.775v-7.2c.707-.115,1.052-.164,1.759-.279v-15.7c-.707.115-1.052.164-1.759.279v-7.2c4.7-.756,7.052-1.118,11.736-1.775,1.052-.148,2.038-.263,2.942-.329s1.677-.1,2.318-.082a11.743,11.743,0,0,1,1.775.148,5.441,5.441,0,0,1,3.682,2.482,9.192,9.192,0,0,1,1.43,5.244,10.829,10.829,0,0,1-.871,4.34,7.471,7.471,0,0,1-2.285,3.041c1.2,2.614,1.792,3.912,2.975,6.542l1.562-.164v7.2c-3.107.329-4.668.51-7.791.9-1.89-4.685-2.827-7.019-4.7-11.671-1.068.148-1.594.214-2.663.378V85.7c.657-.1.986-.148,1.627-.23v7.2Zm-1.627-23.276v5.737c.378-.049.559-.082.937-.132a16.653,16.653,0,0,0,2.482-.493,2.483,2.483,0,0,0,1.183-1.019,3.485,3.485,0,0,0,.477-1.907,2.911,2.911,0,0,0-.477-1.792,1.719,1.719,0,0,0-1.233-.707,14.634,14.634,0,0,0-2.614.214c-.312.049-.46.066-.756.115Z" transform="translate(-839.468 -51.787)" fill="#b7cf61"/><path d="M1014.832,91.12l-.033-.3c-4.7.658-7.052,1.019-11.753,1.775l.049.3h.3V85.7h-.3l.049.3c.707-.115,1.052-.164,1.759-.279l.246-.033V69.406l-.345.049c-.707.115-1.052.164-1.759.279l.049.3h.3v-7.2h-.3l.049.3c4.7-.756,7.035-1.118,11.736-1.775,1.052-.148,2.022-.263,2.909-.329.773-.066,1.43-.082,2.005-.082h.279a11.076,11.076,0,0,1,1.726.148,5.154,5.154,0,0,1,3.485,2.351,8.879,8.879,0,0,1,1.381,5.079,10.532,10.532,0,0,1-.838,4.224,7.012,7.012,0,0,1-2.186,2.909l-.2.148.1.214c1.2,2.614,1.792,3.912,2.975,6.542l.082.2h.214c.625-.1.937-.131,1.545-.2l-.033-.3h-.3v7.2h.3l-.033-.3c-3.107.329-4.668.51-7.792.9l.033.3.279-.115c-1.89-4.685-2.827-7.019-4.7-11.671l-.082-.214-.23.033c-1.068.148-1.594.23-2.663.378l-.246.033V84.48l.329-.049c.658-.1.986-.148,1.627-.23l-.033-.3h-.3v7.2h.3l-.033-.3.033.3h.3V83.559l-.329.049c-.657.1-.986.131-1.627.23l.049.3h.3V79.055h-.3l.049.3c1.068-.148,1.594-.23,2.663-.378l-.033-.3-.279.115c1.89,4.652,2.827,6.986,4.7,11.671l.082.214.23-.033c3.107-.394,4.668-.575,7.775-.9l.263-.033V81.915l-.329.033-1.562.164.033.3.263-.115c-1.2-2.614-1.792-3.929-2.975-6.542l-.263.115.181.23a7.654,7.654,0,0,0,2.383-3.156,11.109,11.109,0,0,0,.888-4.455,9.5,9.5,0,0,0-1.479-5.408,5.783,5.783,0,0,0-3.879-2.614,12.316,12.316,0,0,0-1.808-.164h-.3c-.592,0-1.282.033-2.055.082-.9.066-1.89.181-2.959.329-4.7.658-7.052,1.019-11.753,1.775l-.246.033V70.31l.345-.049c.707-.115,1.052-.164,1.759-.279l-.049-.3h-.3V85.367h.3l-.049-.3c-.707.115-1.052.164-1.759.279l-.246.033v7.791l.345-.049c4.7-.756,7.035-1.118,11.736-1.775l.247-.033v-.263h-.3Zm-1.627-23.276h-.3v6.082l.329-.049c.378-.049.559-.082.937-.132a16.263,16.263,0,0,0,2.548-.51,2.637,2.637,0,0,0,1.332-1.151,3.776,3.776,0,0,0,.526-2.055,3.263,3.263,0,0,0-.542-1.973,1.992,1.992,0,0,0-1.447-.822h-.3a16.649,16.649,0,0,0-2.384.23c-.312.049-.46.066-.756.115l-.246.033v.247h.3l.049.3c.312-.049.46-.066.756-.115a18.254,18.254,0,0,1,2.3-.214h.247a1.363,1.363,0,0,1,1.019.592,2.678,2.678,0,0,1,.427,1.627,3.134,3.134,0,0,1-.444,1.742,1.987,1.987,0,0,1-1.036.9,13.6,13.6,0,0,1-2.433.477c-.378.049-.559.082-.937.132l.049.3h.3V67.861h-.3l.049.3-.049-.3Z" transform="translate(-837.964 -50.221)" fill="#020202"/><path d="M1191.253,76.741c-4.7.263-7.052.444-11.753.888v-7.2l1.759-.164v-15.7l-1.759.164v-7.2c4.7-.444,7.052-.625,11.753-.888,1.052-.049,2.038-.082,2.943-.066a18.419,18.419,0,0,1,2.318.132,11,11,0,0,1,1.775.329,6.21,6.21,0,0,1,3.682,2.86,9.942,9.942,0,0,1,1.43,5.408,10.134,10.134,0,0,1-.871,4.241,6.349,6.349,0,0,1-2.285,2.794c1.2,2.729,1.792,4.109,2.975,6.854h1.562v7.2c-3.107,0-4.668,0-7.791.115-1.89-4.866-2.827-7.282-4.7-12.1-1.068.049-1.594.082-2.663.148V69.64c.658-.033.986-.066,1.627-.1Zm-1.627-23.407v5.737c.378-.016.559-.033.937-.049a14.348,14.348,0,0,0,2.482-.279,2.182,2.182,0,0,0,1.184-.92,3.272,3.272,0,0,0,.477-1.857,3.179,3.179,0,0,0-.477-1.841,1.853,1.853,0,0,0-1.233-.805,13.176,13.176,0,0,0-2.614,0c-.312.016-.46.033-.756.049Z" transform="translate(-985.619 -38.751)" fill="#b7cf61"/><path d="M1190.167,75.51v-.3c-4.718.263-7.068.444-11.769.888l.033.3h.3V69.2h-.3l.033.3,1.759-.164h.263V53.023l-.312.033-1.759.164.033.3h.3v-7.2h-.3l.033.3c4.7-.444,7.035-.625,11.736-.888.855-.049,1.677-.066,2.433-.066h.493a17.857,17.857,0,0,1,2.285.132,12.47,12.47,0,0,1,1.726.312,5.982,5.982,0,0,1,3.517,2.729,9.63,9.63,0,0,1,1.381,5.244,9.845,9.845,0,0,1-.838,4.126,6.116,6.116,0,0,1-2.17,2.679l-.214.132.1.23c1.2,2.729,1.792,4.109,2.975,6.854l.082.181h1.742v-.3h-.3v7.2h.3v-.3h-1.233c-2.351,0-3.879.033-6.559.115v.3l.28-.1c-1.89-4.866-2.827-7.282-4.7-12.1l-.082-.2h-.214l-2.663.164h-.28v5.687l.312-.016c.658-.033.97-.066,1.627-.1v-.3h-.312v7.2h.3v0h.312V68.03h-.312c-.658.049-.986.066-1.627.115v.3h.312V63.362h-.3v.3c1.085-.066,1.611-.1,2.679-.148v-.3l-.3.1c1.89,4.816,2.827,7.249,4.7,12.1l.082.2h.214c2.679-.082,4.192-.115,6.542-.115h1.529V67.7h-1.858V68l.263-.115c-1.2-2.745-1.792-4.126-2.975-6.854l-.263.115.164.247a6.59,6.59,0,0,0,2.384-2.926,11.108,11.108,0,0,0-.575-9.928,6.442,6.442,0,0,0-3.846-2.975,11.786,11.786,0,0,0-1.808-.329,22.85,22.85,0,0,0-2.351-.132h-.493c-.773,0-1.594.016-2.466.066-4.7.263-7.052.444-11.753.888l-.263.033v7.791l.329-.033,1.759-.164-.033-.3h-.3V69.066h.3l-.033-.3-1.759.164-.263.033v7.791l.329-.033c4.7-.444,7.035-.625,11.736-.888h.279v-.3h-.3ZM1188.539,52.1h-.3v6.049h.312a8.976,8.976,0,0,1,.937-.066,13.729,13.729,0,0,0,2.548-.3,2.44,2.44,0,0,0,1.348-1.036,3.619,3.619,0,0,0,.526-2.022,3.4,3.4,0,0,0-.543-2.005,2.167,2.167,0,0,0-1.414-.937,7.308,7.308,0,0,0-1.167-.066c-.427,0-.92,0-1.5.049-.312.016-.46.033-.756.049h-.279v.3h.3v.3c.329-.016.477-.033.772-.049.575-.033,1.068-.049,1.463-.049a5.978,5.978,0,0,1,1.085.066,1.532,1.532,0,0,1,1.036.69,2.921,2.921,0,0,1,.427,1.677,3.018,3.018,0,0,1-.427,1.693,1.867,1.867,0,0,1-1.019.805,15.23,15.23,0,0,1-2.433.263c-.378.016-.559.033-.937.049v.3h.312V52.119h-.3l.017.3v-.3Z" transform="translate(-984.532 -37.52)" fill="#020202"/><path d="M1367.224,75.855c-5.046-.444-7.578-.559-12.624-.657V68c.838.016,1.266.033,2.1.049v-15.7c-.838-.033-1.266-.033-2.1-.049V45.1c5.309.1,7.956.247,13.249.723,3.041.279,5.276.953,6.674,1.973a9.141,9.141,0,0,1,3.106,3.846,12.375,12.375,0,0,1,1,4.9,10.649,10.649,0,0,1-1.183,5.1,6.016,6.016,0,0,1-3.123,2.646,14.769,14.769,0,0,1-5.9.279c-1.348-.132-2.022-.181-3.37-.279v4.224c.871.066,1.3.1,2.17.181v7.167Zm-2.17-23.687v5.655c.657.049.986.082,1.627.132a3.977,3.977,0,0,0,2.482-.345c.493-.312.74-1.036.74-2.1a3.006,3.006,0,0,0-.411-1.841,1.971,1.971,0,0,0-1.035-1,8.077,8.077,0,0,0-2.12-.378c-.526-.049-.789-.066-1.3-.1Z" transform="translate(-1131.936 -37.52)" fill="#b7cf61"/><path d="M1365.719,74.434l.033-.3c-5.063-.444-7.594-.559-12.657-.657v.3h.279v-7.2h-.3v.3c.838.016,1.249.033,2.087.049h.3V50.665h-.28c-.838-.033-1.266-.049-2.1-.066v.3h.279V43.7h-.3v.3c5.293.1,7.939.247,13.232.723a13.564,13.564,0,0,1,6.542,1.907,8.836,8.836,0,0,1,3.008,3.731,12.078,12.078,0,0,1,.97,4.783,9.46,9.46,0,0,1-1.134,4.948,5.65,5.65,0,0,1-2.975,2.515,9.157,9.157,0,0,1-3.09.395c-.789,0-1.693-.049-2.679-.148-1.348-.132-2.022-.181-3.37-.279h-.312v4.8l.28.016c.871.066,1.3.1,2.17.181l.033-.3h-.3v7.2h.3l.033-.3-.033.3h.3V67h-.263c-.871-.1-1.315-.132-2.186-.2v.3h.279V62.879h-.3v.3c1.332.1,1.989.164,3.337.279,1,.1,1.923.148,2.745.148a9.68,9.68,0,0,0,3.288-.444,6.286,6.286,0,0,0,3.271-2.762,9.969,9.969,0,0,0,1.217-5.26,12.659,12.659,0,0,0-1.019-5.013,9.536,9.536,0,0,0-3.205-3.978c-1.463-1.052-3.748-1.742-6.822-2.022-5.309-.477-7.972-.608-13.282-.723h-.3v7.775h.279c.838.016,1.249.033,2.088.066v-.3h-.279V66.626h.3v-.3c-.838-.033-1.249-.033-2.088-.049h-.3v7.775h.279c5.046.1,7.561.23,12.608.658l.312.033v-.312h-.279Zm-2.17-23.687h-.3v5.934h.28c.658.066.97.1,1.627.148.279.016.526.033.773.033a3.508,3.508,0,0,0,1.89-.411,2.674,2.674,0,0,0,.888-2.367,4.253,4.253,0,0,0-.444-1.973,2.33,2.33,0,0,0-1.2-1.151,8.3,8.3,0,0,0-2.2-.395c-.526-.049-.789-.066-1.315-.1h-.312v.3h.3v.3c.493.033.756.066,1.282.1a7.694,7.694,0,0,1,2.022.362,1.687,1.687,0,0,1,.888.871,3.645,3.645,0,0,1,.378,1.71c0,1.052-.246,1.644-.608,1.857a3.05,3.05,0,0,1-1.578.329,5.574,5.574,0,0,1-.723-.033c-.657-.049-.986-.082-1.627-.132v.3h.28V50.764h-.3l-.016.3v-.3Z" transform="translate(-1130.432 -36.099)" fill="#020202"/><path d="M1536.24,94.108A128.047,128.047,0,0,0,1523.6,91.3V84.1c.838.148,1.266.23,2.1.394v-15.7c-.838-.164-1.266-.247-2.1-.395V61.2a126.88,126.88,0,0,1,13.249,2.975,16.161,16.161,0,0,1,6.674,3.222,11.783,11.783,0,0,1,3.107,4.455,13.857,13.857,0,0,1,1,5.1,9.321,9.321,0,0,1-1.183,4.866,4.614,4.614,0,0,1-3.123,2.038,15.658,15.658,0,0,1-5.9-.822c-1.348-.378-2.022-.542-3.37-.888v4.224c.871.214,1.3.329,2.17.559v7.2Zm-2.17-24.065V75.7c.658.164.986.247,1.627.411a4.086,4.086,0,0,0,2.482.115q.74-.345.74-1.973a3.276,3.276,0,0,0-.411-1.907,2.687,2.687,0,0,0-1.036-1.2,8.249,8.249,0,0,0-2.12-.756c-.526-.132-.789-.2-1.3-.329Z" transform="translate(-1273.157 -50.973)" fill="#b7cf61"/><path d="M1534.736,92.437l.082-.279a129.411,129.411,0,0,0-12.657-2.811l-.049.3h.3v-7.2h-.3l-.049.3c.838.148,1.249.23,2.088.394l.345.066V66.909l-.23-.049c-.838-.164-1.266-.247-2.1-.395l-.049.3h.3v-7.2h-.3l-.049.3a128.485,128.485,0,0,1,13.232,2.975,16.219,16.219,0,0,1,6.559,3.14,11.409,11.409,0,0,1,3.024,4.356,13.286,13.286,0,0,1,.97,4.981,8.155,8.155,0,0,1-1.134,4.7,4.271,4.271,0,0,1-2.926,1.907,4.337,4.337,0,0,1-.838.066,20.232,20.232,0,0,1-4.931-.888c-1.348-.378-2.022-.542-3.386-.888l-.362-.1v4.833l.214.049c.871.214,1.3.329,2.17.559l.082-.279h-.3v7.2h.3l.082-.279-.082.279h.3V85.04l-.214-.066c-.871-.23-1.315-.345-2.186-.559l-.066.279h.3V80.47h-.3l-.066.279c1.348.345,2.022.51,3.37.888a20.953,20.953,0,0,0,5.1.9,5.462,5.462,0,0,0,.937-.066,4.971,4.971,0,0,0,3.32-2.153,8.818,8.818,0,0,0,1.233-5.03,14.044,14.044,0,0,0-1.019-5.194,12.2,12.2,0,0,0-3.189-4.57,16.7,16.7,0,0,0-6.805-3.288,128.411,128.411,0,0,0-13.281-2.975l-.345-.066v7.791l.247.049c.838.148,1.249.23,2.087.395l.05-.3h-.3v15.7h.3l.049-.3c-.838-.164-1.266-.247-2.1-.394l-.345-.066v7.791l.246.049a128.372,128.372,0,0,1,12.608,2.794l.362.1v-.378h-.28Zm-2.17-24.065h-.3v5.885l.214.049c.657.164.97.247,1.627.411a6.794,6.794,0,0,0,1.742.263,2.194,2.194,0,0,0,.953-.181,1.363,1.363,0,0,0,.707-.822,3.943,3.943,0,0,0,.214-1.414,4.863,4.863,0,0,0-.427-2.038,3.07,3.07,0,0,0-1.151-1.331,9.545,9.545,0,0,0-2.186-.789l-1.315-.329-.362-.1v.378h.3l-.066.279c.526.132.789.2,1.3.329a8.429,8.429,0,0,1,2.038.723,2.218,2.218,0,0,1,.92,1.068,4.157,4.157,0,0,1,.378,1.792,3.676,3.676,0,0,1-.165,1.2.9.9,0,0,1-.411.51,1.618,1.618,0,0,1-.707.115,6.748,6.748,0,0,1-1.594-.247c-.657-.164-.986-.263-1.627-.427l-.066.279h.3V68.323h-.3l-.066.279.066-.279Z" transform="translate(-1271.653 -49.302)" fill="#020202"/></g></svg>