<svg xmlns="http://www.w3.org/2000/svg" xmlns:xlink="http://www.w3.org/1999/xlink" width="184" height="110" viewBox="0 0 184 110"><defs><clipPath id="a"><rect width="184" height="110" transform="translate(2138 3936)" fill="#fff" stroke="#707070" stroke-width="1"/></clipPath></defs><g transform="translate(-2138 -3936)" clip-path="url(#a)"><g transform="translate(205.011 1325.324) rotate(-41)"><path d="M136.292,78.178a21.564,21.564,0,1,0,0-43.129,21.118,21.118,0,0,0-8.216,1.638,27.741,27.741,0,0,0-34.2-20.827,23.915,23.915,0,0,0-42.8-4.613c-.9-.082-1.829-.136-2.757-.136A26.745,26.745,0,0,0,21.7,35.1h-.136a21.564,21.564,0,0,0,0,43.129H136.292Z" transform="matrix(0.848, 0.53, -0.53, 0.848, -266.141, 3272.211)" fill="#d6ab80"/><path d="M137.189,80.084a22.5,22.5,0,1,0-8.462-43.347l1.146.655A28.963,28.963,0,0,0,106.1,15.254a29.376,29.376,0,0,0-11.547.628l1.146.655A25.226,25.226,0,0,0,81.64,1.824,24.9,24.9,0,0,0,60.049,3.216,25.328,25.328,0,0,0,51.2,11.706c.273-.164.546-.3.792-.464A27.638,27.638,0,0,0,21.7,36.027l.928-.928A21.389,21.389,0,0,0,8.949,39.63a22.489,22.489,0,0,0,1.474,36.96c4.2,2.675,8.9,3.494,13.785,3.494h89.915c7.561,0,15.15.191,22.711,0h.328a.928.928,0,0,0,0-1.856H40.341c-5.978,0-11.956.027-17.934,0a20.632,20.632,0,0,1-6.933-40.072,18.965,18.965,0,0,1,7.07-1.174.957.957,0,0,0,.928-.928A25.822,25.822,0,0,1,51.914,13.125a.885.885,0,0,0,.792-.464,22.991,22.991,0,0,1,41.109,4.395.941.941,0,0,0,1.146.655,27.106,27.106,0,0,1,29.617,11.765,27.466,27.466,0,0,1,3.439,8.435.941.941,0,0,0,1.146.655,20.629,20.629,0,1,1,7.943,39.662.928.928,0,0,0,0,1.856Z" transform="matrix(0.848, 0.53, -0.53, 0.848, -266.383, 3270.907)"/><path d="M21.677,0s2.566,15.723-4.832,18.016C9.449,20.281-.87,19.353.058,0Z" transform="matrix(0.848, 0.53, -0.53, 0.848, -230.132, 3335.269)"/><path d="M21.789,2.4c0,.137.082.628.027.273-.055-.382.027.273.055.409.027.273.055.546.082.792a40.166,40.166,0,0,1,.191,4.449,19.885,19.885,0,0,1-.546,5A8.18,8.18,0,0,1,19.742,17.2a3.922,3.922,0,0,1-1.392.9q-.942.287-1.883.491c-.328.082-.655.137-1.01.191-.082,0-.519.082-.3.055.218,0-.273.027-.382.027a15.756,15.756,0,0,1-1.965.055,6.3,6.3,0,0,1-1.01-.082c.41.055-.464-.082-.655-.136a5.526,5.526,0,0,1-.9-.246l-.437-.164c-.409-.136.082.055-.218-.082a7.246,7.246,0,0,1-3.057-2.4h0l-.218-.3c-.109-.191-.246-.382-.355-.573a12.551,12.551,0,0,1-.71-1.338,17.734,17.734,0,0,1-.9-2.866,32.251,32.251,0,0,1-.573-8.871L1.917,3.715H23.536a1.857,1.857,0,0,0,0-3.712H1.917A1.876,1.876,0,0,0,.061,1.858c-.218,5.05.027,10.81,2.839,15.2a11.594,11.594,0,0,0,8.216,5.35c3.057.437,6.988.136,9.69-1.474,3.6-2.156,4.613-6.77,4.913-10.618a36.445,36.445,0,0,0-.409-8.953,1.867,1.867,0,1,0-3.6.983Z" transform="matrix(0.848, 0.53, -0.53, 0.848, -230.741, 3332.633)"/><path d="M18.655,0s1.529,17.825-7.861,18.4S-.48,12.338.093,0H18.655Z" transform="matrix(0.848, 0.53, -0.53, 0.848, -250.81, 3322.347)"/><path d="M18.737,1.856a36.723,36.723,0,0,1,.055,4.586c-.027.71-.082,1.392-.137,2.075a4.07,4.07,0,0,1-.055.573c0,.136-.055.491,0,.164-.055.382-.109.764-.191,1.174a20.5,20.5,0,0,1-.519,2.238c-.109.355-.218.71-.328,1.037l-.164.464-.109.3h0a15.732,15.732,0,0,1-1.037,1.883c-.246.355.082-.055-.136.164l-.3.328a9.4,9.4,0,0,1-.764.71c.273-.218-.055,0-.164.109l-.382.218c-.082.055-.573.246-.164.109-.164.055-.328.136-.519.191a3.988,3.988,0,0,1-.546.137c-.136.027-.491.082-.164.027a12.342,12.342,0,0,1-1.419.055,10.521,10.521,0,0,1-1.31-.055c-.409-.027-.055,0-.355-.027-.218-.027-.409-.082-.628-.109-.355-.082-.71-.191-1.065-.3-.109-.055-.437-.191-.164-.055-.191-.082-.382-.191-.573-.273l-.409-.246-.3-.218-.273-.246-.382-.382-.355-.409c.191.246,0,0-.082-.136a9.154,9.154,0,0,1-.573-.983c-.055-.082-.3-.628-.164-.328a4.923,4.923,0,0,1-.218-.573c-.164-.437-.273-.873-.409-1.338a19.054,19.054,0,0,1-.491-2.812,56.647,56.647,0,0,1-.109-8.053L1.977,3.712H20.566a1.857,1.857,0,0,0,0-3.712H1.977A1.876,1.876,0,0,0,.121,1.856c-.191,4.5-.382,9.5,1.338,13.758A9.817,9.817,0,0,0,9.593,22a11.553,11.553,0,0,0,5.787-.464,9,9,0,0,0,4.04-3.358c1.965-2.839,2.593-6.5,2.921-9.881a39.047,39.047,0,0,0,.082-6.442A1.894,1.894,0,0,0,20.566,0,1.791,1.791,0,0,0,18.71,1.856Z" transform="matrix(0.848, 0.53, -0.53, 0.848, -251.47, 3319.746)"/><path d="M3.685,0c3.33,5.814,6.524,11.71,9.963,17.443a4.787,4.787,0,0,1-1.256.573c-.6.191-1.2.328-1.829.464C6.933,12.393,3.549,6.114,0,0H3.685Z" transform="matrix(0.848, 0.53, -0.53, 0.848, -226.378, 3337.614)" fill="#fff"/><path d="M1.829,0C5.4,6.224,8.817,12.529,12.338,18.807c-.6.055-1.174.082-1.774.082C7.043,12.611,3.6,6.251,0,0Z" transform="matrix(0.848, 0.53, -0.53, 0.848, -229.503, 3335.662)" fill="#fff"/><path d="M0,0H3.576c2.293,4.2,4.559,8.435,6.906,12.638.382.682.737,1.365,1.119,2.02a8.179,8.179,0,0,1-2.238,2.566c-.328-.628-.655-1.256-.983-1.856Q4.286,7.67.027,0Z" transform="matrix(0.848, 0.53, -0.53, 0.848, -246.773, 3324.87)" fill="#fff"/><path d="M8.462,11.355c1.174,2.047,2.266,4.122,3.385,6.169a5.813,5.813,0,0,1-1.529.628C9.226,16.16,8.162,14.14,7.07,12.147,4.831,8.025,2.375,4.013,0,0H1.829C4.04,3.767,6.278,7.561,8.462,11.355Z" transform="matrix(0.848, 0.53, -0.53, 0.848, -249.296, 3323.294)" fill="#fff"/><path d="M1.791,4.081c8.271-.682,16.569-.246,24.867-.055,2.4.055,2.4-3.685,0-3.712-8.3-.191-16.6-.628-24.867.055C-.583.56-.611,4.3,1.791,4.081Z" transform="matrix(0.848, 0.53, -0.53, 0.848, -231.201, 3332.009)"/><path d="M24.158.47A88.972,88.972,0,0,0,13.048.006,95.634,95.634,0,0,0,1.856.361,1.894,1.894,0,0,0,0,2.217,1.761,1.761,0,0,0,1.856,4.073a90.025,90.025,0,0,1,11.192-.355,88.759,88.759,0,0,1,11.11.464c1.01.136,1.856-.955,1.856-1.856A2.064,2.064,0,0,0,24.158.47Z" transform="matrix(0.848, 0.53, -0.53, 0.848, -252.93, 3318.344)"/><path d="M11.35,1.338A10.339,10.339,0,0,0,6.109,0,9.37,9.37,0,0,0,.922,1.447,1.854,1.854,0,1,0,2.806,4.64a5.25,5.25,0,0,1,.846-.491c.273-.136.082,0-.055,0l.218-.082c.164-.055.355-.109.519-.164s.355-.082.546-.136l.246-.055c.246-.055-.027,0-.136,0,.382,0,.737-.082,1.119-.082a6.956,6.956,0,0,1,1.065.055c.055,0,.355.027.055,0-.328-.027.082,0,.109,0l.491.109a7.585,7.585,0,0,1,1.037.328c.246.082-.055,0-.109-.055l.218.109a4.409,4.409,0,0,1,.491.273A1.883,1.883,0,0,0,12,3.794a1.908,1.908,0,0,0-.655-2.539Z" transform="matrix(0.848, 0.53, -0.53, 0.848, -240.537, 3334.271)"/><path d="M9.452,6.566A4.806,4.806,0,0,1,4.7,9.678,3.855,3.855,0,0,1,1.1,7.221,11.892,11.892,0,0,1,.035,1.08,1.266,1.266,0,0,1,.663.124,1.175,1.175,0,0,1,1.755.506a5.454,5.454,0,0,1,.6,1.774c.218,1.092.328,2.211.6,3.276A2.062,2.062,0,0,0,5,7.085C6.122,7.167,6.832,7,7.323,5.993A31.5,31.5,0,0,0,8.388,1.134C8.5.4,9.043-.094,9.561.015c.655.109.9.6.928,1.228A26.774,26.774,0,0,1,9.48,6.621Z" transform="matrix(0.848, 0.53, -0.53, 0.848, -237.613, 3359.288)" fill="#0a0a0a"/><path d="M21.009,17.032c1.911,2.539,3.9,1.638,4.886.873,1.61-1.256,0-2.784.655-4.477.6-1.529,3.931-2.73,5.842,2.02s-1.611,10.946-9.936,8.626c0,0-.382,6.2-8.025,4.859C8.152,27.841,6.46,16.4,6.46,16.4S-.392,11.927.018,8.979c.3-2.238,2.156-3.085,5-1.529,0,0-2.293-2.866-3.139-4.013S1.928-.848,5.613.217C9.026,1.2,12.247,4.175,15.959,9.17a5.844,5.844,0,0,1,3.685-5.623c3.9-1.447,7.78,1.146,9.363,3.685a3.219,3.219,0,0,1-1.447,5c-1.365.409-3.549-1.72-5.1-2.211-1.856-.573-4.7,2.73-1.474,7.015Z" transform="matrix(0.848, 0.53, -0.53, 0.848, -288.643, 3279.139)" fill="#d6ab80"/><path d="M21.191,18.65c1.529,1.911,3.876,2.593,5.951,1.065a2.9,2.9,0,0,0,1.2-3.057c-.136-.873-.464-1.938.409-2.484C30.691,13,32.246,16.057,32.6,17.5a5.664,5.664,0,0,1-1.174,5.186c-1.993,2.238-5.241,2.129-7.889,1.419a.933.933,0,0,0-1.174.9c0,.273.055-.136-.027.218a6.487,6.487,0,0,1-.3,1.037A4.276,4.276,0,0,1,20.072,28.5c-3.085,1.638-6.742.191-8.6-2.511a21.449,21.449,0,0,1-3-7.67c-.136-.6-.109-1.31-.573-1.747-.655-.628-1.556-1.092-2.266-1.665a12.314,12.314,0,0,1-3.6-3.9A1.867,1.867,0,0,1,2.193,8.96C3.012,8,4.54,8.687,5.414,9.151A.936.936,0,0,0,6.533,7.677C5.6,6.531,4.677,5.357,3.776,4.183A1.422,1.422,0,0,1,4.95,1.836C6.861,1.7,8.962,3.173,10.382,4.32a36.056,36.056,0,0,1,5.65,6.224c.491.682,1.774.546,1.747-.464A5.037,5.037,0,0,1,19.2,6.367c2.457-2.4,6.387-1.365,8.653.764,1.037.955,2.238,2.484,1.583,3.958-.655,1.447-1.665,1.228-2.839.573-1.8-1.037-3.712-2.593-5.65-.928-2.348,2.047-1.474,5.487.109,7.67.682.955,2.32.027,1.611-.928-.928-1.31-1.856-3.112-1.01-4.7.655-1.2,1.447-1.01,2.484-.437,1.174.682,2.457,1.747,3.876,1.774a3.668,3.668,0,0,0,2.866-1.829c1.8-3-.928-6.224-3.412-7.78-2.784-1.72-6.579-1.993-9.2.164a6.892,6.892,0,0,0-2.375,5.4c.573-.164,1.146-.3,1.747-.464a33.929,33.929,0,0,0-6.988-7.4C8.826.88,6.1-.566,3.776.225A3.3,3.3,0,0,0,1.729,4.4,12.786,12.786,0,0,0,3.64,7.049c.519.682,1.065,1.338,1.611,2.02.382-.491.764-.983,1.119-1.474C4.677,6.722,2.384,6.067.91,7.7a3.857,3.857,0,0,0-.3,4.586C2,14.72,4.568,16.658,6.888,18.159a4.251,4.251,0,0,0-.437-.546,22.375,22.375,0,0,0,3.822,9.936A8.242,8.242,0,0,0,16.5,30.989,7.175,7.175,0,0,0,22.8,28.7a6.786,6.786,0,0,0,1.474-3.658c-.382.3-.792.6-1.174.9,2.73.737,5.841.873,8.3-.71a7.249,7.249,0,0,0,3.276-5.514,7.909,7.909,0,0,0-2.839-6.879,3.53,3.53,0,0,0-4.968.682,3.236,3.236,0,0,0-.519,1.665c-.027.764.437,1.747.246,2.457-.164.573-.983.983-1.556,1.092-1.092.191-1.856-.6-2.484-1.365-.764-.928-2.075.382-1.31,1.31Z" transform="matrix(0.848, 0.53, -0.53, 0.848, -288.843, 3277.877)"/><path d="M.471,1.749A23.545,23.545,0,0,1,8.305,8.382a.936.936,0,1,0,1.611-.955A25.832,25.832,0,0,0,1.4.111C.334-.435-.594,1.176.471,1.722Z" transform="matrix(0.848, 0.53, -0.53, 0.848, -289.181, 3285.944)"/><path d="M.267,1.614q.491.491.983,1.065c.164.191.3.355.464.546h0l.136.191.218.3A23.234,23.234,0,0,1,3.624,6.173a.936.936,0,1,0,1.611-.955A22.289,22.289,0,0,0,1.577.276a.915.915,0,0,0-1.31,0,.939.939,0,0,0,0,1.31Z" transform="matrix(0.848, 0.53, -0.53, 0.848, -280.41, 3291.713)"/><path d="M3.834.212A12.792,12.792,0,0,0,.121,4.606a.931.931,0,0,0-.082.71.867.867,0,0,0,.437.546.958.958,0,0,0,1.283-.328,8.435,8.435,0,0,1,.655-1.2l.191-.273c.136-.191-.136.164,0,0l.082-.109a4.2,4.2,0,0,1,.464-.519c.628-.655,1.31-1.256,1.993-1.856a.939.939,0,0,0,0-1.31.939.939,0,0,0-1.31,0Z" transform="matrix(0.848, 0.53, -0.53, 0.848, -286.178, 3294.365)"/><path d="M12.092,25.277c1.8,0,.355-8.981,4.64-10.7,1.665-.655,7.452-1.392,7.452-1.938S18.4,11.383,16.733,10.7C12.447,8.981,13.867,0,12.092,0s-.355,8.981-4.64,10.7C5.787,11.355,0,12.092,0,12.638s5.787,1.256,7.452,1.938C11.738,16.3,10.318,25.277,12.092,25.277Z" transform="matrix(0.848, 0.53, -0.53, 0.848, -151.28, 3358.211)" fill="#fff"/><path d="M12.8,26.014v.71a1.121,1.121,0,0,0,.71-.246,2.036,2.036,0,0,0,.655-1.01,14.817,14.817,0,0,0,.464-2.429A23.53,23.53,0,0,1,15.5,18.7a4.19,4.19,0,0,1,2.184-2.757,12.317,12.317,0,0,1,1.747-.464c1.146-.246,2.539-.519,3.658-.764.573-.136,1.064-.246,1.447-.355a2.958,2.958,0,0,0,.519-.218l.273-.218a.848.848,0,0,0,.218-.546.7.7,0,0,0-.136-.437.938.938,0,0,0-.355-.328,6.028,6.028,0,0,0-1.5-.491c-.928-.218-2.156-.437-3.276-.682a17.8,17.8,0,0,1-2.62-.655A3.723,3.723,0,0,1,15.75,8.735a18.914,18.914,0,0,1-1.174-5.186,13.767,13.767,0,0,0-.437-2.211A2.5,2.5,0,0,0,13.7.491,1.313,1.313,0,0,0,12.748,0a1.122,1.122,0,0,0-.71.246,2.036,2.036,0,0,0-.655,1.01,14.826,14.826,0,0,0-.464,2.429,23.522,23.522,0,0,1-.873,4.34,4.19,4.19,0,0,1-2.184,2.757,12.32,12.32,0,0,1-1.747.464c-1.146.246-2.539.519-3.658.764-.573.137-1.064.246-1.447.382a2.96,2.96,0,0,0-.519.218l-.273.218A.849.849,0,0,0,0,13.375a.7.7,0,0,0,.137.437,1.244,1.244,0,0,0,.355.328,6.026,6.026,0,0,0,1.5.491c.928.218,2.156.437,3.276.682a17.819,17.819,0,0,1,2.62.655A3.636,3.636,0,0,1,9.8,18.016,18.911,18.911,0,0,1,10.973,23.2a13.777,13.777,0,0,0,.437,2.211,2.5,2.5,0,0,0,.437.846,1.314,1.314,0,0,0,.955.491v-1.2l.109-.164H12.8v.164l.109-.164h0a1.664,1.664,0,0,1-.218-.519c-.3-1.065-.437-3.166-.9-5.214A11.082,11.082,0,0,0,10.7,16.733a4.682,4.682,0,0,0-2.293-2.047,17.084,17.084,0,0,0-1.965-.546c-1.174-.246-2.566-.519-3.658-.764-.546-.109-1.01-.246-1.31-.328L1.2,12.939v0h0v0a2.5,2.5,0,0,1-.218.355l.355-.246-.082-.109-.246.355.355-.246L.874,13.4h.6l-.109-.355L.874,13.4h0l.519.328.082-.328h-.6l.519.328-.41-.246.3.355.109-.109-.41-.246.3.355-.109-.109.082.136h0l-.109-.136.082.136a5.331,5.331,0,0,1,1.119-.328c.873-.218,2.1-.437,3.248-.682a20.326,20.326,0,0,0,2.866-.737A5.033,5.033,0,0,0,11.11,9.363a19.492,19.492,0,0,0,1.283-5.569,12.464,12.464,0,0,1,.382-1.965,1.03,1.03,0,0,1,.164-.382h0l-.109-.136V1.5l.109-.027-.109-.136v0L12.72,1.5h.109V1.338L12.72,1.5h0a1.662,1.662,0,0,1,.218.519c.3,1.065.437,3.166.9,5.214a11.079,11.079,0,0,0,1.092,2.921A4.682,4.682,0,0,0,17.224,12.2a17.069,17.069,0,0,0,1.965.546c1.174.246,2.566.519,3.658.764.546.109,1.01.246,1.31.328l.273.109v0h0v0a2.494,2.494,0,0,1,.218-.355l-.355.246.082.109.246-.355-.355.246.491-.355h-.6l.109.355.491-.355h0l-.519-.328-.082.328h.6l-.519-.328.409.246-.3-.355-.109.109.409.246-.3-.355.109.109-.082-.136h0l.109.136-.082-.136a5.333,5.333,0,0,1-1.119.328c-.874.218-2.1.437-3.248.682a20.324,20.324,0,0,0-2.866.737,5.034,5.034,0,0,0-2.648,2.757,19.5,19.5,0,0,0-1.283,5.569,12.49,12.49,0,0,1-.382,1.965,1.029,1.029,0,0,1-.164.382h0l.109.136v-.191h-.109a1.187,1.187,0,0,0,.109.191v.437Z" transform="matrix(0.848, 0.53, -0.53, 0.848, -151.491, 3357.21)"/><path d="M9.144,19.053c1.365,0,.273-6.8,3.521-8.08,1.256-.491,5.623-1.065,5.623-1.447s-4.368-.955-5.623-1.447C9.417,6.8,10.509,0,9.144,0S8.871,6.8,5.623,8.08C4.368,8.571,0,9.144,0,9.527s4.368.955,5.623,1.447C8.871,12.256,7.78,19.053,9.144,19.053Z" transform="matrix(0.848, 0.53, -0.53, 0.848, -153.661, 3330.651)" fill="#fff"/><path d="M9.854,19.845v.71a1.177,1.177,0,0,0,.655-.218,1.623,1.623,0,0,0,.546-.846,10.217,10.217,0,0,0,.355-1.856,15.941,15.941,0,0,1,.655-3.248,3.08,3.08,0,0,1,1.556-1.993c.218-.082.737-.218,1.31-.355.873-.191,1.911-.382,2.757-.573.437-.082.792-.191,1.119-.273L19.244,11l.246-.191a.786.786,0,0,0,.218-.546.614.614,0,0,0-.136-.409,1,1,0,0,0-.327-.3,3.951,3.951,0,0,0-1.174-.382c-.71-.164-1.638-.355-2.484-.519a11.893,11.893,0,0,1-1.938-.491,2.736,2.736,0,0,1-1.365-1.447,14.619,14.619,0,0,1-.874-3.876,9.3,9.3,0,0,0-.328-1.692,2.159,2.159,0,0,0-.355-.71A1.134,1.134,0,0,0,9.854,0,1.177,1.177,0,0,0,9.2.218a1.622,1.622,0,0,0-.546.846A10.217,10.217,0,0,0,8.3,2.921a15.935,15.935,0,0,1-.655,3.248A3.08,3.08,0,0,1,6.087,8.162c-.218.082-.737.218-1.31.355C3.9,8.708,2.866,8.9,2.02,9.09c-.437.082-.792.191-1.119.273l-.437.191-.246.191A.786.786,0,0,0,0,10.291a.614.614,0,0,0,.137.409.993.993,0,0,0,.327.3,3.949,3.949,0,0,0,1.174.382c.71.164,1.638.355,2.484.519a13.305,13.305,0,0,1,1.965.491,2.6,2.6,0,0,1,1.338,1.447A14.611,14.611,0,0,1,8.3,17.716a9.31,9.31,0,0,0,.328,1.692,2.163,2.163,0,0,0,.355.71,1.135,1.135,0,0,0,.874.437V19.49l.191-.246-.191-.055v.328l.191-.246-.082.136.109-.109h0l-.082.109L10.1,19.3l-.055-.082a7.113,7.113,0,0,1-.328-1.5,22.021,22.021,0,0,0-.71-3.6,5.616,5.616,0,0,0-.846-1.72,3.686,3.686,0,0,0-1.556-1.228,10.953,10.953,0,0,0-1.529-.409c-.9-.191-1.965-.382-2.784-.573a7.247,7.247,0,0,1-.983-.246l-.164-.055-.191.3L1.2,9.936l-.082-.055-.191.3.246-.246-.437.409h.6a.521.521,0,0,0-.164-.409l-.437.409H.71l.519.328.109-.328H.71l.519.328-.382-.246.218.382.137-.136-.382-.246.218.382a7.6,7.6,0,0,1,.792-.246c.655-.164,1.583-.328,2.457-.519A19.378,19.378,0,0,0,6.469,9.5a3.961,3.961,0,0,0,2.1-2.156,14.952,14.952,0,0,0,.983-4.258,8.465,8.465,0,0,1,.273-1.474l.109-.246-.164-.136.082.164.055-.055L9.745,1.2l.082.164-.164-.3v.328l.164-.027-.164-.3v0l-.191.246.191.055V1.037l-.191.246.082-.136-.109.109h0l.082-.109-.109.109.055.082A7.2,7.2,0,0,1,9.8,2.812a22.01,22.01,0,0,0,.71,3.6,5.616,5.616,0,0,0,.846,1.72,3.686,3.686,0,0,0,1.556,1.228,9.992,9.992,0,0,0,1.529.409c.9.191,1.965.382,2.757.573a7.248,7.248,0,0,1,.983.246l.164.055.191-.3-.246.246.082.055.191-.3-.246.246.437-.409h-.6a.521.521,0,0,0,.164.409l.437-.409h.027l-.519-.328-.109.328h.628l-.519-.328.382.246-.218-.382-.136.136.382.246-.218-.382a7.6,7.6,0,0,1-.792.246c-.655.164-1.583.328-2.457.519a19.37,19.37,0,0,0-2.184.546,3.961,3.961,0,0,0-2.1,2.156,14.95,14.95,0,0,0-.983,4.258,8.454,8.454,0,0,1-.273,1.474l-.109.246.164.136-.082-.164-.055.055.164.136-.082-.164.164.3v-.328H9.663a3.656,3.656,0,0,0,.164.328v.382Z" transform="matrix(0.848, 0.53, -0.53, 0.848, -153.843, 3329.604)"/></g></g></svg>