<svg xmlns="http://www.w3.org/2000/svg" width="159.346" height="160.825" viewBox="0 0 159.346 160.825"><g transform="translate(365.885 -3076.433)"><path d="M32.642,4.295S27.578-2.717,14.657,1.178-3.458,36.564,2.386,56.5c5.843,20,19.868,30.971,36.749,20.907L32.642,4.295Z" transform="translate(-346.166 3157.234) rotate(-14)" fill="#4182c4"/><path d="M27.8,83.307a19.385,19.385,0,0,1-7.142-1.363C12.54,78.762,6.048,70.191,2.477,57.855-3.562,37.143,1.7,5.328,15.462,1.238c13.5-4.09,18.894,3.246,19.154,3.506l.195.519L41.3,78.372a1.014,1.014,0,0,1-.519.974,25.408,25.408,0,0,1-12.986,3.9ZM23.124,2.082A23.891,23.891,0,0,0,16.047,3.25C3.905,6.886-1.159,38.117,4.489,57.27,7.931,68.957,13.969,77.073,21.436,80c5.519,2.143,11.427,1.428,17.725-2.078L32.733,5.783c-.714-.844-3.571-3.7-9.609-3.7Z" transform="translate(-347.465 3156.426) rotate(-14)" fill="#020202"/><path d="M4.988,95.5S-4.1,78.946,2.261,63.623C12.649,38.56,26.868,46.936,31.154,26.614c3.441-16.362-.455-31.49,13.83-25.127C57.774,7.135,66.02,38.171,49.918,49.858c0,0,38.827-3.246,48.047,7.726s1.3,25.322,1.3,25.322,9.22,13.83-2.857,22.79c0,0,3.636,16.427-11.622,21.3a35.616,35.616,0,0,1-20.517.519s-5.908,4.48-24.478,6.1S1.871,121.993,5.053,95.567Z" transform="translate(-339.566 3102.408) rotate(-14)" fill="#fff"/><path d="M37.78,135.684a33.685,33.685,0,0,1-24.153-9.869C8.757,120.751,3.238,111.6,4.991,96.663c-1.234-2.4-8.7-17.79-2.662-32.464C7.718,51.278,14.016,47.058,19.6,43.357c5.324-3.506,9.544-6.3,11.557-15.972A97.975,97.975,0,0,0,32.78,15.243C33.43,8.231,33.949,2.777,37.39.764c2.143-1.234,5-.974,9.025.779,7.012,3.117,13.05,13.7,14.219,25.192.974,9.479-1.428,17.66-6.688,22.92,9.544-.519,37.788-1.169,45.774,8.311,8.571,10.194,3.052,23.114,1.688,25.906,1.558,2.662,7.726,14.868-2.922,23.244.519,3.246,1.753,17.336-12.4,21.881a37.077,37.077,0,0,1-20.647.649c-1.753,1.1-8.506,4.61-24.543,5.973-1.039.065-2.078.13-3.117.13ZM40.442,2a4.007,4.007,0,0,0-2.013.454C35.9,3.946,35.442,8.945,34.858,15.373a104.313,104.313,0,0,1-1.688,12.4c-2.208,10.518-6.947,13.635-12.4,17.336C15.445,48.681,9.406,52.642,4.277,65.043-1.826,79.717,6.874,95.884,7,96.014l.13.649c-1.753,14.349,3.441,23.049,8.051,27.789,6.3,6.558,15.907,9.934,25.582,9.09,17.92-1.558,23.894-5.844,23.958-5.908l.974-.13a34.886,34.886,0,0,0,19.868-.519c14.219-4.545,11.038-19.478,10.908-20.128a1.028,1.028,0,0,1,.39-1.039c11.168-8.246,2.987-20.842,2.662-21.361v-1.1c0-.13,7.4-13.83-1.234-24.153-8.765-10.453-46.748-7.4-47.138-7.4a1.028,1.028,0,0,1-1.039-.649,1.047,1.047,0,0,1,.39-1.234c6.3-4.61,9.35-12.986,8.311-23.049-1.1-10.778-6.623-20.647-12.986-23.5A13.415,13.415,0,0,0,40.7,2Z" transform="translate(-340.874 3101.738) rotate(-14)" fill="#020202"/><path d="M27.59,27.113C14.344,27.113,3.112,22.7.71,15.3-2.6,5.038,6.748.1,6.813.1A1.129,1.129,0,0,1,8.241.558a1.129,1.129,0,0,1-.455,1.428C7.462,2.181,0,6.141,2.722,14.712c2.727,8.506,22.011,13.895,41.943,7.856a1.028,1.028,0,0,1,1.3.714,1,1,0,0,1-.714,1.3,62.552,62.552,0,0,1-17.66,2.6Z" transform="translate(-269.881 3169.635) rotate(-14)" fill="#020202"/><path d="M15.514,25.647S-1.627,20.842.126,8.441C1.165,1.169,6.034,0,6.034,0" transform="translate(-267.696 3189.405) rotate(-14)" fill="#fff"/><path d="M16.557,27.688H16.3C16.1,27.623-1.688,22.428.13,9.313,1.234,1.457,6.623.093,6.883.028A1,1,0,0,1,8.117.807a1,1,0,0,1-.779,1.234c-.195,0-4.22,1.168-5.129,7.531C.65,20.87,16.687,25.545,16.882,25.61a1.063,1.063,0,0,1-.26,2.078Z" transform="translate(-268.951 3188.685) rotate(-14)" fill="#020202"/><path d="M31.333,27.881q-2.337,0-5.064-.195C13.023,26.582,3.8,22.1.882,15.35A10.61,10.61,0,0,1,2.57,4.247c6.947-8.765,20.842-1.558,24.218.39C32.112-.233,41.2.741,41.656.741a1,1,0,0,1,.909,1.169,1,1,0,0,1-1.169.909c-.065,0-9.155-.974-13.7,3.831a1,1,0,0,1-1.3.195c-.13-.13-15.518-9.609-22.205-1.234a8.505,8.505,0,0,0-1.428,8.96C5.3,20.479,14.192,24.634,26.4,25.608c19.543,1.623,22.725-6.623,22.79-6.688a1.027,1.027,0,1,1,1.948.649c-.13.39-2.987,8.311-19.868,8.311Z" transform="translate(-276.221 3149.748) rotate(-14)" fill="#020202"/><path d="M22.92,0S35.191,30.971,0,47.722" transform="translate(-301.449 3144.221) rotate(-14)" fill="#fff"/><path d="M1.011,49.808A.919.919,0,0,1,.1,49.223,1,1,0,0,1,.621,47.86c33.892-16.1,22.855-45.19,22.4-46.423A1.027,1.027,0,0,1,23.606.073a1.049,1.049,0,0,1,1.363.584C25.1.982,37.176,32.732,1.53,49.678l-.454.13Z" transform="translate(-302.683 3143.45) rotate(-14)" fill="#020202"/><path d="M25.387,15.518l13.57,4.35a.541.541,0,0,1,0,1.039l-13.57,3.506-.39.325-5.259,14.8a.541.541,0,0,1-1.039,0l-4.415-15-.389-.39L.39,20.063a.586.586,0,0,1,0-1.1l13.83-3.7.39-.325L19.673.39a.541.541,0,0,1,1.039,0l4.415,14.739.39.39Z" transform="translate(-274.676 3088.964) rotate(-14)" fill="#edc155"/><path d="M20.2,42.008h0a1.523,1.523,0,0,1-1.493-1.169L14.355,26.1,1.11,22.076a1.474,1.474,0,0,1-1.1-1.558,1.6,1.6,0,0,1,1.169-1.493l13.57-3.636L19.679,1.1A1.509,1.509,0,0,1,21.238,0a1.524,1.524,0,0,1,1.493,1.169l4.35,14.479,13.375,4.285a1.542,1.542,0,0,1,1.1,1.558,1.584,1.584,0,0,1-1.234,1.493l-13.31,3.441L21.822,40.97a1.6,1.6,0,0,1-1.493,1.039Zm.454-1.753ZM3.253,20.582l11.882,3.636a1.494,1.494,0,0,1,1.039,1.1L20.2,38.892,25,25.517a1.607,1.607,0,0,1,1.1-1.039l11.947-3.052L26.042,17.6A1.65,1.65,0,0,1,25,16.557L21.043,3.246,16.5,16.362a1.607,1.607,0,0,1-1.1,1.039L3.188,20.647Zm23.439,5.908Zm-12.077-.26Zm12.466,0ZM1.694,21.1Z" transform="translate(-275.956 3088.147) rotate(-14)" fill="#020202"/><path d="M16.881,9.91l7.856,2.532a.811.811,0,0,1,0,1.558l-7.856,2.013-.584.519-3.181,8.9a.834.834,0,0,1-1.558,0L8.9,16.4l-.519-.519-7.791-2.4a.811.811,0,0,1,0-1.558L8.57,9.78l.584-.519L12.142.56A.822.822,0,0,1,13.7.56l2.662,8.83Z" transform="translate(-364.616 3134.835) rotate(-14)" fill="#edc155"/><path d="M13.375,28.067h0a1.962,1.962,0,0,1-1.753-1.3L8.96,17.743,1.3,15.536A1.891,1.891,0,0,1,0,13.718a1.812,1.812,0,0,1,1.363-1.753L9.35,9.822l2.857-8.57A1.736,1.736,0,0,1,14.024.018a1.871,1.871,0,0,1,1.753,1.3l2.6,8.7,7.791,2.467a1.891,1.891,0,0,1,1.3,1.818,1.8,1.8,0,0,1-1.428,1.753L18.18,18.068l-3.052,8.765a1.9,1.9,0,0,1-1.753,1.234ZM2.6,13.718l7.077,2.143a1.945,1.945,0,0,1,1.234,1.234l2.467,8.376L16.3,17.224a1.812,1.812,0,0,1,1.3-1.169l7.077-1.818L17.53,11.965A1.945,1.945,0,0,1,16.3,10.731l-2.4-8.181L11.1,10.6A1.722,1.722,0,0,1,9.869,11.77Z" transform="translate(-365.885 3134.038) rotate(-14)" fill="#020202"/></g></svg>