<svg xmlns="http://www.w3.org/2000/svg" xmlns:xlink="http://www.w3.org/1999/xlink" width="134" height="231" viewBox="0 0 134 231"><defs><clipPath id="a"><rect width="134" height="231" transform="translate(1562 924)" fill="#fff" stroke="#707070" stroke-width="1"/></clipPath></defs><g transform="translate(-1562 -924)" clip-path="url(#a)"><g transform="translate(1601.753 916.698) rotate(11)"><g transform="translate(25.281 -0.008)"><path d="M148.058,101.158c1,3.308,1.183,8.068,1.856,11.027,1.452,6.213,5.513,10.7,9.413,15.357,1.667,2.017,4.169,3.9,2.878,6.831-1.291,2.985-4.465,2.743-7.154,2.9-17.643.941-33.35-4.868-47.469-14.846-6.966-4.922-10-12.8-11.242-21.112-1-6.724,1.183-12.91,4.357-18.88.619-1.156,1.1-2.259,2.474-1.694,1.99.807,3.792-.968,5.271-2.313,1.318-1.21,2.178-2.313,4.169-.672,1.721,1.4,3.954.941,5.487-.753,1.156-1.264,1.829-1.56,3.227-.161,2.178,2.152,4.411,1.8,6.051-.834.7-1.13,1.264-.834,2.125-.43,1.91.861,3.738,1.022,5.3-.726,1.345-1.479,1.856.134,2.34.807,3.927,5.3,6.993,10.919,8.284,17.4.565,2.34,1.91,5.729,2.636,8.122Z" transform="translate(-95.532 -54.278)" fill="#b6342a"/><path d="M146.526,99.513l-.565.161c.968,3.174,1.156,7.934,1.856,10.973,1.506,6.4,5.675,10.973,9.548,15.6,1.425,1.667,3.12,3.174,3.093,4.868l-.3,1.345a3.656,3.656,0,0,1-2.663,2.178,23,23,0,0,1-3.98.377c-1.237.054-2.474.108-3.685.108-16,0-30.364-5.621-43.408-14.846-6.778-4.787-9.763-12.479-11-20.709a21.728,21.728,0,0,1-.242-3.227c0-5.325,1.91-10.355,4.545-15.3l.7-1.183.565-.35.457.108,1.264.242c1.963-.027,3.416-1.587,4.626-2.689.861-.834,1.479-1.4,1.963-1.345l1.425.7a4.149,4.149,0,0,0,2.636.968,5.126,5.126,0,0,0,3.685-1.775l1.183-.888,1.183.753a4.683,4.683,0,0,0,3.254,1.587,4.539,4.539,0,0,0,3.711-2.5l.538-.511.834.3a6.63,6.63,0,0,0,2.716.672,4.331,4.331,0,0,0,3.281-1.533l.565-.4.3.269.565.888c3.9,5.271,6.885,10.785,8.176,17.159h0c.592,2.447,1.936,5.836,2.636,8.176l.565-.161.565-.161c-.726-2.421-2.071-5.809-2.609-8.1l-.592.134.592-.108c-1.318-6.616-4.438-12.291-8.391-17.643-.3-.3-.538-1.506-1.829-1.641l-1.425.807a3.127,3.127,0,0,1-2.394,1.156,5.806,5.806,0,0,1-2.232-.565l-1.318-.4-1.56,1.076c-.861,1.372-1.8,1.963-2.716,1.936a3.5,3.5,0,0,1-2.421-1.237,2.955,2.955,0,0,0-2.017-1.1c-.861,0-1.425.592-2.071,1.264a3.907,3.907,0,0,1-2.8,1.4l-1.856-.7a3.469,3.469,0,0,0-2.178-.968c-1.264.027-1.963.941-2.77,1.667-1.21,1.156-2.609,2.394-3.819,2.367l-.807-.161-.914-.188-1.506.78L98.68,80.5C96.017,85.528,94,90.746,94,96.367a23.934,23.934,0,0,0,.242,3.389c1.237,8.391,4.33,16.46,11.511,21.516,13.178,9.306,27.782,15.061,44.081,15.061,1.237,0,2.5-.027,3.765-.108a23.1,23.1,0,0,0,4.223-.4,4.822,4.822,0,0,0,3.443-2.851l.4-1.829c-.054-2.474-2.1-4.061-3.362-5.621-3.9-4.653-7.88-9.064-9.279-15.115-.672-2.851-.834-7.638-1.883-11.054l-.565.161Z" transform="translate(-94 -52.634)" fill="#231f20"/><path d="M146,21.967c-.108,1.8-.054,3.792-2.394,3.98-2.878.269-4.088-1.829-5.137-3.927-.941.134-.672.941-.914,1.452-1.345,2.8-4.68,3.765-7.02,1.721-1.56-1.372-2.259-.941-3.362.269a10.1,10.1,0,0,1-4.088,2.878l-1.883.054V26.673a10.074,10.074,0,0,1,4.2-5.271c1.99-1.237,3.9-2.555,5.89-3.792,2.178-1.345,2.609-3.12,1.748-5.352-.834-2.178-1.587-4.411-2.421-6.589-.7-1.8-.108-2.958,1.883-3.389,1.883-.4,3.2.215,3.631,2.071.215.968.377,1.936.565,2.9,1.237,6.078,5.7,10,12.21,10.7a9.519,9.519,0,0,1,3.254.968c1.425.7,2.259,1.614,1.614,3.227-.592,1.506-1.748,1.963-3.389,1.829-1.694-.161-2.932-1.183-4.411-2.017Z" transform="translate(-113.885 -1.578)" fill="#87a241"/><path d="M144.5,20.381h-.592a8.38,8.38,0,0,1-.323,2.367,1.535,1.535,0,0,1-1.533,1.022h-.43c-2.152,0-3.12-1.614-4.115-3.6l-.619-.323-1.21,1.022-.161.753a4.121,4.121,0,0,1-3.658,2.474,3.675,3.675,0,0,1-2.421-.941,3.239,3.239,0,0,0-2.044-1,2.964,2.964,0,0,0-2.152,1.318A9.754,9.754,0,0,1,121.4,26.19l.215.565v-.592l-1.291.027v-1.1h-.619l.565.215a9.613,9.613,0,0,1,3.954-4.976c2.017-1.237,3.927-2.582,5.89-3.792a4.445,4.445,0,0,0,2.447-3.873,5.974,5.974,0,0,0-.457-2.178c-.834-2.178-1.587-4.384-2.421-6.589l-.242-1.1c.027-.753.35-1.156,1.694-1.506l.914-.108c1.1.054,1.667.43,2.017,1.721.215.941.377,1.91.565,2.878,1.264,6.32,6,10.489,12.748,11.161a8.483,8.483,0,0,1,3.039.914c1.049.511,1.506,1,1.506,1.667l-.188.807a2.148,2.148,0,0,1-2.286,1.479h-.484c-1.479-.134-2.636-1.076-4.169-1.963h-.592l-.323.484h.592c0,.027-.3.565-.3.565,1.425.78,2.716,1.91,4.653,2.1h.592a3.29,3.29,0,0,0,3.389-2.205l.269-1.237A3.169,3.169,0,0,0,150.9,16.8a10.445,10.445,0,0,0-3.443-1.022c-6.32-.672-10.489-4.384-11.7-10.22-.188-.941-.35-1.936-.565-2.9A3.052,3.052,0,0,0,132.05-.005l-1.156.134c-1.587.3-2.689,1.291-2.636,2.663l.323,1.533c.834,2.178,1.587,4.384,2.421,6.589l.377,1.748A3.311,3.311,0,0,1,129.5,15.54c-2.017,1.237-3.927,2.582-5.89,3.792a10.694,10.694,0,0,0-4.438,5.567v.215c-.027,0,0,1.721,0,1.721l.188.43.43.161,1.883-.054h.188a11.427,11.427,0,0,0,4.3-3.066l1.264-.914,1.264.7a4.78,4.78,0,0,0,3.227,1.237,5.332,5.332,0,0,0,4.734-3.147l.242-.941.242-.161-.081-.592-.538.269c.968,1.963,2.259,4.276,5.191,4.276h.538a2.788,2.788,0,0,0,2.528-1.8,9.093,9.093,0,0,0,.4-2.77h-.592c0-.027-.3.484-.3.484l.3-.511Z" transform="translate(-112.39 0.008)" fill="#231f20"/><path d="M110.7,305.344l-.215-.35a21.3,21.3,0,0,0-.78-5.056,21.781,21.781,0,0,1-.807-5.325c.054-2.716,1.372-4.841,4.088-6.482l4.787-2.932a9.081,9.081,0,0,1,.619,3.685,33.108,33.108,0,0,1-.323,6.8c-.457,2.528-1.694,3.093-3.685,3.738-1.936.619-2.178,1.479-2.071,3.254a1.027,1.027,0,0,1,.242,1.614l-1.506,1.022-.215.054-.188-.054Z" transform="translate(-104.889 -208.494)" fill="#e3a575"/><path d="M116.991,284.161c-.054,3.738.3,6.993-.3,10.086-.43,2.286-1.479,2.8-3.416,3.416-2.205.726-2.447,1.856-2.34,3.658l.35,1.345-1.425.968c.027-3.6-1.641-6.8-1.587-10.408.054-2.824,1.587-4.733,3.9-6.132,1.4-.834,2.8-1.721,4.787-2.932m0-.807-.4.108-1.8,1.1c-1.1.672-2.017,1.237-2.958,1.8-2.851,1.721-4.249,3.927-4.3,6.8a22.457,22.457,0,0,0,.807,5.433,21.286,21.286,0,0,1,.78,4.975l.4.7.377.108.43-.134,1.425-.968.161-.161a1.523,1.523,0,0,0-.161-2.178c-.081-1.372.134-2.017,1.8-2.582,1.99-.645,3.443-1.318,3.927-4.034a34.266,34.266,0,0,0,.323-6.912c0-1.076-.054-2.178,0-3.308l-.4-.7-.4-.108Zm0,1.587Z" transform="translate(-103.866 -207.105)" fill="#231f20"/><path d="M207.091,292.745l.027-.592-1.264-.054-.054,1.21,1.264.027.054-1.183-.027.592.027-.592-1.264-.054-.054,1.21,1.264.027.054-1.183Z" transform="translate(-175.732 -213.538)" fill="#231f20"/><path d="M179.656,312.5a5.631,5.631,0,0,1-3.281-1.076c-.78-.565-1.13-.78-1.425-.78l-1.076.323-.861.323c-1.425-.188-2.743.3-3.98,0a49.806,49.806,0,0,0-10.623-.861l-1.452.054a29.957,29.957,0,0,0-6.724,1.291,9.661,9.661,0,0,1-4.491.269l-.941-.78a6.948,6.948,0,0,0,.161-3.308,3.2,3.2,0,0,1,.511-2.743,3.786,3.786,0,0,1,2.958-.914,27.153,27.153,0,0,1,4.115.377,26.939,26.939,0,0,0,3.9.35l17.831-.377c1.587.081,2.663.134,3.335.914a2.811,2.811,0,0,1,.511,2.259l1.156.646a6.393,6.393,0,0,1,2.8,1.936,1.427,1.427,0,0,1-1.049,1.883l-1.345.161Z" transform="translate(-131.137 -222.457)" fill="#9fbe5b"/><path d="M146.8,303.383h.215c2.636.054,5.191.726,7.8.726h.269c5.836-.108,11.7-.242,17.535-.35,1.614.134,3.5-.135,3.227,2.5-.081.914.914.941,1.506,1.237a5.6,5.6,0,0,1,2.555,1.748l-.861,1.022-1.022.108a4.834,4.834,0,0,1-2.9-.968c-.861-.645-1.318-.888-1.775-.888a8.668,8.668,0,0,0-2.125.7c-4.169-.807-9.575-.161-14.174-.161l-1.479.054c-3.308.3-9.87.807-11.43.807l-.35-.188c.484-.78.215-2.985.161-3.362-.35-2.421.7-2.985,2.878-2.985m0-1.183a4.384,4.384,0,0,0-3.416,1.13,3.842,3.842,0,0,0-.645,3.227,6.5,6.5,0,0,1,0,2.555l-.161.672a1.409,1.409,0,0,0,1.56,1.345,10.518,10.518,0,0,0,4.653-.484c2.205-.753,5.191-.188,6.885-.323l1.372-.054c3.254,0,6.912-.78,10.381,0,1.291.3,2.447-.081,3.55.135h.215l.4-.054.888-.35.834-.3c.081,0,.3.081,1.076.645a5.956,5.956,0,0,0,3.631,1.21l1.237-.108.323-.108A1.993,1.993,0,0,0,181.14,309l-.188-.43a5.894,5.894,0,0,0-2.555-1.936l-.457-.215-.645-.242-.188-.054a3.328,3.328,0,0,0-.672-2.447,4.092,4.092,0,0,0-3.12-1.076h-.538c0-.027-5.379.081-5.379.081l-12.291.242h-.027a27.193,27.193,0,0,1-4.061-.35,36.665,36.665,0,0,0-3.927-.376h-.269Z" transform="translate(-129.529 -220.922)" fill="#231f20"/><path d="M144.465,295.308l-.565-.377.054-9.44.35-.538.242-.054.4.134.861.834a96.837,96.837,0,0,0,12.13.888l2.8.081,1.345.081a71.005,71.005,0,0,0,9.252,2.932l2.421.672.43.645-.592.511-17.589.35a29.51,29.51,0,0,1-4.33-.377,28.828,28.828,0,0,0-3.738-.35h0c-1.318,0-1.963.161-2.259.511a2.338,2.338,0,0,0-.215,1.8l-.242,1.13-.672.565h-.054Z" transform="translate(-130.479 -208.275)" fill="#7ea836"/><path d="M143.11,283.883l1.156,1a119.308,119.308,0,0,0,14.846.968l.753.108.511-.054a98.841,98.841,0,0,0,11.753,3.6c-5.836.108-11.7.242-17.535.35h-.269c-2.609,0-5.164-.672-7.8-.726h-.215c-2.205,0-3.254.565-2.878,2.985l-.35,1.21h0c0-3.147.027-6.293.054-9.44h0m0-1.183-.484.108-.7,1.076v1.21l-.054,8.23,1,1.183h.188l1.13-.807.4-1.748c-.134-.968.027-1.264.081-1.318.108-.108.43-.3,1.614-.3a28.771,28.771,0,0,1,3.846.35,30.019,30.019,0,0,0,4.169.377h.3l12.291-.242,5.244-.108,1.156-1.049-.861-1.291-2.528-.7a66.939,66.939,0,0,1-9.064-2.878l-.457-.081h-.269a1.352,1.352,0,0,1-.323.054l-.4-.054-2.8-.108a96.791,96.791,0,0,1-12.13-.861h0l-.134-.242-.457-.457-.78-.3Z" transform="translate(-129.017 -206.666)" fill="#231f20"/><path d="M161.973,276.3l-.645.565-3.281-.108a90.585,90.585,0,0,1-12.291-.888l-1.156-.807-.511-.753a4.794,4.794,0,0,1,1.21-3.577,3.876,3.876,0,0,1,2.8-1.13,4.235,4.235,0,0,1,2.286.565l11.834,5.594.323.672-.592.457V276.3Z" transform="translate(-130.613 -197.09)" fill="#9fbd5a"/><path d="M146.561,268.61l2.044.484c3.954,1.856,7.907,3.738,11.834,5.594l-1.264-.054a114.362,114.362,0,0,1-14.846-.968l-1.156-1h0c-.081-2.5,1.4-4.088,3.389-4.088m0-1.183a4.446,4.446,0,0,0-3.2,1.318,5.4,5.4,0,0,0-1.372,4.007l.4.861.269.269,1.506,1a97.68,97.68,0,0,0,12.452.914l2.555.081h.511l.753.054h.054l1.156-.914L161,273.613l-3.308-1.56-8.526-4.034a6.037,6.037,0,0,0-2.555-.619Z" transform="translate(-129.079 -195.481)" fill="#231f20"/><path d="M169.8,153.445c-.269,6.4-3.577,10.892-9.01,13.878a24.636,24.636,0,0,1-26.976-2.636,15.365,15.365,0,0,1-.888-23.425c9.6-9.225,27.648-7.181,34.56,3.9a14.262,14.262,0,0,1,2.34,8.257Z" transform="translate(-118.808 -99.007)" fill="#371614"/><path d="M149.3,180.486c1.614.538,1.856,2.421,3.416,2.663.645-.753-.081-1.156-.4-1.56a12.186,12.186,0,0,1-2.259-4.438c-1.56-6.24-.565-7.5,5.729-7.773,2.044-.081,4.169.188,6.024-1.21.188-.134,1.318.941,2.394.914a110.347,110.347,0,0,1,13.985.538c1.345.134,1.936.377,2.1,1.883.672,5.729.753,5.729-2.932,12,1.049.3,1.479-.834,2.259-.861.081,4.572-1.049,6.482-5.083,8.284-6.482,2.878-12.963,2.636-19.445-.054-2.716-1.13-4.572-2.8-4.895-5.917a43.136,43.136,0,0,0-.888-4.438Z" transform="translate(-134.427 -122.929)" fill="#e3a575"/><path d="M196.323,223c-2.1,3.738-7.746,3.712-10.623.43C189.116,225.071,192.531,225.77,196.323,223Z" transform="translate(-161.037 -163.022)" fill="#502d23"/><path d="M176.428,186.4l1.049.914a1.412,1.412,0,0,1-1.022,1.614l-1-.914A1.345,1.345,0,0,1,176.428,186.4Z" transform="translate(-153.541 -136.266)" fill="#502b22"/><path d="M226.4,188.876l.753-1.183c.914-.054,1.13.7,1.21,1.4.054.645-.215,1.264-1.022,1.13l-.914-1.345Z" transform="translate(-190.791 -137.209)" fill="#532d25"/><path d="M277.906,323.761c-1.694-1.452-2.689-3.577-4.6-4.841,2.1-2.421,1.21-6.051-2.044-8.068a19.573,19.573,0,0,0-2.152-1l-.511-1.345c0-.753.538-.807,1.076-.753,2.017.188,4.007.43,6.024.592l.914,1.022,1.291,14.362Z" transform="translate(-221.642 -224.974)" fill="#e1a574"/><path d="M276.809,322.706l.269-.3c-1.614-1.372-2.609-3.523-4.626-4.868l-.215.323.3.269a4.88,4.88,0,0,0,1.237-3.254,6.576,6.576,0,0,0-3.362-5.406l-2.205-1.022-.161.377.376-.134-.511-1.345-.377.134h.4l.43-.377h.215c1.99.215,4.007.43,6.024.619v-.4a2.533,2.533,0,0,1-.269.269l.914,1.022.3-.269h-.4c.43,4.814.861,9.628,1.291,14.416h.4a3.958,3.958,0,0,1,.269-.35l-.269.3h.4c-.43-4.814-.861-9.628-1.291-14.416l-.108-.242-.914-1.022-.269-.134c-1.99-.188-4.007-.4-6.024-.592h-.3l-.834.215-.4.941v.134l.538,1.345.215.215a18.955,18.955,0,0,1,2.1.968,5.765,5.765,0,0,1,2.985,4.734,4.09,4.09,0,0,1-1.049,2.743l-.081.323.188.269c1.8,1.156,2.77,3.281,4.545,4.814l.43.054.215-.377h-.4Z" transform="translate(-220.545 -223.919)" fill="#231f20"/></g><g transform="translate(0 87.457)"><path d="M25.21,326.5H92.8a23.909,23.909,0,0,1,23.91,23.91v87.758a23.909,23.909,0,0,1-23.91,23.91H25.21A23.909,23.909,0,0,1,1.3,438.167V350.41A23.909,23.909,0,0,1,25.21,326.5Z" transform="translate(-0.95 -326.15)" fill="#4182c4"/><path d="M.35,437.217H.7V349.459a23.507,23.507,0,0,1,23.533-23.533H91.819a23.507,23.507,0,0,1,23.533,23.533v87.758A23.507,23.507,0,0,1,91.819,460.75H24.259A23.507,23.507,0,0,1,.726,437.217H0a24.265,24.265,0,0,0,24.259,24.259H91.846a24.265,24.265,0,0,0,24.259-24.259V349.459A24.265,24.265,0,0,0,91.846,325.2H24.259A24.265,24.265,0,0,0,0,349.459v87.758Z" transform="translate(0 -325.2)"/><path d="M144.269,423.789a11.108,11.108,0,0,0,0-22.215,10.948,10.948,0,0,0-4.223.834,14.307,14.307,0,0,0-13.958-11.215,13.79,13.79,0,0,0-3.658.484,12.306,12.306,0,0,0-22.027-2.394,12.3,12.3,0,0,0-1.425-.081,13.749,13.749,0,0,0-13.689,12.345h-.081a11.108,11.108,0,1,0,0,22.215h59.034Z" transform="translate(-54.171 -367.82)" fill="#fff"/><path d="M143.077,422.891a11.587,11.587,0,1,0-4.357-22.323l.592.323a14.932,14.932,0,0,0-12.237-11.4,15.256,15.256,0,0,0-5.944.323c.188.108.4.215.592.323a12.8,12.8,0,0,0-18.342-6.885,12.827,12.827,0,0,0-4.545,4.357l.4-.242a14.373,14.373,0,0,0-14.281,8.068,14.968,14.968,0,0,0-1.318,4.707l.484-.484a10.967,10.967,0,0,0-7.046,2.34,11.866,11.866,0,0,0-4.115,5.89,11.705,11.705,0,0,0,4.868,13.152,12.9,12.9,0,0,0,7.1,1.8h46.286c7.154,0,7.8.108,11.7,0h.161a.485.485,0,0,0,0-.968H84.016a10.619,10.619,0,0,1-3.55-20.628,9.827,9.827,0,0,1,3.631-.619.521.521,0,0,0,.484-.484,13.3,13.3,0,0,1,14.658-11.78.5.5,0,0,0,.4-.242,11.8,11.8,0,0,1,18.046-2.394,12.086,12.086,0,0,1,3.093,4.653.475.475,0,0,0,.592.323,13.989,13.989,0,0,1,15.249,6.051,14.153,14.153,0,0,1,1.775,4.33.456.456,0,0,0,.592.323,10.626,10.626,0,1,1,4.088,20.44.485.485,0,0,0,0,.968Z" transform="translate(-52.98 -366.439)"/><path d="M207.824,449.5s1.318,8.1-2.474,9.279-9.117.672-8.633-9.279h11.108Z" transform="translate(-143.787 -416.07)"/><path d="M204.351,447.137c0,.081.054.323,0,.134v.215a2.077,2.077,0,0,0,.054.4,21.673,21.673,0,0,1,.108,2.286,11.516,11.516,0,0,1-.269,2.582,4.3,4.3,0,0,1-.941,1.99,1.749,1.749,0,0,1-.726.457c-.323.108-.645.188-.968.269-.161.027-.35.081-.511.108-.027,0-.269.027-.161,0h-.188a6.148,6.148,0,0,1-1,.027,3.245,3.245,0,0,1-.511-.027c.215,0-.242-.054-.35-.054a2.275,2.275,0,0,1-.457-.135l-.215-.081c-.215-.081.027,0-.108-.054a3.491,3.491,0,0,1-1.56-1.237h0l-.108-.134c-.054-.108-.134-.188-.188-.3a3.4,3.4,0,0,1-.35-.7,9.607,9.607,0,0,1-.457-1.479,17.309,17.309,0,0,1-.3-4.572l-.968.968h11.108a.955.955,0,0,0,0-1.91H194.185a.982.982,0,0,0-.968.968c-.108,2.609,0,5.567,1.452,7.826a6.088,6.088,0,0,0,4.222,2.77,8.238,8.238,0,0,0,5-.753c1.856-1.1,2.367-3.469,2.528-5.46a20.223,20.223,0,0,0-.215-4.6.966.966,0,0,0-1.183-.672,1,1,0,0,0-.672,1.183Z" transform="translate(-141.229 -413.438)"/><path d="M159.543,449.5s.78,9.171-4.061,9.467-5.809-3.12-5.513-9.467h9.575Z" transform="translate(-109.599 -416.07)"/><path d="M155.827,447.014a17.371,17.371,0,0,1,0,2.367c0,.35-.054.726-.081,1.076a1.1,1.1,0,0,1-.027.3c0,.054-.027.242,0,.081a4.567,4.567,0,0,1-.108.592c-.081.377-.161.78-.269,1.156-.054.188-.108.35-.161.538l-.081.242-.054.161h0a6.822,6.822,0,0,1-.538.968c-.108.188.027-.027-.054.081l-.161.188c-.134.134-.242.242-.4.377.134-.108,0,0-.081.054l-.188.108c-.054,0-.3.135-.081.054-.081.027-.161.054-.269.081-.081.027-.188.054-.269.081-.054,0-.242.027-.081,0-.242,0-.484.027-.726.027a5.63,5.63,0,0,1-.672-.027h-.188a1.346,1.346,0,0,1-.323-.054c-.188-.054-.377-.108-.538-.161-.054,0-.242-.108-.081-.027-.108-.054-.188-.081-.3-.135l-.215-.134-.161-.108-.134-.135-.188-.188-.188-.215c.108.134,0,0-.054-.054a3.168,3.168,0,0,1-.3-.511c0-.054-.161-.323-.081-.161a1.31,1.31,0,0,1-.108-.3c-.081-.215-.134-.457-.215-.7a7.437,7.437,0,0,1-.242-1.452,30.412,30.412,0,0,1-.054-4.142l-.968.968h9.575a.955.955,0,0,0,0-1.91h-9.575a1.085,1.085,0,0,0-.968.968c-.108,2.313-.188,4.895.7,7.073a5.032,5.032,0,0,0,4.2,3.281,5.941,5.941,0,0,0,2.985-.242,4.848,4.848,0,0,0,2.1-1.721,10.475,10.475,0,0,0,1.506-5.083,19.417,19.417,0,0,0,.054-3.308,1,1,0,0,0-.968-.968.932.932,0,0,0-.968.968Z" transform="translate(-106.851 -413.584)"/><path d="M207.083,449.5c1.721,2.985,3.362,6.024,5.137,8.983a3.579,3.579,0,0,1-.645.3,5.363,5.363,0,0,1-.941.242c-1.883-3.12-3.6-6.347-5.433-9.521Z" transform="translate(-150.012 -416.07)" fill="#fff"/><path d="M198.941,449.5c1.829,3.2,3.6,6.455,5.406,9.682-.3.027-.619.054-.914.054-1.8-3.227-3.577-6.509-5.433-9.709h.941Z" transform="translate(-144.748 -416.07)" fill="#fff"/><path d="M159.027,449.5h1.829c1.183,2.178,2.34,4.357,3.55,6.509l.565,1.049a3.94,3.94,0,0,1-1.156,1.318c-.161-.323-.35-.645-.511-.968-1.4-2.636-2.824-5.3-4.3-7.907Z" transform="translate(-116.237 -416.07)" fill="#fff"/><path d="M157.757,455.363c.592,1.049,1.183,2.125,1.748,3.174a3.972,3.972,0,0,1-.78.323c-.565-1.022-1.1-2.071-1.667-3.093-1.156-2.125-2.421-4.2-3.658-6.266h.941c1.156,1.936,2.286,3.873,3.416,5.836Z" transform="translate(-112.143 -416.07)" fill="#fff"/><path d="M192.505,447.389a119.54,119.54,0,0,1,12.8-.027.955.955,0,0,0,0-1.91,119.555,119.555,0,0,0-12.8.027C191.295,445.587,191.268,447.5,192.505,447.389Z" transform="translate(-140.06 -412.99)"/><path d="M154.852,445.439a45.15,45.15,0,0,0-5.729-.242,51.437,51.437,0,0,0-5.755.188,1,1,0,0,0-.968.968.917.917,0,0,0,.968.968,51.452,51.452,0,0,1,5.755-.188,45.35,45.35,0,0,1,5.729.242.982.982,0,0,0,.968-.968A1.062,1.062,0,0,0,154.852,445.439Z" transform="translate(-104.102 -412.923)"/><path d="M184.645,459.166a5.008,5.008,0,0,0-2.689-.672,4.651,4.651,0,0,0-2.663.753.964.964,0,1,0,.968,1.667,1.74,1.74,0,0,1,.43-.242c.134-.054.054,0-.027,0l.108-.054c.081-.027.188-.054.269-.081.081,0,.188-.054.269-.054h.134c.134-.054,0,0-.054,0,.188,0,.377-.027.592-.027a3.434,3.434,0,0,1,.538.027h.081l.242.054c.188.054.35.108.538.161.134.054,0,0-.054-.027l.108.054a2.5,2.5,0,0,0,.269.135.964.964,0,0,0,.968-1.668Z" transform="translate(-130.721 -422.643)"/><path d="M213.638,499.41A2.429,2.429,0,0,1,211.19,501a1.99,1.99,0,0,1-1.856-1.264,6.418,6.418,0,0,1-.565-3.174.639.639,0,0,1,.323-.484.617.617,0,0,1,.565.188,2.612,2.612,0,0,1,.3.914c.108.565.161,1.13.3,1.694a1.034,1.034,0,0,0,1.049.78c.592.054.941-.054,1.183-.565a17.583,17.583,0,0,0,.538-2.5.615.615,0,0,1,.619-.592c.35.054.457.323.484.619a13.667,13.667,0,0,1-.511,2.77Z" transform="translate(-152.613 -450.058)" fill="#0a0a0a"/><path d="M55.732,426.566a1.625,1.625,0,0,0,2.528.457c.834-.645,0-1.425.323-2.313.323-.78,2.017-1.4,3.012,1.049s-.834,5.648-5.11,4.438c0,0-.188,3.174-4.115,2.5-3.227-.565-4.088-6.455-4.088-6.455s-3.523-2.313-3.308-3.819c.161-1.156,1.1-1.587,2.582-.78,0,0-1.183-1.479-1.614-2.071s.027-2.205,1.91-1.668c1.748.511,3.416,2.044,5.325,4.6a3.036,3.036,0,0,1,1.883-2.9,4.242,4.242,0,0,1,4.814,1.91,1.686,1.686,0,0,1-.726,2.582c-.7.215-1.829-.888-2.636-1.13-.941-.3-2.421,1.4-.753,3.6Z" transform="translate(-32.872 -392.894)" fill="#fff"/><path d="M54.071,425.458a2.138,2.138,0,0,0,3.066.565,1.538,1.538,0,0,0,.619-1.56c-.054-.457-.242-1,.215-1.264,1-.619,1.8.968,1.99,1.721a2.963,2.963,0,0,1-.592,2.663c-1.022,1.156-2.689,1.1-4.061.726a.5.5,0,0,0-.619.457v.108a2.049,2.049,0,0,1-.161.538,2.15,2.15,0,0,1-1.022,1.156,3.508,3.508,0,0,1-4.438-1.291,10.918,10.918,0,0,1-1.533-3.954c-.054-.3-.054-.672-.3-.888-.323-.323-.807-.565-1.156-.861a6.338,6.338,0,0,1-1.856-2.017.933.933,0,0,1,.081-1.049c.43-.484,1.21-.134,1.667.108a.486.486,0,0,0,.592-.753c-.484-.592-.968-1.183-1.425-1.8a.734.734,0,0,1,.592-1.21,4.476,4.476,0,0,1,2.8,1.264,18.276,18.276,0,0,1,2.9,3.2c.269.35.914.269.888-.242a2.657,2.657,0,0,1,.726-1.91c1.264-1.237,3.281-.7,4.438.376.538.484,1.156,1.264.807,2.044-.323.753-.861.646-1.452.3-.914-.538-1.91-1.345-2.9-.484-1.21,1.049-.753,2.824.054,3.954.35.484,1.183,0,.834-.484a2.384,2.384,0,0,1-.511-2.421c.323-.619.753-.511,1.264-.215a4.642,4.642,0,0,0,1.99.914,1.871,1.871,0,0,0,1.479-.941c.914-1.56-.484-3.2-1.748-4.007a4.125,4.125,0,0,0-4.733.081,3.5,3.5,0,0,0-1.21,2.77l.888-.242a17.985,17.985,0,0,0-3.6-3.819c-.941-.672-2.34-1.452-3.55-1.022a1.7,1.7,0,0,0-1.049,2.152,4.851,4.851,0,0,0,1,1.345c.269.35.538.7.834,1.049.188-.242.377-.511.592-.753-.861-.457-2.044-.78-2.824.054a2.022,2.022,0,0,0-.161,2.367,10.257,10.257,0,0,0,3.227,3.039c-.081-.108-.134-.188-.215-.3a11.534,11.534,0,0,0,1.963,5.11,4.239,4.239,0,0,0,3.2,1.775,3.618,3.618,0,0,0,3.227-1.183,3.423,3.423,0,0,0,.753-1.883c-.215.161-.4.3-.619.457a5.274,5.274,0,0,0,4.276-.377A3.753,3.753,0,0,0,60.983,426a3.989,3.989,0,0,0-1.479-3.523,1.808,1.808,0,0,0-2.555.35,1.554,1.554,0,0,0-.269.861c0,.377.242.888.134,1.264-.081.3-.511.511-.807.565-.565.108-.968-.323-1.291-.7-.377-.484-1.049.188-.672.672Z" transform="translate(-31.56 -391.463)"/><path d="M50.99,430.264a12.66,12.66,0,0,1,4.034,3.416.47.47,0,1,0,.807-.484,13.734,13.734,0,0,0-4.384-3.765c-.538-.3-1.022.538-.484.834Z" transform="translate(-37.085 -401.352)"/><path d="M70.943,430.689c.161.161.35.35.511.538a2.858,2.858,0,0,1,.242.3h0l.054.081.108.161a12.541,12.541,0,0,1,.807,1.264.456.456,0,0,0,.645.161.479.479,0,0,0,.161-.645,10.861,10.861,0,0,0-1.883-2.528.475.475,0,0,0-.672.672Z" transform="translate(-51.74 -401.723)"/><path d="M66.235,440.162a6.749,6.749,0,0,0-1.91,2.259.618.618,0,0,0-.054.377.478.478,0,0,0,.215.3.472.472,0,0,0,.645-.161,2.813,2.813,0,0,1,.35-.619l.108-.134c.081-.108-.054.081,0,0l.054-.054c.081-.081.161-.188.242-.269.323-.35.672-.645,1.022-.968a.475.475,0,1,0-.672-.672Z" transform="translate(-46.978 -409.18)"/><path d="M354.113,419.817c.914,0,.188-4.626,2.394-5.513.861-.35,3.819-.726,3.819-1s-2.985-.646-3.819-1c-2.205-.888-1.479-5.513-2.394-5.513s-.188,4.626-2.394,5.513c-.861.35-3.819.726-3.819,1s2.985.645,3.819,1C353.924,415.191,353.2,419.817,354.113,419.817Z" transform="translate(-254.333 -384.854)" fill="#fff"/><path d="M353.162,418.94v.35a.643.643,0,0,0,.377-.135.881.881,0,0,0,.323-.511,10.1,10.1,0,0,0,.242-1.237,12.648,12.648,0,0,1,.457-2.232,2.158,2.158,0,0,1,1.13-1.425,4.661,4.661,0,0,1,.914-.242c.592-.135,1.318-.269,1.883-.377.3-.054.538-.134.753-.188a.806.806,0,0,0,.269-.108l.134-.108a.381.381,0,0,0,.108-.3.506.506,0,0,0-.054-.215.454.454,0,0,0-.188-.161,2.984,2.984,0,0,0-.78-.242c-.484-.108-1.1-.242-1.694-.35a7.716,7.716,0,0,1-1.345-.35,1.869,1.869,0,0,1-.968-1.049,10.688,10.688,0,0,1-.619-2.663,6.03,6.03,0,0,0-.215-1.13,1.294,1.294,0,0,0-.215-.43.654.654,0,0,0-.484-.242.642.642,0,0,0-.377.134.881.881,0,0,0-.323.511,10.111,10.111,0,0,0-.242,1.237,12.642,12.642,0,0,1-.457,2.232,2.158,2.158,0,0,1-1.13,1.425,4.663,4.663,0,0,1-.914.242c-.592.135-1.318.269-1.883.377-.3.054-.538.134-.753.188a.8.8,0,0,0-.269.108l-.134.108a.381.381,0,0,0-.108.3.507.507,0,0,0,.054.215.454.454,0,0,0,.188.161,2.982,2.982,0,0,0,.78.242c.484.108,1.1.242,1.694.35a7.709,7.709,0,0,1,1.345.35,1.869,1.869,0,0,1,.968,1.049,10.69,10.69,0,0,1,.619,2.663,6.028,6.028,0,0,0,.215,1.13,1.294,1.294,0,0,0,.215.43.653.653,0,0,0,.484.242v-.619l.054-.081h-.054v.081l.054-.081h0a.672.672,0,0,1-.108-.269c-.161-.538-.215-1.641-.457-2.69a5.985,5.985,0,0,0-.565-1.506,2.385,2.385,0,0,0-1.183-1.049,6.145,6.145,0,0,0-1.022-.269c-.619-.134-1.318-.269-1.883-.377a6.272,6.272,0,0,1-.672-.161l-.134-.054h0l-.134.161.188-.134-.054-.054-.134.188.188-.134-.242.188h.3l-.054-.188-.242.188h-.027l.269.161.054-.161h-.323l.269.161-.215-.134.161.188.054-.054-.215-.134.161.188-.054-.054v.081h.054l-.054-.054v.081c.054,0,.323-.108.619-.161.457-.108,1.076-.215,1.667-.35a12.845,12.845,0,0,0,1.479-.377,2.547,2.547,0,0,0,1.372-1.425,11.787,11.787,0,0,0,.672-2.851,5.39,5.39,0,0,1,.188-1.022.669.669,0,0,1,.081-.188h0l-.054-.081v.081h.054l-.054-.081v-.027l-.054.081h.054v-.081l-.054.081h0a.672.672,0,0,1,.108.269c.161.538.215,1.641.457,2.69a5.984,5.984,0,0,0,.565,1.506,2.385,2.385,0,0,0,1.183,1.049,6.147,6.147,0,0,0,1.022.269c.619.135,1.318.269,1.883.377a6.27,6.27,0,0,1,.672.161l.134.054h0l.134-.161-.188.134.054.054.134-.188-.188.134.242-.188h-.3l.054.188.242-.188h.027l-.269-.161-.054.161h.323l-.269-.161.215.134-.161-.188-.054.054.215.134-.161-.188.054.054v-.081h-.054l.054.054v-.081c-.054,0-.323.108-.619.161-.457.108-1.076.215-1.667.35a12.853,12.853,0,0,0-1.479.377,2.547,2.547,0,0,0-1.372,1.425,11.79,11.79,0,0,0-.672,2.851,5.4,5.4,0,0,1-.188,1.022.671.671,0,0,1-.081.188h0l.054.081v-.081h-.054l.054.081v.3Z" transform="translate(-253.383 -383.977)"/><path d="M320.707,374.244c.7,0,.135-3.5,1.8-4.169.646-.269,2.9-.538,2.9-.753s-2.259-.484-2.9-.753c-1.667-.672-1.1-4.169-1.8-4.169s-.134,3.5-1.8,4.169c-.645.269-2.9.538-2.9.753s2.259.484,2.9.753C320.572,370.747,320.007,374.244,320.707,374.244Z" transform="translate(-231.012 -353.857)" fill="#fff"/><path d="M319.756,373.366v.35a.659.659,0,0,0,.323-.108,1.126,1.126,0,0,0,.3-.43,6.875,6.875,0,0,0,.188-.968,8.755,8.755,0,0,1,.35-1.667,1.608,1.608,0,0,1,.807-1.022,6.274,6.274,0,0,1,.672-.188c.457-.108,1-.188,1.425-.3.215-.054.4-.108.565-.134l.215-.081.134-.108a.358.358,0,0,0,.108-.269.507.507,0,0,0-.054-.215.436.436,0,0,0-.161-.161,2.423,2.423,0,0,0-.619-.188c-.376-.081-.834-.188-1.291-.269a8.994,8.994,0,0,1-1-.242,1.483,1.483,0,0,1-.7-.753,7.958,7.958,0,0,1-.457-1.99,6.168,6.168,0,0,0-.161-.861.886.886,0,0,0-.188-.35.607.607,0,0,0-.43-.215.659.659,0,0,0-.323.108,1.127,1.127,0,0,0-.3.43,6.878,6.878,0,0,0-.188.968,8.75,8.75,0,0,1-.35,1.667,1.608,1.608,0,0,1-.807,1.022,6.269,6.269,0,0,1-.672.188c-.457.108-1,.188-1.425.3-.215.054-.4.108-.565.134l-.215.081-.135.108a.359.359,0,0,0-.108.269.507.507,0,0,0,.054.215.436.436,0,0,0,.161.161,2.424,2.424,0,0,0,.619.188c.377.081.834.188,1.291.269a9,9,0,0,1,1,.242,1.483,1.483,0,0,1,.7.753,7.96,7.96,0,0,1,.457,1.99,6.155,6.155,0,0,0,.161.861.885.885,0,0,0,.188.35.607.607,0,0,0,.43.215v-.565l.108-.134h-.108v.134l.108-.134-.054.054.054-.054h0l-.054.054.054-.054v-.054a2.271,2.271,0,0,1-.188-.753,10.819,10.819,0,0,0-.376-1.856,3.39,3.39,0,0,0-.43-.888,1.718,1.718,0,0,0-.807-.619c-.215-.081-.484-.134-.78-.215-.457-.108-1-.188-1.425-.3a4.486,4.486,0,0,1-.511-.134h-.081c0-.027-.081.134-.081.134l.134-.134h-.054c0-.027-.081.134-.081.134l.134-.134-.242.215h.323a.325.325,0,0,0-.081-.215l-.242.215h0l.269.188.054-.188h-.323l.269.188-.188-.135.108.188.081-.081-.188-.134.108.188a1.687,1.687,0,0,1,.4-.108c.35-.081.807-.161,1.264-.269a6.1,6.1,0,0,0,1.13-.3,2.051,2.051,0,0,0,1.076-1.1,7.5,7.5,0,0,0,.511-2.178,6.721,6.721,0,0,1,.134-.753l.054-.134-.081-.054.054.081h.027l-.081-.081.054.081-.081-.161v.161h.081l-.081-.161v0l-.108.134h.108v-.134l-.108.134.054-.054-.054.054h0l.054-.054-.054.054v.054a2.27,2.27,0,0,1,.188.753,10.813,10.813,0,0,0,.377,1.856,3.394,3.394,0,0,0,.43.888,1.718,1.718,0,0,0,.807.619c.215.081.484.134.78.215.457.108,1,.188,1.425.3a4.476,4.476,0,0,1,.511.135h.081c0,.027.081-.135.081-.135l-.134.135h.054c0,.027.081-.135.081-.135l-.134.135.242-.215h-.323a.325.325,0,0,0,.081.215l.242-.215h0l-.269-.188-.054.188h.323l-.269-.188.188.134-.108-.188-.081.081.188.134-.108-.188a1.685,1.685,0,0,1-.4.108c-.35.081-.807.161-1.264.269a6.1,6.1,0,0,0-1.13.3,2.051,2.051,0,0,0-1.076,1.1,7.5,7.5,0,0,0-.511,2.178,6.709,6.709,0,0,1-.134.753l-.054.134.081.054-.054-.081h-.027l.081.081-.054-.081.081.161v-.161h-.081l.081.161v.215Z" transform="translate(-230.062 -352.98)"/><path d="M149.914,588.774h-2.555v-5.621h2.9v-4.76h-2.9a4.981,4.981,0,0,1,.215-1.748,1.672,1.672,0,0,1,.807-.807,3.989,3.989,0,0,1,1.667-.269,16.306,16.306,0,0,1,1.963.108v-4.222c-1.1-.054-2.205-.054-3.335-.054a14.531,14.531,0,0,0-5.406.726,6.3,6.3,0,0,0-2.663,2.125,6.549,6.549,0,0,0-1.022,3.819v.35h-1.91v4.76h1.91V588.8h-1.91v4.76h12.264V588.8Zm-14.443,0h-1.4V571.83h-9.467v4.76h1.614v12.183h-1.614v4.76h10.839v-4.76Zm-22.484,1.667c-1.8,0-2.716-1.237-2.743-3.685h11.914q-.161-4.438-2.824-6.616a10.812,10.812,0,0,0-6.993-2.178,10.563,10.563,0,0,0-7.073,2.313,7.391,7.391,0,0,0-2.636,5.782,7.114,7.114,0,0,0,2.663,5.729c1.775,1.479,4.438,2.205,7.961,2.205s3.9-.4,5.406-1.21a7.964,7.964,0,0,0,1.91-1.4,5.565,5.565,0,0,0,1.21-1.829l-6.482-.807a2.437,2.437,0,0,1-2.34,1.694Zm-2.663-5.971a3.978,3.978,0,0,1,.565-2.178,1.8,1.8,0,0,1,1.614-.888,2.015,2.015,0,0,1,1.667.807,3.3,3.3,0,0,1,.619,2.044c0,.834,0,.215-.027.538h-4.411v-.323Zm-22,8.311a10.075,10.075,0,0,0,4.787,1.022,8.686,8.686,0,0,0,4.787-1.237,4.3,4.3,0,0,0,1.963-3.873c0-1.748-.269-1.775-.807-2.447a5.469,5.469,0,0,0-2.421-1.614,32.238,32.238,0,0,0-4.518-1.21c-1.694-.35-2.689-.565-2.985-.672-.35-.108-.538-.3-.538-.592,0-.645.592-.941,1.8-.941a6.078,6.078,0,0,1,3.927,1.587H98.76v-4.411H93.973v.78a9.667,9.667,0,0,0-4.707-1.049,7.9,7.9,0,0,0-4.491,1.183A4.122,4.122,0,0,0,83,583.019c0,1.694.134,1.372.377,1.829a3.943,3.943,0,0,0,1.372,1.425,8.371,8.371,0,0,0,2.689,1.21c1.318.377,2.5.726,3.577,1.022a14.313,14.313,0,0,1,2.474.726.747.747,0,0,1,.457.672c0,.565-.7.861-2.1.861a5.208,5.208,0,0,1-3.819-1.829H83.484v4.814h4.841v-.968Z" transform="translate(-60.677 -505.185)" fill="#f7eee5"/><path d="M148.964,587.751v-.35h-2.205v-4.895h2.9V577.02h-3.254v.35h.35a5.725,5.725,0,0,1,.161-1.614h0a1.143,1.143,0,0,1,.619-.619,3.564,3.564,0,0,1,1.506-.242,17.339,17.339,0,0,1,1.91.108h.4v-4.922h-.35c-1.1-.054-2.205-.081-3.335-.081a14.857,14.857,0,0,0-5.54.753,6.762,6.762,0,0,0-2.8,2.232,6.9,6.9,0,0,0-1.076,4.007h-1.91v5.487h1.91v4.895h-1.91v5.487h12.963v-5.487h-.35v.35h-.35v4.411H137.076V588.1h1.91v-6.347h-1.91v-4.034h1.91v-.726a6.164,6.164,0,0,1,.941-3.6,5.745,5.745,0,0,1,2.5-1.99,14.529,14.529,0,0,1,5.244-.7c1.13,0,2.232,0,3.308.054v-.35h-.35v4.223h.35v-.35a17.567,17.567,0,0,0-1.963-.108,4.052,4.052,0,0,0-1.829.323,1.841,1.841,0,0,0-.968,1l.35.134-.323-.134a6.116,6.116,0,0,0-.242,1.883v.35h2.9v4.034h-2.9V588.1h2.932v-.349h.027Zm-14.443,0v-.35H133.5V570.457H123.333v5.487h1.614v11.484H123.36v5.487h11.565v-5.487h-.35v.35h-.35v4.411H124.086v-4.034h1.587V575.245h-1.614V571.21H132.8v16.944h1.748v-.35h0Zm-22.484,1.667v-.35c-1.587-.027-2.313-.941-2.394-3.335h-.35v.376h12.291v-.376c-.134-3.012-1.1-5.352-2.958-6.858a11.211,11.211,0,0,0-7.208-2.259,10.659,10.659,0,0,0-7.315,2.394,7.723,7.723,0,0,0-2.77,6.051,7.409,7.409,0,0,0,2.8,6c1.883,1.533,4.626,2.286,8.176,2.286a11.531,11.531,0,0,0,5.594-1.264,7.458,7.458,0,0,0,1.99-1.452,6.777,6.777,0,0,0,1.291-1.936l.188-.43-7.208-.887-.108.242a2.114,2.114,0,0,1-2.017,1.479v.726a2.806,2.806,0,0,0,2.663-1.909l-.323-.135-.054.35,6.482.807.054-.35-.323-.134a5.248,5.248,0,0,1-1.156,1.721,7.6,7.6,0,0,1-1.8,1.318,10.947,10.947,0,0,1-5.244,1.183c-3.469,0-6.051-.726-7.719-2.125a6.673,6.673,0,0,1-2.528-5.46,7.038,7.038,0,0,1,2.528-5.513,9.9,9.9,0,0,1,6.831-2.232,10.464,10.464,0,0,1,6.778,2.1c1.667,1.372,2.582,3.443,2.689,6.347h.35v-.377H108.971v.377c0,2.528,1.1,4.061,3.12,4.034v-.35Zm-2.663-5.971h.35a3.7,3.7,0,0,1,.511-1.99,1.416,1.416,0,0,1,1.318-.7,1.6,1.6,0,0,1,1.372.672,2.9,2.9,0,0,1,.538,1.829s0,.188-.027.511h.35v-.323h-4.411v.35l.35-.054v-.269H109v.672h5.11v-.323a3.141,3.141,0,0,0,.054-.565,3.537,3.537,0,0,0-.7-2.259,2.382,2.382,0,0,0-1.936-.941,2.184,2.184,0,0,0-1.936,1.049,4.261,4.261,0,0,0-.619,2.367h.35Zm-22,8.31-.161.323a10.5,10.5,0,0,0,4.949,1.076,9.2,9.2,0,0,0,4.976-1.291,4.671,4.671,0,0,0,2.125-4.169,4.268,4.268,0,0,0-.861-2.663,5.969,5.969,0,0,0-2.582-1.721,33.825,33.825,0,0,0-4.572-1.237c-1.694-.35-2.689-.592-2.958-.672-.269-.108-.269-.108-.269-.242,0-.188.054-.269.269-.4a2.878,2.878,0,0,1,1.183-.188,5.139,5.139,0,0,1,3.685,1.479l.108.108h4.949v-5.11H92.7v1.13h.35l.161-.323a9.832,9.832,0,0,0-4.895-1.1,8.254,8.254,0,0,0-4.68,1.237,5.153,5.153,0,0,0-1.533,6.024,4.564,4.564,0,0,0,1.452,1.56,8.736,8.736,0,0,0,2.8,1.264c1.318.376,2.5.726,3.6,1.022a13.487,13.487,0,0,1,2.394.7c.215.135.242.188.269.35,0,.108,0,.188-.3.323a4.179,4.179,0,0,1-1.425.188,4.957,4.957,0,0,1-3.577-1.721l-.108-.108H82.157V593.1h5.567v-1.291h-.35l-.161.323.161-.323h-.35v.565H82.883v-4.088h4.2v-.35l-.269.242a5.538,5.538,0,0,0,4.088,1.963,4.714,4.714,0,0,0,1.694-.242,1.06,1.06,0,0,0,.753-.968,1.132,1.132,0,0,0-.645-1,13.556,13.556,0,0,0-2.555-.753c-1.076-.3-2.259-.619-3.577-1.022a8.3,8.3,0,0,1-2.582-1.156A3.255,3.255,0,0,1,82.4,582a3.741,3.741,0,0,1,1.614-3.389,7.643,7.643,0,0,1,4.276-1.1,9.239,9.239,0,0,1,4.545,1.022l.538.3V577.8h4.061v3.685H93.372v.35l.242-.269a5.9,5.9,0,0,0-4.169-1.667,3.431,3.431,0,0,0-1.506.269,1.123,1.123,0,0,0-.645,1.022.976.976,0,0,0,.807.941c.323.108,1.318.323,3.012.672a31.161,31.161,0,0,1,4.465,1.21,5.2,5.2,0,0,1,2.259,1.506,3.376,3.376,0,0,1,.726,2.232,3.919,3.919,0,0,1-1.775,3.577,8.307,8.307,0,0,1-4.572,1.183,9.647,9.647,0,0,1-4.626-1l-.538-.269v.592h.35Z" transform="translate(-59.727 -504.161)" fill="#020202"/><path d="M141.757,706.533c-1.8,0-2.716-1.237-2.743-3.685h11.914q-.161-4.438-2.824-6.616a10.812,10.812,0,0,0-6.993-2.178,10.563,10.563,0,0,0-7.073,2.313,7.391,7.391,0,0,0-2.636,5.782,7.114,7.114,0,0,0,2.663,5.729c1.775,1.479,4.438,2.205,7.961,2.205s3.9-.4,5.406-1.21a7.966,7.966,0,0,0,1.91-1.4,5.567,5.567,0,0,0,1.21-1.829l-6.482-.807a2.437,2.437,0,0,1-2.34,1.694Zm-2.663-5.971a3.978,3.978,0,0,1,.565-2.178,1.8,1.8,0,0,1,1.614-.887,2.015,2.015,0,0,1,1.667.807,3.3,3.3,0,0,1,.619,2.044c0,.834,0,.215-.027.538h-4.411v-.323Zm-13.152,4.3h-2.286a4.64,4.64,0,0,1,.457-2.205,3.185,3.185,0,0,1,1.667-1.318,9.88,9.88,0,0,1,3.577-.484H130v-6.67a12.44,12.44,0,0,0-3.066.3,5.308,5.308,0,0,0-2.152,1.318,6.551,6.551,0,0,0-1.641,2.447v-3.792H113.76v4.76h2.071v5.621H113.76v4.76h12.21v-4.76Zm-26.895-7.611a3.792,3.792,0,0,1,1.8.4,1.862,1.862,0,0,1,.968,1.022,6.414,6.414,0,0,1,.215,1.963v.457a11.807,11.807,0,0,0-4.68-.753,9.71,9.71,0,0,0-5.218,1.345,4.092,4.092,0,0,0-.377,6.8,7.144,7.144,0,0,0,4.814,1.4,10.1,10.1,0,0,0,5.433-1.318V709.6h9.79v-4.76H109.86v-4.384a8.751,8.751,0,0,0-.4-3.066,4.5,4.5,0,0,0-1.4-1.775,7.13,7.13,0,0,0-3.066-1.21,17.119,17.119,0,0,0-2.259-.3c-.861-.081-1.8-.108-2.878-.108a17.992,17.992,0,0,0-6.589.914,5.8,5.8,0,0,0-3.281,3.147l6.159.619a3.32,3.32,0,0,1,2.9-1.452Zm.619,9.279a2.072,2.072,0,0,1-1.479-.592,2.11,2.11,0,0,1,0-2.985,2.294,2.294,0,0,1,1.641-.565,4.8,4.8,0,0,1,2.205.565v2.77A3.414,3.414,0,0,1,99.667,706.533ZM79.119,706a2.639,2.639,0,0,1-2.152-1.022,4.2,4.2,0,0,1-.834-2.77,4.745,4.745,0,0,1,.78-2.77,2.564,2.564,0,0,1,2.205-1.1c1.425,0,2.421.861,3.012,2.582h4.787v-6.455H82.132v1.022a8.389,8.389,0,0,0-5-1.291,10.09,10.09,0,0,0-6.374,2.205,7.249,7.249,0,0,0-2.555,5.7,7.134,7.134,0,0,0,2.743,5.782,11.942,11.942,0,0,0,7.531,2.152c3.2,0,4.411-.457,6.051-1.4a6.568,6.568,0,0,0,3.147-3.927l-5.863-1.318c-.323,1.748-1.237,2.609-2.689,2.609Z" transform="translate(-49.858 -594.812)" fill="#f7eee5"/><path d="M140.661,705.729v-.35c-1.587-.027-2.313-.941-2.394-3.335h-.35v.377h12.291v-.377c-.134-3.012-1.1-5.352-2.958-6.858a11.212,11.212,0,0,0-7.208-2.259,10.658,10.658,0,0,0-7.315,2.394,7.722,7.722,0,0,0-2.77,6.051,7.409,7.409,0,0,0,2.8,6c1.883,1.533,4.626,2.286,8.176,2.286a11.531,11.531,0,0,0,5.594-1.264,7.454,7.454,0,0,0,1.99-1.452A6.772,6.772,0,0,0,149.805,705l.188-.43-7.235-.888-.108.242a2.114,2.114,0,0,1-2.017,1.479v.726a2.806,2.806,0,0,0,2.663-1.91l-.323-.135-.054.35,6.482.807.054-.35-.323-.134a5.246,5.246,0,0,1-1.156,1.721,7.6,7.6,0,0,1-1.8,1.318,10.946,10.946,0,0,1-5.244,1.183c-3.469,0-6.051-.726-7.719-2.125a6.673,6.673,0,0,1-2.528-5.46,7.038,7.038,0,0,1,2.528-5.514,9.9,9.9,0,0,1,6.831-2.232,10.463,10.463,0,0,1,6.777,2.1c1.667,1.372,2.582,3.442,2.689,6.347h.35v-.377H137.568v.377c0,2.528,1.1,4.061,3.12,4.034v-.35ZM138,699.758h.35a3.7,3.7,0,0,1,.511-1.99,1.416,1.416,0,0,1,1.318-.7,1.6,1.6,0,0,1,1.372.672,2.9,2.9,0,0,1,.538,1.829s0,.188-.027.511h.35v-.323H138v.35l.35-.054v-.269h-.726v.672h5.11v-.323a3.141,3.141,0,0,0,.054-.565,3.537,3.537,0,0,0-.7-2.259,2.383,2.383,0,0,0-1.936-.941,2.185,2.185,0,0,0-1.936,1.049,4.261,4.261,0,0,0-.619,2.367h.35Zm-13.152,4.3v-.35h-2.286v.35h.35a4.2,4.2,0,0,1,.43-2.044,2.848,2.848,0,0,1,1.479-1.156,9.559,9.559,0,0,1,3.443-.457h1.022v-7.4h-.35a12.077,12.077,0,0,0-3.174.323,5.653,5.653,0,0,0-2.313,1.425,6.711,6.711,0,0,0-1.721,2.582l.35.135h.35V693.33H112.314v5.487h2.071v4.895h-2.071V709.2H125.25v-5.487h-.35v.35h-.35v4.411H113.067v-4.034h2.071v-6.347h-2.071v-4.034h8.687v5.433l.7-1.883a5.818,5.818,0,0,1,1.533-2.313A4.834,4.834,0,0,1,126,694.057a11.415,11.415,0,0,1,2.985-.3v-.35h-.35v6.67h.35v-.35h-.645a10.2,10.2,0,0,0-3.711.511,3.434,3.434,0,0,0-1.829,1.479,4.93,4.93,0,0,0-.511,2.394v.377h2.663v-.35h0ZM97.952,696.45v.35a3.438,3.438,0,0,1,1.641.377,1.694,1.694,0,0,1,.807.834,6.248,6.248,0,0,1,.188,1.829v.457h.35l.134-.323a12.129,12.129,0,0,0-4.814-.807,9.293,9.293,0,0,0-5.406,1.425,4.415,4.415,0,0,0-2.178,3.792,4.69,4.69,0,0,0,1.775,3.6,7.514,7.514,0,0,0,5.056,1.479,10.372,10.372,0,0,0,5.621-1.372l-.188-.3h-.35v1.4H111.1v-5.487h-1.936V699.7a9.063,9.063,0,0,0-.43-3.2,4.914,4.914,0,0,0-1.479-1.91,7.49,7.49,0,0,0-3.227-1.291,17.394,17.394,0,0,0-2.313-.3c-.861-.081-1.829-.108-2.9-.108a18.322,18.322,0,0,0-6.724.941,6.164,6.164,0,0,0-3.469,3.308l-.215.457,6.858.7.134-.161a2.924,2.924,0,0,1,2.609-1.291v-.726a3.688,3.688,0,0,0-3.2,1.614l.3.215v-.349c.027,0-6.105-.619-6.105-.619v.35a3.156,3.156,0,0,0,.3.135,5.567,5.567,0,0,1,3.093-2.958,18.373,18.373,0,0,1,6.455-.888c1.076,0,2.017.027,2.851.108a21.611,21.611,0,0,1,2.232.3,6.577,6.577,0,0,1,2.932,1.13,4.454,4.454,0,0,1,1.291,1.641,8.238,8.238,0,0,1,.377,2.931v4.734h1.936V708.5h-9.064v-1.345l-.565.35a9.45,9.45,0,0,1-5.244,1.264c-2.232,0-3.6-.457-4.6-1.318a3.891,3.891,0,0,1-1.506-3.039,3.68,3.68,0,0,1,1.856-3.173,8.676,8.676,0,0,1,5-1.291,11.3,11.3,0,0,1,4.518.726l.511.215v-1a6.8,6.8,0,0,0-.215-2.1,2.446,2.446,0,0,0-1.13-1.21,4.422,4.422,0,0,0-1.99-.457v.349Zm.619,9.279v-.35a1.648,1.648,0,0,1-1.21-.511,1.548,1.548,0,0,1-.511-1.237,1.6,1.6,0,0,1,.484-1.21,1.988,1.988,0,0,1,1.4-.457,4.191,4.191,0,0,1,2.044.511l.161-.323h-.35v2.77h.35l-.242-.269a3.11,3.11,0,0,1-2.125.7v.726a3.836,3.836,0,0,0,2.609-.887l.134-.108v-3.147l-.188-.108a5.007,5.007,0,0,0-2.394-.592,2.759,2.759,0,0,0-1.883.645,2.3,2.3,0,0,0-.726,1.721,2.372,2.372,0,0,0,.726,1.775,2.466,2.466,0,0,0,1.721.7Zm-20.548-.538v-.35a2.307,2.307,0,0,1-1.883-.888,3.911,3.911,0,0,1-.753-2.555,4.34,4.34,0,0,1,.726-2.555,2.136,2.136,0,0,1,1.91-.941c1.237,0,2.1.7,2.663,2.34l.081.242h5.406V693.3H80.658v1.372h.35l.215-.3a8.771,8.771,0,0,0-5.218-1.372,9.6,9.6,0,0,0-6.616,2.313,7.634,7.634,0,0,0-2.689,6,7.323,7.323,0,0,0,2.878,6.051,12.222,12.222,0,0,0,7.746,2.232,12.448,12.448,0,0,0,6.24-1.452,6.824,6.824,0,0,0,3.308-4.142l.108-.377-6.589-1.479-.081.377c-.35,1.641-1.049,2.286-2.34,2.313v.726c1.614,0,2.716-1.076,3.039-2.9l-.35-.081-.081.35,5.863,1.318.081-.35-.35-.108a6.162,6.162,0,0,1-2.985,3.712,11.744,11.744,0,0,1-5.863,1.345,11.654,11.654,0,0,1-7.315-2.071,6.575,6.575,0,0,1-2.609-5.487,6.819,6.819,0,0,1,2.447-5.433,8.983,8.983,0,0,1,6.159-2.125,7.891,7.891,0,0,1,4.787,1.237l.565.43V694.03h4.088v5.755H81.008v.35l.35-.108c-.592-1.8-1.775-2.851-3.362-2.824a2.9,2.9,0,0,0-2.5,1.264,5.16,5.16,0,0,0-.834,2.958,4.627,4.627,0,0,0,.914,3.012A3.007,3.007,0,0,0,78,705.594v-.35Z" transform="translate(-48.761 -594.008)" fill="#020202"/></g><g transform="translate(28.524 86.195)"><path d="M108.583,331.427c-1.1-.43-1.183-2.259-1.183-3.98v-.081a9.212,9.212,0,0,1,.43-2.34,1.919,1.919,0,0,1,2.286-.726,1.476,1.476,0,0,1,.807,1.883c-.188.914,0,.108,0,.134v1.452c.027,0,.027.027.027.054l.134,1.183v.054a2.815,2.815,0,0,1-.484,1.856c-.35.457-.108.108-.161.135a2.182,2.182,0,0,1-1.856.4Z" transform="translate(-107.039 -323.2)" fill="#d89f6f"/><path d="M109.027,323.642l.511,1.479a11.5,11.5,0,0,0,.161,2.851l-.484,1.694-1.506.35c-.807-.323-.941-1.829-.914-3.631l.4-2.205,1.8-.538h0m.3-.726h-.027a2.306,2.306,0,0,0-2.77.914,8.33,8.33,0,0,0-.43,2.152v.323c-.054,2.044.027,3.98,1.372,4.491a2.436,2.436,0,0,0,2.178-.4l.188-.161a3,3,0,0,0,.672-2.259l-.134-1.264-.054-1.4a1.852,1.852,0,0,0-1.022-2.394Z" transform="translate(-106.057 -322.165)" fill="#231f20"/><path d="M129.472,329.709c-1.372-.538-.484-3.927-.215-4.868s.161-.3.3-.376l.968-.565.134.054a1.8,1.8,0,0,1,1.022,1.748c.054,1.156.108,2.609-.565,3.443s-.161.134-.242.188l-1.183.484-.215-.054Z" transform="translate(-122.629 -322.988)" fill="#dda173"/><path d="M129.748,323.034l.484,1.372c.054,1.156.269,3.712-1.587,3.685h-.081c-1.022-.43-.215-3.819.108-4.653l.861-.43h.215m.3-.726-.592-.081a1.629,1.629,0,0,0-1.452.834c-.081.161-1.721,4.976.323,5.755l.188.054a2.369,2.369,0,0,0,1.775-.619c.914-.941.834-2.582.78-3.658v-.242c0-.35-.054-1.721-1-2.071Z" transform="translate(-121.587 -321.745)" fill="#231f20"/><path d="M121.382,329.844l-.242-.242a.562.562,0,0,1-.188-.35,10.489,10.489,0,0,1-.188-4.142c.188-1.479.027-.161.054-.215l.242-.484a.705.705,0,0,1,.43-.35l.672-.161h.027a1.109,1.109,0,0,1,.726,1.156,12.516,12.516,0,0,0,.054,1.641,5.479,5.479,0,0,1-.188,2.313c-.3.941-.054.135-.108.188l-.35.484a.612.612,0,0,1-.511.269h0a.59.59,0,0,1-.457-.188Z" transform="translate(-116.718 -322.988)" fill="#d69a6f"/><path d="M121.139,323.307l.35,1.022c-.081,1.479.323,2.178-.161,3.685l-.672.619-.377-.376a10.351,10.351,0,0,1-.161-4.223l.941-.753h.108m.3-.7-.242-.081-1.318.3-.592,1.21a10.713,10.713,0,0,0,.188,4.384l.081.242.78.726h.888c0-.027.807-1.1.807-1.1a6.1,6.1,0,0,0,.242-2.582v-1.291a1.575,1.575,0,0,1-.054-.35,1.408,1.408,0,0,0-.834-1.479Z" transform="translate(-115.641 -321.965)" fill="#231f20"/><path d="M140.162,328.244c-.672-.242-.672-1.372-.672-2.77V324.4c-.027-.914.081-2.017.78-2.1h.054c.888.35,1.022,2.313,1.049,2.932.054,1.183-.081,2.663-.834,3.039h-.35Z" transform="translate(-130.495 -321.818)" fill="#db9f71"/><path d="M139.214,321.368c.565.215,1,4.733-.027,5.218h-.054c-.538-.215-.377-2.1-.43-3.416s0-.134,0-.188l.43-1.614h.054m.188-.753h-.242a.458.458,0,0,0-.188-.027q-1.089.242-1.049,2.5v1.1c0,1.452,0,2.609.753,3.039s.215.081.323.081h.35a.643.643,0,0,0,.377-.134c.645-.457.941-1.56.861-3.308-.081-1.8-.4-2.878-1-3.2s-.134-.054-.188-.054Z" transform="translate(-129.332 -320.509)" fill="#231f20"/></g><g transform="translate(69.025 85.197)"><path d="M278.483,330.635c-.753-.188-1.076-1.264-.861-3.039.135-1.076.78-4.2,1.99-4.2,1.452.377,1.183,3.012,1.076,3.819-.081.565-.565,3.469-1.91,3.469Z" transform="translate(-271.933 -321.625)" fill="#dfa372"/><path d="M278.665,322.807h.081c1.425.4.511,6.482-.888,6.482H277.7c-1.506-.4-.108-6.482,1-6.482m0-.807h0c-1.829,0-2.367,4.357-2.367,4.545-.3,2.555.484,3.308,1.21,3.469l.35.054c1.641,0,2.178-2.958,2.286-3.846.161-1.13.35-3.765-1.21-4.2h-.269Z" transform="translate(-270.986 -320.602)" fill="#231f20"/><path d="M258.785,324.97c-.592-.242-.78-1.049-.511-2.394.3-1.479,1.291-4.276,2.447-4.276.914.35,1.1,1.264.78,2.663S260.156,325,259.027,325h-.242Z" transform="translate(-257.749 -317.897)" fill="#d1996c"/><path d="M259.621,317.607h.134c1.264.619-.7,5.89-1.829,5.89h-.108c-1.13-.457.672-5.89,1.8-5.89m0-.807h0c-1.883,0-2.824,4.572-2.851,4.626-.3,1.56-.054,2.5.753,2.8l.4.081c1.56,0,2.609-3.2,2.851-4.33.457-2.044-.135-2.8-.7-3.066Z" transform="translate(-256.648 -316.8)" fill="#231f20"/><path d="M289.9,330.126l-.377-.269a10.765,10.765,0,0,1-.269-5.3l.108-1.13c.134-1.587,1-1.829,1.479-1.829a1.948,1.948,0,0,1,1.856,2.1l-.054,2.636c-.081,1.614-.188,3.577-2.716,3.765H289.9Z" transform="translate(-280.343 -320.309)" fill="#db9f71"/><path d="M289.859,321.007h.108a1.533,1.533,0,0,1,1.345,1.694c0,.888-.027,1.748-.054,2.636-.081,1.614-.161,3.227-2.34,3.362-.78-2.071-.323-4.169-.135-6.24.054-.726.323-1.452,1.076-1.452m0-.807c-.4,0-1.694.161-1.856,2.178l-.108,1.13a11.59,11.59,0,0,0,.3,5.487l.753.511H289c2.878-.215,3.012-2.555,3.093-4.115v-.834l.054-1.829a2.281,2.281,0,0,0-2.071-2.474h-.188Z" transform="translate(-279.356 -319.286)" fill="#231f20"/><path d="M266.941,328.157c-1.022-.161-1.533-1.183-1.4-2.8.134-1.91,1.237-4.76,2.555-4.76,1.425.457,1.264,2.474,1.049,3.658-.188,1.022-.941,3.927-2.071,3.927h-.134Z" transform="translate(-263.135 -319.578)" fill="#dea171"/><path d="M267.07,319.807h.054c1.775.645,0,6.8-1.049,6.8h-.054c-2.394-.377-.377-6.8,1.076-6.8m0-.807c-1.694,0-2.824,3.308-2.958,5.137-.215,2.636,1.156,3.147,1.775,3.227h0c1.883,0,2.609-4.061,2.636-4.223.4-2.232,0-3.685-1.13-4.088l-.188-.054h-.108Z" transform="translate(-262.107 -318.408)" fill="#231f20"/></g></g></g></svg>