<svg xmlns="http://www.w3.org/2000/svg" xmlns:xlink="http://www.w3.org/1999/xlink" width="157" height="153" viewBox="0 0 157 153"><defs><clipPath id="a"><rect width="157" height="153" transform="translate(1657 3438)" fill="#fff" stroke="#707070" stroke-width="1"/></clipPath></defs><g transform="translate(-1657 -3438)" clip-path="url(#a)"><g transform="translate(1687.272 3407.381) rotate(22)"><path d="M115.835,34.474S115.293,0,56.567,0,.01,35.576.01,35.576,18.874,63.928,64.126,67.828s51.726-33.355,51.726-33.355Z" transform="translate(20.134 44.636)" fill="#050505"/><path d="M148.45,0,126.6,1.781c-1.059,1.085-2.134,2.12-3.226,3.12A72.911,72.911,0,0,1,22.5,2.442l-.645-.661L0,0S6.585,60.164,72.016,60.384h.331C137.8,60.181,148.45,0,148.45,0Z" transform="translate(0.678 69.828)" fill="#d64027"/><path d="M149.041.543l-.033-.509-22.041,1.8-.132.136c-1.059,1.085-2.118,2.1-3.21,3.086a72.614,72.614,0,0,1-48.88,18.924A72.228,72.228,0,0,1,23.414,2.611l-.645-.661-.132-.136L0,0,.066.61a76.748,76.748,0,0,0,11.55,30.336c9.879,15.177,28.1,30.4,60.96,30.489v-.509h-.5v.526h.662c0-.017.149,0,.149,0H73.4v-.526h-.5v.509c32.879-.1,52.091-15.312,63-30.472A82.415,82.415,0,0,0,149.5.644L149.62,0l-.645.051.033.509-.48-.085s-.033.22-.132.661A82.711,82.711,0,0,1,132.99,33.185C121.9,47.158,103.437,60.333,72.907,60.452h-.5v.526h.5v-.509h-.331v.509h.513v-.509h-.5c-32.565-.119-50.37-15.092-60.149-30.048A77.771,77.771,0,0,1,3.078,9.852c-.811-2.8-1.324-5.138-1.622-6.766-.149-.814-.248-1.458-.314-1.882C1.076.763,1.059.543,1.059.543l-.5.051L.53,1.1l21.859,1.78.033-.509-.347.356c.215.22.43.441.662.661A73.276,73.276,0,0,0,74.76,25.046,73.66,73.66,0,0,0,124.3,5.867c1.109-1,2.184-2.052,3.26-3.137l-.347-.356.033.509L149.107,1.1l-.033-.509-.48-.085.48.085Z" transform="translate(0.102 69.286)"/><path d="M1.758,22.819A47.917,47.917,0,0,0,25.43,26.77a2.99,2.99,0,0,0,2.679-2.951V2.962A2.954,2.954,0,0,0,24.9.012C18.8.537,5.607,3.5.164,19.122a2.987,2.987,0,0,0,1.611,3.7Z" transform="translate(44.224 50.121)" fill="#fffef4"/><path d="M26.046,22.907A47.883,47.883,0,0,1,2.968,26.774,3.309,3.309,0,0,1,0,23.484V3.3A3.292,3.292,0,0,1,3.578.015C9.8.626,22.451,3.746,27.844,18.8a3.3,3.3,0,0,1-1.8,4.121Z" transform="translate(77.66 50.167)" fill="#fffef4"/><path d="M106.53.017C84.708-.509,74.3,14.939,74.3,14.939S63.912-.509,42.073.017C20.267.543,0,53.8,0,53.8s28.06,7.987,46.259-5.325c13.732-10.056,23.907-11.9,28.06-12.209,4.169.305,14.328,2.154,28.06,12.209C120.56,61.792,148.636,53.8,148.636,53.8S128.369.543,106.547,0Z" transform="translate(0.678 19.823)" fill="#d64027"/><path d="M107.216.509V0h-1.092A39.883,39.883,0,0,0,82.36,7.563a33.818,33.818,0,0,0-7.778,7.6l.414.288.414-.288a33.819,33.819,0,0,0-7.778-7.6A39.883,39.883,0,0,0,43.869,0H42.761C37.1.153,31.64,3.663,26.626,8.784,19.1,16.465,12.51,27.776,7.778,37.2,3.061,46.6.2,54.11.2,54.127l-.2.526.53.153A77.546,77.546,0,0,0,19.56,57.2c8.837,0,19.262-1.662,27.652-7.8,13.669-10,23.73-11.819,27.818-12.124L75,36.763l-.033.509c4.071.305,14.149,2.12,27.818,12.124,8.406,6.138,18.815,7.8,27.652,7.8a77.547,77.547,0,0,0,19.03-2.391l.53-.153-.2-.526a205,205,0,0,0-12.908-26.775c-3.905-6.715-8.506-13.447-13.52-18.568C118.353,3.68,112.908.153,107.232,0V.509l-.017.509c5.262.119,10.525,3.459,15.456,8.479,7.4,7.529,13.95,18.788,18.666,28.166,2.35,4.68,4.236,8.9,5.544,11.938.645,1.526,1.158,2.747,1.489,3.595s.513,1.306.513,1.306l.463-.187-.132-.492s-.116.034-.364.1a78.062,78.062,0,0,1-18.4,2.255c-8.737,0-18.931-1.645-27.073-7.614C89.575,38.459,79.3,36.576,75.046,36.254H74.98c-4.253.305-14.513,2.2-28.331,12.311-8.142,5.969-18.352,7.614-27.073,7.614A78.414,78.414,0,0,1,6.255,54.992c-1.688-.288-3.061-.594-4-.814-.463-.119-.827-.2-1.076-.271s-.364-.1-.364-.1L.678,54.3l.463.187s.314-.831.91-2.272a195.335,195.335,0,0,1,14.96-29.319A76.98,76.98,0,0,1,29.208,7.7c4.385-4.019,8.986-6.579,13.586-6.681h1.092A38.779,38.779,0,0,1,67.07,8.394a35.989,35.989,0,0,1,5.676,5.07c.629.7,1.092,1.255,1.407,1.662q.223.305.347.458l.116.153.414.61.414-.61.116-.153a34.983,34.983,0,0,1,8.406-7.868,38.906,38.906,0,0,1,22.208-6.681h1.092V.526Z" transform="translate(0 19.332)"/><path d="M0,6.133S22.146-5.941,38.662,3.793c0,0,30.1-15.16,45.716,19.908C100,58.785,76.493,78.336,50.888,75.063,2.917,68.959,33.728,24.82,0,6.116Z" transform="translate(36.833 77.668)" fill="#e37f6e"/><path d="M.661,6.783l.322.593L1.1,7.309C2.34,6.647,12.887,1.323,24.35,1.323a28.569,28.569,0,0,1,14.634,3.7.67.67,0,0,0,.644.017L39.7,5A36.2,36.2,0,0,1,54.3,1.848a28.545,28.545,0,0,1,15.55,4.426c5.291,3.358,10.429,9.038,14.566,18.348,3.459,7.749,4.968,14.719,4.968,20.806,0,9.615-3.747,17.059-9.632,22.146-5.9,5.087-13.99,7.817-22.689,7.817a45.473,45.473,0,0,1-5.426-.339C39.747,73.526,32.88,69.694,28.624,64.573c-3.188-3.849-4.935-8.5-6.138-13.549-1.8-7.58-2.357-16.075-4.85-24.045S10.632,11.531.984,6.189l-.322.593.322.593L.661,6.783l-.322.593A31.966,31.966,0,0,1,15.465,24.825c3.849,10.123,3.731,21.756,7.156,31.557a26.73,26.73,0,0,0,8.9,12.854c4.528,3.493,10.87,6,19.942,7.173a44.686,44.686,0,0,0,5.6.356c8.987,0,17.4-2.815,23.587-8.139s10.106-13.21,10.106-23.18c0-6.308-1.56-13.464-5.087-21.349C81.445,14.6,76.12,8.682,70.592,5.155A29.906,29.906,0,0,0,54.314.509,37.032,37.032,0,0,0,39.035,3.849l.305.61.339-.577A29.888,29.888,0,0,0,24.367,0C11.7,0,.407,6.189.356,6.206a.673.673,0,0,0,0,1.187L.678,6.8Z" transform="translate(36.162 77.018)" fill="#3d342d"/><path d="M0,0S8.614,5.189,13.294,19.3" transform="translate(75.696 82.934)" fill="#e37f6e"/><path d="M.347,1.263h0C.771,1.534,8.86,6.723,13.336,20.2a.681.681,0,1,0,1.289-.441C9.877,5.468,1.127.144,1.026.093A.689.689,0,0,0,.093.33a.689.689,0,0,0,.237.933H.347Z" transform="translate(74.991 82.244)" fill="#3d342d"/><path d="M31.924,19.314l17.313,4.833a.7.7,0,0,1,0,1.357l-16.94,5a.712.712,0,0,0-.475.458L25.87,49.82a.7.7,0,0,1-1.34,0L18.24,31.133a.7.7,0,0,0-.492-.458L.519,26.114a.709.709,0,0,1-.034-1.357l17.228-5.291a.688.688,0,0,0,.458-.458L23.852.492a.706.706,0,0,1,1.34-.017l6.223,18.365a.712.712,0,0,0,.475.458Z" transform="translate(94.091 0.679)" fill="#fffef4"/><path d="M32.541,19.993l-.186.661,17.313,4.833h0v.034h0l-16.94,5a1.435,1.435,0,0,0-.933.916L25.843,50.3h-.034v-.017L19.518,31.592a1.4,1.4,0,0,0-.95-.9L1.34,26.131h0V26.1h0l17.228-5.291a1.376,1.376,0,0,0,.916-.916L25.164,1.374H25.2v.017l6.223,18.365a1.387,1.387,0,0,0,.933.882l.187-.661.186-.661h0L26.5.933A1.358,1.358,0,0,0,25.2,0a1.376,1.376,0,0,0-1.323.984L18.195,19.5h0L.967,24.809a1.364,1.364,0,0,0-.729.526,1.371,1.371,0,0,0-.237.8,1.442,1.442,0,0,0,.254.814,1.387,1.387,0,0,0,.763.526l17.228,4.561h.017l6.291,18.687a1.358,1.358,0,0,0,1.306.933,1.4,1.4,0,0,0,1.323-.967l5.952-18.856h0l16.94-5.019a1.406,1.406,0,0,0,.746-.526,1.368,1.368,0,0,0-.763-2.12L32.744,19.332l-.186.661Z" transform="translate(93.475 0)" fill="#3d342d"/><path d="M8,16.923a57.449,57.449,0,0,1-6.155.068c-.237-1.357-.356-2.035-.577-3.391h.95c-.271-1.611-.424-2.425-.7-4.053-.373.034-.56.034-.95.068C.339,8.258.22,7.58,0,6.223c.373-.051.56-.068.933-.119L.882,5.85A6.463,6.463,0,0,1,.9,3.035,3.71,3.71,0,0,1,1.916,1.272,5.069,5.069,0,0,1,4.443.254C4.985.153,5.528.068,6.054,0c.22,1.289.339,1.933.56,3.239a7.593,7.593,0,0,0-.967.068,1.335,1.335,0,0,0-.78.339,1.125,1.125,0,0,0-.288.661A5.9,5.9,0,0,0,4.714,5.63c.577-.085.848-.119,1.424-.2.254,1.441.373,2.171.627,3.612-.577.068-.865.1-1.441.153.288,1.7.441,2.527.729,4.222.509-.034.763-.051,1.272-.1.254,1.441.373,2.171.627,3.612Z" transform="translate(76.663 105.559)" fill="#f7eee5"/><path d="M8.5,17.5l-.034-.509C7,17.076,6,17.11,4.918,17.11c-.763,0-1.56-.017-2.561-.051v.509c-.017,0,.492-.085.492-.085-.237-1.357-.356-2.035-.577-3.391l-.509.085v.509h1.56l-.1-.593c-.271-1.611-.424-2.425-.7-4.053l-.085-.458-.458.034c-.373.034-.56.034-.933.068l.034.509.509-.085c-.237-1.357-.356-2.035-.577-3.391L.509,6.8l.051.509c.373-.051.56-.068.933-.119l.526-.068-.136-.78a9.112,9.112,0,0,1-.136-1.424A3.918,3.918,0,0,1,1.9,3.747,3.43,3.43,0,0,1,2.781,2.2a4.494,4.494,0,0,1,2.272-.882c.543-.1,1.068-.187,1.594-.254L6.579.56,6.071.644c.22,1.289.339,1.933.56,3.239L7.139,3.8V3.29a6.44,6.44,0,0,0-1.051.085,1.892,1.892,0,0,0-1.068.492,1.563,1.563,0,0,0-.424.967v.186a7.041,7.041,0,0,0,.136,1.272l.085.492.492-.068c.577-.085.865-.119,1.424-.2L6.664,6l-.509.085c.254,1.441.373,2.171.627,3.612l.509-.085-.051-.509c-.577.068-.865.1-1.424.153l-.543.051.085.543c.288,1.7.441,2.527.729,4.222l.085.458L6.63,14.5c.509-.034.78-.051,1.289-.1l-.034-.509-.509.085c.254,1.441.373,2.17.627,3.612l.509-.085-.034-.509.034.509.509-.085c-.254-1.441-.373-2.171-.627-3.612l-.085-.458-.458.034c-.509.034-.763.068-1.272.1l.034.509.509-.085c-.288-1.7-.441-2.527-.729-4.222l-.509.085.051.509c.577-.068.865-.1,1.441-.153l.543-.068L7.834,9.53c-.254-1.441-.373-2.171-.627-3.612l-.085-.492-.492.068c-.577.085-.848.119-1.424.2l.068.509.509-.085a7.592,7.592,0,0,1-.119-1.1v-.1a.535.535,0,0,1,.153-.356.75.75,0,0,1,.492-.187,6.283,6.283,0,0,1,.9-.068H7.8l-.1-.593c-.22-1.289-.339-1.933-.56-3.239L7.054,0,6.579.068c-.543.068-1.1.153-1.645.254A5.51,5.51,0,0,0,2.154,1.475,4.363,4.363,0,0,0,1,3.476,5.624,5.624,0,0,0,.814,4.934,9.171,9.171,0,0,0,.967,6.528l.051.254L1.526,6.7l-.068-.509c-.373.051-.56.068-.933.119L0,6.376.085,6.9c.237,1.357.356,2.035.577,3.391l.085.458.458-.034c.373-.034.577-.034.95-.068L2.12,10.14l-.509.085c.271,1.611.424,2.425.7,4.053l.509-.085v-.509H1.255l.1.593c.237,1.357.356,2.035.577,3.391L2,18.076h.407c1,.051,1.814.068,2.594.068,1.1,0,2.154-.034,3.612-.119l.577-.034-.1-.56-.509.085Z" transform="translate(76.167 104.975)" fill="#020202"/><path d="M1.543,5.409c-.356.051-.543.068-.9.119C.39,4.07.254,3.341,0,1.882c1.9-.288,2.849-.441,4.748-.763.407,2.255.627,3.374,1.034,5.63a6.967,6.967,0,0,0,.526,1.882.728.728,0,0,0,.8.39,1.69,1.69,0,0,0,1.119-.746C7.936,6.749,7.8,6,7.512,4.477l-1.017.17C6.223,3.154,6.088,2.408,5.8.916,7.749.577,8.716.39,10.649,0c.627,3.256.95,4.884,1.577,8.122.356-.085.543-.119.9-.2.288,1.492.441,2.238.729,3.714-1.916.458-2.883.644-4.833.967-.119-.61-.17-.9-.288-1.509A4.072,4.072,0,0,1,5.85,13.277a2.6,2.6,0,0,1-2.221-.933A8.377,8.377,0,0,1,2.018,8.122c-.2-1.1-.288-1.662-.492-2.764Z" transform="translate(83.364 108.953)" fill="#f7eee5"/><path d="M2.154,5.935l-.068-.509c-.356.051-.543.068-.9.119l.068.509.509-.085c-.254-1.458-.39-2.187-.644-3.646L.61,2.408l.068.509c1.9-.288,2.866-.441,4.765-.763l-.085-.509-.492.085C5.274,3.985,5.494,5.1,5.9,7.359a7.6,7.6,0,0,0,.577,2.035,1.516,1.516,0,0,0,.441.492,1.239,1.239,0,0,0,.644.186H7.8a2.187,2.187,0,0,0,1.441-.983l.119-.17-.034-.2c-.288-1.526-.424-2.272-.712-3.8l-.085-.492-.492.085L7.02,4.68l.085.509L7.6,5.1c-.271-1.492-.407-2.238-.7-3.731l-.492.085.085.509c1.95-.339,2.934-.526,4.867-.916l-.1-.492-.492.1c.627,3.256.95,4.884,1.577,8.122l.1.509.509-.1c.356-.085.543-.119.9-.2L13.735,8.5l-.492.1c.288,1.492.441,2.238.729,3.714l.492-.1-.119-.492c-1.916.441-2.866.644-4.8.967l.085.509.492-.1c-.119-.61-.17-.9-.288-1.509L9.6,10.293l-.7,1.119a3.59,3.59,0,0,1-2.51,1.95h-.2a2.217,2.217,0,0,1-1.594-.78A7.931,7.931,0,0,1,3.12,8.631c-.2-1.1-.288-1.662-.492-2.764l-.085-.475-.475.068.068.509-.509.085c.2,1.1.288,1.662.492,2.764.39,2.154.916,3.629,1.747,4.477a3.241,3.241,0,0,0,2.323,1.1h.322a4.647,4.647,0,0,0,3.256-2.442l-.424-.271-.492.1c.119.61.17.9.288,1.509l.085.492.492-.085c1.95-.322,2.934-.526,4.867-.967l.475-.119-.1-.475c-.288-1.492-.441-2.238-.729-3.714l-.1-.509-.509.119c-.356.085-.543.119-.9.2l.1.492.492-.1c-.627-3.256-.95-4.884-1.577-8.122L11.633,0l-.509.1c-1.933.39-2.9.577-4.85.916L5.765,1.1l.1.509c.271,1.492.407,2.238.7,3.731l.085.492.492-.085c.407-.068.627-.1,1.034-.187l-.085-.509-.492.1c.288,1.526.424,2.272.712,3.8l.492-.1-.424-.288a1.152,1.152,0,0,1-.78.543H7.529l-.1-.017-.1-.119a6.813,6.813,0,0,1-.475-1.73c-.407-2.255-.627-3.374-1.034-5.63l-.085-.492L5.24,1.2c-1.9.322-2.832.475-4.731.763L0,2.052l.085.509c.254,1.458.39,2.187.644,3.646l.085.475.475-.051c.356-.051.543-.068.916-.119L2.137,6l-.509.085L2.137,6Z" transform="translate(82.75 108.419)" fill="#020202"/><path d="M8.156,12.164a60.769,60.769,0,0,1-5.833,1.713c-.288-1.475-.441-2.221-.729-3.714.39-.085.577-.136.95-.237-.356-1.747-.526-2.611-.865-4.358-.373.085-.577.136-.95.22C.441,4.313.288,3.567,0,2.074c1.916-.407,2.866-.61,4.748-1.051.119.577.187.865.305,1.458A4.228,4.228,0,0,1,7.7.09a2.31,2.31,0,0,1,2.34.627A7.2,7.2,0,0,1,11.5,4.211c.237,1.1.356,1.662.577,2.781.339-.119.509-.187.831-.322.288,1.34.424,2.018.7,3.358-1.764.78-2.662,1.136-4.494,1.78-.424-2-.627-3-1.051-5a8.328,8.328,0,0,0-.627-2.12.7.7,0,0,0-.848-.305,1.693,1.693,0,0,0-.95.9c.305,1.441.441,2.171.746,3.612C6.8,8.772,7,8.7,7.427,8.569c.288,1.424.441,2.154.746,3.578Z" transform="translate(95.617 106.542)" fill="#f7eee5"/><path d="M8.784,12.684l-.17-.475c-2.289.78-3.425,1.119-5.782,1.713l.119.492.492-.1C3.154,12.837,3,12.09,2.713,10.6l-.492.1.119.492c.39-.085.577-.136.967-.237l.475-.119-.1-.475C3.324,8.614,3.154,7.749,2.815,6l-.1-.509L2.2,5.613c-.373.085-.577.136-.95.22l.119.492.492-.1C1.577,4.748,1.424,4,1.136,2.51l-.492.1.1.492c1.916-.407,2.866-.61,4.765-1.051L5.392,1.56l-.492.1c.119.577.187.865.305,1.458l.288,1.391.661-1.272a3.708,3.708,0,0,1,2.306-2.12,2.32,2.32,0,0,1,.577-.068,1.69,1.69,0,0,1,1.272.56A6.764,6.764,0,0,1,11.633,4.85c.237,1.1.356,1.662.577,2.781l.119.577.56-.2c.339-.119.509-.187.831-.322l-.187-.475-.492.1c.288,1.34.424,2.018.7,3.357l.492-.1-.2-.458c-1.764.763-2.628,1.119-4.46,1.764l.17.475.492-.1c-.424-2-.627-3-1.051-5-.119-.56-.22-1.017-.339-1.391a4.1,4.1,0,0,0-.356-.882,1.153,1.153,0,0,0-1.017-.577,1.542,1.542,0,0,0-.39.051A2.276,2.276,0,0,0,5.816,5.562l-.1.17.034.187c.305,1.441.441,2.171.746,3.612l.119.543.526-.153c.424-.119.644-.187,1.051-.322l-.153-.492-.492.1c.288,1.424.441,2.154.746,3.578l.492-.1-.17-.475.17.475.492-.1C8.987,11.158,8.835,10.429,8.529,9l-.119-.543-.543.17c-.424.136-.627.187-1.051.322l.153.492.492-.1C7.156,7.9,7.02,7.173,6.715,5.731l-.492.1.441.254c.271-.458.526-.627.661-.661h.119c0-.017.17.085.17.085a2.384,2.384,0,0,1,.237.627c.1.339.2.78.322,1.306.424,2,.627,3,1.051,5l.119.577.543-.2c1.831-.661,2.764-1.017,4.527-1.8l.373-.17-.085-.407c-.288-1.34-.424-2.018-.7-3.357l-.119-.577-.56.22c-.339.119-.492.186-.831.305l.17.475.492-.1c-.237-1.1-.356-1.662-.577-2.781A7.733,7.733,0,0,0,10.988.882a2.765,2.765,0,0,0-2-.882,3.345,3.345,0,0,0-.814.1A4.688,4.688,0,0,0,5.206,2.747l.458.237.492-.1c-.119-.577-.187-.865-.305-1.458l-.1-.509-.509.119c-1.9.441-2.832.644-4.748,1.051L0,2.187l.1.492C.39,4.155.543,4.9.831,6.393l.1.509.509-.119c.39-.085.577-.136.95-.221l-.119-.492-.492.1c.356,1.747.526,2.611.865,4.358l.492-.1-.119-.492c-.373.1-.577.136-.95.237l-.475.119.1.475c.288,1.475.441,2.221.729,3.714l.1.526.526-.136c2.374-.593,3.578-.95,5.867-1.73l.424-.153-.085-.441-.492.1Z" transform="translate(94.984 106.013)" fill="#020202"/><path d="M7.58,11.158l.56,3.273a1.789,1.789,0,0,1-1.017.254A3.749,3.749,0,0,1,5.7,14.4a4.893,4.893,0,0,1-1.577-1.034,6.693,6.693,0,0,1-1.153-1.475,8.38,8.38,0,0,1-.39-.8c-.085-.22-.17-.475-.254-.729C2.2,9.92,2.035,9.055,1.8,7.817c-.119-.644-.187-.967-.305-1.611C1.119,6.071.933,6,.56,5.85.339,4.663.22,4.07,0,2.9c.373.119.56.186.933.288-.1-.593-.17-.882-.271-1.475A21.372,21.372,0,0,0,4.07,0c.288,1.662.441,2.493.729,4.155.627.136.95.186,1.594.288.237,1.34.339,2,.577,3.341C6.325,7.648,6,7.58,5.375,7.41c.136.8.2,1.2.356,2.018a6.086,6.086,0,0,0,.356,1.357.961.961,0,0,0,.594.492,1.372,1.372,0,0,0,.882-.085Z" transform="translate(72.662 125.193)" fill="#f7eee5"/><path d="M8.224,12.04l-.509.085.56,3.273.509-.085-.305-.407a1.3,1.3,0,0,1-.729.153H7.715a3.071,3.071,0,0,1-1.2-.254A4.339,4.339,0,0,1,5.1,13.871a5.971,5.971,0,0,1-1.051-1.357l-.441.237.441-.237c-.153-.288-.271-.543-.356-.746a3.972,3.972,0,0,1-.22-.678c-.119-.407-.288-1.272-.509-2.51-.119-.644-.187-.967-.305-1.611l-.051-.288-.271-.1c-.373-.136-.56-.2-.916-.356L1.238,6.7l.492-.1c-.22-1.187-.339-1.78-.56-2.951l-.492.1-.153.492c.373.119.577.187.95.288l.8.237L2.12,3.951c-.1-.593-.17-.882-.271-1.475l-.492.085.187.475A20.22,20.22,0,0,0,5.019,1.289L4.765.848,4.256.933c.288,1.662.441,2.493.729,4.154l.068.339.339.068c.627.136.967.187,1.611.288l.085-.509-.509.085c.237,1.34.339,2,.577,3.341l.509-.085.1-.492c-.644-.136-.95-.2-1.577-.373l-.763-.187.136.78c.136.8.2,1.2.356,2.018a5.659,5.659,0,0,0,.407,1.492,1.415,1.415,0,0,0,.9.746,1.329,1.329,0,0,0,.441.068,2.041,2.041,0,0,0,.763-.153l-.187-.475-.509.085.509-.085-.187-.475a.885.885,0,0,1-.373.085h-.17a.532.532,0,0,1-.288-.254A5.282,5.282,0,0,1,6.9,10.174c-.136-.8-.2-1.2-.356-2.018l-.509.085-.119.492c.644.17.967.237,1.611.373l.729.153-.136-.746c-.237-1.34-.339-2-.577-3.341l-.068-.356-.356-.051c-.627-.1-.933-.153-1.577-.288l-.1.492.509-.085C5.664,3.222,5.511,2.391,5.223.729L5.1,0,4.477.373A21.232,21.232,0,0,1,1.136,2.052L.746,2.2l.068.407c.1.594.17.882.271,1.475L1.577,4,1.73,3.51c-.373-.119-.56-.17-.916-.288L0,2.951.153,3.8c.22,1.187.339,1.78.56,2.951l.051.271.254.1c.373.153.577.22.95.356L2.137,7l-.492.085c.119.644.187.967.305,1.611.237,1.255.407,2.1.526,2.594a4.874,4.874,0,0,0,.271.8,9.23,9.23,0,0,0,.407.848h0a6.512,6.512,0,0,0,1.238,1.594,5.565,5.565,0,0,0,1.73,1.136,4.314,4.314,0,0,0,1.594.322h.034a2.208,2.208,0,0,0,1.323-.356l.254-.187-.051-.305c-.22-1.306-.339-1.967-.56-3.273l-.1-.627-.577.237.187.475Z" transform="translate(72.018 124.311)" fill="#020202"/><path d="M3.222,3.379C1.916,3.074,1.272,2.888,0,2.5A2.585,2.585,0,0,1,1.289.463,7.1,7.1,0,0,1,4.544.005a12.9,12.9,0,0,1,1.492.1,7.652,7.652,0,0,1,1.2.22,3.682,3.682,0,0,1,1.747.865,4.275,4.275,0,0,1,.967,1.34A10.505,10.505,0,0,1,10.6,4.889c.237,1.357.373,2.035.61,3.391.407-.017.61-.034,1.017-.051.271,1.492.407,2.221.678,3.714a29.474,29.474,0,0,1-5.189-.085c-.051-.305-.085-.475-.136-.78a2.888,2.888,0,0,1-2.7.627,4.355,4.355,0,0,1-2.7-1.543A5.439,5.439,0,0,1,.933,7.568a2.351,2.351,0,0,1,.61-2.289A3.161,3.161,0,0,1,4.07,4.634,5.762,5.762,0,0,1,6.6,5.38a2.4,2.4,0,0,0-.068-.339,7.383,7.383,0,0,0-.373-1.492,1.863,1.863,0,0,0-.627-.78,1.929,1.929,0,0,0-.984-.356,1.22,1.22,0,0,0-1.306.967ZM7.207,8.924c-.153-.848-.22-1.255-.373-2.1A2.25,2.25,0,0,0,5.6,6.33a.76.76,0,0,0-.78.339A1.509,1.509,0,0,0,4.68,7.737a2.338,2.338,0,0,0,.526,1.153,1.273,1.273,0,0,0,.848.526A1.119,1.119,0,0,0,7.19,8.924Z" transform="translate(80.49 129.868)" fill="#f7eee5"/><path d="M3.731,3.883l.119-.492c-1.289-.305-1.916-.475-3.2-.865l-.153.492L1,3.1A2.051,2.051,0,0,1,2.018,1.441a5.875,5.875,0,0,1,2.544-.407h.458c.543,0,1.017.051,1.458.085a8.63,8.63,0,0,1,1.136.2,3.209,3.209,0,0,1,1.526.746A4.332,4.332,0,0,1,10,3.256,9.741,9.741,0,0,1,10.6,5.494c.237,1.357.373,2.035.61,3.391l.085.441h.441c.407-.034.627-.051,1.034-.068l-.034-.509-.492.085c.271,1.492.407,2.221.678,3.714l.492-.085-.034-.509c-.865.051-1.543.068-2.2.068-.882,0-1.713-.051-2.917-.153l-.051.509.509-.085c-.051-.305-.085-.475-.136-.78l-.17-.967-.7.7a1.99,1.99,0,0,1-1.526.543,3.889,3.889,0,0,1-.729-.068,3.857,3.857,0,0,1-2.391-1.374A4.858,4.858,0,0,1,1.933,8a3.623,3.623,0,0,1-.051-.577,1.6,1.6,0,0,1,.509-1.272A2.249,2.249,0,0,1,4.036,5.63c.153,0,.322,0,.492.017a5.233,5.233,0,0,1,2.306.661L7.8,6.9,7.614,5.782a2.4,2.4,0,0,0-.068-.339,10.677,10.677,0,0,0-.39-1.611h0a2.521,2.521,0,0,0-.8-1A2.3,2.3,0,0,0,5.1,2.391H4.985a1.627,1.627,0,0,0-1.068.356,1.892,1.892,0,0,0-.627.967l.475.153.119-.492-.119.492.475.153a.942.942,0,0,1,.305-.492.622.622,0,0,1,.441-.136h.068a1.294,1.294,0,0,1,.712.254,1.521,1.521,0,0,1,.475.577h0a7.658,7.658,0,0,1,.339,1.391,2.4,2.4,0,0,0,.068.339l.509-.085.271-.441A6.226,6.226,0,0,0,4.68,4.612c-.2-.017-.39-.034-.577-.034a3.38,3.38,0,0,0-2.34.8,2.7,2.7,0,0,0-.831,2A3.818,3.818,0,0,0,1,8.122a5.9,5.9,0,0,0,1.374,2.832,4.854,4.854,0,0,0,3,1.713,5.542,5.542,0,0,0,.9.085A3.085,3.085,0,0,0,8.512,11.9l-.356-.356-.509.085c.051.305.085.475.136.78l.068.39.39.034c1.2.1,2.069.153,3,.153.678,0,1.374-.034,2.255-.068l.577-.034-.1-.56c-.271-1.492-.407-2.221-.678-3.714l-.085-.441-.458.034c-.407.034-.593.034-1,.051v.509c.017,0,.526-.085.526-.085-.237-1.357-.373-2.035-.61-3.391A10.752,10.752,0,0,0,10.988,2.8,5.037,5.037,0,0,0,9.92,1.306,4.139,4.139,0,0,0,7.936.322,9,9,0,0,0,6.664.1C6.206.051,5.681.017,5.121,0H4.629A6.562,6.562,0,0,0,1.611.526,3.106,3.106,0,0,0,.068,2.934L0,3.374l.424.136c1.289.39,1.95.577,3.256.882l.458.1.153-.441L3.815,3.9ZM7.715,9.428l.509-.085C8.072,8.5,8,8.088,7.851,7.241l-.034-.2-.17-.119a2.9,2.9,0,0,0-1.492-.593H6.02A1.3,1.3,0,0,0,4.9,6.9a1.738,1.738,0,0,0-.237.933,1.674,1.674,0,0,0,.051.492,2.96,2.96,0,0,0,.627,1.407,1.866,1.866,0,0,0,1.187.712h.237a1.569,1.569,0,0,0,1.39-.729l.1-.17-.034-.2-.509.085-.424-.271a.537.537,0,0,1-.526.271H6.63c-.1,0-.288-.1-.509-.356a1.828,1.828,0,0,1-.407-.916l-.034-.322a.738.738,0,0,1,.085-.39c.068-.085.068-.1.254-.1h.068a2.084,2.084,0,0,1,.967.407l.305-.407-.509.085c.153.848.22,1.255.373,2.1l.509-.085-.424-.271.424.271Z" transform="translate(79.976 129.365)" fill="#020202"/><path d="M4.475,13.227c-1.017.17-1.526.237-2.544.339-.271-1.509-.424-2.255-.7-3.765.95-.1,1.424-.17,2.357-.322a2.453,2.453,0,0,0,2.255,1.068c.712-.153,1.034-.475.95-.916a.634.634,0,0,0-.339-.475,8.05,8.05,0,0,0-1.39-.288c-.594-.1-1.272-.271-2-.458a4.276,4.276,0,0,1-1.577-.763A3.586,3.586,0,0,1,.575,6.613,4.845,4.845,0,0,1,.117,5.189a3.829,3.829,0,0,1,.39-3A3.188,3.188,0,0,1,2.627.9a3.776,3.776,0,0,1,2.544.339C5.12,1,5.1.865,5.052.627,6.019.407,6.493.271,7.443,0c.271,1.373.407,2.052.678,3.425-.882.271-1.323.39-2.221.61a2.478,2.478,0,0,0-2.238-.8c-.61.119-.865.424-.78.916a.5.5,0,0,0,.356.424,16.019,16.019,0,0,0,1.628.22,15.53,15.53,0,0,1,2.476.39,2.886,2.886,0,0,1,1.458.9,3.763,3.763,0,0,1,.78,1.78,4.517,4.517,0,0,1-.373,3.324A3.474,3.474,0,0,1,6.968,12.82a3.619,3.619,0,0,1-2.645-.305c.051.288.085.441.136.729Z" transform="translate(92.682 128.279)" fill="#f7eee5"/><path d="M4.884,13.922,4.8,13.413c-1,.17-1.492.237-2.51.339l.051.509.492-.085c-.271-1.509-.424-2.255-.7-3.764l-.492.085.051.509c.95-.1,1.441-.17,2.391-.322L4,10.174l-.373.339a3.306,3.306,0,0,0,2.306,1.272,1.308,1.308,0,0,0,.441-.051,2.234,2.234,0,0,0,.933-.407,1.154,1.154,0,0,0,.424-.865v-.237a1.253,1.253,0,0,0-.627-.831,2.631,2.631,0,0,0-.611-.17q-.356-.076-.916-.153c-.56-.1-1.238-.254-1.967-.458a3.462,3.462,0,0,1-1.374-.661,3.185,3.185,0,0,1-.78-.882A4.475,4.475,0,0,1,1.051,5.8a6.628,6.628,0,0,1-.1-1.085,2.558,2.558,0,0,1,.407-1.526A2.689,2.689,0,0,1,3.154,2.1a4.105,4.105,0,0,1,.763-.068,3,3,0,0,1,1.458.356l.95.509-.2-1.051c-.051-.237-.068-.373-.119-.61l-.492.1.119.492c.967-.22,1.475-.356,2.425-.627L7.919.712l-.492.1c.271,1.374.407,2.052.678,3.425l.492-.1-.153-.492c-.882.254-1.306.373-2.2.594l.119.492.356-.373a3.129,3.129,0,0,0-2.17-.984,2.761,2.761,0,0,0-.526.051,1.7,1.7,0,0,0-.848.39,1.08,1.08,0,0,0-.356.848l.034.288a1.233,1.233,0,0,0,.237.526.927.927,0,0,0,.492.288c.22.051.763.136,1.7.237a15.509,15.509,0,0,1,2.391.373,2.383,2.383,0,0,1,1.2.729A3.355,3.355,0,0,1,9.53,8.648a6.539,6.539,0,0,1,.136,1.2A3.213,3.213,0,0,1,9.225,11.6a2.978,2.978,0,0,1-1.933,1.407,3.844,3.844,0,0,1-.848.1,2.958,2.958,0,0,1-1.424-.356l-.933-.509.2,1.051c.051.288.085.441.136.729l.492-.1-.085-.509.085.509.492-.1c-.051-.288-.085-.441-.136-.729l-.492.1-.237.441a3.782,3.782,0,0,0,1.916.475,4.876,4.876,0,0,0,1.085-.136,4,4,0,0,0,2.561-1.865A4.229,4.229,0,0,0,10.7,9.818a6.994,6.994,0,0,0-.153-1.407,4.347,4.347,0,0,0-.882-2A3.45,3.45,0,0,0,7.953,5.358a15.31,15.31,0,0,0-2.561-.407c-.9-.085-1.458-.186-1.56-.2v0h0v0l-.017.068.068-.034H3.849c0-.017-.034.034-.034.034l.068-.034V4.731l-.017-.1.034-.1a.659.659,0,0,1,.356-.136l.322-.034a2.114,2.114,0,0,1,1.458.7l.2.187.271-.068c.9-.22,1.374-.339,2.255-.61l.441-.136-.085-.458C8.852,2.594,8.716,1.916,8.445.543L8.343,0,7.817.153c-.95.271-1.407.39-2.374.61L4.968.882l.1.475c.051.237.068.373.119.61l.492-.1.237-.441A4.028,4.028,0,0,0,3.985.95a6.167,6.167,0,0,0-.95.085A3.671,3.671,0,0,0,.593,2.527,3.622,3.622,0,0,0,0,4.646,8.447,8.447,0,0,0,.119,5.918,5.743,5.743,0,0,0,.627,7.5,4.166,4.166,0,0,0,1.662,8.682a4.387,4.387,0,0,0,1.764.848c.729.187,1.424.356,2.052.475.356.068.661.119.882.153a2.506,2.506,0,0,1,.373.085l.051.1v.051l-.051.085a1.567,1.567,0,0,1-.509.2H6c-.407.034-.933-.237-1.543-.916l-.187-.2L4,9.615c-.933.153-1.39.22-2.34.322l-.543.051.1.543c.271,1.509.424,2.255.7,3.764L2,14.753l.458-.051c1.034-.1,1.56-.17,2.577-.339l.509-.085-.1-.509-.492.1Z" transform="translate(92.267 127.584)" fill="#020202"/><path d="M7.7,10.87c.288,1.374.424,2.052.712,3.425a5.586,5.586,0,0,1-.882,1.272,4.811,4.811,0,0,1-1.306,1.051,2.274,2.274,0,0,1-1.543.271,2.2,2.2,0,0,1-1.2-.8,5.489,5.489,0,0,1-.424-.7,5.08,5.08,0,0,1-.288-.78c-.153-.509-.373-1.526-.678-3.035L1.7,9.632c-.373.136-.577.2-.95.339C.458,8.5.305,7.766,0,6.291c.373-.119.577-.187.95-.305C.8,5.274.729,4.918.593,4.205,1.9,2.544,2.527,1.7,3.781,0c.373,1.814.56,2.713.933,4.528.594-.254.9-.39,1.475-.678.288,1.407.441,2.1.729,3.51-.577.305-.882.441-1.475.729.186.882.271,1.323.458,2.187a4.838,4.838,0,0,0,.424,1.373c.136.2.322.237.577.1a2.481,2.481,0,0,0,.78-.831Z" transform="translate(101.394 121.564)" fill="#f7eee5"/><path d="M8.207,12.158l-.492.1c.288,1.374.424,2.052.712,3.425l.492-.1-.458-.2a4.382,4.382,0,0,1-.8,1.136,3.97,3.97,0,0,1-1.17.933,1.869,1.869,0,0,1-.9.254l-.288-.034a1.519,1.519,0,0,1-.9-.61L4,17.364l.407-.288a3.191,3.191,0,0,1-.373-.627,4.04,4.04,0,0,1-.254-.7c-.136-.475-.356-1.492-.661-3-.153-.78-.237-1.17-.39-1.95l-.119-.577-.56.2c-.373.136-.56.2-.933.322l.17.475.492-.1c-.288-1.475-.441-2.2-.746-3.68l-.492.1L.7,8.038c.39-.119.577-.187.967-.322l.424-.153L2,7.122c-.153-.712-.22-1.068-.356-1.78l-.492.1.407.322C2.866,4.1,3.51,3.256,4.765,1.56l-.407-.305-.492.1c.373,1.814.56,2.713.933,4.528l.136.61.577-.254C6.1,5.986,6.427,5.833,7,5.562L6.783,5.1l-.492.1c.288,1.407.441,2.1.729,3.51l.492-.1-.237-.458c-.577.305-.865.441-1.458.729l-.356.17.085.39c.187.882.271,1.323.458,2.187.085.373.153.678.237.933a2.277,2.277,0,0,0,.271.61.855.855,0,0,0,.729.407,1.257,1.257,0,0,0,.509-.136,3.148,3.148,0,0,0,.967-.984l-.424-.288-.492.1.492-.1-.424-.288a1.949,1.949,0,0,1-.594.661H7.224v.017h0v.187l.1-.153-.1-.034v.186l.1-.153-.068.119.1-.1H7.325c0-.017-.068.1-.068.1l.1-.1h0a1.807,1.807,0,0,1-.136-.373,7.46,7.46,0,0,1-.2-.831c-.187-.882-.271-1.323-.458-2.187l-.492.1.22.458c.593-.288.9-.441,1.492-.746l.339-.17L8.038,8.5c-.288-1.408-.441-2.1-.729-3.51l-.136-.627L6.6,4.629c-.593.271-.865.407-1.458.661l.2.458.492-.1C5.46,3.832,5.274,2.934,4.9,1.119L4.663,0,3.985.916C2.73,2.611,2.1,3.442.8,5.1l-.153.186L.7,5.528c.153.712.22,1.068.356,1.78l.492-.1-.17-.475c-.373.136-.56.187-.933.305L0,7.173l.085.441c.288,1.475.441,2.2.746,3.68l.119.56.543-.186c.39-.136.577-.2.967-.339l-.17-.475-.492.1.39,1.95c.305,1.509.526,2.527.678,3.069a4.437,4.437,0,0,0,.322.848,4.373,4.373,0,0,0,.475.78h0a2.517,2.517,0,0,0,1.492,1,2.588,2.588,0,0,0,.509.051,2.987,2.987,0,0,0,1.374-.373A5.964,5.964,0,0,0,8.5,17.127a5.449,5.449,0,0,0,.967-1.391l.068-.153-.034-.17c-.288-1.373-.424-2.052-.712-3.425L8.529,10.8l-.678,1.017.424.288Z" transform="translate(100.878 120.276)" fill="#020202"/><path d="M7.665,17.991a28.231,28.231,0,0,1-2.7,2.459c-.271-1.323-.407-1.967-.7-3.29.441-.339.661-.509,1.085-.848.034-.543.051-.814.085-1.34-1.611-2.323-2.459-3.595-4.188-6.24-.2.119-.322.17-.526.288C.441,7.631.288,6.935,0,5.545A38.005,38.005,0,0,0,4.578,2.934c.271,1.289.407,1.95.661,3.239-.271.2-.424.305-.712.492.8,1.323,1.17,1.967,1.933,3.222.068-1.933.1-2.9.17-4.782-.237.187-.356.288-.594.458-.254-1.272-.39-1.916-.644-3.188A39.581,39.581,0,0,0,8.563,0c.22,1.187.339,1.78.56,2.951-.22.22-.339.322-.577.526C8.122,9,7.97,11.921,7.665,17.958Z" transform="translate(108.123 119.479)" fill="#f7eee5"/><path d="M8.275,18.89l-.356-.356a27.492,27.492,0,0,1-2.662,2.425l.322.39.492-.1c-.271-1.323-.407-1.967-.7-3.29l-.492.1.305.407c.441-.339.661-.509,1.1-.865l.17-.136v-.22c.051-.543.068-.814.1-1.34v-.187l-.085-.153c-1.611-2.323-2.459-3.578-4.188-6.223l-.254-.407-.407.237c-.2.119-.305.17-.526.288L1.34,9.9l.492-.1c-.288-1.39-.441-2.086-.729-3.476l-.492.1.22.458A41.264,41.264,0,0,0,5.46,4.256l-.271-.424-.492.1c.271,1.289.407,1.95.661,3.239l.492-.1-.305-.407c-.271.2-.407.288-.7.492l-.39.271.237.407c.8,1.323,1.187,1.984,1.933,3.222l.882,1.458L7.563,10.8c.068-1.933.1-2.9.17-4.782l.051-1.1-.865.7c-.237.187-.356.271-.593.458l.305.407.492-.1C6.868,5.1,6.732,4.46,6.478,3.188l-.492.1.288.424a34.377,34.377,0,0,0,3.2-2.408L9.157.916l-.492.1C8.886,2.2,9,2.8,9.225,3.968l.492-.1L9.36,3.493c-.22.22-.339.322-.56.526l-.153.136v.2c-.424,5.528-.593,8.462-.9,14.5l.509.034L7.9,18.534l.356.356.509.034c.322-6.037.475-8.953.882-14.464L9.14,4.426l.339.373c.237-.2.356-.322.577-.543l.2-.187L10.208,3.8c-.22-1.187-.339-1.78-.56-2.951L9.479,0,8.818.543A36.037,36.037,0,0,1,5.681,2.9l-.271.187.068.339c.254,1.272.39,1.916.644,3.188l.17.8.644-.492c.237-.186.373-.288.61-.475l-.322-.39H6.715c-.068,1.865-.1,2.832-.17,4.765h.509l.441-.254C6.732,9.326,6.359,8.682,5.562,7.342L5.121,7.6l.288.424c.288-.2.441-.305.712-.509l.271-.187L6.325,7c-.271-1.289-.407-1.95-.661-3.239l-.153-.729-.627.407A37.146,37.146,0,0,1,.356,6.02L0,6.189l.085.39c.288,1.39.441,2.086.729,3.476l.136.661.593-.322c.22-.119.322-.17.543-.305l-.254-.441-.424.271c1.73,2.645,2.578,3.917,4.205,6.257l.424-.288-.509-.034c-.034.543-.051.8-.085,1.34l.509.034-.322-.39c-.424.356-.627.509-1.068.831l-.254.187.068.322c.271,1.323.407,1.967.7,3.29l.17.814.644-.526a27.193,27.193,0,0,0,2.747-2.493l.136-.136v-.187l-.492-.034Z" transform="translate(107.505 118.58)" fill="#020202"/></g></g></svg>