<?xml version="1.0" encoding="UTF-8"?>
<svg id="uuid-fdaf1183-0dad-43df-b5fe-d651d39e6108" data-name="uuid-ebde942d-c464-4864-9bf4-248508cad362" xmlns="http://www.w3.org/2000/svg" viewBox="0 0 45 45">
  <path d="m22.5,45C10,45,0,34.9,0,22.4,0,10,10.2-.2,22.9,0c12.1.2,22.2,10.2,22.1,22.7,0,12.3-10.2,22.3-22.5,22.3h0Zm0-38.7c-9,0-16.2,7.3-16.2,16.3,0,8.8,7.3,16,16.2,16,8.9,0,16.2-7.3,16.1-16.2,0-8.8-7.3-16.1-16.1-16.1h0ZM5.9,34.6c.7-.4,1.3-.9,2-1.3-.1-.1-.2-.2-.3-.3-.3.2-.5.3-.8.5-.4-.4-.3-.9.1-1.4,0-.1-.1-.2-.2-.3-.3.2-.7.4-1,.6,0,0,.1.1.2.2-.4-.1-.7,0-.8.3,0,.2,0,.6.1.8.1.3.4.6.6.9h0Zm22.1,6.1c-.8.3-.9.3-1.2-.4-.1-.3-.3-.2-.5,0,.2.3.4.7.6,1-.3.6.2,1.1.6,1,.5,0,.9-.2,1.4-.3-.2-.8-.4-1.5-.6-2.3-.2,0-.3.1-.4.1,0,.3.1.6.2.9h0Zm11-30.4c-.7.5-1.3.9-2,1.3.5,1,.9,1.4,1.4,1.3.6,0,1-.3,1.2-.8.3-.7-.4-1.2-.6-1.8Zm-22.5-5c.6-.3,1.5-.2,1.7-1,.1-.5-.1-1.1-.5-1.4-.6-.4-1.2,0-1.8.1.2.8.4,1.5.7,2.3h0Zm12.3-2.4c-.3.8-.6,1.5-.8,2.2.2,0,.3,0,.4.1.1-.3.2-.6.3-.8.9.2.9.2.7,1,0,.3.2.3.4.4,0-.4.1-.8.2-1,.2-.4.4-.6.4-.9,0-.4-.4-.5-.7-.7-.3-.1-.6-.2-.9-.3h0Zm8.4,30c-.4.6-1.1,1-.7,1.8.2.5.6.8,1.2.8s1-.7,1.4-1.2c-.7-.5-1.3-1-1.9-1.5h0ZM4.3,22.7c0-.6.3-1.3-.4-1.8-.4-.3-1.1-.3-1.5,0-.7.5-.4,1.2-.5,1.8h2.4Zm36.3-.3c0,.8.7.2.9.6,0,.8,0,.8-.7.9-.3,0-.3.2-.2.5.4,0,.7-.1,1.1-.2.5.4,1.1.3,1.2-.4,0-.4,0-.8,0-1.3-.8,0-1.5,0-2.4-.1h0ZM8,10c-.3-.3-.5-.6-.7-.6-.2,0-.5.2-.7.3-.3.2-.5.6-.7.9.6.5,1.2,1,1.8,1.5.1-.1.2-.2.3-.3-.3-.2-.5-.4-.7-.6.5-.7.5-.7,1.2-.4.3.2.4,0,.5-.3-.4-.2-.7-.3-.9-.4h0Zm9.1,29.9c-.7-.1-1.2-.7-1.9-.2-.4.3-.6.8-.5,1.4.2.8,1,.8,1.6,1.1.3-.8.5-1.5.8-2.2h0Zm25.4-19.4c0,.3,0,.7,0,1,0,0,.1.2.2.2,0,0,.2-.2.2-.2,0-.5,0-1-.1-1.5-.5,0-1,0-1.5.1-.9,0-.8,0-.7.9,0,.2,0,.5,0,.7,0,0,.1.2.2.3,0-.1.2-.2.2-.3,0-.3,0-.7,0-1,.2,0,.4,0,.6,0,0,.3,0,.6,0,.8,0,.1.1.2.2.3,0-.1.1-.2.1-.3,0-.3,0-.6,0-.9.2,0,.4,0,.6,0h0Zm-3.6,12.8c.2-.3.4-.7.6-1,.2.1.3.2.5.3-.2.4-.4.7-.6,1.1,0,0,0,0,0,.1.1,0,.3,0,.3-.1.3-.4.5-.8.8-1.3-.7-.4-1.4-.8-2-1.2-.3.5-.6,1-.9,1.5.1,0,.2.1.3.2.2-.4.5-.7.7-1.1.2.1.4.2.6.3-.1.2-.3.4-.4.6,0,.2-.4.4,0,.5h0Zm-3.3-23.2c.3.4.6.7,1,1.1.2.2.3.1.4,0-.3-.3-.5-.6-.8-1,.2-.2.3-.3.5-.4.3.3.5.6.8.9,0,0,0,0,.1,0,.1-.5-.5-.6-.6-1.1.1-.1.3-.2.4-.3.3.3.6.6.9,1,0-.2.1-.3.1-.4-.3-.4-.7-.8-1-1.2-.6.5-1.1,1-1.8,1.5h0Zm-17,31.4c-.3,0-.6-.2-.9-.2,0,0-.2,0-.3.1,0,0,.1.2.2.2.3,0,.6.1.9.2,0,.2,0,.4-.1.6-.4,0-.8-.2-1.3-.3,0,.2,0,.4.1.4.5.1,1,.2,1.5.3.2-.8.3-1.5.5-2.3-.5-.1-.9-.2-1.3-.3-.1,0-.3,0-.4,0,.1,0,.2.2.3.3.3,0,.6.1.9.2,0,.2,0,.4-.1.6h0ZM26.6,3.3c0-.1,0-.3.1-.5.4,0,.8.2,1.3.3,0-.2,0-.4-.1-.4-.5-.1-1-.2-1.5-.4-.2.8-.3,1.5-.5,2.3.5.1,1,.2,1.4.3,0,0,.2,0,.3-.1,0,0-.1-.2-.2-.2-.3-.1-.6-.2-1-.3,0-.2.1-.4.2-.6.4,0,.8.1,1.1.2,0,0,0-.1,0-.1-.2-.5-.8-.2-1.1-.5h0ZM7,12.3c-.2.3-.4.7-.7,1.1-.2-.1-.4-.2-.6-.3.2-.4.4-.7.6-1h-.1c-.5,0-.4.6-.8.8-.1,0-.3-.2-.4-.3.2-.4.4-.7.6-1.1-.1,0-.2-.1-.3-.2-.3.5-.6,1-.9,1.5.7.4,1.4.8,2,1.2.3-.5.5-.9.8-1.3.2-.3,0-.3-.2-.4h0Zm-4.9,13c.7,0,1.4-.1,2.1-.2,0,0,.2-.2.2-.3,0-.4,0-.8-.1-1.2,0,0-.2-.2-.3-.3,0,.1,0,.2,0,.2,0,.2,0,.5,0,.7,0,.5,0,.6-.6.5,0-.3,0-.6,0-.9,0,0-.1-.2-.2-.2,0,0-.1.2-.1.3,0,.3,0,.6,0,.9h-.6c0-.3,0-.7-.1-1,0,0-.1-.2-.2-.2,0,0-.2.2-.1.2,0,.5,0,.9.1,1.5h0ZM15.1,3.3c-.5.2-1,.4-1.5.7.3.7.6,1.4.9,2.2.5-.2.9-.4,1.3-.6,0,0,.1-.2.2-.3-.1,0-.2-.1-.3,0-.3.1-.6.2-.9.4,0-.2-.2-.4-.3-.6.3-.1.6-.2.8-.4,0,0,.1-.2.2-.2-.1,0-.2-.1-.3,0-.3,0-.5.2-.9.3,0-.2-.1-.4-.2-.5.3-.1.5-.2.7-.3.4-.2.4-.2.3-.5h0Zm-7.5,33.3c.6-.5,1.2-1,1.8-1.6-.3-.4-.6-.7-.9-1.1-.2-.2-.3-.2-.4,0,.3.3.5.6.8.9-.2.2-.3.3-.5.4-.2-.2-.3-.4-.5-.5-.1-.1-.3-.5-.5,0,.2.3.5.6.7.9-.2.1-.3.3-.4.4-.3-.3-.6-.6-.8-.9,0,0,0,0-.1,0,0,.1,0,.3,0,.4.3.4.6.7,1,1.1h0Zm23.1,4.3c-.4.2-.8.3-1.3.6.2.1.3.2.4.2.5-.2.9-.4,1.4-.6-.3-.7-.6-1.4-.9-2.2-.1,0-.2,0-.3.1-.3.2-.7.3-1,.5s-.1.2-.2.3c.1,0,.2.1.3,0,.3-.1.6-.2.9-.4,0,.2.2.4.3.6-.3.1-.6.2-.8.4,0,0-.1.2-.2.3,0,0,.2,0,.3,0,.3,0,.6-.2.9-.3,0,.2.1.3.2.5h0Zm11.2-21.6c.6-.2.8-.7.6-1.2-.2-.6-.8-.9-1.5-.7-.7.2-1,.7-.9,1.3.1.6.5.9,1.1.8,0-.2,0-.3-.3-.4-.2,0-.4-.3-.4-.4,0-.2,0-.5.2-.6.2-.2.5-.2.8-.2.2,0,.5.2.6.3,0,.2,0,.5,0,.7,0,.2,0,.3-.1.5h0ZM5.3,14.1c0,.1,0,.3.1.4.2.2.2.5,0,.7-.2.3-.6.4-1.1.2-.4-.2-.6-.6-.5-.9,0-.2.3-.3.4-.4.1-.1.2-.2.5-.4-.7-.1-1.1.2-1.3.7-.2.6.2,1.2.9,1.4.7.2,1.2,0,1.5-.6.2-.5,0-1-.6-1.2h0ZM25.3,3c0-.7-.4-1-1-.9s-1,.6-1,1.3.4,1.1,1,1.2c.5,0,.9-.3,1-.8-.2-.1-.3-.1-.5.1-.1.2-.4.3-.6.3-.2,0-.4-.2-.5-.4,0-.2,0-.6,0-.8,0-.2.3-.4.5-.4s.4.2.6.3c.1,0,.2.2.4.3ZM8.7,36.6c-.3.6-.2,1.1.3,1.4.5.4,1.2.2,1.6-.4.4-.5.4-1.2-.1-1.6-.5-.4-1-.4-1.5.2.3,0,.4,0,.6,0,.2,0,.5,0,.6.1s.2.4.2.6c0,.3-.3.5-.5.7-.2.1-.5.1-.7,0-.2,0-.2-.4-.3-.6,0-.1-.1-.3-.2-.5h0Zm22.5,2.8c0,0,.1,0,.2,0,0-.2.1-.3.2-.5,0-.4.3-.7.6-.6.4,0,.9.6.8,1.1,0,.4-.4.6-.7.5,0,0,0,0-.1,0-.2,0-.3,0-.6,0,.5.5,1,.5,1.5.2.5-.4.5-1,.1-1.6-.4-.5-1-.7-1.5-.4-.5.3-.7.8-.4,1.3h0ZM11.9,5.3v-.2c-.1,0-.3,0-.3,0-.4.2-.8.5-1.2.8.5.7.9,1.3,1.3,2,.1-.1.2-.2.3-.3-.2-.3-.4-.6-.5-.8.6-.4.8-.7.6-.9-.3.2-.6.4-.9.6-.1-.2-.2-.3-.3-.5.3-.2.6-.5.9-.7h0Zm-6.7,22.9c0-.2-.1-.3-.1-.4,0,0-.1,0-.2,0-.2,0-.6.2-.7.1-.2-.1-.2-.5-.3-.7,0-.3-.2-.2-.4,0,0,.3.2.6.2.9-.5.2-.6.2-.7-.3,0-.2-.1-.5-.2-.8-.1.2-.3.3-.3.4.1.5.3.9.4,1.4.8-.2,1.5-.4,2.3-.6h0Zm17.2,14.8v-2.3c-.7,0-.2.7-.5,1-.2,0-.5,0-.7,0,0,0-.2.1-.2.2,0,0,.1.2.2.2.3,0,.5,0,.8,0,0,.2,0,.4,0,.5-.3,0-.6,0-.9,0,0,0-.2.1-.3.2,0,0,.2.2.2.2.4,0,.9,0,1.4,0h0ZM35.2,7.7c-.3-.2-.5-.4-.8-.7.1-.2.2-.3.4-.5.3.2.6.5.9.7,0,0,0,0,.1,0,0-.1,0-.3,0-.4-.3-.3-.7-.6-1.1-.9-.5.6-1,1.2-1.5,1.9.1,0,.2.2.3.2.2-.3.4-.5.6-.7.6.4.9.5,1,.3h0Zm5.8,21.3c.2,0,.4.2.6.2-.1.3-.2.6-.3.9,0,0,0,.2,0,.3,0,0,.2,0,.3-.2.2-.4.3-.8.5-1.3-.7-.3-1.5-.5-2.2-.8,0,.1-.1.2-.2.4.3.1.6.3.9.4-.1.3-.2.5-.3.8,0,0,0,.2,0,.3,0,0,.2,0,.2-.2.1-.2.2-.5.3-.8h0Zm1.6-2c.1-.6.2-1.1.3-1.6,0-.1,0-.2-.1-.3,0,.1-.2.2-.3.3,0,.1,0,.2,0,.4-.5,0-1.1-.2-1.6-.3-.1,0-.3,0-.4.1.1,0,.2.2.3.3.5.1,1,.2,1.5.3.2.3-.3.7.4.8h0ZM31.3,3.9c0,.1-.1.2-.1.3.2.2.4.3.6.5-.3.6-.6,1.1-.9,1.7.1,0,.3.1.4.2.3-.6.6-1.1.9-1.7.5.2.7.1.8,0-.5-.3-1.1-.6-1.7-.9h0Zm-6,36.5c-.3,0-.4,0-.4.3,0,.5.2,1.1.2,1.7-.5,0-.7.2-.6.5.5,0,1.1-.1,1.6-.2,0,0,.2-.2.2-.3,0,0,0,0-.1,0-.2,0-.4,0-.7,0-.1-.6-.2-1.3-.3-1.9h0ZM4.6,31.6c.5-.2,1-.5,1.4-.7.3-.1.4-.3,0-.5-.6.3-1.1.5-1.7.8-.3-.4-.5-.5-.7-.4.3.5.5,1.1.8,1.6.2,0,.2-.3,0-.8h0Zm5-21.9c.3-.2.4-.3.1-.5-.4-.4-.8-.7-1.3-1.2.3-.2.4-.3.5-.4,0,0,0-.2,0-.4,0,0-.1,0-.2,0-.4.4-.7.8-1.1,1.2-.2.2,0,.3.1.4.2-.2.3-.3.6-.5.5.5.9.9,1.3,1.4h0Zm3.6,29.5c0-.3-.3-.6-.6-.6-.3,0-.6.3-.6.6,0,.3.3.6.6.6s.6-.3.6-.6h0ZM20.7,2.7c-.3,0-.6.3-.6.6,0,.3.3.6.6.6.3,0,.6-.3.6-.6,0-.3-.3-.6-.6-.6Zm14.6,35c.3,0,.6-.3.6-.6s-.3-.6-.6-.6c-.3,0-.6.3-.6.6s.3.6.6.6h0ZM4.2,18.3c0-.3-.3-.6-.6-.6s-.6.3-.6.6c0,.3.3.6.6.6s.6-.3.6-.6Zm35.5-3.4c0,.3.2.6.6.6.3,0,.6-.2.6-.5,0-.3-.2-.6-.5-.6-.3,0-.6.2-.6.5h0Zm-6.2-9.7c-.4.7-.9,1.3-1.3,2,.1,0,.2.2.4.2.4-.7.9-1.3,1.3-2-.1,0-.2-.1-.4-.2h0ZM2.4,26.6c.8-.2,1.6-.3,2.3-.4,0-.3,0-.4-.4-.4-.6.1-1.2.2-1.9.4,0,0,0,0-.1,0,0,.1,0,.2,0,.4h0Zm37.6.9c.7.2,1.4.4,2,.6.3,0,.3-.1.3-.4-.7-.2-1.5-.4-2.2-.6,0,.1,0,.3-.1.4Zm-16.2,15.5c0-.7,0-1.4-.1-2.1,0,0-.2-.1-.2-.2,0,0-.2.2-.2.3,0,.7,0,1.4,0,2.1h.4ZM13.9,6.5c-.4-.7-.8-1.4-1.1-2-.3,0-.4.2-.3.5.3.5.6,1.1.9,1.7,0,0,0,0,.1,0,.1,0,.2,0,.3-.2h0Zm22.5,1c-.6.6-1.1,1.1-1.6,1.7.1.1.2.2.3.3.5-.6,1.1-1.1,1.6-1.7,0-.1-.2-.2-.3-.3Zm-27.1-.7c.5.6,1,1.2,1.5,1.8.1,0,.2-.2.3-.3-.5-.6-1-1.2-1.5-1.8-.1.1-.2.2-.3.3h0Zm29.7,23.4c0,0-.1,0-.2,0,0,.1,0,.3.2.4.6.3,1.2.6,1.9.9,0-.1.1-.2.2-.4-.7-.3-1.4-.7-2.1-1h0Zm-33.5-1.3c-.7.3-1.3.5-1.9.8,0,0-.1.2-.2.3.1,0,.2.1.3,0,.6-.2,1.2-.5,1.8-.7,0,0,0,0,0-.1,0-.1,0-.2-.1-.3h0Zm14.6,14c0-.7.2-1.4.3-2.1,0,0-.1-.2-.2-.3,0,0-.2.1-.3.2-.1.7-.2,1.4-.3,2.1.2,0,.3,0,.4,0h0Z"/>
  <path d="m22.5,7.2c8.6,0,15.4,6.9,15.3,15.6-.1,8.5-7.1,15.1-15.4,15-8.5,0-15.2-7-15.2-15.5,0-8.3,7-15.1,15.4-15.1Zm14.3,14.8c-.2-3.5-1.4-6.4-3.6-9-.3.2-.6.4-.9.5-.3.2-.6.3-.8.5-.6.3-1.3.3-1.9,0,1-.6,1.9-1.1,2.9-1.7-1.9-1.8-4-3-6.5-3.6,1.5,1.5,2.4,3.3,3.1,5.4h-1c-.5-.9-.9-1.8-1.4-2.7-.7-1.2-1.5-2.2-2.8-2.8-.3-.1-.6-.2-.9-.3v6.4c-.2,0-.4-.2-.5-.2-.4,0-.5-.3-.5-.7,0-1.7,0-3.3,0-5v-.5c-.9.1-1.7.6-2.3,1.2-1.3,1.2-2.1,2.8-2.7,4.4-.1.3-.3.4-.6.4-.8,0-1.6,0-2.3,0-.2,0-.4,0-.6-.2-.6-.3-1.1-.7-1.7-1-1.9,1.5-4,7-3.6,9h2.7v1h-2.8c.2,3.5,1.4,6.4,3.6,9,.8-.5,1.6-1,2.4-1.5,0,0,0,0,0,0h-2.3v-6h2.7v-.7h.5c.2,0,.3,0,.4,0,.1.5.4.7.9.7h5.5c.1-.3.1-.6.3-.8.2-.2.5-.2.8-.4v1.1c.1,0,.2,0,.2,0h5.8c.2,0,.3,0,.4-.3,0,0,.1-.2.2-.3.2,0,.5,0,.8-.1v.7h2.7v6h-2.3c.8.6,1.6,1.1,2.4,1.5,2.2-2.6,3.5-5.6,3.6-9h-4.6c.2-.2.3-.4.5-.6.2-.3.5-.4.8-.4,1.1,0,2.1,0,3.3,0h0Zm-24.4,3c0,.2,0,.3,0,.4,0,1.4,0,2.7,0,4.1,0,.3.1.4.4.4,6.4,0,12.8,0,19.3,0,.4,0,.5-.1.5-.5,0-1.3,0-2.6,0-3.9,0-.4-.1-.5-.5-.5-6.4,0-12.7,0-19.1,0h-.5,0Zm10.6,11.8c2.4-.3,4.5-3.8,5.1-6.3h-5.1v6.3Zm-1.1,0v-6.3h-5.1c0,0,0,.1,0,.2.6,1.8,1.4,3.4,2.7,4.8.7.7,1.4,1.2,2.4,1.4h0Zm-9.5-4.1c1.9,1.9,4.1,3.1,6.5,3.7-.6-.9-1.3-1.7-1.8-2.6-.5-.9-.9-1.9-1.4-3-1.1.6-2.1,1.2-3.3,1.9h0Zm13.6,3.6c2.5-.6,4.6-1.8,6.5-3.6-1.1-.6-2.2-1.3-3.4-1.9-.7,2.1-1.6,4-3.2,5.5h0ZM15.8,14.2c.7-2.1,1.7-4,3.2-5.6-2.5.6-4.6,1.8-6.5,3.6,1.1.6,2.2,1.3,3.3,1.9h0Z"/>
  <path d="m6.6,33.7c-.2.2-.4.3-.6.4-.1-.2-.3-.4-.4-.7,0-.1,0-.3.1-.4s.3,0,.4,0c.2.2.3.4.5.6h0Z"/>
  <path d="m28.2,41.1c0,.2.1.4.2.7-.2,0-.5.2-.7.2-.1,0-.4-.1-.4-.2,0-.1,0-.4.2-.4.2-.1.4-.1.7-.2h0Z"/>
  <path d="m37.6,11.8c.5-.3.9-.6,1.3-.9.3.3.6.6.3,1-.2.3-.5.5-.9.6-.5.1-.6-.4-.8-.7h0Z"/>
  <path d="m16.9,4.8c-.2-.5-.3-1-.4-1.5.4-.1.8-.4,1,0,.2.3.3.7.3,1,0,.5-.5.4-.9.5Z"/>
  <path d="m28.9,4.1c0-.2.2-.4.3-.7.3.1.5.2.7.3,0,0,.2.3.1.4,0,.1-.2.2-.3.2-.2,0-.5-.1-.7-.2h0Z"/>
  <path d="m37.4,33.6c.4.3.8.7,1.3,1-.2.3-.4.7-.9.6-.4,0-.7-.3-.8-.7-.1-.4.2-.6.4-.9h0Z"/>
  <path d="m2.4,22.2c0-.4,0-.9.4-1,.3,0,.7,0,1,0,.4.2.3.6.2,1-.5,0-1,0-1.6,0h0Z"/>
  <path d="m42.6,22.9c0,.3,0,.5,0,.7,0,.1-.2.3-.3.3-.1,0-.3-.1-.3-.3,0-.2,0-.5,0-.7h.7Z"/>
  <path d="m6.9,10.8c-.2-.2-.4-.3-.5-.5.2-.2.3-.4.5-.6,0,0,.3,0,.4,0s.1.3.1.4c-.1.2-.3.4-.5.6h0Z"/>
  <path d="m16,41.6c-.4-.1-.9-.2-.9-.6s.2-.7.4-1c.3-.3.6,0,1,.1-.2.5-.4,1-.6,1.5h0Z"/>
  <path d="m28.8,23.2c-.5,0-1,0-1.4-.2-2-.5-3.2-2.1-3.1-4.2.1-2.2,1.4-3.7,3.5-4,.7,0,1.5-.1,2.2,0,2.6.5,3.5,2.6,3.2,4.7-.3,2.3-1.9,3.6-4.4,3.7h0Zm2.2-4.3c0-1.4-.8-2.3-2.2-2.3-1.3,0-2.2.9-2.2,2.3s.9,2.3,2.2,2.3,2.2-.9,2.2-2.3h0Z"/>
  <path d="m16.8,20.1h1.7c.3,0,.3.2.3.4,0,.5.2.7.6.7.5,0,1,0,1.5,0,.3,0,.6-.2.6-.6s-.3-.5-.6-.5c-.5-.1-1.1-.2-1.6-.3-.3,0-.7-.1-1-.3-1-.3-1.5-1.1-1.5-2.1,0-1,.4-1.7,1.2-2.2,1.7-.8,3.3-.7,4.9.2.2.1.3.3.3.6,0,.5,0,1,0,1.6h-1.9c0,0,0-.2,0-.3,0-.7,0-.7-.7-.8-.3,0-.6,0-.9,0-.3,0-.5.3-.5.6,0,.3.2.5.5.6.3,0,.6.1.8.2.7.2,1.3.2,2,.5.9.3,1.4,1,1.4,2,0,.9-.4,1.6-1.1,2.1-1.6,1-4.2.8-5.6-.4,0,0-.2-.2-.2-.3,0-.6,0-1.2,0-1.8h0Z"/>
  <path d="m15.9,23h-4.1v-1.8h.9v-4.5h-.9v-1.8h4.1v1.7h-.9v4.5h.9v1.8h0Z"/>
  <path d="m25.4,23h-1.7c0,0-.1,0-.2,0,.2-.3.4-.6.7-.8s.3,0,.4,0c.3.2.5.5.8.9h0Z"/>
  <path d="m27.5,27.4c0-1.1.8-1.8,1.7-1.4.3.1.5.3.7.6.3.5.3,1.1,0,1.7-.2.5-.6.7-1.1.7s-.9-.2-1.1-.7c-.1-.3-.1-.6-.2-.9h0Zm1.8,0c0-.6-.2-.9-.5-.9-.3,0-.5.3-.5.9,0,.5.2.8.5.9.3,0,.5-.3.5-.9h0Z"/>
  <path d="m23.5,27.4c0,1-.6,1.6-1.5,1.5-.1,0-.3,0-.4-.1-.6-.3-.9-1.2-.6-2.1.2-.6.8-1,1.4-.9.7.1,1.1.7,1.1,1.5h0Zm-.8,0c0-.1,0-.3,0-.4,0-.2-.3-.4-.4-.4-.1,0-.4.2-.4.4,0,.3,0,.6,0,.8,0,.2.3.5.4.5.3,0,.4-.2.5-.5,0-.1,0-.2,0-.3Z"/>
  <path d="m24.3,27.5c0-1.2.8-1.8,1.7-1.6.4.1.7.4.8.8,0,.3.1.7,0,1-.1.8-.6,1.2-1.3,1.2s-1.1-.4-1.3-1.2c0-.1,0-.2,0-.3h0Zm1.7,0c0-.6-.1-.9-.5-.9s-.5.3-.5.9.2.9.5.9c.3,0,.4-.3.5-.8h0Z"/>
  <path d="m18,28.9c-.1-.3,0-.6.2-.8.3-.2.5-.5.8-.7.2-.2.4-.4.2-.7-.2-.3-.5-.1-.8,0,0,0,0,0-.1,0-.2,0-.3-.2-.6-.3.3-.4.7-.6,1.1-.6.4,0,.8,0,1.1.4.2.3.2.8-.1,1.2-.2.2-.5.4-.8.8h1.1v.6h-2.2Z"/>
  <path d="m14.9,26.5c.5-.6,1.3-.8,1.9-.5.5.3.6.9.2,1.3-.2.3-.5.5-.8.9h1v.6h-2.2c-.1-.3,0-.5.2-.7.3-.2.6-.5.8-.8.2-.2.5-.4.2-.7-.2-.2-.5-.1-.8,0,0,0,0,0-.1,0-.2,0-.3-.2-.5-.3h0Z"/>
</svg>