<?xml version="1.0" encoding="UTF-8"?>
<svg id="uuid-1cdff8e6-e94b-4348-a6fd-62b5f55caa13" data-name="uuid-93625e02-7614-48bd-b6fe-8bcacddfb000" xmlns="http://www.w3.org/2000/svg" viewBox="0 0 45 45">
  <path d="m45,22.5c0,12.5-10.1,22.5-22.5,22.5C10,45,0,34.9,0,22.5S10.1,0,22.6,0c12.4,0,22.4,10.1,22.4,22.5ZM22.5,1C10.6,1,.9,10.6,1,22.5c0,11.9,9.7,21.6,21.6,21.6,11.9,0,21.6-9.7,21.5-21.6C44.1,10.6,34.4.9,22.5,1h0Z"/>
  <path d="m36.1,22.1c.3,7.3-5.6,13.7-12.9,14-7.8.3-14-5.5-14.3-13.2-.3-7.2,5.6-13.7,12.8-14,7.8-.3,14.1,5.4,14.4,13.2h0Zm-9.1-8c-.4-.4-.7-.8-1.1-1.2-1.4,1.5-2.9,2.9-4.4,4.4-.7-.8-1.5-1.5-2.2-2.3-.4.4-.8.8-1.1,1,1.1,1.2,2.3,2.3,3.3,3.4,1.8-1.8,3.6-3.6,5.4-5.4h0Zm-13.7,6.6c0,1.1,0,2.3,0,3.4,0,0,.3.3.4.3.2,0,.4-.2.4-.3,0-.3,0-.7,0-1h1.3c0,.4,0,.7,0,1.1,0,.1.3.3.4.3.2,0,.4-.1.4-.2,0-1.1,0-2.3,0-3.4h-.9v1.4h-1.4v-1.4h-.9,0Zm7.4,3.6c-.5-1.2-1-2.3-1.5-3.4-.2-.4-.8-.3-1,.1-.4.9-.8,1.8-1.2,2.7,0,.2-.2.4-.2.6.6.1.9.1,1.1-.5,0-.1.2-.2.4-.2.3,0,.6,0,.9,0,.1,0,.4.2.4.3.2.6.6.5,1.1.4h0Zm8.8-.9c.4,0,.7,0,1-.1.6-.1,1-.5,1-1.2,0-.7-.3-1.3-.9-1.3-.6,0-1.3,0-2,0,0,1.1,0,2.2,0,3.3,0,.1.3.3.4.3.2,0,.4-.1.5-.3,0-.2,0-.4,0-.7h0Zm-2-.3c-.8.5-1.3.5-1.8,0-.3-.4-.3-1.1,0-1.4.4-.5.9-.5,1.8,0,.1-.2.3-.3.4-.5-.7-.9-2-1-2.8-.2-.8.7-.8,2.1,0,2.8.8.7,2.1.6,2.8-.3-.2-.2-.3-.3-.5-.5h0Zm-3.3-1.8c-.8-.9-2.1-1-2.9-.2-.7.8-.7,2,0,2.7.8.7,2.1.6,2.8-.3-.2-.2-.3-.3-.5-.5-.8.5-1.3.6-1.7.1-.4-.4-.4-1,0-1.4.4-.5.9-.5,1.9,0,.1-.2.3-.3.5-.5Zm-2.9,8.3c.7-.6,1.4-.7,2.1,0-.4-.9-.1-1.5.6-2-.9,0-1.4-.4-1.7-1.2-.2.9-.8,1.2-1.7,1.2.3.4.7.6.8.9,0,.3,0,.7-.2,1.2Zm-2.4,0c-.4-.9,0-1.5.6-2-1,.1-1.4-.4-1.7-1.2-.1,1-.8,1.2-1.7,1.2.3.4.7.6.8.9s0,.7-.2,1.2c.7-.6,1.4-.7,2.1,0h0Zm6.9,0c.7-.7,1.4-.5,2.1,0-.4-.9,0-1.5.6-2-.9,0-1.5-.4-1.7-1.2-.2.9-.8,1.2-1.7,1.3.9.5,1,1.1.7,2h0Z"/>
  <path d="m40,21.7h-2v-.7h3.3c.2.9.2,1-.6,1.3-.4.2-.8.4-1.3.6.5.2.9.4,1.2.6s.7.7.6,1.3h-3.4v-.7h2s0,0,0-.1c-.4-.2-.9-.4-1.3-.7-.2,0-.4-.3-.4-.4s.2-.3.4-.4c.4-.2.9-.4,1.3-.6,0,0,0-.1,0-.2h0Z"/>
  <path d="m16.6,37c.6.2,1.1.4,1.6.5.5.2.8.4.8,1,0,.5-.2,1-.8,1.2,0,0-.1,0-.2,0,.1.4.3.8.4,1.3-.5,0-.9-.2-1-.7,0-.4-.1-.9-.8-.9-.1.3-.2.6-.4,1-.2,0-.4-.1-.7-.2.3-1.1.7-2.2,1-3.3h0Zm.2,2c.5,0,.9,0,1.3,0,0,0,.3-.5.2-.6-.3-.3-.7-.4-1.1-.7-.1.4-.2.7-.4,1.2Z"/>
  <path d="m9.2,14.5c-1-.7-1.9-1.4-2.9-2.1.5-.5.8-1.1,1.3-1.5.6-.5,1.3-.4,2,0,.7.5,1,1.2.6,1.9-.3.6-.7,1.1-1.1,1.7h0Zm-1.9-2.3c.6.5,1.2.9,1.8,1.3.4-.5.8-.9.6-1.4-.2-.3-.6-.7-1-.8-.6-.2-1,.4-1.3.9h0Z"/>
  <path d="m30.7,35.9c.5-.3.8-.6,1.3-.9.9-.6,1.7-.4,2.3.4s.5,1.7-.2,2.3c-.4.3-.8.6-1.2,1-.7-.9-1.4-1.8-2.1-2.8h0Zm1,0c.5.6.9,1.2,1.3,1.7.5-.4,1-.6.9-1.3,0-.5-.3-.8-.8-1-.6-.2-1,.2-1.5.6h0Z"/>
  <path d="m3.6,20.1c0-1.1.8-1.8,1.8-1.8,1,0,1.8.8,1.8,1.8,0,1.1-.8,1.9-1.9,1.8-1,0-1.8-.8-1.8-1.9Zm1.8,1.1c.6,0,1.2-.5,1.2-1.1,0-.6-.5-1.1-1.2-1.1-.6,0-1.2.4-1.2,1s.5,1.1,1.2,1.1h0Z"/>
  <path d="m39.9,26.7c-.4,1.1-.7,2.1-1.2,3.1-.6,1.5-1.6,2.9-2.7,4.2-.1.1-.3.2-.5.3,0,0-.2-.1-.2-.2,0-.2,0-.4.2-.5.7-1,1.5-2,2-3.1.6-1.2,1-2.6,1.6-3.9,0-.2.3-.3.4-.4,0,0,.2.2.4.4h0Z"/>
  <path d="m8.4,15.8c0,1-.8,1.9-1.8,1.9-1,0-1.8-.8-1.8-1.8,0-1,.8-1.8,1.8-1.9,1,0,1.8.8,1.8,1.8h0Zm-1.8,1.2c.6,0,1.1-.5,1.1-1.1s-.6-1.1-1.2-1.1-1.1.5-1.1,1.1c0,.6.6,1.2,1.2,1.2h0Z"/>
  <path d="m14,35.7c.7.4,1.5.8,2.2,1.2,0,.2-.2.4-.3.6-.5-.3-1-.5-1.5-.8-.1.2-.2.4-.4.7.5.3.9.5,1.4.8,0,.2-.2.3-.3.5-.5-.2-.9-.5-1.4-.7-.1.2-.2.4-.4.7.5.3,1,.6,1.6.9,0,.2-.2.4-.3.6-.8-.4-1.5-.8-2.2-1.2.6-1,1.1-2,1.7-3.1h0Z"/>
  <path d="m29.1,37.4c.1.3.2.5.3.7.5-.2.9-.4,1.4-.6,0,.2.2.4.2.5-.5.2-.9.5-1.4.7.1.2.2.4.3.7.6-.3,1.1-.5,1.6-.8,0,.2.2.4.3.6-.8.4-1.5.7-2.3,1.1-.5-1-1-2.1-1.5-3.1.7-.4,1.5-.7,2.2-1.1,0,.2.2.4.3.6-.5.3-1,.5-1.6.8h0Z"/>
  <path d="m38.9,18.3c-.3,0-.5.1-.7.2.1.6.2,1.1.4,1.7-.2,0-.4.1-.6.2-.2-.8-.4-1.6-.6-2.5,1.2-.3,2.2-.5,3.4-.8.2.8.4,1.6.6,2.4-.2,0-.4,0-.6.2-.1-.6-.3-1.1-.4-1.7-.3,0-.5,0-.7.2.1.5.2,1,.3,1.5-.2,0-.3.1-.5.2-.1-.5-.3-1-.4-1.6h0Z"/>
  <path d="m17.6,7.7c-.4.3-.7.4-1.1,0,0,0-.3,0-.4,0-.1,0-.2.1-.4.2-.6.2-1,.5-.7,1.2-.2.1-.4.2-.8.4v-1.1c0-.8,0-1.5,0-2.3,0-.2.1-.5.3-.5s.5,0,.6,0c.8.7,1.7,1.5,2.5,2.2h0Zm-1.8-.7c-.3-.3-.6-.5-.9-.8,0,.5,0,.8,0,1.2.3-.1.5-.2.8-.4h0Z"/>
  <path d="m22.9,5v.5c-.5,0-1,0-1.5.1,0,.3,0,.5,0,.7h1.8c0,.2,0,.4,0,.6-.8,0-1.7,0-2.6.1v-3.5c.7,0,1.5,0,2.4-.1,0,.2,0,.4,0,.6-.6,0-1.1,0-1.7.1-.2.7-.1.8.6.8.3,0,.5,0,.8,0,0,0,0,0,.2,0h0Z"/>
  <path d="m5.8,26.8c.1.2.3.4.3.6.6,1.9,1.4,3.6,2.5,5.1.2.3.4.5.6.8.2.2.4.4.1.7-.3.3-.5,0-.7-.3-1.4-1.7-2.4-3.5-3.1-5.6,0-.3-.2-.6-.2-.8,0-.2.1-.3.2-.5h.2,0Z"/>
  <path d="m30.4,8.5c.2,0,.4-.1.6-.2.2.3.4.6.6.9.1.1.4,0,.6,0,0-.2,0-.4,0-.6-.1-.3-.4-.5-.5-.7-.3-.4-.2-.7,0-1.1.3-.4.6-.5,1.1-.4.6.2,1.1.6,1.3,1.3-.2,0-.4.2-.5.2-.2-.3-.4-.5-.6-.7-.1-.1-.4,0-.6,0,0,.2,0,.4,0,.6.1.3.4.5.5.7.3.4.3.8,0,1.2-.3.4-.7.5-1.1.3-.7-.2-1.1-.8-1.3-1.5h0Z"/>
  <path d="m38.6,13h-.5c-.1-.3-.2-.6-.4-.9,0-.1-.3-.2-.5-.2,0,.2-.2.4-.1.5,0,.3.2.5.2.8.1.5,0,.9-.5,1.2-.5.2-.9.1-1.3-.2-.5-.5-.7-1.1-.6-1.8h.6c0,.4,0,.7.2,1,0,.2.4.3.6.4,0-.2.2-.4.2-.6,0-.2-.1-.5-.2-.7-.1-.4,0-.8.4-1,.4-.3.8-.3,1.2,0,.5.4.7,1,.7,1.7h0Z"/>
  <path d="m11.8,9.9c.4,0,.7-.1,1-.3.2,0,.2-.4.3-.6-.2,0-.4-.1-.6,0-.3,0-.5.2-.8.3-.4.1-.7,0-1-.3-.3-.4-.3-.7,0-1.1.4-.6.9-.8,1.7-.9,0,.2,0,.4,0,.5-.3.1-.6.2-.9.4-.1,0-.1.3-.2.5.2,0,.4.2.5.1.3,0,.6-.2.8-.3.5-.1.8,0,1.1.4.3.4.2.8,0,1.2-.5.6-1.1.8-1.9.8v-.6h0Z"/>
  <path d="m11.9,37.2c0,.2,0,.3,0,.5-.8.4-1.9-.4-2.1-1.4-.2-1,.6-2,1.6-2.1,1-.1,1.9.7,2,1.8-.2,0-.4,0-.6.1-.4-.9-.8-1.3-1.4-1.2-.5,0-.9.6-.9,1.1s.4,1,1.4,1.1Z"/>
  <path d="m25.2,41.4c-.3,0-.5,0-.7.1-.2-1.2-.4-2.3-.6-3.4.8-.1,1.5-.3,2.3-.4,0,.2,0,.4.2.6-.5,0-1.1.2-1.6.3,0,.3,0,.5,0,.8.5,0,1-.1,1.5-.2,0,.2,0,.4,0,.6-.4,0-.7.2-1.1.2-.3,0-.4.2-.4.5,0,.3,0,.6.1,1h0Z"/>
  <path d="m5.7,24.2h1.4c0,.2,0,.4,0,.7-1.2,0-2.3.2-3.4.3,0-.8-.1-1.5-.2-2.3.2,0,.4,0,.6,0,0,.5.1,1,.2,1.6.3,0,.5,0,.8,0,0-.5,0-1,0-1.5.2,0,.4,0,.6,0,0,.5.1,1,.2,1.5h0Z"/>
  <path d="m19.6,5.2c0,.1,0,.2.1.3,0,0,0,.1,0,.3-.5.1-.9.2-1.5.4,0,.4.2.8.3,1.3-.2,0-.4.1-.7.2-.3-1.1-.5-2.2-.8-3.4.8-.2,1.5-.4,2.3-.5,0,.2.1.4.2.6-.5.1-1,.3-1.6.4,0,.3,0,.5.2.8.5,0,1-.2,1.5-.3h0Z"/>
  <path d="m33.8,11.9c-.3-.2-.4-.4-.6-.6,1.3-.7,1.3-2.1,1.7-3.2.3.2.6.4.5.9-.1.3-.2.7-.3,1,.6.2,1.4-.8,1.9.2-1.1.5-2.5.3-3.2,1.7h0Z"/>
  <path d="m27.3,4.2c1.1,0,.6,1.1,1,1.6.6-.1.9-1.3,1.8-.6-.8.9-2.1,1.4-2.1,2.9-.3-.1-.5-.2-.8-.3.8-1.2.2-2.4.1-3.6Z"/>
  <path d="m39.9,16.4c-.2-.3-.3-.6-.4-.9-.9.4-1.7.7-2.6,1.1,0-.2-.2-.4-.3-.6.9-.4,1.7-.8,2.6-1.2-.1-.3-.2-.6-.4-.9.2,0,.3-.2.5-.3.4.8.7,1.6,1.1,2.5-.2,0-.3.2-.5.3h0Z"/>
  <path d="m20.7,41.5c-.2,0-.5,0-.7,0,0-.9.2-1.9.3-2.8-.3,0-.6,0-.9-.1v-.6c.9,0,1.8.2,2.7.3v.6c-.3,0-.6,0-1,0-.1.9-.2,1.9-.3,2.8h0Z"/>
  <path d="m26.7,4c0,.2,0,.4-.1.6-.3,0-.6,0-1-.1-.2.9-.3,1.8-.5,2.8-.2,0-.4,0-.7,0,.1-.9.3-1.8.4-2.8-.3,0-.6-.1-.9-.2,0-.2,0-.4,0-.6.9.1,1.8.3,2.7.4h0Z"/>
  <path d="m22.6,38.1h.6v3.4c-.2,0-.4,0-.6,0v-3.5Z"/>
  <path d="m28.5,40.6c-.2,0-.4.1-.7.2-.3-1.1-.7-2.2-1-3.3.2,0,.4-.1.7-.2.3,1.1.7,2.2,1,3.3h0Z"/>
  <path d="m19.2,22.8h-.8c.1-.3.2-.5.4-.9.1.3.3.6.4.9Z"/>
  <path d="m29.6,22.7v-1.3c.4.1.7.2,1,.4,0,0,0,.6,0,.6-.3.2-.6.2-1,.3h0Z"/>
</svg>