<?xml version="1.0" encoding="UTF-8"?>
<svg id="uuid-f68e5eee-5905-4983-a419-cc3b2dc76580" data-name="uuid-3147d8eb-336b-424c-84bc-c8ecf46cfcd8" xmlns="http://www.w3.org/2000/svg" viewBox="0 0 45.1 45">
  <path d="m0,21.9c.2-1.4.3-2.8.6-4.2C2.7,8.1,10.8,1,20.6,0c.2,0,.4,0,.6,0h2.9c1.4.2,2.8.4,4.2.8,9.2,2.3,15.9,10.3,16.7,19.7,1,12.2-7.6,22.9-19.8,24.3C12.4,46.4.9,36.7.2,23.7c0-.2,0-.4,0-.6,0-.4,0-.8,0-1.2Zm44.7.7C44.7,10.4,34.9.5,22.8.4,10.5.4.5,10.2.5,22.3s9.8,22.3,22,22.3,22.2-9.8,22.2-22h0Z"/>
  <path d="m38.2,22.5c0,8.7-7,15.6-15.7,15.6s-15.6-7-15.6-15.8,7.1-15.5,15.7-15.5c8.6.1,15.6,7.1,15.6,15.7h0Zm-.6,0c0-8.3-6.7-15-15-15s-15,6.7-15,15,6.8,15.1,15,15c8.2,0,15-6.8,15-15Z"/>
  <path d="m14.8,7.3c-.3.2-.5.3-.7.5-.4-.6-.8-1.2-1.2-1.8h-.1c.1.4.1.8.2,1.3,0,.2-.1.4-.2.5s-.4,0-.5,0c-.4-.2-.7-.5-1.2-.6.4.6.7,1.2,1.2,1.8-.2.2-.4.3-.7.5-.6-1-1.3-2-1.9-2.9,1-1.3,1.7,0,2.5.3.2-.8-.9-2,.8-2.4.5.8,1.1,1.8,1.8,2.8h0Z"/>
  <path d="m39.5,23.7c0-.3.1-.5.1-.8,1.2.1,2.3.2,3.4.4.1.7-.1,1.1-.8,1.3-.5.1-1,.4-1.4.7.6.1,1.3.2,2,.3,0,.3,0,.5-.1.8-1.2-.1-2.3-.3-3.5-.4-.1-1.7,1.6-1.2,2.3-2-.6-.1-1.3-.2-2-.3h0Z"/>
  <path d="m21.1,2.1c.3,0,.5-.1.8-.1.1,1.2.3,2.3.4,3.4-.7.4-1.1.2-1.4-.4-.2-.5-.6-.8-1-1.2.1.6.1,1.3.2,1.9-.3,0-.5.1-.8.1-.1-1.1-.3-2.3-.4-3.4.6-.3,1.1-.2,1.4.4.2.5.6.9,1,1.3,0-.7-.2-1.3-.2-2h0Z"/>
  <path d="m2.7,16.8c.5-1,.6-2.3,1.9-2.5.7-.1,1.4.2,1.8.7.7,1.1-.1,2-.4,3.1-1.1-.4-2.1-.8-3.3-1.3Zm1-.6c.6.3,1.3.5,1.9.8.5-.8.4-1.3-.2-1.6-.7-.4-1.2-.2-1.7.8Z"/>
  <path d="m4.1,22.2c-1.2,0-1.9-.6-1.9-1.7s.7-1.9,1.7-1.9,1.9.7,2,1.7c-.1,1.2-.7,1.9-1.8,1.9h0Zm.1-.9c.4,0,.8-.2.9-.8,0-.5-.5-.9-1.3-.9s-1,.2-1,.8.5.9,1.4.9h0Z"/>
  <path d="m5.9,25c0,1.1-.7,1.7-1.9,1.7s-1.8-.7-1.8-1.9.7-1.7,1.9-1.7,1.8.7,1.8,1.9h0Zm-2.1.8c.8,0,1.4-.4,1.4-.9s-.4-.8-1-.9c-.8,0-1.3.4-1.3.9,0,.7.5.9.9.9Z"/>
  <path d="m39.6,20.5c-.4-.7-.2-1.1.3-1.4.3-.2.4-.5.6-.8l-.2-.2c-.4,0-.8.1-1.2.2-.1-.3-.1-.5-.2-.8,1.1-.2,2.3-.4,3.4-.7.1.5.3.9.3,1.4s-.1,1-.3,1.2c-.3.2-.9.1-1.5.1-.3.3-.7.7-1.2,1h0Zm1.3-2.4c.2.3.4.5.6.7.1,0,.4,0,.4-.1.1-.2.1-.5.1-.8-.4,0-.7,0-1.1.2Z"/>
  <path d="m14.7,40v1.7c-.6-.1-.9-.4-.8-1,.1-.4.1-.9-.5-1.1-.2.3-.4.7-.7,1.1-.3-.2-.5-.3-.8-.4.6-1,1.1-2,1.6-3.1.5.3.9.4,1.3.7.3.3.7.7.7,1s-.4.7-.7,1.1c0,.1,0,0-.1,0h0Zm-1-.8c.4,0,.6.1.9.1s.2-.3.2-.4c-.1-.2-.3-.3-.6-.5-.2.2-.4.4-.5.8h0Z"/>
  <path d="m40.3,29.1c-.2.6-.4,1-.5,1.4-.2-.1-.3-.1-.5-.1-1.2-.5-1.3-.5-1.1-1.4.3-1.1,1-1.8,1.9-1.7,1,.1,1.8.7,1.8,1.6s-.3,1.2-.6,1.8c-.1.2-.5.2-.9.3.3-.6.6-.9.8-1.3.2-.6,0-1.1-.7-1.3-.6-.2-1.1-.1-1.4.5-.1.2,0,.4,0,.6.2,0,.4-.1.6-.1,0-.3.2-.3.6-.3h0Z"/>
  <path d="m5,29.3c-.3-.6-.4-1-.6-1.4.2-.1.3-.2.4-.2,1.3-.6,1.4-.5,1.9.3.6,1.1.5,2-.3,2.6-.9.6-1.9.5-2.5-.2-.3-.4-.4-.9-.6-1.4-.1-.4,0-.7.5-.8.1.4.2.8.3,1.2.3.6.9.8,1.6.4.6-.3.8-.9.5-1.4-.1-.1-.3-.3-.4-.2-.1,0-.2.2-.3.4-.2.2-.3.3-.5.7Z"/>
  <path d="m41.4,14.2c.2.3.3.5.4.8-.8.4-1.5.8-2.2,1-.7.3-1.3,0-1.7-.8s-.3-1.4.4-1.8c.7-.4,1.4-.7,2.2-1.1.2.3.3.5.4.8-.7.3-1.3.6-1.9,1-.3.2-.7.4-.4.9.2.5.6.4,1,.2.5-.3,1.1-.6,1.8-1h0Z"/>
  <path d="m18.7,5.8c-.5.2-.7.4-1.2,0-.2-.2-1.2.2-1.3.4-.2.5-.4.6-.9.7v-3.3c0-.2.4-.4.6-.5.2-.1.5,0,.6.2.7.8,1.4,1.6,2.2,2.5h0Zm-2.6-.4c.3-.1.5-.2.8-.3-.3-.3-.5-.6-.8-1v1.3Z"/>
  <path d="m30.6,7h-1.2v-.3c.9-.7,1.7-1.5,2.6-2.2.1-.1.5,0,.7.1s.4.4.4.5c-.1,1.1-.3,2.2-.5,3.3-.4-.2-.8-.2-.8-.8s-.6-.6-1-.9c0,0-.2.2-.2.3h0Zm.5-.7c.3.2.5.2.8.4.1-.4.1-.8.2-1.3-.4.3-.7.6-1,.9Z"/>
  <path d="m23.6,2c.3.1.6.1.9.2-.1.7-.2,1.4-.3,2-.1.4,0,.8.4.9.6.1.7-.3.7-.7.1-.7.2-1.3.3-2,.3.1.6.1.9.2-.1.8-.2,1.6-.4,2.3-.2.8-.8,1.1-1.7.9-.8-.1-1.3-.6-1.2-1.4.2-.9.3-1.6.4-2.4h0Z"/>
  <path d="m15.6,42.1c.6-.9,1.2-1.9,1.9-2.7.1-.2.5-.2.7-.2s.5.3.6.4c.2,1.1.3,2.2.4,3.3-.5,0-.8-.1-1-.6-.1-.3-1.1-.5-1.3-.3-.6.4-.8.3-1.3.1h0Zm2.4-1.8s-.1,0-.2-.1c-.2.3-.4.6-.6,1,.3.1.5.1.9.2,0-.4,0-.7,0-1.1h0Z"/>
  <path d="m35.1,36c.2.2.3.4.4.5-.3.3-.7.6-1,.9.2.2.3.4.5.6.4-.3.8-.6,1.2-1l.5.5c-.7.6-1.3,1.1-2,1.7-.8-.9-1.5-1.8-2.3-2.7.6-.5,1.2-1,1.9-1.6l.5.5c-.5.4-.8.7-1.2,1.1.1.2.2.3.4.5.4-.4.7-.6,1.1-1h0Z"/>
  <path d="m10.7,35.1c.5.4.9.7,1.3,1.1.6.5.6,1.1.2,1.7-.4.5-1,.5-1.6.1-.2-.1-.4-.3-.6-.5-.3.3-.5.5-.8.9-.2-.2-.5-.3-.7-.6.8-.9,1.5-1.8,2.2-2.7Zm-.3,1.9c.4.1.7.2,1,.3.1,0,.3-.3.3-.4-.1-.3-.3-.5-.5-.8-.4.3-.5.5-.8.9h0Z"/>
  <path d="m36.6,8.5c-.3-.5-.7-1.2-1.4-.9-.4.2-.9.7-.9,1.1-.2.8.6,1,1.2,1.3-.2.5-.5.6-.9.3-.8-.4-1.3-1.2-1.2-2,.1-.7.7-1.4,1.4-1.6.7-.2,1.6.2,2.1,1q.2.5-.3.8h0Z"/>
  <path d="m29.7,5.4c-.4-.1-.8-.3-1.3-.4-.2.5-.3.9-.5,1.4-.3-.1-.5-.2-.9-.3.4-1.1.7-2.2,1.1-3.3.8.3,1.5.5,2.2.8,0,.5-.1.7-.6.5-.1,0-.1-.1-.2-.1-.3,0-.8-.1-.8,0-.2.6.4.5.6.6.5.1.8.2.4.8h0Z"/>
  <path d="m23.2,40.6c-.6-.2-1.3-.6-1.7.1-.2.4-.3,1.1-.1,1.4.3.8,1.1.4,1.7.3.2.5,0,.7-.5.8-.8.2-1.7-.1-2.1-.8-.4-.6-.3-1.7.2-2.3.5-.5,1.5-.8,2.2-.4.2.1.3.4.5.6,0,.2-.2.3-.2.3h0Z"/>
  <path d="m32.2,37.8c-.7.1-1.4.2-1.4,1s.3,1,.7,1.3c.7.5,1.1-.2,1.6-.7.5.4.3.7-.1,1-.6.5-1.4.8-2.2.4-.6-.3-1.1-1.2-1-1.9s.7-1.4,1.6-1.6c.4-.2.7,0,.8.5h0Z"/>
  <path d="m39.9,11.5c-.2.2-.4.3-.6.4-.2-.3-.4-.5-.7-.9-.8.5-1.5,1.1-2.3,1.6-.2-.2-.3-.4-.6-.7.8-.6,1.5-1.1,2.3-1.7-.2-.3-.4-.6-.6-.9.2-.2.4-.3.6-.4.7.8,1.3,1.7,1.9,2.6h0Z"/>
  <path d="m26.3,42.9c-.3.1-.5.1-.9.2-.2-.9-.3-1.8-.5-2.7-.7,0-1.1-.2-1.2-.6.9-.2,1.9-.3,2.8-.4.2,0,.3.2.5.4,0,.1-.1.1-.1.2-.3.1-.6.2-1.1.2.2.8.4,1.7.5,2.7h0Z"/>
  <path d="m39.6,21.9c0-.2,0-.4-.1-.8h3.5v.8h-3.4Z"/>
  <path d="m27.6,39c.3-.1.5-.2.9-.3.4,1.1.7,2.2,1.1,3.3-.3.1-.6.2-.9.3-.4-1.1-.8-2.2-1.1-3.3Z"/>
  <path d="m8.5,11.3c-.2.2-.5.6-.9.6s-.7-.4-.8-.7c-.1-.5.2-.9.8-.9.5,0,.8.3.9,1Z"/>
  <path d="m7.6,32.8c.2.2.6.5.6.9.1.5-.3.8-.8.8s-.8-.3-.8-.8c-.1-.5.2-.8,1-.9h0Z"/>
  <path d="m37.4,34.7c-.2-.3-.6-.7-.6-1s.5-.7.8-.8c.5-.1.9.3.8.8-.1.3-.4.6-.7,1h-.3Z"/>
  <path d="m8.2,22.5c0-7.9,6.4-14.4,14.4-14.4s14.4,6.4,14.4,14.4-6.4,14.4-14.4,14.4c-8,0-14.4-6.5-14.4-14.4h0Zm12.4,4.9v-6.7c.6,1.3,1,2.6,1.4,3.9.2.5.1.9.9.9s.8-.5.9-1c.4-1.3.8-2.6,1.3-3.9h.2v6.7h1.8v-9.9h-1.1c-.9,0-1.4.4-1.7,1.2-.4,1.3-.8,2.5-1.3,4-.5-1.7-1-3.2-1.5-4.7-.1-.2-.3-.5-.5-.6-.7-.1-1.4,0-2.2,0v9.9h1.8v.2Zm-3.8-7.4v-1.6c0-.2-.2-.4-.3-.5-2.2-1.4-5.3-.4-6.2,2-.5,1.3-.5,2.7-.3,4.1.6,2.9,2.8,4.2,5.6,3.3,1.4-.4,1.5-.5,1.5-2v-3.5h-3v1.7c.4,0,.7.1,1.1.1v1.3c.1.5-.2.7-.7.8-1.1.1-2-.4-2.3-1.4-.4-1.1-.4-2.3-.1-3.4.4-1.4,1.5-2,2.8-1.6.6,0,1.2.4,1.9.7h0Zm14.2,4h1.5c1.4,0,2.3-.8,2.6-2,.4-1.7-.1-3.4-1.2-4-.2-.1-.4-.2-.5-.2-1.4-.1-2.9-.2-4.3-.2v9.9h1.9v-3.5h0Z"/>
  <path d="m31,22.1v-2.7c.7,0,1.6-.3,1.9.5.2.5.2,1.2,0,1.7-.3.8-1.1.5-1.9.5h0Z"/>
</svg>