<svg xmlns="http://www.w3.org/2000/svg" width="255.773" height="210.721" viewBox="0 0 255.773 210.721"><g transform="matrix(0.921, -0.391, 0.391, 0.921, 0, 86.119)"><ellipse cx="109.691" cy="67.153" rx="109.691" ry="67.153" transform="translate(0.511 0.528)" fill="#8dac2b"/><path d="M219.893,67.682h-.511c0,18.3-12.129,34.957-31.873,47.052s-47.086,19.591-77.289,19.591-57.545-7.5-77.289-19.591C13.151,102.621,1.022,85.978,1.039,67.682c0-18.3,12.129-34.957,31.873-47.052S80,1.039,110.2,1.039s57.545,7.5,77.289,19.591c19.761,12.1,31.89,28.756,31.873,47.052H220.4c0-18.79-12.436-35.723-32.367-47.938C168.088,7.53,140.576,0,110.2,0S52.316,7.53,32.367,19.744C12.436,31.958,0,48.892,0,67.682S12.436,103.4,32.367,115.619c19.948,12.214,47.461,19.744,77.835,19.744s57.886-7.53,77.835-19.744S220.4,86.472,220.4,67.682h-.511Z" transform="translate(0 0)"/><path d="M95.04,5.911h1.721V.494h-8.91V5.911h1.669l-2.777,6.78-3-6.78h1.908V.494H73.9V5.911h1.329l6.61,12.725-.869,1.755h-2.9v5.247H85.6L95.023,5.911ZM58.823,16.882a11.612,11.612,0,0,0,5.451,1.175,9.915,9.915,0,0,0,5.434-1.4,4.866,4.866,0,0,0,2.215-4.412c0-1.993-.307-2.027-.9-2.794a6.381,6.381,0,0,0-2.76-1.84,36.995,36.995,0,0,0-5.145-1.38c-1.925-.409-3.066-.664-3.407-.767-.409-.1-.613-.324-.613-.681,0-.715.681-1.09,2.044-1.09a6.969,6.969,0,0,1,4.48,1.789h5.042V.477H65.211v.886A10.963,10.963,0,0,0,59.845.153a8.867,8.867,0,0,0-5.094,1.329A4.71,4.71,0,0,0,52.724,5.69c0,1.908.136,1.567.426,2.1A4.862,4.862,0,0,0,54.7,9.421,9.247,9.247,0,0,0,57.75,10.8c1.5.443,2.862.818,4.088,1.158a17.261,17.261,0,0,1,2.828.835.819.819,0,0,1,.511.767c0,.647-.8.971-2.385.971a5.936,5.936,0,0,1-4.361-2.1H53.253V17.9h5.537V16.831ZM35.587,3.663a4.429,4.429,0,0,1,2.061.46,2.325,2.325,0,0,1,1.107,1.158,7.378,7.378,0,0,1,.238,2.232v.511a13.393,13.393,0,0,0-5.315-.869,10.744,10.744,0,0,0-5.928,1.55,4.634,4.634,0,0,0-2.3,3.969,4.564,4.564,0,0,0,1.874,3.782,8.142,8.142,0,0,0,5.485,1.6,11.547,11.547,0,0,0,6.184-1.5v1.175H50.135V12.317h-2.2V7.342a9.814,9.814,0,0,0-.46-3.492,5.211,5.211,0,0,0-1.584-2.027A7.889,7.889,0,0,0,42.384.46,20.417,20.417,0,0,0,39.795.119C38.824.051,37.733,0,36.507,0a20.6,20.6,0,0,0-7.5,1.039A6.632,6.632,0,0,0,25.28,4.617l7,.715a3.775,3.775,0,0,1,3.3-1.652Zm.7,10.579a2.33,2.33,0,0,1-1.669-.681,2.212,2.212,0,0,1-.715-1.7,2.185,2.185,0,0,1,.7-1.669,2.664,2.664,0,0,1,1.874-.647,5.548,5.548,0,0,1,2.521.647v3.152A3.969,3.969,0,0,1,36.285,14.242Zm-24.5-.034c-2.044,0-3.1-1.4-3.134-4.191H22.231q-.2-5.059-3.22-7.513A12.273,12.273,0,0,0,11.056.017,12.034,12.034,0,0,0,3,2.64,8.362,8.362,0,0,0,0,9.216a8.1,8.1,0,0,0,3.032,6.525q3.041,2.5,9.063,2.5c4.02,0,4.446-.46,6.167-1.38a8.461,8.461,0,0,0,2.163-1.584,6.516,6.516,0,0,0,1.38-2.078l-7.376-.9a2.773,2.773,0,0,1-2.675,1.925ZM8.756,7.41A4.577,4.577,0,0,1,9.4,4.923a2.058,2.058,0,0,1,1.857-.988,2.265,2.265,0,0,1,1.891.9,3.7,3.7,0,0,1,.715,2.334c0,.937,0,.256-.034.6H8.807c0-.1-.017-.221-.017-.358Z" transform="translate(60.373 64.666)" fill="#f7eee5"/><path d="M95.551,6.456v.511h2.232V.511H87.851V6.967h1.414l-2.027,4.94-2.2-4.94h1.618V.511H73.882V6.967h1.533L81.77,19.182l-.613,1.244H78.073v6.269h8.381L96.011,6.661l-.46-.221v0l-.46-.221L85.807,25.655H79.112V21.448h2.709l1.124-2.283L76.063,5.928H74.939v-4.4H85.654v4.4H83.473l3.816,8.62,3.526-8.62H88.891v-4.4h7.87v4.4H95.228l-.136.29.46.221ZM59.334,17.427l-.239.46a12.09,12.09,0,0,0,5.69,1.227,10.416,10.416,0,0,0,5.724-1.482,5.37,5.37,0,0,0,2.453-4.838A4.9,4.9,0,0,0,71.94,9.676a7.015,7.015,0,0,0-2.981-1.993,39.067,39.067,0,0,0-5.213-1.414c-1.925-.392-3.083-.664-3.373-.75-.307-.119-.2-.068-.239-.187.017-.187.034-.221.239-.358a2.7,2.7,0,0,1,1.295-.2,5.765,5.765,0,0,1,4.123,1.652l.153.136h5.775V.511h-6.49v1.4h.511L66,1.465A11.474,11.474,0,0,0,60.373.187,9.562,9.562,0,0,0,54.99,1.6a5.229,5.229,0,0,0-2.249,4.651,4.876,4.876,0,0,0,.494,2.334,5.082,5.082,0,0,0,1.7,1.806,10.108,10.108,0,0,0,3.22,1.465c1.5.443,2.862.818,4.088,1.158a16.147,16.147,0,0,1,2.726.8c.239.136.221.17.239.307,0,.085.017.1-.273.256a4.632,4.632,0,0,1-1.584.2,5.4,5.4,0,0,1-3.986-1.942l-.153-.153H53.3v6.508h6.559V17.41h-.511l-.239.46.239-.46H58.84v.545h-4.5V13.509h4.651V13l-.375.358a6.519,6.519,0,0,0,4.736,2.266,5.261,5.261,0,0,0,1.976-.29,1.334,1.334,0,0,0,.92-1.21,1.368,1.368,0,0,0-.8-1.227A18.179,18.179,0,0,0,62.5,12.01c-1.21-.324-2.572-.716-4.054-1.141a8.864,8.864,0,0,1-2.9-1.312,4.469,4.469,0,0,1-1.4-1.448,3.957,3.957,0,0,1-.375-1.874,4.154,4.154,0,0,1,1.789-3.782A8.574,8.574,0,0,1,60.39,1.21,10.407,10.407,0,0,1,65.5,2.351l.767.426V1.533H70.7V5.519H66.165v.511l.358-.375a6.842,6.842,0,0,0-4.838-1.942,3.833,3.833,0,0,0-1.772.324,1.4,1.4,0,0,0-.784,1.278,1.2,1.2,0,0,0,.988,1.175c.375.119,1.5.358,3.441.767a37.375,37.375,0,0,1,5.06,1.363,5.938,5.938,0,0,1,2.538,1.669,3.87,3.87,0,0,1,.8,2.47,4.278,4.278,0,0,1-1.993,3.969A9.478,9.478,0,0,1,64.8,18.057,11.137,11.137,0,0,1,59.59,16.95l-.75-.392v.852h.511ZM36.1,4.208v.511a3.791,3.791,0,0,1,1.823.409A1.778,1.778,0,0,1,38.773,6a7.026,7.026,0,0,1,.2,2.061v.511h.511l.2-.477a13.713,13.713,0,0,0-5.519-.92,10.922,10.922,0,0,0-6.235,1.635,5.173,5.173,0,0,0-2.521,4.4,5.391,5.391,0,0,0,2.044,4.174A8.682,8.682,0,0,0,33.287,19.1a12.274,12.274,0,0,0,6.473-1.567l-.273-.426h-.511V18.79h12.18V12.334h-2.2V7.87a10.381,10.381,0,0,0-.494-3.68,5.987,5.987,0,0,0-1.721-2.232A8.415,8.415,0,0,0,43.014.477a24.857,24.857,0,0,0-2.64-.358C39.386.034,38.278,0,37.052,0a21.28,21.28,0,0,0-7.7,1.073,7.24,7.24,0,0,0-4,3.833l-.29.647,8.024.818.17-.256a3.285,3.285,0,0,1,2.879-1.431V3.646A4.324,4.324,0,0,0,32.4,5.519l.426.29.051-.511-7-.716-.051.511.477.221a6.209,6.209,0,0,1,3.458-3.3,20.143,20.143,0,0,1,7.308-.988c1.21,0,2.283.034,3.237.119a18.86,18.86,0,0,1,2.521.341A7.485,7.485,0,0,1,46.1,2.743a4.757,4.757,0,0,1,1.431,1.823,9.2,9.2,0,0,1,.426,3.288v5.485h2.2v4.4H40.033v-1.6l-.8.511a10.827,10.827,0,0,1-5.911,1.414c-2.521,0-4.054-.528-5.162-1.482a4.307,4.307,0,0,1-1.687-3.39,4.115,4.115,0,0,1,2.061-3.543A9.893,9.893,0,0,1,34.19,8.177a12.857,12.857,0,0,1,5.111.835l.733.324V8.024A7.934,7.934,0,0,0,39.778,5.6a2.835,2.835,0,0,0-1.329-1.431,4.936,4.936,0,0,0-2.317-.528v.511Zm.7,10.579v-.511a1.855,1.855,0,0,1-1.329-.545,1.652,1.652,0,0,1-.545-1.329,1.647,1.647,0,0,1,.528-1.295,2.08,2.08,0,0,1,1.516-.494,4.736,4.736,0,0,1,2.283.579l.239-.46h-.511v3.152h.511l-.341-.392a3.42,3.42,0,0,1-2.368.784v1.039a4.505,4.505,0,0,0,3.049-1.039l.17-.153v-3.7l-.273-.153a5.824,5.824,0,0,0-2.76-.7,3.1,3.1,0,0,0-2.215.784A2.7,2.7,0,0,0,33.9,12.4a2.739,2.739,0,0,0,.869,2.078A2.919,2.919,0,0,0,36.8,15.3Zm-24.5-.034v-.511c-1.738-.051-2.5-.971-2.606-3.68H9.182v.528H23.3v-.528c-.153-3.458-1.278-6.15-3.424-7.9a12.757,12.757,0,0,0-8.3-2.606,12.238,12.238,0,0,0-8.4,2.76A8.954,8.954,0,0,0,0,9.778a8.563,8.563,0,0,0,3.22,6.916c2.164,1.772,5.315,2.623,9.387,2.623a13.365,13.365,0,0,0,6.405-1.448,9.784,9.784,0,0,0,2.3-1.687,7,7,0,0,0,1.482-2.232l.273-.63-8.45-1.039-.153.358a2.242,2.242,0,0,1-2.2,1.6v1.039A3.268,3.268,0,0,0,15.4,13.049l-.477-.2-.068.511,7.376.9.068-.511-.477-.2a6.253,6.253,0,0,1-1.278,1.908,7.94,7.94,0,0,1-2.044,1.5,12.244,12.244,0,0,1-5.928,1.329c-3.952,0-6.848-.818-8.739-2.385A7.5,7.5,0,0,1,.988,9.761,7.792,7.792,0,0,1,3.816,3.577a11.212,11.212,0,0,1,7.717-2.5,11.742,11.742,0,0,1,7.632,2.368c1.874,1.533,2.9,3.867,3.032,7.138h.511v-.528H8.6v.528a5.938,5.938,0,0,0,.92,3.441,3.283,3.283,0,0,0,2.743,1.261V14.77Zm-3.032-6.8h.511a4.14,4.14,0,0,1,.562-2.215,1.513,1.513,0,0,1,1.414-.75,1.728,1.728,0,0,1,1.482.715,3.173,3.173,0,0,1,.6,2.01s0,.221-.034.579l.511.034V7.819H9.284V8.33L9.8,8.279V7.99H8.756a3.019,3.019,0,0,0,.017.409l.051.46H14.8l.034-.477c.017-.358.034-.545.034-.63a4.171,4.171,0,0,0-.818-2.64A2.817,2.817,0,0,0,11.754,4,2.635,2.635,0,0,0,9.472,5.23a5.053,5.053,0,0,0-.715,2.76h.511Z" transform="translate(59.862 64.121)" fill="#020202"/><path d="M131.752,19.488a1.246,1.246,0,0,1-1.21-.545,5.126,5.126,0,0,1-.307-2.181V13.424h3.611V8.007h-3.611v-6.9l-8.944,4.242V8.007h-2.2v5.417h2.2v2.9c0,2.232.034,3.748.119,4.531a5.034,5.034,0,0,0,.29,1.21,5.689,5.689,0,0,0,.613,1.192,5.023,5.023,0,0,0,2.215,1.806,8.157,8.157,0,0,0,3.441.664,11.631,11.631,0,0,0,3.339-.46,8.311,8.311,0,0,0,2.521-1.039v-5.3a5.156,5.156,0,0,1-2.1.545Zm-27.938,4.889a11.611,11.611,0,0,0,5.451,1.175,9.915,9.915,0,0,0,5.434-1.4,4.866,4.866,0,0,0,2.215-4.412c0-1.993-.307-2.027-.9-2.794a6.381,6.381,0,0,0-2.76-1.84,36.986,36.986,0,0,0-5.145-1.38c-1.925-.409-3.066-.664-3.407-.767-.409-.1-.613-.324-.613-.681,0-.715.681-1.09,2.044-1.09a6.969,6.969,0,0,1,4.48,1.789h5.042V7.973H110.2v.886a10.963,10.963,0,0,0-5.366-1.21,8.867,8.867,0,0,0-5.094,1.329,4.71,4.71,0,0,0-2.027,4.208c0,1.908.136,1.567.426,2.1a4.862,4.862,0,0,0,1.55,1.635,9.249,9.249,0,0,0,3.049,1.38c1.5.443,2.862.818,4.088,1.158a17.259,17.259,0,0,1,2.828.835.819.819,0,0,1,.511.767c0,.647-.8.971-2.385.971a5.936,5.936,0,0,1-4.361-2.1H98.243V25.4h5.536V24.327ZM84.087,21.686c-2.044,0-3.1-1.4-3.135-4.191H94.529q-.2-5.06-3.22-7.513A12.273,12.273,0,0,0,83.354,7.5,12.034,12.034,0,0,0,75.3,10.119a8.362,8.362,0,0,0-3,6.576,8.1,8.1,0,0,0,3.032,6.525q3.041,2.5,9.063,2.5c4.02,0,4.446-.46,6.167-1.38a8.462,8.462,0,0,0,2.163-1.584,6.517,6.517,0,0,0,1.38-2.078l-7.376-.9A2.773,2.773,0,0,1,84.053,21.7Zm-3.032-6.8A4.577,4.577,0,0,1,81.7,12.4a2.058,2.058,0,0,1,1.857-.988,2.265,2.265,0,0,1,1.891.9,3.7,3.7,0,0,1,.716,2.334c0,.937,0,.256-.034.6H81.105c0-.1-.017-.221-.017-.358ZM49.488,32.572c1.124.17,2.129.29,3,.358s1.857.1,2.981.1a24.786,24.786,0,0,0,6-.579,9.315,9.315,0,0,0,3.782-1.806,6.289,6.289,0,0,0,2.1-2.913,16.344,16.344,0,0,0,.562-4.872V13.407h2.146V7.99H58.993V9.1a10.957,10.957,0,0,0-5.673-1.414,10.775,10.775,0,0,0-6.712,2.4,8.137,8.137,0,0,0-2.794,6.49,7.226,7.226,0,0,0,2.692,6.065,9.864,9.864,0,0,0,6.508,2.2,12.1,12.1,0,0,0,6-1.346,6.7,6.7,0,0,1-.358,2.47,3.328,3.328,0,0,1-1.687,1.516,8.034,8.034,0,0,1-3.612.664,14.835,14.835,0,0,1-5.588-.869l-2.453,4.378a22.133,22.133,0,0,0,4.174.971Zm4.174-18.688a2.635,2.635,0,0,1,2.317-1.158,2.594,2.594,0,0,1,2.249,1.107,4.567,4.567,0,0,1,.818,2.828,4.161,4.161,0,0,1-.767,2.64,2.7,2.7,0,0,1-2.334,1.09,2.63,2.63,0,0,1-2.283-1.073,4.253,4.253,0,0,1-.8-2.623A4.993,4.993,0,0,1,53.661,13.884ZM31.192,5.366a7.3,7.3,0,0,0,3.526.767A6.357,6.357,0,0,0,38.159,5.3,2.494,2.494,0,0,0,39.5,3.083,2.542,2.542,0,0,0,38.21.886,6.019,6.019,0,0,0,34.752,0a6.756,6.756,0,0,0-3.526.852A2.555,2.555,0,0,0,29.795,3.1a2.545,2.545,0,0,0,1.4,2.283ZM40.97,19.778h-1.5V7.956H28.756v5.417h1.772v6.405H28.756V25.2H40.97V19.778Zm-17.018,0V.477H12.811V5.894h2.2V9.063A10.053,10.053,0,0,0,9.54,7.649a11.287,11.287,0,0,0-6.95,2.4A8.956,8.956,0,0,0,0,16.95c0,2.981.937,4.889,2.811,6.371a10.1,10.1,0,0,0,6.456,2.215,10.4,10.4,0,0,0,5.758-1.482v1.158H26.2V19.8H23.969Zm-9.727-.324a2.823,2.823,0,0,1-2.2.937,2.609,2.609,0,0,1-2.215-1.073,4.514,4.514,0,0,1-.75-2.675c0-2.623,1.005-3.935,3.032-3.935s1.721.358,2.215,1.073a4.662,4.662,0,0,1,.75,2.709,4.8,4.8,0,0,1-.835,2.947Z" transform="translate(41.566 87.34)" fill="#f7eee5"/><path d="M132.3,20v-.511c-.528,0-.681-.136-.75-.273a4.854,4.854,0,0,1-.238-1.942V14.446h3.611V7.99h-3.612V.784l-9.966,4.736V7.973h-2.2v6.456h2.2v2.385a45.8,45.8,0,0,0,.136,4.583,7.445,7.445,0,0,0,.307,1.346,7.05,7.05,0,0,0,.647,1.295,5.551,5.551,0,0,0,2.453,2.01,8.73,8.73,0,0,0,3.663.7,13.32,13.32,0,0,0,3.475-.477,8.834,8.834,0,0,0,2.675-1.107l.221-.153V18.637l-.733.324a4.765,4.765,0,0,1-1.891.511v1.039a5.753,5.753,0,0,0,2.317-.6l-.2-.477H133.9v5.3h.511l-.29-.426a7.834,7.834,0,0,1-2.368.954,12.913,12.913,0,0,1-3.2.443,7.673,7.673,0,0,1-3.237-.613,4.561,4.561,0,0,1-2.01-1.635,5.384,5.384,0,0,1-.545-1.09,4.819,4.819,0,0,1-.256-1.107c-.085-.733-.119-2.232-.119-4.463V13.39h-2.2v-4.4h2.2V6.15l7.9-3.765V8.978H133.9v4.4h-3.612V17.24a5.63,5.63,0,0,0,.358,2.436,1.758,1.758,0,0,0,1.669.818v-.511Zm-27.938,4.889-.238.46a12.09,12.09,0,0,0,5.69,1.227,10.416,10.416,0,0,0,5.724-1.482,5.37,5.37,0,0,0,2.453-4.838,4.9,4.9,0,0,0-1.022-3.117,7.014,7.014,0,0,0-2.981-1.993,39.069,39.069,0,0,0-5.213-1.414c-1.925-.392-3.083-.664-3.373-.75-.307-.119-.2-.068-.238-.187.017-.187.034-.221.238-.358a2.7,2.7,0,0,1,1.295-.2,5.765,5.765,0,0,1,4.123,1.652l.153.136h5.775V7.973h-6.49v1.4h.511l.255-.443A11.474,11.474,0,0,0,105.4,7.649a9.561,9.561,0,0,0-5.383,1.414,5.228,5.228,0,0,0-2.249,4.651,4.876,4.876,0,0,0,.494,2.334,5.082,5.082,0,0,0,1.7,1.806,10.109,10.109,0,0,0,3.22,1.465c1.5.443,2.862.818,4.088,1.158a16.15,16.15,0,0,1,2.726.8c.238.136.221.17.238.307,0,.085.017.1-.273.256a4.631,4.631,0,0,1-1.584.2,5.4,5.4,0,0,1-3.986-1.942l-.153-.153H98.328v6.508h6.559V24.872h-.511l-.238.46.238-.46h-.511v.545h-4.5V20.971h4.651v-.511l-.375.358a6.519,6.519,0,0,0,4.736,2.266,5.261,5.261,0,0,0,1.976-.29,1.334,1.334,0,0,0,.92-1.21,1.368,1.368,0,0,0-.8-1.227,18.175,18.175,0,0,0-2.947-.886c-1.209-.324-2.572-.716-4.054-1.141a8.864,8.864,0,0,1-2.9-1.312,4.469,4.469,0,0,1-1.4-1.448,3.957,3.957,0,0,1-.375-1.874,4.154,4.154,0,0,1,1.789-3.782,8.574,8.574,0,0,1,4.821-1.244,10.407,10.407,0,0,1,5.111,1.141l.767.426V8.995h4.429v3.986H111.19v.511l.358-.375a6.842,6.842,0,0,0-4.838-1.942,3.833,3.833,0,0,0-1.772.324,1.4,1.4,0,0,0-.784,1.278,1.2,1.2,0,0,0,.988,1.175c.375.119,1.5.358,3.441.767a37.387,37.387,0,0,1,5.06,1.363,5.938,5.938,0,0,1,2.538,1.669,3.87,3.87,0,0,1,.8,2.47,4.278,4.278,0,0,1-1.993,3.969,9.478,9.478,0,0,1-5.162,1.329,11.136,11.136,0,0,1-5.213-1.107l-.75-.392v.852h.511ZM84.632,22.2v-.511c-1.738-.051-2.5-.971-2.606-3.68h-.511v.528H95.637v-.528c-.153-3.458-1.278-6.15-3.424-7.9a12.757,12.757,0,0,0-8.3-2.606,12.238,12.238,0,0,0-8.4,2.76,8.954,8.954,0,0,0-3.186,6.967,8.563,8.563,0,0,0,3.22,6.916c2.164,1.772,5.315,2.623,9.386,2.623a13.365,13.365,0,0,0,6.405-1.448,9.783,9.783,0,0,0,2.3-1.686A7,7,0,0,0,95.126,21.4l.273-.63-8.45-1.039-.153.358a2.243,2.243,0,0,1-2.2,1.6v1.039a3.268,3.268,0,0,0,3.135-2.232l-.477-.2-.068.511,7.376.9.068-.511-.477-.2A6.253,6.253,0,0,1,92.877,22.9a7.939,7.939,0,0,1-2.044,1.5A12.244,12.244,0,0,1,84.9,25.723c-3.952,0-6.848-.818-8.739-2.385a7.5,7.5,0,0,1-2.845-6.133,7.792,7.792,0,0,1,2.828-6.184,11.212,11.212,0,0,1,7.717-2.5A11.742,11.742,0,0,1,91.5,10.886c1.874,1.533,2.9,3.867,3.032,7.138h.511V17.5H80.935v.528a5.938,5.938,0,0,0,.92,3.441A3.283,3.283,0,0,0,84.6,22.725v-.511ZM81.6,15.4h.511a4.14,4.14,0,0,1,.562-2.215,1.513,1.513,0,0,1,1.414-.75,1.728,1.728,0,0,1,1.482.716,3.173,3.173,0,0,1,.6,2.01s0,.221-.034.579l.511.034v-.511H81.616v.511l.511-.051v-.29H81.088a3.018,3.018,0,0,0,.017.409l.051.46h5.979l.034-.477c.017-.358.034-.545.034-.63a4.171,4.171,0,0,0-.818-2.64,2.817,2.817,0,0,0-2.3-1.107A2.635,2.635,0,0,0,81.8,12.674a5.052,5.052,0,0,0-.715,2.76H81.6ZM50.033,33.083l-.068.511c1.141.17,2.146.29,3.032.358s1.891.1,3.015.1a24.984,24.984,0,0,0,6.116-.6,9.578,9.578,0,0,0,3.986-1.925,6.645,6.645,0,0,0,2.249-3.152,16.544,16.544,0,0,0,.6-5.042V14.395h2.146V7.938h-12.1V9.557h.511l.256-.443a11.486,11.486,0,0,0-5.928-1.5A10.411,10.411,0,0,0,46.8,10.136a8.6,8.6,0,0,0-2.964,6.882,7.905,7.905,0,0,0,2.879,6.456,10.338,10.338,0,0,0,6.831,2.317,13.669,13.669,0,0,0,6.218-1.4l-.238-.46h-.511a6.3,6.3,0,0,1-.324,2.283,2.729,2.729,0,0,1-1.431,1.244,7.582,7.582,0,0,1-3.373.613A14.19,14.19,0,0,1,48.5,27.24l-.426-.17L45.11,32.35l.545.221a21.4,21.4,0,0,0,4.293,1.005l.085-.511.085-.511a21.233,21.233,0,0,1-4.071-.954l-.187.477.443.255,2.453-4.378-.443-.256-.2.477a15.321,15.321,0,0,0,5.775.9,8.5,8.5,0,0,0,3.833-.715,3.73,3.73,0,0,0,1.925-1.772,7.392,7.392,0,0,0,.392-2.675v-.835l-.75.375a12.554,12.554,0,0,1-5.758,1.295,9.358,9.358,0,0,1-6.184-2.078A6.9,6.9,0,0,1,44.837,17a7.607,7.607,0,0,1,2.606-6.1A9.465,9.465,0,0,1,53.832,8.62a10.691,10.691,0,0,1,5.417,1.346l.784.46V8.944H70.049v4.4H67.9V23.3a15.426,15.426,0,0,1-.545,4.7,5.779,5.779,0,0,1-1.925,2.675A8.843,8.843,0,0,1,61.838,32.4a24.222,24.222,0,0,1-5.86.579,19.282,19.282,0,0,1-2.93-.1q-1.278-.1-2.964-.358l-.068.511Zm4.174-18.688.426.29a2.146,2.146,0,0,1,1.891-.937,2.12,2.12,0,0,1,1.823.9,4.071,4.071,0,0,1,.715,2.521,3.926,3.926,0,0,1-.664,2.351,2.129,2.129,0,0,1-1.908.869,2.1,2.1,0,0,1-1.857-.852,3.644,3.644,0,0,1-.7-2.317,4.08,4.08,0,0,1,.715-2.5l-.426-.29-.426-.29a5.194,5.194,0,0,0-.886,3.1,4.738,4.738,0,0,0,.9,2.947,3.528,3.528,0,0,0,5.434-.034,4.933,4.933,0,0,0,.852-2.947,5.065,5.065,0,0,0-.92-3.135,3.382,3.382,0,0,0-5.4.068l.426.29ZM31.737,5.877l-.256.46a7.828,7.828,0,0,0,3.765.835,7.061,7.061,0,0,0,3.714-.9,3,3,0,0,0,1.6-2.658A3.183,3.183,0,0,0,39.045.988,6.659,6.659,0,0,0,35.28,0,7.361,7.361,0,0,0,31.5.92a3.041,3.041,0,0,0-1.687,2.709,2.941,2.941,0,0,0,1.669,2.726l.238-.46.238-.46a1.9,1.9,0,0,1-1.124-1.823,2,2,0,0,1,1.192-1.806,6.214,6.214,0,0,1,3.254-.784,5.612,5.612,0,0,1,3.169.8,2.126,2.126,0,0,1,1.073,1.772,1.967,1.967,0,0,1-1.107,1.789,6.034,6.034,0,0,1-3.186.767,6.751,6.751,0,0,1-3.271-.7l-.238.46Zm9.778,14.412v-.511h-.971V7.955H28.79v6.456h1.772v5.366H28.79v6.456H42.026V19.778h-.511v.511H41V25.2H29.829V20.8H31.6V13.373H29.829v-4.4h9.693V20.8h2.01v-.511h0Zm-17.018,0h.511V.46H12.828V6.916h2.2v2.64h.511l.273-.443a10.643,10.643,0,0,0-5.741-1.5A10.377,10.377,0,0,0,2.76,10.153,9.528,9.528,0,0,0,0,17.427,8.181,8.181,0,0,0,3,24.19a10.67,10.67,0,0,0,6.78,2.334,11.5,11.5,0,0,0,6.014-1.55l-.256-.443h-.511V26.2H27.24V19.744H24.48v.511h0v.511H26.2v4.4H16.047v-1.55l-.784.46a10.487,10.487,0,0,1-5.5,1.4,9.577,9.577,0,0,1-6.133-2.112,7.085,7.085,0,0,1-2.606-5.962,8.443,8.443,0,0,1,2.436-6.525A9.349,9.349,0,0,1,10.051,8.6a9.578,9.578,0,0,1,5.2,1.346l.784.494V5.826h-2.2v-4.4H23.952v19.3h.511v-.511Zm-9.727-.324-.375-.341a2.264,2.264,0,0,1-1.823.767,1.933,1.933,0,0,1-1.789-.835,3.981,3.981,0,0,1-.664-2.368c.068-2.521.784-3.356,2.521-3.407a1.974,1.974,0,0,1,1.806.852,4.091,4.091,0,0,1,.647,2.4,3.914,3.914,0,0,1-.7,2.606l.392.341.392.341a4.829,4.829,0,0,0,.971-3.288,5.249,5.249,0,0,0-.835-3,3.1,3.1,0,0,0-2.64-1.295,3.285,3.285,0,0,0-2.692,1.175,5.229,5.229,0,0,0-.869,3.254,5.063,5.063,0,0,0,.835,2.964,3,3,0,0,0,2.64,1.278,3.4,3.4,0,0,0,2.589-1.107l-.375-.341Z" transform="translate(41.021 86.829)" fill="#020202"/><path d="M12.211,1.618S10.32-1.022,5.482.443-1.3,13.679.9,21.158c2.181,7.479,7.427,11.6,13.765,7.836L12.228,1.635Z" transform="translate(87.565 27.751)" fill="#fffef4"/><path d="M12.742,2.146l.426-.307A5.429,5.429,0,0,0,8.756,0a10.243,10.243,0,0,0-2.9.46c-2.01.63-3.424,2.658-4.4,5.247A27.255,27.255,0,0,0,0,14.77a25.271,25.271,0,0,0,.92,7.036,16.978,16.978,0,0,0,3.714,6.916,8.082,8.082,0,0,0,5.894,2.709,9.45,9.45,0,0,0,4.906-1.5.523.523,0,0,0,.256-.494L13.253,2.078l-.1-.256-.426.307-.511.051L14.65,29.539l.511-.051-.273-.443a8.524,8.524,0,0,1-4.378,1.346,7.056,7.056,0,0,1-5.145-2.385,15.772,15.772,0,0,1-3.475-6.49,24.869,24.869,0,0,1-.869-6.746,26.206,26.206,0,0,1,1.4-8.705c.9-2.47,2.232-4.191,3.714-4.617a8.861,8.861,0,0,1,2.589-.426,5.084,5.084,0,0,1,2.777.733,3.854,3.854,0,0,1,.613.477l.136.153.034.034h0l.17-.119-.17.119h0l.17-.119-.17.119.426-.307-.511.051.511-.051Z" transform="translate(87.034 27.223)" fill="#020202"/><path d="M1.869,35.748s-3.407-6.2-1.022-11.925c3.9-9.386,9.216-6.235,10.8-13.867,1.278-6.133-.17-11.771,5.162-9.4,4.77,2.112,7.87,13.731,1.84,18.092,0,0,14.514-1.21,17.972,2.9s.494,9.472.494,9.472,3.458,5.162-1.073,8.518c0,0,1.363,6.15-4.344,7.99a13.457,13.457,0,0,1-7.683.187S21.8,49.376,14.85,49.989s-14.19-4.361-13-14.242Z" transform="translate(94.908 8.442)" fill="#fffef4"/><path d="M2.368,36.217l.46-.256-.068-.136A16.935,16.935,0,0,1,1.022,28.7a10.993,10.993,0,0,1,.8-4.225A14.111,14.111,0,0,1,7.9,17.121a12.413,12.413,0,0,0,2.828-2.3,9.162,9.162,0,0,0,1.925-4.293c.545-2.623.6-5.145.886-6.933a5.431,5.431,0,0,1,.6-2.01,1.182,1.182,0,0,1,1.107-.6,4.992,4.992,0,0,1,1.874.511,7.845,7.845,0,0,1,3.424,3.833,14.68,14.68,0,0,1,1.448,6.286c0,2.845-.92,5.5-3.117,7.087a.534.534,0,0,0-.187.6.5.5,0,0,0,.528.341s.494-.034,1.329-.085c.835-.034,1.993-.085,3.339-.085a43.386,43.386,0,0,1,7.444.562c2.436.426,4.514,1.21,5.434,2.334a6.6,6.6,0,0,1,1.55,4.4,9.793,9.793,0,0,1-.562,3.186,9.338,9.338,0,0,1-.392.971l-.119.256-.034.085a.564.564,0,0,0,.017.545l.051.068A7.634,7.634,0,0,1,38.4,35.638a4.71,4.71,0,0,1-2.129,3.986.524.524,0,0,0-.2.528v.1a6.29,6.29,0,0,1,.136,1.38,6.965,6.965,0,0,1-.733,3.22,5.584,5.584,0,0,1-3.39,2.692,13.22,13.22,0,0,1-4.037.63,13.787,13.787,0,0,1-2.419-.221c-.29-.051-.511-.119-.664-.153l-.17-.051h-.051a.479.479,0,0,0-.477.068l.068.1-.068-.1h0l.068.1-.068-.1c-.051.034-2.232,1.6-8.892,2.181-.358.034-.733.051-1.09.051a11.7,11.7,0,0,1-7.921-2.964,11.494,11.494,0,0,1-3.56-8.722,16.761,16.761,0,0,1,.119-2.027l-.068-.307-.46.256-.511-.068a19.107,19.107,0,0,0-.136,2.146,12.441,12.441,0,0,0,3.884,9.472,12.765,12.765,0,0,0,8.62,3.237c.392,0,.8-.017,1.193-.051,7.019-.613,9.335-2.317,9.421-2.385l-.307-.409-.17.494a12.935,12.935,0,0,0,3.646.494,14.371,14.371,0,0,0,4.361-.681,6.589,6.589,0,0,0,3.986-3.186,7.871,7.871,0,0,0,.852-3.714,9.45,9.45,0,0,0-.153-1.7l-.511.119.307.409a5.855,5.855,0,0,0,2.555-4.821,8.673,8.673,0,0,0-1.346-4.4l-.426.29.46.256A11.292,11.292,0,0,0,39.352,26.8a7.617,7.617,0,0,0-1.806-5.06c-1.261-1.465-3.526-2.215-6.048-2.675a44.246,44.246,0,0,0-7.632-.579c-2.726,0-4.736.17-4.753.17l.051.511.307.426a9.446,9.446,0,0,0,3.56-7.921,15.748,15.748,0,0,0-1.55-6.746A8.808,8.808,0,0,0,17.546.6,5.817,5.817,0,0,0,15.264,0a2.227,2.227,0,0,0-1.976,1.073,9.48,9.48,0,0,0-.937,3.935,48.179,48.179,0,0,1-.681,5.366,8.214,8.214,0,0,1-1.7,3.833c-1.073,1.278-2.555,1.959-4.208,3.22A15.1,15.1,0,0,0,.886,24.139,11.955,11.955,0,0,0,0,28.773a17.65,17.65,0,0,0,1.942,7.751l.46-.256L1.891,36.2l.511.068Z" transform="translate(94.41 7.973)" fill="#020202"/><path d="M2.623.061A5.289,5.289,0,0,0,1.312,1.083,4.568,4.568,0,0,0,0,4.268,5.3,5.3,0,0,0,.273,5.9,5.954,5.954,0,0,0,3.918,9.243a17.53,17.53,0,0,0,6.593,1.175A23.151,23.151,0,0,0,17.1,9.447a.517.517,0,0,0-.307-.988,22.226,22.226,0,0,1-6.3.92,16.689,16.689,0,0,1-6.2-1.09A5,5,0,0,1,1.244,5.58a4.5,4.5,0,0,1-.221-1.329,3.5,3.5,0,0,1,1.022-2.47,4.959,4.959,0,0,1,.715-.613L3,1.015,3.066.98h0a.514.514,0,0,0,.221-.7.514.514,0,0,0-.7-.221h.034Z" transform="translate(114.001 39.019)" fill="#020202"/><path d="M5.8,9.591S-.6,7.785.046,3.152C.421.443,2.261,0,2.261,0" transform="translate(113.137 46.558)" fill="#fffef4"/><path d="M6.439,9.583H6.388A12.423,12.423,0,0,1,3.424,8.135,6.364,6.364,0,0,1,1.738,6.517,3.817,3.817,0,0,1,1.022,4.3a3.4,3.4,0,0,1,.034-.579A3.508,3.508,0,0,1,2.146,1.44a1.824,1.824,0,0,1,.545-.358l.153-.068h.034v0h0v0A.533.533,0,0,0,3.271.4.533.533,0,0,0,2.658.009,2.931,2.931,0,0,0,1.465.673,4.544,4.544,0,0,0,.051,3.586,5.053,5.053,0,0,0,0,4.3,4.927,4.927,0,0,0,1.005,7.266a10.876,10.876,0,0,0,5.179,3.322A.512.512,0,0,0,6.456,9.6h0Z" transform="translate(112.638 46.072)" fill="#020202"/><path d="M15.707.273s-.341-.034-.852-.034a9.6,9.6,0,0,0-2.4.29A5.449,5.449,0,0,0,9.829,1.976l.375.358.273-.443A13.138,13.138,0,0,0,4.617,0,4.406,4.406,0,0,0,.988,1.635,4.261,4.261,0,0,0,0,4.31,5.017,5.017,0,0,0,2.521,8.381,15.467,15.467,0,0,0,9.949,10.6c.681.051,1.312.085,1.891.085,3.134,0,5.025-.733,6.133-1.516A3.641,3.641,0,0,0,19.4,7.479a.512.512,0,0,0-.971-.324h0a2.971,2.971,0,0,1-1.226,1.278,9.788,9.788,0,0,1-5.349,1.21,17.517,17.517,0,0,1-1.823-.085A14.441,14.441,0,0,1,3.1,7.53,4.021,4.021,0,0,1,1.039,4.31a3.243,3.243,0,0,1,.767-2.027A3.438,3.438,0,0,1,4.634,1.039a9.612,9.612,0,0,1,3.594.869c.511.221.937.443,1.244.6a3.5,3.5,0,0,1,.341.2l.119.068a.5.5,0,0,0,.647-.085,4.415,4.415,0,0,1,2.146-1.158,8.964,8.964,0,0,1,2.146-.256H15.6a.5.5,0,0,0,.562-.46.5.5,0,0,0-.46-.562h0Z" transform="translate(113.541 31.243)" fill="#020202"/><path d="M8.569,0S13.168,11.584,0,17.853" transform="translate(104.989 27.103)" fill="#fffef4"/><path d="M8.609.735,8.643.8a13.69,13.69,0,0,1,.716,4.429,12.6,12.6,0,0,1-1.7,6.405A16.125,16.125,0,0,1,.3,17.923a.5.5,0,0,0-.238.681.5.5,0,0,0,.681.238,17.122,17.122,0,0,0,7.8-6.695,13.535,13.535,0,0,0,1.84-6.933A14.183,14.183,0,0,0,9.563.326.512.512,0,0,0,8.609.7h0Z" transform="translate(104.472 26.556)" fill="#020202"/><path d="M9.5,5.779,14.593,7.4a.216.216,0,0,1,0,.409L9.516,9.1l-.136.136L7.4,14.774a.207.207,0,0,1-.392,0l-1.669-5.6-.136-.136L.147,7.5a.216.216,0,0,1,0-.409l5.179-1.38.136-.136L7.353.141a.207.207,0,0,1,.392,0L9.4,5.66l.136.136Z" transform="translate(119.697 9.467)" fill="#fffef4"/><path d="M10.034,6.338l-.153.494,5.094,1.618.1-.29H14.77a.323.323,0,0,0,.221.29l.085-.29h0l-.068-.29a.343.343,0,0,0-.238.29h.307l-.068-.29L9.8,9.2l-.239.221-.1.085L7.427,15.162l.29.1v-.307l-.29.2.29.1v0l.29-.085a.323.323,0,0,0-.29-.221v.307l.29-.085L6.3,9.439,6.065,9.2l-.085-.085L.8,7.531l-.085.29h.307A.323.323,0,0,0,.8,7.531l-.085.29h0L.8,8.11a.3.3,0,0,0,.221-.29H.716L.8,8.11,6.1,6.7l.238-.221.1-.085L8.364.836l-.29-.1V1.04a.332.332,0,0,0,.29-.2l-.29-.1v0l-.29.085a.323.323,0,0,0,.29.221V.734l-.29.085L9.472,6.457l.221.238.085.085.119.034.153-.494.375-.358-.051-.051-1.6-5.4A.725.725,0,0,0,7.393.5L5.554,5.81,5.5,5.861l.358.375-.136-.494L.545,7.122A.737.737,0,0,0,0,7.82a.757.757,0,0,0,.511.7l4.94,1.5.051.051.375-.358-.494.153,1.669,5.6a.729.729,0,0,0,1.38.034l1.925-5.417.051-.051-.341-.375.136.494,5.077-1.295a.717.717,0,0,0,.545-.7.757.757,0,0,0-.511-.7L10.221,5.844l-.153.494.375-.358-.375.358Z" transform="translate(119.162 8.909)" fill="#020202"/><path d="M6.333,3.731l2.947.937a.3.3,0,0,1-.017.579L6.333,6l-.2.187L4.936,9.506a.307.307,0,0,1-.579,0L3.352,6.133l-.2-.2L.217,5.042a.313.313,0,0,1,0-.6l3-.8.2-.187L4.544.2a.307.307,0,0,1,.579,0l.988,3.3.2.2Z" transform="translate(82.881 17.938)" fill="#fffef4"/><path d="M6.814,4.26l-.153.494,2.947.937.068-.2h-.2l.153.2.068-.2h0l-.051-.2-.153.2h.2l-.051-.2-3.049.784-.307.273-.1.085L4.957,9.864l.2.068v-.2l-.2.136.2.068v0l.2-.068-.2-.153v.2l.2-.068L4.327,6.355l-.29-.29L3.952,5.98.9,5.06l-.068.2h.2l-.153-.2-.068.2h0l.051.2.153-.2h-.2l.051.2,3.117-.835.307-.29.1-.085L5.571.887l-.2-.068v.2l.2-.136-.2-.068v0l-.2.068.2.153v-.2L5.162.9,6.184,4.328l.29.29.085.085.119.034.153-.494.375-.358-.1-.119L6.15.58A.805.805,0,0,0,5.366,0a.857.857,0,0,0-.784.545L3.492,3.681H3.475c0,.017-2.862.784-2.862.784a.843.843,0,0,0-.613.8.811.811,0,0,0,.579.784L3.373,6.9H3.39c0,.017.971,3.271.971,3.271a.828.828,0,0,0,.784.6.811.811,0,0,0,.767-.545l1.141-3.2H7.07c0-.017,2.811-.733,2.811-.733a.823.823,0,0,0,.613-.8A.842.842,0,0,0,9.915,4.7L6.967,3.766l-.153.494L7.189,3.9l-.375.358Z" transform="translate(82.4 17.409)" fill="#020202"/></g></svg>