<svg xmlns="http://www.w3.org/2000/svg" width="201.519" height="208.967" viewBox="0 0 201.519 208.967"><g transform="translate(0 146.951) rotate(-65)"><path d="M161.293,71.7C161.5,85.332,147.2,95.451,141,106.558c-6.405,11.465-7.7,28.875-18.96,35.621-10.92,6.542-26.711-.375-40.34-.17s-29.216,7.6-40.323,1.4C29.916,137,28.094,119.641,21.347,108.381,14.823,97.479.224,87.8,0,74.174-.2,60.546,14.09,50.427,20.291,39.32,26.7,27.855,27.991,10.445,39.252,3.7c10.92-6.542,26.711.375,40.34.17s29.216-7.6,40.323-1.4C131.379,8.878,133.2,26.237,139.948,37.5,146.489,48.417,161.089,58.076,161.293,71.7Z" transform="translate(0.424 0.424)" fill="#ffe7ca"/><path d="M161.717,72.128h-.426v.29c0,6.593-3.458,12.385-7.751,17.938-4.276,5.554-9.369,10.817-12.487,16.405-3.237,5.792-5.162,13.032-7.683,19.625-2.521,6.61-5.622,12.538-11.124,15.826a22.063,22.063,0,0,1-11.618,2.76c-8.739,0-18.722-2.981-27.887-3h-.613c-9.727.153-20.323,3.884-29.505,3.867a21.387,21.387,0,0,1-10.6-2.419c-5.588-3.117-8.875-8.944-11.6-15.485-2.726-6.525-4.872-13.7-8.279-19.386-3.322-5.519-8.62-10.681-13.083-16.132C4.583,86.949.954,81.208.869,74.547v-.29c0-6.593,3.458-12.385,7.751-17.938C12.9,50.765,17.989,45.5,21.107,39.914c3.237-5.792,5.162-13.032,7.683-19.625,2.521-6.61,5.622-12.538,11.124-15.826A22.063,22.063,0,0,1,51.532,1.7c8.739,0,18.722,2.981,27.887,3h.613C89.759,4.548,100.355.818,109.537.835a21.387,21.387,0,0,1,10.6,2.419c5.588,3.117,8.875,8.944,11.6,15.485,2.726,6.525,4.872,13.7,8.279,19.386,3.322,5.519,8.62,10.681,13.083,16.132,4.48,5.468,8.109,11.209,8.194,17.87h.852c-.1-6.984-3.884-12.879-8.4-18.4-4.514-5.5-9.8-10.647-13.015-16.03-3.339-5.554-5.485-12.708-8.211-19.284-2.743-6.576-6.1-12.606-11.976-15.894a22.087,22.087,0,0,0-11-2.521c-9.4,0-20,3.731-29.522,3.867H79.4c-8.995,0-18.96-2.981-27.887-3A22.957,22.957,0,0,0,39.454,3.748C33.679,7.206,30.51,13.356,27.972,20c-2.538,6.661-4.463,13.85-7.632,19.523-3.032,5.451-8.092,10.7-12.419,16.3C3.611,61.43,0,67.392,0,74.308v.307c.119,6.985,3.884,12.879,8.4,18.4,4.514,5.5,9.8,10.647,13.015,16.03,3.339,5.554,5.485,12.708,8.211,19.284,2.743,6.576,6.1,12.606,11.976,15.894a22.13,22.13,0,0,0,11,2.521c9.4,0,20-3.731,29.522-3.867h.6c8.995,0,18.96,2.981,27.887,3a22.957,22.957,0,0,0,12.061-2.879c5.775-3.458,8.944-9.608,11.482-16.252,2.538-6.661,4.463-13.867,7.632-19.523,3.032-5.451,8.092-10.7,12.419-16.3,4.327-5.588,7.921-11.567,7.921-18.466v-.307H161.7Z" transform="translate(0 0)"/><circle cx="34.974" cy="34.974" r="34.974" transform="translate(31.977 73.356) rotate(-45)" fill="#fcb042"/><path d="M70.356,34.854H69.93V35.4A34.556,34.556,0,0,1,35.911,69.93h-.545A34.556,34.556,0,0,1,.835,35.911v-.545A34.556,34.556,0,0,1,34.854.835H35.4A34.556,34.556,0,0,1,69.93,34.854h.852A35.385,35.385,0,0,0,35.4,0h-.545A35.385,35.385,0,0,0,0,35.382v.545A35.385,35.385,0,0,0,35.382,70.782h.545A35.385,35.385,0,0,0,70.782,35.4v-.545Z" transform="translate(46.064 37.972)"/><path d="M4.131.844A2.219,2.219,0,0,0,2.547.009a2.244,2.244,0,0,0-1.7.545A2.28,2.28,0,0,0,.009,2.121,2.219,2.219,0,0,0,.554,3.842a2.229,2.229,0,0,0,1.567.818,2.175,2.175,0,0,0,1.738-.545,2.309,2.309,0,0,0,.8-1.567A2.323,2.323,0,0,0,4.131.844Z" transform="translate(131.709 76.378)" fill="#020202"/><path d="M2.368,9.4,4.31,7.461l-.579-.6L5.417,5.2l1.21,1.227L5.145,7.87l1.5,1.516L8.126,7.921,9.25,9.08,7.564,10.749l-.6-.6L5.025,12.078l2.351,2.385,7.1-7.053L12.725,5.639l-.6.579L8.3,2.351l.562-.579L7.1,0,0,7.019Z" transform="translate(111.343 104.359)" fill="#020202"/><path d="M3.832,3.238a1.7,1.7,0,0,1,1.55-.153A4.055,4.055,0,0,1,6.949,4.89a4.451,4.451,0,0,1,.767,2.3,1.649,1.649,0,0,1-.954,1.278,2.113,2.113,0,0,1-1.244.307,2.716,2.716,0,0,1-1.261-.46L2.06,9.558l1.806,3.186,2.2-1.244-.358-.63a4.5,4.5,0,0,0,3.1-.664,5.559,5.559,0,0,0,2.675-3.237,5.076,5.076,0,0,0-.545-4.225A5.489,5.489,0,0,0,8.806.6,4.348,4.348,0,0,0,5.927.052,8.453,8.453,0,0,0,2.844,1.125,6.331,6.331,0,0,0,1.089,2.556,4.3,4.3,0,0,0,.135,4.464,4.3,4.3,0,0,0,.084,6.372,9.845,9.845,0,0,0,1.123,8.706l4.071-2.3L4.224,4.669,3.287,5.2a1.25,1.25,0,0,1,.528-1.925Z" transform="translate(101.277 114.664)" fill="#020202"/><path d="M4.469,2.573A1.714,1.714,0,0,1,6,2.862,3.971,3.971,0,0,1,7.007,5.026a4.593,4.593,0,0,1,.1,2.419,1.686,1.686,0,0,1-1.278.971,2.3,2.3,0,0,1-1.278-.051,2.473,2.473,0,0,1-1.073-.8l-2.453.579.835,3.56,2.453-.579-.17-.716a4.543,4.543,0,0,0,3.169.221,5.6,5.6,0,0,0,3.475-2.351,5.12,5.12,0,0,0,.664-4.208,5.489,5.489,0,0,0-1.448-2.658A4.377,4.377,0,0,0,7.382.085a8.617,8.617,0,0,0-3.271.17,6.871,6.871,0,0,0-2.078.869A4.407,4.407,0,0,0,.585,2.692,4.354,4.354,0,0,0,.006,4.5,9.855,9.855,0,0,0,.346,7.036L4.912,5.963l-.46-1.942-1.039.239a1.252,1.252,0,0,1,1.056-1.7Z" transform="translate(87.42 120.287)" fill="#020202"/><path d="M0,3.237l5.366.017V0H0Z" transform="translate(78.857 123.864)" fill="#020202"/><path d="M5.349,2.47l1.192.221L6.218,4.378,4.446,4.037l-.409,2.1,1.772.341L5.5,8.058,3.2,7.615l.187-.92L.647,6.167,0,9.557,10.136,11.5l.46-2.47-1.107-.2,1.022-5.366,1.09.2.46-2.453L5.826,0Z" transform="translate(64.837 120.73)" fill="#020202"/><path d="M7.7,5.128l.715.341L7.633,7.053,6.474,6.491,6.3,1.652,2.914,0,1.807,2.249l.681.324.256,2.777a2.791,2.791,0,0,0-1.414.375A2.664,2.664,0,0,0,.308,6.865,2.71,2.71,0,0,0,.1,8.858a3.271,3.271,0,0,0,1.158,1.7,6.494,6.494,0,0,0,.716.494q.409.256.971.562c.392.2.8.426,1.261.647l5.111,2.5,1.107-2.249-.767-.375,2.4-4.906.767.375,1.107-2.249-5.111-2.5L7.718,5.111ZM5.588,10.409c-.545-.273-.92-.477-1.107-.6a.959.959,0,0,1-.409-.528A.886.886,0,0,1,4.14,8.6a.9.9,0,0,1,.494-.477.938.938,0,0,1,.647-.017,10.427,10.427,0,0,1,1.107.477l.409.2-.869,1.789-.324-.153Z" transform="translate(51.412 114.222)" fill="#020202"/><path d="M4.719,2.5,6.763,4.327l.562-.63L9.114,5.281,7.973,6.559,6.422,5.2,5.008,6.78,6.576,8.16,5.5,9.369,3.714,7.785l.562-.63L2.215,5.332,0,7.853,7.5,14.48l1.669-1.891-.63-.545,3.611-4.088.613.528L14.412,6.61,6.933,0Z" transform="translate(38.687 106.59)" fill="#020202"/><path d="M5.911,1.874,7.444,4.157l.7-.477L9.472,5.656,8.058,6.61,6.9,4.889,5.128,6.1,6.286,7.8l-1.329.9L3.629,6.746l.7-.477L2.777,3.986,0,5.86l5.622,8.3,2.061-1.414-.46-.681,4.531-3.066.443.681,2.078-1.4L8.671,0Z" transform="translate(29.846 96.659)" fill="#020202"/><path d="M.509,3.813a2.148,2.148,0,0,0,1.584.852,2.166,2.166,0,0,0,1.7-.528,2.263,2.263,0,0,0,.852-1.55A2.257,2.257,0,0,0,4.137.849,2.213,2.213,0,0,0,2.587.015,2.222,2.222,0,0,0,.832.543a2.364,2.364,0,0,0-.818,1.55A2.239,2.239,0,0,0,.526,3.8Z" transform="translate(25.777 65.997)" fill="#020202"/><path d="M12.146,5.111,10.17,7.036l.6.6L9.046,9.284,7.853,8.058l1.5-1.448L7.87,5.094l-1.5,1.431L5.264,5.366l1.7-1.652.579.613L9.523,2.4,7.189,0,0,6.967,1.755,8.756l.6-.562,3.8,3.918-.6.562L7.308,14.48,14.48,7.53Z" transform="translate(36.711 28.432)" fill="#020202"/><path d="M7.872,9.489a1.691,1.691,0,0,1-1.55.136A4.115,4.115,0,0,1,4.771,7.8a4.433,4.433,0,0,1-.75-2.3,1.711,1.711,0,0,1,.971-1.278,2.228,2.228,0,0,1,1.244-.29,2.458,2.458,0,0,1,1.244.477L9.695,3.2,7.94,0,5.725,1.21l.358.647a4.543,4.543,0,0,0-3.117.63A5.443,5.443,0,0,0,.257,5.69,5.1,5.1,0,0,0,.751,9.932a5.428,5.428,0,0,0,2.112,2.181,4.345,4.345,0,0,0,2.879.579,8.245,8.245,0,0,0,3.1-1.039,6.311,6.311,0,0,0,1.772-1.4,4.082,4.082,0,0,0,.971-1.908,4.32,4.32,0,0,0,.068-1.908,9.309,9.309,0,0,0-1.022-2.351L6.526,6.337,7.48,8.075l.937-.511a1.247,1.247,0,0,1-.562,1.925Z" transform="translate(49.64 20.017)" fill="#020202"/><path d="M7.145,9.1A1.7,1.7,0,0,1,5.612,8.79,3.935,3.935,0,0,1,4.641,6.61a4.331,4.331,0,0,1-.068-2.419,1.7,1.7,0,0,1,1.278-.954A2.155,2.155,0,0,1,7.128,3.3a2.511,2.511,0,0,1,1.056.818l2.453-.545L9.837,0,7.384.545l.153.715a4.438,4.438,0,0,0-3.169-.256A5.48,5.48,0,0,0,.876,3.322,5.12,5.12,0,0,0,.161,7.53,5.431,5.431,0,0,0,1.575,10.2a4.33,4.33,0,0,0,2.606,1.363,8.558,8.558,0,0,0,3.271-.119,6.7,6.7,0,0,0,2.1-.852,4.4,4.4,0,0,0,1.465-1.55,4.326,4.326,0,0,0,.6-1.806A9.675,9.675,0,0,0,11.285,4.7L6.72,5.724l.426,1.942,1.039-.238A1.249,1.249,0,0,1,7.111,9.114Z" transform="translate(63.636 15.621)" fill="#020202"/><rect width="3.237" height="5.383" transform="translate(78.434 23.816) rotate(-89.9)" fill="#020202"/><path d="M6.746,9.1,5.554,8.841l.341-1.669,1.772.358.426-2.078L6.32,5.077l.324-1.567,2.3.46-.187.92,2.726.562.7-3.373L2.078,0,1.567,2.453l1.124.238L1.584,8.041.511,7.819,0,10.272,6.235,11.55Z" transform="translate(85.773 15.553)" fill="#020202"/><path d="M6.2,9.676l-.7-.358.8-1.584,1.158.579.119,4.838,3.373,1.7,1.124-2.232-.664-.341-.221-2.794a2.613,2.613,0,0,0,1.414-.358,2.759,2.759,0,0,0,1.039-1.124,2.715,2.715,0,0,0,.221-1.993,3.083,3.083,0,0,0-1.141-1.7A6.5,6.5,0,0,0,12.01,3.8c-.256-.17-.579-.358-.971-.579-.375-.2-.8-.426-1.261-.664L4.7,0,3.577,2.232l.767.375L1.891,7.479,1.124,7.1,0,9.335l5.077,2.555L6.2,9.659ZM8.381,4.429a9.386,9.386,0,0,1,1.107.613.91.91,0,0,1,.392.528.888.888,0,0,1-.085.681.863.863,0,0,1-.494.46.852.852,0,0,1-.647,0,9.633,9.633,0,0,1-1.107-.494l-.409-.2.9-1.789.324.17Z" transform="translate(97.323 18.943)" fill="#020202"/><path d="M9.659,11.993,7.615,10.136l-.562.63-1.772-1.6L6.439,7.9l1.533,1.38L9.4,7.7,7.87,6.32,8.944,5.128l1.772,1.584-.562.63,2.027,1.84,2.249-2.487L7.019,0,5.332,1.857l.613.545L2.283,6.456l-.6-.545L0,7.768l7.41,6.695Z" transform="translate(109.452 27.069)" fill="#020202"/><path d="M8.3,12.265,6.8,9.983l-.716.46L4.77,8.45l1.448-.937L7.359,9.233,9.131,8.075,7.99,6.337l1.346-.886,1.312,1.993-.7.46,1.5,2.3,2.811-1.857L8.739,0l-2.1,1.38.46.7-4.548,3L2.1,4.4,0,5.775l5.5,8.347Z" transform="translate(118.328 37.444)" fill="#020202"/><path d="M14.433,11.435a7.588,7.588,0,0,1-7.938,4.259c-2.777-.256-4.412-1.942-5.366-4.4A19.072,19.072,0,0,1,.276,1.435,1.994,1.994,0,0,1,1.418.021,1.891,1.891,0,0,1,3.087.753a8.921,8.921,0,0,1,.7,2.879c.2,1.755.187,3.526.477,5.264a3.3,3.3,0,0,0,3.032,2.692c1.772.29,2.9.119,3.8-1.431.8-1.38,2.1-6.525,2.351-7.513.29-1.141,1.192-1.84,2.01-1.618A1.8,1.8,0,0,1,16.767,3.07a39.669,39.669,0,0,1-2.334,8.381Z" transform="translate(73.708 66.724)" fill="#0a0a0a"/><path d="M0,3.909A13.123,13.123,0,0,1,.426,1.9C.835.842,1.431-.095,2.777.008a2.736,2.736,0,0,1,2.64,1.908,6.341,6.341,0,0,1-.545,4.94,2.443,2.443,0,0,1-2.64,1.516A2.367,2.367,0,0,1,.221,6.328a16.03,16.03,0,0,1-.2-2.436Z" transform="translate(59.028 64.148)" fill="#0a0a0a"/><path d="M0,3.909A13.123,13.123,0,0,1,.426,1.9C.835.842,1.431-.095,2.777.008a2.736,2.736,0,0,1,2.64,1.908,6.341,6.341,0,0,1-.545,4.94,2.443,2.443,0,0,1-2.64,1.516A2.367,2.367,0,0,1,.221,6.328a16.026,16.026,0,0,1-.2-2.436Z" transform="translate(97.8 69.037)" fill="#0a0a0a"/></g></svg>