<svg xmlns="http://www.w3.org/2000/svg" width="182.357" height="184.658" viewBox="0 0 182.357 184.658"><g transform="matrix(0.951, -0.309, 0.309, 0.951, -6.001, 46.025)"><path d="M120.093,34.633S119.531,0,58.646,0,.011,35.74.011,35.74s19.557,28.483,66.472,32.4S120.11,34.633,120.11,34.633Z" transform="translate(20.227 46.831)" fill="#050505"/><path d="M152.858,0l-22.5,1.789c-1.09,1.09-2.2,2.129-3.322,3.134A76.434,76.434,0,0,1,23.168,2.453L22.5,1.789,0,0S6.78,60.442,74.155,60.663H74.5C141.888,60.459,152.858,0,152.858,0Z" transform="translate(0.681 73.968)" fill="#d64027"/><path d="M153.438.545,153.4.034,130.712,1.84l-.136.136c-1.09,1.09-2.181,2.112-3.3,3.1A75.81,75.81,0,0,1,76.949,24.088,75.305,75.305,0,0,1,24.105,2.623l-.664-.664L23.3,1.823,0,0,.068.613A75.887,75.887,0,0,0,11.959,31.09c10.17,15.247,28.926,30.544,62.758,30.63v-.511h-.511v.528h.681c0-.017.153,0,.153,0h.528v-.528h-.511v.511c33.849-.1,53.627-15.383,64.854-30.613a81.722,81.722,0,0,0,14-30.459L154.034,0l-.664.051.034.511-.494-.085s-.034.221-.136.664a82.163,82.163,0,0,1-15.86,32.2C125.5,47.375,106.488,60.612,75.058,60.731h-.511v.528h.511v-.511h-.341v.511h.528v-.511h-.511c-33.526-.119-51.856-15.161-61.924-30.187A77.221,77.221,0,0,1,3.169,9.9,68.989,68.989,0,0,1,1.5,3.1c-.153-.818-.256-1.465-.324-1.891C1.107.767,1.09.545,1.09.545L.579.6l-.034.511L23.049,2.9l.034-.511-.358.358c.221.221.443.443.681.664A76.4,76.4,0,0,0,76.966,25.161a76.9,76.9,0,0,0,51-19.267c1.141-1.005,2.249-2.061,3.356-3.152l-.358-.358L131,2.9l22.5-1.789L153.472.6l-.494-.085.494.085Z" transform="translate(0.102 73.423)"/><path d="M1.766,22.924a48.138,48.138,0,0,0,23.781,3.969,3,3,0,0,0,2.692-2.964V2.976A2.968,2.968,0,0,0,25.019.012C18.887.54,5.633,3.521.165,19.211a3,3,0,0,0,1.618,3.714Z" transform="translate(45.78 51.862)" fill="#fffef4"/><path d="M26.166,23.013A48.1,48.1,0,0,1,2.981,26.9,3.325,3.325,0,0,1,0,23.592V3.32A3.307,3.307,0,0,1,3.594.015c6.252.613,18.96,3.748,24.378,18.875a3.31,3.31,0,0,1-1.806,4.14Z" transform="translate(80.39 51.909)" fill="#fffef4"/><path d="M109.691.017C87.221-.511,76.506,15.008,76.506,15.008S65.808-.511,43.321.017C20.868.545,0,54.053,0,54.053S28.892,62.077,47.631,48.7C61.77,38.6,72.247,36.745,76.523,36.439c4.293.307,14.753,2.163,28.892,12.265,18.722,13.373,47.631,5.349,47.631,5.349S132.177.545,109.708,0Z" transform="translate(0.681 19.915)" fill="#d64027"/><path d="M110.372.511V0h-1.124A41.732,41.732,0,0,0,84.785,7.6a34.378,34.378,0,0,0-8.007,7.632l.426.29.426-.29A34.378,34.378,0,0,0,69.624,7.6,41.732,41.732,0,0,0,45.161,0H44.019C38.193.153,32.572,3.68,27.41,8.824c-7.751,7.717-14.531,19.08-19.4,28.551C3.152,46.813.2,54.36.2,54.377l-.2.528.545.153a81.67,81.67,0,0,0,19.591,2.4c9.1,0,19.829-1.669,28.466-7.836C62.673,39.573,73.031,37.75,77.238,37.444l-.034-.511-.034.511c4.191.307,14.565,2.129,28.636,12.18,8.654,6.167,19.369,7.836,28.466,7.836a81.67,81.67,0,0,0,19.591-2.4l.545-.153-.2-.528a203.724,203.724,0,0,0-13.288-26.9C136.9,20.732,132.16,13.969,127,8.824,121.837,3.7,116.232.153,110.389,0V.511l-.017.511c5.417.119,10.834,3.475,15.911,8.518,7.615,7.564,14.361,18.875,19.216,28.3,2.419,4.7,4.361,8.944,5.707,11.993.664,1.533,1.192,2.76,1.533,3.612s.528,1.312.528,1.312l.477-.187-.136-.494s-.119.034-.375.1a82.228,82.228,0,0,1-18.943,2.266c-8.995,0-19.488-1.652-27.87-7.649C92.212,38.636,81.633,36.745,77.255,36.422h-.068c-4.378.307-14.94,2.215-29.165,12.368-8.381,6-18.892,7.649-27.87,7.649A82.661,82.661,0,0,1,6.439,55.246c-1.738-.29-3.152-.6-4.123-.818-.477-.119-.852-.2-1.107-.273s-.375-.1-.375-.1L.7,54.547l.477.187s.324-.835.937-2.283A194.429,194.429,0,0,1,17.512,23,77.712,77.712,0,0,1,30.067,7.734c4.514-4.037,9.25-6.61,13.986-6.712h1.124a40.578,40.578,0,0,1,23.867,7.41,36.754,36.754,0,0,1,5.843,5.094c.647.7,1.124,1.261,1.448,1.669q.23.307.358.46l.119.153.426.613.426-.613.119-.153a35.631,35.631,0,0,1,8.654-7.9A40.743,40.743,0,0,1,109.3,1.039h1.124V.528Z" transform="translate(0 19.421)"/><path d="M0,6.161S22.248-5.968,38.841,3.81c0,0,30.238-15.23,45.927,20,15.69,35.246-7.921,54.888-33.645,51.6C2.93,69.277,33.883,24.934,0,6.144Z" transform="translate(39.267 81.844)" fill="#e37f6e"/><path d="M.664,6.814l.324.6.119-.068c1.244-.664,11.84-6.013,23.356-6.013a28.7,28.7,0,0,1,14.7,3.714.673.673,0,0,0,.647.017l.068-.034A36.368,36.368,0,0,1,54.547,1.857,28.677,28.677,0,0,1,70.169,6.3c5.315,3.373,10.477,9.08,14.633,18.432,3.475,7.785,4.991,14.787,4.991,20.9,0,9.659-3.765,17.138-9.676,22.248C74.189,73,66.063,75.739,57.324,75.739a45.683,45.683,0,0,1-5.451-.341c-11.942-1.533-18.841-5.383-23.117-10.528C25.553,61,23.8,56.336,22.589,51.259c-1.806-7.615-2.368-16.15-4.872-24.156S10.681,11.584.988,6.218l-.324.6.324.6-.324-.6-.324.6a32.113,32.113,0,0,1,15.2,17.529c3.867,10.17,3.748,21.856,7.189,31.7a26.853,26.853,0,0,0,8.944,12.913c4.548,3.509,10.92,6.031,20.034,7.206a44.892,44.892,0,0,0,5.622.358c9.029,0,17.478-2.828,23.7-8.177S91.173,55.672,91.173,45.655c0-6.337-1.567-13.526-5.111-21.448-4.242-9.54-9.591-15.485-15.144-19.029A30.044,30.044,0,0,0,54.564.511,37.2,37.2,0,0,0,39.215,3.867l.307.613.341-.579A30.025,30.025,0,0,0,24.48,0C11.754,0,.409,6.218.358,6.235a.676.676,0,0,0,0,1.193l.324-.6Z" transform="translate(38.602 81.191)" fill="#3d342d"/><path d="M0,0S8.654,5.213,13.356,19.386" transform="translate(78.107 85.671)" fill="#e37f6e"/><path d="M.349,1.269h0C.775,1.541,8.9,6.754,13.4,20.3a.684.684,0,1,0,1.295-.443C9.923,5.494,1.133.144,1.03.093A.692.692,0,0,0,.093.332a.692.692,0,0,0,.238.937H.349Z" transform="translate(77.4 84.982)" fill="#3d342d"/><path d="M32.071,19.4l17.393,4.855a.707.707,0,0,1,0,1.363L32.446,30.647a.716.716,0,0,0-.477.46L25.99,50.05a.706.706,0,0,1-1.346,0l-6.32-18.773a.708.708,0,0,0-.494-.46L.522,26.235a.713.713,0,0,1-.034-1.363L17.8,19.557a.691.691,0,0,0,.46-.46L23.963.494A.709.709,0,0,1,25.308.477L31.56,18.926a.716.716,0,0,0,.477.46Z" transform="translate(98.249 0.682)" fill="#fffef4"/><path d="M32.691,20.085l-.187.664L49.9,25.6h0v.034h0L32.878,30.664a1.442,1.442,0,0,0-.937.92L25.962,50.528h-.034V50.51l-6.32-18.773a1.406,1.406,0,0,0-.954-.9L1.346,26.252h0v-.034h0L18.654,20.9a1.382,1.382,0,0,0,.92-.92L25.28,1.38h.034V1.4l6.252,18.449a1.393,1.393,0,0,0,.937.886l.187-.664.187-.664h0L26.626.938A1.365,1.365,0,0,0,25.315,0a1.382,1.382,0,0,0-1.329.988l-5.707,18.6h0L.971,24.923a1.37,1.37,0,0,0-.733.528,1.377,1.377,0,0,0-.238.8,1.448,1.448,0,0,0,.256.818,1.393,1.393,0,0,0,.767.528L18.33,32.18h.017l6.32,18.773a1.365,1.365,0,0,0,1.312.937,1.4,1.4,0,0,0,1.329-.971l5.979-18.943h0l17.018-5.042a1.413,1.413,0,0,0,.75-.528,1.374,1.374,0,0,0-.767-2.129L32.9,19.421l-.187.664Z" transform="translate(97.63 0)" fill="#3d342d"/><path d="M8.041,17a57.715,57.715,0,0,1-6.184.068c-.239-1.363-.358-2.044-.579-3.407h.954c-.273-1.618-.426-2.436-.7-4.071-.375.034-.562.034-.954.068C.341,8.3.221,7.615,0,6.252c.375-.051.562-.068.937-.119L.886,5.877A6.493,6.493,0,0,1,.9,3.049,3.727,3.727,0,0,1,1.925,1.278,5.092,5.092,0,0,1,4.463.256C5.008.153,5.554.068,6.082,0c.221,1.295.341,1.942.562,3.254a7.628,7.628,0,0,0-.971.068,1.341,1.341,0,0,0-.784.341,1.131,1.131,0,0,0-.29.664,5.924,5.924,0,0,0,.136,1.329c.579-.085.852-.119,1.431-.2.256,1.448.375,2.181.63,3.628-.579.068-.869.1-1.448.153.29,1.7.443,2.538.733,4.242.511-.034.767-.051,1.278-.1.256,1.448.375,2.181.63,3.628Z" transform="translate(79.027 108.993)" fill="#f7eee5"/><path d="M8.535,17.58,8.5,17.069c-1.465.085-2.47.119-3.56.119-.767,0-1.567-.017-2.572-.051v.511c-.017,0,.494-.085.494-.085-.238-1.363-.358-2.044-.579-3.407l-.511.085v.511H3.339l-.1-.6c-.273-1.618-.426-2.436-.7-4.072l-.085-.46-.46.034c-.375.034-.562.034-.937.068l.034.511.511-.085c-.239-1.363-.358-2.044-.579-3.407l-.511.085.051.511c.375-.051.562-.068.937-.119l.528-.068-.136-.784A9.155,9.155,0,0,1,1.755,4.94a3.936,3.936,0,0,1,.153-1.175,3.446,3.446,0,0,1,.886-1.55,4.515,4.515,0,0,1,2.283-.886c.545-.1,1.073-.187,1.6-.256L6.61.562,6.1.647c.221,1.295.341,1.942.562,3.254l.511-.085V3.3a6.47,6.47,0,0,0-1.056.085,1.9,1.9,0,0,0-1.073.494,1.57,1.57,0,0,0-.426.971v.187A7.074,7.074,0,0,0,4.753,6.32l.085.494.494-.068c.579-.085.869-.119,1.431-.2l-.068-.511-.511.085c.256,1.448.375,2.181.63,3.629l.511-.085-.051-.511c-.579.068-.869.1-1.431.153L5.3,9.352l.085.545c.29,1.7.443,2.538.733,4.242l.085.46.46-.034c.511-.034.784-.051,1.295-.1l-.034-.511-.511.085c.256,1.448.375,2.18.63,3.628l.511-.085-.034-.511.034.511.511-.085c-.256-1.448-.375-2.181-.63-3.629l-.085-.46-.46.034c-.511.034-.767.068-1.278.1l.034.511.511-.085c-.29-1.7-.443-2.538-.733-4.242l-.511.085.051.511c.579-.068.869-.1,1.448-.153l.545-.068L7.87,9.574C7.615,8.126,7.5,7.393,7.24,5.945l-.085-.494-.494.068c-.579.085-.852.119-1.431.2l.068.511.511-.085A7.627,7.627,0,0,1,5.69,5.042v-.1a.538.538,0,0,1,.153-.358A.754.754,0,0,1,6.337,4.4a6.312,6.312,0,0,1,.9-.068h.6l-.1-.6C7.513,2.436,7.393,1.789,7.172.477L7.087,0,6.61.068C6.065.136,5.5.221,4.957.324A5.535,5.535,0,0,0,2.163,1.482a4.383,4.383,0,0,0-1.158,2.01A5.65,5.65,0,0,0,.818,4.957a9.213,9.213,0,0,0,.153,1.6l.051.256.511-.085-.068-.511c-.375.051-.562.068-.937.119L0,6.405l.085.528C.324,8.3.443,8.978.664,10.34l.085.46.46-.034c.375-.034.579-.034.954-.068l-.034-.511-.511.085c.273,1.618.426,2.436.7,4.071l.511-.085v-.511H1.261l.1.6c.239,1.363.358,2.044.579,3.407l.068.409h.409c1.005.051,1.823.068,2.606.068,1.107,0,2.163-.034,3.629-.119l.579-.034-.1-.562L8.62,17.6Z" transform="translate(78.533 108.414)" fill="#020202"/><path d="M1.55,5.434c-.358.051-.545.068-.9.119C.392,4.088.256,3.356,0,1.891c1.908-.29,2.862-.443,4.77-.767.409,2.266.63,3.39,1.039,5.656a7,7,0,0,0,.528,1.891.732.732,0,0,0,.8.392,1.7,1.7,0,0,0,1.124-.75C7.973,6.78,7.836,6.031,7.547,4.5l-1.022.17c-.273-1.5-.409-2.249-.7-3.748C7.785.579,8.756.392,10.7,0c.63,3.271.954,4.906,1.584,8.16.358-.085.545-.119.9-.2.29,1.5.443,2.249.732,3.731-1.925.46-2.9.647-4.855.971-.119-.613-.17-.9-.29-1.516a4.091,4.091,0,0,1-2.9,2.2A2.617,2.617,0,0,1,3.646,12.4,8.415,8.415,0,0,1,2.027,8.16c-.2-1.107-.29-1.669-.494-2.777Z" transform="translate(86.029 112.417)" fill="#f7eee5"/><path d="M2.163,5.962,2.1,5.451c-.358.051-.545.068-.9.119l.068.511L1.772,6c-.256-1.465-.392-2.2-.647-3.663l-.511.085.068.511c1.908-.29,2.879-.443,4.787-.767l-.085-.511-.494.085C5.3,4,5.519,5.128,5.928,7.393a7.636,7.636,0,0,0,.579,2.044,1.523,1.523,0,0,0,.443.494,1.244,1.244,0,0,0,.647.187h.238a2.2,2.2,0,0,0,1.448-.988l.119-.17-.034-.2c-.29-1.533-.426-2.283-.716-3.816l-.085-.494-.494.085L7.053,4.7l.085.511.494-.085c-.273-1.5-.409-2.249-.7-3.748l-.494.085.085.511c1.959-.341,2.947-.528,4.889-.92l-.1-.494-.494.1c.63,3.271.954,4.906,1.584,8.16l.1.511.511-.1c.358-.085.545-.119.9-.2L13.8,8.535l-.494.1c.29,1.5.443,2.249.733,3.731l.494-.1-.119-.494c-1.925.443-2.879.647-4.821.971l.085.511.494-.1c-.119-.613-.17-.9-.29-1.516L9.642,10.34l-.7,1.124a3.607,3.607,0,0,1-2.521,1.959h-.2a2.227,2.227,0,0,1-1.6-.784A7.968,7.968,0,0,1,3.134,8.671C2.93,7.564,2.845,7,2.64,5.894l-.085-.477-.477.068L2.146,6l-.511.085c.2,1.107.29,1.669.494,2.777.392,2.163.92,3.646,1.755,4.5a3.256,3.256,0,0,0,2.334,1.107h.324A4.668,4.668,0,0,0,9.812,12.01l-.426-.273-.494.1c.119.613.17.9.29,1.516l.085.494.494-.085c1.959-.324,2.947-.528,4.889-.971l.477-.119-.1-.477c-.29-1.5-.443-2.249-.733-3.731l-.1-.511-.511.119c-.358.085-.545.119-.9.2l.1.494.494-.1c-.63-3.271-.954-4.906-1.584-8.16L11.686,0l-.511.1C9.233.494,8.262.681,6.3,1.022l-.511.085.1.511c.273,1.5.409,2.249.7,3.748l.085.494.494-.085c.409-.068.63-.1,1.039-.187l-.085-.511-.494.1c.29,1.533.426,2.283.715,3.816l.494-.1L8.415,8.6a1.157,1.157,0,0,1-.784.545H7.564l-.1-.017-.1-.119a6.844,6.844,0,0,1-.477-1.738c-.409-2.266-.63-3.39-1.039-5.656l-.085-.494-.494.085c-1.908.324-2.845.477-4.753.767L0,2.061l.085.511c.256,1.465.392,2.2.647,3.663l.085.477.477-.051c.358-.051.545-.068.92-.119l-.068-.511-.511.085.511-.085Z" transform="translate(85.415 111.889)" fill="#020202"/><path d="M8.194,12.22a61.05,61.05,0,0,1-5.86,1.721c-.29-1.482-.443-2.232-.733-3.731.392-.085.579-.136.954-.239C2.2,8.217,2.027,7.348,1.686,5.593c-.375.085-.579.136-.954.221C.443,4.333.29,3.583,0,2.084c1.925-.409,2.879-.613,4.77-1.056.119.579.187.869.307,1.465A4.248,4.248,0,0,1,7.734.091a2.321,2.321,0,0,1,2.351.63A7.236,7.236,0,0,1,11.55,4.23c.238,1.107.358,1.669.579,2.794.341-.119.511-.187.835-.324.29,1.346.426,2.027.7,3.373-1.772.784-2.675,1.141-4.514,1.789-.426-2.01-.63-3.015-1.056-5.025a8.366,8.366,0,0,0-.63-2.129A.7.7,0,0,0,6.61,4.4a1.7,1.7,0,0,0-.954.9c.307,1.448.443,2.181.75,3.629.426-.119.63-.187,1.056-.324.29,1.431.443,2.164.75,3.594Z" transform="translate(98.669 109.941)" fill="#f7eee5"/><path d="M8.824,12.743l-.17-.477c-2.3.784-3.441,1.124-5.809,1.721l.119.494.494-.1c-.29-1.482-.443-2.232-.733-3.731l-.494.1.119.494c.392-.085.579-.136.971-.239l.477-.119-.1-.477c-.358-1.755-.528-2.623-.869-4.378l-.1-.511-.511.119c-.375.085-.579.136-.954.221l.119.494.494-.1c-.29-1.482-.443-2.232-.733-3.731l-.494.1.1.494C2.675,2.709,3.628,2.5,5.536,2.061l-.119-.494-.494.1c.119.579.187.869.307,1.465l.29,1.4.664-1.278A3.725,3.725,0,0,1,8.5,1.124a2.331,2.331,0,0,1,.579-.068,1.7,1.7,0,0,1,1.278.562,6.8,6.8,0,0,1,1.329,3.254c.238,1.107.358,1.669.579,2.794l.119.579.562-.2c.341-.119.511-.187.835-.324l-.187-.477-.494.1c.29,1.346.426,2.027.7,3.373l.494-.1-.2-.46c-1.772.767-2.64,1.124-4.48,1.772l.17.477.494-.1c-.426-2.01-.63-3.015-1.056-5.025-.119-.562-.221-1.022-.341-1.4a4.123,4.123,0,0,0-.358-.886A1.158,1.158,0,0,0,7.5,4.412a1.549,1.549,0,0,0-.392.051A2.286,2.286,0,0,0,5.843,5.588l-.1.17.034.187c.307,1.448.443,2.181.75,3.629l.119.545.528-.153c.426-.119.647-.187,1.056-.324l-.153-.494-.494.1c.29,1.431.443,2.164.75,3.594l.494-.1-.17-.477.17.477.494-.1c-.29-1.431-.443-2.163-.75-3.594L8.449,8.5l-.545.17c-.426.136-.63.187-1.056.324L7,9.489l.494-.1c-.307-1.448-.443-2.18-.75-3.629l-.494.1.443.256c.273-.46.528-.63.664-.664h.119c0-.017.17.085.17.085a2.4,2.4,0,0,1,.238.63c.1.341.2.784.324,1.312.426,2.01.63,3.015,1.056,5.025l.119.579.545-.2c1.84-.664,2.777-1.022,4.548-1.806l.375-.17-.085-.409c-.29-1.346-.426-2.027-.7-3.373l-.119-.579-.562.221c-.341.119-.494.187-.835.307l.17.477.494-.1c-.238-1.107-.358-1.669-.579-2.794a7.768,7.768,0,0,0-1.6-3.765A2.777,2.777,0,0,0,9.029,0a3.361,3.361,0,0,0-.818.1A4.71,4.71,0,0,0,5.23,2.76L5.69,3l.494-.1C6.065,2.317,6,2.027,5.877,1.431L5.775.92l-.511.119C3.356,1.482,2.419,1.687.494,2.1L0,2.2l.1.494c.29,1.482.443,2.232.733,3.731l.1.511.511-.119c.392-.085.579-.136.954-.222L2.283,6.1l-.494.1c.358,1.755.528,2.623.869,4.378l.494-.1-.119-.494c-.375.1-.579.136-.954.238L1.6,10.34l.1.477c.29,1.482.443,2.232.733,3.731l.1.528.528-.136c2.385-.6,3.594-.954,5.894-1.738l.426-.153L9.3,12.606l-.494.1Z" transform="translate(98.039 109.419)" fill="#020202"/><path d="M7.615,11.209,8.177,14.5a1.8,1.8,0,0,1-1.022.255,3.767,3.767,0,0,1-1.431-.29A4.915,4.915,0,0,1,4.14,13.424a6.724,6.724,0,0,1-1.158-1.482,8.418,8.418,0,0,1-.392-.8c-.085-.221-.17-.477-.256-.732-.119-.443-.29-1.312-.528-2.555-.119-.647-.187-.971-.307-1.618-.375-.136-.562-.2-.937-.358C.341,4.685.221,4.089,0,2.913c.375.119.562.187.937.29-.1-.6-.17-.886-.273-1.482A21.471,21.471,0,0,0,4.088,0c.29,1.669.443,2.5.733,4.174.63.136.954.187,1.6.29.239,1.346.341,2.01.579,3.356-.647-.136-.971-.2-1.6-.375.136.8.2,1.209.358,2.027a6.114,6.114,0,0,0,.358,1.363.966.966,0,0,0,.6.494,1.378,1.378,0,0,0,.886-.085Z" transform="translate(74.905 129.589)" fill="#f7eee5"/><path d="M8.262,12.1l-.511.085.562,3.288.511-.085-.307-.409a1.3,1.3,0,0,1-.733.153H7.751a3.085,3.085,0,0,1-1.21-.256,4.359,4.359,0,0,1-1.414-.937,6,6,0,0,1-1.056-1.363l-.443.238.443-.238c-.153-.29-.273-.545-.358-.75a3.991,3.991,0,0,1-.221-.681c-.119-.409-.29-1.278-.511-2.521C2.862,7.973,2.794,7.649,2.675,7l-.051-.29-.273-.1c-.375-.136-.562-.2-.92-.358l-.187.477.494-.1C1.516,5.434,1.4,4.838,1.175,3.663l-.494.1-.153.494c.375.119.579.187.954.29l.8.238-.153-.818c-.1-.6-.17-.886-.273-1.482l-.494.085.187.477A20.313,20.313,0,0,0,5.042,1.295L4.787.852,4.276.937c.29,1.669.443,2.5.733,4.174l.068.341.341.068c.63.136.971.187,1.618.29L7.121,5.3l-.511.085c.238,1.346.341,2.01.579,3.356L7.7,8.654l.1-.494c-.647-.136-.954-.2-1.584-.375L5.451,7.6l.136.784c.136.8.2,1.21.358,2.027a5.685,5.685,0,0,0,.409,1.5,1.421,1.421,0,0,0,.9.75,1.336,1.336,0,0,0,.443.068,2.051,2.051,0,0,0,.767-.153L8.279,12.1l-.511.085.511-.085-.187-.477a.889.889,0,0,1-.375.085h-.17a.535.535,0,0,1-.29-.256,5.306,5.306,0,0,1-.324-1.227c-.136-.8-.2-1.209-.358-2.027l-.511.085-.119.494c.647.17.971.238,1.618.375L8.3,9.3l-.136-.75c-.238-1.346-.341-2.01-.579-3.356l-.068-.358-.358-.051c-.63-.1-.937-.153-1.584-.29l-.1.494.511-.085C5.69,3.237,5.537,2.4,5.247.733L5.128,0,4.5.375A21.33,21.33,0,0,1,1.141,2.061L.75,2.215l.068.409c.1.6.17.886.273,1.482l.494-.085.153-.494c-.375-.119-.562-.17-.92-.29L0,2.964l.153.852C.375,5.008.494,5.6.716,6.78l.051.273.256.1c.375.153.579.221.954.358l.17-.477-.494.085c.119.647.187.971.307,1.618.238,1.261.409,2.112.528,2.606a4.9,4.9,0,0,0,.273.8A9.273,9.273,0,0,0,3.169,13h0a6.542,6.542,0,0,0,1.244,1.6A5.59,5.59,0,0,0,6.15,15.741a4.334,4.334,0,0,0,1.6.324h.034a2.218,2.218,0,0,0,1.329-.358l.256-.187-.051-.307c-.221-1.312-.341-1.976-.562-3.288l-.1-.63-.579.238.187.477Z" transform="translate(74.257 128.703)" fill="#020202"/><path d="M3.237,3.4C1.925,3.088,1.278,2.9,0,2.509A2.6,2.6,0,0,1,1.295.465,7.133,7.133,0,0,1,4.565.005a12.962,12.962,0,0,1,1.5.1,7.687,7.687,0,0,1,1.21.221A3.7,3.7,0,0,1,9.029,1.2,4.3,4.3,0,0,1,10,2.543a10.554,10.554,0,0,1,.647,2.368c.238,1.363.375,2.044.613,3.407.409-.017.613-.034,1.022-.051.273,1.5.409,2.232.681,3.731a29.61,29.61,0,0,1-5.213-.085c-.051-.307-.085-.477-.136-.784a2.9,2.9,0,0,1-2.709.63A4.375,4.375,0,0,1,2.2,10.209,5.464,5.464,0,0,1,.937,7.6,2.362,2.362,0,0,1,1.55,5.3a3.176,3.176,0,0,1,2.538-.647,5.789,5.789,0,0,1,2.538.75,2.409,2.409,0,0,0-.068-.341,7.417,7.417,0,0,0-.375-1.5,1.871,1.871,0,0,0-.63-.784,1.938,1.938,0,0,0-.988-.358A1.226,1.226,0,0,0,3.254,3.4Zm4,5.571c-.153-.852-.221-1.261-.375-2.112a2.26,2.26,0,0,0-1.244-.494.764.764,0,0,0-.784.341A1.516,1.516,0,0,0,4.7,7.773,2.349,2.349,0,0,0,5.23,8.932a1.278,1.278,0,0,0,.852.528,1.125,1.125,0,0,0,1.141-.494Z" transform="translate(83.047 134.285)" fill="#f7eee5"/><path d="M3.748,3.9l.119-.494C2.572,3.1,1.942,2.93.647,2.538l-.153.494.511.085A2.061,2.061,0,0,1,2.027,1.448a5.9,5.9,0,0,1,2.555-.409h.46c.545,0,1.022.051,1.465.085a8.67,8.67,0,0,1,1.141.2,3.224,3.224,0,0,1,1.533.75,4.352,4.352,0,0,1,.869,1.192,9.786,9.786,0,0,1,.6,2.249c.238,1.363.375,2.044.613,3.407l.085.443h.443c.409-.034.63-.051,1.039-.068l-.034-.511-.494.085c.273,1.5.409,2.232.681,3.731l.494-.085-.034-.511c-.869.051-1.55.068-2.215.068-.886,0-1.721-.051-2.93-.153l-.051.511.511-.085c-.051-.307-.085-.477-.136-.784L8.45,10.6l-.7.7a2,2,0,0,1-1.533.545,3.907,3.907,0,0,1-.733-.068,3.875,3.875,0,0,1-2.4-1.38A4.881,4.881,0,0,1,1.942,8.041a3.64,3.64,0,0,1-.051-.579A1.607,1.607,0,0,1,2.4,6.184a2.259,2.259,0,0,1,1.652-.528c.153,0,.324,0,.494.017a5.257,5.257,0,0,1,2.317.664l.971.6L7.649,5.809a2.408,2.408,0,0,0-.068-.341A10.727,10.727,0,0,0,7.189,3.85h0a2.533,2.533,0,0,0-.8-1.005A2.306,2.306,0,0,0,5.128,2.4H5.008a1.634,1.634,0,0,0-1.073.358,1.9,1.9,0,0,0-.63.971l.477.153L3.9,3.39l-.119.494.477.153a.947.947,0,0,1,.307-.494.625.625,0,0,1,.443-.136h.068a1.3,1.3,0,0,1,.715.256,1.528,1.528,0,0,1,.477.579h0a7.693,7.693,0,0,1,.341,1.4,2.412,2.412,0,0,0,.068.341l.511-.085.273-.443A6.255,6.255,0,0,0,4.7,4.634C4.5,4.617,4.31,4.6,4.123,4.6a3.4,3.4,0,0,0-2.351.8A2.711,2.711,0,0,0,.937,7.41a3.836,3.836,0,0,0,.068.75A5.923,5.923,0,0,0,2.385,11,4.876,4.876,0,0,0,5.4,12.725a5.568,5.568,0,0,0,.9.085,3.1,3.1,0,0,0,2.249-.852L8.194,11.6l-.511.085c.051.307.085.477.136.784l.068.392.392.034c1.21.1,2.078.153,3.015.153.681,0,1.38-.034,2.266-.068l.579-.034-.1-.562c-.273-1.5-.409-2.232-.681-3.731l-.085-.443-.46.034c-.409.034-.6.034-1.005.051v.511c.017,0,.528-.085.528-.085-.239-1.363-.375-2.044-.613-3.407a10.8,10.8,0,0,0-.681-2.5,5.061,5.061,0,0,0-1.073-1.5A4.159,4.159,0,0,0,7.973.324,9.04,9.04,0,0,0,6.695.1C6.235.051,5.707.017,5.145,0H4.651A6.592,6.592,0,0,0,1.618.528,3.12,3.12,0,0,0,.068,2.947L0,3.39l.426.136c1.295.392,1.959.579,3.271.886l.46.1.153-.443-.477-.153Zm4,5.571.511-.085c-.153-.852-.221-1.261-.375-2.112l-.034-.2-.17-.119a2.91,2.91,0,0,0-1.5-.6H6.048a1.309,1.309,0,0,0-1.124.579,1.746,1.746,0,0,0-.239.937,1.682,1.682,0,0,0,.051.494,2.973,2.973,0,0,0,.63,1.414,1.875,1.875,0,0,0,1.192.716H6.8a1.576,1.576,0,0,0,1.4-.733l.1-.17-.034-.2-.511.085L7.325,9.2a.54.54,0,0,1-.528.273H6.661c-.1,0-.29-.1-.511-.358a1.836,1.836,0,0,1-.409-.92L5.707,7.87a.741.741,0,0,1,.085-.392c.068-.085.068-.1.256-.1h.068a2.093,2.093,0,0,1,.971.409l.307-.409-.511.085c.153.852.221,1.261.375,2.112l.511-.085-.426-.273.426.273Z" transform="translate(82.536 133.779)" fill="#020202"/><path d="M4.5,13.288c-1.022.17-1.533.238-2.555.341-.273-1.516-.426-2.266-.7-3.782.954-.1,1.431-.17,2.368-.324A2.465,2.465,0,0,0,5.876,10.6c.716-.153,1.039-.477.954-.92A.637.637,0,0,0,6.489,9.2a8.087,8.087,0,0,0-1.4-.29c-.6-.1-1.278-.273-2.01-.46A4.3,4.3,0,0,1,1.5,7.683a3.6,3.6,0,0,1-.92-1.039,4.868,4.868,0,0,1-.46-1.431A3.847,3.847,0,0,1,.51,2.2,3.2,3.2,0,0,1,2.639.9a3.793,3.793,0,0,1,2.555.341C5.143,1.005,5.126.869,5.075.63,6.046.409,6.523.273,7.477,0c.273,1.38.409,2.061.681,3.441-.886.273-1.329.392-2.232.613a2.489,2.489,0,0,0-2.249-.8c-.613.119-.869.426-.784.92a.5.5,0,0,0,.358.426,16.092,16.092,0,0,0,1.635.221,15.6,15.6,0,0,1,2.487.392,2.9,2.9,0,0,1,1.465.9A3.78,3.78,0,0,1,9.624,7.9a4.537,4.537,0,0,1-.375,3.339A3.49,3.49,0,0,1,7,12.879a3.636,3.636,0,0,1-2.658-.307c.051.29.085.443.136.732Z" transform="translate(95.57 132.689)" fill="#f7eee5"/><path d="M4.906,13.986l-.085-.511c-1.005.17-1.5.238-2.521.341l.051.511.494-.085c-.273-1.516-.426-2.266-.7-3.782l-.494.085.051.511c.954-.1,1.448-.17,2.4-.324l-.085-.511-.375.341A3.321,3.321,0,0,0,5.962,11.84a1.314,1.314,0,0,0,.443-.051,2.244,2.244,0,0,0,.937-.409,1.16,1.16,0,0,0,.426-.869v-.238a1.259,1.259,0,0,0-.63-.835,2.643,2.643,0,0,0-.613-.17q-.358-.077-.92-.153c-.562-.1-1.244-.256-1.976-.46a3.478,3.478,0,0,1-1.38-.664A3.2,3.2,0,0,1,1.465,7.1a4.5,4.5,0,0,1-.409-1.278,6.659,6.659,0,0,1-.1-1.09A2.57,2.57,0,0,1,1.363,3.2a2.7,2.7,0,0,1,1.806-1.09,4.124,4.124,0,0,1,.767-.068A3.009,3.009,0,0,1,5.4,2.4l.954.511-.2-1.056c-.051-.238-.068-.375-.119-.613l-.494.1.119.494c.971-.221,1.482-.358,2.436-.63L7.955.716l-.494.1c.273,1.38.409,2.061.681,3.441l.494-.1-.153-.494c-.886.256-1.312.375-2.215.6l.119.494.358-.375A3.144,3.144,0,0,0,4.565,3.39a2.773,2.773,0,0,0-.528.051,1.708,1.708,0,0,0-.852.392,1.085,1.085,0,0,0-.358.852l.034.29A1.239,1.239,0,0,0,3.1,5.5a.931.931,0,0,0,.494.29c.221.051.767.136,1.7.239a15.58,15.58,0,0,1,2.4.375,2.394,2.394,0,0,1,1.21.733,3.371,3.371,0,0,1,.664,1.55A6.569,6.569,0,0,1,9.71,9.9a3.228,3.228,0,0,1-.443,1.755,2.991,2.991,0,0,1-1.942,1.414,3.862,3.862,0,0,1-.852.1,2.972,2.972,0,0,1-1.431-.358L4.105,12.3l.2,1.056c.051.29.085.443.136.733l.494-.1-.085-.511.085.511.494-.1c-.051-.29-.085-.443-.136-.733l-.494.1-.238.443a3.8,3.8,0,0,0,1.925.477,4.9,4.9,0,0,0,1.09-.136,4.02,4.02,0,0,0,2.572-1.874,4.248,4.248,0,0,0,.6-2.3A7.026,7.026,0,0,0,10.6,8.45a4.367,4.367,0,0,0-.886-2.01A3.466,3.466,0,0,0,7.99,5.383a15.38,15.38,0,0,0-2.572-.409c-.9-.085-1.465-.187-1.567-.2v0h0v0l-.017.068L3.9,4.8H3.867c0-.017-.034.034-.034.034L3.9,4.8V4.753l-.017-.1.034-.1a.662.662,0,0,1,.358-.136L4.6,4.378a2.124,2.124,0,0,1,1.465.7l.2.187L6.542,5.2c.9-.221,1.38-.341,2.266-.613l.443-.136-.085-.46c-.273-1.38-.409-2.061-.681-3.441L8.381,0,7.853.153C6.9.426,6.439.545,5.468.767L4.991.886l.1.477c.051.238.068.375.119.613l.494-.1.239-.443A4.046,4.046,0,0,0,4,.954a6.2,6.2,0,0,0-.954.085A3.688,3.688,0,0,0,.6,2.538,3.639,3.639,0,0,0,0,4.668,8.486,8.486,0,0,0,.119,5.945,5.77,5.77,0,0,0,.63,7.53,4.185,4.185,0,0,0,1.669,8.722a4.407,4.407,0,0,0,1.772.852c.732.187,1.431.358,2.061.477.358.068.664.119.886.153a2.518,2.518,0,0,1,.375.085l.051.1v.051l-.051.085a1.574,1.574,0,0,1-.511.2H6.031c-.409.034-.937-.238-1.55-.92l-.187-.2-.273.051c-.937.153-1.4.221-2.351.324l-.545.051.1.545c.273,1.516.426,2.266.7,3.782l.085.46.46-.051c1.039-.1,1.567-.17,2.589-.341l.511-.085-.1-.511-.494.1Z" transform="translate(95.16 131.991)" fill="#020202"/><path d="M7.734,10.92c.29,1.38.426,2.061.716,3.441a5.611,5.611,0,0,1-.886,1.278,4.833,4.833,0,0,1-1.312,1.056,2.284,2.284,0,0,1-1.55.273,2.211,2.211,0,0,1-1.21-.8,5.514,5.514,0,0,1-.426-.7,5.1,5.1,0,0,1-.29-.784c-.153-.511-.375-1.533-.681-3.049L1.7,9.676c-.375.136-.579.2-.954.341C.46,8.535.307,7.8,0,6.32c.375-.119.579-.187.954-.307C.8,5.3.733,4.94.6,4.225,1.908,2.555,2.538,1.7,3.8,0c.375,1.823.562,2.726.937,4.548.6-.256.9-.392,1.482-.681.29,1.414.443,2.112.733,3.526-.579.307-.886.443-1.482.733.187.886.273,1.329.46,2.2a4.861,4.861,0,0,0,.426,1.38c.136.2.324.238.579.1a2.493,2.493,0,0,0,.784-.835Z" transform="translate(104.529 125.943)" fill="#f7eee5"/><path d="M8.245,12.214l-.494.1c.29,1.38.426,2.061.716,3.441l.494-.1-.46-.2a4.4,4.4,0,0,1-.8,1.141,3.988,3.988,0,0,1-1.176.937,1.877,1.877,0,0,1-.9.256l-.29-.034a1.526,1.526,0,0,1-.9-.613l-.409.307.409-.29a3.205,3.205,0,0,1-.375-.63,4.059,4.059,0,0,1-.256-.7c-.136-.477-.358-1.5-.664-3.015-.153-.784-.238-1.175-.392-1.959l-.119-.579-.562.2c-.375.136-.562.2-.937.324l.17.477.494-.1c-.29-1.482-.443-2.215-.75-3.7l-.494.1L.7,8.075c.392-.119.579-.187.971-.324L2.1,7.6,2.01,7.155c-.153-.716-.221-1.073-.358-1.789l-.494.1.409.324c1.312-1.669,1.959-2.521,3.22-4.225l-.409-.307-.494.1c.375,1.823.562,2.726.937,4.548l.136.613.579-.256c.6-.255.92-.409,1.5-.681l-.221-.46-.494.1c.29,1.414.443,2.112.733,3.526l.494-.1-.239-.46c-.579.307-.869.443-1.465.733l-.358.17.085.392c.187.886.273,1.329.46,2.2.085.375.153.681.238.937a2.287,2.287,0,0,0,.273.613.859.859,0,0,0,.733.409,1.263,1.263,0,0,0,.511-.136,3.163,3.163,0,0,0,.971-.988l-.426-.29-.494.1.494-.1-.426-.29a1.958,1.958,0,0,1-.6.664H7.257v.017h0v.187l.1-.153-.1-.034v.187l.1-.153-.068.119.1-.1H7.359c0-.017-.068.1-.068.1l.1-.1h0a1.816,1.816,0,0,1-.136-.375,7.5,7.5,0,0,1-.2-.835c-.187-.886-.273-1.329-.46-2.2l-.494.1.221.46c.6-.29.9-.443,1.5-.75l.341-.17-.085-.375c-.29-1.414-.443-2.112-.733-3.526l-.136-.63-.579.273c-.6.273-.869.409-1.465.664l.2.46.494-.1C5.485,3.85,5.3,2.947,4.923,1.124L4.685,0,4,.92C2.743,2.623,2.112,3.458.8,5.128l-.153.187L.7,5.554c.153.715.221,1.073.358,1.789l.494-.1-.17-.477C1.005,6.9.818,6.95.443,7.07L0,7.206l.085.443c.29,1.482.443,2.215.75,3.7l.119.562L1.5,11.72c.392-.136.579-.2.971-.341L2.3,10.9l-.494.1L2.2,12.964c.307,1.516.528,2.538.681,3.083A4.457,4.457,0,0,0,3.2,16.9a4.393,4.393,0,0,0,.477.784h0a2.529,2.529,0,0,0,1.5,1.005,2.6,2.6,0,0,0,.511.051,3,3,0,0,0,1.38-.375,5.992,5.992,0,0,0,1.465-1.158,5.474,5.474,0,0,0,.971-1.4l.068-.153-.034-.17c-.29-1.38-.426-2.061-.715-3.441l-.256-1.192-.681,1.022.426.29Z" transform="translate(104.018 124.648)" fill="#020202"/><path d="M7.7,18.075a28.36,28.36,0,0,1-2.709,2.47c-.273-1.329-.409-1.976-.7-3.3.443-.341.664-.511,1.09-.852.034-.545.051-.818.085-1.346C3.85,12.708,3,11.431,1.261,8.773c-.2.119-.324.17-.528.29C.443,7.666.29,6.967,0,5.571A38.181,38.181,0,0,0,4.6,2.947c.273,1.295.409,1.959.664,3.254-.273.2-.426.307-.715.494.8,1.329,1.175,1.976,1.942,3.237.068-1.942.1-2.913.17-4.8-.239.187-.358.29-.6.46-.256-1.278-.392-1.925-.647-3.2A39.763,39.763,0,0,0,8.6,0c.221,1.192.341,1.789.562,2.964-.221.221-.341.324-.579.528C8.16,9.046,8.007,11.976,7.7,18.04Z" transform="translate(111.479 123.848)" fill="#f7eee5"/><path d="M8.313,18.977l-.358-.358a27.619,27.619,0,0,1-2.675,2.436l.324.392.494-.1c-.273-1.329-.409-1.976-.7-3.3l-.494.1.307.409c.443-.341.664-.511,1.107-.869l.17-.136v-.221c.051-.545.068-.818.1-1.346v-.187l-.085-.153C4.889,13.3,4.037,12.044,2.3,9.387l-.255-.409-.409.238c-.2.119-.307.17-.528.29l.238.443.494-.1c-.29-1.4-.443-2.1-.733-3.492l-.494.1.221.46a41.455,41.455,0,0,0,4.651-2.64L5.213,3.85l-.494.1c.273,1.295.409,1.959.664,3.254l.494-.1-.307-.409c-.273.2-.409.29-.7.494l-.392.273.238.409c.8,1.329,1.192,1.993,1.942,3.237l.886,1.465L7.6,10.852c.068-1.942.1-2.913.17-4.8L7.819,4.94l-.869.7c-.238.187-.358.273-.6.46l.307.409.494-.1C6.9,5.128,6.763,4.48,6.508,3.2l-.494.1.29.426a34.536,34.536,0,0,0,3.22-2.419L9.2.92l-.494.1c.221,1.192.341,1.789.562,2.964l.494-.1L9.4,3.509c-.221.221-.341.324-.562.528l-.153.136v.2c-.426,5.554-.6,8.5-.9,14.565l.511.034-.358-.358.358.358.511.034c.324-6.065.477-8.995.886-14.531l-.511-.034.341.375c.238-.2.358-.324.579-.545l.2-.187-.051-.273c-.221-1.192-.341-1.789-.562-2.964L9.523,0,8.858.545A36.2,36.2,0,0,1,5.707,2.913L5.434,3.1l.068.341c.256,1.278.392,1.925.647,3.2l.17.8.647-.494c.238-.187.375-.29.613-.477l-.324-.392H6.746c-.068,1.874-.1,2.845-.17,4.787h.511l.443-.256C6.763,9.37,6.388,8.722,5.588,7.376l-.443.255.29.426c.29-.2.443-.307.715-.511l.273-.187-.068-.324c-.273-1.295-.409-1.959-.664-3.254l-.153-.733-.63.409A37.317,37.317,0,0,1,.358,6.048L0,6.218l.085.392c.29,1.4.443,2.1.733,3.492l.136.664.6-.324c.221-.119.324-.17.545-.307L1.84,9.693l-.426.273C3.152,12.623,4,13.9,5.639,16.252l.426-.29-.511-.034c-.034.545-.051.8-.085,1.346l.511.034-.324-.392c-.426.358-.63.511-1.073.835l-.256.187.068.324c.273,1.329.409,1.976.7,3.3l.17.818.647-.528a27.319,27.319,0,0,0,2.76-2.5l.136-.136v-.187l-.494-.034Z" transform="translate(110.866 122.945)" fill="#020202"/></g></svg>