<svg xmlns="http://www.w3.org/2000/svg" width="182.043" height="196.178" viewBox="0 0 182.043 196.178"><g transform="matrix(0.839, -0.545, 0.545, 0.839, 0, 61.365)"><path d="M56.012,0h0A56.01,56.01,0,0,0,0,56.012v97.459A6.623,6.623,0,0,0,6.627,160.1H105.4a6.623,6.623,0,0,0,6.627-6.627V56.012A56.032,56.032,0,0,0,56.012,0Z" transform="translate(0.324 0.324)" fill="#d64027"/><path d="M56.336.324V0h0A56.323,56.323,0,0,0,0,56.336V153.8a6.958,6.958,0,0,0,6.95,6.95h98.771a6.958,6.958,0,0,0,6.95-6.95V56.336A56.345,56.345,0,0,0,56.336,0V.647a55.661,55.661,0,0,1,55.672,55.672v97.459a6.282,6.282,0,0,1-6.286,6.286H6.95a6.282,6.282,0,0,1-6.286-6.286V56.336A55.69,55.69,0,0,1,56.336.647h0Z" transform="translate(0 0)"/><path d="M15.8,7.571c.085-.187.238-.2.409-.239a4.591,4.591,0,0,0,.7-.119,4.561,4.561,0,0,1,1.908-.221,1.01,1.01,0,0,0,1.056-1.38A7.893,7.893,0,0,0,18.9,3.636a9.687,9.687,0,0,0-2.709-2.555A7.128,7.128,0,0,0,13.514.041a1.18,1.18,0,0,0-1.533.818,6.472,6.472,0,0,0-.221,2.964.711.711,0,0,0,.767.664,2.428,2.428,0,0,0,.494-.051,6.831,6.831,0,0,0,1.891-.7,2.57,2.57,0,0,1,.307-.153.183.183,0,0,1,.273.085l-.051.256a.819.819,0,0,1-.273.2,16.406,16.406,0,0,1-1.7.716A7.94,7.94,0,0,1,8.25,4.539,8.021,8.021,0,0,1,5.814,3.023c-.187-.17-.238-.358-.119-.46.17-.136.29,0,.409.1.238.17.46.375.7.528a4.162,4.162,0,0,0,1.635.784.678.678,0,0,0,.852-.733c-.068-.7-.136-1.38-.238-2.078a.883.883,0,0,0-.2-.443A1.4,1.4,0,0,0,7.432.263a11.178,11.178,0,0,0-2.453.8A6.7,6.7,0,0,0,2.543,2.869a3.468,3.468,0,0,0-.221.307c-.256.477-.477.971-.733,1.448a1.471,1.471,0,0,0-.153.886.591.591,0,0,0,.2.392,6.448,6.448,0,0,0,.579.341A2.007,2.007,0,0,0,3.395,6.4a2.9,2.9,0,0,1,1.6.29c.187.085.375.17.562.238a2.981,2.981,0,0,0,1.4.085c.273-.034.443.068.46.221,0,.136-.136.255-.375.307a3.094,3.094,0,0,1-2.027-.256,3.045,3.045,0,0,0-1.738-.341,2.293,2.293,0,0,1-1.295-.2.807.807,0,0,0-1.175.409,4.946,4.946,0,0,0-.358,1.21,22.54,22.54,0,0,0-.426,3.714c0,.613-.034,1.244-.017,1.857a1.106,1.106,0,0,0,.784,1.107,7.245,7.245,0,0,1,1.448.613,2.15,2.15,0,0,0,1.55.238,3.335,3.335,0,0,1,2.658.426,3.233,3.233,0,0,0,2.061.443c.256-.017.511-.051.767-.051a11.123,11.123,0,0,1,2.249.409.286.286,0,0,1,.273.238.861.861,0,0,1-.6.187,4.159,4.159,0,0,1-.664-.085A5.156,5.156,0,0,0,8.488,17.3,3.789,3.789,0,0,1,6.138,16.8a5.351,5.351,0,0,0-.63-.307,2.556,2.556,0,0,0-1.516-.051,2.69,2.69,0,0,1-2.164-.375l-.187-.1a1.1,1.1,0,0,0-1.022-.136.64.64,0,0,0-.477.426,1.476,1.476,0,0,0-.1.545c0,.511,0,1.039.051,1.55.238,2.64.477,5.264.733,7.9a4.775,4.775,0,0,0,.2.852,1.351,1.351,0,0,0,.256.426.971.971,0,0,0,1.022.307A3.47,3.47,0,0,1,4.57,28.1l.187.068a1.8,1.8,0,0,0,1.158.034,2.234,2.234,0,0,1,.46-.1.3.3,0,0,1,.307.187.244.244,0,0,1-.17.307,2.466,2.466,0,0,1-1.4.238c-.375-.085-.733-.2-1.09-.324a2.638,2.638,0,0,0-1.363-.119,5.256,5.256,0,0,1-.9.051c-.307,0-.443.068-.528.358a.965.965,0,0,0-.034.494c.17,1.363.358,2.743.562,4.105a34.181,34.181,0,0,0,1.227,5.537,2.083,2.083,0,0,0,1.806,1.38,4.076,4.076,0,0,1,1.55.324,2.8,2.8,0,0,0,1.227.273c.17,0,.358-.034.528-.034s.375-.017.494.17a.712.712,0,0,1-.443.324,4.472,4.472,0,0,1-.664.1,3.144,3.144,0,0,1-1.363-.324,4.962,4.962,0,0,0-1.635-.307.464.464,0,0,0-.511.426.831.831,0,0,0,.051.358A12.673,12.673,0,0,0,5.558,44.2a2,2,0,0,0,1.567.869,2.738,2.738,0,0,0,1.55-.392,8.385,8.385,0,0,0,1.244-.92,15.754,15.754,0,0,0,2.589-3.117,4.866,4.866,0,0,0,.715-1.5.6.6,0,0,0-.562-.835,7.375,7.375,0,0,0-1.227-.017A3.963,3.963,0,0,1,10.09,38.2a4.371,4.371,0,0,0-1.4-.307.246.246,0,0,1-.273-.256c0-.153.1-.238.256-.273h.2a4.746,4.746,0,0,1,.835.136,3.726,3.726,0,0,0,1.295.256,8.93,8.93,0,0,1,1.908,0,1.085,1.085,0,0,0,1.022-.426,3.982,3.982,0,0,0,.613-.988c.477-1.209.937-2.436,1.38-3.663q.741-2.1,1.431-4.242a5.792,5.792,0,0,0,.2-1.21.457.457,0,0,0-.579-.511c-.187.034-.358.1-.545.153a1.887,1.887,0,0,1-1.107,0c-.273-.068-.528-.1-.8-.153-.153-.017-.29-.051-.29-.221a.291.291,0,0,1,.256-.273l.239-.034a2.565,2.565,0,0,1,.63.1,1.775,1.775,0,0,0,1.073,0,3,3,0,0,1,.869-.153.78.78,0,0,0,.7-.358,2.68,2.68,0,0,0,.426-.988c.494-2.487.988-4.991,1.465-7.479.153-.835.273-1.687.409-2.521.068-.392-.17-.579-.562-.494a2.594,2.594,0,0,1-.716.1,4.168,4.168,0,0,1-.647-.068,2.046,2.046,0,0,0-1.312.187,2.567,2.567,0,0,1-1.5.341,3.744,3.744,0,0,1-.63-.1c-.119-.034-.221-.1-.2-.238,0-.153.136-.2.273-.221h.2a2.921,2.921,0,0,0,1.772-.307,1.655,1.655,0,0,1,.9-.221c.392,0,.784.051,1.175.068a1.407,1.407,0,0,0,1.175-.511,1.248,1.248,0,0,0,.358-.835c0-.886.017-1.772,0-2.64-.017-.664-.119-1.329-.187-1.993-.068-.511-.409-.6-.784-.409a1.339,1.339,0,0,1-.886.153,3.339,3.339,0,0,0-1.533.17,3.2,3.2,0,0,1-.579.136,1.927,1.927,0,0,1-.443,0,.337.337,0,0,1-.358-.29Z" transform="translate(56.672 104.743)" fill="#ff8548"/><path d="M.446,13.15A13.621,13.621,0,0,0,0,16.761c-.017.92.034,1.857.068,2.794a4.553,4.553,0,0,0,.136.818l.136.136.136-.136a.684.684,0,0,0,.051-.256,34.238,34.238,0,0,1,1.039-4.531A34,34,0,0,1,3.393,11.02,15.13,15.13,0,0,1,5.012,8.295a1.982,1.982,0,0,1,.307-.341.6.6,0,0,1,.664-.1.527.527,0,0,1,.238.579.763.763,0,0,1-.068.341,4.233,4.233,0,0,1-.307.767A38.191,38.191,0,0,0,3.99,13.508,27.624,27.624,0,0,0,2.337,18.84c-.153.784-.256,1.567-.358,2.351a3.274,3.274,0,0,0,0,.409l.119.17.238-.068.119-.17a11.172,11.172,0,0,1,2.351-3c.715-.647,1.448-1.278,2.146-1.925.613-.562,1.21-1.124,1.789-1.7a2.487,2.487,0,0,0,.716-1.516,1.343,1.343,0,0,0-1.141-1.55,1.242,1.242,0,0,0-.92.136c-.221.136-.426.273-.647.409-.119.068-.238.1-.341-.017a.221.221,0,0,1,0-.324,1.627,1.627,0,0,1,.409-.358A23.453,23.453,0,0,0,9.543,9.726a9.251,9.251,0,0,0,1.891-2.1A3.35,3.35,0,0,0,12,5.705a.829.829,0,0,0-.733-.835,2.064,2.064,0,0,0-1.414.29,1.805,1.805,0,0,1-.358.187c-.2.068-.341-.051-.29-.256.034-.119.068-.221.1-.341A5.958,5.958,0,0,0,9.85,2.588,4.153,4.153,0,0,0,9.679.935,1.366,1.366,0,0,0,7.942.067,2.469,2.469,0,0,0,7,.612,6.17,6.17,0,0,0,5.71,2.128a7.071,7.071,0,0,0-.9,2.232,5.058,5.058,0,0,1-.221.664.313.313,0,0,1-.239.136l-.153-.187A2.824,2.824,0,0,1,4.143,4.6a1.87,1.87,0,0,0-.562-1.192,1.4,1.4,0,0,0-2.146.256,2.057,2.057,0,0,0-.324.937A5.924,5.924,0,0,0,1.639,7.75L2.3,9.129c.051.119.1.273-.051.375a.293.293,0,0,1-.375-.068c-.119-.119-.256-.221-.375-.324a.283.283,0,0,0-.358-.051c-.119.085-.085.2-.085.324a5.973,5.973,0,0,1-.034,1.107c-.17.9-.375,1.789-.579,2.675Z" transform="translate(66.758 81.703)" fill="#4dbc6c"/><path d="M10.213,15.393H10.3a1.176,1.176,0,0,0,.1-.63,17.831,17.831,0,0,1,.494-2.692c.17-.716.324-1.448.443-2.2a2.322,2.322,0,0,0-.307-1.567.446.446,0,0,0-.75-.136,3.3,3.3,0,0,0-.392.46,1.27,1.27,0,0,0-.153.256.275.275,0,0,1-.307.136c-.136-.034-.153-.17-.17-.273a.662.662,0,0,1,.034-.256A13.335,13.335,0,0,0,9.446,5.41a5.3,5.3,0,0,0-.8-2.521,2.586,2.586,0,0,0-1.158-.971,1.111,1.111,0,0,0-1.669.92c-.034.187-.051.392-.085.579-.017.153-.034.324-.238.358S5.187,3.69,5.1,3.537a4.638,4.638,0,0,1-.187-.426,8.558,8.558,0,0,0-.937-1.738A3.988,3.988,0,0,0,2.632.164,1.2,1.2,0,0,0,.946.658a1.988,1.988,0,0,0-.17.443A3.849,3.849,0,0,0,.963,3.247a9.375,9.375,0,0,0,1.55,2.794,6.5,6.5,0,0,1,.409.545A.222.222,0,0,1,2.9,6.91a.211.211,0,0,1-.29-.017c-.2-.136-.409-.273-.6-.426a2.425,2.425,0,0,0-.937-.409C.3,5.922-.145,6.364.043,7.131A4.686,4.686,0,0,0,.5,8.306a8.514,8.514,0,0,0,2.879,2.9c.085.051.153.119.238.17.085.085.187.187.119.307a.318.318,0,0,1-.273.119,5.813,5.813,0,0,1-.733-.1.715.715,0,0,0-.9.545,1.653,1.653,0,0,0,.085,1.21,3.236,3.236,0,0,0,.9,1.073c.613.46,1.227.92,1.857,1.329a11.381,11.381,0,0,1,4.361,4.4l.153.153h.068v-.256c-.034-.307-.085-.613-.136-.937a56.854,56.854,0,0,0-1.431-6.286c-.324-1.21-.767-2.385-1.141-3.577a3.772,3.772,0,0,1-.29-1.38.426.426,0,0,1,.494-.443.846.846,0,0,1,.579.273,5.968,5.968,0,0,1,.409.511A11.35,11.35,0,0,1,8.8,10.5a34.8,34.8,0,0,1,1.329,4.548c.034.119.085.221.119.341Z" transform="translate(55.952 81.879)" fill="#4dbc6c"/><path d="M4.449,18.6v-.221A88.547,88.547,0,0,0,2.729,6.59,26.173,26.173,0,0,0,1.2,1.667C.974,1.173.685.7.429.219.361.1.293-.071.088.031-.082.116.037.27.088.372L.4,1.343c.341,1.022.7,2.044.988,3.083.324,1.124.579,2.283.869,3.424.477,1.908.75,3.85,1.039,5.792a43.378,43.378,0,0,1,.545,4.94.347.347,0,0,0,.307.375c.153,0,.29-.119.324-.341Z" transform="translate(62.721 90.137)" fill="#169b6f"/><path d="M.42,18.725h0a.671.671,0,0,0,.085-.239v-.443c-.017-1.312.068-2.623.17-3.935a29.043,29.043,0,0,1,.886-5.4,35.833,35.833,0,0,1,2.76-7c.222-.443.46-.886.664-1.346.051-.1.153-.256,0-.341-.17-.085-.2.119-.256.2A28.569,28.569,0,0,0,1.561,6.9a25.762,25.762,0,0,0-.954,3.918C.42,11.911.25,13,.079,14.109a4.353,4.353,0,0,0-.068,1.056C.1,16.272.215,17.4.318,18.5v.119Z" transform="translate(67.381 90.114)" fill="#169b6f"/><path d="M5.859,3.211a2.618,2.618,0,0,0,.153-.324,1.55,1.55,0,0,1,2.01-.835A3.219,3.219,0,0,1,9.93,3.858a6.113,6.113,0,0,1,.562,2.692c0,.494-.017.971-.034,1.465v.153c0,.17.068.2.221.17l.17-.051a.93.93,0,0,1,1.073.324l.068.1c.238.307.392.307.613,0-.17-.511-.358-.988-.494-1.5a5.6,5.6,0,0,1-.068-2.658,1.944,1.944,0,0,1,3.407-.852c.256.29.341.273.528-.085a15.764,15.764,0,0,1,.8-1.5A5.658,5.658,0,0,1,18.4.434,2.23,2.23,0,0,1,19.845.008a1.881,1.881,0,0,1,1.6,1.175A3.56,3.56,0,0,1,21.7,2.973c-.034.358-.085.715-.119,1.073a3.29,3.29,0,0,0-.017.579.221.221,0,0,0,.273.238c.187-.017.392-.034.579-.034a1.338,1.338,0,0,1,1.346,1.056,3.044,3.044,0,0,1-.2,1.738,5.348,5.348,0,0,1-1.175,1.789,13.832,13.832,0,0,1-2.1,1.891l-.2.153a.275.275,0,0,0,.068.477l.238.119a1.8,1.8,0,0,1,.886,1.908,3.078,3.078,0,0,1-.818,1.7q-.869.894-1.789,1.738c-.733.681-1.5,1.346-2.249,2.044a11.171,11.171,0,0,0-1.976,2.4,1.048,1.048,0,0,0-.153.494c0,.426.187.63.63.733a9.386,9.386,0,0,1,5.622,3.731,8.437,8.437,0,0,1,1.4,3.288,22.676,22.676,0,0,1,.46,4.293,25.873,25.873,0,0,1-.375,4.736c-.426,2.862-.954,5.69-1.584,8.518a23.7,23.7,0,0,1-.937,3.254c-.119.324-.17.664-.273.988-.324,1.022-.63,2.044-.971,3.049s-.7,1.993-1.073,3a35.991,35.991,0,0,1-2.879,6.337,15.393,15.393,0,0,1-2.845,3.543,7.642,7.642,0,0,1-1.192.869,3.356,3.356,0,0,1-2.061.46,2.333,2.333,0,0,1-1.738-1.022,16.706,16.706,0,0,1-2.589-5.162,38.71,38.71,0,0,1-1.482-6.8c-.426-3.066-.835-6.133-1.107-9.233C1.14,45.2.952,43.466.833,41.745c-.085-1.312-.1-2.64-.1-3.969,0-1.073,0-2.146.1-3.2a18.9,18.9,0,0,1,1.448-6.252c.238-.528.46-1.056.733-1.567A5.268,5.268,0,0,1,4.6,25.033a10.658,10.658,0,0,1,3.833-1.652c.17-.034.341-.085.511-.119a.858.858,0,0,0,.6-1.227,9.718,9.718,0,0,0-2.146-3.2,15.994,15.994,0,0,0-2.419-1.857c-.7-.477-1.38-.954-2.044-1.482a3.141,3.141,0,0,1-1.005-1.329,2.037,2.037,0,0,1-.085-1.192,1.351,1.351,0,0,1,.784-1.005l.153-.085.051-.068-.221-.2A9.653,9.653,0,0,1,.68,9.463,4.272,4.272,0,0,1,.015,7.776a1.293,1.293,0,0,1,1.4-1.55,2.785,2.785,0,0,1,.375.034c.2,0,.256-.068.17-.239-.136-.273-.307-.528-.443-.8A6.064,6.064,0,0,1,.748,2.5,2.917,2.917,0,0,1,.987,1.235a1.748,1.748,0,0,1,2.5-.8,4.586,4.586,0,0,1,1.721,1.7c.187.29.341.6.511.886.034.051.068.1.153.221Zm11.209,27.9c.085-.187.239-.2.409-.239a4.59,4.59,0,0,0,.7-.119,4.561,4.561,0,0,1,1.908-.221,1.01,1.01,0,0,0,1.056-1.38,7.892,7.892,0,0,0-.971-1.976,9.687,9.687,0,0,0-2.709-2.555,7.128,7.128,0,0,0-2.675-1.039,1.18,1.18,0,0,0-1.533.818,6.472,6.472,0,0,0-.221,2.964.711.711,0,0,0,.767.664,2.432,2.432,0,0,0,.494-.051,6.83,6.83,0,0,0,1.891-.7,2.585,2.585,0,0,1,.307-.153.183.183,0,0,1,.273.085l-.051.256a.82.82,0,0,1-.273.2,16.418,16.418,0,0,1-1.7.716,7.941,7.941,0,0,1-5.213-.307,8.02,8.02,0,0,1-2.436-1.516c-.187-.17-.238-.358-.119-.46.17-.136.29,0,.409.1.238.17.46.375.7.528a4.161,4.161,0,0,0,1.635.784.678.678,0,0,0,.852-.733c-.068-.7-.136-1.38-.239-2.078a.883.883,0,0,0-.2-.443,1.4,1.4,0,0,0-1.414-.46,11.174,11.174,0,0,0-2.453.8,6.7,6.7,0,0,0-2.436,1.806,3.455,3.455,0,0,0-.221.307c-.256.477-.477.971-.733,1.448a1.471,1.471,0,0,0-.153.886.591.591,0,0,0,.2.392,6.459,6.459,0,0,0,.579.341,2.007,2.007,0,0,0,1.175.153,2.9,2.9,0,0,1,1.6.29c.187.085.375.17.562.238a2.982,2.982,0,0,0,1.4.085c.273-.034.443.068.46.221,0,.136-.136.256-.375.307a3.094,3.094,0,0,1-2.027-.256,3.045,3.045,0,0,0-1.738-.341,2.293,2.293,0,0,1-1.295-.2.807.807,0,0,0-1.175.409,4.945,4.945,0,0,0-.358,1.21,22.54,22.54,0,0,0-.426,3.714c0,.613-.034,1.244-.017,1.857a1.106,1.106,0,0,0,.784,1.107,7.247,7.247,0,0,1,1.448.613,2.15,2.15,0,0,0,1.55.238,3.334,3.334,0,0,1,2.658.426,3.233,3.233,0,0,0,2.061.443c.256-.017.511-.051.767-.051a11.123,11.123,0,0,1,2.249.409.286.286,0,0,1,.273.238.861.861,0,0,1-.6.187A4.164,4.164,0,0,1,11.8,41a5.156,5.156,0,0,0-2.044-.153,3.789,3.789,0,0,1-2.351-.494,5.353,5.353,0,0,0-.63-.307,2.556,2.556,0,0,0-1.516-.051A2.69,2.69,0,0,1,3.1,39.616l-.187-.1a1.1,1.1,0,0,0-1.022-.136.641.641,0,0,0-.477.426,1.476,1.476,0,0,0-.1.545c0,.511,0,1.039.051,1.55.239,2.64.477,5.264.733,7.9a4.775,4.775,0,0,0,.2.852,1.352,1.352,0,0,0,.256.426.971.971,0,0,0,1.022.307,3.47,3.47,0,0,1,2.266.256l.187.068a1.8,1.8,0,0,0,1.158.034,2.232,2.232,0,0,1,.46-.1.3.3,0,0,1,.307.187.244.244,0,0,1-.17.307,2.466,2.466,0,0,1-1.4.239c-.375-.085-.733-.2-1.09-.324a2.638,2.638,0,0,0-1.363-.119,5.25,5.25,0,0,1-.9.051c-.307,0-.443.068-.528.358a.965.965,0,0,0-.034.494c.17,1.363.358,2.743.562,4.106a34.181,34.181,0,0,0,1.227,5.536,2.082,2.082,0,0,0,1.806,1.38,4.076,4.076,0,0,1,1.55.324,2.8,2.8,0,0,0,1.227.273c.17,0,.358-.034.528-.034s.375-.017.494.17a.712.712,0,0,1-.443.324,4.481,4.481,0,0,1-.664.1,3.144,3.144,0,0,1-1.363-.324,4.961,4.961,0,0,0-1.635-.307.464.464,0,0,0-.511.426.831.831,0,0,0,.051.358A12.676,12.676,0,0,0,6.83,67.741,2,2,0,0,0,8.4,68.61a2.738,2.738,0,0,0,1.55-.392,8.384,8.384,0,0,0,1.244-.92,15.754,15.754,0,0,0,2.589-3.117,4.867,4.867,0,0,0,.716-1.5.6.6,0,0,0-.562-.835,7.381,7.381,0,0,0-1.227-.017,3.962,3.962,0,0,1-1.346-.085,4.37,4.37,0,0,0-1.4-.307.246.246,0,0,1-.273-.256c0-.153.1-.239.256-.273h.2a4.74,4.74,0,0,1,.835.136,3.725,3.725,0,0,0,1.295.256,8.93,8.93,0,0,1,1.908,0,1.085,1.085,0,0,0,1.022-.426,3.982,3.982,0,0,0,.613-.988c.477-1.209.937-2.436,1.38-3.663q.741-2.1,1.431-4.242a5.791,5.791,0,0,0,.2-1.209.458.458,0,0,0-.579-.511c-.187.034-.358.1-.545.153a1.887,1.887,0,0,1-1.107,0c-.273-.068-.528-.1-.8-.153-.153-.017-.29-.051-.29-.221a.291.291,0,0,1,.256-.273l.239-.034a2.564,2.564,0,0,1,.63.1,1.775,1.775,0,0,0,1.073,0,3,3,0,0,1,.869-.153.78.78,0,0,0,.7-.358,2.681,2.681,0,0,0,.426-.988c.494-2.487.988-4.991,1.465-7.479.153-.835.273-1.686.409-2.521.068-.392-.17-.579-.562-.494a2.594,2.594,0,0,1-.715.1,4.174,4.174,0,0,1-.647-.068,2.046,2.046,0,0,0-1.312.187,2.567,2.567,0,0,1-1.5.341,3.744,3.744,0,0,1-.63-.1c-.119-.034-.221-.1-.2-.238,0-.153.136-.2.273-.221h.2a2.922,2.922,0,0,0,1.772-.307,1.655,1.655,0,0,1,.9-.221c.392,0,.784.051,1.175.068a1.408,1.408,0,0,0,1.175-.511,1.248,1.248,0,0,0,.358-.835c0-.886.017-1.772,0-2.64-.017-.664-.119-1.329-.187-1.993-.068-.511-.409-.6-.784-.409a1.339,1.339,0,0,1-.886.153,3.339,3.339,0,0,0-1.533.17,3.191,3.191,0,0,1-.579.136,1.921,1.921,0,0,1-.443,0,.337.337,0,0,1-.358-.29ZM11.8,13.654a13.621,13.621,0,0,0-.443,3.612c-.017.92.034,1.857.068,2.794a4.554,4.554,0,0,0,.136.818l.136.136.136-.136a.684.684,0,0,0,.051-.256,34.233,34.233,0,0,1,1.039-4.531,33.995,33.995,0,0,1,1.823-4.565A15.127,15.127,0,0,1,16.369,8.8a1.982,1.982,0,0,1,.307-.341.6.6,0,0,1,.664-.1.527.527,0,0,1,.238.579.763.763,0,0,1-.068.341,4.237,4.237,0,0,1-.307.767,38.189,38.189,0,0,0-1.857,3.969,27.623,27.623,0,0,0-1.652,5.332c-.153.784-.256,1.567-.358,2.351a3.274,3.274,0,0,0,0,.409l.119.17.238-.068.119-.17a11.171,11.171,0,0,1,2.351-3c.715-.647,1.448-1.278,2.146-1.925.613-.562,1.21-1.124,1.789-1.7a2.487,2.487,0,0,0,.715-1.516,1.343,1.343,0,0,0-1.141-1.55,1.242,1.242,0,0,0-.92.136c-.221.136-.426.273-.647.409-.119.068-.238.1-.341-.017a.222.222,0,0,1,0-.324,1.627,1.627,0,0,1,.409-.358A23.446,23.446,0,0,0,20.9,10.23a9.25,9.25,0,0,0,1.891-2.1,3.35,3.35,0,0,0,.562-1.925.829.829,0,0,0-.733-.835,2.064,2.064,0,0,0-1.414.29,1.8,1.8,0,0,1-.358.187c-.2.068-.341-.051-.29-.256.034-.119.068-.221.1-.341a5.959,5.959,0,0,0,.545-2.163,4.152,4.152,0,0,0-.17-1.652A1.366,1.366,0,0,0,19.3.571a2.469,2.469,0,0,0-.937.545,6.171,6.171,0,0,0-1.295,1.516,7.071,7.071,0,0,0-.9,2.232,5.065,5.065,0,0,1-.221.664.313.313,0,0,1-.239.136l-.153-.187A2.828,2.828,0,0,1,15.5,5.1a1.87,1.87,0,0,0-.562-1.193,1.4,1.4,0,0,0-2.146.256,2.057,2.057,0,0,0-.324.937A5.925,5.925,0,0,0,13,8.254l.664,1.38c.051.119.1.273-.051.375a.293.293,0,0,1-.375-.068c-.119-.119-.256-.221-.375-.324a.283.283,0,0,0-.358-.051c-.119.085-.085.2-.085.324A5.973,5.973,0,0,1,12.383,11c-.17.9-.375,1.789-.579,2.675ZM10.765,16.09h.085a1.176,1.176,0,0,0,.1-.63,17.833,17.833,0,0,1,.494-2.692c.17-.715.324-1.448.443-2.2A2.322,2.322,0,0,0,11.583,9a.446.446,0,0,0-.75-.136,3.3,3.3,0,0,0-.392.46,1.269,1.269,0,0,0-.153.256.275.275,0,0,1-.307.136c-.136-.034-.153-.17-.17-.273a.662.662,0,0,1,.034-.256A13.335,13.335,0,0,0,10,6.107a5.3,5.3,0,0,0-.8-2.521,2.586,2.586,0,0,0-1.158-.971,1.111,1.111,0,0,0-1.669.92c-.034.187-.051.392-.085.579-.017.153-.034.324-.238.358s-.307-.085-.392-.238a4.631,4.631,0,0,1-.187-.426A8.56,8.56,0,0,0,4.53,2.07,3.988,3.988,0,0,0,3.184.86,1.2,1.2,0,0,0,1.5,1.354a1.988,1.988,0,0,0-.17.443,3.849,3.849,0,0,0,.187,2.146,9.374,9.374,0,0,0,1.55,2.794,6.5,6.5,0,0,1,.409.545.222.222,0,0,1-.017.324.211.211,0,0,1-.29-.017c-.2-.136-.409-.273-.6-.426a2.424,2.424,0,0,0-.937-.409C.85,6.618.407,7.061.595,7.828A4.688,4.688,0,0,0,1.055,9a8.514,8.514,0,0,0,2.879,2.9c.085.051.153.119.238.17.085.085.187.187.119.307a.318.318,0,0,1-.273.119,5.812,5.812,0,0,1-.732-.1.715.715,0,0,0-.9.545,1.653,1.653,0,0,0,.085,1.209,3.236,3.236,0,0,0,.9,1.073c.613.46,1.227.92,1.857,1.329a11.381,11.381,0,0,1,4.361,4.4l.153.153h.068v-.256c-.034-.307-.085-.613-.136-.937A56.847,56.847,0,0,0,8.244,13.62c-.324-1.21-.767-2.385-1.141-3.577a3.772,3.772,0,0,1-.29-1.38.426.426,0,0,1,.494-.443.846.846,0,0,1,.579.273A5.962,5.962,0,0,1,8.295,9a11.35,11.35,0,0,1,1.056,2.2,34.8,34.8,0,0,1,1.329,4.548c.034.119.085.221.119.341ZM11.77,27.555v-.221a88.556,88.556,0,0,0-1.721-11.788,26.175,26.175,0,0,0-1.533-4.923c-.221-.494-.511-.971-.767-1.448-.068-.119-.136-.29-.341-.187-.17.085-.051.239,0,.341l.307.971c.341,1.022.7,2.044.988,3.083.324,1.124.579,2.283.869,3.424.477,1.908.75,3.85,1.039,5.792a43.372,43.372,0,0,1,.545,4.94.347.347,0,0,0,.307.375c.153,0,.29-.119.324-.341Zm.647.1h0a.672.672,0,0,0,.085-.238v-.443c-.017-1.312.068-2.623.17-3.935a29.043,29.043,0,0,1,.886-5.4,35.831,35.831,0,0,1,2.76-7c.221-.443.46-.886.664-1.346.051-.1.153-.256,0-.341-.17-.085-.2.119-.256.2a28.569,28.569,0,0,0-3.169,6.678,25.766,25.766,0,0,0-.954,3.918c-.187,1.09-.358,2.181-.528,3.288a4.353,4.353,0,0,0-.068,1.056c.085,1.107.2,2.232.307,3.339v.119Z" transform="translate(55.401 81.216)" fill="#0a0a0a"/><path d="M7.041,1.918c-.221-.068-.477-.136-.733-.221a2.96,2.96,0,0,0-1.84-.1,2,2,0,0,1-1.7-.221,2.064,2.064,0,0,0-1.414-.29A1.18,1.18,0,0,1,.227.709a1.047,1.047,0,0,1-.2-.324A.281.281,0,0,1,.142.027a.244.244,0,0,1,.324.1A.826.826,0,0,0,1.385.5,2.4,2.4,0,0,1,3.021.862a1.467,1.467,0,0,0,1.244.17A3.542,3.542,0,0,1,6.6,1.169a2.865,2.865,0,0,0,.545.153,1.844,1.844,0,0,0,1.244-.1.525.525,0,0,1,.307-.085.348.348,0,0,1,.256.136c.034.068-.017.2-.068.29L8.694,1.7a2.338,2.338,0,0,1-1.635.187Z" transform="translate(61.935 126.477)" fill="#0a0a0a"/><path d="M6.935,1.022C6.782.971,6.628.937,6.492.886A1.834,1.834,0,0,0,5.248.835a6.088,6.088,0,0,1-.8.187,2.017,2.017,0,0,1-1.141-.2A2.8,2.8,0,0,0,1.518.681,1.668,1.668,0,0,1,.24.528L.036.375A.43.43,0,0,1,.019.085C.053.034.172.017.257,0L.393.034a1.406,1.406,0,0,0,1.141.1,2.943,2.943,0,0,1,1.908.17,2.089,2.089,0,0,0,1.6.068A2.349,2.349,0,0,1,6.679.392,1.833,1.833,0,0,0,7.923.477c.221-.068.409,0,.443.119s-.085.273-.29.358a1.821,1.821,0,0,1-1.124.068Z" transform="translate(61.36 137.067)" fill="#0a0a0a"/><path d="M2.338.674a2.113,2.113,0,0,1-.17.852,1.837,1.837,0,0,1-.358.579A.968.968,0,0,1,.175,1.85,2.4,2.4,0,0,1,.107.231C.158.027.277-.024.43.01S.618.163.618.35a8.158,8.158,0,0,0-.034.9.548.548,0,0,0,.426.6.574.574,0,0,0,.579-.409A6.932,6.932,0,0,0,1.81.589v-.2c.034-.2.119-.307.256-.29.153,0,.256.1.256.307V.674Z" transform="translate(65.871 114.962)" fill="#111"/><path d="M.857.342a1.077,1.077,0,0,1-.136.886l-.068.085a.34.34,0,0,1-.579-.085A1.17,1.17,0,0,1,.244.12.315.315,0,0,1,.789.205L.84.342Z" transform="translate(63.486 114.255)" fill="#111"/><path d="M.857.342a1.077,1.077,0,0,1-.136.886l-.068.085a.34.34,0,0,1-.579-.085A1.17,1.17,0,0,1,.244.12.315.315,0,0,1,.789.205L.84.342Z" transform="translate(69.567 114.715)" fill="#111"/><path d="M36.019,28.231c.17.017.256.034.358.051H36.7a1.391,1.391,0,0,1,1.4,1.073,2.262,2.262,0,0,1-.17,1.6,5.093,5.093,0,0,1-1.482,1.806,14.087,14.087,0,0,1-2.606,1.6A29.7,29.7,0,0,0,30.6,36.119a10.74,10.74,0,0,0-1.363,1.107,3.661,3.661,0,0,0-1.09,2.709,1.541,1.541,0,0,0,1.158,1.414c1.005.273,2.044.443,3.032.818a6.981,6.981,0,0,1,1.942,1.073,12.069,12.069,0,0,1,3.39,4.14,10.053,10.053,0,0,1,.63,1.738c.2.767.392,1.533.528,2.317a8.427,8.427,0,0,1-.153,3.39A13.092,13.092,0,0,1,36.1,60.139a10.615,10.615,0,0,1-.971.988l-1.993,1.84a8.163,8.163,0,0,0-1.618,2.044A7.767,7.767,0,0,0,30.551,69a8.185,8.185,0,0,1-.153,1.448.978.978,0,0,1-.784.8.807.807,0,0,1-.988-.358c-.153-.256-.273-.545-.409-.818-.187-.375-.358-.767-.562-1.124a4.378,4.378,0,0,0-2.283-1.891,41.36,41.36,0,0,0-4.242-1.431,18.106,18.106,0,0,1-3.7-1.448,10.487,10.487,0,0,1-4.889-5.622,10.736,10.736,0,0,1-.613-1.7,11.239,11.239,0,0,1,2.811-10.375c.528-.562,1.09-1.073,1.652-1.6a11.859,11.859,0,0,1,2.01-1.414,6.452,6.452,0,0,0,.664-.528.694.694,0,0,0,.238-.579,1.7,1.7,0,0,0-.29-.971,5.911,5.911,0,0,0-1.312-1.295c-.477-.324-.937-.647-1.414-.954a4.571,4.571,0,0,0-3.083-.7c-.784.085-1.55.187-2.334.273A6.934,6.934,0,0,1,8.1,38.589a3.781,3.781,0,0,1-1.55-.818,2.092,2.092,0,0,1-.7-1.414,1.721,1.721,0,0,1,.273-1.005c.051-.085.119-.17.187-.273.1-.153.068-.221-.119-.256l-.63-.1a7.213,7.213,0,0,1-3.066-1.295A5.277,5.277,0,0,1,.62,30.7a2.094,2.094,0,0,1,1.312-2.623c.29-.1.341-.307.17-.6-.239-.409-.494-.818-.733-1.244A11,11,0,0,1,.092,22.78a5.257,5.257,0,0,1,.221-2.811A2.96,2.96,0,0,1,1.88,18.3,1.951,1.951,0,0,1,3.4,18.215a4.742,4.742,0,0,1,1.772,1.227,7.526,7.526,0,0,1,1.414,2.01.576.576,0,0,0,.852.29,1.733,1.733,0,0,1,1.584,0c.256.119.341.1.528-.119.1-.119.221-.221.324-.341.17-.17.17-.307-.034-.443-.358-.239-.733-.46-1.09-.716a9.547,9.547,0,0,1-2.078-1.806,3.914,3.914,0,0,1-.733-1.227,2.149,2.149,0,0,1-.085-1.039,1.485,1.485,0,0,1,1.192-1.227c.2-.051.409-.085.613-.119.375-.085.443-.29.187-.579a9.231,9.231,0,0,1-1.567-2.368,5.958,5.958,0,0,1-.613-2.964,5.01,5.01,0,0,1,.2-1.005A2.221,2.221,0,0,1,7.519,6.256a2.873,2.873,0,0,1,.767-.017l.17.034c.494.1.681-.085.63-.579a9.266,9.266,0,0,1,0-2.061,5.138,5.138,0,0,1,1.005-2.5A2.8,2.8,0,0,1,11.284.191a2.435,2.435,0,0,1,2.709.562,6.011,6.011,0,0,1,1.482,2.3,8.4,8.4,0,0,1,.494,2.589,3.612,3.612,0,0,0,.1.733c.051.238.153.29.375.187a2.017,2.017,0,0,1,1.039-.273,1.717,1.717,0,0,1,1.073.341,3.611,3.611,0,0,1,1.414,2.164,7.158,7.158,0,0,1,0,2.947c-.136.7-.341,1.4-.511,2.1a2.494,2.494,0,0,0-.085.341c-.034.307.085.409.392.324l.221-.085a1.467,1.467,0,0,1,1.652.358,2.973,2.973,0,0,1,.733,1.414,6.607,6.607,0,0,1,.085,2.521,16.5,16.5,0,0,1-1.022,3.611,1.991,1.991,0,0,0-.1.341c0,.1.051.17.17.136l.153-.085a1.519,1.519,0,0,1,1.789.409,3.5,3.5,0,0,1,.681,1.38,8.359,8.359,0,0,1,.17,3.117c-.068.6,0,.664.6.63a3.42,3.42,0,0,1,.715.085c.119.017.238.136.358,0,.1-.119.017-.221,0-.324a22.391,22.391,0,0,1-.9-3.288,5.3,5.3,0,0,1,.1-2.368A3.178,3.178,0,0,1,26.292,20.7a1.677,1.677,0,0,1,1.38-.341c.29.051.392-.034.307-.324-.085-.358-.2-.7-.29-1.039a5.025,5.025,0,0,1-.221-1.516,2.732,2.732,0,0,1,2.351-2.692,2.875,2.875,0,0,1,2.1.528,4.81,4.81,0,0,1,1.84,2.487,10.849,10.849,0,0,1,.528,3.39c0,.136,0,.29.136.324a.545.545,0,0,0,.358-.051c.2-.085.392-.238.6-.324a1.75,1.75,0,0,1,2.317,1.005,3.278,3.278,0,0,1,.153,1.618,6.69,6.69,0,0,1-.818,2.572c-.256.477-.545.954-.818,1.431-.068.136-.119.273-.2.477Zm-12.5,26.3a1.3,1.3,0,0,1-.273.187c-.341.1-.681.187-1.022.29a9.087,9.087,0,0,0-.886.307,3.991,3.991,0,0,0-.46.256,2.772,2.772,0,0,1-1.721.392l-.9-.1a2.544,2.544,0,0,0-1.465.221c-.307.153-.63.29-.937.426a2.75,2.75,0,0,1-1.806.136,2.717,2.717,0,0,0-.511-.1.519.519,0,0,0-.273.051.853.853,0,0,0-.494,1.09,4.423,4.423,0,0,0,.273.75,10.051,10.051,0,0,0,1.874,3.083,3.823,3.823,0,0,0,.7.579A1.689,1.689,0,0,0,16.8,62.4a6,6,0,0,1,1.346-.068,2.334,2.334,0,0,0,1.227-.239c.256-.119.528-.221.767-.358a2.662,2.662,0,0,1,1.738-.221,4.013,4.013,0,0,0,.784,0c.119,0,.221-.051.324-.051.221,0,.273.136.136.307A.693.693,0,0,1,22.8,62a1.67,1.67,0,0,1-1.039.068,1.864,1.864,0,0,0-1.414.187c-.153.085-.324.153-.477.221a3.2,3.2,0,0,1-2.01.409h-.068a.614.614,0,0,0-.341.1c-.29.2-.273.477.034.664a3.665,3.665,0,0,0,.443.238,17.507,17.507,0,0,0,3.646,1.4,43.1,43.1,0,0,1,4.378,1.567,4.56,4.56,0,0,1,2.5,2.436c.187.426.375.835.579,1.261.136.29.307.358.6.221a.734.734,0,0,0,.341-.341,2.811,2.811,0,0,0,.153-.732c.051-.733.051-1.465.136-2.2a7.221,7.221,0,0,1,2.044-4.276c.75-.767,1.55-1.5,2.351-2.215a11.771,11.771,0,0,0,3.543-6,1.316,1.316,0,0,0,.034-.256c0-.307-.1-.494-.375-.494a1.751,1.751,0,0,0-.664.1,2.637,2.637,0,0,0-.6.358,2.121,2.121,0,0,1-2.027.341c-.256-.068-.511-.153-.767-.221a1.468,1.468,0,0,0-1.192.17c-.2.119-.392.255-.6.392a1.942,1.942,0,0,1-1.21.358c-.221,0-.443-.017-.681-.034a1.62,1.62,0,0,0-.852.153,2.719,2.719,0,0,0-.392.273.209.209,0,0,1-.29-.017.425.425,0,0,1-.051-.29l.153-.2a4.224,4.224,0,0,1,.664-.358,2.66,2.66,0,0,1,1.158-.085,1.77,1.77,0,0,0,1.38-.392c.085-.068.17-.119.273-.187a2.1,2.1,0,0,1,1.874-.307c.273.085.545.17.818.238A1.438,1.438,0,0,0,36.19,54.3a3.064,3.064,0,0,1,1.38-.664,1.016,1.016,0,0,0,.886-.937,3.555,3.555,0,0,0-.136-1.4.942.942,0,0,0-.937-.664,1.9,1.9,0,0,1-.613-.085,1.519,1.519,0,0,0-1.346.221,2.6,2.6,0,0,1-1.584.443,2.263,2.263,0,0,0-1.363.375l-.1.051c-.085,0-.221,0-.256-.051v-.255a1.052,1.052,0,0,1,.307-.307,2.188,2.188,0,0,1,1.38-.358,2.55,2.55,0,0,0,1.482-.426l.17-.1a1.469,1.469,0,0,1,1.192-.17,1.735,1.735,0,0,0,.784-.017.4.4,0,0,0,.358-.46,1.781,1.781,0,0,0-.136-.664c-.273-.664-.545-1.329-.852-1.959a5.821,5.821,0,0,0-1.346-1.789.98.98,0,0,0-1.261-.153,1.7,1.7,0,0,1-1.516.341,1.751,1.751,0,0,0-1.278.2,2.27,2.27,0,0,1-1.721.29,1.7,1.7,0,0,0-1.278.2,1.856,1.856,0,0,1-1.533.136h0a.175.175,0,0,1,0-.341,2.058,2.058,0,0,1,.324-.017,1.589,1.589,0,0,0,.971-.187,2.058,2.058,0,0,1,1.635-.273,1.737,1.737,0,0,0,1.329-.239,2.034,2.034,0,0,1,1.652-.307,1.553,1.553,0,0,0,1.346-.426.183.183,0,0,0,.017-.307c-.119-.119-.238-.239-.358-.341a8.08,8.08,0,0,0-1.7-.988,11.438,11.438,0,0,0-1.942-.562,13.639,13.639,0,0,0-6.473.119c-1.192.324-2.368.715-3.526,1.124a8.227,8.227,0,0,0-1.755.818,16.272,16.272,0,0,0-2.93,2.351A10.863,10.863,0,0,0,12.8,50.718a11.993,11.993,0,0,0-.528,4.4.925.925,0,0,0,.9.852,10.194,10.194,0,0,1,1.039.136,2.423,2.423,0,0,0,1.516-.136c.307-.136.63-.29.937-.426a2.6,2.6,0,0,1,1.295-.256c.426.034.852.085,1.295.136a2.082,2.082,0,0,0,1.278-.238c.2-.119.392-.256.613-.358a4.4,4.4,0,0,1,.9-.324c.358-.085.733-.085,1.107-.136a.351.351,0,0,1,.392.187ZM14.367,17.567a32.285,32.285,0,0,0,1.4,4.906,44.43,44.43,0,0,0,3.39,6.729c.75,1.227,1.55,2.436,2.317,3.646a1.961,1.961,0,0,0,.238.29.376.376,0,0,0,.63-.068,1.542,1.542,0,0,0,.221-.443c.1-.307.187-.613.307-.92a18.277,18.277,0,0,0,.971-4.054,8,8,0,0,0-.17-3.117,2.54,2.54,0,0,0-.528-1.073,1.008,1.008,0,0,0-1.329-.239,2.459,2.459,0,0,0-.562.46,2.927,2.927,0,0,0-.647,1.141c-.068.239-.238.375-.392.324-.136-.051-.187-.221-.1-.477.238-.7.477-1.414.733-2.112a20.714,20.714,0,0,0,1.056-3.3,6.913,6.913,0,0,0,.051-2.9,2.515,2.515,0,0,0-.6-1.227.973.973,0,0,0-1.141-.273,2.861,2.861,0,0,0-1.261.937c-.187.221-.358.477-.545.7-.1.119-.221.221-.375.136a.363.363,0,0,1-.136-.409,4.017,4.017,0,0,1,.2-.477,14.092,14.092,0,0,0,1.4-4.344,6.479,6.479,0,0,0-.068-2.623,3.142,3.142,0,0,0-1.022-1.6,1.4,1.4,0,0,0-1.891.068c-.187.2-.358.426-.528.63a3.865,3.865,0,0,1-.307.426l-.238.119c-.085-.034-.136-.153-.17-.238l.034-.221a2.183,2.183,0,0,0,.085-.46c.034-.664.068-1.329.051-1.993a6.446,6.446,0,0,0-.818-3.066A4.279,4.279,0,0,0,13.294.856a1.859,1.859,0,0,0-1.738-.2,2.728,2.728,0,0,0-1.414,1.38,5.559,5.559,0,0,0-.579,2.555,9.263,9.263,0,0,0,.392,2.64c.051.153.068.29-.1.392-.153.085-.256,0-.358-.1C9.359,7.4,9.24,7.278,9.1,7.159a1.66,1.66,0,0,0-2.726.784,4.106,4.106,0,0,0-.085,2.266,8.038,8.038,0,0,0,1.38,2.879,9.388,9.388,0,0,0,1.874,1.891,2.887,2.887,0,0,1,.409.375c.136.187.068.307-.153.358a.66.66,0,0,1-.409-.085,3.027,3.027,0,0,0-2.334-.29,1.078,1.078,0,0,0-.784,1.005,1.566,1.566,0,0,0,.239.9,6.135,6.135,0,0,0,1.124,1.346,22.039,22.039,0,0,0,4.071,2.777l.221.136.085.256c-.017.119-.136.153-.256.136l-.221-.068a2.414,2.414,0,0,0-.988-.085.545.545,0,0,0-.426.818,1.3,1.3,0,0,0,.2.324,6.052,6.052,0,0,1,1.158,3.2c.017.256.034.528.068.784.034.273.1.307.341.17a1.676,1.676,0,0,1,1.312-.119,2.285,2.285,0,0,1,1.244.937,4.112,4.112,0,0,1,.681,1.584c.1.494.17.988.238,1.482a1.628,1.628,0,0,0,.341,1.005,3.134,3.134,0,0,0,.767.579,14.589,14.589,0,0,1,2.368,1.431c.068.068.17.153.256.051v-.273a3.722,3.722,0,0,0-.273-.511c-.6-.937-1.175-1.874-1.772-2.811a31.62,31.62,0,0,1-2.419-4.719,27.3,27.3,0,0,1-1.789-5.656,38.68,38.68,0,0,1-.715-6.1,13.766,13.766,0,0,1-.034-1.874,8.489,8.489,0,0,0-.17-2.862c-.136-.545-.273-1.107-.392-1.652a1.831,1.831,0,0,1-.017-.528.543.543,0,0,1,.852-.46,1.9,1.9,0,0,1,.852.9,6.864,6.864,0,0,1,.7,3.39c-.034.7-.051,1.4-.034,2.078a25.1,25.1,0,0,0,.528,4.651ZM3.277,28.385l-.051.085a3.007,3.007,0,0,1-.392,0,1.518,1.518,0,0,0-.869.136,1.594,1.594,0,0,0-.835,2.061A4.734,4.734,0,0,0,3.516,33.5a8.673,8.673,0,0,0,3.748.9l.2.034.153.187-.119.221-.136.051a1.494,1.494,0,0,0-.528,2.5,2.909,2.909,0,0,0,1.056.63,5.035,5.035,0,0,0,2.3.256c.767-.085,1.533-.187,2.3-.273a6.3,6.3,0,0,1,1.959-.034c.119.017.273.1.341-.068.051-.17-.119-.2-.221-.256-.937-.63-1.891-1.227-2.811-1.874a12.82,12.82,0,0,1-3.782-3.816C7.4,31.008,6.821,30.02,6.31,29.015c-.579-1.175-1.09-2.385-1.635-3.577a1.839,1.839,0,0,1-.17-.6.526.526,0,0,1,.784-.579.964.964,0,0,1,.494.443c.477.937.971,1.857,1.431,2.794a24.68,24.68,0,0,0,2.129,3.748A8.381,8.381,0,0,0,11.676,33.5c1.073.664,2.181,1.295,3.254,1.942.17.1.358.221.528.307s.29.034.273-.153a1.012,1.012,0,0,0-.119-.443A7.252,7.252,0,0,1,15,33.1c-.068-.511-.1-1.022-.153-1.516a10.1,10.1,0,0,0-.375-2.368,3.751,3.751,0,0,0-.835-1.448,1.25,1.25,0,0,0-2.044.239c-.085.136-.153.273-.238.409-.068.1-.153.2-.29.153a.459.459,0,0,1-.187-.256,1.257,1.257,0,0,1,0-.358,9.191,9.191,0,0,0,0-2.163A5.358,5.358,0,0,0,9.785,23.1a2.748,2.748,0,0,0-1.175-.937,1.081,1.081,0,0,0-1.363.494,2.368,2.368,0,0,0-.2.7c-.034.119,0,.256-.068.375a.373.373,0,0,1-.221.2c-.136.017-.2-.085-.221-.221-.034-.221-.068-.426-.085-.647a4.622,4.622,0,0,0-.341-1.431,6.921,6.921,0,0,0-1.976-2.453,2.7,2.7,0,0,0-1.107-.545,1.13,1.13,0,0,0-.75.034,2.577,2.577,0,0,0-1.278,1.09,3.342,3.342,0,0,0-.443,1.448,6.859,6.859,0,0,0,.562,3.3A15.592,15.592,0,0,0,3.09,28.044a2.31,2.31,0,0,1,.17.358Zm30.987-5.656a.29.29,0,0,1-.511-.187h0v-.647a11.079,11.079,0,0,0-.409-3.748A4.756,4.756,0,0,0,31.76,15.8a2.41,2.41,0,0,0-1.669-.545,2.2,2.2,0,0,0-2.061,2.572,12.5,12.5,0,0,0,.767,2.811,6.108,6.108,0,0,1,.273.954.437.437,0,0,1-.119.307c-.119.085-.238,0-.324-.1s-.153-.221-.256-.324a3.173,3.173,0,0,0-.392-.443.83.83,0,0,0-.937-.153,2.7,2.7,0,0,0-.6.375,2.974,2.974,0,0,0-.92,2.078,7.575,7.575,0,0,0,.375,2.692c.341,1.107.733,2.2,1.107,3.288.085.256.085.409-.051.477-.136.085-.256.034-.46-.17-.221-.222-.426-.426-.664-.63a1.112,1.112,0,0,0-.818-.273,1.066,1.066,0,0,0-1.005.92,9.017,9.017,0,0,0-.221.92,2.239,2.239,0,0,0,.085,1.295,5.548,5.548,0,0,0,.784,1.192A9.47,9.47,0,0,1,26.019,35.2l.1.17c.119.136.256.119.358-.034l.051-.17a26.663,26.663,0,0,1,1.7-4.736c.443-1.039.886-2.078,1.295-3.117a14.292,14.292,0,0,0,.954-4.378,15.036,15.036,0,0,0-.153-2.47,3.708,3.708,0,0,1-.017-.971.574.574,0,0,1,1.005-.358,1.9,1.9,0,0,1,.29.358A4.085,4.085,0,0,1,32.1,20.8a9.783,9.783,0,0,1,.085,3.3,16.98,16.98,0,0,1-.852,3.68c-.494,1.38-.954,2.76-1.482,4.123A29.269,29.269,0,0,0,28.541,36a.8.8,0,0,0-.034.341c.034.341.29.46.579.256l.1-.1c.392-.307.767-.613,1.175-.886a31.466,31.466,0,0,1,3.492-1.891,12.413,12.413,0,0,0,2.232-1.363,4.719,4.719,0,0,0,1.346-1.55,2.083,2.083,0,0,0,.256-1.107.94.94,0,0,0-1.124-.937,2.4,2.4,0,0,0-.75.238c-.29.153-.562.341-.852.528l-.153.1c-.119.051-.256.136-.375,0a.259.259,0,0,1,.017-.341,3.015,3.015,0,0,1,.273-.375,14.19,14.19,0,0,0,1.959-2.964,6.588,6.588,0,0,0,.681-2.266,3,3,0,0,0-.085-1.227,1.245,1.245,0,0,0-1.772-.818,2.472,2.472,0,0,0-1.107.937l-.1.136ZM13.226,9.305a3.87,3.87,0,0,0-.1-.511,4.578,4.578,0,0,0-.63-1.55c-.085-.136-.2-.273-.392-.17-.153.085-.1.238-.068.375.085.358.17.733.256,1.09a11.929,11.929,0,0,1,.307,3.39,39.327,39.327,0,0,0,.29,5.485A26.339,26.339,0,0,0,14.333,23.7a36.252,36.252,0,0,0,3.237,6.576c.426.7.886,1.4,1.329,2.078a33.205,33.205,0,0,1,2.061,3.935A11.282,11.282,0,0,1,22.2,40.735a1.012,1.012,0,0,0,.119.443.744.744,0,0,0,.8.375.612.612,0,0,0,.477-.6v-.29c-.068-.443-.153-.869-.238-1.295a32.409,32.409,0,0,0-1.09-3.594A15.725,15.725,0,0,0,20.551,32.3c-.324-.477-.664-.954-.954-1.448-.9-1.584-1.806-3.186-2.692-4.787a18.219,18.219,0,0,1-1.414-3.1c-.119-.341-.221-.7-.324-1.039-.256-.75-.528-1.5-.767-2.249a22.6,22.6,0,0,1-.681-3.049,29.4,29.4,0,0,1-.341-5.042,8.5,8.5,0,0,0-.119-2.283ZM30.875,19.441l-.085.034c0,.1-.034.2-.034.307a4.623,4.623,0,0,0,.068.7c.051.528.136,1.056.153,1.584a14.809,14.809,0,0,1-.562,4.242,25.15,25.15,0,0,1-1.652,4.242A23.523,23.523,0,0,0,26.8,36.477a15.6,15.6,0,0,0-.238,3.986.451.451,0,0,0,.256.426c.324.153.9-.051.818-.545a9.224,9.224,0,0,1,0-2.47,22.8,22.8,0,0,1,1.414-5.485c.477-1.278.954-2.555,1.414-3.833a19.679,19.679,0,0,0,1.158-4.94,7.692,7.692,0,0,0-.187-3.117,6.641,6.641,0,0,0-.341-.8,1.192,1.192,0,0,0-.238-.273ZM23.822,39.168c.051.256.119.511.153.784a1.627,1.627,0,0,0,.392.869,1.212,1.212,0,0,0,1.039.375c.375-.017.6-.392.579-.835,0-.324-.034-.647-.034-.971,0-.511.068-1.039.068-1.55a6.36,6.36,0,0,0-1.073-3.526c-.409-.613-.869-1.192-1.295-1.789l-.1-.1a.258.258,0,0,0-.409.051l-.119.2a13.814,13.814,0,0,0-.358,1.448,5.6,5.6,0,0,0,.375,2.419c.273.869.767,2.623.767,2.623Zm-2.334.239a7.792,7.792,0,0,0-.835-2.4,8.82,8.82,0,0,0-4.685-4.123c-.29-.119-.409,0-.358.29a8.471,8.471,0,0,0,.409,1.465,5.777,5.777,0,0,0,1.806,2.453,14.882,14.882,0,0,1,2.181,2.334c.324.443.681.886,1.039,1.312.1.119.221.239.392.17a.418.418,0,0,0,.221-.392,4,4,0,0,0-.017-.443c-.034-.239-.085-.46-.136-.7Zm-16.32-14.7a.571.571,0,0,0,0,.528c.273.6.545,1.175.8,1.772a38.773,38.773,0,0,0,1.772,3.577,14.07,14.07,0,0,0,4.514,4.872c1.107.733,2.232,1.465,3.356,2.2a12.83,12.83,0,0,1,2.9,2.249c.528.613.988,1.261,1.482,1.891a1.052,1.052,0,0,0,.307.307.247.247,0,0,0,.392-.238.867.867,0,0,0-.1-.358c-.136-.273-.273-.528-.409-.784a8.012,8.012,0,0,0-3.3-3.424,8.667,8.667,0,0,1-.852-.511c-1.295-.886-2.658-1.635-4-2.419A10.238,10.238,0,0,1,8.95,31.57a19.928,19.928,0,0,1-1.908-3.237c-.477-1.005-.988-2.01-1.5-3a7.2,7.2,0,0,0-.392-.63Z" transform="translate(22.668 78.614)" fill="#0a0a0a"/><path d="M36.2,28.432l-.034.221c.153.017.256.034.375.051h.324a1.168,1.168,0,0,1,1.175.92,1.758,1.758,0,0,1,.068.511,2.046,2.046,0,0,1-.221.937,4.921,4.921,0,0,1-1.414,1.721A13.467,13.467,0,0,1,33.9,34.36a26.319,26.319,0,0,0-3.254,1.772,9.968,9.968,0,0,0-1.4,1.141A3.966,3.966,0,0,0,28.091,40.1v.034h0A1.781,1.781,0,0,0,29.4,41.771a27.951,27.951,0,0,1,3.015.818,7.041,7.041,0,0,1,1.891,1.039A11.693,11.693,0,0,1,37.648,47.7a9.184,9.184,0,0,1,.613,1.7c.2.75.375,1.533.528,2.3a7.447,7.447,0,0,1,.1,1.227,9.633,9.633,0,0,1-.256,2.078,12.6,12.6,0,0,1-2.521,5.213,10.211,10.211,0,0,1-.954.971c-.647.613-1.329,1.227-1.993,1.84a9.043,9.043,0,0,0-1.669,2.1,8.216,8.216,0,0,0-1.005,4.088,7.809,7.809,0,0,1-.153,1.414.778.778,0,0,1-.63.63,1.317,1.317,0,0,1-.256.034.585.585,0,0,1-.511-.307,5.847,5.847,0,0,1-.392-.8c-.187-.375-.358-.767-.562-1.141a4.673,4.673,0,0,0-2.4-1.993,39.078,39.078,0,0,0-4.259-1.431,18.223,18.223,0,0,1-3.646-1.431,10.323,10.323,0,0,1-4.8-5.519A10.534,10.534,0,0,1,12.265,57a14.273,14.273,0,0,1-.256-2.64,10.6,10.6,0,0,1,3-7.53c.511-.545,1.073-1.056,1.635-1.584a11.774,11.774,0,0,1,1.976-1.4,5.474,5.474,0,0,0,.7-.545.934.934,0,0,0,.324-.7v-.051a1.825,1.825,0,0,0-.341-1.09,6.012,6.012,0,0,0-1.363-1.346c-.477-.324-.937-.647-1.431-.954A4.794,4.794,0,0,0,13.9,38.4a4.017,4.017,0,0,0-.63.034c-.784.085-1.55.187-2.334.273a10.4,10.4,0,0,1-1.244.085A5.2,5.2,0,0,1,8.245,38.6,3.3,3.3,0,0,1,6.8,37.836a1.882,1.882,0,0,1-.63-1.278V36.49a1.619,1.619,0,0,1,.238-.818,1.264,1.264,0,0,0,.17-.273.383.383,0,0,0,.085-.256.319.319,0,0,0-.136-.256l-.2-.068c-.221-.034-.426-.068-.63-.1a6.878,6.878,0,0,1-2.964-1.261A4.96,4.96,0,0,1,.937,30.851a1.869,1.869,0,0,1-.085-.6,1.911,1.911,0,0,1,1.261-1.772A.769.769,0,0,0,2.4,28.3a.45.45,0,0,0,.119-.324A.81.81,0,0,0,2.4,27.58c-.238-.426-.494-.818-.715-1.244a10.706,10.706,0,0,1-1.244-3.39A7.357,7.357,0,0,1,.358,21.89a4.63,4.63,0,0,1,.29-1.652A2.7,2.7,0,0,1,2.1,18.688a1.917,1.917,0,0,1,.784-.17,1.635,1.635,0,0,1,.562.1A4.448,4.448,0,0,1,5.128,19.8a7.157,7.157,0,0,1,1.38,1.959.808.808,0,0,0,.733.511.977.977,0,0,0,.426-.1,1.378,1.378,0,0,1,.664-.17,1.73,1.73,0,0,1,.733.187.728.728,0,0,0,.341.1.471.471,0,0,0,.273-.085l.187-.187c.085-.1.187-.2.307-.324a.628.628,0,0,0,.2-.392.488.488,0,0,0-.256-.409c-.358-.238-.733-.477-1.09-.7A9.187,9.187,0,0,1,7,18.415a3.693,3.693,0,0,1-.7-1.158,1.828,1.828,0,0,1-.1-.6,1.048,1.048,0,0,1,.034-.324,1.181,1.181,0,0,1,.341-.681,1.612,1.612,0,0,1,.7-.375c.17-.051.375-.068.6-.119a.779.779,0,0,0,.341-.153.419.419,0,0,0,.17-.341.67.67,0,0,0-.2-.443,9.438,9.438,0,0,1-1.533-2.317,6.073,6.073,0,0,1-.613-2.47,3.015,3.015,0,0,1,.017-.392,6.505,6.505,0,0,1,.187-.971,1.992,1.992,0,0,1,1.5-1.38,1,1,0,0,1,.238-.034h.46V6.439L8.4,6.661l.17.034L8.6,6.473l-.051.221a1.7,1.7,0,0,0,.273.034.57.57,0,0,0,.46-.187.715.715,0,0,0,.153-.494v-.17a6.423,6.423,0,0,1-.068-.988,6.87,6.87,0,0,1,.068-1.022,4.9,4.9,0,0,1,.971-2.4A2.557,2.557,0,0,1,11.5.6a2.466,2.466,0,0,1,.886-.17,2.314,2.314,0,0,1,1.6.7,5.779,5.779,0,0,1,1.431,2.215,8.37,8.37,0,0,1,.477,2.521,3.613,3.613,0,0,0,.1.75.56.56,0,0,0,.119.273.39.39,0,0,0,.29.136.628.628,0,0,0,.29-.085,2.091,2.091,0,0,1,.937-.256h0a1.594,1.594,0,0,1,.954.307,3.389,3.389,0,0,1,1.329,2.044,5.918,5.918,0,0,1,.136,1.346,7.506,7.506,0,0,1-.153,1.516c-.136.681-.324,1.38-.511,2.078-.017.1-.068.221-.085.358v.136a.377.377,0,0,0,.1.324.426.426,0,0,0,.324.136.662.662,0,0,0,.256-.034h0L20.2,14.8h0a1.51,1.51,0,0,1,.511-.1,1.226,1.226,0,0,1,.9.409,2.775,2.775,0,0,1,.681,1.312,5.229,5.229,0,0,1,.153,1.363c0,.358-.034.715-.068,1.073a15.693,15.693,0,0,1-1.022,3.56,1.852,1.852,0,0,0-.1.392v.051l.085.221a.336.336,0,0,0,.238.1h.136v-.034l.17-.085-.1-.187.085.2a1.316,1.316,0,0,1,.545-.119,1.256,1.256,0,0,1,.988.477,3.314,3.314,0,0,1,.647,1.295,6.982,6.982,0,0,1,.238,1.874c0,.392-.034.784-.068,1.175,0,.119-.017.221-.017.307a.549.549,0,0,0,.153.443.609.609,0,0,0,.443.119h.324a5.207,5.207,0,0,1,.613.085h.068a.272.272,0,0,0,.187.068.39.39,0,0,0,.29-.136.376.376,0,0,0,.1-.256.829.829,0,0,0-.068-.273,22.562,22.562,0,0,1-.9-3.254,6.9,6.9,0,0,1-.085-1.022,4.383,4.383,0,0,1,.17-1.244,3.068,3.068,0,0,1,1.039-1.55,1.613,1.613,0,0,1,.92-.341.893.893,0,0,1,.29.034h.187a.327.327,0,0,0,.29-.085.427.427,0,0,0,.119-.29l-.034-.221c-.085-.358-.2-.715-.29-1.056a5.26,5.26,0,0,1-.2-1.346v-.1a2.5,2.5,0,0,1,2.163-2.47,3.042,3.042,0,0,1,.392-.034,2.763,2.763,0,0,1,1.55.511,4.591,4.591,0,0,1,1.755,2.385,10.832,10.832,0,0,1,.511,3.322.753.753,0,0,0,.034.256.367.367,0,0,0,.273.273h.136a.79.79,0,0,0,.358-.068c.238-.1.426-.239.6-.307a1.491,1.491,0,0,1,.6-.119,1.53,1.53,0,0,1,1.431,1.005,2.55,2.55,0,0,1,.17,1.005,2.579,2.579,0,0,1-.034.511,6.742,6.742,0,0,1-.784,2.487c-.256.477-.545.937-.818,1.431-.085.153-.136.307-.221.494l-.119.273.29.034.034-.221.2.085a4.372,4.372,0,0,1,.2-.46c.273-.477.562-.937.818-1.431a6.85,6.85,0,0,0,.835-2.64c.017-.187.034-.375.034-.562a3.025,3.025,0,0,0-.2-1.158,1.98,1.98,0,0,0-1.84-1.278,2.051,2.051,0,0,0-.767.153c-.238.1-.426.238-.6.324l-.187.051H34.6v.051l.034-.034H34.6v.034l.034-.034-.034.034h.034v-.034l-.034.034h.034V21.4a10.95,10.95,0,0,0-.545-3.458,5.053,5.053,0,0,0-1.925-2.589,3.128,3.128,0,0,0-1.789-.6,1.87,1.87,0,0,0-.443.034,2.922,2.922,0,0,0-2.521,2.9V17.8a5.973,5.973,0,0,0,.221,1.465c.1.358.2.7.29,1.039v.119h.017l.034.017h-.034c0-.017.085.017.085.017l-.034-.085-.034.034.085.034-.034-.085h0v.017h0c0-.017-.017,0-.017,0h-.1a1.419,1.419,0,0,0-.375-.051,1.927,1.927,0,0,0-1.192.426A3.265,3.265,0,0,0,25.127,22.5a4.81,4.81,0,0,0-.2,1.363,7.834,7.834,0,0,0,.085,1.09,21.222,21.222,0,0,0,.92,3.322l.051.119v.034h0c0-.017.034,0,.034,0h-.034l.034.051v-.068h-.034l.034.068v-.068h0c-.017,0-.085-.034-.187-.068a3.913,3.913,0,0,0-.681-.085h-.46l-.017-.017h0v-.392a9.867,9.867,0,0,0,.068-1.227,7.073,7.073,0,0,0-.256-1.976,3.5,3.5,0,0,0-.733-1.465,1.7,1.7,0,0,0-1.312-.63,1.8,1.8,0,0,0-.715.153h0l-.17.085.1.187-.068-.2h0v0h0V22.9l.085-.068-.085-.034v.119l.085-.068-.068.068h.1l-.034-.068-.068.068h.1a1.306,1.306,0,0,1,.085-.29,16.709,16.709,0,0,0,1.039-3.663,8.327,8.327,0,0,0,.085-1.124,6.143,6.143,0,0,0-.17-1.465,3.059,3.059,0,0,0-.8-1.516,1.642,1.642,0,0,0-1.21-.528,2.277,2.277,0,0,0-.664.119l.068.2-.068-.2-.221.085.068.2-.068-.2h-.119a.017.017,0,0,1-.017.017V14.6c-.017,0,.034-.017.034-.017H19.71c0-.017-.017.017-.017.017h.051v-.17c0-.085.051-.187.068-.324.17-.681.375-1.38.511-2.1a8.524,8.524,0,0,0,.17-1.6,6.812,6.812,0,0,0-.153-1.431,3.845,3.845,0,0,0-1.5-2.3,2.176,2.176,0,0,0-1.21-.392v0h0a2.458,2.458,0,0,0-1.124.307l-.085.034v.051l.051-.034h-.051v.034l.051-.034h0l-.017-.085a5.318,5.318,0,0,1-.1-.7A8.541,8.541,0,0,0,15.843,3.2,6.088,6.088,0,0,0,14.293.818,2.725,2.725,0,0,0,12.4,0a2.82,2.82,0,0,0-1.039.2A2.89,2.89,0,0,0,10.085,1.21,5.4,5.4,0,0,0,9.029,3.816a7.568,7.568,0,0,0-.068,1.073c0,.341.017.681.051,1.039v.119a.38.38,0,0,1-.034.2.2.2,0,0,1-.136.034H8.654V6.269l-.17-.034H7.99a1.276,1.276,0,0,0-.358.034A2.445,2.445,0,0,0,5.826,7.956a5.514,5.514,0,0,0-.2,1.056c0,.136-.017.29-.017.426a6.417,6.417,0,0,0,.647,2.64A9.693,9.693,0,0,0,7.87,14.5l.085.119v.051h.017a.426.426,0,0,1-.17.068c-.187.051-.392.068-.613.136a2.034,2.034,0,0,0-.886.477,1.652,1.652,0,0,0-.477.92,3.326,3.326,0,0,0-.034.392,1.887,1.887,0,0,0,.136.75A4.181,4.181,0,0,0,6.712,18.7a10.051,10.051,0,0,0,2.129,1.857c.358.239.733.477,1.09.715l.068.051H9.966L9.9,21.4a2.275,2.275,0,0,0-.341.358l-.1.119h0a.3.3,0,0,1-.136-.051A1.93,1.93,0,0,0,8.4,21.6a1.719,1.719,0,0,0-.852.221.457.457,0,0,1-.221.068c-.136,0-.238-.068-.324-.256a7.715,7.715,0,0,0-1.448-2.078A4.6,4.6,0,0,0,3.7,18.279a2.1,2.1,0,0,0-.715-.119,2.512,2.512,0,0,0-.971.221A3.161,3.161,0,0,0,.324,20.17,4.821,4.821,0,0,0,0,21.976a7.876,7.876,0,0,0,.085,1.107A11.2,11.2,0,0,0,1.38,26.626c.238.426.494.835.733,1.244a.454.454,0,0,1,.068.17v.034l-.119.068A2.309,2.309,0,0,0,.528,30.323a2.687,2.687,0,0,0,.1.715,5.394,5.394,0,0,0,1.942,2.828,7.3,7.3,0,0,0,3.152,1.346c.221.051.443.068.647.1h.051l.051-.1-.085.068.034.034.051-.1-.085.068.119-.085H6.371l.017.085.119-.085H6.371v-.017h0l-.034.051c-.051.085-.119.17-.187.273a1.957,1.957,0,0,0-.307,1.039v.1A2.271,2.271,0,0,0,6.61,38.21a3.909,3.909,0,0,0,1.635.869,5.585,5.585,0,0,0,1.567.2A10.494,10.494,0,0,0,11.09,39.2c.784-.085,1.567-.187,2.334-.273.187-.017.392-.034.579-.034a4.228,4.228,0,0,1,2.368.7c.477.307.937.63,1.414.937a4.858,4.858,0,0,1,1.261,1.244,1.394,1.394,0,0,1,.238.852v.034a.46.46,0,0,1-.17.375,4.952,4.952,0,0,1-.63.494,11.143,11.143,0,0,0-2.044,1.448c-.562.528-1.124,1.039-1.652,1.6a10.959,10.959,0,0,0-3.117,7.819,13.693,13.693,0,0,0,.273,2.726,10.454,10.454,0,0,0,.63,1.738A10.726,10.726,0,0,0,17.563,64.6a18.92,18.92,0,0,0,3.731,1.482A38.118,38.118,0,0,1,25.5,67.494,4.091,4.091,0,0,1,27.682,69.3c.2.358.375.732.562,1.124a7.5,7.5,0,0,0,.409.835,1.037,1.037,0,0,0,.869.511,1.3,1.3,0,0,0,.358-.051,1.2,1.2,0,0,0,.937-.971,8.77,8.77,0,0,0,.153-1.5,7.6,7.6,0,0,1,.937-3.867,8.173,8.173,0,0,1,1.584-1.993l1.993-1.84a11.057,11.057,0,0,0,.988-1.005,13.07,13.07,0,0,0,2.606-5.4,10.445,10.445,0,0,0,.256-2.181,6.66,6.66,0,0,0-.119-1.295c-.136-.784-.324-1.567-.528-2.334a11.031,11.031,0,0,0-.647-1.772,12.559,12.559,0,0,0-3.458-4.225,7.26,7.26,0,0,0-2.01-1.107,30.165,30.165,0,0,0-3.049-.835,1.361,1.361,0,0,1-.988-1.21h0v-.034a3.487,3.487,0,0,1,1.039-2.521,9.246,9.246,0,0,1,1.329-1.09A25.081,25.081,0,0,1,34.1,34.8a14.084,14.084,0,0,0,2.64-1.618,5.055,5.055,0,0,0,1.533-1.891,2.584,2.584,0,0,0,.256-1.124,2.8,2.8,0,0,0-.085-.63,1.61,1.61,0,0,0-1.6-1.244h-.324a2.3,2.3,0,0,1-.341-.051l-.034.221.2.085-.2-.085Zm-12.5,26.3-.119-.17c-.119.085-.187.153-.2.153-.324.1-.664.187-1.022.29a9.384,9.384,0,0,0-.9.307c-.2.085-.358.2-.494.273a2.38,2.38,0,0,1-1.295.375h-.29l-.9-.1a3.313,3.313,0,0,0-.409-.034,2.809,2.809,0,0,0-1.175.256c-.307.136-.613.29-.937.426a2.761,2.761,0,0,1-1.022.221,2.939,2.939,0,0,1-.647-.085,5.128,5.128,0,0,0-.545-.119h-.068a.583.583,0,0,0-.307.068,1.007,1.007,0,0,0-.664.988,1.159,1.159,0,0,0,.034.341A6.969,6.969,0,0,0,13,58.7a10.393,10.393,0,0,0,1.908,3.135,3.689,3.689,0,0,0,.75.613,2.144,2.144,0,0,0,1.124.358H17a4.46,4.46,0,0,1,.937-.085h.545a2.657,2.657,0,0,0,1.141-.256c.256-.119.511-.221.784-.358a2.318,2.318,0,0,1,1.073-.256,2.774,2.774,0,0,1,.528.051,1.9,1.9,0,0,0,.29.034c.2,0,.375-.034.545-.034a1.806,1.806,0,0,0,.307-.051H23.2l.051-.085h-.1l.051.085.051-.085h-.1V61.8a.839.839,0,0,1-.256.17,1.543,1.543,0,0,1-.545.1.869.869,0,0,1-.358-.051,2.116,2.116,0,0,0-.562-.068,2,2,0,0,0-1.022.273c-.136.068-.307.136-.477.221a3.252,3.252,0,0,1-1.5.409,1.4,1.4,0,0,1-.375-.034h-.085a.9.9,0,0,0-.46.136.629.629,0,0,0-.307.494.658.658,0,0,0,.341.528c.153.1.307.17.443.256a18.369,18.369,0,0,0,3.7,1.414,40.064,40.064,0,0,1,4.344,1.567,4.361,4.361,0,0,1,2.4,2.334c.187.409.375.835.579,1.261a.891.891,0,0,0,.2.29.45.45,0,0,0,.324.119.715.715,0,0,0,.358-.1,1,1,0,0,0,.46-.46,3.363,3.363,0,0,0,.17-.8c.051-.75.051-1.482.136-2.181a7.107,7.107,0,0,1,1.976-4.157c.75-.767,1.55-1.482,2.351-2.215a11.778,11.778,0,0,0,3.594-6.116,1.678,1.678,0,0,0,.034-.29v-.034a.782.782,0,0,0-.136-.477.583.583,0,0,0-.46-.2h0v0a1.838,1.838,0,0,0-.733.119,2.358,2.358,0,0,0-.664.392,1.819,1.819,0,0,1-1.158.409,2.249,2.249,0,0,1-.664-.1c-.256-.068-.511-.153-.767-.221a2.143,2.143,0,0,0-.46-.068,1.684,1.684,0,0,0-.9.256c-.2.119-.409.273-.613.409a1.765,1.765,0,0,1-1.005.324h-.068c-.221,0-.443-.017-.681-.034h-.085a1.8,1.8,0,0,0-.869.17c-.17.085-.29.2-.409.273h-.017v.034l.034-.034h-.034v.034l.034-.034h0V56l-.2-.051.17.136.153-.2-.17-.136.119.187a3.17,3.17,0,0,1,.63-.324,1.843,1.843,0,0,1,.613-.085,2.09,2.09,0,0,1,.46.034H31a1.978,1.978,0,0,0,1.278-.443c.068-.051.153-.1.256-.17a1.966,1.966,0,0,1,1.107-.375,2.381,2.381,0,0,1,.579.085c.273.085.545.17.835.239a2.63,2.63,0,0,0,.511.068,1.489,1.489,0,0,0,1.005-.358,2.875,2.875,0,0,1,1.278-.613,1.282,1.282,0,0,0,1.073-1.124c0-.136.017-.273.017-.409a3.291,3.291,0,0,0-.17-1.073,1.176,1.176,0,0,0-1.141-.818,1.957,1.957,0,0,1-.562-.068,1.785,1.785,0,0,0-.511-.085,1.807,1.807,0,0,0-1.005.324,2.308,2.308,0,0,1-1.38.409h-.187a2.311,2.311,0,0,0-1.4.409l.119.17-.1-.187-.1.051.1.187v-.221h-.136l-.034.1.085-.068-.051-.034-.034.1.085-.068-.17.136h.221v-.273H32.35l.187.136a.867.867,0,0,1,.256-.238,1.956,1.956,0,0,1,1.158-.324h.17a2.69,2.69,0,0,0,1.516-.46l-.119-.187.1.187.17-.1h0a1.372,1.372,0,0,1,.7-.2.718.718,0,0,1,.324.051,1.3,1.3,0,0,0,.358.051,2.634,2.634,0,0,0,.528-.068.675.675,0,0,0,.392-.2.643.643,0,0,0,.153-.409v-.068a2.071,2.071,0,0,0-.153-.716c-.273-.664-.545-1.329-.869-1.976a6.2,6.2,0,0,0-1.4-1.857,1.413,1.413,0,0,0-.92-.375.985.985,0,0,0-.613.2,1.617,1.617,0,0,1-.954.358.952.952,0,0,1-.375-.051,1.964,1.964,0,0,0-.443-.051,1.914,1.914,0,0,0-1.005.29,2.038,2.038,0,0,1-1.107.324,1.416,1.416,0,0,1-.46-.051,2.077,2.077,0,0,0-.443-.051,1.794,1.794,0,0,0-.988.29,1.444,1.444,0,0,1-.733.2,2.941,2.941,0,0,1-.647-.085h0V46.1l.017-.017h-.017V46.1h.034c0-.017-.034,0-.034,0h.034c0-.017-.034,0-.034,0h.034c0,.017-.034,0-.034,0v.034h.494a1.388,1.388,0,0,0,.869-.221,1.7,1.7,0,0,1,.971-.29,2.566,2.566,0,0,1,.494.051,1.929,1.929,0,0,0,.426.051,1.954,1.954,0,0,0,1.056-.307,1.939,1.939,0,0,1,1.056-.341,1.219,1.219,0,0,1,.426.051,1.159,1.159,0,0,0,.341.034,2.011,2.011,0,0,0,1.192-.511.421.421,0,0,0,.187-.324.414.414,0,0,0-.153-.307c-.119-.1-.221-.238-.375-.358a8.588,8.588,0,0,0-1.755-1.022,10.552,10.552,0,0,0-1.993-.562,14.614,14.614,0,0,0-3.083-.341,13.433,13.433,0,0,0-3.475.46c-1.192.324-2.385.715-3.543,1.124a10.042,10.042,0,0,0-1.789.835,15.427,15.427,0,0,0-2.964,2.385,10.969,10.969,0,0,0-2.709,4.276,11.668,11.668,0,0,0-.562,3.731v.733a1.157,1.157,0,0,0,1.107,1.056,9.52,9.52,0,0,1,1.005.136,2.507,2.507,0,0,0,.613.068,2.557,2.557,0,0,0,1.056-.221c.324-.136.63-.29.937-.426a2.6,2.6,0,0,1,1.056-.255h.119c.426.034.852.085,1.278.136h.29a2.382,2.382,0,0,0,1.124-.273c.221-.119.409-.256.6-.341a3.535,3.535,0,0,1,.869-.307c.341-.068.7-.085,1.09-.136h.051c.051,0,.051,0,.136.1l.17-.119-.119-.17.119.17.17-.119a.575.575,0,0,0-.494-.273h-.1c-.358.051-.733.068-1.124.153a4.537,4.537,0,0,0-.954.341,6.928,6.928,0,0,0-.63.358,1.93,1.93,0,0,1-.92.221h-.238c-.426-.034-.852-.1-1.295-.136h-.153a2.951,2.951,0,0,0-1.227.29c-.324.136-.63.29-.937.426a2.279,2.279,0,0,1-.869.187,1.758,1.758,0,0,1-.511-.068,7.753,7.753,0,0,0-1.073-.153.706.706,0,0,1-.7-.647v-.716a11.155,11.155,0,0,1,.545-3.594,10.562,10.562,0,0,1,2.606-4.106,15.154,15.154,0,0,1,2.879-2.334,8.8,8.8,0,0,1,1.721-.8c1.158-.409,2.334-.784,3.526-1.107a12.748,12.748,0,0,1,3.373-.443,15.088,15.088,0,0,1,3,.324,9.866,9.866,0,0,1,1.908.545,7.655,7.655,0,0,1,1.652.971c.1.085.221.2.341.324h0v.034l.051-.034h.017l-.051-.034v.034h.051l-.051-.034h0a1.584,1.584,0,0,1-.937.443.62.62,0,0,1-.238-.034,1.956,1.956,0,0,0-.528-.068,2.375,2.375,0,0,0-1.295.409,1.467,1.467,0,0,1-.818.239,1.159,1.159,0,0,1-.341-.034,3.357,3.357,0,0,0-.579-.068,2.026,2.026,0,0,0-1.21.375,1.053,1.053,0,0,1-.63.153h-.29a1.656,1.656,0,0,0-.29.017.4.4,0,0,0-.324.392.409.409,0,0,0,.307.392h0a3.611,3.611,0,0,0,.75.1,1.757,1.757,0,0,0,.971-.273,1.368,1.368,0,0,1,.75-.221,1.277,1.277,0,0,1,.358.034,3.134,3.134,0,0,0,.562.051,2.7,2.7,0,0,0,1.329-.375,1.383,1.383,0,0,1,.767-.221,1.159,1.159,0,0,1,.341.034,2.271,2.271,0,0,0,.477.051,1.973,1.973,0,0,0,1.227-.443.535.535,0,0,1,.358-.119.941.941,0,0,1,.63.273A5.655,5.655,0,0,1,36.9,47.154c.307.63.579,1.295.852,1.959a2.056,2.056,0,0,1,.119.6v.034l-.034.119a.319.319,0,0,1-.153.068,2.081,2.081,0,0,1-.443.051.662.662,0,0,1-.256-.034,1.831,1.831,0,0,0-1.363.2l-.187.1h0a2.3,2.3,0,0,1-1.278.392h-.17a2.416,2.416,0,0,0-1.4.392,1.241,1.241,0,0,0-.375.358l-.034.068V51.8c.017,0,.034.068.034.068l.051.051a.421.421,0,0,0,.256.119h.221l.153-.085h0a1.917,1.917,0,0,1,1.141-.341h.17a2.75,2.75,0,0,0,1.618-.494,1.333,1.333,0,0,1,.767-.256,1.117,1.117,0,0,1,.392.068,2.3,2.3,0,0,0,.664.085.71.71,0,0,1,.733.511,3.022,3.022,0,0,1,.153.954,1.315,1.315,0,0,1-.017.358.816.816,0,0,1-.715.75,3.319,3.319,0,0,0-1.482.7,1.071,1.071,0,0,1-.733.256A1.651,1.651,0,0,1,35.2,54.5c-.273-.068-.528-.153-.8-.238a2.594,2.594,0,0,0-.715-.1,2.313,2.313,0,0,0-1.346.443,1.423,1.423,0,0,0-.273.2,1.486,1.486,0,0,1-.988.341h-.221a2.326,2.326,0,0,0-.494-.034,2.4,2.4,0,0,0-.767.119,4.044,4.044,0,0,0-.715.375h-.034c0,.017-.187.256-.187.256l-.034.034v.051l-.017.136a.578.578,0,0,0,.085.324.412.412,0,0,0,.324.17.472.472,0,0,0,.273-.085q.2-.153.358-.256a1.224,1.224,0,0,1,.664-.119h.085c.221,0,.443.017.664.034h.1a2.154,2.154,0,0,0,1.244-.392c.187-.136.392-.273.579-.392a1.27,1.27,0,0,1,.681-.2.792.792,0,0,1,.341.051c.256.068.494.136.75.221a2.607,2.607,0,0,0,.8.119,2.3,2.3,0,0,0,1.431-.511,2,2,0,0,1,.545-.324,1.591,1.591,0,0,1,.579-.085h0v0h0v0c.085,0,.1.017.119.034a.353.353,0,0,1,.051.221h0c0,.017-.034.221-.034.221A11.369,11.369,0,0,1,34.769,61c-.8.716-1.6,1.448-2.368,2.232a7.454,7.454,0,0,0-2.1,4.412c-.085.75-.085,1.482-.136,2.215a2.2,2.2,0,0,1-.136.681c0,.051-.136.17-.239.221a.712.712,0,0,1-.153.051H29.59c-.017-.034-.051-.085-.1-.17-.2-.409-.375-.835-.579-1.244a4.876,4.876,0,0,0-2.623-2.555,39.622,39.622,0,0,0-4.4-1.567,18.157,18.157,0,0,1-3.611-1.38c-.153-.085-.29-.153-.426-.238-.119-.085-.136-.136-.136-.153,0,0,0-.068.119-.136a.483.483,0,0,1,.221-.068v0h.068v-.222l-.034.222a3.876,3.876,0,0,0,.443.034,3.5,3.5,0,0,0,1.7-.46c.136-.068.307-.136.477-.238a1.6,1.6,0,0,1,.818-.221,1.964,1.964,0,0,1,.443.051,2.155,2.155,0,0,0,.477.051,1.959,1.959,0,0,0,.7-.136,1.125,1.125,0,0,0,.409-.29.454.454,0,0,0,.119-.307.347.347,0,0,0-.153-.273.5.5,0,0,0-.273-.068v0h-.017a1.789,1.789,0,0,0-.324.051c-.187,0-.375.034-.528.034h-.2a2.533,2.533,0,0,0-.613-.085,2.822,2.822,0,0,0-1.278.307q-.358.179-.767.358a2.366,2.366,0,0,1-.954.221h-.153c-.136,0-.256-.017-.392-.017a6.666,6.666,0,0,0-1.005.085h-.17a1.736,1.736,0,0,1-.886-.273,3.438,3.438,0,0,1-.664-.545,10.051,10.051,0,0,1-1.823-3.015,4.006,4.006,0,0,1-.256-.715,1.315,1.315,0,0,1-.034-.256.582.582,0,0,1,.409-.6l.153-.034h.017a2.387,2.387,0,0,1,.477.1,2.917,2.917,0,0,0,1.959-.153c.324-.136.63-.273.954-.426a2.257,2.257,0,0,1,.988-.221,2.512,2.512,0,0,1,.358.017c.307.034.613.068.9.1.119,0,.221.017.324.017a3.058,3.058,0,0,0,1.533-.426,4.647,4.647,0,0,1,.426-.256,7.421,7.421,0,0,1,.869-.29c.324-.1.664-.187,1.022-.29a1.144,1.144,0,0,0,.324-.221l.17-.119-.136-.17-.17.119ZM14.548,17.768l-.221.051a31.4,31.4,0,0,0,1.414,4.94,44.882,44.882,0,0,0,3.407,6.763c.75,1.244,1.55,2.436,2.334,3.646a1.342,1.342,0,0,0,.29.341.738.738,0,0,0,.443.187.629.629,0,0,0,.494-.307,1.644,1.644,0,0,0,.238-.494c.119-.307.2-.63.307-.92a18.716,18.716,0,0,0,.971-4.106,10.168,10.168,0,0,0,.085-1.244,7.036,7.036,0,0,0-.256-1.959,2.969,2.969,0,0,0-.579-1.158,1.216,1.216,0,0,0-1.6-.273,2.89,2.89,0,0,0-.613.494,3.151,3.151,0,0,0-.7,1.227l-.085.153h-.034v.017h0v0h0v0h0v-.051l.017-.153c.238-.7.477-1.414.733-2.1a21.227,21.227,0,0,0,1.073-3.339,8.12,8.12,0,0,0,.187-1.687,5.674,5.674,0,0,0-.136-1.295,2.777,2.777,0,0,0-.647-1.329,1.165,1.165,0,0,0-.886-.426,1.283,1.283,0,0,0-.494.1,3.211,3.211,0,0,0-1.363.988c-.187.238-.358.477-.545.7l-.068.068h-.034l-.034-.1v-.051l.2-.46a14.883,14.883,0,0,0,1.431-4.412,8.075,8.075,0,0,0,.1-1.278,5.868,5.868,0,0,0-.17-1.431,3.3,3.3,0,0,0-1.09-1.721,1.555,1.555,0,0,0-1.039-.392,1.664,1.664,0,0,0-1.158.477c-.2.2-.375.443-.545.647-.119.17-.2.324-.29.426l.17.136-.1-.2-.238.119.1.2.085-.2v0h0v0c.017,0,0-.034,0-.034l-.034-.085-.2.068.221.034.034-.221L15.5,8.092l.221.034c.017-.136.085-.29.1-.494.017-.545.068-1.107.068-1.669V5.622a6.735,6.735,0,0,0-.852-3.169A4.624,4.624,0,0,0,13.645.8,2.081,2.081,0,0,0,12.487.426a2.425,2.425,0,0,0-.767.136,2.963,2.963,0,0,0-1.533,1.482,5.569,5.569,0,0,0-.6,2.658v.1A9.657,9.657,0,0,0,9.983,7.41V7.53h0l-.1-.085c-.119-.1-.238-.238-.392-.358A2.033,2.033,0,0,0,8.194,6.61,1.922,1.922,0,0,0,6.405,7.973a3.833,3.833,0,0,0-.221,1.295,4.777,4.777,0,0,0,.136,1.09A8.147,8.147,0,0,0,7.734,13.3a9.9,9.9,0,0,0,1.925,1.942,1.716,1.716,0,0,1,.358.341v.034h.1l-.034-.051v.051h.034l-.034-.051-.068.034H9.983a.451.451,0,0,1-.221-.085,3.649,3.649,0,0,0-1.635-.426,3.06,3.06,0,0,0-.852.136,1.392,1.392,0,0,0-.664.443,1.377,1.377,0,0,0-.273.75v.119a1.761,1.761,0,0,0,.273.9,5.456,5.456,0,0,0,1.175,1.4,22.588,22.588,0,0,0,4.123,2.811l.1-.187-.1.187.153.085.051.17.2-.068-.2-.051h.051l-.017-.034v.034h.017v-.034c-.017,0,0,.034,0,.034v-.034h-.017v.034c.017,0,0-.034,0-.034h-.017l-.051.2.051-.2-.221-.068h0a2.623,2.623,0,0,0-.733-.1,1.159,1.159,0,0,0-.341.034.753.753,0,0,0-.681.733,1,1,0,0,0,.085.375,2.713,2.713,0,0,0,.221.375,5.835,5.835,0,0,1,1.107,3.083c.017.256.034.528.068.8a.8.8,0,0,0,.068.273.311.311,0,0,0,.29.17.657.657,0,0,0,.307-.1,1.507,1.507,0,0,1,.7-.17,1.434,1.434,0,0,1,.46.068,2.069,2.069,0,0,1,1.124.852,4.055,4.055,0,0,1,.647,1.5c.085.477.153.971.238,1.465a1.7,1.7,0,0,0,.409,1.124,3.667,3.667,0,0,0,.818.613,14.674,14.674,0,0,1,2.334,1.414l.1.068a.323.323,0,0,0,.2.068.333.333,0,0,0,.256-.119l.051-.051v-.341c.017,0,.017-.051.017-.051v-.051c-.119-.2-.221-.375-.324-.528-.579-.937-1.175-1.874-1.772-2.811a29.794,29.794,0,0,1-2.4-4.7,28.555,28.555,0,0,1-1.772-5.6A40.349,40.349,0,0,1,12.674,14c0-.443-.051-.869-.051-1.295a3.115,3.115,0,0,1,.034-.562,8.95,8.95,0,0,0,.051-.954A8.851,8.851,0,0,0,12.47,9.2c-.136-.562-.273-1.107-.392-1.652a1.315,1.315,0,0,1-.034-.256V7.1a.508.508,0,0,1,.119-.273.2.2,0,0,1,.17-.068.572.572,0,0,1,.256.068,1.635,1.635,0,0,1,.75.8A6.633,6.633,0,0,1,14.02,10.6v.324c-.017.579-.051,1.175-.051,1.755v.341A25.461,25.461,0,0,0,14.5,17.7h0l.221-.051.221-.034a26.067,26.067,0,0,1-.528-4.6v-.341c0-.579.017-1.158.034-1.738V10.6a6.962,6.962,0,0,0-.733-3.152,2.094,2.094,0,0,0-.954-1.005,1.049,1.049,0,0,0-.443-.1.655.655,0,0,0-.494.2.928.928,0,0,0-.221.528v.238a1.276,1.276,0,0,0,.034.358c.119.562.273,1.107.392,1.669a7.963,7.963,0,0,1,.221,1.891,5.351,5.351,0,0,1-.051.9c-.017.2-.034.409-.034.6,0,.443.034.886.051,1.312a39.136,39.136,0,0,0,.733,6.133,27.75,27.75,0,0,0,1.789,5.707,33.794,33.794,0,0,0,2.436,4.753c.6.937,1.175,1.874,1.772,2.811.1.17.2.324.29.477l.2-.085h-.221v.256h.221l-.17-.119.085.068v-.1l-.085.034.085.068v0l.034-.085h-.034v.085l.034-.085h0l-.068-.051a13.935,13.935,0,0,0-2.4-1.465,3.066,3.066,0,0,1-.715-.545c-.2-.187-.221-.494-.273-.886-.068-.494-.136-.988-.238-1.482a4.556,4.556,0,0,0-.715-1.669,2.548,2.548,0,0,0-1.363-1.039,2.269,2.269,0,0,0-.579-.085,2.137,2.137,0,0,0-.9.221l-.085.034h-.017v0h0V27.1L12.1,27h-.068v.1L12.1,27l-.051.085.085-.068-.034-.034-.051.085L12.129,27h0l-.017-.119c-.034-.256-.034-.511-.068-.784a6.337,6.337,0,0,0-1.192-3.3,1,1,0,0,1-.17-.29l-.051-.2c0-.153.085-.256.307-.307.085,0,.187-.017.273-.017a2.116,2.116,0,0,1,.63.1h0l.221.068h.119a.368.368,0,0,0,.392-.29v-.051l-.085-.307v-.085c-.017,0-.324-.17-.324-.17h0a21.968,21.968,0,0,1-4.037-2.76,5.646,5.646,0,0,1-1.09-1.295,1.293,1.293,0,0,1-.221-.681v-.085A.872.872,0,0,1,7,15.911a.958.958,0,0,1,.443-.29A2.1,2.1,0,0,1,8.16,15.5a3.3,3.3,0,0,1,1.448.392.832.832,0,0,0,.409.119h.153c.085-.051.17-.085.256-.136a.421.421,0,0,0,.136-.273.444.444,0,0,0-.119-.29A2.6,2.6,0,0,0,10,14.889a9.5,9.5,0,0,1-1.84-1.857,7.865,7.865,0,0,1-1.346-2.794,3.92,3.92,0,0,1-.119-.988,3.37,3.37,0,0,1,.187-1.158A1.452,1.452,0,0,1,8.245,7.019a1.645,1.645,0,0,1,1.022.392c.119.1.238.221.375.358a.569.569,0,0,0,.392.187l.221-.068a.5.5,0,0,0,.239-.409,1,1,0,0,0-.034-.238,8.8,8.8,0,0,1-.375-2.487V4.668a5.231,5.231,0,0,1,.545-2.453A2.589,2.589,0,0,1,11.925.92,1.7,1.7,0,0,1,12.538.8a1.676,1.676,0,0,1,.92.29,4.1,4.1,0,0,1,1.261,1.516A6.211,6.211,0,0,1,15.5,5.571v.324c0,.545-.034,1.09-.068,1.652a3.092,3.092,0,0,1-.085.426h0l-.034.238v.1a.574.574,0,0,0,.29.358l.085.034.324-.153h.034c0-.017.034-.051.034-.051a4.248,4.248,0,0,0,.307-.443,6.1,6.1,0,0,1,.511-.613,1.177,1.177,0,0,1,1.6-.051,2.887,2.887,0,0,1,.954,1.5,5.056,5.056,0,0,1,.153,1.329,7.449,7.449,0,0,1-.1,1.227,13.971,13.971,0,0,1-1.38,4.276,3.549,3.549,0,0,0-.221.511l-.034.187a.555.555,0,0,0,.273.494l.221.051a.534.534,0,0,0,.426-.238c.187-.238.358-.477.528-.7a2.7,2.7,0,0,1,1.175-.869,1.009,1.009,0,0,1,.358-.068.711.711,0,0,1,.562.273,2.382,2.382,0,0,1,.545,1.141,5.69,5.69,0,0,1,.136,1.192,8.523,8.523,0,0,1-.17,1.6,23.468,23.468,0,0,1-1.039,3.271c-.256.7-.494,1.414-.733,2.112a.945.945,0,0,0-.051.29.461.461,0,0,0,.29.46l.136.034a.49.49,0,0,0,.341-.153.738.738,0,0,0,.187-.341,2.7,2.7,0,0,1,.6-1.056,2.628,2.628,0,0,1,.528-.426.809.809,0,0,1,.426-.119.858.858,0,0,1,.63.307,2.431,2.431,0,0,1,.477.988,6.737,6.737,0,0,1,.238,1.84c0,.392-.034.8-.068,1.192a18.782,18.782,0,0,1-.954,4c-.119.307-.2.63-.307.92a1.68,1.68,0,0,1-.187.392c-.085.119-.119.119-.136.119s-.068,0-.17-.085a1.484,1.484,0,0,1-.2-.239c-.784-1.21-1.584-2.419-2.317-3.646a43.222,43.222,0,0,1-3.373-6.695,32.434,32.434,0,0,1-1.4-4.872l-.221.051.221-.034-.221.034ZM3.458,28.585l-.187-.1-.051.085.187.1v-.221h-.6a1.663,1.663,0,0,0-.75.17,1.762,1.762,0,0,0-1.056,1.6,2.246,2.246,0,0,0,.119.716,5.018,5.018,0,0,0,2.487,2.947,8.874,8.874,0,0,0,3.833.92v-.221L7.41,34.8H7.53v.034h0c0,.017-.068.051-.068.051l.085.2-.085-.2a1.733,1.733,0,0,0-1.141,1.6,1.8,1.8,0,0,0,.545,1.261,3.071,3.071,0,0,0,1.124.681,5.215,5.215,0,0,0,1.755.307,3.911,3.911,0,0,0,.63-.034c.784-.085,1.55-.187,2.317-.273a10.5,10.5,0,0,1,1.227-.1,2.914,2.914,0,0,1,.664.051c.034,0,.119.034.238.051l.2-.051.136-.187v-.136c.017,0-.051-.2-.051-.2a.649.649,0,0,0-.256-.17c-.937-.63-1.891-1.244-2.811-1.874a12.621,12.621,0,0,1-3.731-3.748c-.579-.954-1.158-1.925-1.652-2.93-.579-1.158-1.09-2.368-1.618-3.577a2.062,2.062,0,0,1-.153-.528V24.94a.309.309,0,0,1,.085-.239.282.282,0,0,1,.2-.085l.2.051a.733.733,0,0,1,.375.341c.477.937.971,1.857,1.431,2.794a24.491,24.491,0,0,0,2.146,3.782,8.141,8.141,0,0,0,2.4,2.3c1.09.664,2.181,1.295,3.271,1.942.17.1.341.221.545.324a.555.555,0,0,0,.238.068.356.356,0,0,0,.273-.136.429.429,0,0,0,.085-.273h0a1.271,1.271,0,0,0-.136-.528,7.657,7.657,0,0,1-.6-1.993c-.068-.494-.1-1.005-.153-1.516a9.2,9.2,0,0,0-.392-2.419,3.713,3.713,0,0,0-.886-1.516,1.574,1.574,0,0,0-1.107-.494,1.46,1.46,0,0,0-1.278.784c-.085.136-.153.273-.238.392l-.051.068h0l.034.051v-.051h-.034l.034.051v0l.034-.051h-.034v.051l.034-.051-.085-.136v-.273c.034-.426.068-.835.068-1.278a6.077,6.077,0,0,0-.051-.954,5.6,5.6,0,0,0-1.124-2.794A3.014,3.014,0,0,0,8.91,22.146a1.26,1.26,0,0,0-.494-.085,1.285,1.285,0,0,0-1.141.681,2.833,2.833,0,0,0-.221.75c-.034.17-.034.307-.051.341l-.034.051H6.95v.068c.017,0,0-.051,0-.051h0l.017.051v-.034h0V23.9h0v.051L7,23.918H6.967v.034L7,23.918v-.051a4.047,4.047,0,0,1-.1-.63,4.631,4.631,0,0,0-.375-1.482A7.039,7.039,0,0,0,4.48,19.233a2.885,2.885,0,0,0-1.192-.579A1.547,1.547,0,0,0,2.9,18.6a1.673,1.673,0,0,0-.494.085,2.668,2.668,0,0,0-1.38,1.175A3.583,3.583,0,0,0,.545,21.4c-.017.2-.034.392-.034.579A7.66,7.66,0,0,0,1.124,24.8a16.706,16.706,0,0,0,1.993,3.577,1,1,0,0,1,.136.324l.2-.085-.187-.1.187.1.2-.085a2.582,2.582,0,0,0-.187-.392A16.308,16.308,0,0,1,1.533,24.65a7.312,7.312,0,0,1-.579-2.658,2.93,2.93,0,0,1,.034-.545,3.122,3.122,0,0,1,.426-1.363A2.191,2.191,0,0,1,2.572,19.1a.738.738,0,0,1,.324-.068.894.894,0,0,1,.29.034,2.593,2.593,0,0,1,1.022.494,6.8,6.8,0,0,1,1.925,2.368,4.321,4.321,0,0,1,.324,1.363c.034.221.051.426.085.647a.479.479,0,0,0,.1.256.386.386,0,0,0,.307.153h.068a.8.8,0,0,0,.238-.136.612.612,0,0,0,.136-.2,1.768,1.768,0,0,0,.068-.409,3.758,3.758,0,0,1,.187-.647.836.836,0,0,1,.75-.46.812.812,0,0,1,.341.068,2.557,2.557,0,0,1,1.09.869,5.039,5.039,0,0,1,1.039,2.589,7.723,7.723,0,0,1,.051.886c0,.409-.034.818-.068,1.227,0,.068-.017.153-.017.239v.187a.793.793,0,0,0,.324.392l.17.051a.356.356,0,0,0,.256-.1l.136-.153c.085-.136.17-.273.238-.409a1.042,1.042,0,0,1,.9-.562,1.178,1.178,0,0,1,.8.358,3.492,3.492,0,0,1,.784,1.363,10.282,10.282,0,0,1,.375,2.334c.051.511.085,1.022.153,1.533a7.4,7.4,0,0,0,.63,2.112,1.042,1.042,0,0,1,.1.358h0v.017h.068c0,.017-.034-.034-.034-.034l-.034.034h.068c0,.017-.034-.034-.034-.034l.051.068v-.085h-.051a.372.372,0,0,0,.051.085v-.085h-.034c-.17-.085-.341-.2-.528-.307-1.09-.647-2.181-1.278-3.254-1.942a7.733,7.733,0,0,1-2.266-2.2A25.537,25.537,0,0,1,7.6,27.631c-.46-.937-.954-1.874-1.431-2.794a1.16,1.16,0,0,0-.6-.545.928.928,0,0,0-.375-.085.683.683,0,0,0-.528.221.774.774,0,0,0-.2.545v.136a2.862,2.862,0,0,0,.2.647C5.2,26.95,5.707,28.177,6.3,29.352c.511,1.022,1.09,1.993,1.669,2.964a12.881,12.881,0,0,0,3.85,3.884c.937.647,1.891,1.261,2.828,1.874l.153.085h0l.034-.051-.051.034h0c0,.017.034-.034.034-.034l-.051.034.085-.051h-.1v.051l.085-.051H14.77l.068.051-.034-.085-.034.034.068.051-.034-.085v.051c.017,0,.017-.068.017-.068H14.8l.017.068V38.04a.456.456,0,0,1-.153-.034,3.834,3.834,0,0,0-.75-.068,10.207,10.207,0,0,0-1.278.1c-.767.085-1.55.187-2.3.273-.2.017-.392.034-.579.034a4.82,4.82,0,0,1-1.618-.273,2.781,2.781,0,0,1-.971-.579,1.262,1.262,0,0,1,.46-2.129h0l.136-.051.068-.034.153-.29.068-.119-.238-.307L7.768,34.5,7.5,34.446h0A8.338,8.338,0,0,1,3.85,33.56a4.574,4.574,0,0,1-2.283-2.692,1.807,1.807,0,0,1-.1-.579,1.316,1.316,0,0,1,.818-1.227,1.212,1.212,0,0,1,.545-.119h.75l.1-.2.051-.085-.051-.1-.2.085ZM34.446,22.93l-.17-.136-.068.034-.068-.068h0V21.55a10.619,10.619,0,0,0-.426-3.254,4.789,4.789,0,0,0-1.669-2.453,2.624,2.624,0,0,0-1.618-.6h-.2A2.531,2.531,0,0,0,28.5,16.1a2.562,2.562,0,0,0-.562,1.618,2.283,2.283,0,0,0,.017.341,13.372,13.372,0,0,0,.767,2.862,8.418,8.418,0,0,1,.256.937h0v.085H28.96v.017h0v-.017h0v.051c.017,0,.017-.051.017-.051H28.96l.017.051v-.051h0v0l-.051-.051c-.068-.085-.153-.2-.256-.324a4.686,4.686,0,0,0-.409-.46,1.065,1.065,0,0,0-.715-.29.994.994,0,0,0-.443.1,2.592,2.592,0,0,0-.647.409,3.175,3.175,0,0,0-.988,2.215v.426a7.741,7.741,0,0,0,.409,2.351c.341,1.107.733,2.2,1.107,3.288a.836.836,0,0,1,.051.2v.034h0v.017h0a.579.579,0,0,1-.17-.136c-.221-.2-.426-.426-.664-.63a1.325,1.325,0,0,0-.886-.324h-.085a1.279,1.279,0,0,0-.784.307,1.532,1.532,0,0,0-.426.767,8.336,8.336,0,0,0-.221.937,3.36,3.36,0,0,0-.068.6,2.151,2.151,0,0,0,.17.835,5.821,5.821,0,0,0,.818,1.244,9.168,9.168,0,0,1,1.329,2.112h0l.1.2h0v.034a.473.473,0,0,0,.341.17.452.452,0,0,0,.375-.238h0c0-.017.068-.2.068-.2h0v-.017a27.48,27.48,0,0,1,1.686-4.685c.443-1.039.886-2.078,1.312-3.134a14.245,14.245,0,0,0,.971-4.446v-.392c0-.715-.1-1.414-.17-2.112-.017-.221-.034-.426-.034-.63v-.29c.034-.256.17-.341.324-.358a.444.444,0,0,1,.307.136,1.786,1.786,0,0,1,.256.324,3.753,3.753,0,0,1,.46,1.244,8.3,8.3,0,0,1,.17,1.721,11.527,11.527,0,0,1-.1,1.516,16.537,16.537,0,0,1-.852,3.629c-.494,1.38-.954,2.76-1.482,4.123a31.421,31.421,0,0,0-1.329,4.123,2.131,2.131,0,0,0-.051.324v.085a.62.62,0,0,0,.153.392.516.516,0,0,0,.375.17.779.779,0,0,0,.409-.136h0L29.454,37l-.136-.17.136.17c.392-.307.767-.613,1.158-.886a33.721,33.721,0,0,1,3.458-1.891,13.51,13.51,0,0,0,2.266-1.4,5.142,5.142,0,0,0,1.4-1.618,2.4,2.4,0,0,0,.273-1.09v-.136a1.248,1.248,0,0,0-.358-.835,1.145,1.145,0,0,0-.818-.324h-.221a4.609,4.609,0,0,0-.818.273,8.389,8.389,0,0,0-.869.528h0l-.153.1.119.187-.085-.2-.1.051h-.034v0h0v0h.017a.709.709,0,0,1,.034-.1,2.325,2.325,0,0,1,.256-.358,14.922,14.922,0,0,0,1.993-3.015,6.983,6.983,0,0,0,.715-2.351,4.177,4.177,0,0,0,.034-.46,3.021,3.021,0,0,0-.119-.852,1.46,1.46,0,0,0-1.4-1.107,1.574,1.574,0,0,0-.664.153,2.731,2.731,0,0,0-1.192,1.005l.187.119-.17-.136-.1.136.17.136-.17-.136.17.136.17.136.1-.136h0a2.267,2.267,0,0,1,1.022-.852,1.1,1.1,0,0,1,.494-.119,1.02,1.02,0,0,1,.988.784,2.624,2.624,0,0,1,.1.733,3.283,3.283,0,0,1-.017.409,6.7,6.7,0,0,1-.664,2.2,14.5,14.5,0,0,1-1.925,2.93c-.1.136-.2.273-.29.409a.656.656,0,0,0-.1.324.4.4,0,0,0,.119.29.458.458,0,0,0,.307.136.656.656,0,0,0,.324-.1h0l.153-.119-.119-.187.119.187a9.2,9.2,0,0,1,.835-.511,2.651,2.651,0,0,1,.681-.221h.153a.682.682,0,0,1,.494.187.846.846,0,0,1,.221.545v.1a2.063,2.063,0,0,1-.221.886,4.873,4.873,0,0,1-1.295,1.482,12.436,12.436,0,0,1-2.2,1.346,33.454,33.454,0,0,0-3.509,1.908c-.426.29-.8.613-1.175.9h0l-.119.1.136.17-.119-.17-.153.068h-.051c0-.034-.034-.068-.051-.153v-.051a.621.621,0,0,1,.034-.238,28.832,28.832,0,0,1,1.312-4.054c.528-1.363.988-2.76,1.482-4.14a17.464,17.464,0,0,0,.869-3.731,11.911,11.911,0,0,0,.1-1.567,8.387,8.387,0,0,0-.187-1.823,4.238,4.238,0,0,0-.511-1.38A1.5,1.5,0,0,0,31.6,19.2a.95.95,0,0,0-.6-.239.8.8,0,0,0-.767.733c0,.119-.017.221-.017.341a4.422,4.422,0,0,0,.051.681c.068.7.17,1.38.17,2.061v.358a13.851,13.851,0,0,1-.937,4.31c-.409,1.039-.852,2.078-1.295,3.117a28.375,28.375,0,0,0-1.721,4.77l.2.051-.2-.068-.051.17.2.068-.187-.1v.034c-.017,0,0,.034,0,.034v-.051h-.034l.034.051v-.051h0v0c.017,0,0-.017,0-.017l-.17.136.187-.1-.1-.17-.187.1.2-.085a9.019,9.019,0,0,0-1.4-2.215,5.36,5.36,0,0,1-.767-1.141,1.781,1.781,0,0,1-.136-.664,2.6,2.6,0,0,1,.051-.511c.051-.29.136-.6.221-.9a1.105,1.105,0,0,1,.307-.562.82.82,0,0,1,.511-.2h.068a.865.865,0,0,1,.6.221c.221.187.426.409.647.613a.74.74,0,0,0,.494.256.555.555,0,0,0,.238-.068.456.456,0,0,0,.2-.392,1.211,1.211,0,0,0-.068-.341c-.375-1.09-.784-2.181-1.107-3.271a7.757,7.757,0,0,1-.375-2.232v-.392a2.838,2.838,0,0,1,.852-1.925,2.345,2.345,0,0,1,.528-.341.584.584,0,0,1,.273-.068.62.62,0,0,1,.426.17,4.648,4.648,0,0,1,.375.409c.068.085.153.2.256.324a.517.517,0,0,0,.392.2.407.407,0,0,0,.238-.085.6.6,0,0,0,.2-.426V21.7a9.373,9.373,0,0,0-.273-.988,12.534,12.534,0,0,1-.75-2.76v-.29a1.965,1.965,0,0,1,1.891-2.044h.17a2.258,2.258,0,0,1,1.346.494,4.394,4.394,0,0,1,1.516,2.249,10.121,10.121,0,0,1,.409,3.117v1.21h0a.488.488,0,0,0,.17.375.541.541,0,0,0,.341.136.482.482,0,0,0,.392-.187h0l-.17-.136ZM13.407,9.506l.221-.034c-.034-.17-.051-.341-.1-.528a4.863,4.863,0,0,0-.664-1.618l-.153-.17a.507.507,0,0,0-.307-.119l-.2.051a.4.4,0,0,0-.221.375c0,.1.034.187.034.239.085.358.17.733.273,1.09a10.076,10.076,0,0,1,.307,2.675v1.482c0,1.567.153,3.134.307,4.685a25.966,25.966,0,0,0,1.465,6.337A37.946,37.946,0,0,0,17.615,30.6c.426.7.886,1.4,1.329,2.1a31.389,31.389,0,0,1,2.044,3.9,11.313,11.313,0,0,1,1.227,4.361,1.344,1.344,0,0,0,.136.528.927.927,0,0,0,.869.511h.17a.842.842,0,0,0,.647-.8v-.358c-.068-.426-.153-.869-.238-1.312a33.052,33.052,0,0,0-1.107-3.629,15.488,15.488,0,0,0-1.755-3.526c-.324-.494-.664-.954-.954-1.431-.9-1.584-1.806-3.186-2.692-4.787a18.424,18.424,0,0,1-1.4-3.066c-.119-.341-.2-.681-.324-1.039-.256-.75-.528-1.5-.767-2.249a22.709,22.709,0,0,1-.681-3.015,30.682,30.682,0,0,1-.341-5.008h0V10.749a4.43,4.43,0,0,0-.153-1.329l-.2.051.221-.034-.221.034-.2.051a4.7,4.7,0,0,1,.136,1.21v1.022h0a31.78,31.78,0,0,0,.341,5.077,23.5,23.5,0,0,0,.7,3.066c.239.767.511,1.516.767,2.266.119.341.221.681.324,1.039a20.086,20.086,0,0,0,1.431,3.135c.886,1.6,1.789,3.2,2.692,4.787.29.511.647.988.971,1.465a14.945,14.945,0,0,1,1.7,3.424,34.478,34.478,0,0,1,1.09,3.577c.1.426.17.852.238,1.295v.239c-.034.255-.17.392-.29.409h-.1a.5.5,0,0,1-.46-.256,1.043,1.043,0,0,1-.1-.358A11.543,11.543,0,0,0,21.4,36.388a32.383,32.383,0,0,0-2.078-3.952c-.443-.7-.9-1.38-1.329-2.078a36.427,36.427,0,0,1-3.22-6.542,26.314,26.314,0,0,1-1.448-6.235c-.153-1.55-.307-3.1-.307-4.634V11.465a11.173,11.173,0,0,0-.324-2.794q-.153-.537-.256-1.073L12.4,7.444h-.051l.034.034h0c0-.017-.051-.034-.051-.034l.034.034-.034-.034.034.034h0l-.034-.034.034.034h0l.1.119a4.587,4.587,0,0,1,.6,1.482c.034.136.068.307.1.494h0l.2-.051ZM31.055,19.642l-.068-.2-.085.034-.119.051v.136a1.128,1.128,0,0,0-.051.307v.051c0,.239.051.477.068.716.051.528.136,1.056.153,1.567v.341a14.69,14.69,0,0,1-.562,3.833,25.894,25.894,0,0,1-1.635,4.208,24.288,24.288,0,0,0-1.976,6,18.1,18.1,0,0,0-.29,3.032,9.9,9.9,0,0,0,.034,1.005.654.654,0,0,0,.375.6.762.762,0,0,0,.341.068.851.851,0,0,0,.528-.17.711.711,0,0,0,.273-.545v-.119a6.438,6.438,0,0,1-.085-1.141c0-.375.034-.835.068-1.261a22.41,22.41,0,0,1,1.414-5.434l1.431-3.833a20.066,20.066,0,0,0,1.158-4.991c.034-.426.068-.869.068-1.295a6.684,6.684,0,0,0-.256-1.908,4.108,4.108,0,0,0-.358-.835,1.461,1.461,0,0,0-.273-.324l-.1-.1-.136.051.068.2-.153.153a1.719,1.719,0,0,1,.2.221,3.461,3.461,0,0,1,.324.784,6.294,6.294,0,0,1,.238,1.789c0,.409-.034.835-.068,1.261a19.437,19.437,0,0,1-1.141,4.889c-.46,1.278-.937,2.555-1.414,3.833A22.825,22.825,0,0,0,27.6,38.142a11.3,11.3,0,0,0-.085,1.312,6.975,6.975,0,0,0,.085,1.21v.051a.223.223,0,0,1-.1.2.471.471,0,0,1-.273.085l-.136-.034c-.1-.051-.119-.1-.136-.256a9.248,9.248,0,0,1-.034-.971,17.107,17.107,0,0,1,.29-2.947,23.343,23.343,0,0,1,1.942-5.877A26.622,26.622,0,0,0,30.8,26.626a15.392,15.392,0,0,0,.579-3.952v-.358c-.017-.545-.1-1.073-.17-1.6-.017-.238-.051-.46-.068-.7h0a1.7,1.7,0,0,1,.034-.273h-.221c0-.017.068.187.068.187l.085-.034-.068-.2-.153.153.153-.153ZM24,39.369l-.221.034c.051.273.119.528.153.767a1.819,1.819,0,0,0,.443.988,1.374,1.374,0,0,0,1.073.46H25.6a.8.8,0,0,0,.6-.341,1.151,1.151,0,0,0,.2-.681v-.034h0c0-.29-.034-.562-.034-.835v-.119c0-.494.068-1.005.068-1.516V38.04a6.643,6.643,0,0,0-1.107-3.646c-.409-.613-.869-1.192-1.312-1.789h0l-.1-.119h0v-.017a.538.538,0,0,0-.324-.119.49.49,0,0,0-.392.221h0l-.119.221h0v.051a12.574,12.574,0,0,0-.358,1.482,4.174,4.174,0,0,0-.034.46A7.385,7.385,0,0,0,23.1,36.83c.136.426.324,1.073.477,1.618.085.273.153.511.2.7a1.9,1.9,0,0,1,.051.221v.051h.017l.17-.034h-.17v.034l.17-.034h.051l-.2-.051v.051h.2l-.2-.051.2.051-.119-.17-.085.136.2.051-.119-.17-.119.085.034.136.221-.034.119.17.085-.136v-.1c-.017-.1-.136-.528-.307-1.056-.153-.528-.341-1.158-.46-1.567a6.458,6.458,0,0,1-.392-1.925,1.659,1.659,0,0,1,.034-.409c.068-.46.221-.937.341-1.431l-.2-.051.187.1.119-.2-.187-.1.17.136.034-.034h0l.051.034.136-.17-.153.153.1.1.153-.153-.17.136c.443.6.886,1.175,1.295,1.772a6.038,6.038,0,0,1,1.039,3.407v.051c0,.494-.051.988-.068,1.5v.136c0,.29.017.579.034.852h0v.017a.787.787,0,0,1-.119.426.307.307,0,0,1-.273.153h-.119a.93.93,0,0,1-.75-.29,1.267,1.267,0,0,1-.341-.75c-.034-.29-.1-.545-.153-.8l-.221.034.119.17-.119-.17Zm-2.334.239.221-.034a8.055,8.055,0,0,0-.852-2.47,8.973,8.973,0,0,0-4.8-4.225.9.9,0,0,0-.29-.068.387.387,0,0,0-.307.153.526.526,0,0,0-.085.307v.136a9.849,9.849,0,0,0,.426,1.516,6.028,6.028,0,0,0,1.874,2.555A13.7,13.7,0,0,1,20,39.778c.341.46.681.886,1.039,1.329l.17.17a.492.492,0,0,0,.29.1l.187-.034a.568.568,0,0,0,.29-.273,1.01,1.01,0,0,0,.068-.29v-.153a2.172,2.172,0,0,0-.017-.341c-.034-.239-.085-.477-.136-.7l-.221.034.221-.034-.221.034-.221.034c.051.239.1.46.136.681,0,.1.017.187.017.273v.1l-.034.153-.051.051h-.068l-.085-.1c-.358-.443-.7-.869-1.022-1.312a14.6,14.6,0,0,0-2.215-2.368,5.478,5.478,0,0,1-1.755-2.368,7.9,7.9,0,0,1-.409-1.431V33.2h0l-.051-.017.034.051h.017c0-.017-.051-.051-.051-.051l.034.051-.034-.051v.068h.034l-.034-.051v.068h0l.1.034a8.565,8.565,0,0,1,4.583,4.02,7.614,7.614,0,0,1,.818,2.351h0l.221-.034Zm-16.32-14.7-.187-.1a.672.672,0,0,0-.085.341.9.9,0,0,0,.1.375c.273.6.545,1.175.8,1.755a35.3,35.3,0,0,0,1.789,3.594,14.364,14.364,0,0,0,4.583,4.957c1.107.733,2.232,1.465,3.356,2.2a12.616,12.616,0,0,1,2.845,2.215c.511.6.988,1.261,1.482,1.891a1.422,1.422,0,0,0,.358.358.565.565,0,0,0,.273.085.465.465,0,0,0,.324-.136.476.476,0,0,0,.136-.341h0V42.06h0A1.127,1.127,0,0,0,21,41.617c-.136-.273-.273-.528-.409-.784a8.217,8.217,0,0,0-3.39-3.509c-.29-.153-.579-.324-.835-.494-1.295-.886-2.675-1.652-4.02-2.419a10.008,10.008,0,0,1-3-2.743,18.757,18.757,0,0,1-1.874-3.2c-.494-1.005-.988-2.01-1.5-3a6.79,6.79,0,0,0-.409-.647l-.2-.324-.17.341.187.1-.187.119c.153.256.307.443.392.613.511,1.005,1.005,1.993,1.482,3a18.515,18.515,0,0,0,1.925,3.271A10.505,10.505,0,0,0,12.129,34.8c1.363.784,2.726,1.533,4,2.4a9.341,9.341,0,0,0,.886.528,7.866,7.866,0,0,1,3.2,3.339c.136.273.29.511.409.767a.7.7,0,0,1,.085.273h0v.051h-.068a1,1,0,0,1-.256-.273c-.494-.63-.954-1.278-1.5-1.908a13.024,13.024,0,0,0-2.93-2.3c-1.124-.716-2.232-1.448-3.356-2.181A13.817,13.817,0,0,1,8.16,30.7a38.469,38.469,0,0,1-1.772-3.56c-.256-.6-.545-1.175-.8-1.772a.637.637,0,0,1-.068-.187l.034-.136-.187-.1-.187.119.187-.119Z" transform="translate(22.487 78.414)" fill="#070707"/><path d="M11.261,12.75a1.3,1.3,0,0,1-.273.187c-.341.1-.681.187-1.022.29a9.09,9.09,0,0,0-.886.307,3.983,3.983,0,0,0-.46.256,2.773,2.773,0,0,1-1.721.392l-.9-.1a2.544,2.544,0,0,0-1.465.221c-.307.153-.63.29-.937.426a2.749,2.749,0,0,1-1.806.136,2.721,2.721,0,0,0-.511-.1.519.519,0,0,0-.273.051A.853.853,0,0,0,.512,15.9a4.423,4.423,0,0,0,.273.75,10.05,10.05,0,0,0,1.874,3.083,3.828,3.828,0,0,0,.7.579,1.689,1.689,0,0,0,1.192.307,6,6,0,0,1,1.346-.068,2.333,2.333,0,0,0,1.227-.239c.256-.119.528-.221.767-.358a2.663,2.663,0,0,1,1.738-.221,4.013,4.013,0,0,0,.784,0c.119,0,.221-.051.324-.051.221,0,.273.136.136.307a.693.693,0,0,1-.324.221,1.669,1.669,0,0,1-1.039.068,1.864,1.864,0,0,0-1.414.187c-.153.085-.324.153-.477.221a3.194,3.194,0,0,1-2.01.409H5.537a.614.614,0,0,0-.341.1c-.29.2-.273.477.034.664a3.663,3.663,0,0,0,.443.238,17.508,17.508,0,0,0,3.646,1.4A43.12,43.12,0,0,1,13.7,25.067,4.56,4.56,0,0,1,16.2,27.5c.187.426.375.835.579,1.261.136.29.307.358.6.221a.734.734,0,0,0,.341-.341,2.812,2.812,0,0,0,.153-.733c.051-.733.051-1.465.136-2.2a7.221,7.221,0,0,1,2.044-4.276c.75-.767,1.55-1.5,2.351-2.215a11.771,11.771,0,0,0,3.543-6,1.315,1.315,0,0,0,.034-.256c0-.307-.1-.494-.375-.494a1.752,1.752,0,0,0-.664.1,2.639,2.639,0,0,0-.6.358,2.121,2.121,0,0,1-2.027.341c-.256-.068-.511-.153-.767-.221a1.468,1.468,0,0,0-1.192.17c-.2.119-.392.255-.6.392a1.941,1.941,0,0,1-1.21.358c-.221,0-.443-.017-.681-.034a1.62,1.62,0,0,0-.852.153,2.718,2.718,0,0,0-.392.273.209.209,0,0,1-.29-.017.424.424,0,0,1-.051-.29l.153-.2A4.222,4.222,0,0,1,17.1,13.5a2.66,2.66,0,0,1,1.158-.085,1.77,1.77,0,0,0,1.38-.392c.085-.068.17-.119.273-.187a2.1,2.1,0,0,1,1.874-.307c.273.085.545.17.818.238a1.438,1.438,0,0,0,1.329-.256,3.065,3.065,0,0,1,1.38-.664,1.016,1.016,0,0,0,.886-.937,3.556,3.556,0,0,0-.136-1.4.942.942,0,0,0-.937-.664,1.906,1.906,0,0,1-.613-.085,1.519,1.519,0,0,0-1.346.221,2.6,2.6,0,0,1-1.584.443,2.263,2.263,0,0,0-1.363.375l-.1.051c-.085,0-.221,0-.256-.051V9.548a1.052,1.052,0,0,1,.307-.307,2.188,2.188,0,0,1,1.38-.358,2.551,2.551,0,0,0,1.482-.426l.17-.1a1.469,1.469,0,0,1,1.192-.17,1.735,1.735,0,0,0,.784-.017.4.4,0,0,0,.358-.46,1.782,1.782,0,0,0-.136-.664c-.273-.664-.545-1.329-.852-1.959A5.821,5.821,0,0,0,23.2,3.3a.98.98,0,0,0-1.261-.153,1.7,1.7,0,0,1-1.516.341,1.751,1.751,0,0,0-1.278.2,2.27,2.27,0,0,1-1.721.29,1.7,1.7,0,0,0-1.278.2,1.856,1.856,0,0,1-1.533.136h0a.175.175,0,0,1,0-.341,2.065,2.065,0,0,1,.324-.017,1.589,1.589,0,0,0,.971-.187A2.058,2.058,0,0,1,17.547,3.5a1.736,1.736,0,0,0,1.329-.239,2.034,2.034,0,0,1,1.652-.307,1.553,1.553,0,0,0,1.346-.426.183.183,0,0,0,.017-.307c-.119-.119-.238-.238-.358-.341a8.076,8.076,0,0,0-1.7-.988A11.443,11.443,0,0,0,17.888.331a13.639,13.639,0,0,0-6.473.119c-1.192.324-2.368.716-3.526,1.124a8.23,8.23,0,0,0-1.755.818A16.277,16.277,0,0,0,3.2,4.744,10.864,10.864,0,0,0,.546,8.934a11.993,11.993,0,0,0-.528,4.4.925.925,0,0,0,.9.852,10.193,10.193,0,0,1,1.039.136,2.424,2.424,0,0,0,1.516-.136c.307-.136.63-.29.937-.426A2.6,2.6,0,0,1,5.707,13.5c.426.034.852.085,1.295.136A2.083,2.083,0,0,0,8.28,13.4c.2-.119.392-.256.613-.358a4.4,4.4,0,0,1,.9-.324c.358-.085.733-.085,1.107-.136a.351.351,0,0,1,.392.187Z" transform="translate(34.922 120.381)" fill="#ff85c8"/><path d="M8.193,17.043a32.286,32.286,0,0,0,1.4,4.906,44.431,44.431,0,0,0,3.39,6.729c.75,1.227,1.55,2.436,2.317,3.646a1.96,1.96,0,0,0,.238.29.376.376,0,0,0,.63-.068,1.543,1.543,0,0,0,.221-.443c.1-.307.187-.613.307-.92a18.276,18.276,0,0,0,.971-4.054,8,8,0,0,0-.17-3.117,2.54,2.54,0,0,0-.528-1.073,1.008,1.008,0,0,0-1.329-.239,2.459,2.459,0,0,0-.562.46,2.927,2.927,0,0,0-.647,1.141c-.068.239-.238.375-.392.324-.136-.051-.187-.221-.1-.477.238-.7.477-1.414.733-2.112a20.714,20.714,0,0,0,1.056-3.3,6.913,6.913,0,0,0,.051-2.9,2.514,2.514,0,0,0-.6-1.227.973.973,0,0,0-1.141-.273,2.861,2.861,0,0,0-1.261.937c-.187.221-.358.477-.545.7-.1.119-.221.221-.375.136a.363.363,0,0,1-.136-.409,4.015,4.015,0,0,1,.2-.477,14.091,14.091,0,0,0,1.4-4.344,6.479,6.479,0,0,0-.068-2.623,3.143,3.143,0,0,0-1.022-1.6,1.4,1.4,0,0,0-1.891.068c-.187.2-.358.426-.528.63a3.866,3.866,0,0,1-.307.426L9.267,7.9c-.085-.034-.136-.153-.17-.238l.034-.221a2.184,2.184,0,0,0,.085-.46c.034-.664.068-1.329.051-1.993a6.446,6.446,0,0,0-.818-3.066A4.279,4.279,0,0,0,7.12.331a1.859,1.859,0,0,0-1.738-.2,2.728,2.728,0,0,0-1.414,1.38A5.558,5.558,0,0,0,3.39,4.062,9.262,9.262,0,0,0,3.781,6.7c.051.153.068.29-.1.392-.153.085-.256,0-.358-.1-.136-.119-.256-.238-.392-.358A1.66,1.66,0,0,0,.2,7.418,4.106,4.106,0,0,0,.119,9.684,8.038,8.038,0,0,0,1.5,12.563a9.388,9.388,0,0,0,1.874,1.891,2.888,2.888,0,0,1,.409.375c.136.187.068.307-.153.358a.66.66,0,0,1-.409-.085,3.027,3.027,0,0,0-2.334-.29A1.078,1.078,0,0,0,.1,15.817a1.566,1.566,0,0,0,.238.9,6.134,6.134,0,0,0,1.124,1.346,22.038,22.038,0,0,0,4.071,2.777l.221.136.085.256c-.017.119-.136.153-.256.136L5.366,21.3a2.415,2.415,0,0,0-.988-.085.545.545,0,0,0-.426.818,1.3,1.3,0,0,0,.2.324,6.052,6.052,0,0,1,1.158,3.2c.017.256.034.528.068.784.034.273.1.307.341.17A1.677,1.677,0,0,1,7.035,26.4a2.285,2.285,0,0,1,1.244.937,4.112,4.112,0,0,1,.681,1.584c.1.494.17.988.238,1.482A1.628,1.628,0,0,0,9.539,31.4a3.134,3.134,0,0,0,.767.579,14.587,14.587,0,0,1,2.368,1.431c.068.068.17.153.256.051v-.273a3.725,3.725,0,0,0-.273-.511c-.6-.937-1.175-1.874-1.772-2.811a31.621,31.621,0,0,1-2.419-4.719A27.3,27.3,0,0,1,6.677,19.5a38.68,38.68,0,0,1-.715-6.1,13.763,13.763,0,0,1-.034-1.874,8.488,8.488,0,0,0-.17-2.862c-.136-.545-.273-1.107-.392-1.652a1.831,1.831,0,0,1-.017-.528.543.543,0,0,1,.852-.46,1.9,1.9,0,0,1,.852.9,6.864,6.864,0,0,1,.7,3.39c-.034.7-.051,1.4-.034,2.078a25.1,25.1,0,0,0,.528,4.651Z" transform="translate(28.841 79.139)" fill="#4dbc6c"/><path d="M2.755,9.792,2.7,9.877a3,3,0,0,1-.392,0,1.518,1.518,0,0,0-.869.136,1.594,1.594,0,0,0-.835,2.061A4.735,4.735,0,0,0,2.993,14.9a8.671,8.671,0,0,0,3.748.9l.2.034.153.187-.119.221-.136.051a1.494,1.494,0,0,0-.528,2.5,2.91,2.91,0,0,0,1.056.63,5.034,5.034,0,0,0,2.3.256c.767-.085,1.533-.187,2.3-.273a6.3,6.3,0,0,1,1.959-.034c.119.017.273.1.341-.068.051-.17-.119-.2-.221-.255-.937-.63-1.891-1.227-2.811-1.874a12.819,12.819,0,0,1-3.782-3.816c-.579-.954-1.158-1.942-1.669-2.947C5.208,9.247,4.7,8.037,4.152,6.845a1.84,1.84,0,0,1-.17-.6.526.526,0,0,1,.784-.579.964.964,0,0,1,.494.443c.477.937.971,1.857,1.431,2.794A24.681,24.681,0,0,0,8.82,12.654,8.381,8.381,0,0,0,11.153,14.9c1.073.664,2.181,1.295,3.254,1.942.17.1.358.221.528.307s.29.034.273-.153a1.012,1.012,0,0,0-.119-.443,7.253,7.253,0,0,1-.613-2.044c-.068-.511-.1-1.022-.153-1.516a10.1,10.1,0,0,0-.375-2.368,3.751,3.751,0,0,0-.835-1.448,1.25,1.25,0,0,0-2.044.238c-.085.136-.153.273-.238.409-.068.1-.153.2-.29.153a.459.459,0,0,1-.187-.256,1.257,1.257,0,0,1,0-.358,9.191,9.191,0,0,0,0-2.163,5.358,5.358,0,0,0-1.09-2.692,2.749,2.749,0,0,0-1.175-.937,1.081,1.081,0,0,0-1.363.494,2.368,2.368,0,0,0-.2.7c-.034.119,0,.255-.068.375a.373.373,0,0,1-.221.2c-.136.017-.2-.085-.221-.221-.034-.221-.068-.426-.085-.647a4.622,4.622,0,0,0-.341-1.431A6.922,6.922,0,0,0,3.607.593,2.7,2.7,0,0,0,2.5.047a1.13,1.13,0,0,0-.75.034A2.577,2.577,0,0,0,.472,1.172,3.342,3.342,0,0,0,.029,2.62a6.859,6.859,0,0,0,.562,3.3A15.592,15.592,0,0,0,2.568,9.451a2.309,2.309,0,0,1,.17.358Z" transform="translate(23.19 97.207)" fill="#4dbc6c"/><path d="M10.533,7.486a.29.29,0,0,1-.511-.187h0V6.651A11.079,11.079,0,0,0,9.613,2.9,4.755,4.755,0,0,0,8.028.552,2.409,2.409,0,0,0,6.359.007,2.2,2.2,0,0,0,4.3,2.58,12.5,12.5,0,0,0,5.064,5.39a6.107,6.107,0,0,1,.273.954.437.437,0,0,1-.119.307c-.119.085-.238,0-.324-.1s-.153-.221-.256-.324a3.172,3.172,0,0,0-.392-.443.83.83,0,0,0-.937-.153,2.705,2.705,0,0,0-.6.375,2.974,2.974,0,0,0-.92,2.078,7.575,7.575,0,0,0,.375,2.692c.341,1.107.733,2.2,1.107,3.288.085.255.085.409-.051.477-.136.085-.256.034-.46-.17-.221-.221-.426-.426-.664-.63a1.113,1.113,0,0,0-.818-.273,1.066,1.066,0,0,0-1.005.92,9.013,9.013,0,0,0-.221.92A2.239,2.239,0,0,0,.141,16.6a5.548,5.548,0,0,0,.784,1.192,9.472,9.472,0,0,1,1.363,2.164l.1.17c.119.136.256.119.358-.034l.051-.17a26.664,26.664,0,0,1,1.7-4.736c.443-1.039.886-2.078,1.295-3.117A14.293,14.293,0,0,0,6.751,7.69,15.036,15.036,0,0,0,6.6,5.22a3.708,3.708,0,0,1-.017-.971.574.574,0,0,1,1.005-.358,1.905,1.905,0,0,1,.29.358,4.085,4.085,0,0,1,.494,1.312,9.783,9.783,0,0,1,.085,3.3,16.979,16.979,0,0,1-.852,3.68c-.494,1.38-.954,2.76-1.482,4.123a29.267,29.267,0,0,0-1.312,4.088.8.8,0,0,0-.034.341c.034.341.29.46.579.256l.1-.1c.392-.307.767-.613,1.175-.886a31.465,31.465,0,0,1,3.492-1.891,12.411,12.411,0,0,0,2.232-1.363,4.72,4.72,0,0,0,1.346-1.55,2.083,2.083,0,0,0,.256-1.107.94.94,0,0,0-1.124-.937,2.406,2.406,0,0,0-.75.238c-.29.153-.562.341-.852.528l-.153.1c-.119.051-.256.136-.375,0a.259.259,0,0,1,.017-.341,3.009,3.009,0,0,1,.273-.375,14.191,14.191,0,0,0,1.959-2.964,6.588,6.588,0,0,0,.681-2.266,3,3,0,0,0-.085-1.227A1.245,1.245,0,0,0,11.776,6.4a2.472,2.472,0,0,0-1.107.937l-.1.136Z" transform="translate(46.4 93.858)" fill="#4dbc6c"/><path d="M1.212,2.224a4.518,4.518,0,0,0-.1-.511A4.731,4.731,0,0,0,.5.2C.411.078.292-.059.1.027-.049.095,0,.265.036.384L.292,1.458A11.577,11.577,0,0,1,.6,4.8a38.493,38.493,0,0,0,.29,5.417,25.823,25.823,0,0,0,1.431,6.2,36.473,36.473,0,0,0,3.2,6.49c.426.7.869,1.38,1.312,2.061a30.962,30.962,0,0,1,2.027,3.867,11.311,11.311,0,0,1,1.227,4.378,1.012,1.012,0,0,0,.119.443.744.744,0,0,0,.784.375.617.617,0,0,0,.46-.6v-.29c-.068-.426-.153-.852-.238-1.278a31.557,31.557,0,0,0-1.09-3.543,15.3,15.3,0,0,0-1.7-3.424c-.324-.477-.664-.937-.937-1.431-.9-1.567-1.789-3.135-2.658-4.719a18.9,18.9,0,0,1-1.4-3.049c-.119-.341-.2-.681-.324-1.022-.256-.75-.528-1.482-.75-2.215a23.083,23.083,0,0,1-.681-3A30.4,30.4,0,0,1,1.331,4.49a8.37,8.37,0,0,0-.119-2.266Z" transform="translate(34.648 85.661)" fill="#169b6f"/><path d="M4.354.017,4.269.051c0,.1-.034.2-.034.307a4.621,4.621,0,0,0,.068.7c.051.528.136,1.056.153,1.584a14.81,14.81,0,0,1-.562,4.242,25.155,25.155,0,0,1-1.652,4.242A23.522,23.522,0,0,0,.283,17.052a15.6,15.6,0,0,0-.238,3.986.451.451,0,0,0,.256.426c.324.153.9-.051.818-.545a9.225,9.225,0,0,1,0-2.47,22.8,22.8,0,0,1,1.414-5.485c.477-1.278.954-2.555,1.414-3.833A19.678,19.678,0,0,0,5.1,4.191a7.691,7.691,0,0,0-.187-3.117,6.645,6.645,0,0,0-.341-.8A1.192,1.192,0,0,0,4.337,0Z" transform="translate(49.188 98.039)" fill="#169b6f"/><path d="M.066,0a.571.571,0,0,0,0,.528c.273.6.545,1.175.8,1.772A38.778,38.778,0,0,0,2.639,5.877a14.07,14.07,0,0,0,4.514,4.872c1.107.733,2.232,1.465,3.356,2.2A12.829,12.829,0,0,1,13.4,15.2c.528.613.988,1.261,1.482,1.891a1.051,1.051,0,0,0,.307.307.247.247,0,0,0,.392-.238.867.867,0,0,0-.1-.358c-.136-.273-.273-.528-.409-.784a8.012,8.012,0,0,0-3.3-3.424,8.669,8.669,0,0,1-.852-.511c-1.295-.886-2.658-1.635-4-2.419A10.238,10.238,0,0,1,3.848,6.865,19.926,19.926,0,0,1,1.94,3.628c-.477-1.005-.988-2.01-1.5-3A7.209,7.209,0,0,0,.049,0Z" transform="translate(27.787 103.337)" fill="#169b6f"/><path d="M9.039,0a.236.236,0,0,1,.068.46H9.039a1.543,1.543,0,0,1-.545.1,1.511,1.511,0,0,0-.886.273,1.6,1.6,0,0,1-1.669.17,1.3,1.3,0,0,0-1.175.1,7.675,7.675,0,0,1-.75.358,2.59,2.59,0,0,1-1.567.051,3.529,3.529,0,0,0-.715-.136,1.863,1.863,0,0,0-1.039.358c-.136.085-.273.2-.409.273H.044A.32.32,0,0,1,.01,1.755l.136-.187A2.248,2.248,0,0,1,2.412.92a3.529,3.529,0,0,0,.715.136A1.851,1.851,0,0,0,4.167.8c.238-.119.477-.238.715-.341a1.281,1.281,0,0,1,1.141,0,1.372,1.372,0,0,0,1.4-.119,1.688,1.688,0,0,1,.937-.29C8.579.051,8.8,0,9.039,0Z" transform="translate(44.452 127.254)" fill="#0a0a0a"/><path d="M6.865.541a1.805,1.805,0,0,1-.988.187H5.741a1.5,1.5,0,0,0-1.465.358,1.786,1.786,0,0,1-1.669.375,1.282,1.282,0,0,0-.9.136,6.166,6.166,0,0,1-.937.341,1.849,1.849,0,0,1-.528-.017A.267.267,0,0,1,0,1.631c0-.119.136-.221.324-.187a1.385,1.385,0,0,0,1.005-.221A2.1,2.1,0,0,1,2.794.95,1.317,1.317,0,0,0,3.884.711c.1-.068.221-.136.324-.2A1.855,1.855,0,0,1,5.6.183,1.751,1.751,0,0,0,6.78.047L6.865.013a.267.267,0,0,1,.307.1.21.21,0,0,1-.085.307C7,.473,6.916.507,6.848.541Z" transform="translate(37.495 126.049)" fill="#0a0a0a"/><path d="M2.385,1.465A1.1,1.1,0,0,1,1.5,2.4a.9.9,0,0,1-.937-.358A2.83,2.83,0,0,1,0,.733L.085.494H.341A1.287,1.287,0,0,1,.562.886c.1.221.187.477.307.7a.5.5,0,0,0,.545.238c.256-.034.409-.119.46-.375A6.283,6.283,0,0,0,1.857.307c0-.17.085-.307.2-.307a.261.261,0,0,1,.273.221A5.379,5.379,0,0,1,2.4,1.465Z" transform="translate(48.125 136.436)" fill="#0a0a0a"/><path d="M.034.667C.034.531,0,.445,0,.377,0,.207.051.053.238.019A.4.4,0,0,1,.681.156a.915.915,0,0,1,.153.7.363.363,0,0,1-.29.324A.343.343,0,0,1,.17.99,3.494,3.494,0,0,1,.034.667Z" transform="translate(46.03 137.183)" fill="#0a0a0a"/><path d="M.034.667C.034.53,0,.445,0,.377,0,.207.051.053.239.019A.4.4,0,0,1,.681.156a.915.915,0,0,1,.153.7.363.363,0,0,1-.29.324A.343.343,0,0,1,.17.99,3.5,3.5,0,0,1,.034.667Z" transform="translate(51.549 136.093)" fill="#0a0a0a"/><path d="M72.4,11.26H71.123V6.184L77.2,14.906h4.753V3.748h1.261V.29H77.392V3.748h1.175V7.836L73.32.29H66.489V3.748H67.75v7.53H66.489v3.458h5.928V11.277Zm-16.814.29H54.411l.63-1.823h3.7l.545,1.823H58.022v3.169h7.53V11.26H64.5l-2.76-7.53h1.158V.273H52.52V3.731h1.158L50.97,11.26H49.863v3.458h5.724Zm2.589-3.612H55.586l1.363-4ZM41.617,11.686a2.328,2.328,0,0,1-1.959-.869,5.513,5.513,0,0,1-.664-3.22,5.95,5.95,0,0,1,.63-3.271,2.309,2.309,0,0,1,2.01-.886,2.483,2.483,0,0,1,1.7.477A3.4,3.4,0,0,1,44.53,5.332h3.475V.29H44.53V1.295A6.183,6.183,0,0,0,40.357,0a8.221,8.221,0,0,0-5.4,2.061A7.063,7.063,0,0,0,32.742,7.5a5.939,5.939,0,0,0,1.107,4.02,6.172,6.172,0,0,0,3.1,2.623,11.587,11.587,0,0,0,4.429.818,7.17,7.17,0,0,0,3.066-.511,5.86,5.86,0,0,0,2.436-1.652,5.881,5.881,0,0,0,1.346-2.249,13.6,13.6,0,0,0,.341-3.509H42.111V9.778h1.465a1.734,1.734,0,0,1-1.959,1.959Zm-11.124-1.6H26.711v1.158H23.441V8.875h2.845V5.945H23.441V3.731h3.271V4.889h3.782V.273H16.712V3.731h1.141v7.53H16.729v3.458H30.493V10.1ZM14.514,3.731h1.073V.273H9.761V3.731h1.175L8.688,9.881,6.542,3.731H7.768V.273H0V3.731H1.073l4.6,11.107h4.5L14.514,3.731Z" transform="translate(14.804 40.084)" fill="#f7eee5"/><path d="M72.6,11.516v-.221H71.549V7.121l5.741,8.245h5.077V4.208h1.261V.324H77.375V4.208H78.55V7.393L73.627.324H66.455V4.208h1.261v7.087H66.455v3.884h6.354V11.294h-.221v.221h-.221v3.237H66.881V11.737h1.278V3.782H66.9V.767h6.508L78.993,8.79V3.782H77.818V.767H83.2V3.782H81.94V14.94H77.511l-6.405-9.2v6h1.5v-.221h0Zm-16.814.29v-.221H54.9l.477-1.38h3.373l.426,1.38H57.988v3.594h7.973V11.294H64.837L62.23,4.208H63.3V.324H52.486V4.208h1.073L51,11.294H49.845v3.884H56V11.584h-.221v.221h-.221v2.947H50.271V11.737h1.039l2.862-7.956H52.912V.767h9.949V3.782H61.617l2.913,7.956h.988v3.015h-7.1V12.027H59.76l-.681-2.249h-4l-.784,2.249h1.5v-.221h0ZM58.38,8.194V7.973H56.1l1.039-3.066,1.022,3.356.2-.068v0l.2-.068L57.137,3.492,55.467,8.415h3.186l-.085-.29-.2.068ZM41.822,11.942V11.72a2.077,2.077,0,0,1-1.789-.784,5.44,5.44,0,0,1-.613-3.1,5.88,5.88,0,0,1,.6-3.152,2.1,2.1,0,0,1,1.84-.8,2.834,2.834,0,0,1,1.584.443,3.223,3.223,0,0,1,1.107,1.329l.051.119h3.833V.29H44.513V1.516h.221l.136-.17A6.45,6.45,0,0,0,40.544,0a7.859,7.859,0,0,0-5.554,2.129,7.271,7.271,0,0,0-2.283,5.588,7.822,7.822,0,0,0,1.124,4.14,6.33,6.33,0,0,0,3.2,2.709,11.968,11.968,0,0,0,4.514.818,9.205,9.205,0,0,0,3.152-.528,6.142,6.142,0,0,0,2.521-1.7,6.075,6.075,0,0,0,1.4-2.334A13.526,13.526,0,0,0,48.96,7.24V7.019H42.077v3.169h1.687V9.966h-.221c-.034,1.227-.511,1.7-1.738,1.738v.443a2.219,2.219,0,0,0,1.618-.545,2.219,2.219,0,0,0,.545-1.618V9.761H42.486v-2.3h6.235V7.24H48.5a13.911,13.911,0,0,1-.324,3.458,5.655,5.655,0,0,1-1.295,2.163,5.544,5.544,0,0,1-2.351,1.584,8.659,8.659,0,0,1-3,.511,11.407,11.407,0,0,1-4.344-.8,5.862,5.862,0,0,1-2.981-2.521,7.318,7.318,0,0,1-1.073-3.918A6.881,6.881,0,0,1,35.28,2.436,7.348,7.348,0,0,1,40.527.426a6.023,6.023,0,0,1,4.037,1.244l.358.307V.715h3.049V5.332H44.718v.221l.187-.1a3.675,3.675,0,0,0-1.261-1.5,3.3,3.3,0,0,0-1.823-.511,2.559,2.559,0,0,0-2.2.988,6.264,6.264,0,0,0-.681,3.407,5.573,5.573,0,0,0,.715,3.356,2.522,2.522,0,0,0,2.129.937v-.221ZM30.7,10.34v-.221h-4v1.158H23.85V9.352h2.862V5.979H23.85V4.191h2.845V5.349h4.225V.29H16.695V4.174h1.141V11.26H16.712v3.884H30.919v-5.06H30.7v.221h-.221v4.4H17.138V11.686h1.124V3.731H17.121V.715H30.476V4.906H27.12V3.748H23.407V6.405h2.845v2.5H23.407V11.7H27.12V10.545H30.7v-.221h0ZM14.719,3.986v.221H16V.324H9.744V4.208h1.09L8.892,9.489,7.053,4.208H8.194V.324H0V4.208H1.141l4.6,11.107h4.787l4.4-11.243-.2-.085v0l-.2-.085L10.238,14.872H6.048L1.448,3.765H.46V.75H7.785V3.765H6.473l2.453,7.019L11.5,3.765H10.221V.75H15.6V3.765H14.6l-.051.136.2.085Z" transform="translate(14.599 39.829)" fill="#3d342d"/><path d="M96.386,7.615h.988V4.531H92.315V7.615h.954l-1.584,3.85-1.7-3.85h1.073V4.531H84.376V7.615h.75l3.765,7.24L88.4,15.86H86.744v2.981H91.02L96.369,7.632ZM84.206,11.26h-.9V.29H77.187V3.373h1.039V11.26H77.187v3.083h7.019Zm-9.71,0V.29H68.159V3.373h1.261V5.179a5.739,5.739,0,0,0-3.117-.8,6.465,6.465,0,0,0-3.952,1.363,5.1,5.1,0,0,0-1.482,3.918,4.156,4.156,0,0,0,1.6,3.611,5.758,5.758,0,0,0,3.663,1.261A5.905,5.905,0,0,0,69.4,13.7v.664h6.354V11.277H74.479Zm-5.519-.187a1.622,1.622,0,0,1-1.261.528,1.476,1.476,0,0,1-1.261-.613,2.5,2.5,0,0,1-.426-1.516c0-1.482.579-2.232,1.721-2.232s.988.2,1.261.613a2.584,2.584,0,0,1,.426,1.533,2.661,2.661,0,0,1-.477,1.669Zm-17.189.187H50.374V8.177a2.669,2.669,0,0,1,1.448-.511,1.155,1.155,0,0,1,1.005.443,4.562,4.562,0,0,1,.239,1.874v4.361h6.252V11.26H58.159V8.739A4.858,4.858,0,0,0,57.222,5.4a3.63,3.63,0,0,0-2.828-1.039,6.942,6.942,0,0,0-4.02,1.431V4.548H44.019V7.632H45.28v3.646H44.019v3.083h7.768v-3.1ZM36.473,12.334c-1.158,0-1.755-.8-1.772-2.385h7.717A5.493,5.493,0,0,0,40.6,5.673a7,7,0,0,0-4.531-1.414,6.75,6.75,0,0,0-4.583,1.5,4.766,4.766,0,0,0-1.7,3.731A4.676,4.676,0,0,0,31.5,13.2a7.938,7.938,0,0,0,5.162,1.431c2.3,0,2.521-.256,3.509-.784a4.873,4.873,0,0,0,1.227-.9,3.645,3.645,0,0,0,.784-1.175l-4.191-.511a1.564,1.564,0,0,1-1.516,1.09ZM34.752,8.467a2.641,2.641,0,0,1,.358-1.414,1.179,1.179,0,0,1,1.056-.562A1.286,1.286,0,0,1,37.239,7a2.1,2.1,0,0,1,.409,1.329c0,.545,0,.136-.017.341H34.769v-.2Zm-12.163-5.4a4.107,4.107,0,0,0,1.993.443,3.591,3.591,0,0,0,1.959-.477,1.417,1.417,0,0,0,.767-1.261A1.475,1.475,0,0,0,26.575.511,3.434,3.434,0,0,0,24.6,0a3.715,3.715,0,0,0-1.993.477,1.45,1.45,0,0,0-.818,1.278,1.45,1.45,0,0,0,.8,1.295Zm5.554,8.194h-.852V4.548h-6.1V7.632H22.2v3.646H21.192v3.083h6.95v-3.1Zm-10.834,0H15.826a2.878,2.878,0,0,1,.307-1.431,2.006,2.006,0,0,1,1.073-.852,6.578,6.578,0,0,1,2.317-.307h.426V4.361a8.353,8.353,0,0,0-1.993.187,3.518,3.518,0,0,0-1.4.852A3.992,3.992,0,0,0,15.5,6.985V4.531H9.421V7.615h1.329V11.26H9.421v3.083h7.9V11.26Zm-9.369,0H6.286V7.615H8.16V4.531H6.286a3.2,3.2,0,0,1,.136-1.124A.938.938,0,0,1,6.933,2.9a2.582,2.582,0,0,1,1.073-.187,10.61,10.61,0,0,1,1.261.068V.034C8.552,0,7.836,0,7.121,0A9.5,9.5,0,0,0,3.629.46,3.935,3.935,0,0,0,1.908,1.84a4.159,4.159,0,0,0-.664,2.47v.238H0V7.632H1.244v3.646H0v3.083H7.938V11.277Z" transform="translate(8.075 56.438)" fill="#f7eee5"/><path d="M96.591,7.836v.221h1.192V4.548h-5.5V8.058h.835l-1.261,3.083L90.492,8.058h.971V4.548H84.342V8.058h.835l3.646,7.019-.392.784H86.71v3.424h4.634L96.761,7.939l-.2-.085v0l-.2-.1-5.3,11.09H87.119V16.3h1.567l.613-1.227L85.432,7.632h-.664V4.991H91.02v2.64H89.828l2.044,4.617,1.891-4.617H92.706V4.991H97.34v2.64h-.9l-.051.119.2.1ZM84.41,11.482V11.26h-.681V.29H77.17V3.8h1.039V11.26H77.17V14.77h7.461V11.26H84.41v.221h-.221v2.862H77.6V11.7h1.039V3.373H77.6V.733h5.69V11.7H84.41v-.221h0Zm-9.71,0h.221V.29H68.159V3.8h1.261V5.383h.221L69.76,5.2a6.65,6.65,0,0,0-7.325.579,5.342,5.342,0,0,0-1.55,4.088,4.534,4.534,0,0,0,1.687,3.782,6.017,6.017,0,0,0,3.8,1.312,6.563,6.563,0,0,0,3.39-.869l-.1-.187h-.221v.869h6.8V11.26H74.751v.221h0V11.7h1.056v2.64H69.879v-.818l-.324.2a6,6,0,0,1-3.169.8,5.533,5.533,0,0,1-3.526-1.21,4.119,4.119,0,0,1-1.516-3.441,4.894,4.894,0,0,1,1.414-3.765,5.361,5.361,0,0,1,3.8-1.312,5.422,5.422,0,0,1,3,.784l.341.2V3.39H68.635V.75H74.53V11.72h.221V11.5Zm-5.519-.187-.153-.153a1.4,1.4,0,0,1-1.09.46,1.215,1.215,0,0,1-1.09-.511,2.339,2.339,0,0,1-.392-1.4c.034-1.448.477-1.993,1.516-2.01a1.234,1.234,0,0,1,1.09.511,2.432,2.432,0,0,1,.392,1.414,2.228,2.228,0,0,1-.426,1.533l.17.136.17.136A2.677,2.677,0,0,0,69.9,9.591a2.859,2.859,0,0,0-.46-1.652,1.7,1.7,0,0,0-1.448-.7,1.733,1.733,0,0,0-1.465.647,2.955,2.955,0,0,0-.477,1.806,2.8,2.8,0,0,0,.46,1.635,1.654,1.654,0,0,0,1.448.7,1.82,1.82,0,0,0,1.414-.613l-.153-.153Zm-17.189.187V11.26H50.8V8.4h-.221l.119.187a2.482,2.482,0,0,1,1.329-.477c.46,0,.681.119.818.341a4.74,4.74,0,0,1,.221,1.772v4.565h6.678V11.277H58.585v-2.3A5.121,5.121,0,0,0,57.6,5.485a3.872,3.872,0,0,0-3-1.107,6.716,6.716,0,0,0-4.14,1.465l.136.17h.221V4.548h-6.78V8.058H45.3v3.2H44.036V14.77H52.23V11.26h-.221v.221h-.221v2.862H44.462V11.7h1.261V7.632H44.462V4.991h5.911V6.456l.358-.273A6.3,6.3,0,0,1,54.615,4.8a3.488,3.488,0,0,1,2.675.971,4.674,4.674,0,0,1,.886,3.2V11.7h1.158v2.64H53.525V10.2a4.52,4.52,0,0,0-.273-1.976,1.281,1.281,0,0,0-1.192-.562,2.909,2.909,0,0,0-1.584.545l-.1.068V11.7h1.635v-.221h-.017ZM36.677,12.555v-.221c-1.039-.017-1.516-.613-1.567-2.163h-.221v.221h7.938V10.17A5.7,5.7,0,0,0,40.9,5.741a7.153,7.153,0,0,0-4.668-1.465,6.882,6.882,0,0,0-4.719,1.55,5.006,5.006,0,0,0-1.789,3.9,4.839,4.839,0,0,0,1.806,3.884,8.216,8.216,0,0,0,5.3,1.482,7.584,7.584,0,0,0,3.611-.818,4.861,4.861,0,0,0,1.278-.937,4.092,4.092,0,0,0,.835-1.244l.119-.273-4.651-.562-.068.153a1.338,1.338,0,0,1-1.312.954v.443a1.813,1.813,0,0,0,1.721-1.227l-.2-.085-.034.221,4.191.511.034-.221-.2-.085a3.444,3.444,0,0,1-.75,1.107,5.264,5.264,0,0,1-1.175.869,7.041,7.041,0,0,1-3.407.767,7.741,7.741,0,0,1-5.008-1.38,4.315,4.315,0,0,1-1.652-3.543,4.558,4.558,0,0,1,1.635-3.577,6.418,6.418,0,0,1,4.429-1.448,6.775,6.775,0,0,1,4.4,1.363,5.275,5.275,0,0,1,1.755,4.106h.221V9.966H34.65v.221c0,1.618.7,2.606,1.993,2.606v-.221ZM34.957,8.688h.221A2.468,2.468,0,0,1,35.5,7.393a.932.932,0,0,1,.869-.46,1.076,1.076,0,0,1,.9.426,1.876,1.876,0,0,1,.358,1.193s0,.136-.017.324h.221v-.2H34.974v.221H35.2v-.2h-.426V9.1H38.04v-.2a1.99,1.99,0,0,0,.034-.358,2.4,2.4,0,0,0-.443-1.448,1.541,1.541,0,0,0-1.244-.6,1.42,1.42,0,0,0-1.227.664,2.777,2.777,0,0,0-.392,1.533h.187Zm-12.163-5.4-.1.187a4.45,4.45,0,0,0,2.112.46,3.957,3.957,0,0,0,2.078-.511,1.593,1.593,0,0,0,.869-1.448A1.739,1.739,0,0,0,26.916.545,3.618,3.618,0,0,0,24.821,0a4.128,4.128,0,0,0-2.112.511,1.624,1.624,0,0,0-.92,1.465,1.606,1.606,0,0,0,.92,1.482l.1-.187.1-.187a1.144,1.144,0,0,1-.681-1.107,1.18,1.18,0,0,1,.715-1.09,3.533,3.533,0,0,1,1.891-.46,3.436,3.436,0,0,1,1.857.46,1.307,1.307,0,0,1,.647,1.073,1.192,1.192,0,0,1-.664,1.073,3.5,3.5,0,0,1-1.84.443,3.8,3.8,0,0,1-1.891-.409l-.1.187Zm5.554,8.194V11.26h-.63V4.548H21.192V8.058H22.2v3.2H21.192V14.77h7.376V11.26h-.221v.221h-.221v2.862H21.618V11.7h1.005V7.632H21.618V4.991h5.656V11.7h1.073v-.221h0Zm-10.835,0V11.26H16.03v.221h.221a2.862,2.862,0,0,1,.273-1.329,1.791,1.791,0,0,1,.954-.75,6.383,6.383,0,0,1,2.232-.29h.647V4.361h-.221a7.851,7.851,0,0,0-2.044.2,3.827,3.827,0,0,0-1.482.9A4.286,4.286,0,0,0,15.5,7.138l.2.068h.221V4.531H9.4V8.041h1.329v3.2H9.4v3.509h8.33V11.243h-.221v.221h-.221v2.862H9.829v-2.64h1.346V7.615H9.846V4.974H15.5V8.415l.426-1.124a3.884,3.884,0,0,1,1.005-1.5,3.269,3.269,0,0,1,1.312-.818,7.533,7.533,0,0,1,1.925-.187V4.565h-.221v4.31h.221V8.654h-.426a6.777,6.777,0,0,0-2.4.324,2.167,2.167,0,0,0-1.175.954,3.193,3.193,0,0,0-.324,1.533v.221h1.7v-.221h0Zm-9.369,0V11.26H6.695v-3.2H8.569V4.548h-2.1V4.77h.221a2.955,2.955,0,0,1,.119-1.039.792.792,0,0,1,.409-.409,2.384,2.384,0,0,1,.988-.153,11.571,11.571,0,0,1,1.244.068h.238V.068h-.2C8.773.034,8.058.017,7.325.017A9.7,9.7,0,0,0,3.748.494,4.1,4.1,0,0,0,1.942,1.942a4.347,4.347,0,0,0-.7,2.589H0V8.041H1.244v3.2H0v3.509H8.364V11.243H8.143v.221H7.921v2.862H.426v-2.64H1.669V7.615H.426V4.974H1.669V4.531A4.04,4.04,0,0,1,2.283,2.2,3.686,3.686,0,0,1,3.9.9,9.3,9.3,0,0,1,7.308.46c.733,0,1.431,0,2.146.034V.273h-.2V3.015h.221V2.794a11.42,11.42,0,0,0-1.261-.068,2.91,2.91,0,0,0-1.175.2,1.143,1.143,0,0,0-.63.63A3.542,3.542,0,0,0,6.269,4.77v.221H8.143v2.64H6.269V11.7H8.143v-.221h0Z" transform="translate(7.87 56.217)" fill="#3d342d"/></g></svg>