<svg xmlns="http://www.w3.org/2000/svg" width="209.333" height="197.509" viewBox="0 0 209.333 197.509"><g transform="translate(0 127.652) rotate(-65)"><path d="M28.994,0h81.974a29.016,29.016,0,0,1,28.994,28.994v106.42a29.016,29.016,0,0,1-28.994,28.994H28.994A29.016,29.016,0,0,1,0,135.414V28.994A28.994,28.994,0,0,1,28.994,0Z" transform="translate(0.443 0.443)" fill="#d88118"/><path d="M.443,135.84H.886V29.437A28.558,28.558,0,0,1,29.437.869h81.974A28.558,28.558,0,0,1,139.98,29.437v106.42a28.558,28.558,0,0,1-28.568,28.568H29.437A28.558,28.558,0,0,1,.869,135.857H0a29.445,29.445,0,0,0,29.437,29.437h81.974a29.445,29.445,0,0,0,29.437-29.437V29.437A29.459,29.459,0,0,0,111.394,0H29.437A29.445,29.445,0,0,0,0,29.437v106.42H.443Z" transform="translate(0 0)"/><path d="M85.058,48.789a13.458,13.458,0,0,0,0-26.916A13.18,13.18,0,0,0,79.93,22.9a17.312,17.312,0,0,0-21.345-13A14.925,14.925,0,0,0,31.873,7.019c-.562-.051-1.141-.085-1.721-.085A16.691,16.691,0,0,0,13.543,21.907h-.085a13.458,13.458,0,1,0,0,26.916h71.6Z" transform="translate(24.224 19.097)" fill="#fff"/><path d="M85.617,49.979a14.04,14.04,0,1,0-5.281-27.052l.715.409A18.075,18.075,0,0,0,66.214,9.52a18.333,18.333,0,0,0-7.206.392l.715.409A15.743,15.743,0,0,0,50.95,1.139a15.543,15.543,0,0,0-13.475.869,15.806,15.806,0,0,0-5.519,5.3c.17-.1.341-.187.494-.29A17.248,17.248,0,0,0,13.541,22.484l.579-.579a13.348,13.348,0,0,0-8.535,2.828A14.035,14.035,0,0,0,6.505,47.8a15.561,15.561,0,0,0,8.6,2.181H71.222c4.719,0,9.455.119,14.173,0h.2a.579.579,0,0,0,0-1.158H25.176c-3.731,0-7.461.017-11.192,0A12.876,12.876,0,0,1,9.657,23.813a11.835,11.835,0,0,1,4.412-.733.6.6,0,0,0,.579-.579A16.115,16.115,0,0,1,32.4,8.191a.552.552,0,0,0,.494-.29,14.348,14.348,0,0,1,25.655,2.743.587.587,0,0,0,.715.409A16.916,16.916,0,0,1,77.747,18.4a17.141,17.141,0,0,1,2.146,5.264.587.587,0,0,0,.715.409,12.874,12.874,0,1,1,4.957,24.752.579.579,0,0,0,0,1.158Z" transform="translate(23.665 18.486)"/><path d="M13.529,0s1.6,9.812-3.015,11.243C5.9,12.657-.543,12.078.036,0Z" transform="translate(64.136 40.561)"/><path d="M13.6,1.5c0,.085.051.392.017.17-.034-.238.017.17.034.256.017.17.034.341.051.494A25.056,25.056,0,0,1,13.82,5.2a12.409,12.409,0,0,1-.341,3.117,5.105,5.105,0,0,1-1.158,2.419,2.448,2.448,0,0,1-.869.562q-.588.179-1.175.307c-.2.051-.409.085-.63.119-.051,0-.324.051-.187.034.136,0-.17.017-.239.017a9.834,9.834,0,0,1-1.227.034,3.932,3.932,0,0,1-.63-.051c.256.034-.29-.051-.409-.085a3.45,3.45,0,0,1-.562-.153l-.273-.1c-.256-.085.051.034-.136-.051a4.522,4.522,0,0,1-1.908-1.5h0l-.136-.187c-.068-.119-.153-.238-.221-.358a7.83,7.83,0,0,1-.443-.835A11.069,11.069,0,0,1,2.713,6.7,20.128,20.128,0,0,1,2.355,1.16L1.2,2.318H14.688a1.159,1.159,0,0,0,0-2.317H1.2A1.171,1.171,0,0,0,.038,1.16C-.1,4.311.055,7.906,1.81,10.648a7.236,7.236,0,0,0,5.128,3.339,9.864,9.864,0,0,0,6.048-.92c2.249-1.346,2.879-4.225,3.066-6.627A22.745,22.745,0,0,0,15.8.853a1.165,1.165,0,1,0-2.249.613Z" transform="translate(62.942 39.367)"/><path d="M11.642,0S12.6,11.124,6.736,11.482-.3,7.7.058,0H11.642Z" transform="translate(48.918 40.561)"/><path d="M11.694,1.158a22.924,22.924,0,0,1,.034,2.862c-.017.443-.051.869-.085,1.295a2.538,2.538,0,0,1-.034.358c0,.085-.034.307,0,.1-.034.238-.068.477-.119.733a12.79,12.79,0,0,1-.324,1.4c-.068.221-.136.443-.2.647l-.1.29-.068.187h0a9.823,9.823,0,0,1-.647,1.175c-.153.221.051-.034-.085.1l-.187.2a5.869,5.869,0,0,1-.477.443c.17-.136-.034,0-.1.068l-.238.136c-.051.034-.358.153-.1.068-.1.034-.2.085-.324.119a2.489,2.489,0,0,1-.341.085c-.085.017-.307.051-.1.017a7.7,7.7,0,0,1-.886.034,6.563,6.563,0,0,1-.818-.034c-.256-.017-.034,0-.221-.017-.136-.017-.256-.051-.392-.068-.221-.051-.443-.119-.664-.187-.068-.034-.273-.119-.1-.034-.119-.051-.238-.119-.358-.17l-.256-.153L4.3,10.681l-.17-.153-.238-.238-.221-.256c.119.153,0,0-.051-.085a5.712,5.712,0,0,1-.358-.613c-.034-.051-.187-.392-.1-.2a3.07,3.07,0,0,1-.136-.358c-.1-.273-.17-.545-.256-.835A11.892,11.892,0,0,1,2.46,6.184a35.354,35.354,0,0,1-.068-5.025L1.234,2.317h11.6a1.159,1.159,0,0,0,0-2.317H1.234A1.171,1.171,0,0,0,.075,1.158C-.044,3.969-.163,7.087.91,9.744a6.127,6.127,0,0,0,5.077,3.986,7.21,7.21,0,0,0,3.612-.29,5.615,5.615,0,0,0,2.521-2.1,13,13,0,0,0,1.823-6.167,24.374,24.374,0,0,0,.051-4.02A1.182,1.182,0,0,0,12.835,0a1.118,1.118,0,0,0-1.158,1.158Z" transform="translate(47.709 39.403)"/><path d="M2.3,0C4.378,3.629,6.371,7.308,8.518,10.886a2.987,2.987,0,0,1-.784.358c-.375.119-.75.2-1.141.29C4.327,7.734,2.215,3.816,0,0H2.3Z" transform="translate(66.898 40.561)" fill="#fff"/><path d="M1.141,0C3.373,3.884,5.5,7.819,7.7,11.737c-.375.034-.733.051-1.107.051C4.4,7.87,2.249,3.9,0,0Z" transform="translate(64.598 40.561)" fill="#fff"/><path d="M0,0H2.232c1.431,2.623,2.845,5.264,4.31,7.887.238.426.46.852.7,1.261a5.1,5.1,0,0,1-1.4,1.6c-.2-.392-.409-.784-.613-1.158Q2.675,4.787.017,0Z" transform="translate(51.89 40.561)" fill="#fff"/><path d="M5.281,7.087c.733,1.278,1.414,2.572,2.112,3.85a3.627,3.627,0,0,1-.954.392c-.681-1.244-1.346-2.5-2.027-3.748C3.015,5.008,1.482,2.5,0,0H1.141C2.521,2.351,3.918,4.719,5.281,7.087Z" transform="translate(50.033 40.561)" fill="#fff"/><path d="M1.118,2.547a147.367,147.367,0,0,1,15.519-.034,1.159,1.159,0,0,0,0-2.317A147.364,147.364,0,0,0,1.118.23C-.364.35-.381,2.683,1.118,2.547Z" transform="translate(62.492 39.19)"/><path d="M15.076.293A55.528,55.528,0,0,0,8.143,0,59.682,59.682,0,0,0,1.158.225,1.182,1.182,0,0,0,0,1.384,1.1,1.1,0,0,0,1.158,2.542a56.182,56.182,0,0,1,6.984-.221,55.392,55.392,0,0,1,6.933.29c.63.085,1.158-.6,1.158-1.158A1.288,1.288,0,0,0,15.076.293Z" transform="translate(46.472 39.143)"/><path d="M7.083.835A6.452,6.452,0,0,0,3.812,0,5.848,5.848,0,0,0,.576.9,1.157,1.157,0,1,0,1.751,2.9a3.276,3.276,0,0,1,.528-.307c.17-.085.051,0-.034,0l.136-.051c.1-.034.221-.068.324-.1s.221-.051.341-.085L3.2,2.317c.153-.034-.017,0-.085,0,.238,0,.46-.051.7-.051a4.343,4.343,0,0,1,.664.034c.034,0,.221.017.034,0-.2-.017.051,0,.068,0l.307.068a4.734,4.734,0,0,1,.647.2c.153.051-.034,0-.068-.034l.136.068a2.756,2.756,0,0,1,.307.17,1.175,1.175,0,0,0,1.584-.409A1.191,1.191,0,0,0,7.083.784Z" transform="translate(58.299 43.474)"/><path d="M5.9,4.1A3,3,0,0,1,2.935,6.04,2.406,2.406,0,0,1,.686,4.507,7.422,7.422,0,0,1,.022.674a.791.791,0,0,1,.392-.6.734.734,0,0,1,.681.238A3.4,3.4,0,0,1,1.47,1.423c.136.681.2,1.38.375,2.044a1.287,1.287,0,0,0,1.278.954c.7.051,1.141-.051,1.448-.681A19.66,19.66,0,0,0,5.235.708c.068-.46.409-.767.733-.7.409.068.562.375.579.767a16.709,16.709,0,0,1-.63,3.356Z" transform="translate(68.12 55.747)" fill="#0a0a0a"/><path d="M13.111,10.629a1.968,1.968,0,0,0,3.049.545c1.005-.784,0-1.738.409-2.794.375-.954,2.453-1.7,3.646,1.261s-1.005,6.831-6.2,5.383c0,0-.238,3.867-5.008,3.032-3.918-.681-4.974-7.819-4.974-7.819S-.245,7.444.011,5.6C.2,4.207,1.357,3.679,3.128,4.65c0,0-1.431-1.789-1.959-2.5S1.2-.529,3.5.135c2.129.613,4.14,2.47,6.456,5.588a3.647,3.647,0,0,1,2.3-3.509c2.436-.9,4.855.715,5.843,2.3a2.009,2.009,0,0,1-.9,3.117c-.852.256-2.215-1.073-3.186-1.38-1.158-.358-2.93,1.7-.92,4.378Z" transform="translate(14.605 30.205)" fill="#fff"/><path d="M13.225,11.639a2.591,2.591,0,0,0,3.714.664,1.811,1.811,0,0,0,.75-1.908c-.085-.545-.29-1.21.256-1.55,1.21-.733,2.181,1.175,2.4,2.078a3.535,3.535,0,0,1-.733,3.237c-1.244,1.4-3.271,1.329-4.923.886a.582.582,0,0,0-.733.562c0,.17.034-.085-.017.136a4.048,4.048,0,0,1-.187.647,2.669,2.669,0,0,1-1.227,1.4,4.228,4.228,0,0,1-5.366-1.567,13.386,13.386,0,0,1-1.874-4.787c-.085-.375-.068-.818-.358-1.09-.409-.392-.971-.681-1.414-1.039A7.685,7.685,0,0,1,1.266,6.869a1.165,1.165,0,0,1,.1-1.278c.511-.6,1.465-.17,2.01.119a.584.584,0,0,0,.7-.92C3.5,4.076,2.919,3.343,2.357,2.611a.887.887,0,0,1,.733-1.465c1.192-.085,2.5.835,3.39,1.55A22.5,22.5,0,0,1,10.005,6.58c.307.426,1.107.341,1.09-.29a3.143,3.143,0,0,1,.886-2.317c1.533-1.5,3.986-.852,5.4.477.647.6,1.4,1.55.988,2.47-.409.9-1.039.767-1.772.358-1.124-.647-2.317-1.618-3.526-.579-1.465,1.278-.92,3.424.068,4.787.426.6,1.448.017,1.005-.579-.579-.818-1.158-1.942-.63-2.93.409-.75.9-.63,1.55-.273a5.5,5.5,0,0,0,2.419,1.107A2.289,2.289,0,0,0,19.273,7.67C20.4,5.8,18.693,3.786,17.143,2.815a4.994,4.994,0,0,0-5.741.1A4.3,4.3,0,0,0,9.92,6.29c.358-.1.715-.187,1.09-.29A21.175,21.175,0,0,0,6.649,1.384C5.508.549,3.8-.353,2.357.141A2.062,2.062,0,0,0,1.079,2.747,7.979,7.979,0,0,0,2.271,4.4c.324.426.664.835,1.005,1.261.238-.307.477-.613.7-.92-1.056-.545-2.487-.954-3.407.068A2.407,2.407,0,0,0,.38,7.67,11.866,11.866,0,0,0,4.3,11.333a2.654,2.654,0,0,0-.273-.341,13.964,13.964,0,0,0,2.385,6.2A5.143,5.143,0,0,0,10.3,19.339a4.478,4.478,0,0,0,3.935-1.431,4.235,4.235,0,0,0,.92-2.283c-.238.187-.494.375-.733.562a6.452,6.452,0,0,0,5.179-.443A4.524,4.524,0,0,0,21.641,12.3a4.936,4.936,0,0,0-1.772-4.293,2.2,2.2,0,0,0-3.1.426,2.02,2.02,0,0,0-.324,1.039c-.017.477.273,1.09.153,1.533-.1.358-.613.613-.971.681-.681.119-1.158-.375-1.55-.852-.477-.579-1.295.238-.818.818Z" transform="translate(14.083 29.603)"/><path d="M.294,1.092a14.694,14.694,0,0,1,4.889,4.14.584.584,0,1,0,1.005-.6A16.121,16.121,0,0,0,.873.069C.209-.271-.371.734.294,1.075Z" transform="translate(16.571 33.984)"/><path d="M.166,1.007q.307.307.613.664c.1.119.187.221.29.341h0l.085.119.136.187a14.5,14.5,0,0,1,.971,1.533.584.584,0,1,0,1.005-.6A13.91,13.91,0,0,0,.984.173a.571.571,0,0,0-.818,0,.586.586,0,0,0,0,.818Z" transform="translate(23.121 34.137)"/><path d="M2.393.132A7.983,7.983,0,0,0,.076,2.875a.581.581,0,0,0-.051.443A.541.541,0,0,0,.3,3.658a.6.6,0,0,0,.8-.2,5.264,5.264,0,0,1,.409-.75l.119-.17c.085-.119-.085.1,0,0l.051-.068a2.618,2.618,0,0,1,.29-.324c.392-.409.818-.784,1.244-1.158a.586.586,0,0,0,0-.818.586.586,0,0,0-.818,0Z" transform="translate(20.946 37.448)"/><path d="M7.547,15.775c1.124,0,.221-5.6,2.9-6.678,1.039-.409,4.651-.869,4.651-1.21s-3.611-.784-4.651-1.21C7.768,5.6,8.654,0,7.547,0s-.221,5.6-2.9,6.678C3.611,7.087,0,7.547,0,7.887s3.611.784,4.651,1.21C7.325,10.17,6.439,15.775,7.547,15.775Z" transform="translate(113.456 26.626)" fill="#fff"/><path d="M7.99,16.235v.443a.7.7,0,0,0,.443-.153,1.271,1.271,0,0,0,.409-.63,9.257,9.257,0,0,0,.29-1.516,14.68,14.68,0,0,1,.545-2.709,2.615,2.615,0,0,1,1.363-1.721,7.682,7.682,0,0,1,1.09-.29c.715-.153,1.584-.324,2.283-.477.358-.085.664-.153.9-.221a1.846,1.846,0,0,0,.324-.136l.17-.136a.53.53,0,0,0,.136-.341.434.434,0,0,0-.085-.273.585.585,0,0,0-.221-.2,3.76,3.76,0,0,0-.937-.307c-.579-.136-1.346-.273-2.044-.426a11.112,11.112,0,0,1-1.635-.409A2.324,2.324,0,0,1,9.829,5.451,11.8,11.8,0,0,1,9.1,2.215,8.6,8.6,0,0,0,8.824.835,1.56,1.56,0,0,0,8.552.307.819.819,0,0,0,7.956,0a.7.7,0,0,0-.443.153A1.271,1.271,0,0,0,7.1.784,9.256,9.256,0,0,0,6.814,2.3a14.671,14.671,0,0,1-.545,2.709A2.615,2.615,0,0,1,4.906,6.729a7.689,7.689,0,0,1-1.09.29c-.716.153-1.584.324-2.283.477-.358.085-.664.153-.9.238a1.847,1.847,0,0,0-.324.136l-.17.136A.529.529,0,0,0,0,8.347a.434.434,0,0,0,.085.273.777.777,0,0,0,.221.2,3.76,3.76,0,0,0,.937.307c.579.136,1.346.273,2.044.426a11.112,11.112,0,0,1,1.635.409,2.269,2.269,0,0,1,1.192,1.278,11.8,11.8,0,0,1,.733,3.237,8.6,8.6,0,0,0,.273,1.38,1.56,1.56,0,0,0,.273.528.82.82,0,0,0,.6.307v-.75l.068-.1H7.99v.1l.068-.1h0a1.038,1.038,0,0,1-.136-.324c-.187-.664-.273-1.976-.562-3.254a6.914,6.914,0,0,0-.681-1.823A2.922,2.922,0,0,0,5.247,9.165,10.66,10.66,0,0,0,4.02,8.824c-.733-.153-1.6-.324-2.283-.477-.341-.068-.63-.153-.818-.2L.75,8.075v0h0v0A1.558,1.558,0,0,1,.613,8.3l.221-.153L.784,8.075.63,8.3l.221-.153-.307.221H.92L.852,8.143l-.307.221h0l.324.2.051-.2H.545l.324.2L.613,8.415.8,8.637l.068-.068L.613,8.415.8,8.637.733,8.569l.051.085h0L.716,8.569l.051.085a3.327,3.327,0,0,1,.7-.2c.545-.136,1.312-.273,2.027-.426a12.685,12.685,0,0,0,1.789-.46A3.141,3.141,0,0,0,6.933,5.843a12.168,12.168,0,0,0,.8-3.475,7.787,7.787,0,0,1,.238-1.227A.643.643,0,0,1,8.075.9h0L8.007.818V.937L8.075.92,8.007.835v0l-.068.1h.068v-.1l-.068.1h0a1.036,1.036,0,0,1,.136.324c.187.664.273,1.976.562,3.254a6.914,6.914,0,0,0,.681,1.823,2.922,2.922,0,0,0,1.431,1.278,10.655,10.655,0,0,0,1.227.341c.733.153,1.6.324,2.283.477.341.068.63.153.818.2l.17.068v0h0v0a1.558,1.558,0,0,1,.136-.221l-.221.153.051.068.153-.221-.221.153.307-.221h-.375l.068.221.307-.221h0l-.324-.2-.051.2h.375l-.324-.2.255.153L15.2,8.143l-.068.068.255.153L15.2,8.143l.068.068-.051-.085h0l.068.085-.051-.085a3.327,3.327,0,0,1-.7.2c-.545.136-1.312.273-2.027.426a12.681,12.681,0,0,0-1.789.46,3.142,3.142,0,0,0-1.652,1.721,12.17,12.17,0,0,0-.8,3.475,7.787,7.787,0,0,1-.238,1.227.643.643,0,0,1-.1.238h0l.068.085v-.119H7.921a.741.741,0,0,0,.068.119v.273Z" transform="translate(113.013 26.166)"/><path d="M5.707,11.891c.852,0,.17-4.242,2.2-5.042.784-.307,3.509-.664,3.509-.9s-2.726-.6-3.509-.9C5.877,4.242,6.559,0,5.707,0s-.17,4.242-2.2,5.042C2.726,5.349,0,5.707,0,5.945s2.726.6,3.509.9C5.536,7.649,4.855,11.891,5.707,11.891Z" transform="translate(103.081 12.828)" fill="#fff"/><path d="M6.15,12.385v.443a.734.734,0,0,0,.409-.136,1.012,1.012,0,0,0,.341-.528A6.374,6.374,0,0,0,7.121,11,9.944,9.944,0,0,1,7.53,8.978,1.922,1.922,0,0,1,8.5,7.734c.136-.051.46-.136.818-.221.545-.119,1.192-.239,1.721-.358.273-.051.494-.119.7-.17l.273-.119.153-.119a.49.49,0,0,0,.136-.341.384.384,0,0,0-.085-.256.621.621,0,0,0-.2-.187,2.465,2.465,0,0,0-.733-.238c-.443-.1-1.022-.221-1.55-.324a7.424,7.424,0,0,1-1.21-.307,1.707,1.707,0,0,1-.852-.9,9.122,9.122,0,0,1-.545-2.419,5.808,5.808,0,0,0-.2-1.056A1.349,1.349,0,0,0,6.695.273.708.708,0,0,0,6.15,0a.734.734,0,0,0-.409.136A1.012,1.012,0,0,0,5.4.664a6.369,6.369,0,0,0-.221,1.158A9.948,9.948,0,0,1,4.77,3.85,1.922,1.922,0,0,1,3.8,5.094c-.136.051-.46.136-.818.221-.545.119-1.193.238-1.721.358-.273.051-.494.119-.7.17L.29,5.962l-.153.119A.49.49,0,0,0,0,6.422a.384.384,0,0,0,.085.256.621.621,0,0,0,.2.187,2.465,2.465,0,0,0,.733.238c.443.1,1.022.221,1.55.324A8.3,8.3,0,0,1,3.8,7.734a1.622,1.622,0,0,1,.835.9,9.12,9.12,0,0,1,.545,2.419,5.808,5.808,0,0,0,.2,1.056,1.35,1.35,0,0,0,.221.443.708.708,0,0,0,.545.273v-.664l.119-.153-.119-.034v.2l.119-.153-.051.085.068-.068h0l-.051.068.068-.068-.034-.051a4.446,4.446,0,0,1-.2-.937,13.742,13.742,0,0,0-.443-2.249,3.5,3.5,0,0,0-.528-1.073,2.3,2.3,0,0,0-.971-.767,6.835,6.835,0,0,0-.954-.256c-.562-.119-1.227-.238-1.738-.358A4.524,4.524,0,0,1,.818,6.2l-.1-.034L.6,6.354.75,6.2.7,6.167l-.119.187L.733,6.2.46,6.456H.835a.325.325,0,0,0-.1-.256L.46,6.456H.443l.324.2.068-.2H.443l.324.2L.528,6.508l.136.238L.75,6.661.511,6.508l.136.238a4.739,4.739,0,0,1,.494-.153c.409-.1.988-.2,1.533-.324a12.1,12.1,0,0,0,1.363-.341A2.472,2.472,0,0,0,5.349,4.583a9.331,9.331,0,0,0,.613-2.658,5.278,5.278,0,0,1,.17-.92L6.2.852,6.1.767l.051.1L6.184.835,6.082.75l.051.1-.1-.187v.2l.1-.017-.1-.187v0L5.911.818l.119.034v-.2L5.911.8,5.962.715,5.894.784h0L5.945.715,5.877.784l.034.051a4.486,4.486,0,0,1,.2.92A13.741,13.741,0,0,0,6.559,4a3.505,3.505,0,0,0,.528,1.073,2.3,2.3,0,0,0,.971.767,6.237,6.237,0,0,0,.954.256c.562.119,1.227.238,1.721.358a4.526,4.526,0,0,1,.613.153l.1.034.119-.187-.153.153.051.034.119-.187-.153.153.273-.256h-.375a.325.325,0,0,0,.1.256l.273-.256h.017l-.324-.2-.068.2h.392l-.324-.2.239.153L11.5,6.065l-.085.085.239.153-.136-.238a4.744,4.744,0,0,1-.494.153c-.409.1-.988.2-1.533.324a12.1,12.1,0,0,0-1.363.341A2.472,2.472,0,0,0,6.814,8.228,9.327,9.327,0,0,0,6.2,10.886a5.277,5.277,0,0,1-.17.92l-.068.153.1.085-.051-.1-.034.034.1.085-.051-.1.1.187v-.2h-.1a2.282,2.282,0,0,0,.1.2v.238Z" transform="translate(102.638 12.334)"/><path d="M81.191,21.073h-3.1V14.259h3.526V8.484H78.09a6.345,6.345,0,0,1,.238-2.112A1.8,1.8,0,0,1,79.3,5.4a4.945,4.945,0,0,1,2.027-.341,22.577,22.577,0,0,1,2.368.136V.068C82.366.017,81.02,0,79.657,0a17.607,17.607,0,0,0-6.542.869A7.407,7.407,0,0,0,69.9,3.441,7.875,7.875,0,0,0,68.67,8.058V8.5H66.336v5.775H68.67V21.09H66.336v5.775H81.191V21.09Zm-17.529,0H61.975V.511H50.51V6.286h1.942V21.073H50.51v5.775H63.661Zm-27.274,2.01c-2.181,0-3.288-1.482-3.339-4.463H47.512q-.2-5.366-3.424-8.007A13.027,13.027,0,0,0,35.6,7.956a12.714,12.714,0,0,0-8.569,2.794,8.955,8.955,0,0,0-3.2,7,8.638,8.638,0,0,0,3.237,6.95c2.163,1.772,5.383,2.675,9.659,2.675s4.736-.494,6.576-1.482a9.547,9.547,0,0,0,2.317-1.687,7.046,7.046,0,0,0,1.482-2.2l-7.853-.971A2.95,2.95,0,0,1,36.4,23.083ZM33.151,15.86a4.855,4.855,0,0,1,.681-2.658,2.186,2.186,0,0,1,1.976-1.056,2.388,2.388,0,0,1,2.01.971,3.928,3.928,0,0,1,.75,2.487c0,1.005,0,.273-.034.647H33.185c0-.119-.017-.238-.017-.375ZM6.473,25.945a12.355,12.355,0,0,0,5.809,1.244,10.54,10.54,0,0,0,5.792-1.5,5.163,5.163,0,0,0,2.368-4.7c0-2.129-.324-2.163-.971-2.964a6.745,6.745,0,0,0-2.93-1.942A39.383,39.383,0,0,0,11.073,14.6q-3.092-.639-3.629-.818c-.426-.119-.647-.358-.647-.715,0-.767.733-1.158,2.181-1.158a7.361,7.361,0,0,1,4.77,1.908h5.383V8.484H13.322v.954A11.657,11.657,0,0,0,7.6,8.143,9.529,9.529,0,0,0,2.163,9.557,5.019,5.019,0,0,0,0,14.037c0,2.027.153,1.669.46,2.232a5.149,5.149,0,0,0,1.652,1.738,9.995,9.995,0,0,0,3.254,1.482c1.584.46,3.049.886,4.361,1.227a17.613,17.613,0,0,1,3.015.886.893.893,0,0,1,.545.818c0,.7-.852,1.039-2.538,1.039a6.32,6.32,0,0,1-4.634-2.232H.613v5.826H6.508V25.911Z" transform="translate(27.018 80.288)" fill="#f7eee5"/><path d="M81.634,21.5v-.443H78.959V15.11h3.526V8.467H78.533V8.91h.443a5.982,5.982,0,0,1,.2-1.942h0a1.286,1.286,0,0,1,.75-.75,4.16,4.16,0,0,1,1.84-.29c.664,0,1.431.051,2.317.136l.477.051V.085h-.426C82.809.017,81.463,0,80.084,0a18.3,18.3,0,0,0-6.729.9,8.126,8.126,0,0,0-3.407,2.726A8.308,8.308,0,0,0,68.636,8.5H66.3v6.644h2.334V21.09H66.3v6.644H82.026V21.09h-.443v.443H81.14v5.332H67.154V21.959h2.334V14.276H67.154V9.369h2.334V8.5A7.286,7.286,0,0,1,70.646,4.14a6.992,6.992,0,0,1,3.032-2.419A17.26,17.26,0,0,1,80.049.886c1.363,0,2.692.017,4.02.068V.511h-.426V5.639h.443l.034-.443c-.9-.085-1.7-.136-2.4-.136a5.507,5.507,0,0,0-2.215.375,2.294,2.294,0,0,0-1.192,1.21l.409.153-.409-.17a6.834,6.834,0,0,0-.29,2.3v.443h3.526v4.906H78.022v7.683h3.543v-.443h0ZM64.1,21.5v-.443H62.861V.494H50.527V7.138h1.942V21.056H50.51V27.7H64.53V21.056h-.443V21.5h-.443v5.332H51.362V21.925h1.959V6.269H51.379V1.363h10.6V21.925H64.1v-.443h0Zm-27.274,2.01v-.443c-1.925-.034-2.794-1.124-2.9-4.037h-.443v.443H48.4v-.46c-.153-3.663-1.346-6.49-3.594-8.33a13.525,13.525,0,0,0-8.756-2.743c-3.68,0-6.661.954-8.858,2.913a9.309,9.309,0,0,0-3.339,7.325,9.023,9.023,0,0,0,3.39,7.291c2.266,1.874,5.6,2.76,9.932,2.76a14.177,14.177,0,0,0,6.78-1.533,9.649,9.649,0,0,0,2.419-1.772,7.7,7.7,0,0,0,1.567-2.334l.221-.528L39.4,20.988l-.136.307a2.512,2.512,0,0,1-2.436,1.772v.869a3.368,3.368,0,0,0,3.237-2.317l-.409-.17-.051.426,7.853.971.051-.426-.409-.17a7.371,7.371,0,0,1-1.38,2.078,8.453,8.453,0,0,1-2.2,1.618,13.14,13.14,0,0,1-6.371,1.431c-4.225,0-7.325-.886-9.369-2.572a8.143,8.143,0,0,1-3.083-6.61,8.482,8.482,0,0,1,3.049-6.678c2.01-1.789,4.753-2.692,8.3-2.692a12.65,12.65,0,0,1,8.211,2.555c2.027,1.652,3.117,4.174,3.271,7.683h.443V18.6H33.066v.443c0,3.049,1.329,4.923,3.765,4.889v-.443Zm-3.237-7.223h.443a4.355,4.355,0,0,1,.613-2.419,1.726,1.726,0,0,1,1.6-.852,1.989,1.989,0,0,1,1.669.8,3.432,3.432,0,0,1,.664,2.215s0,.239-.034.613l.443.034v-.443H33.645v.443l.426-.051V16.3H33.2a3.421,3.421,0,0,0,.017.426l.051.392h6.15l.034-.409c.017-.392.034-.579.034-.664a4.319,4.319,0,0,0-.852-2.743,2.9,2.9,0,0,0-2.351-1.141,2.676,2.676,0,0,0-2.334,1.261A5.257,5.257,0,0,0,33.2,16.3h.443ZM6.917,26.371l-.2.392a12.9,12.9,0,0,0,6.013,1.295,11,11,0,0,0,6.031-1.567,5.652,5.652,0,0,0,2.572-5.06,5,5,0,0,0-1.056-3.237,7.171,7.171,0,0,0-3.117-2.078,38.71,38.71,0,0,0-5.537-1.5c-2.044-.426-3.271-.7-3.594-.8-.341-.119-.307-.136-.341-.307,0-.238.068-.324.307-.477a3.272,3.272,0,0,1,1.431-.239,6.241,6.241,0,0,1,4.463,1.789L14,14.7h5.979V8.5H13.3v1.38h.443l.2-.375A12.054,12.054,0,0,0,8.024,8.16a10.088,10.088,0,0,0-5.673,1.5A5.451,5.451,0,0,0,0,14.514,5.01,5.01,0,0,0,.511,16.95a5.5,5.5,0,0,0,1.772,1.891,10.292,10.292,0,0,0,3.39,1.533c1.584.46,3.049.886,4.361,1.227a18.35,18.35,0,0,1,2.913.852c.273.153.307.239.324.426,0,.153-.034.221-.358.375a5,5,0,0,1-1.738.221,5.856,5.856,0,0,1-4.327-2.1l-.136-.136H.579v6.695H7.343V26.371H6.9l-.2.392.2-.392H6.457v.7H1.448V22.112H6.525v-.426l-.324.307a6.756,6.756,0,0,0,4.957,2.368,5.7,5.7,0,0,0,2.061-.29,1.269,1.269,0,0,0,.9-1.175,1.4,1.4,0,0,0-.784-1.21,16.328,16.328,0,0,0-3.1-.92C8.944,20.425,7.5,20,5.912,19.54a9.191,9.191,0,0,1-3.117-1.414,4.556,4.556,0,0,1-1.516-1.584A4.263,4.263,0,0,1,.869,14.5a4.531,4.531,0,0,1,1.959-4.123,9.22,9.22,0,0,1,5.2-1.346,11.333,11.333,0,0,1,5.5,1.227l.647.358V9.369h4.94v4.463h-4.94v.443l.307-.324A7.089,7.089,0,0,0,9.4,11.925a3.862,3.862,0,0,0-1.84.341,1.4,1.4,0,0,0-.784,1.244,1.151,1.151,0,0,0,.971,1.141c.392.119,1.584.392,3.663.818a37.721,37.721,0,0,1,5.4,1.465,6.283,6.283,0,0,1,2.743,1.823,4.118,4.118,0,0,1,.869,2.692,4.719,4.719,0,0,1-2.163,4.327,10.183,10.183,0,0,1-5.554,1.431,12.07,12.07,0,0,1-5.6-1.193l-.63-.341v.715h.443Z" transform="translate(26.575 79.862)" fill="#020202"/><path d="M89.248,15.127c-2.181,0-3.288-1.482-3.339-4.463h14.463q-.2-5.366-3.424-8.007A13.027,13.027,0,0,0,88.465,0,12.714,12.714,0,0,0,79.9,2.794a8.955,8.955,0,0,0-3.2,7,8.638,8.638,0,0,0,3.237,6.95c2.164,1.772,5.383,2.675,9.659,2.675s4.736-.494,6.576-1.482a9.547,9.547,0,0,0,2.317-1.687,7.046,7.046,0,0,0,1.482-2.2l-7.853-.971a2.95,2.95,0,0,1-2.845,2.044ZM86.012,7.9a4.855,4.855,0,0,1,.681-2.658,2.186,2.186,0,0,1,1.976-1.056,2.387,2.387,0,0,1,2.01.971,3.928,3.928,0,0,1,.75,2.487c0,1.005,0,.273-.034.647H86.046c0-.119-.017-.238-.017-.375Zm-15.962,5.23H67.273a5.8,5.8,0,0,1,.562-2.692,3.773,3.773,0,0,1,2.01-1.584,12.022,12.022,0,0,1,4.327-.579c1.942,0,.579,0,.8.017V.2a14.711,14.711,0,0,0-3.731.358,6.346,6.346,0,0,0-2.606,1.6,7.8,7.8,0,0,0-1.993,2.964V.528h-11.4V6.3h2.5v6.814h-2.5v5.775h14.8V13.117ZM37.444,3.918a4.749,4.749,0,0,1,2.2.494,2.383,2.383,0,0,1,1.175,1.226,7.773,7.773,0,0,1,.238,2.385v.545a14.343,14.343,0,0,0-5.656-.92A11.489,11.489,0,0,0,29.079,9.3a4.976,4.976,0,0,0-.443,8.262c1.312,1.141,3.254,1.7,5.843,1.7a12.47,12.47,0,0,0,6.593-1.584v1.244H52.946V13.151H50.6v-5.3A10.542,10.542,0,0,0,50.1,4.14a5.911,5.911,0,0,0-1.686-2.164A8.336,8.336,0,0,0,44.684.511a22.131,22.131,0,0,0-2.76-.375C40.9.051,39.726.017,38.432.017a22.3,22.3,0,0,0-7.99,1.09,7.119,7.119,0,0,0-3.969,3.8l7.461.75A4.027,4.027,0,0,1,37.461,3.9Zm.733,11.26a2.529,2.529,0,0,1-1.772-.716,2.329,2.329,0,0,1-.75-1.823,2.265,2.265,0,0,1,.732-1.772,2.8,2.8,0,0,1,1.993-.681,5.893,5.893,0,0,1,2.692.681v3.356a4.177,4.177,0,0,1-2.879.971Zm-24.923-.647A3.2,3.2,0,0,1,10.647,13.3,5.112,5.112,0,0,1,9.625,9.932a5.554,5.554,0,0,1,.954-3.356A3.087,3.087,0,0,1,13.271,5.23c1.721,0,2.93,1.056,3.646,3.134h5.809V.528H16.916V1.755A10.218,10.218,0,0,0,10.835.187,12.244,12.244,0,0,0,3.1,2.879,8.794,8.794,0,0,0,0,9.812a8.541,8.541,0,0,0,3.339,7Q6.661,19.42,12.47,19.42c3.867,0,5.366-.562,7.342-1.7a7.882,7.882,0,0,0,3.816-4.77l-7.1-1.584c-.409,2.112-1.482,3.169-3.254,3.169Z" transform="translate(22.197 120.372)" fill="#f7eee5"/><path d="M89.691,15.57v-.443C87.766,15.093,86.9,14,86.8,11.09h-.443v.443h14.906v-.46c-.153-3.663-1.346-6.491-3.612-8.33A13.525,13.525,0,0,0,88.891,0c-3.68,0-6.661.954-8.858,2.913a9.309,9.309,0,0,0-3.339,7.325,9.023,9.023,0,0,0,3.39,7.291c2.266,1.874,5.6,2.76,9.932,2.76a14.176,14.176,0,0,0,6.78-1.533,9.648,9.648,0,0,0,2.419-1.772,7.7,7.7,0,0,0,1.567-2.334l.221-.528-8.756-1.073-.136.307a2.512,2.512,0,0,1-2.436,1.772V16a3.368,3.368,0,0,0,3.237-2.317l-.409-.17-.051.426,7.853.971.051-.426-.409-.17a7.371,7.371,0,0,1-1.38,2.078,8.751,8.751,0,0,1-2.2,1.618A13.14,13.14,0,0,1,90,19.437c-4.225,0-7.325-.886-9.369-2.572a8.143,8.143,0,0,1-3.083-6.61,8.482,8.482,0,0,1,3.049-6.678C82.6,1.789,85.347.886,88.891.886A12.65,12.65,0,0,1,97.1,3.441c2.027,1.652,3.117,4.174,3.271,7.683h.443v-.46H85.909v.443c0,3.049,1.329,4.923,3.765,4.889v-.443ZM86.454,8.347H86.9a4.355,4.355,0,0,1,.613-2.419,1.726,1.726,0,0,1,1.6-.852,1.989,1.989,0,0,1,1.669.8,3.432,3.432,0,0,1,.664,2.215s0,.239-.034.613l.443.034V8.3H86.506v.443l.426-.051V8.364h-.869a3.424,3.424,0,0,0,.017.426l.051.392h6.15l.034-.409c.017-.392.034-.579.034-.664A4.319,4.319,0,0,0,91.5,5.366a2.9,2.9,0,0,0-2.351-1.141,2.676,2.676,0,0,0-2.334,1.261,5.257,5.257,0,0,0-.75,2.879h.443Zm-15.962,5.23v-.443H67.716v.443h.443a5.473,5.473,0,0,1,.511-2.487,3.5,3.5,0,0,1,1.789-1.4,11.587,11.587,0,0,1,4.174-.562c.307,0,.562,0,.767.017l.46.034V.2h-.443a15.019,15.019,0,0,0-3.85.375A6.581,6.581,0,0,0,68.772,2.3a8.2,8.2,0,0,0-2.1,3.135l.409.153h.443V.545H55.263V7.189h2.5v5.945h-2.5v6.644H70.935V13.134h-.443v.443h-.443v5.332H56.115V14h2.5V6.32h-2.5V1.414H66.642V8.007l.852-2.266A7.287,7.287,0,0,1,69.368,2.93,6.1,6.1,0,0,1,71.8,1.414a14.23,14.23,0,0,1,3.612-.341V.63h-.443V8.722h.443V8.279c-.2,0-.477-.017-.8-.017a12.366,12.366,0,0,0-4.5.613,4.221,4.221,0,0,0-2.232,1.789,6.127,6.127,0,0,0-.613,2.9V14h3.22V13.56h0ZM37.887,4.361V4.8a4.251,4.251,0,0,1,1.993.443,2.129,2.129,0,0,1,.971.988,7.48,7.48,0,0,1,.221,2.232v.545h.443l.17-.392a14.755,14.755,0,0,0-5.843-.971,11.451,11.451,0,0,0-6.559,1.721,5.387,5.387,0,0,0-2.64,4.583,5.572,5.572,0,0,0,2.146,4.361,9.181,9.181,0,0,0,6.133,1.806,12.967,12.967,0,0,0,6.831-1.652l-.238-.358h-.443V19.8H53.815V13.151H51.464V8.279A10.564,10.564,0,0,0,50.936,4.4,6.2,6.2,0,0,0,49.13,2.061,8.8,8.8,0,0,0,45.195.511,23.205,23.205,0,0,0,42.4.136C41.362.051,40.186.017,38.875.017a22.707,22.707,0,0,0-8.16,1.124,7.555,7.555,0,0,0-4.208,4.02l-.256.545,8.313.852.153-.2a3.586,3.586,0,0,1,3.169-1.567V3.918A4.529,4.529,0,0,0,34,5.86l.358.256.051-.443-7.461-.75-.051.443.392.187a6.717,6.717,0,0,1,3.748-3.577A21.953,21.953,0,0,1,38.858.9c1.295,0,2.436.034,3.458.119a25.718,25.718,0,0,1,2.709.358,8.146,8.146,0,0,1,3.543,1.363,5.052,5.052,0,0,1,1.55,1.976,10.085,10.085,0,0,1,.46,3.543V14h2.351v4.906h-11V17.291l-.664.443a11.569,11.569,0,0,1-6.354,1.516c-2.692,0-4.361-.562-5.571-1.6a4.721,4.721,0,0,1-1.84-3.7,4.5,4.5,0,0,1,2.249-3.867,10.584,10.584,0,0,1,6.082-1.567,13.935,13.935,0,0,1,5.485.886l.613.273V8.45a7.963,7.963,0,0,0-.273-2.538,2.827,2.827,0,0,0-1.363-1.465,5.088,5.088,0,0,0-2.4-.545v.46Zm.733,11.26v-.443a2.086,2.086,0,0,1-1.482-.6,1.927,1.927,0,0,1-.613-1.5,1.924,1.924,0,0,1,.6-1.465,2.393,2.393,0,0,1,1.686-.562,5.188,5.188,0,0,1,2.487.63l.2-.392h-.443V14.65H41.5l-.29-.324a3.764,3.764,0,0,1-2.589.852v.869a4.613,4.613,0,0,0,3.169-1.073l.153-.136V11.022L41.72,10.9a5.948,5.948,0,0,0-2.9-.733,3.251,3.251,0,0,0-2.283.8,2.942,2.942,0,0,0,.017,4.225,2.982,2.982,0,0,0,2.078.835v-.443ZM13.7,14.974v-.443a2.755,2.755,0,0,1-2.283-1.073,4.739,4.739,0,0,1-.92-3.1,5.283,5.283,0,0,1,.869-3.1A2.665,2.665,0,0,1,13.7,6.1c1.516.017,2.521.852,3.237,2.845l.1.29h6.559V.528H16.916V2.2h.443l.256-.358A10.561,10.561,0,0,0,11.277.187,11.834,11.834,0,0,0,3.254,2.981,9.213,9.213,0,0,0,0,10.238a8.9,8.9,0,0,0,3.492,7.342c2.317,1.823,5.468,2.709,9.386,2.709a15.1,15.1,0,0,0,7.564-1.755,8.33,8.33,0,0,0,4.02-5.025l.136-.443-7.99-1.789-.085.443C16.1,13.713,15.264,14.5,13.7,14.531V15.4c1.976.034,3.3-1.295,3.68-3.509l-.426-.085-.1.426,7.1,1.584.1-.426-.426-.119A7.475,7.475,0,0,1,20,17.785a14.071,14.071,0,0,1-7.121,1.652c-3.8,0-6.729-.852-8.858-2.521A8.012,8.012,0,0,1,.852,10.255,8.251,8.251,0,0,1,3.816,3.663a10.982,10.982,0,0,1,7.462-2.589,9.663,9.663,0,0,1,5.809,1.482l.7.511V1.414h4.94V8.381H17.342v.443l.409-.136C17.018,6.508,15.6,5.23,13.679,5.247A3.569,3.569,0,0,0,10.63,6.78a6.15,6.15,0,0,0-1.022,3.594,5.52,5.52,0,0,0,1.124,3.646,3.6,3.6,0,0,0,2.947,1.38v-.443Z" transform="translate(21.754 119.929)" fill="#020202"/></g></svg>