<svg xmlns="http://www.w3.org/2000/svg" xmlns:xlink="http://www.w3.org/1999/xlink" width="178.909" height="173.62" viewBox="0 0 178.909 173.62"><defs><clipPath id="a"><path d="M94.041,18.19C79.339-6.375,55.933-6.017,42,19.008L5.8,84.032C-8.12,109.04,3.89,129.141,32.526,128.7l74.428-1.158c28.619-.443,40.016-20.9,25.315-45.467L94.058,18.207Z" transform="translate(0 0)" fill="none"/></clipPath></defs><g transform="matrix(0.921, 0.391, -0.391, 0.921, 50.574, 0)"><g transform="translate(0.369 0.362)" clip-path="url(#a)"><path d="M94.041,18.19C79.339-6.375,55.933-6.017,42,19.008L5.8,84.032C-8.12,109.04,3.89,129.141,32.526,128.7l74.428-1.158c28.619-.443,40.016-20.9,25.315-45.467L94.058,18.207Z" transform="translate(0 0)" fill="#4182c4"/><path d="M.426,26.422a32.494,32.494,0,0,0,.6-4.378c.136-1.755.187-3.458.153-5.094L1.056,9.71A49.006,49.006,0,0,0,.733,4.6,29.213,29.213,0,0,0,0,.256L15.928,0l1.056,6.865q-1.048-.767-4.8-.715l-5.06.085.068,4.787,3.969-.068a33.832,33.832,0,0,0,3.952-.238l.068,4a30.475,30.475,0,0,0-3.969-.119l-3.969.068.085,5.571,4.719-.068a23.644,23.644,0,0,0,3.85-.307,5.915,5.915,0,0,0,2.01-.75L16.916,26.2.392,26.456Z" transform="translate(38.727 41.375)" fill="#fcb042"/><path d="M.835,26.8l.358.085a33.4,33.4,0,0,0,.6-4.429c.119-1.465.17-2.9.17-4.276v-.852l-.119-7.24c-.034-1.652-.119-3.356-.324-5.145A33.011,33.011,0,0,0,.784.545L.426.63V.988L16.047.75l1.005,6.559.358-.051.221-.29a4.064,4.064,0,0,0-1.7-.6,17.915,17.915,0,0,0-2.777-.187h-.528l-5.417.085.085,5.519,4.327-.068a34.3,34.3,0,0,0,4-.256l-.051-.358h-.358l.068,4h.358l.034-.375c-.852-.085-1.857-.136-3.049-.136h-.954l-4.327.068.1,6.3,5.077-.085a22.569,22.569,0,0,0,3.918-.324h0a6.286,6.286,0,0,0,2.146-.8l-.2-.307-.358-.051-.937,6.763L.869,26.422v.358l.358.085L.869,26.78v.358l16.848-.256,1.141-8.194-.664.443a5.3,5.3,0,0,1-1.891.7h0a22.49,22.49,0,0,1-3.782.307L8.177,20.2l-.068-4.838,3.594-.051h.954a29.046,29.046,0,0,1,2.964.119l.409.051-.068-4.821-.409.051a32.94,32.94,0,0,1-3.918.238L8.041,11,7.973,6.95l4.685-.068h.528a16.106,16.106,0,0,1,2.658.17,3.4,3.4,0,0,1,1.4.477l.715.528L16.712,0,0,.256.119.7a30.882,30.882,0,0,1,.715,4.31c.187,1.755.29,3.441.324,5.077l.119,7.24v.835c0,1.363-.051,2.777-.17,4.208a31.543,31.543,0,0,1-.579,4.327l-.1.46h.46V26.78Z" transform="translate(38.318 41)"/><path d="M3.648,23.937C1.485,21.841.071,18.213,0,13.7-.082,8.145,1.86,4.278,4.739,2.183A10.827,10.827,0,0,1,11.28,0a13.051,13.051,0,0,1,6.1,1.124l.068,6.95A7.83,7.83,0,0,0,12.37,6.322,5.845,5.845,0,0,0,7.958,8.145C6.868,9.355,6.34,11.16,6.374,13.63c.034,2.436.647,4.225,1.823,5.349a6.076,6.076,0,0,0,4.5,1.687,8.6,8.6,0,0,0,5.928-2.215l.119,7.138a19.629,19.629,0,0,1-7.206,1.465A10.817,10.817,0,0,1,3.648,23.92Z" transform="translate(58.196 40.726)" fill="#fcb042"/><path d="M4.02,24.309l.256-.256C2.2,22.044.8,18.517.733,14.071v-.341c0-5.264,1.891-8.892,4.583-10.869h0A10.6,10.6,0,0,1,11.635.75h.358a12.165,12.165,0,0,1,5.571,1.09l.17-.324h-.358l.068,6.967H17.8l.238-.273a8.064,8.064,0,0,0-5.2-1.84h-.119A6.17,6.17,0,0,0,8.058,8.313h0A7.919,7.919,0,0,0,6.388,13.8v.256c.034,2.487.664,4.378,1.925,5.622h0a6.36,6.36,0,0,0,4.634,1.789h.136a9.029,9.029,0,0,0,6.167-2.3l-.256-.273h-.358l.119,7.138h.358l-.136-.341a18.9,18.9,0,0,1-7.07,1.431H11.72a10.488,10.488,0,0,1-7.444-3.032l-.256.256-.256.256a11.18,11.18,0,0,0,7.956,3.237h.187a19.61,19.61,0,0,0,7.342-1.5l.221-.1-.119-8.211-.6.562A8.226,8.226,0,0,1,13.083,20.7h-.119a5.585,5.585,0,0,1-4.123-1.584h0c-1.073-1.039-1.669-2.726-1.7-5.094v-.238A7.219,7.219,0,0,1,8.62,8.79h0a5.456,5.456,0,0,1,4.14-1.7h.119a7.376,7.376,0,0,1,4.7,1.652l.613.562-.085-8.024-.187-.1A12.722,12.722,0,0,0,12.01,0h-.358A11.111,11.111,0,0,0,4.889,2.266l.221.29-.221-.29C1.976,4.412,0,8.279,0,13.731v.358c.068,4.583,1.5,8.3,3.765,10.494l.256-.256Z" transform="translate(57.824 40.353)"/><path d="M10.6,27.207a9.4,9.4,0,0,1-7.444-3.356C1.23,21.637.071,18.076,0,13.749c-.068-4.361.988-7.956,2.845-10.2A9.414,9.414,0,0,1,10.19,0a9.418,9.418,0,0,1,7.462,3.322c1.908,2.2,3.083,5.758,3.152,10.119.068,4.327-.988,7.921-2.845,10.2A9.634,9.634,0,0,1,14.7,26.27a9.284,9.284,0,0,1-4.123.954Zm3.748-13.679c-.085-5.519-1.738-8.432-4.088-8.381C7.873,5.18,6.34,8.11,6.425,13.664c.085,5.5,1.7,8.4,4.088,8.347C12.865,21.977,14.432,19.03,14.347,13.528Z" transform="translate(78.297 40.351)" fill="#fcb042"/><path d="M10.954,27.614v-.358h-.17a8.888,8.888,0,0,1-3.8-.8,9.22,9.22,0,0,1-3.2-2.436c-1.84-2.129-3-5.6-3.066-9.863v-.392c0-4.123,1.039-7.5,2.76-9.591A9.032,9.032,0,0,1,10.545.767h.17a9.063,9.063,0,0,1,7.019,3.186h0c1.84,2.112,3,5.588,3.066,9.881v.375c0,4.088-1.039,7.461-2.76,9.574A9.394,9.394,0,0,1,14.923,26.3a8.992,8.992,0,0,1-3.952.92v.715a9.791,9.791,0,0,0,4.276-.988,10.147,10.147,0,0,0,3.373-2.726c1.857-2.3,2.913-5.826,2.913-10.034V13.8C21.465,9.386,20.289,5.741,18.3,3.441h0A9.821,9.821,0,0,0,10.715,0h-.17A9.77,9.77,0,0,0,2.93,3.68C1.073,5.962.017,9.489,0,13.731v.409c.068,4.4,1.244,8.024,3.237,10.34A10.139,10.139,0,0,0,6.695,27.1a9.751,9.751,0,0,0,4.105.869h.187V27.6ZM14.7,13.935h.358a15.259,15.259,0,0,0-1.227-6.422,3.636,3.636,0,0,0-3.2-2.334h-.051a2.989,2.989,0,0,0-1.789.613A5.465,5.465,0,0,0,7,8.654a16.937,16.937,0,0,0-.613,4.957v.443A15.173,15.173,0,0,0,7.6,20.442a4.737,4.737,0,0,0,1.363,1.721,3.139,3.139,0,0,0,1.84.613h.051a3.531,3.531,0,0,0,3.1-2.283,14.062,14.062,0,0,0,1.09-6.133v-.426h-.715v.426A13.585,13.585,0,0,1,13.3,20.17a2.823,2.823,0,0,1-2.453,1.874h-.034a2.327,2.327,0,0,1-1.4-.46,5.09,5.09,0,0,1-1.6-2.589,17.31,17.31,0,0,1-.681-4.94v-.443A13.656,13.656,0,0,1,8.143,7.785a3.842,3.842,0,0,1,1.09-1.414,2.194,2.194,0,0,1,1.363-.46h.034a2.9,2.9,0,0,1,2.538,1.925,14.268,14.268,0,0,1,1.141,6.1H14.7Z" transform="translate(77.942 39.944)"/><path d="M.409,26.456a44.246,44.246,0,0,0,.715-9.472L1.005,9.727A45.259,45.259,0,0,0,0,.256L16.1,0l1.073,6.916c-.75-.528-2.368-.784-4.838-.75l-5.247.085L7.172,11.6l3.441-.051a30.936,30.936,0,0,0,4.02-.239l.068,4.106a32.438,32.438,0,0,0-4.123-.119l-3.322.051.034,1.789a38.266,38.266,0,0,0,1.039,9.2l-7.887.119Z" transform="translate(27.501 80.948)" fill="#fcb042"/><path d="M.886,26.9l.358.068a42.158,42.158,0,0,0,.733-8.433V17.41l-.119-7.257A44.71,44.71,0,0,0,.835.613L.477.7v.358L16.252.818,17.274,7.41l.358-.051.2-.307c-.852-.6-2.351-.818-4.583-.818h-.477l-5.6.085.1,6.082,3.8-.068h0a28.487,28.487,0,0,0,4.071-.256l-.068-.358h-.358l.068,4.123h.358l.034-.375c-.852-.085-1.874-.136-3.135-.136H11l-3.7.051.034,2.163A38.291,38.291,0,0,0,8.4,26.831l.358-.1v-.358L.869,26.49v.358l.358.068-.358-.068v.358l8.364-.136-.119-.46a38.315,38.315,0,0,1-1.022-9.1V16.081l2.93-.051h1.039a30.208,30.208,0,0,1,3.049.119l.409.051-.068-4.957-.426.068a29.009,29.009,0,0,1-3.952.238L8.007,11.6,7.938,6.985,12.811,6.9h.46c2.181,0,3.594.273,4.157.681l.7.494L16.865,0,0,.256.1.7a43.155,43.155,0,0,1,.988,9.386l.119,7.257v1.107a40.606,40.606,0,0,1-.715,8.3l-.1.443h.46v-.375Z" transform="translate(27.024 80.505)"/><path d="M10.6,27.224a9.261,9.261,0,0,1-4.123-.835,9.571,9.571,0,0,1-3.322-2.521C1.247,21.654.071,18.093,0,13.766-.065,9.405.991,5.811,2.831,3.545A9.414,9.414,0,0,1,10.173,0a9.418,9.418,0,0,1,7.461,3.322c1.908,2.2,3.083,5.758,3.152,10.119.068,4.327-.988,7.921-2.845,10.2a9.633,9.633,0,0,1-3.254,2.623,9.5,9.5,0,0,1-4.106.954Zm3.748-13.679c-.085-5.537-1.738-8.433-4.088-8.4C7.873,5.18,6.34,8.11,6.425,13.664c.085,5.5,1.7,8.4,4.088,8.364C12.865,21.994,14.432,19.047,14.347,13.545Z" transform="translate(46.134 80.265)" fill="#fcb042"/><path d="M10.954,27.58v-.358h-.17a8.887,8.887,0,0,1-3.8-.8,9.22,9.22,0,0,1-3.2-2.436c-1.84-2.129-3-5.6-3.066-9.881v-.392c0-4.123,1.039-7.5,2.76-9.591A9.032,9.032,0,0,1,10.545.715h.17A9.063,9.063,0,0,1,17.734,3.9h0c1.84,2.112,3,5.588,3.066,9.9v.392c0,4.088-1.039,7.461-2.76,9.574A9.547,9.547,0,0,1,14.906,26.3a8.991,8.991,0,0,1-3.952.92v.715a9.792,9.792,0,0,0,4.276-.988A10.363,10.363,0,0,0,18.6,24.224c1.857-2.3,2.913-5.826,2.93-10.034V13.8C21.465,9.369,20.289,5.741,18.3,3.441h0A9.821,9.821,0,0,0,10.715,0h-.17A9.744,9.744,0,0,0,2.93,3.68C1.073,5.962.017,9.489,0,13.731v.409c.068,4.4,1.244,8.024,3.237,10.34A10.139,10.139,0,0,0,6.695,27.1a9.808,9.808,0,0,0,4.106.869h.187V27.6ZM14.7,13.9h.358a15.2,15.2,0,0,0-1.227-6.422,3.636,3.636,0,0,0-3.2-2.334h-.051a2.988,2.988,0,0,0-1.789.613A5.535,5.535,0,0,0,7,8.62a16.938,16.938,0,0,0-.613,4.957v.443A15.173,15.173,0,0,0,7.6,20.408a4.737,4.737,0,0,0,1.363,1.721,3.026,3.026,0,0,0,1.84.613h.051a3.531,3.531,0,0,0,3.1-2.283,14.062,14.062,0,0,0,1.09-6.133v-.443h-.715v.426A13.585,13.585,0,0,1,13.3,20.119a2.823,2.823,0,0,1-2.453,1.874H10.8a2.327,2.327,0,0,1-1.4-.46,5.167,5.167,0,0,1-1.6-2.589A17.31,17.31,0,0,1,7.121,14V13.56A13.6,13.6,0,0,1,8.126,7.734,3.7,3.7,0,0,1,9.233,6.32,2.194,2.194,0,0,1,10.6,5.86h.034c1.005,0,1.857.6,2.538,1.942a14.268,14.268,0,0,1,1.141,6.1H14.7Z" transform="translate(45.78 79.909)"/><path d="M10.6,27.224a9.4,9.4,0,0,1-7.444-3.356C1.247,21.654.071,18.093,0,13.766-.065,9.405.991,5.811,2.848,3.545A9.311,9.311,0,0,1,10.19,0a9.418,9.418,0,0,1,7.461,3.322c1.908,2.2,3.083,5.758,3.152,10.119.068,4.327-.988,7.921-2.845,10.2A9.633,9.633,0,0,1,14.7,26.27a9.521,9.521,0,0,1-4.123.954Zm3.748-13.7c-.085-5.536-1.738-8.433-4.088-8.4-2.385.034-3.918,2.964-3.833,8.518.085,5.5,1.7,8.4,4.089,8.364C12.865,21.977,14.432,19.03,14.347,13.528Z" transform="translate(68.757 79.908)" fill="#fcb042"/><path d="M10.937,27.6V27.24h-.17a8.889,8.889,0,0,1-3.8-.8A9.221,9.221,0,0,1,3.765,24c-1.84-2.129-3-5.6-3.066-9.881V13.73c0-4.123,1.039-7.5,2.76-9.591A8.98,8.98,0,0,1,10.528.733h.17a9.063,9.063,0,0,1,7.019,3.186h0c1.84,2.1,3,5.588,3.066,9.9v.392c0,4.088-1.039,7.461-2.76,9.574a9.664,9.664,0,0,1-3.117,2.538,8.992,8.992,0,0,1-3.952.92v.715A9.571,9.571,0,0,0,15.23,26.95,10.363,10.363,0,0,0,18.6,24.224c1.857-2.3,2.913-5.826,2.93-10.034V13.8C21.465,9.369,20.289,5.724,18.3,3.441h0A9.821,9.821,0,0,0,10.715,0h-.17A9.77,9.77,0,0,0,2.93,3.68C1.073,5.962.017,9.489,0,13.73v.409c.068,4.4,1.244,8.024,3.237,10.34A10.14,10.14,0,0,0,6.695,27.1a9.808,9.808,0,0,0,4.106.869h.187V27.6Zm3.748-13.7h.358a15.2,15.2,0,0,0-1.227-6.422,3.636,3.636,0,0,0-3.2-2.334h-.051a2.988,2.988,0,0,0-1.789.613A5.535,5.535,0,0,0,6.985,8.62a16.935,16.935,0,0,0-.613,4.957v.443a15.173,15.173,0,0,0,1.21,6.388,4.737,4.737,0,0,0,1.363,1.721,3.026,3.026,0,0,0,1.84.613h.051a3.531,3.531,0,0,0,3.1-2.283,14.061,14.061,0,0,0,1.09-6.133v-.443H14.31v.426a13.586,13.586,0,0,1-1.022,5.809,2.823,2.823,0,0,1-2.453,1.874H10.8a2.327,2.327,0,0,1-1.4-.46,4.98,4.98,0,0,1-1.6-2.589A17.311,17.311,0,0,1,7.121,14V13.56A13.6,13.6,0,0,1,8.126,7.734,3.842,3.842,0,0,1,9.216,6.32a2.194,2.194,0,0,1,1.363-.46h.034a2.9,2.9,0,0,1,2.538,1.925,14.268,14.268,0,0,1,1.141,6.1h.358Z" transform="translate(68.42 79.534)"/><path d="M.426,26.338a32.5,32.5,0,0,0,.6-4.378c.136-1.755.187-3.458.153-5.094L1.056,9.61C1.022,7.974.937,6.271.733,4.5A29.894,29.894,0,0,0,0,.138L8.705,0a10.609,10.609,0,0,1,8.33,3.254c2.061,2.232,3.117,5.451,3.186,9.625.068,4.225-.886,7.461-2.879,9.761a10.492,10.492,0,0,1-8.228,3.543l-8.705.136Zm6.9-6.133,2.1-.034a3.829,3.829,0,0,0,3.2-1.874A9.121,9.121,0,0,0,13.816,13a8.852,8.852,0,0,0-1.363-5.213A3.851,3.851,0,0,0,9.2,6.049l-2.1.034.221,14.139Z" transform="translate(91.332 80.078)" fill="#fcb042"/><path d="M.886,26.746l.358.085a33.4,33.4,0,0,0,.6-4.429c.119-1.465.17-2.879.17-4.259v-.869l-.119-7.257c-.034-1.652-.136-3.356-.324-5.145A33.314,33.314,0,0,0,.835.46L.477.545V.9L9.2.767h.239A10.15,10.15,0,0,1,17.257,3.9h0c1.976,2.146,3.015,5.264,3.083,9.386v.392c0,3.969-.937,6.984-2.794,9.114h0a10.158,10.158,0,0,1-7.956,3.424l-8.705.136v.358l.358.085-.358-.085v.358l8.722-.136a10.893,10.893,0,0,0,8.5-3.68h0c2.01-2.3,2.981-5.519,2.964-9.591v-.409C21,9.012,19.931,5.707,17.785,3.373h0A10.885,10.885,0,0,0,9.438,0H9.182L0,.153.119.6a31.337,31.337,0,0,1,.715,4.31c.187,1.755.29,3.441.324,5.077l.119,7.257v.852c0,1.363-.051,2.76-.17,4.208a31.548,31.548,0,0,1-.579,4.327l-.1.46h.46v-.341Zm6.9-6.133v.358L9.9,20.936a4.187,4.187,0,0,0,3.509-2.044h0a9.084,9.084,0,0,0,1.261-5.213v-.29a9.371,9.371,0,0,0-1.431-5.434h0A4.245,4.245,0,0,0,9.744,6.065H9.676L7.206,6.1l.238,14.872H7.8V20.6H8.16L7.938,6.814,9.676,6.78h.051a3.487,3.487,0,0,1,2.9,1.584h0a8.557,8.557,0,0,1,1.295,5.008v.29a8.36,8.36,0,0,1-1.141,4.8h0a3.48,3.48,0,0,1-2.913,1.721l-2.1.034v.358h.017Z" transform="translate(90.872 79.671)"/><path d="M17.45,18.654S-1.6,21.533.108,0C13.276,1.567,18.472,6.661,17.45,18.654Z" transform="translate(54.752 19.144)" fill="#0a8c60"/><path d="M17.836,19.046l-.051-.358a.772.772,0,0,0-.136.017,17.622,17.622,0,0,1-1.976.1A16.439,16.439,0,0,1,6.49,16.252C3.356,14.088.767,10.221.767,3.032q0-1.227.1-2.606L.511.392.46.75c6.013.715,10.306,2.181,13.066,4.634S17.6,11.311,17.6,16.252c0,.869-.034,1.789-.119,2.76l.358.034-.051-.358.051.358.358.034c.085-.988.119-1.925.119-2.811,0-5.06-1.38-8.807-4.327-11.414S6.593.767.511.051L.136,0,.1.375Q0,1.78,0,3.032c0,7.359,2.709,11.55,6.048,13.833a17.209,17.209,0,0,0,9.608,2.675A16.089,16.089,0,0,0,17.87,19.4l.29-.051v-.29c.017,0-.341-.034-.341-.034Z" transform="translate(54.365 18.752)"/></g><path d="M94.41,18.552l.307-.187C87.426,6.167,77.937,0,68.431,0,58.7,0,49.13,6.456,42.043,19.182L5.843,84.223C1.891,91.327,0,98.073,0,104.086a22.843,22.843,0,0,0,8.45,18.33c5.485,4.463,13.475,7.019,23.509,7.019H32.9l74.428-1.158c10.119-.153,18.143-2.811,23.645-7.291a22.686,22.686,0,0,0,8.45-18.194c0-6.235-2.1-13.219-6.473-20.545L94.734,18.381l-.307.187-.307.187,38.21,63.866c4.327,7.24,6.371,14.105,6.371,20.17a21.983,21.983,0,0,1-8.194,17.632c-5.332,4.344-13.185,6.967-23.2,7.121L32.878,128.7h-.92c-9.915,0-17.734-2.521-23.049-6.848A22.125,22.125,0,0,1,.733,104.086c0-5.86,1.84-12.47,5.758-19.506l36.2-65.041C49.692,6.967,59.062.733,68.431.733c9.148,0,18.432,5.945,25.655,18.006l.307-.187Z" transform="translate(0 0)"/></g></svg>