<svg xmlns="http://www.w3.org/2000/svg" width="174.508" height="185.784" viewBox="0 0 174.508 185.784"><g transform="translate(84.249) rotate(34)"><path d="M108,95.6a54,54,0,0,1-108,0C0,65.808,54.019,0,54.019,0s54,65.808,54,95.6" transform="translate(0.426 0.681)" fill="#4182c4"/><path d="M108,96.284a53.568,53.568,0,0,1-107.135,0c0-7.325,3.339-16.984,8.4-27.325,7.581-15.5,18.96-32.5,28.449-45.638,4.736-6.559,9.012-12.163,12.1-16.115,1.533-1.976,2.794-3.543,3.646-4.617S54.786.937,54.786.937L54.445.664,54.1.937s.835,1.022,2.317,2.879c5.162,6.49,18.075,23.151,29.693,41.413a230.185,230.185,0,0,1,15.315,27.546c4.02,8.875,6.593,17.069,6.576,23.475h.869c0-7.581-3.407-17.308-8.484-27.7C85.16,37.427,54.786.426,54.769.409L54.428,0l-.341.409S40.578,16.865,27.052,37.069A279.175,279.175,0,0,0,8.467,68.584C3.407,78.976,0,88.7,0,96.284a54.437,54.437,0,0,0,108.873,0Z" transform="translate(0 0)"/><path d="M61.038,11.788H59.692V3.935H61.43V6.678h2.862V.324H49.2V6.678H52.06V3.935h1.755v7.853H52.5V15.4h8.552V11.788Zm-18.722,0H40.561V9.318h2.623V6.252H40.561V3.935h3.407V5.281h4.054V.324H33.032V3.935h1.652v7.853h-1.6V15.4h9.25V11.788ZM16.592,13.441a8.752,8.752,0,0,0,6.2,2.181,8.593,8.593,0,0,0,6.269-2.334A7.485,7.485,0,0,0,31.379,7.8a4.624,4.624,0,0,0-.562-2.9A8.056,8.056,0,0,0,29.13,2.368,8.3,8.3,0,0,0,22.793,0C20.068,0,21.567.051,21,.136A8.981,8.981,0,0,0,19.42.528a8.169,8.169,0,0,0-1.414.664,7.67,7.67,0,0,0-2.862,2.964A7.842,7.842,0,0,0,14.207,7.8a7.273,7.273,0,0,0,2.385,5.622ZM21.311,4.4a1.605,1.605,0,0,1,1.482-.852,1.584,1.584,0,0,1,1.5.886A7.955,7.955,0,0,1,24.769,7.8a8.113,8.113,0,0,1-.494,3.424,1.7,1.7,0,0,1-2.964-.034,7.874,7.874,0,0,1-.494-3.39A7.913,7.913,0,0,1,21.311,4.4Zm-17.785,10A6.088,6.088,0,0,0,7.172,15.57a5.244,5.244,0,0,0,3.594-1.329,4.156,4.156,0,0,0,1.414-3.2,3.679,3.679,0,0,0-.6-2.3,4.192,4.192,0,0,0-.664-.92,4.059,4.059,0,0,0-.784-.7,29.417,29.417,0,0,0-3-1.618A14.482,14.482,0,0,1,5.162,4.446a.8.8,0,0,1-.324-.681c0-.63.375-.937,1.124-.937A2.283,2.283,0,0,1,8.177,4.6h3.407V.307H8.143v.937A5.214,5.214,0,0,0,4.753.119,5.024,5.024,0,0,0,1.38,1.295,4.077,4.077,0,0,0,0,4.583,2.764,2.764,0,0,0,.579,6.712a4.879,4.879,0,0,0,1.4,1.533A17.931,17.931,0,0,0,4.719,9.693a9.147,9.147,0,0,1,1.942,1.022,1.026,1.026,0,0,1,.426.852q0,.971-1.227.971a2.648,2.648,0,0,1-2.317-1.976H.119V15.4H3.543v-.988Z" transform="translate(22.316 77.562)" fill="#f7eee5"/><path d="M61.327,12.078v-.29H60.271V4.514H61.43V7.257h3.441V.324H49.2V7.257h3.441V4.514h1.175v7.274H52.5v4.191h9.131V11.788h-.29v.29h-.29V15.4H53.082V12.368h1.312V3.935H52.06V6.678H49.777V.9H64.291V6.678H62.009V3.935H59.692v8.433h1.635v-.29h0Zm-18.722,0v-.29H41.123V9.9h2.623V6.252H41.123V4.514h2.828V5.877h4.634V.341H33.015V4.531h1.652v7.274h-1.6V16H42.9V11.806h-.29v.29h-.29v3.322H33.645V12.385h1.6V3.952H33.594V.92H48.006v4.4H44.53V3.952H40.544v2.9h2.623V9.335H40.544v3.049h2.044V12.1h0ZM16.882,13.731l-.2.2A9.046,9.046,0,0,0,23.066,16.2a8.726,8.726,0,0,0,6.473-2.419,7.8,7.8,0,0,0,2.4-5.69,7.719,7.719,0,0,0-.6-3A8.581,8.581,0,0,0,29.607,2.47,8.578,8.578,0,0,0,23.066,0a12.618,12.618,0,0,0-1.84.136,9.565,9.565,0,0,0-1.635.392,7.335,7.335,0,0,0-1.482.7,8.088,8.088,0,0,0-2.964,3.066,7.96,7.96,0,0,0-.971,3.782,7.571,7.571,0,0,0,2.487,5.843l.187-.221.187-.221a7.025,7.025,0,0,1-2.3-5.417,7.473,7.473,0,0,1,.9-3.509A7.333,7.333,0,0,1,18.4,1.7a6.618,6.618,0,0,1,1.363-.647A10.091,10.091,0,0,1,21.294.681,11.456,11.456,0,0,1,23.049.545a8.032,8.032,0,0,1,6.133,2.283,8.134,8.134,0,0,1,1.635,2.453,7.02,7.02,0,0,1,.545,2.777,7.23,7.23,0,0,1-2.232,5.281,8.124,8.124,0,0,1-6.065,2.249,8.5,8.5,0,0,1-6-2.112l-.187.221ZM21.6,4.685l.256.136a1.309,1.309,0,0,1,1.227-.716,1.277,1.277,0,0,1,1.244.733,7.793,7.793,0,0,1,.443,3.254,7.63,7.63,0,0,1-.46,3.288,1.335,1.335,0,0,1-1.244.716,1.269,1.269,0,0,1-1.227-.733,7.6,7.6,0,0,1-.46-3.254,7.481,7.481,0,0,1,.46-3.271L21.584,4.7l-.256-.136a7.972,7.972,0,0,0-.528,3.56,7.9,7.9,0,0,0,.528,3.526,1.88,1.88,0,0,0,1.738,1.039A1.917,1.917,0,0,0,24.8,11.686a8.021,8.021,0,0,0,.528-3.56A8.364,8.364,0,0,0,24.821,4.6,1.848,1.848,0,0,0,23.066,3.56a1.891,1.891,0,0,0-1.721,1.005L21.6,4.7Zm-17.785,10-.17.239a6.391,6.391,0,0,0,3.816,1.244,5.366,5.366,0,0,0,3.782-1.414,4.487,4.487,0,0,0,1.516-3.424,4.7,4.7,0,0,0-.647-2.436,5.37,5.37,0,0,0-.7-.971,4.732,4.732,0,0,0-.835-.75A32.364,32.364,0,0,0,7.547,5.537,14.63,14.63,0,0,1,5.622,4.514a.5.5,0,0,1-.2-.46c.034-.494.153-.613.835-.647.937,0,1.533.477,1.942,1.584l.068.187h3.9V.307H8.143V1.533h.29l.187-.221A5.464,5.464,0,0,0,5.042.119a5.277,5.277,0,0,0-3.56,1.244A4.4,4.4,0,0,0,0,4.872,4.366,4.366,0,0,0,.613,7.155,5.052,5.052,0,0,0,2.1,8.773a18.541,18.541,0,0,0,2.777,1.465,9.168,9.168,0,0,1,1.874.988.793.793,0,0,1,.324.613c-.034.494-.187.647-.937.681-1.005,0-1.635-.528-2.027-1.772l-.068-.2H.119v5.417h4V14.685h-.29l-.17.238.17-.238h-.29v.7H.7V11.124H3.833v-.29l-.273.085A2.66,2.66,0,0,0,6.15,13.1a1.69,1.69,0,0,0,1.09-.307,1.113,1.113,0,0,0,.409-.954,1.323,1.323,0,0,0-.528-1.073A11.232,11.232,0,0,0,5.128,9.71,17.348,17.348,0,0,1,2.436,8.3,4.276,4.276,0,0,1,1.124,6.865,3.806,3.806,0,0,1,.579,4.872,3.781,3.781,0,0,1,1.857,1.806,4.709,4.709,0,0,1,5.042.7a4.932,4.932,0,0,1,3.2,1.056l.477.392V.886h2.862V4.6H8.467v.29l.273-.1A2.583,2.583,0,0,0,6.252,2.811a1.525,1.525,0,0,0-1.022.307,1.1,1.1,0,0,0-.375.937,1.1,1.1,0,0,0,.443.92A17.623,17.623,0,0,0,7.325,6.048a30.23,30.23,0,0,1,2.964,1.6,3.5,3.5,0,0,1,.733.647,5.575,5.575,0,0,1,.63.869,4.314,4.314,0,0,1,.562,2.163,3.933,3.933,0,0,1-1.329,3A4.77,4.77,0,0,1,7.5,15.587,5.765,5.765,0,0,1,4.02,14.463l-.46-.324V14.7h.29Z" transform="translate(22.027 77.272)" fill="#020202"/><path d="M84.461,11.465H83.32V8.909h1.874l3.322,6.15H94V11.448h-1.09l-2.1-3.441a3.693,3.693,0,0,0,1.6-1.38A3.841,3.841,0,0,0,93.03,4.5a4.529,4.529,0,0,0-1.005-2.709A4.642,4.642,0,0,0,89.436.324,12.017,12.017,0,0,0,88.192.136c-.46-.051-.988-.085-1.635-.1C85.926,0,85.228,0,84.5,0H76.216V3.611H77.46v7.853H76.216v3.611H84.5V11.465ZM83.848,3.3a14.114,14.114,0,0,1,1.84.085,1.409,1.409,0,0,1,.869.426,1.318,1.318,0,0,1,.341.937,1.248,1.248,0,0,1-.341.92,1.412,1.412,0,0,1-.835.426,13.317,13.317,0,0,1-1.755.068H83.3V3.288h.528Zm-9.915,6.95H69.947v1.209H66.489V8.995H69.5V5.928H66.489V3.611h3.458V4.821h3.986V0H59.385V3.611h1.21v7.853H59.419v3.611H73.951V10.255ZM54.275,11.465H52.929V3.611h1.738V6.354h2.862V0H42.435V6.354H45.3V3.611h1.755v7.853H45.74v3.611h8.552V11.465Zm-23.441.307H29.59l.664-1.891h3.9l.579,1.891H33.406v3.3h7.938V11.465H40.221L37.307,3.611h1.227V0H27.6V3.611h1.227l-2.862,7.853H24.8v3.611h6.031ZM33.56,8.007H30.834l1.431-4.174ZM12.2,9.4l2.061,5.809h4.736l4.327-11.6h1.056V0H18.245V3.611h1.09L17.512,10.1,15.2,3.611H16.32V0H9.693V3.611h1.124L8.535,10.1,6.746,3.611H7.887V0H0V3.611H1.056l4.293,11.6h4.787L12.2,9.4Z" transform="translate(7.359 98.975)" fill="#f7eee5"/><path d="M84.751,11.771v-.29h-.869V9.506H85.3l3.322,6.15h5.945V11.465H93.337l-2.01-3.3-.238.153.119.256a3.994,3.994,0,0,0,1.738-1.5,4.112,4.112,0,0,0,.664-2.283,4.266,4.266,0,0,0-1.073-2.9,4.812,4.812,0,0,0-2.76-1.55A9.2,9.2,0,0,0,88.5.153c-.46-.051-1.005-.085-1.652-.1C86.2.017,85.518.017,84.768.017H76.2V4.208h1.244v7.274H76.2v4.191h8.858V11.482h-.29v.29h-.29v3.322h-7.7V12.061h1.244V3.629H76.778V.6h7.99C85.5.6,86.2.6,86.829.63c.63.017,1.175.068,1.618.1A11.662,11.662,0,0,1,89.674.92,4.444,4.444,0,0,1,92.11,2.283,3.645,3.645,0,0,1,93.047,4.8a3.514,3.514,0,0,1-.562,1.959A3.362,3.362,0,0,1,91,8.041l-.307.136,2.351,3.867h.971v3.032H88.993l-3.322-6.15H83.337v3.117h1.431v-.29h0Zm-.613-8.16V3.9a17.668,17.668,0,0,1,1.789.068,1.182,1.182,0,0,1,.7.341.957.957,0,0,1,.256.733.916.916,0,0,1-.256.715,1.159,1.159,0,0,1-.681.358,12.236,12.236,0,0,1-1.7.068h-.375v-2.3h.256V3.3H83.3V6.746h.937a10.937,10.937,0,0,0,1.789-.085,1.639,1.639,0,0,0,.988-.511,1.515,1.515,0,0,0,.426-1.124,1.582,1.582,0,0,0-.426-1.141,1.682,1.682,0,0,0-1.039-.511A14.954,14.954,0,0,0,84.1,3.288v.29Zm-9.915,6.95v-.29H69.947v1.21H67.068V9.591h3.015V5.945H67.068V4.208h2.879v1.21h4.565V.017H59.385V4.208h1.21v7.274H59.419v4.191H74.513v-5.4h-.29v.29h-.29v4.531H59.982V12.061h1.175V3.628h-1.21V.6H73.916V4.838H70.492V3.628H66.455v2.9H69.47V9.012H66.455v3.049h4.037V10.852h3.714v-.29h.017ZM54.564,11.771v-.29H53.508V4.208h1.158V6.95h3.441V.017H42.435V6.95h3.441V4.208h1.175v7.274H45.74v4.191h9.131V11.482h-.29v.29h-.29v3.322H46.319V12.061h1.312V3.628H45.3V6.371H43.014V.6H57.528V6.371H55.246V3.628H52.929v8.433h1.635v-.29h0Zm-23.441.307v-.29h-.835l.46-1.329h3.475l.409,1.312H33.406v3.884h8.518V11.465h-1.21L38.023,4.191H39.13V0H27.614V4.191h1.107l-2.64,7.274H24.838v4.191h6.61V11.771h-.29v.29h-.29v3.015H25.417V12.044H26.49l3.066-8.433H28.211V.579H38.585V3.611H37.239l3.117,8.433h1.022v3.032H34V12.351h1.448L34.7,9.88h-4.31l-.869,2.47h1.652v-.29h0Zm2.726-3.765v-.29H31.532l1.022-2.947L33.577,8.4l.273-.085v0l.273-.085L32.572,3.22,30.715,8.6h3.526l-.119-.375ZM12.487,9.71l-.273.1,2.129,6h5.128L23.8,4.208H24.94V.017H18.228V4.208h1.005L17.768,9.455,15.894,4.208H16.9V.017H9.693V4.208H10.7l-1.84,5.23L7.41,4.208H8.467V.017H0V4.208H1.141l4.293,11.6h5.2l2.129-6-.273-.1-.273.1.273-.1-.273-.1L10.221,15.23h-4.4L1.533,3.629H.562V.6H7.87V3.629H6.644L8.79,11.38,11.5,3.629H10.255V.6H16.3V3.629H15.059L17.8,11.363l2.163-7.734H18.773V.6h5.571V3.629h-.971l-4.327,11.6H14.719L12.453,8.841l-.273.767.273.1Z" transform="translate(7.07 98.669)" fill="#020202"/></g></svg>