<svg xmlns="http://www.w3.org/2000/svg" width="262.515" height="117.512" viewBox="0 0 262.515 117.512"><g transform="translate(0 35.27) rotate(-8)"><path d="M41.071,0H211.443a41.086,41.086,0,0,1,41.071,41.071h0a41.086,41.086,0,0,1-41.071,41.071H41.071A41.086,41.086,0,0,1,0,41.071H0A41.086,41.086,0,0,1,41.071,0Z" transform="translate(0.455 0.455)" fill="#684930"/><path d="M252.968,41.525h-.455a40.587,40.587,0,0,1-40.6,40.6H41.525a40.587,40.587,0,0,1-40.6-40.6h0a40.587,40.587,0,0,1,40.6-40.6H211.9a40.587,40.587,0,0,1,40.6,40.6h.926A41.529,41.529,0,0,0,211.9,0H41.525A41.529,41.529,0,0,0,0,41.525H0A41.529,41.529,0,0,0,41.525,83.051H211.9a41.529,41.529,0,0,0,41.525-41.525h-.455Z" transform="translate(0 0)"/><path d="M26.5,24.52c0-.568-.032-1.137,0-1.705a7.459,7.459,0,0,1,1.072-3.8A10.635,10.635,0,0,1,29.827,16.3a10.989,10.989,0,0,1,2.517-1.591,3.253,3.253,0,0,1,2.874.13c.179.1.341.195.52.309A11.9,11.9,0,0,1,39.652,19.7a3.387,3.387,0,0,1-.1,3.459,14.5,14.5,0,0,1-1.267,1.965,8.212,8.212,0,0,1-1.445,1.462,2,2,0,0,1-3.053-.406c-.211-.26-.39-.552-.6-.812a3.319,3.319,0,0,0-.65-.7,1.433,1.433,0,0,0-2.274.422,3.912,3.912,0,0,0-.406.926c-.162.536-.276,1.1-.406,1.656a1.873,1.873,0,0,1-.877,1.283,1.118,1.118,0,0,0-.552,1.38c.065.26.1.536.162.812a1.216,1.216,0,0,0,1.543,1.007c1.153-.179,2.306-.357,3.459-.52a6.306,6.306,0,0,0,2.793-.958c.568-.374,1.121-.763,1.656-1.153a17.738,17.738,0,0,0,4.336-4.336A12.317,12.317,0,0,0,44.3,19.259a18.424,18.424,0,0,0-.13-3.9,19.649,19.649,0,0,0-2.079-6.545c-.52-.991-1.169-1.9-1.77-2.842A11.033,11.033,0,0,0,37.33,2.889,10.9,10.9,0,0,0,35.544,1.85,17.592,17.592,0,0,0,31.6.648a7.9,7.9,0,0,0-3.378,0c-1.039.227-2.079.5-3.134.715a6.167,6.167,0,0,1-2.777,0c-1.25-.309-2.485-.65-3.751-.926A11.4,11.4,0,0,0,15.325.015,11.711,11.711,0,0,0,8.861,2.4a25.685,25.685,0,0,0-4.71,4.677A19.05,19.05,0,0,0,1.229,12,14.164,14.164,0,0,0,.173,19.681a11.538,11.538,0,0,0,.974,3.378A11.283,11.283,0,0,0,6,27.866a18.164,18.164,0,0,0,5.327,1.673c1.137.211,2.29.422,3.427.633a1.406,1.406,0,0,0,1.673-.958,2.639,2.639,0,0,0-.179-2.209,17.637,17.637,0,0,1-.731-1.721c-.146-.357-.244-.731-.406-1.072a2.424,2.424,0,0,0-.487-.666c-.471-.455-.844-.406-1.218.13a8.042,8.042,0,0,0-.52.974c-.195.374-.357.747-.552,1.121a1.827,1.827,0,0,1-2.322.828,9.037,9.037,0,0,1-4.742-4.466,3.412,3.412,0,0,1-.357-1.916,4.53,4.53,0,0,1,1.4-2.923c1.039-1.007,2.079-2,3.134-2.988a7.673,7.673,0,0,1,2.7-1.64,2.988,2.988,0,0,1,1.8-.179,5.768,5.768,0,0,1,3.784,3.053,10.928,10.928,0,0,1,.861,6.869c-.585,3.41-1.3,6.8-1.981,10.2a21.324,21.324,0,0,1-2.241,6.3c-.357.633-.682,1.3-1.007,1.965a4.247,4.247,0,0,0-.438,2.712,4.612,4.612,0,0,0,1.884,2.745,10.432,10.432,0,0,0,5.879,2.095,17.268,17.268,0,0,0,4.839-.276,8.67,8.67,0,0,0,1.462-.325A3.4,3.4,0,0,0,28.8,45.908a5.545,5.545,0,0,0,.455-2.6,35.381,35.381,0,0,0-.39-3.93c-.5-2.874-1.1-5.749-1.673-8.623a31.865,31.865,0,0,1-.715-6.2Z" transform="translate(19.769 15.949)" fill="#ffe4c7"/><path d="M5.881,11.548l.162-.049a3.95,3.95,0,0,0,0-.438c-.114-.909-.211-1.819-.374-2.728A21.236,21.236,0,0,0,2.649.651,1.417,1.417,0,0,0,2.1.131,1.638,1.638,0,0,0,.132.716.674.674,0,0,0,.2,1.593a11.079,11.079,0,0,1,.8.942A26.72,26.72,0,0,1,4.208,8.4a2.837,2.837,0,0,0,.455.844,5.368,5.368,0,0,1,1.056,1.965,2.02,2.02,0,0,0,.162.325Z" transform="translate(30.334 29.62)" fill="#8c674b"/><path d="M0,2.136c0,.715.146.942.828,1.315l.13.065a21,21,0,0,1,4.71,2.647.625.625,0,0,0,.487.13.541.541,0,0,0,.309-.568,1.925,1.925,0,0,0-.357-1.072A15.313,15.313,0,0,0,1.657.139.768.768,0,0,0,.569.35,3.015,3.015,0,0,0,0,2.153Z" transform="translate(25.512 34.144)" fill="#8c674b"/><path d="M0,11.439a3.311,3.311,0,0,0,.276.828.8.8,0,0,0,.487.341c.26.032.341-.227.39-.438a14.07,14.07,0,0,0,.341-1.429,11.24,11.24,0,0,1,.828-2.907A18.694,18.694,0,0,1,7.243,1.257,1.757,1.757,0,0,0,7.584.9c.276-.406.195-.682-.26-.844A.99.99,0,0,0,6.886.006,1.7,1.7,0,0,0,5.668.639a25.676,25.676,0,0,0-5.1,8.753c-.227.666-.374,1.348-.552,2.046Z" transform="translate(47.209 31.483)" fill="#8c674b"/><path d="M1.817,0A1.526,1.526,0,0,0,1.33.211C.907.568.534.974.128,1.348a.345.345,0,0,0,0,.536,5.541,5.541,0,0,0,.633.6A13.8,13.8,0,0,1,3.425,4.872c.5.617.974,1.25,1.445,1.884a.625.625,0,0,0,.52.341A.794.794,0,0,0,6.12,5.96c-.227-.5-.455-1.007-.715-1.494a21.969,21.969,0,0,0-2.42-3.9A1.429,1.429,0,0,0,1.833,0Z" transform="translate(27.399 31.603)" fill="#8c674b"/><path d="M.6,6.71a1.5,1.5,0,0,0,1.185-.6A24.425,24.425,0,0,1,5.111,3.089c.455-.357.958-.682,1.429-1.007.422-.292.471-.552.162-.942a8.236,8.236,0,0,0-.8-.893A.741.741,0,0,0,4.868.182a2.528,2.528,0,0,0-.325.26A20.077,20.077,0,0,0,.191,5.866a1.532,1.532,0,0,0-.162.374c-.1.357.049.52.552.5Z" transform="translate(50.526 32.753)" fill="#8c674b"/><path d="M6.115,2.03A3.141,3.141,0,0,0,5.677.5.722.722,0,0,0,4.54.146,2.489,2.489,0,0,0,4.2.373,32.888,32.888,0,0,0,.4,3.621C.025,3.979-.1,4.5.09,4.758a.945.945,0,0,0,1.234.211h.032c1.267-.552,2.533-1.088,3.8-1.624A1.256,1.256,0,0,0,6.1,2.03Z" transform="translate(52.901 35.306)" fill="#8c674b"/><path d="M3.588,10.361h.13a1.91,1.91,0,0,0,.114-.325,16.062,16.062,0,0,0,.292-3.524,9.449,9.449,0,0,0-.958-4A5.746,5.746,0,0,0,.454,0H.081A.465.465,0,0,0,.016.39a2.016,2.016,0,0,0,.26.487A22.271,22.271,0,0,1,3.329,8.948c.081.471.162.926.244,1.4Z" transform="translate(33.552 29.264)" fill="#8c674b"/><path d="M5.018.072a.45.45,0,0,0-.585.1A25.631,25.631,0,0,0,2.355,1.81,7.545,7.545,0,0,0,0,7.4.611.611,0,0,0,.292,8,26.379,26.379,0,0,1,5.034.072Z" transform="translate(47.128 31.709)" fill="#8c674b"/><path d="M.081.032,0,.1A2.348,2.348,0,0,0,.179.5,7.857,7.857,0,0,0,1.8,2.241,7.083,7.083,0,0,0,4.011,3.427c.244.081.471.049.552-.162a.9.9,0,0,0-.081-.6l-.26-.244A15.084,15.084,0,0,0,1.169.552C.8.374.438.195.081,0Z" transform="translate(26.325 38.391)" fill="#8c674b"/><path d="M3.739.13,3.691,0a2.306,2.306,0,0,0-.5.1C2.765.26,2.326.422,1.92.617a16.485,16.485,0,0,0-1.527.731c-.52.276-.52.747-.032,1.088a1.073,1.073,0,0,0,1.25.016A5.969,5.969,0,0,0,3.756.146Z" transform="translate(54.269 39.609)" fill="#8c674b"/><path d="M45.951,18.857a12.759,12.759,0,0,1-2.826,8.1,18.273,18.273,0,0,1-4.515,4.287c-.52.357-1.023.715-1.543,1.072a7.056,7.056,0,0,1-3.151,1.056c-.812.1-1.608.211-2.4.341a2.113,2.113,0,0,0-1.721,2.468c.195,1.007.406,2.014.585,3.021a24.9,24.9,0,0,1,.487,5.814,5.786,5.786,0,0,1-.6,2.306,4.415,4.415,0,0,1-2.972,2.42,15.81,15.81,0,0,1-5.018.5,16.026,16.026,0,0,1-3.524-.487,10.383,10.383,0,0,1-4.742-2.874,4.745,4.745,0,0,1-.682-5.408c.357-.747.763-1.462,1.169-2.192a17.318,17.318,0,0,0,1.754-4.677A2.639,2.639,0,0,0,14.1,31.524c-1.413-.244-2.842-.487-4.239-.828a13.735,13.735,0,0,1-6.48-3.475A10.12,10.12,0,0,1,.252,21.033a16.461,16.461,0,0,1-.244-2.826A18.034,18.034,0,0,1,3.613,8.285,28.73,28.73,0,0,1,9.1,2.634,13.1,13.1,0,0,1,16.069.019,9.092,9.092,0,0,1,18.8.327c1.267.276,2.533.617,3.8.909a8.948,8.948,0,0,0,1.575.292,9.376,9.376,0,0,0,1.77-.195c1.072-.211,2.127-.471,3.183-.7a8.508,8.508,0,0,1,3.329,0A20.577,20.577,0,0,1,36.6,1.87,12.719,12.719,0,0,1,41.631,6a21.077,21.077,0,0,1,3.621,7.454,19.347,19.347,0,0,1,.7,5.392Zm-18.66,6.528c0-.568-.032-1.137,0-1.705a7.459,7.459,0,0,1,1.072-3.8,10.634,10.634,0,0,1,2.257-2.712,10.989,10.989,0,0,1,2.517-1.592,3.253,3.253,0,0,1,2.874.13c.179.1.341.195.52.309a11.9,11.9,0,0,1,3.914,4.547,3.387,3.387,0,0,1-.1,3.459,14.5,14.5,0,0,1-1.267,1.965,8.212,8.212,0,0,1-1.445,1.462,2,2,0,0,1-3.053-.406c-.211-.26-.39-.552-.6-.812a3.32,3.32,0,0,0-.65-.7,1.433,1.433,0,0,0-2.274.422,3.914,3.914,0,0,0-.406.926c-.162.536-.276,1.1-.406,1.656a1.873,1.873,0,0,1-.877,1.283,1.118,1.118,0,0,0-.552,1.38c.065.26.1.536.162.812a1.216,1.216,0,0,0,1.543,1.007c1.153-.179,2.306-.357,3.459-.52a6.306,6.306,0,0,0,2.793-.958c.568-.374,1.121-.763,1.656-1.153a17.739,17.739,0,0,0,4.336-4.336,12.316,12.316,0,0,0,2.322-5.928,18.424,18.424,0,0,0-.13-3.9,19.65,19.65,0,0,0-2.079-6.545c-.52-.991-1.169-1.9-1.77-2.842a11.033,11.033,0,0,0-2.988-3.086,10.9,10.9,0,0,0-1.786-1.039,17.592,17.592,0,0,0-3.946-1.2,7.9,7.9,0,0,0-3.378,0c-1.039.227-2.079.5-3.134.715a6.167,6.167,0,0,1-2.777,0c-1.25-.309-2.485-.65-3.751-.926A11.4,11.4,0,0,0,16.118.88,11.711,11.711,0,0,0,9.655,3.267a25.684,25.684,0,0,0-4.71,4.677,19.05,19.05,0,0,0-2.923,4.921A14.164,14.164,0,0,0,.966,20.546a11.538,11.538,0,0,0,.974,3.378A11.283,11.283,0,0,0,6.8,28.731,18.164,18.164,0,0,0,12.123,30.4c1.137.211,2.29.422,3.427.633a1.406,1.406,0,0,0,1.673-.958,2.639,2.639,0,0,0-.179-2.209,17.638,17.638,0,0,1-.731-1.721c-.146-.357-.244-.731-.406-1.072a2.424,2.424,0,0,0-.487-.666c-.471-.455-.844-.406-1.218.13a8.038,8.038,0,0,0-.52.974c-.195.374-.357.747-.552,1.121a1.827,1.827,0,0,1-2.322.828A9.037,9.037,0,0,1,6.066,23a3.412,3.412,0,0,1-.357-1.916,4.53,4.53,0,0,1,1.4-2.923c1.039-1.007,2.079-2,3.134-2.988a7.673,7.673,0,0,1,2.7-1.64,2.988,2.988,0,0,1,1.8-.179A5.768,5.768,0,0,1,18.522,16.4a10.928,10.928,0,0,1,.861,6.869c-.585,3.41-1.3,6.8-1.981,10.2a21.324,21.324,0,0,1-2.241,6.3c-.357.633-.682,1.3-1.007,1.965a4.247,4.247,0,0,0-.438,2.712A4.612,4.612,0,0,0,15.6,47.2a10.432,10.432,0,0,0,5.879,2.095,17.267,17.267,0,0,0,4.839-.276,8.669,8.669,0,0,0,1.462-.325A3.4,3.4,0,0,0,29.6,46.773a5.545,5.545,0,0,0,.455-2.6,35.385,35.385,0,0,0-.39-3.93c-.5-2.874-1.1-5.749-1.673-8.623a31.864,31.864,0,0,1-.715-6.2Zm-10.052.7.162-.049a3.95,3.95,0,0,0,0-.438c-.114-.909-.211-1.819-.374-2.728a21.237,21.237,0,0,0-3.021-7.681,1.417,1.417,0,0,0-.552-.52,1.638,1.638,0,0,0-1.965.585.674.674,0,0,0,.065.877,11.081,11.081,0,0,1,.8.942,26.721,26.721,0,0,1,3.215,5.863,2.836,2.836,0,0,0,.455.844,5.368,5.368,0,0,1,1.056,1.965,2.021,2.021,0,0,0,.162.325ZM6.537,21.2c0,.715.146.942.828,1.315l.13.065a21,21,0,0,1,4.71,2.647.625.625,0,0,0,.487.13A.541.541,0,0,0,13,24.785a1.925,1.925,0,0,0-.357-1.072A15.313,15.313,0,0,0,8.193,19.2a.768.768,0,0,0-1.088.211,3.015,3.015,0,0,0-.568,1.8Zm21.7,6.626a3.311,3.311,0,0,0,.276.828.8.8,0,0,0,.487.341c.26.032.341-.227.39-.438a14.078,14.078,0,0,0,.341-1.429,11.241,11.241,0,0,1,.828-2.907,18.694,18.694,0,0,1,4.921-6.577,1.757,1.757,0,0,0,.341-.357c.276-.406.195-.682-.26-.844a.99.99,0,0,0-.438-.049,1.7,1.7,0,0,0-1.218.633,25.676,25.676,0,0,0-5.1,8.753c-.227.666-.374,1.348-.552,2.046ZM10.239,16.5a1.526,1.526,0,0,0-.487.211c-.422.357-.8.763-1.2,1.137a.345.345,0,0,0,0,.536,5.54,5.54,0,0,0,.633.6,13.8,13.8,0,0,1,2.663,2.387c.5.617.974,1.25,1.445,1.884a.625.625,0,0,0,.52.341.794.794,0,0,0,.731-1.137c-.227-.5-.455-1.007-.715-1.494a21.969,21.969,0,0,0-2.42-3.9,1.429,1.429,0,0,0-1.153-.568Zm21.908,7.86a1.5,1.5,0,0,0,1.185-.6,24.423,24.423,0,0,1,3.329-3.021c.455-.357.958-.682,1.429-1.007.422-.292.471-.552.162-.942a8.241,8.241,0,0,0-.8-.893.741.741,0,0,0-1.039-.065,2.532,2.532,0,0,0-.325.26,20.077,20.077,0,0,0-4.352,5.424,1.533,1.533,0,0,0-.162.374c-.1.357.049.52.552.5Zm7.893-2.111a3.141,3.141,0,0,0-.438-1.527.722.722,0,0,0-1.137-.357,2.49,2.49,0,0,0-.341.227,32.887,32.887,0,0,0-3.8,3.248c-.374.357-.5.877-.309,1.137a.945.945,0,0,0,1.234.211h.032c1.267-.552,2.533-1.088,3.8-1.624a1.256,1.256,0,0,0,.942-1.315ZM18.164,24.525h.13a1.91,1.91,0,0,0,.114-.325,16.062,16.062,0,0,0,.292-3.524,9.449,9.449,0,0,0-.958-3.995,5.746,5.746,0,0,0-2.712-2.517h-.374a.465.465,0,0,0-.065.39,2.017,2.017,0,0,0,.26.487A22.271,22.271,0,0,1,17.9,23.112c.081.471.162.926.244,1.4ZM33.17,16.681a.45.45,0,0,0-.585.1,25.632,25.632,0,0,0-2.079,1.64,7.545,7.545,0,0,0-2.355,5.587.611.611,0,0,0,.292.6,26.378,26.378,0,0,1,4.742-7.925ZM7.43,23.323l-.081.065a2.348,2.348,0,0,0,.179.406,7.856,7.856,0,0,0,1.624,1.738,7.083,7.083,0,0,0,2.209,1.186c.244.081.471.049.552-.162a.9.9,0,0,0-.081-.6l-.26-.244a15.084,15.084,0,0,0-3.053-1.868c-.374-.179-.731-.357-1.088-.552Zm31.619,1.315L39,24.509a2.307,2.307,0,0,0-.5.1c-.422.162-.861.325-1.267.52a16.483,16.483,0,0,0-1.527.731c-.52.276-.52.747-.032,1.088a1.073,1.073,0,0,0,1.25.016,5.969,5.969,0,0,0,2.144-2.306Z" transform="translate(18.976 15.084)" fill="#020202"/><path d="M.022.407A.4.4,0,0,1,.493.066.42.42,0,0,1,.85.537C.85.7.818.878.8,1.04A2.929,2.929,0,0,0,.947,2.486c.179.471.5.552.893.244a1.47,1.47,0,0,0,.536-.942A8.982,8.982,0,0,0,2.49.65c.016-.406.146-.633.374-.65.26-.016.471.211.455.633a9.641,9.641,0,0,1-.227,1.673,1.9,1.9,0,0,1-.828,1.169A1.311,1.311,0,0,1,.184,2.859,8.233,8.233,0,0,1,.038.374Z" transform="translate(41.715 29.198)" fill="#020202"/><path d="M.024.311A.432.432,0,0,1,.82.23,1.455,1.455,0,0,1,.95,1.5a.451.451,0,0,1-.828.065A2.812,2.812,0,0,1,.04.295Z" transform="translate(39.114 29.197)" fill="#020202"/><path d="M.024.311A.432.432,0,0,1,.82.23,1.455,1.455,0,0,1,.95,1.5a.451.451,0,0,1-.828.065A2.811,2.811,0,0,1,.04.295Z" transform="translate(46.519 29.197)" fill="#020202"/><path d="M157.364,12.164h-4.823V15.4h-4.775V4.872h1.916V.032H138.136V4.872h1.819V15.4h-1.819v4.839h19.228ZM122.806,15.8h-1.656l.893-2.55h5.164l.763,2.55H126.2v4.433h10.54V15.4h-1.478L131.4,4.872h1.624V.032H118.5V4.872h1.624L116.342,15.4H114.8v4.839h8.006Zm3.622-5.051h-3.622l1.9-5.586ZM101.353,15.4H99.826v-3.41h2.485l4.4,8.25h7.275V15.4h-1.445l-2.793-4.612a4.884,4.884,0,0,0,2.127-1.851,5.226,5.226,0,0,0,.812-2.842,6.1,6.1,0,0,0-1.332-3.638A6.167,6.167,0,0,0,107.914.487a14.809,14.809,0,0,0-1.656-.26c-.6-.065-1.315-.114-2.16-.146s-1.754-.049-2.745-.049H90.375V4.872h1.64V15.4h-1.64v4.839h10.978Zm-.812-10.929a19.829,19.829,0,0,1,2.436.1,1.882,1.882,0,0,1,1.153.585,1.761,1.761,0,0,1,.455,1.25,1.63,1.63,0,0,1-.455,1.234,1.8,1.8,0,0,1-1.1.585,17.831,17.831,0,0,1-2.322.1h-.877V4.466h.715ZM69.815,11.352a15.277,15.277,0,0,0,.487,4.5A6.417,6.417,0,0,0,71.8,18.416a6.059,6.059,0,0,0,2.761,1.591,13.143,13.143,0,0,0,3.93.536,10.9,10.9,0,0,0,4.645-1.007,5.8,5.8,0,0,0,2.7-2.777,11.259,11.259,0,0,0,.812-4.6V4.839h1.591V0h-7.6V4.839h1.023v7.292A6.316,6.316,0,0,1,81.2,15.1a1.57,1.57,0,0,1-1.445.747,1.867,1.867,0,0,1-1.673-.877,8.043,8.043,0,0,1-.471-3.329v-6.8h.958V0H68.224V4.839h1.559v6.48ZM61.923,15.4H60.136V4.872h2.306v3.67h3.784V.032H46.2v8.51h3.784V4.872h2.322V15.4H50.571v4.839H61.906V15.4ZM32.3,15.8H30.645l.893-2.55H36.7l.763,2.55H35.7v4.433h10.54V15.4H44.757L40.892,4.872h1.624V.032H28V4.872h1.624L25.838,15.4H24.295v4.839H32.3Zm3.621-5.051H32.3l1.9-5.586ZM8.282,15.4H6.5V8.282l8.51,12.212h6.658V4.872h1.754V.032H15.265V4.872h1.64v5.716L9.565.032H0V4.872H1.77V15.4H0v4.839H8.3V15.4Z" transform="translate(73.242 21.534)" fill="#f7eee5"/><path d="M157.689,12.456v-.309h-5.132v3.232h-4.174V5.457H150.3V.016H138.136v5.44h1.819v9.923h-1.819v5.44h19.845V12.131h-.309v.309h-.308V20.2H138.737V15.98h1.819V4.839h-1.819V.617h10.929V4.839H147.75V15.98h5.392V12.748h4.515V12.44h0ZM123.13,16.094v-.309h-1.218l.666-1.933H127.3l.585,1.933h-1.656v5.034h11.157v-5.44h-1.575l-3.638-9.923h1.494V.016H118.535v5.44h1.494l-3.573,9.923h-1.624v5.44h8.607V15.785h-.309v.309h-.309v4.125h-7.389V16h1.445l4.011-11.141h-1.754V.633h13.917V4.856H131.3L135.392,16h1.4v4.222h-9.939V16.4h1.884l-.958-3.151h-5.619l-1.1,3.151h2.1v-.309h0Zm3.622-5.051v-.309h-3.183l1.462-4.287,1.445,4.693.292-.1v0l.292-.1-2-6.5-2.339,6.886h4.466l-.114-.39-.292.1Zm-25.074,4.645v-.309H100.46V12.57h2l4.4,8.25h7.763v-5.44h-1.575l-2.7-4.466-.26.162.13.276a5.414,5.414,0,0,0,2.274-1.965,5.538,5.538,0,0,0,.861-3,5.651,5.651,0,0,0-1.413-3.833A6.458,6.458,0,0,0,108.336.487a15.442,15.442,0,0,0-1.689-.26c-.617-.065-1.332-.114-2.176-.146S102.7.032,101.71.032H90.424v5.44h1.64V15.4h-1.64v5.44h11.6V15.4h-.309V15.7H101.4v4.531H91.024V16.012h1.64V4.872h-1.64V.65h10.67q1.486,0,2.728.049,1.267.049,2.144.146c.585.065,1.137.146,1.624.244a5.837,5.837,0,0,1,3.28,1.868,5.028,5.028,0,0,1,1.267,3.427,4.913,4.913,0,0,1-.763,2.68,4.58,4.58,0,0,1-2,1.738l-.309.146,3.053,5.067h1.315v4.222h-6.788l-4.4-8.25H99.875v4.027h1.835V15.7h0Zm-.812-10.929v.309a18.7,18.7,0,0,1,2.387.1,1.694,1.694,0,0,1,.974.487,1.376,1.376,0,0,1,.374,1.039,1.394,1.394,0,0,1-.357,1.023,1.483,1.483,0,0,1-.926.487,16.6,16.6,0,0,1-2.274.1h-.568V5.067h.406V4.45H99.859V8.916h1.169A15.491,15.491,0,0,0,103.4,8.8a2.288,2.288,0,0,0,1.283-.666,1.988,1.988,0,0,0,.536-1.445,2.054,2.054,0,0,0-.536-1.462,2.1,2.1,0,0,0-1.315-.666,21.375,21.375,0,0,0-2.485-.1v.309ZM70.14,11.644h-.309a15.58,15.58,0,0,0,.5,4.6,6.789,6.789,0,0,0,1.559,2.68,6.341,6.341,0,0,0,2.891,1.673,13.271,13.271,0,0,0,4.027.552A10.134,10.134,0,0,0,83.6,20.1a6.264,6.264,0,0,0,2.842-2.923,11.419,11.419,0,0,0,.844-4.71V5.457h1.592V.016h-8.2v5.44H81.7V12.44a6.242,6.242,0,0,1-.406,2.809,1.279,1.279,0,0,1-1.186.6,1.4,1.4,0,0,1-1.4-.715,7.739,7.739,0,0,1-.422-3.183V5.44h.958V0H68.3V5.44h1.559v6.171h.617V4.823H68.922V.6H78.65V4.823h-.958v7.113a8.212,8.212,0,0,0,.5,3.475,2.038,2.038,0,0,0,1.933,1.039,1.891,1.891,0,0,0,1.721-.893,6.593,6.593,0,0,0,.487-3.134v-7.6H81.313V.6H88.3V4.823H86.7v7.633a11.129,11.129,0,0,1-.78,4.466,5.658,5.658,0,0,1-2.566,2.631,9.754,9.754,0,0,1-4.5.974,13.06,13.06,0,0,1-3.849-.52,5.926,5.926,0,0,1-2.631-1.51,6.158,6.158,0,0,1-1.429-2.452,15.007,15.007,0,0,1-.487-4.4h-.309Zm-7.893,4.044v-.309H60.77V5.457h1.705v3.67h4.4V0H46.235V9.127h4.4V5.457h1.705v9.923H50.6v5.44H62.556v-5.44h-.309v.309h-.309v4.531H51.2V16h1.754V4.856H50.019v3.67H46.836V.633H66.259V8.526H63.076V4.856H60.152V16h2.095v-.309h0Zm-29.621.406v-.309H31.408l.666-1.933H36.8l.585,1.933H35.728v5.034H46.884v-5.44H45.309L41.671,5.457h1.494V.016H28.03v5.44h1.494l-3.573,9.923H24.327v5.44h8.607V15.785h-.309v.309h-.309v4.125H24.928V16h1.445L30.385,4.856H28.631V.633H42.548V4.856H40.794L44.887,16h1.4v4.222H36.345V16.4h1.884l-.958-3.151H31.651l-1.1,3.151h2.095v-.309h0Zm3.621-5.051v-.309h-3.2L34.51,6.447l1.445,4.693.292-.1v0l.292-.1-2-6.5L32.2,11.335H36.67l-.13-.39ZM8.607,15.688v-.309H7.129V9.549L15.168,21.1h7.113V5.473h1.754V.032H15.282v5.44h1.64v4.45L10.036.032H0v5.44H1.77V15.4H0v5.44H8.9V15.4H8.591V15.7H8.282v4.531H.6V16.012h1.77V4.872H.6V.65H9.711l7.811,11.238v-7h-1.64V.666h7.535V4.888H21.664V20.511H15.477L6.5,7.633v8.4H8.591V15.72h0Z" transform="translate(72.917 21.242)" fill="#3d342d"/><path d="M148.448,12.635a5.18,5.18,0,0,0,3.167,1.039,4.481,4.481,0,0,0,3.118-1.169,3.683,3.683,0,0,0,1.234-2.826,3.184,3.184,0,0,0-.52-2.014,4.325,4.325,0,0,0-.568-.812,3.347,3.347,0,0,0-.682-.617,25.542,25.542,0,0,0-2.615-1.413,12.535,12.535,0,0,1-1.721-.926.712.712,0,0,1-.276-.6q0-.828.974-.828a1.959,1.959,0,0,1,1.916,1.559h2.956V.26h-3v.812a4.485,4.485,0,0,0-2.956-.991,4.282,4.282,0,0,0-2.939,1.039,3.643,3.643,0,0,0-1.2,2.891,2.516,2.516,0,0,0,.5,1.884,4.279,4.279,0,0,0,1.218,1.348,14.922,14.922,0,0,0,2.387,1.267,8.894,8.894,0,0,1,1.689.893.915.915,0,0,1,.374.747c0,.568-.357.861-1.072.861a2.307,2.307,0,0,1-2.014-1.738h-2.988v4.255h2.988v-.861Zm-7.454-2.306h-1.169v-6.9h1.51v2.4h2.485V.244H130.682V5.83h2.485v-2.4h1.527v6.9h-1.137V13.5h7.438V10.329Zm-21.631,0h-1.169V5.668l5.587,8.006h4.368V3.427H129.3V.26h-5.343V3.427h1.072V7.178L120.207.26h-6.269V3.427h1.169v6.9h-1.169V13.5h5.44V10.329Zm-7.178-1.072h-3.475v1.072h-3V8.152h2.615v-2.7h-2.615V3.41h3V4.482h3.475V.244H99.534V3.41h1.056v6.9H99.566v3.167H112.2V9.24ZM97.959,10.329h-1.2v-6.9h1.2V.26H90.407V3.427h1.218v6.9H90.407V13.5h7.552ZM83.8,13.268a6.142,6.142,0,0,0,2.387-.974,5.5,5.5,0,0,0,1.835-2.16A6.752,6.752,0,0,0,88.751,7a4.707,4.707,0,0,0-.179-1.64,6.248,6.248,0,0,0-.52-1.462,5.954,5.954,0,0,0-1.9-2.274,6.632,6.632,0,0,0-2.6-1.088,19.128,19.128,0,0,0-3.54-.26h-6.35V3.443H74.7v6.9H73.664v3.167h6.155a25.737,25.737,0,0,0,3.979-.227ZM80.014,3.427a3.511,3.511,0,0,1,2.111.471,2.4,2.4,0,0,1,.844,1.332A6.989,6.989,0,0,1,83.2,6.967a4.94,4.94,0,0,1-.536,2.42c-.357.65-1.153.958-2.355.958h-.487v-6.9h.195Zm-8.461,5.83H68.077v1.072h-3V8.152h2.615v-2.7H65.073V3.41h3V4.482h3.475V.244H58.9V3.41h1.056v6.9H58.934v3.167H71.569V9.24ZM49.434,10.329H48.427V8.087h1.624L52.942,13.5h4.775V10.329h-.958L54.923,7.292a3.165,3.165,0,0,0,1.4-1.218,3.389,3.389,0,0,0,.536-1.868,4.019,4.019,0,0,0-.877-2.387A4,4,0,0,0,53.721.536,9.657,9.657,0,0,0,52.633.374c-.39-.049-.861-.065-1.413-.1-.552-.016-1.153-.032-1.8-.032H42.224V3.41H43.3v6.9H42.224v3.167h7.194V10.312ZM48.9,3.151a12.154,12.154,0,0,1,1.608.065,1.313,1.313,0,0,1,.747.374,1.132,1.132,0,0,1,.292.812,1.106,1.106,0,0,1-.292.812,1.142,1.142,0,0,1-.731.373A10.591,10.591,0,0,1,49,5.651h-.568V3.134H48.9ZM34.006,10.718a2.155,2.155,0,0,1-1.8-.8,5.084,5.084,0,0,1-.617-2.956,5.5,5.5,0,0,1,.585-3,2.1,2.1,0,0,1,1.851-.812,2.264,2.264,0,0,1,1.559.438,3.1,3.1,0,0,1,1.088,1.3h3.2V.26h-3.2v.926A5.7,5.7,0,0,0,32.837,0a7.555,7.555,0,0,0-4.953,1.9,6.478,6.478,0,0,0-2.046,4.986,5.469,5.469,0,0,0,1.007,3.686,5.588,5.588,0,0,0,2.842,2.4,10.885,10.885,0,0,0,4.06.747,6.727,6.727,0,0,0,2.826-.471,5.6,5.6,0,0,0,2.241-1.51,5.273,5.273,0,0,0,1.234-2.062,12.2,12.2,0,0,0,.309-3.232H34.428V8.964h1.348a1.583,1.583,0,0,1-1.786,1.786Zm-19.683-.406H13.154V5.651l5.587,8.006h4.369V3.41h1.153V.244H18.919V3.41h1.072V7.162L15.168.244H8.9V3.41h1.169v6.9H8.9v3.167h5.44V10.312Zm-6.772,0H6.35V3.41h1.2V.244H0V3.41H1.218v6.9H0v3.167H7.552Z" transform="translate(73.631 46.478)" fill="#f7eee5"/><path d="M148.757,12.976l-.179.244a5.43,5.43,0,0,0,3.345,1.088,4.707,4.707,0,0,0,3.329-1.25,4.024,4.024,0,0,0,1.332-3.037,4.4,4.4,0,0,0-.568-2.176,4.965,4.965,0,0,0-.617-.861,3.5,3.5,0,0,0-.747-.666A29.076,29.076,0,0,0,152,4.872a15.233,15.233,0,0,1-1.673-.893c-.114-.081-.146-.162-.162-.357.033-.406.1-.471.666-.52.8,0,1.283.39,1.64,1.364l.065.211h3.492V.292h-3.605V1.413h.309l.195-.244A4.8,4.8,0,0,0,149.78.114a4.676,4.676,0,0,0-3.134,1.1,3.858,3.858,0,0,0-1.3,3.118,3.853,3.853,0,0,0,.552,2.03,4.532,4.532,0,0,0,1.315,1.445,16.265,16.265,0,0,0,2.436,1.3,9.017,9.017,0,0,1,1.624.861.672.672,0,0,1,.26.5c-.033.406-.114.5-.763.552-.844,0-1.364-.438-1.721-1.527l-.065-.211h-3.508v4.856h3.589V12.976h-.309l-.179.244.179-.244h-.308v.568h-2.371V9.906h2.68V9.6l-.292.1a2.365,2.365,0,0,0,2.306,1.949,1.621,1.621,0,0,0,.991-.276,1.05,1.05,0,0,0,.373-.877,1.2,1.2,0,0,0-.487-.974,8.648,8.648,0,0,0-1.754-.942,16.173,16.173,0,0,1-2.322-1.234,3.878,3.878,0,0,1-1.137-1.25,3.289,3.289,0,0,1-.455-1.721,3.31,3.31,0,0,1,1.088-2.647A3.917,3.917,0,0,1,149.8.763a4.171,4.171,0,0,1,2.761.926l.5.406V.926h2.387V4.092H152.8V4.4l.292-.1a2.289,2.289,0,0,0-2.209-1.77,1.457,1.457,0,0,0-.926.276,1.1,1.1,0,0,0-.357.861.977.977,0,0,0,.406.844,12.141,12.141,0,0,0,1.77.942,27.019,27.019,0,0,1,2.566,1.4,2.768,2.768,0,0,1,.617.568,4.645,4.645,0,0,1,.536.763,3.772,3.772,0,0,1,.487,1.868,3.412,3.412,0,0,1-1.137,2.6,4.049,4.049,0,0,1-2.923,1.088,4.949,4.949,0,0,1-2.988-.974l-.487-.357v.6h.308ZM141.3,10.67v-.309h-.861V4.06h.909v2.4h3.1V.276H130.714V6.463h3.1V4.06h.909v6.3h-1.153v3.784h8.055V10.361h-.309v.309h-.309v2.858H134.19V10.962h1.153V3.443h-2.127v2.4h-1.868V.877h12.521V5.846H142v-2.4h-2.127v7.519h1.478v-.309h0Zm-21.631,0v-.309h-.861V6.967l5.115,7.34h4.823V4.06H129.9V.276h-5.96V4.06h1.072V6.528L120.662.276h-6.74V4.06h1.169v6.3h-1.169v3.784h6.041V10.361h-.308v.309h-.309v2.858h-4.823V10.962h1.169V3.443h-1.169V.877h5.814l5.278,7.6V3.443h-1.072V.877h4.726V3.443h-1.153V13.69h-3.9l-6.041-8.672v5.944h1.478v-.309h0ZM112.493,9.6V9.289H108.71v1.072h-2.4V8.8h2.615V5.489h-2.615V4.06h2.4V5.132H112.8V.276H99.534V4.06h1.056v6.3H99.55v3.784H112.8V9.289h-.309V9.6h-.309v3.93H100.151V10.962h1.023V3.443h-1.056V.877h12.05V4.5H109.31V3.427h-3.622V6.074H108.3V8.152h-2.615v2.777h3.622V9.858h3.167V9.549h0ZM98.267,10.67v-.309h-.909V4.06h1.218V.276H90.407V4.06h1.218v6.3H90.407v3.784h8.169V10.361h-.309v.309h-.309v2.858H91.024V10.962h1.218V3.443H91.024V.877h6.934V3.443H96.741v7.519h1.51v-.309h0ZM84.106,13.609l.049.309a6.377,6.377,0,0,0,2.5-1.023,5.945,5.945,0,0,0,1.933-2.274,6.973,6.973,0,0,0,.763-3.28,7.318,7.318,0,0,0-.195-1.705A6.836,6.836,0,0,0,88.6,4.109a6.259,6.259,0,0,0-2-2.387A7.221,7.221,0,0,0,83.9.585,19.832,19.832,0,0,0,80.29.309H73.648V4.092h1.039v6.3H73.648v3.784h6.463a26.78,26.78,0,0,0,4.027-.227l-.049-.309-.049-.309a24.874,24.874,0,0,1-3.93.227H74.249V10.994h1.039V3.475H74.249V.909H80.29a20.044,20.044,0,0,1,3.492.26,6.432,6.432,0,0,1,2.485,1.056,5.328,5.328,0,0,1,1.8,2.144,5.973,5.973,0,0,1,.5,1.4,7.1,7.1,0,0,1,.179,1.575,6.4,6.4,0,0,1-.7,3,5.328,5.328,0,0,1-1.738,2.046,5.6,5.6,0,0,1-2.257.926l.049.309ZM80.322,3.768v.309a3.287,3.287,0,0,1,1.933.406,2.141,2.141,0,0,1,.731,1.169A6.26,6.26,0,0,1,83.2,7.308a4.818,4.818,0,0,1-.487,2.274c-.276.5-.926.8-2.079.812h-.179V3.8h-.309v.309h.195V3.492h-.5v7.519h.8A2.767,2.767,0,0,0,83.245,9.89a5.212,5.212,0,0,0,.568-2.566,6.913,6.913,0,0,0-.244-1.819,2.861,2.861,0,0,0-.942-1.494,3.839,3.839,0,0,0-2.306-.536v.292ZM71.861,9.6V9.289H68.077v1.072h-2.4V8.8h2.615V5.489H65.674V4.06h2.4V5.132H72.17V.276H58.9V4.06h1.056v6.3H58.918v3.784H72.17V9.289h-.309V9.6h-.308v3.93H59.519V10.962h1.023V3.443H59.487V.877h12.05V4.5H68.678V3.427H65.057V6.074h2.615V8.152H65.057v2.777h3.621V9.858h3.167V9.549h0ZM49.743,10.67v-.309h-.7V8.737h1.137l2.891,5.408h5.262V10.361H57.245L55.508,7.487l-.26.162.13.276A3.37,3.37,0,0,0,56.9,6.593a3.7,3.7,0,0,0,.585-2.03,3.921,3.921,0,0,0-.942-2.582A4.325,4.325,0,0,0,54.127.6c-.341-.065-.715-.13-1.121-.179s-.877-.081-1.445-.1C51.009.309,50.392.292,49.743.292h-7.5V4.076h1.072v6.3H42.24v3.784h7.811V10.377h-.309v.309h-.309v2.858H42.841V10.978h1.072V3.459H42.841V.893h6.9c.65,0,1.234,0,1.786.032.552.016,1.023.049,1.4.1a9.049,9.049,0,0,1,1.056.162,3.705,3.705,0,0,1,2.1,1.185,3.187,3.187,0,0,1,.8,2.176,3.116,3.116,0,0,1-.487,1.705,2.967,2.967,0,0,1-1.267,1.1l-.309.146L56.9,10.978h.812v2.566H53.429L50.538,8.136H48.427v2.842h1.3V10.67h.016Zm-.536-7.178V3.8a10.993,10.993,0,0,1,1.559.065.88.88,0,0,1,.568.292.791.791,0,0,1,.211.617.748.748,0,0,1-.211.585.923.923,0,0,1-.552.292,12.3,12.3,0,0,1-1.478.065h-.26V3.8h.162V3.183h-.78V6.317H49.3a11.734,11.734,0,0,0,1.575-.065,1.507,1.507,0,0,0,.893-.471,1.4,1.4,0,0,0,.373-1.023,1.463,1.463,0,0,0-.373-1.039,1.545,1.545,0,0,0-.926-.471,12.91,12.91,0,0,0-1.64-.065ZM34.315,11.059v-.309a1.8,1.8,0,0,1-1.559-.682A4.948,4.948,0,0,1,32.2,7.292a5.475,5.475,0,0,1,.52-2.826,1.848,1.848,0,0,1,1.608-.7,2.435,2.435,0,0,1,1.4.39A2.717,2.717,0,0,1,36.7,5.327l.081.179H40.47V.26h-3.8V1.494h.309l.195-.227A5.975,5.975,0,0,0,33.129,0a7.308,7.308,0,0,0-5.164,1.981,6.728,6.728,0,0,0-2.127,5.213,7.251,7.251,0,0,0,1.056,3.849,6.02,6.02,0,0,0,2.988,2.533,11.1,11.1,0,0,0,4.174.763,8.627,8.627,0,0,0,2.923-.487,5.783,5.783,0,0,0,2.371-1.591,5.668,5.668,0,0,0,1.3-2.192,13.164,13.164,0,0,0,.309-3.313V6.447H34.428V9.565h1.656V9.257h-.309c-.049,1.088-.406,1.445-1.478,1.478v.617a2.12,2.12,0,0,0,1.559-.536,2.12,2.12,0,0,0,.536-1.559V8.948H35.046v-1.9h5.619V6.74h-.309a12.277,12.277,0,0,1-.292,3.151,5.259,5.259,0,0,1-1.169,1.949,5.091,5.091,0,0,1-2.111,1.429,7.8,7.8,0,0,1-2.712.455,10.482,10.482,0,0,1-3.946-.715,5.3,5.3,0,0,1-2.7-2.274,6.738,6.738,0,0,1-.974-3.54A6.194,6.194,0,0,1,28.4,2.42,6.706,6.706,0,0,1,33.146.6a5.413,5.413,0,0,1,3.638,1.121l.5.438V.877h2.582V4.888H36.978V5.2l.276-.13a3.337,3.337,0,0,0-1.2-1.413,3.147,3.147,0,0,0-1.738-.487,2.46,2.46,0,0,0-2.095.942,5.737,5.737,0,0,0-.633,3.183,5.409,5.409,0,0,0,.666,3.151,2.492,2.492,0,0,0,2.046.909v-.309Zm-19.683-.406v-.309h-.861V6.951l5.116,7.34H23.71V4.044h1.153V.26H18.9V4.044h1.072V6.512L15.623.26H8.883V4.044h1.169v6.3H8.883v3.784h6.041V10.345h-.309v.309h-.309v2.858H9.484V10.946h1.169V3.427H9.484V.861H15.3l5.278,7.6V3.427H19.5V.861H24.23V3.427H23.077V13.674h-3.9L13.138,5v5.944h1.478v-.309h0Zm-6.772,0v-.309H6.951v-6.3H8.169V.26H0V4.044H1.218v6.3H0v3.784H8.169V10.345H7.86v.309H7.552v2.858H.617V10.946H1.835V3.427H.617V.861H7.552V3.427H6.334v7.519h1.51v-.309h0Z" transform="translate(73.323 46.137)" fill="#3d342d"/></g></svg>