<svg xmlns="http://www.w3.org/2000/svg" width="191.683" height="191.977" viewBox="0 0 191.683 191.977"><g transform="matrix(0.407, 0.914, -0.914, 0.407, 132.469, 0)"><path d="M78.928,2.484h0A10,10,0,0,1,94.464,5.84h0a9.991,9.991,0,0,0,11.874,5.332h0a10.007,10.007,0,0,1,12.828,9.386h0a9.988,9.988,0,0,0,8.671,9.693h0a10,10,0,0,1,7.9,13.782h0a9.984,9.984,0,0,0,3.986,12.385h0a10.018,10.018,0,0,1,1.618,15.809h0a10,10,0,0,0-1.4,12.947h0a10,10,0,0,1-4.957,15.093h0a10.007,10.007,0,0,0-6.542,11.243h0a10,10,0,0,1-10.664,11.771h0a10,10,0,0,0-10.545,7.615h0a10,10,0,0,1-14.531,6.422h0a10.019,10.019,0,0,0-12.742,2.658h0a10,10,0,0,1-15.894-.051h0a9.988,9.988,0,0,0-12.725-2.743h0a10,10,0,0,1-14.5-6.508h0a10,10,0,0,0-10.511-7.683h0a10,10,0,0,1-10.6-11.84h0A10.006,10.006,0,0,0,9.271,99.859h0A10,10,0,0,1,4.416,84.731h0A10.015,10.015,0,0,0,3.1,71.784h0a10,10,0,0,1,1.7-15.792h0A9.978,9.978,0,0,0,8.862,43.625h0a9.995,9.995,0,0,1,7.99-13.731h0a10,10,0,0,0,8.739-9.642h0a10,10,0,0,1,12.879-9.3h0A9.983,9.983,0,0,0,50.377,5.687h0A10,10,0,0,1,65.93,2.433h0a10,10,0,0,0,13.015.034Z" transform="translate(0.61 0.565)" fill="#f9ad49"/><path d="M79.538,3.049l.341.46h0a9.265,9.265,0,0,1,6.1-2.266,9.415,9.415,0,0,1,8.552,5.417h0l.511-.256-.511.238a10.571,10.571,0,0,0,9.557,6.065,10.6,10.6,0,0,0,2.981-.426l-.153-.545V12.3h.153a8.728,8.728,0,0,1,2.675-.409,9.418,9.418,0,0,1,9.4,9.233h0a10.586,10.586,0,0,0,9.165,10.255h.068v-.562l-.068.562a9.433,9.433,0,0,1,8.194,9.352,9.314,9.314,0,0,1-.75,3.646l.528.221-.511-.256h0v.017h0A10.611,10.611,0,0,0,140,57.477h.034c0,.017.034.034.034.034l.221-.528-.307.494a9.435,9.435,0,0,1,1.533,14.906l.392.409-.29-.494h0l-.051.034-.051.051a10.528,10.528,0,0,0-1.482,13.662l.068.1.1.068.29-.494-.477.324a9.431,9.431,0,0,1-4.685,14.242h-.034l-.034.034.256.511-.187-.545a10.617,10.617,0,0,0-6.916,11.908l.562-.1h-.562v.1a8.584,8.584,0,0,1,.17,1.738,9.422,9.422,0,0,1-9.4,9.4,6.3,6.3,0,0,1-.8-.034h-.034v.562l.051-.562c-.29-.017-.6-.034-.886-.034a10.573,10.573,0,0,0-10.272,8.092l.562.136-.528-.187h0v.068a9.417,9.417,0,0,1-13.713,6.048h0l-.273.511.273-.494A10.546,10.546,0,0,0,80.1,140.252h0a9.434,9.434,0,0,1-14.991-.051h0l-.443.358.46-.341a10.574,10.574,0,0,0-8.415-4.174,10.447,10.447,0,0,0-5.025,1.278l.273.494-.238-.528h-.034a9.4,9.4,0,0,1-13.679-6.116l-.562.136.562-.1h0a10.559,10.559,0,0,0-10.289-8.16,6.563,6.563,0,0,0-.818.034l.051.562.119-.562H26.9a5.521,5.521,0,0,1-.75.034,9.451,9.451,0,0,1-9.421-9.421,9.211,9.211,0,0,1,.17-1.789l-.562-.1.562.119h0a11.274,11.274,0,0,0,.187-1.993,10.57,10.57,0,0,0-7.036-9.949l-.187.545L10.1,100h-.034A9.435,9.435,0,0,1,3.8,91.088a9.333,9.333,0,0,1,1.687-5.366L5.008,85.4l.409.409h0l.034-.034.034-.034a10.6,10.6,0,0,0,1.891-6.031,10.581,10.581,0,0,0-3.288-7.666l-.051-.051-.051-.034-.29.494.392-.409A9.419,9.419,0,0,1,5.707,57.154l-.29-.494.153.545h0l.068-.017.068-.034A10.573,10.573,0,0,0,10.8,48.108a10.448,10.448,0,0,0-.8-4.02l-.528.221L10,44.1h0a9.435,9.435,0,0,1,7.53-12.964l-.068-.562v.562h.068a10.569,10.569,0,0,0,9.233-10.2h0a9.438,9.438,0,0,1,9.4-9.165,9.645,9.645,0,0,1,2.743.409h0l.153-.545-.17.545a10.485,10.485,0,0,0,3.049.443,10.594,10.594,0,0,0,9.54-6.013l-.511-.238.511.256h0a9.419,9.419,0,0,1,14.65-3.083l.034.034.051.034.29-.494-.375.426a10.58,10.58,0,0,0,6.9,2.572,10.517,10.517,0,0,0,6.848-2.521L79.5,3.169l.341.46-.341-.46-.375-.426a9.43,9.43,0,0,1-6.116,2.249,9.475,9.475,0,0,1-6.167-2.283l-.034-.034-.051-.034-.29.494.375-.426A9.838,9.838,0,0,0,60,0a10.546,10.546,0,0,0-9.557,6.013l.511.238L50.442,6h0a9.42,9.42,0,0,1-8.5,5.366,9.443,9.443,0,0,1-2.726-.409h0l-.153.545.17-.545a10.711,10.711,0,0,0-3.066-.46A10.564,10.564,0,0,0,25.621,20.783h0a9.431,9.431,0,0,1-8.245,9.08l.068.562v-.562h-.068a10.578,10.578,0,0,0-8.45,14.531l.528-.221-.528.2h0a9.589,9.589,0,0,1,.715,3.594,9.437,9.437,0,0,1-4.548,8.075l.29.494L5.23,56h0l-.068.017-.068.034A10.6,10.6,0,0,0,3.288,72.775l.051.051.051.034.29-.494-.392.409a9.447,9.447,0,0,1,2.93,6.831,9.356,9.356,0,0,1-1.687,5.383l.477.324L4.6,84.9h0l-.034.034-.034.034A10.455,10.455,0,0,0,2.64,90.986a10.581,10.581,0,0,0,7.036,9.983l.187-.545-.238.528h.034a9.439,9.439,0,0,1,6.269,8.892,9.041,9.041,0,0,1-.17,1.772l.562.1-.562-.119h0a10.154,10.154,0,0,0-.187,2.01,10.578,10.578,0,0,0,10.562,10.545,6.843,6.843,0,0,0,.835-.034l-.051-.562-.119.562h.17c.238-.017.494-.034.733-.034a9.445,9.445,0,0,1,9.182,7.274l.562-.136-.562.1h0a10.569,10.569,0,0,0,15.332,6.9l-.273-.494.238.528h.034a9.226,9.226,0,0,1,4.48-1.141,9.437,9.437,0,0,1,7.513,3.731h0l.443-.358-.46.341a10.576,10.576,0,0,0,16.8.051h0A9.44,9.44,0,0,1,93,138.361h0l.273-.511-.273.494a10.561,10.561,0,0,0,15.366-6.78l-.562-.136.528.187h0v-.068a9.46,9.46,0,0,1,9.165-7.223,6.031,6.031,0,0,1,.784.034h.034V123.8l-.051.562c.307.017.6.034.9.034a10.575,10.575,0,0,0,10.545-10.545,10.957,10.957,0,0,0-.17-1.942l-.562.1h.562v-.1a8.373,8.373,0,0,1-.17-1.7,9.413,9.413,0,0,1,6.32-8.892h.034l.034-.034-.256-.511.187.545a10.569,10.569,0,0,0,5.23-15.962l-.068-.1-.1-.068-.29.494.477-.324a9.454,9.454,0,0,1,1.312-12.214l-.392-.409.29.494h0l.051-.034.051-.051a10.545,10.545,0,0,0-1.7-16.695h-.034c0-.017-.034-.034-.034-.034l-.221.528.307-.494a9.437,9.437,0,0,1-3.765-11.686l-.528-.221.511.256h0v-.017h0a10.783,10.783,0,0,0,.835-4.106,10.582,10.582,0,0,0-9.182-10.477h-.068v.562l.068-.562a9.407,9.407,0,0,1-8.177-9.148h0a10.589,10.589,0,0,0-10.545-10.358,10.231,10.231,0,0,0-3,.443l.153.545v-.562h-.153a8.547,8.547,0,0,1-2.658.409A9.451,9.451,0,0,1,95.517,6.1h0l-.511.256.511-.238A10.435,10.435,0,0,0,85.995.085a10.547,10.547,0,0,0-6.831,2.521l.375.426-.341-.46h0l.375.443Z" transform="translate(0 0)" fill="#3d342d"/><path d="M91.752,23.986A15.451,15.451,0,0,0,102.723,27.9c4.514,0,8.364-1.38,11.107-4.157a13.487,13.487,0,0,0,4.105-9.8c0-3.748-.341-3.543-1.005-5.179a14.715,14.715,0,0,0-2.981-4.531C111.309,1.414,107.561,0,102.74,0s-2.163.085-3.169.238A16.351,16.351,0,0,0,96.778.92a12.907,12.907,0,0,0-2.5,1.192,13.849,13.849,0,0,0-5.06,5.281,14.05,14.05,0,0,0-1.652,6.525,13.056,13.056,0,0,0,4.225,10.051ZM100.1,7.836A2.815,2.815,0,0,1,102.706,6.3a2.859,2.859,0,0,1,2.658,1.584c.562,1.073.852,3.083.852,6.048s-.29,5.094-.869,6.116a2.848,2.848,0,0,1-2.64,1.533A2.752,2.752,0,0,1,100.1,20c-.579-1.039-.869-3.066-.869-6.065S99.521,8.858,100.1,7.836ZM80.492,21.022H78.363V16.746l6.78-9.761h1.687V.528H76.472V6.984h1.652l-3.475,5.5-2.862-5.5h1.6V.528H59.3V6.984h1.84l6.8,9.761v4.276H65.774v6.456H80.492Zm-48.04,2.964A15.451,15.451,0,0,0,43.423,27.9c4.514,0,8.364-1.38,11.107-4.157a13.487,13.487,0,0,0,4.106-9.8c0-3.748-.341-3.543-1.005-5.179a14.715,14.715,0,0,0-2.981-4.531C52.009,1.414,48.261,0,43.44,0s-2.163.085-3.169.238A16.352,16.352,0,0,0,37.478.92a12.907,12.907,0,0,0-2.5,1.192,13.849,13.849,0,0,0-5.059,5.281,14.05,14.05,0,0,0-1.652,6.525,13.056,13.056,0,0,0,4.225,10.051ZM40.8,7.836A2.815,2.815,0,0,1,43.406,6.3a2.859,2.859,0,0,1,2.658,1.584c.562,1.073.852,3.083.852,6.048s-.29,5.094-.869,6.116a2.848,2.848,0,0,1-2.64,1.533A2.752,2.752,0,0,1,40.8,20c-.579-1.039-.869-3.066-.869-6.065S40.221,8.858,40.8,7.836ZM21.192,21.022H19.063V16.746l6.78-9.761h1.686V.528H17.172V6.984h1.652l-3.475,5.5-2.862-5.5h1.6V.528H0V6.984H1.84l6.8,9.761v4.276H6.473v6.456H21.192Z" transform="translate(13.441 59.232)" fill="#f7eee5"/><path d="M92.178,24.446l-.29.307a15.786,15.786,0,0,0,11.26,4.02c4.736,0,8.586-1.431,11.4-4.293a13.869,13.869,0,0,0,4.225-10.1,13.709,13.709,0,0,0-1.039-5.332,15.382,15.382,0,0,0-3.066-4.668C111.922,1.448,108.055,0,103.132,0A21.909,21.909,0,0,0,99.9.238a17.794,17.794,0,0,0-2.879.7,12.443,12.443,0,0,0-2.589,1.244,14.149,14.149,0,0,0-6.9,12.18,13.542,13.542,0,0,0,4.361,10.375l.29-.307.29-.307a12.665,12.665,0,0,1-4.089-9.744,13.51,13.51,0,0,1,1.6-6.337,13.279,13.279,0,0,1,4.906-5.128,12.077,12.077,0,0,1,2.419-1.158,15.565,15.565,0,0,1,2.726-.664,20.3,20.3,0,0,1,3.117-.238c4.753,0,8.347,1.38,10.9,4.106a14.126,14.126,0,0,1,2.9,4.412,12.988,12.988,0,0,1,.971,5.008,13.049,13.049,0,0,1-3.986,9.506c-2.658,2.692-6.218,4.037-10.8,4.037-4.429,0-7.956-1.278-10.664-3.8l-.29.307ZM100.526,8.3l.375.2a2.4,2.4,0,0,1,2.249-1.312,2.307,2.307,0,0,1,2.266,1.363c.511.937.818,2.913.8,5.843,0,3.015-.307,5.025-.818,5.911a2.409,2.409,0,0,1-2.266,1.312,2.306,2.306,0,0,1-2.232-1.363c-.511-.9-.835-2.9-.818-5.86,0-3.015.307-5.025.818-5.894l-.375-.2-.375-.2c-.647,1.175-.92,3.237-.92,6.32,0,3.032.273,5.077.92,6.269a3.173,3.173,0,0,0,2.981,1.806,3.31,3.31,0,0,0,3-1.738c.647-1.192.92-3.254.92-6.337,0-2.981-.273-5.025-.9-6.252a3.43,3.43,0,0,0-6.013-.085l.375.2ZM80.918,21.482v-.426h-1.7V17.342L85.79,7.87h1.891V.562H76.472V7.87h1.295l-2.658,4.208-2.2-4.208H74.24V.562H59.3V7.87h2.044l6.593,9.472v3.714H65.774v7.308h15.57V21.056h-.426v.426h-.426v6.031H66.625V21.925h2.164V17.086l-7-10.051H60.152V1.448H73.371V7.036H71.48l3.526,6.78,4.276-6.78H77.289V1.448H86.8V7.036H85.313L78.329,17.086v4.838h2.555V21.5h0Zm-48.04,2.964-.29.307a15.786,15.786,0,0,0,11.26,4.02c4.736,0,8.586-1.431,11.4-4.293a13.869,13.869,0,0,0,4.225-10.1,13.71,13.71,0,0,0-1.039-5.332,15.382,15.382,0,0,0-3.066-4.668C52.622,1.448,48.755,0,43.832,0A21.909,21.909,0,0,0,40.6.238a17.794,17.794,0,0,0-2.879.7,12.443,12.443,0,0,0-2.589,1.244,14.149,14.149,0,0,0-6.9,12.18,13.542,13.542,0,0,0,4.361,10.375l.29-.307.29-.307a12.665,12.665,0,0,1-4.088-9.744,13.51,13.51,0,0,1,1.6-6.337,13.279,13.279,0,0,1,4.906-5.128,12.077,12.077,0,0,1,2.419-1.158,15.565,15.565,0,0,1,2.726-.664A20.3,20.3,0,0,1,43.849.852c4.753,0,8.347,1.38,10.9,4.106a14.126,14.126,0,0,1,2.9,4.412,12.989,12.989,0,0,1,.971,5.008,13.049,13.049,0,0,1-3.986,9.506c-2.658,2.692-6.218,4.037-10.8,4.037-4.429,0-7.956-1.278-10.664-3.8l-.29.307ZM41.226,8.3l.375.2a2.4,2.4,0,0,1,2.249-1.312,2.307,2.307,0,0,1,2.266,1.363c.511.937.818,2.913.8,5.843,0,3.015-.307,5.025-.818,5.911a2.409,2.409,0,0,1-2.266,1.312A2.306,2.306,0,0,1,41.6,20.255c-.511-.9-.835-2.9-.818-5.86,0-3.015.307-5.025.818-5.894l-.375-.2-.375-.2c-.647,1.175-.92,3.237-.92,6.32,0,3.032.273,5.077.92,6.269a3.173,3.173,0,0,0,2.981,1.806,3.31,3.31,0,0,0,3-1.738c.647-1.192.92-3.254.92-6.337,0-2.981-.273-5.025-.9-6.252a3.43,3.43,0,0,0-6.013-.085l.375.2ZM21.618,21.482v-.426h-1.7V17.342L26.49,7.87h1.891V.562H17.172V7.87h1.295l-2.658,4.208-2.2-4.208H14.94V.562H0V7.87H2.044l6.593,9.472v3.714H6.473v7.308h15.57V21.056h-.426v.426h-.426v6.031H7.325V21.925H9.489V17.086l-7-10.051H.852V1.448H14.071V7.036H12.18l3.526,6.78,4.276-6.78H17.989V1.448H27.5V7.036H26.013L19.029,17.086v4.838h2.555V21.5h0Z" transform="translate(13.015 58.772)" fill="#020202"/></g></svg>