<svg xmlns="http://www.w3.org/2000/svg" width="209.169" height="207.638" viewBox="0 0 209.169 207.638"><g transform="translate(0 53.781) rotate(-19)"><path d="M164.391,80.988c0,4.259-20.766,6.661-21.482,10.715-.733,4.174,17.955,13.509,16.541,17.41-1.448,3.969-21.771-.9-23.85,2.709-2.1,3.629,12.248,18.824,9.557,22.027s-20.136-8.3-23.338-5.6,5.128,21.856,1.482,23.969c-3.594,2.078-16.064-14.684-20.017-13.236-3.884,1.414-2.658,22.282-6.831,23.015-4.054.715-10-19.318-14.259-19.318s-10.2,20.034-14.259,19.318c-4.174-.733-2.93-21.6-6.831-23.015-3.969-1.448-16.422,15.332-20.017,13.236-3.629-2.1,4.685-21.277,1.482-23.969s-20.647,8.824-23.338,5.6c-2.692-3.2,11.669-18.381,9.557-22.027-2.078-3.594-22.419,1.261-23.85-2.709C3.526,105.229,22.214,95.877,21.482,91.72,20.766,87.666,0,85.264,0,81S20.766,74.344,21.482,70.29C22.214,66.116,3.526,56.781,4.94,52.9c1.448-3.969,21.771.9,23.85-2.709,2.1-3.629-12.248-18.824-9.557-22.027s20.136,8.3,23.338,5.6S37.444,11.909,41.089,9.8c3.594-2.078,16.064,14.684,20.017,13.236C64.99,21.62,63.763.751,67.937.019c4.054-.715,10,19.318,14.259,19.318S92.4-.7,96.454.019c4.174.733,2.93,21.6,6.831,23.015C107.255,24.482,119.708,7.7,123.3,9.8c3.629,2.1-4.685,21.277-1.482,23.969s20.647-8.824,23.338-5.6c2.692,3.2-11.669,18.381-9.557,22.027,2.078,3.594,22.419-1.261,23.85,2.709,1.414,3.884-17.274,13.236-16.541,17.393.715,4.054,21.482,6.456,21.482,10.715Z" transform="translate(0.409 0.373)" fill="#4182c4"/><path d="M164.8,81.361h-.392a1.694,1.694,0,0,1-.75,1.21,16.578,16.578,0,0,1-4.685,2.283c-3.083,1.107-6.9,2.146-10.034,3.254a25.506,25.506,0,0,0-4.02,1.738,6.4,6.4,0,0,0-1.312.971,2.278,2.278,0,0,0-.664,1.175,1.876,1.876,0,0,0-.034.307,3.466,3.466,0,0,0,.784,1.959,21.917,21.917,0,0,0,3.9,3.8c2.47,2.01,5.5,4.174,7.887,6.133a25.238,25.238,0,0,1,2.947,2.76,3.707,3.707,0,0,1,1.107,2.061.825.825,0,0,1-.051.307,1.259,1.259,0,0,1-.562.613,5.9,5.9,0,0,1-2.146.613,26.862,26.862,0,0,1-3.288.17c-3.475,0-7.8-.392-11.329-.392a22.039,22.039,0,0,0-4.071.29,3.406,3.406,0,0,0-2.436,1.329,2.179,2.179,0,0,0-.273,1.107,10.581,10.581,0,0,0,1.635,4.531c1.431,2.64,3.577,5.758,5.349,8.62a44.419,44.419,0,0,1,2.249,3.969,7.817,7.817,0,0,1,.9,2.913,1.232,1.232,0,0,1-.238.818,1.644,1.644,0,0,1-1.329.426,14.682,14.682,0,0,1-4.31-1.005c-2.606-.92-5.707-2.3-8.586-3.475-2.879-1.158-5.519-2.112-7.359-2.112a2.588,2.588,0,0,0-1.721.511,2.28,2.28,0,0,0-.7,1.192,6.388,6.388,0,0,0-.187,1.686,49.253,49.253,0,0,0,1.6,9.4,49.505,49.505,0,0,1,1.584,9.25,5.154,5.154,0,0,1-.2,1.6,1.365,1.365,0,0,1-.545.784.971.971,0,0,1-.528.119,3.963,3.963,0,0,1-1.635-.528c-2.317-1.244-5.656-4.463-8.841-7.376a52.266,52.266,0,0,0-4.565-3.867,7.3,7.3,0,0,0-3.748-1.738,1.706,1.706,0,0,0-.664.119,2.891,2.891,0,0,0-1.465,1.567,21.006,21.006,0,0,0-1.414,5.485c-.528,3.339-.9,7.274-1.465,10.426a20.833,20.833,0,0,1-1.039,3.935,4.584,4.584,0,0,1-.664,1.141,1.341,1.341,0,0,1-.7.443h-.153a2.009,2.009,0,0,1-1.329-.715,20.351,20.351,0,0,1-3-4.361c-1.584-2.845-3.254-6.354-4.855-9.182a21.237,21.237,0,0,0-2.4-3.543,5.821,5.821,0,0,0-1.192-1.09,2.293,2.293,0,0,0-1.278-.426,2.87,2.87,0,0,0-1.908.937,19.517,19.517,0,0,0-3.186,4.548c-1.618,2.879-3.271,6.388-4.855,9.165a22.892,22.892,0,0,1-2.266,3.424,5.073,5.073,0,0,1-1.005.954,1.529,1.529,0,0,1-.818.307H68.4c-.358-.068-.715-.358-1.056-.971a16.216,16.216,0,0,1-1.431-5.008c-.562-3.22-.92-7.172-1.465-10.443a24.1,24.1,0,0,0-1.022-4.259,3.575,3.575,0,0,0-1.789-2.334,1.765,1.765,0,0,0-.664-.119,4.41,4.41,0,0,0-2.027.63c-2.521,1.346-5.843,4.583-9.012,7.5-1.584,1.448-3.135,2.811-4.48,3.816A6.621,6.621,0,0,1,42.2,152.3a1.209,1.209,0,0,1-.528-.119,1.365,1.365,0,0,1-.545-.784,5.23,5.23,0,0,1-.2-1.6,49.734,49.734,0,0,1,1.584-9.25,49.47,49.47,0,0,0,1.6-9.4,6.388,6.388,0,0,0-.187-1.687,2.4,2.4,0,0,0-.7-1.192,2.588,2.588,0,0,0-1.721-.511,14.823,14.823,0,0,0-4.565,1.056c-2.658.937-5.758,2.334-8.62,3.475-2.845,1.158-5.485,2.061-7.053,2.061a1.644,1.644,0,0,1-1.329-.426,1.232,1.232,0,0,1-.238-.818,10.629,10.629,0,0,1,1.533-4.157c1.414-2.589,3.543-5.707,5.315-8.569a43.15,43.15,0,0,0,2.283-4.054,8.308,8.308,0,0,0,.971-3.254,2.058,2.058,0,0,0-.273-1.107,3.527,3.527,0,0,0-2.436-1.329,22.038,22.038,0,0,0-4.071-.29c-3.526,0-7.853.392-11.329.392a20.447,20.447,0,0,1-4.157-.324,4.4,4.4,0,0,1-1.278-.46,1.259,1.259,0,0,1-.562-.613.965.965,0,0,1-.051-.307,2.726,2.726,0,0,1,.647-1.482,21.552,21.552,0,0,1,3.765-3.611c2.453-1.993,5.468-4.14,7.887-6.133a24.146,24.146,0,0,0,3.049-2.879,4.435,4.435,0,0,0,1.295-2.606.943.943,0,0,0-.034-.307,2.9,2.9,0,0,0-1.278-1.7,21.786,21.786,0,0,0-5.162-2.351C12.623,86.846,8.79,85.807,5.792,84.7a19.488,19.488,0,0,1-3.7-1.721A4.054,4.054,0,0,1,1.09,82.11a1.2,1.2,0,0,1-.307-.767,1.694,1.694,0,0,1,.75-1.21,16.577,16.577,0,0,1,4.685-2.283c3.083-1.107,6.9-2.146,10.034-3.254a25.506,25.506,0,0,0,4.02-1.738,6.4,6.4,0,0,0,1.312-.971,2.278,2.278,0,0,0,.664-1.175,1.877,1.877,0,0,0,.034-.307,3.466,3.466,0,0,0-.784-1.959,21.918,21.918,0,0,0-3.9-3.8c-2.47-2.01-5.5-4.174-7.887-6.133a25.238,25.238,0,0,1-2.947-2.76A3.707,3.707,0,0,1,5.656,53.7a.825.825,0,0,1,.051-.307,1.259,1.259,0,0,1,.562-.613,5.9,5.9,0,0,1,2.146-.613,26.86,26.86,0,0,1,3.288-.17c3.475,0,7.8.392,11.329.392a22.038,22.038,0,0,0,4.071-.29,3.406,3.406,0,0,0,2.436-1.329,2.179,2.179,0,0,0,.273-1.107,10.581,10.581,0,0,0-1.635-4.531c-1.431-2.64-3.577-5.758-5.349-8.62a44.417,44.417,0,0,1-2.249-3.969,7.817,7.817,0,0,1-.9-2.913,1.232,1.232,0,0,1,.238-.818,1.644,1.644,0,0,1,1.329-.426,14.683,14.683,0,0,1,4.31,1.005c2.606.92,5.707,2.3,8.586,3.475,2.879,1.158,5.519,2.112,7.359,2.112a2.588,2.588,0,0,0,1.721-.511,2.279,2.279,0,0,0,.7-1.192,6.388,6.388,0,0,0,.187-1.686,49.252,49.252,0,0,0-1.6-9.4,49.734,49.734,0,0,1-1.584-9.25,5.154,5.154,0,0,1,.2-1.6,1.365,1.365,0,0,1,.545-.784.971.971,0,0,1,.528-.119,3.963,3.963,0,0,1,1.635.528c2.317,1.244,5.656,4.463,8.841,7.376A52.266,52.266,0,0,0,57.239,22.2a7.3,7.3,0,0,0,3.748,1.738,1.706,1.706,0,0,0,.664-.119,2.891,2.891,0,0,0,1.465-1.567,21.006,21.006,0,0,0,1.414-5.485c.528-3.339.9-7.274,1.465-10.426A20.832,20.832,0,0,1,67.034,2.4,4.584,4.584,0,0,1,67.7,1.261a1.341,1.341,0,0,1,.7-.443h.153a2.009,2.009,0,0,1,1.329.715,20.353,20.353,0,0,1,3,4.361c1.584,2.845,3.254,6.354,4.855,9.182a22.325,22.325,0,0,0,2.4,3.543,5.822,5.822,0,0,0,1.192,1.09,2.293,2.293,0,0,0,1.278.426,2.87,2.87,0,0,0,1.908-.937A19.517,19.517,0,0,0,87.7,14.65c1.618-2.879,3.271-6.388,4.855-9.165a22.89,22.89,0,0,1,2.266-3.424,5.072,5.072,0,0,1,1.005-.954A1.53,1.53,0,0,1,96.642.8h.153c.358.068.716.358,1.056.971A16.217,16.217,0,0,1,99.282,6.78c.562,3.22.92,7.172,1.465,10.443a24.1,24.1,0,0,0,1.022,4.259,3.575,3.575,0,0,0,1.789,2.334,1.765,1.765,0,0,0,.664.119,4.41,4.41,0,0,0,2.027-.63c2.521-1.346,5.843-4.583,9.012-7.5,1.584-1.448,3.135-2.811,4.48-3.816A6.621,6.621,0,0,1,123,10.409a1.208,1.208,0,0,1,.528.119,1.365,1.365,0,0,1,.545.784,5.23,5.23,0,0,1,.2,1.6,49.735,49.735,0,0,1-1.584,9.25,49.471,49.471,0,0,0-1.6,9.4,6.388,6.388,0,0,0,.187,1.687,2.4,2.4,0,0,0,.7,1.192,2.588,2.588,0,0,0,1.721.511,14.822,14.822,0,0,0,4.565-1.056c2.658-.937,5.758-2.334,8.62-3.475,2.845-1.158,5.485-2.061,7.053-2.061a1.644,1.644,0,0,1,1.329.426,1.232,1.232,0,0,1,.238.818,10.629,10.629,0,0,1-1.533,4.157c-1.414,2.589-3.543,5.707-5.315,8.569a43.151,43.151,0,0,0-2.283,4.054,8.308,8.308,0,0,0-.971,3.254,2.058,2.058,0,0,0,.273,1.107,3.527,3.527,0,0,0,2.436,1.329,22.038,22.038,0,0,0,4.071.29c3.526,0,7.853-.392,11.329-.392a20.447,20.447,0,0,1,4.157.324,4.4,4.4,0,0,1,1.278.46,1.259,1.259,0,0,1,.562.613.965.965,0,0,1,.051.307,2.726,2.726,0,0,1-.647,1.482,21.553,21.553,0,0,1-3.765,3.612c-2.453,1.993-5.468,4.14-7.887,6.133a24.146,24.146,0,0,0-3.049,2.879,4.435,4.435,0,0,0-1.295,2.606.943.943,0,0,0,.034.307,2.9,2.9,0,0,0,1.278,1.7,21.786,21.786,0,0,0,5.162,2.351C152.569,75.859,156.4,76.9,159.4,78a19.487,19.487,0,0,1,3.7,1.721,4.053,4.053,0,0,1,1.005.869,1.2,1.2,0,0,1,.307.767h.784a2.487,2.487,0,0,0-1.039-1.823A17.586,17.586,0,0,0,159.23,77.1c-3.117-1.124-6.95-2.163-10.034-3.254a24.908,24.908,0,0,1-3.884-1.669,5.207,5.207,0,0,1-1.141-.852,1.394,1.394,0,0,1-.443-.767v-.17a2.593,2.593,0,0,1,.63-1.5,21.553,21.553,0,0,1,3.765-3.646c2.453-1.993,5.468-4.14,7.887-6.133a26.865,26.865,0,0,0,3.049-2.845,4.357,4.357,0,0,0,1.295-2.572,1.659,1.659,0,0,0-.1-.579,2.023,2.023,0,0,0-.9-1.022,6.538,6.538,0,0,0-2.436-.715,25.539,25.539,0,0,0-3.39-.187c-3.543,0-7.87.392-11.329.392a19.882,19.882,0,0,1-3.918-.29,2.765,2.765,0,0,1-1.908-.954,1.4,1.4,0,0,1-.153-.715,10.539,10.539,0,0,1,1.533-4.157c1.414-2.589,3.543-5.707,5.315-8.586a41.105,41.105,0,0,0,2.283-4.054,8.24,8.24,0,0,0,.971-3.237,2.007,2.007,0,0,0-.426-1.329,2.4,2.4,0,0,0-1.925-.715A14.822,14.822,0,0,0,139.4,28.6c-2.658.937-5.758,2.334-8.62,3.475-2.845,1.158-5.485,2.061-7.053,2.061a1.8,1.8,0,0,1-1.21-.324,1.478,1.478,0,0,1-.443-.8,5.945,5.945,0,0,1-.153-1.465,49.589,49.589,0,0,1,1.584-9.233,49.4,49.4,0,0,0,1.6-9.421,5.954,5.954,0,0,0-.239-1.84,2.1,2.1,0,0,0-.9-1.227,1.9,1.9,0,0,0-.92-.238,4.349,4.349,0,0,0-2.01.63c-2.5,1.346-5.809,4.583-8.995,7.5-1.584,1.448-3.135,2.811-4.5,3.816a6.658,6.658,0,0,1-3.271,1.584.9.9,0,0,1-.392-.068,2.112,2.112,0,0,1-1.022-1.175,19.9,19.9,0,0,1-1.346-5.264c-.528-3.3-.886-7.24-1.465-10.443a20.26,20.26,0,0,0-1.09-4.106,5.021,5.021,0,0,0-.8-1.346,2.022,2.022,0,0,0-1.141-.7h-.29a2.732,2.732,0,0,0-1.874.92,20.06,20.06,0,0,0-3.135,4.548c-1.6,2.879-3.271,6.388-4.855,9.165a22.789,22.789,0,0,1-2.3,3.424,4.72,4.72,0,0,1-1.039.954,1.627,1.627,0,0,1-.852.307,2.227,2.227,0,0,1-1.38-.733,19.673,19.673,0,0,1-3.049-4.361c-1.6-2.845-3.254-6.354-4.855-9.165a23.619,23.619,0,0,0-2.351-3.543A5.762,5.762,0,0,0,69.862.443,2.214,2.214,0,0,0,68.618,0h-.29a2.512,2.512,0,0,0-1.6,1.363,17.069,17.069,0,0,0-1.533,5.281c-.562,3.271-.92,7.223-1.465,10.46a22.374,22.374,0,0,1-.988,4.106c-.392,1.073-.869,1.721-1.312,1.857a1.342,1.342,0,0,1-.392.068,4.022,4.022,0,0,1-1.652-.528c-2.334-1.244-5.673-4.463-8.858-7.376a54.865,54.865,0,0,0-4.548-3.867,7.272,7.272,0,0,0-3.714-1.738,1.727,1.727,0,0,0-.92.238,2.1,2.1,0,0,0-.9,1.227,6.027,6.027,0,0,0-.238,1.84,49.4,49.4,0,0,0,1.6,9.421,49.819,49.819,0,0,1,1.584,9.233,5.85,5.85,0,0,1-.153,1.465,1.478,1.478,0,0,1-.443.8,1.836,1.836,0,0,1-1.21.324,14.683,14.683,0,0,1-4.31-1.005c-2.606-.92-5.707-2.3-8.586-3.475-2.879-1.158-5.519-2.112-7.359-2.112A2.4,2.4,0,0,0,19.4,28.3a2.007,2.007,0,0,0-.426,1.329,10.581,10.581,0,0,0,1.635,4.531c1.431,2.64,3.577,5.758,5.349,8.62a42.264,42.264,0,0,1,2.249,3.986,7.816,7.816,0,0,1,.9,2.913,1.439,1.439,0,0,1-.153.715,2.765,2.765,0,0,1-1.908.954,21.157,21.157,0,0,1-3.918.29c-3.475,0-7.8-.392-11.329-.392a21.307,21.307,0,0,0-4.327.341,5,5,0,0,0-1.5.562,2.023,2.023,0,0,0-.9,1.022,1.731,1.731,0,0,0-.1.579,3.419,3.419,0,0,0,.784,1.942,22.487,22.487,0,0,0,3.9,3.765c2.47,2.01,5.5,4.157,7.887,6.133a23.863,23.863,0,0,1,2.947,2.777,3.723,3.723,0,0,1,1.107,2.1v.17a2.254,2.254,0,0,1-.988,1.192,19.965,19.965,0,0,1-4.957,2.232c-3.152,1.09-6.984,2.129-10.034,3.271a20.524,20.524,0,0,0-3.85,1.789A4.842,4.842,0,0,0,.579,80.151,1.531,1.531,0,0,0,0,81.361a2.487,2.487,0,0,0,1.039,1.823A17.586,17.586,0,0,0,5.962,85.62C9.08,86.744,12.913,87.783,16,88.874a24.91,24.91,0,0,1,3.884,1.669,5.207,5.207,0,0,1,1.141.852,1.394,1.394,0,0,1,.443.767v.17a2.593,2.593,0,0,1-.63,1.5,21.552,21.552,0,0,1-3.765,3.646c-2.453,1.993-5.468,4.14-7.887,6.133a26.867,26.867,0,0,0-3.049,2.845,4.357,4.357,0,0,0-1.295,2.572,1.659,1.659,0,0,0,.1.579,2.023,2.023,0,0,0,.9,1.022,6.538,6.538,0,0,0,2.436.715,25.538,25.538,0,0,0,3.39.187c3.543,0,7.87-.392,11.329-.392a19.882,19.882,0,0,1,3.918.29,2.764,2.764,0,0,1,1.908.954,1.4,1.4,0,0,1,.153.715,10.539,10.539,0,0,1-1.533,4.157c-1.414,2.589-3.543,5.707-5.315,8.586a41.1,41.1,0,0,0-2.283,4.054,8.239,8.239,0,0,0-.971,3.237,2.007,2.007,0,0,0,.426,1.329,2.4,2.4,0,0,0,1.925.715,14.823,14.823,0,0,0,4.565-1.056c2.658-.937,5.758-2.334,8.62-3.475,2.845-1.158,5.485-2.061,7.053-2.061a1.8,1.8,0,0,1,1.21.324,1.478,1.478,0,0,1,.443.8,5.945,5.945,0,0,1,.153,1.465,49.589,49.589,0,0,1-1.584,9.233,49.4,49.4,0,0,0-1.6,9.421,5.954,5.954,0,0,0,.238,1.84,2.1,2.1,0,0,0,.9,1.227,1.9,1.9,0,0,0,.92.238,4.349,4.349,0,0,0,2.01-.63c2.5-1.346,5.809-4.583,8.995-7.5,1.584-1.448,3.135-2.811,4.5-3.816a6.658,6.658,0,0,1,3.271-1.584.9.9,0,0,1,.392.068,2.112,2.112,0,0,1,1.022,1.175,19.9,19.9,0,0,1,1.346,5.264c.528,3.3.886,7.24,1.465,10.443a20.26,20.26,0,0,0,1.09,4.106,5.02,5.02,0,0,0,.8,1.346,2.022,2.022,0,0,0,1.141.7h.29a2.733,2.733,0,0,0,1.874-.92,20.06,20.06,0,0,0,3.135-4.548c1.6-2.879,3.271-6.388,4.855-9.165a24.16,24.16,0,0,1,2.3-3.424,4.72,4.72,0,0,1,1.039-.954,1.627,1.627,0,0,1,.852-.307,2.227,2.227,0,0,1,1.38.733,19.672,19.672,0,0,1,3.049,4.361c1.6,2.845,3.254,6.354,4.855,9.165a23.618,23.618,0,0,0,2.351,3.543,5.763,5.763,0,0,0,1.175,1.09,2.214,2.214,0,0,0,1.244.443h.29a2.512,2.512,0,0,0,1.6-1.363A17.069,17.069,0,0,0,100,156.078c.562-3.271.92-7.223,1.465-10.46a24.015,24.015,0,0,1,.971-4.106c.392-1.073.869-1.721,1.312-1.857a1.342,1.342,0,0,1,.392-.068,4.022,4.022,0,0,1,1.652.528c2.334,1.244,5.673,4.463,8.858,7.376a54.865,54.865,0,0,0,4.548,3.867,7.272,7.272,0,0,0,3.714,1.738,1.727,1.727,0,0,0,.92-.238,2.1,2.1,0,0,0,.9-1.227,6.026,6.026,0,0,0,.238-1.84,49.4,49.4,0,0,0-1.6-9.421,49.82,49.82,0,0,1-1.584-9.233,5.85,5.85,0,0,1,.153-1.465,1.478,1.478,0,0,1,.443-.8,1.836,1.836,0,0,1,1.21-.324,14.682,14.682,0,0,1,4.31,1.005c2.606.92,5.707,2.3,8.586,3.475,2.879,1.158,5.519,2.112,7.359,2.112a2.4,2.4,0,0,0,1.925-.715,2.007,2.007,0,0,0,.426-1.329,10.581,10.581,0,0,0-1.635-4.531c-1.431-2.64-3.577-5.758-5.349-8.62a42.263,42.263,0,0,1-2.249-3.986,7.816,7.816,0,0,1-.9-2.913,1.439,1.439,0,0,1,.153-.715,2.765,2.765,0,0,1,1.908-.954,21.16,21.16,0,0,1,3.918-.29c3.475,0,7.8.392,11.329.392a21.308,21.308,0,0,0,4.327-.341,5,5,0,0,0,1.5-.562,2.023,2.023,0,0,0,.9-1.022,1.73,1.73,0,0,0,.1-.579,3.42,3.42,0,0,0-.784-1.942,22.486,22.486,0,0,0-3.9-3.765c-2.47-2.01-5.5-4.157-7.887-6.133a23.864,23.864,0,0,1-2.947-2.777,3.723,3.723,0,0,1-1.107-2.1v-.17a2.254,2.254,0,0,1,.988-1.192,19.963,19.963,0,0,1,4.957-2.232c3.152-1.09,6.984-2.129,10.034-3.271a20.524,20.524,0,0,0,3.85-1.789,4.842,4.842,0,0,0,1.193-1.039,2.068,2.068,0,0,0,.477-1.261h-.392Z" transform="translate(0 0)"/><path d="M14.378,19.829l-5.23,1.039L1.942,9.029.784,9.25,0,5.281l8.6-1.7.784,3.969L8.16,7.785l3.373,6.763,1.056-7.632-1.227.238-.784-3.969L17.8,1.738l.784,3.986-1.227.238,3.935,6.644.562-7.547L20.664,5.3,19.88,1.329,26.575,0l.784,3.969-1.141.239-2.2,13.7-5.145,1.022-3.509-5.945Z" transform="translate(24.292 67.613)" fill="#f7eee5"/><path d="M14.838,20.289l-.085-.392L9.8,20.885,2.589,9.046l-1.022.2L.92,6.048,8.756,4.5l.63,3.2-.852.17-.511.1L12.2,16.32l1.312-9.438-1.38.273-.63-3.2,6.456-1.295.63,3.2-.835.17-.545.119,4.855,8.194.681-9.3L21.431,5.3,20.8,2.1,26.729.92l.63,3.2-.767.153-.256.051-2.2,13.713-4.617.9-3.935-6.661-1.141,7.938.392.068-.085-.392.085.392.392.051.818-5.741,3.083,5.23L24.838,18.7,27.018,4.991l.886-.17.375-.085L27.342,0,19.88,1.482l.937,4.736,1.073-.2-.426,5.775L18.449,6.695l.681-.136.375-.068-.937-4.753-7.99,1.584.937,4.753,1.073-.221L11.771,13.7,9.2,8.535l.733-.153.375-.068L9.369,3.56,0,5.434.937,10.17,2.2,9.932,9.421,21.754l5.758-1.141.051-.273Z" transform="translate(23.832 67.153)" fill="#3d342d"/><path d="M.162,10.687A8.715,8.715,0,0,1,.384,6.463,8.491,8.491,0,0,1,2.854,2.6a7.249,7.249,0,0,1,1.4-1.039A10.365,10.365,0,0,1,5.886.79,10.986,10.986,0,0,1,7.811.262a9.167,9.167,0,0,1,7.427,1.244,9.181,9.181,0,0,1,2.385,2.419,8.406,8.406,0,0,1,1.261,3.066,8.557,8.557,0,0,1-1.329,6.542,9.318,9.318,0,0,1-6.32,3.918,9.721,9.721,0,0,1-7.223-1.073A8.274,8.274,0,0,1,.179,10.7ZM7.368,9.256a9.2,9.2,0,0,0,1.278,3.629,1.767,1.767,0,0,0,1.806.664,1.76,1.76,0,0,0,1.431-1.261,9.051,9.051,0,0,0-.2-3.884,8.982,8.982,0,0,0-1.261-3.612,1.742,1.742,0,0,0-1.823-.647A1.783,1.783,0,0,0,7.164,5.406a8.7,8.7,0,0,0,.2,3.867Z" transform="translate(52.903 65.069)" fill="#f7eee5"/><path d="M.579,11.073.971,11A8.318,8.318,0,0,1,.818,9.421a8.9,8.9,0,0,1,.358-2.453,8.335,8.335,0,0,1,2.351-3.7h0a7.9,7.9,0,0,1,1.329-.988A9.705,9.705,0,0,1,6.439,1.55a10.408,10.408,0,0,1,1.874-.511A12.308,12.308,0,0,1,10.732.784a7.812,7.812,0,0,1,4.7,1.431h0a9.054,9.054,0,0,1,2.3,2.334,7.863,7.863,0,0,1,1.192,2.913,8.051,8.051,0,0,1,.17,1.669,8.138,8.138,0,0,1-1.448,4.583,8.916,8.916,0,0,1-6.082,3.748,11.468,11.468,0,0,1-2.351.239,8.594,8.594,0,0,1-4.6-1.261h0A7.78,7.78,0,0,1,.971,11.022l-.392.068-.392.068a8.569,8.569,0,0,0,4,5.928h0A9.344,9.344,0,0,0,9.2,18.466a13.016,13.016,0,0,0,2.5-.256,9.72,9.72,0,0,0,6.576-4.088,9,9,0,0,0,1.567-5.008,9.6,9.6,0,0,0-.187-1.823,8.721,8.721,0,0,0-1.312-3.2A9.71,9.71,0,0,0,15.86,1.567h0A8.616,8.616,0,0,0,10.7,0,12.6,12.6,0,0,0,8.126.273,14.229,14.229,0,0,0,6.133.818a11.244,11.244,0,0,0-1.7.8,8.835,8.835,0,0,0-1.465,1.09h0A8.944,8.944,0,0,0,.392,6.763,9.773,9.773,0,0,0,0,9.438a8.582,8.582,0,0,0,.17,1.738l.392-.068ZM7.785,9.642l-.392.068a8.9,8.9,0,0,0,1.363,3.8l.307-.256-.307.239a2.114,2.114,0,0,0,1.686.852,2.432,2.432,0,0,0,.494-.051,2.2,2.2,0,0,0,1.738-1.533h0a3.978,3.978,0,0,0,.153-1.192,15.062,15.062,0,0,0-.358-2.879,9.58,9.58,0,0,0-1.346-3.8h0a2.081,2.081,0,0,0-1.7-.835,2.6,2.6,0,0,0-.511.051A2.181,2.181,0,0,0,7.189,5.622a3.978,3.978,0,0,0-.153,1.192,15.061,15.061,0,0,0,.358,2.879l.392-.085.392-.085A15.221,15.221,0,0,1,7.836,6.8a3.127,3.127,0,0,1,.119-.937A1.527,1.527,0,0,1,9.438,4.821a1.346,1.346,0,0,1,1.09.545h0A8.836,8.836,0,0,1,11.7,8.807a15.4,15.4,0,0,1,.341,2.726,3.126,3.126,0,0,1-.119.937h0a1.392,1.392,0,0,1-1.141,1.005,2.561,2.561,0,0,1-.341.034,1.311,1.311,0,0,1-1.073-.562h0A8.821,8.821,0,0,1,8.177,9.489l-.392.068Z" transform="translate(52.486 64.683)" fill="#3d342d"/><path d="M12.3,17.308,3.288,19.1,2.5,15.127l1.346-.273L2.129,6.2.784,6.473,0,2.5,9.012.715c.818-.153,1.567-.29,2.266-.409.7-.1,1.295-.187,1.806-.238A13.874,13.874,0,0,1,14.48,0a4.955,4.955,0,0,1,3.152,1.056,4.444,4.444,0,0,1,1.687,2.76,4.347,4.347,0,0,1-.2,2.47A3.976,3.976,0,0,1,17.666,8.16L20.715,11.5l1.193-.238.784,3.969-5.979,1.192-4.957-6.065-2.044.409.562,2.811,1.261-.256.784,3.969ZM8.467,4.6,9.1,7.768l.715-.136a15.157,15.157,0,0,0,1.891-.46,1.558,1.558,0,0,0,.818-.664,1.374,1.374,0,0,0,.17-1.09,1.419,1.419,0,0,0-.579-.954,1.583,1.583,0,0,0-1.039-.29A14.668,14.668,0,0,0,9.046,4.5l-.579.119Z" transform="translate(72.434 60.833)" fill="#f7eee5"/><path d="M12.76,17.632l-.068-.392L4.054,18.96l-.63-3.2L4.4,15.57l.392-.068L2.913,6.082l-1.346.273-.63-3.2L9.574,1.431q1.2-.23,2.249-.409c.7-.1,1.278-.187,1.772-.238.443-.034.852-.068,1.227-.068h.136a4.719,4.719,0,0,1,2.913.971,4.1,4.1,0,0,1,1.55,2.521,4.786,4.786,0,0,1,.085.835,3.665,3.665,0,0,1-.273,1.414,3.75,3.75,0,0,1-1.312,1.7l-.358.256,3.492,3.833,1.022-.2.63,3.2L17.342,16.32l-4.957-6.065-2.658.528.715,3.577,1.261-.256.715,3.594.392-.068-.068-.392.068.392.392-.068L12.334,13.2l-1.261.256-.409-2.027,1.431-.29,4.957,6.065,6.593-1.312-.937-4.736-1.363.273-2.9-3.169-.29.273.221.324a4.484,4.484,0,0,0,1.584-2.044,4.518,4.518,0,0,0,.324-1.7,4.992,4.992,0,0,0-.1-.988,4.884,4.884,0,0,0-1.84-3A5.447,5.447,0,0,0,14.957,0h-.136a12.1,12.1,0,0,0-1.312.068C13,.119,12.385.187,11.686.307c-.7.1-1.465.238-2.283.409L0,2.589.937,7.342,2.283,7.07,3.85,14.94l-.971.187-.392.068.937,4.736,9.8-1.942-.068-.392-.392.068ZM8.927,4.923l-.392.068.7,3.543,1.107-.221A14.821,14.821,0,0,0,12.3,7.836l-.136-.375.136.375A1.984,1.984,0,0,0,13.3,7.019l-.341-.2.324.221A1.632,1.632,0,0,0,13.56,6.1a1.316,1.316,0,0,0-.051-.443,1.825,1.825,0,0,0-.733-1.192l-.221.324.221-.324A2.052,2.052,0,0,0,11.6,4.088h-.119A16.774,16.774,0,0,0,9.4,4.412l-.579.119L8.433,4.6l.068.392.392-.068.068.392L9.54,5.2A17.407,17.407,0,0,1,11.5,4.889h.085a1.188,1.188,0,0,1,.716.221h0a.983.983,0,0,1,.409.7,1.9,1.9,0,0,1,.034.29.889.889,0,0,1-.136.494h0a1.176,1.176,0,0,1-.613.494h0a15.621,15.621,0,0,1-1.823.443L9.846,7.6,9.3,4.821l-.392.068.068.392L8.91,4.889Z" transform="translate(71.974 60.51)" fill="#3d342d"/><path d="M12.3,17.308,3.288,19.1,2.5,15.127l1.346-.273L2.129,6.2.784,6.473,0,2.5,9.012.716c.818-.153,1.567-.29,2.266-.409.7-.1,1.295-.187,1.806-.238A13.644,13.644,0,0,1,14.48,0a4.955,4.955,0,0,1,3.152,1.056,4.444,4.444,0,0,1,1.687,2.76,4.348,4.348,0,0,1-.2,2.47A4.086,4.086,0,0,1,17.666,8.16L20.715,11.5l1.192-.238.784,3.969-5.979,1.193-4.957-6.065-2.044.409.562,2.811,1.261-.256.784,3.969ZM8.467,4.6,9.1,7.768l.715-.136a15.16,15.16,0,0,0,1.891-.46,1.558,1.558,0,0,0,.818-.664,1.374,1.374,0,0,0,.17-1.09,1.419,1.419,0,0,0-.579-.954,1.556,1.556,0,0,0-1.039-.29A14.664,14.664,0,0,0,9.046,4.5l-.579.119Z" transform="translate(93.303 56.677)" fill="#f7eee5"/><path d="M12.759,17.632l-.068-.392L4.054,18.96l-.63-3.2.954-.187L4.77,15.5,2.9,6.082,1.55,6.354l-.63-3.2L9.557,1.431q1.2-.23,2.249-.409c.7-.1,1.278-.187,1.772-.238h0C14.02.75,14.429.715,14.8.715h.136a4.719,4.719,0,0,1,2.913.971A4.179,4.179,0,0,1,19.4,4.208a4.784,4.784,0,0,1,.085.835,3.665,3.665,0,0,1-.273,1.414h0A3.75,3.75,0,0,1,17.9,8.16l-.358.256,3.492,3.833,1.022-.2.63,3.2L17.325,16.32l-4.957-6.065-2.658.528.716,3.577,1.261-.256L12.4,17.7l.392-.068-.068-.392.068.392.392-.068L12.317,13.2l-1.261.256-.409-2.027,1.431-.29,4.957,6.065,6.593-1.312-.937-4.736-1.363.273-2.9-3.169-.29.273.221.324a4.485,4.485,0,0,0,1.584-2.044h0a4.518,4.518,0,0,0,.324-1.7,4.992,4.992,0,0,0-.1-.988,4.884,4.884,0,0,0-1.84-3A5.447,5.447,0,0,0,14.94,0H14.8a11.586,11.586,0,0,0-1.295.068h0C13,.119,12.385.187,11.686.307c-.7.1-1.465.238-2.283.409L0,2.589.937,7.342,2.283,7.07,3.85,14.94l-.954.187L2.5,15.2l.937,4.736,9.8-1.942-.068-.392-.392.068ZM8.927,4.923l-.392.068.7,3.543,1.107-.221A14.829,14.829,0,0,0,12.3,7.836l-.136-.375.136.375A1.984,1.984,0,0,0,13.3,7.019l-.341-.2.324.221A1.632,1.632,0,0,0,13.56,6.1a1.315,1.315,0,0,0-.051-.443,1.825,1.825,0,0,0-.733-1.192l-.221.324.221-.324A2.052,2.052,0,0,0,11.6,4.088h-.119A13.983,13.983,0,0,0,9.4,4.412l-.579.119L8.433,4.6l.085.392.392-.068.068.392L9.557,5.2a17.4,17.4,0,0,1,1.959-.307H11.6a1.188,1.188,0,0,1,.715.221h0a.984.984,0,0,1,.409.7,1.9,1.9,0,0,1,.034.29.889.889,0,0,1-.136.494h0a1.176,1.176,0,0,1-.613.494h0a15.622,15.622,0,0,1-1.823.443L9.864,7.6,9.318,4.821l-.392.068.068.392-.068-.392Z" transform="translate(92.843 56.353)" fill="#3d342d"/><path d="M16.337,17.376,7.274,19.182,6.49,15.213l1.329-.273L7.291,12.3,1.925,7.121.784,7.342,0,3.373,8.671,1.652l.784,3.969-.988.2L10.9,8.858l1.465-3.816-1.005.2-.8-3.969L16.95,0l.784,3.986-1.039.2-2.981,6.831.528,2.64,1.312-.256Z" transform="translate(112.536 51.992)" fill="#f7eee5"/><path d="M16.8,17.836l-.068-.375L8.041,19.182l-.63-3.2.954-.187.375-.085-.613-3.134L2.5,7.155l-.954.187L.92,4.14l7.9-1.567.63,3.2-.6.119-.647.136L11.482,10.1l1.976-5.111-1.329.256-.647-3.2L17.1.937l.63,3.2-.647.119-.2.051-3.117,7.138.63,3.134,1.312-.256.716,3.594.375-.085-.068-.375.068.375.392-.068-.869-4.361-1.312.256-.426-2.129,2.862-6.542.835-.17.375-.068L17.717,0,10.562,1.431,11.5,6.167l.715-.136-.971,2.5-1.6-1.993L10,6.473l.375-.085L9.438,1.652,0,3.526.937,8.262l1.312-.256,5.145,4.957.426,2.129-.954.187-.375.085L7.427,20.1l9.829-1.959-.068-.375Z" transform="translate(112.076 51.532)" fill="#3d342d"/><rect width="8.688" height="5.247" transform="translate(129.683 60.605) rotate(-11.2)" fill="#f7eee5"/><path d="M10,5.6,9.932,5.23,1.789,6.848.937,2.47,8.671.937,9.625,5.69,10,5.6,9.932,5.23,10,5.6l.392-.068L9.3,0,0,1.857,1.175,7.768,10.46,5.911l-.068-.375Z" transform="translate(129.247 58.363)" fill="#3d342d"/><path d="M19.046,25.28,4.753,28.108,3.629,22.487l2.47-.494L3.663,9.727l-2.555.511L0,4.6,23.168,0,24.7,7.751,18.449,8.995l-.426-2.112L12.76,7.921l.733,3.611,4.054-.8.954,4.787-4.071.8.767,3.867,2.726-.545Z" transform="translate(31.89 88.158)" fill="#f7eee5"/><path d="M19.506,25.74l-.085-.392-13.9,2.76-.971-4.855,2.47-.494L4.446,9.727l-2.555.511L.92,5.366,23.321.92,24.7,7.9l-5.485,1.09L18.79,6.882,12.759,8.075l.869,4.4,4.071-.818.8,4.02-4.071.8.92,4.634,2.726-.545,1.039,5.247.392-.068-.085-.392.085.392.375-.085-1.192-6.013-2.709.545L15.366,17.1l4.054-.818-1.107-5.553-4.054.8L13.7,8.688l4.48-.886L18.6,9.915l7.019-1.4L23.935,0,0,4.753l1.261,6.405,2.555-.511L6.1,22.146l-2.47.494,1.278,6.388,15.059-2.981-.085-.392Z" transform="translate(31.43 87.698)" fill="#3d342d"/><path d="M17.461,24.535,4.685,27.074,3.56,21.435l1.908-.375L3.032,8.795l-1.908.375L0,3.531,12.777.992c1.141-.221,2.215-.426,3.2-.579S17.819.141,18.534.09A16.422,16.422,0,0,1,20.528,0a7.213,7.213,0,0,1,4.463,1.482,6.375,6.375,0,0,1,2.4,3.918,6.152,6.152,0,0,1-.29,3.509,5.82,5.82,0,0,1-2.061,2.658l4.31,4.736,1.686-.341,1.124,5.639L23.7,23.292l-7.036-8.586-2.9.579.784,3.969L16.32,18.9l1.124,5.639ZM12.044,6.529l.886,4.48,1.022-.2a18.255,18.255,0,0,0,2.675-.664A2.237,2.237,0,0,0,17.785,9.2a2.014,2.014,0,0,0,.238-1.533,2,2,0,0,0-.818-1.346,2.208,2.208,0,0,0-1.465-.409,25.17,25.17,0,0,0-2.862.443l-.835.17Z" transform="translate(57.103 84.202)" fill="#f7eee5"/><path d="M17.9,24.872l-.068-.392-12.4,2.47-.971-4.855,1.908-.375L3.782,8.688l-1.908.375L.9,4.208l12.4-2.47c1.141-.221,2.215-.426,3.186-.579.988-.153,1.823-.256,2.521-.324h0C19.625.784,20.2.75,20.749.75h.221a6.914,6.914,0,0,1,4.225,1.4h0a5.935,5.935,0,0,1,2.249,3.68,5.94,5.94,0,0,1,.119,1.21,5.84,5.84,0,0,1-.392,2.078h0A5.372,5.372,0,0,1,25.246,11.6l-.358.256,4.77,5.23,1.516-.307.971,4.855L24.292,23.2l-7.036-8.586-3.509.7.937,4.753,1.772-.358L17.5,24.957l.392-.068-.068-.392.068.392.392-.068-1.192-6.014-1.772.358-.63-3.2,2.283-.46L24,24.088l9.1-1.806-1.278-6.405-1.857.375-4.174-4.565-.29.273.221.324a6.336,6.336,0,0,0,2.2-2.828h0a6.633,6.633,0,0,0,.443-2.368,7.54,7.54,0,0,0-.136-1.363,6.792,6.792,0,0,0-2.538-4.157h0A7.654,7.654,0,0,0,20.988,0h-.221C20.2,0,19.608.034,18.96.085h0c-.733.068-1.584.17-2.572.341-.988.153-2.061.341-3.22.579L0,3.628l1.278,6.405,1.908-.375L5.468,21.141l-1.908.375,1.278,6.405L18.4,25.229l-.068-.392-.392.068ZM12.487,6.865l-.392.068.971,4.872,1.4-.273a18.777,18.777,0,0,0,2.743-.681l-.136-.375.136.375a2.58,2.58,0,0,0,1.346-1.09l-.341-.2.324.221a2.2,2.2,0,0,0,.358-1.227,2.467,2.467,0,0,0-.068-.6,2.484,2.484,0,0,0-.971-1.6l-.221.324.221-.324a2.677,2.677,0,0,0-1.567-.494h-.153a22.3,22.3,0,0,0-2.93.46l-.835.17-.392.068.068.392.392-.068.068.392.835-.17a25.421,25.421,0,0,1,2.811-.443h.119A1.782,1.782,0,0,1,17.376,7h0a1.6,1.6,0,0,1,.647,1.107,2.081,2.081,0,0,1,.051.443,1.476,1.476,0,0,1-.221.8h0a1.84,1.84,0,0,1-.954.767h0a19.661,19.661,0,0,1-2.623.63l-.63.119L12.828,6.78l-.392.068.068.392-.068-.392Z" transform="translate(56.66 83.865)" fill="#3d342d"/><path d="M27.154,23.526,4.7,27.989,3.594,22.35l1.823-.358L2.981,9.727,1.124,10.1,0,4.463,22.47,0l1.5,7.53L17.8,8.756l-.375-1.891L12.078,7.921l.715,3.628,4.651-.937L18.4,15.4l-4.651.937.767,3.85,5.349-1.056-.375-1.908L25.655,16Z" transform="translate(86.693 77.409)" fill="#f7eee5"/><path d="M27.614,23.986l-.085-.375L5.468,27.989l-.954-4.872,1.823-.358L3.748,9.727,1.891,10.1.92,5.23,22.623.92l1.346,6.763-5.4,1.073-.375-1.891-6.116,1.21.869,4.4,4.651-.92.8,4-4.651.92.92,4.634,6.116-1.21-.375-1.891,5.4-1.073,1.414,7.138.392-.085-.085-.375.085.375.375-.068L26.422,16l-6.95,1.38.375,1.891-4.566.92L14.667,17.1l4.651-.937-1.107-5.554-4.651.937L13,8.688l4.583-.9.375,1.891L24.889,8.3,23.236,0,0,4.617l1.278,6.405,1.857-.375,2.283,11.5L3.594,22.5l1.261,6.405,23.219-4.617-.085-.375Z" transform="translate(86.233 76.949)" fill="#3d342d"/><path d="M27.137,23.509,4.7,27.972,3.577,22.333l1.84-.358L2.981,9.71l-1.857.375L0,4.463,22.47,0l1.5,7.513L17.8,8.739,17.41,6.848,12.078,7.9l.716,3.629,4.651-.92L18.4,15.4l-4.651.92.767,3.85,5.332-1.056-.375-1.891L25.655,16Z" transform="translate(112.672 72.264)" fill="#f7eee5"/><path d="M27.6,23.986l-.068-.375L5.468,27.989l-.954-4.855,1.823-.375L3.748,9.727,1.891,10.1.92,5.247l21.7-4.31,1.346,6.746-5.4,1.073-.375-1.891-6.116,1.21.869,4.4,4.651-.92.8,4-4.651.937.92,4.617,6.116-1.21-.392-1.891,5.417-1.073,1.414,7.138.375-.085-.068-.375.068.375.392-.068-1.567-7.9-6.95,1.38.375,1.891-4.565.9L14.667,17.1l4.651-.92-1.107-5.571-4.651.937L13,8.688l4.565-.9.375,1.891,6.95-1.38L23.236,0,0,4.617l1.261,6.405,1.874-.358L5.417,22.146l-1.84.358,1.278,6.405,23.219-4.6-.085-.392Z" transform="translate(112.212 71.787)" fill="#3d342d"/></g></svg>