<svg xmlns="http://www.w3.org/2000/svg" width="290.999" height="70.091" viewBox="0 0 290.999 70.091"><g transform="matrix(1, 0.017, -0.017, 1, 1.135, 0)"><path d="M289.009,32.307c-1.261-5.315,2.368-22.112-6.2-22.947-15.076-.835-30.97-13.577-44.718-4.94C233.423-4,220.391,2.546,212.3.672c-4.446-.954-8.892,1.635-13.628,1.618-4.429.715-10.323-1.6-12.947,3.288-7.155-2.4-22.078-1.669-27.154,4.037-6.848-1.925-22.078-.852-26.694,4.7-6.848-1.857-21.669-1.09-26.558,4.157-6.8-2.01-21.056-2.1-26.388,2.572-7-2.385-19.88-3.85-26.132,0-7.444-3.2-18.143-6-25.792-3.68C22.44,13.96,7.04,7.606,2.3,10.962-3.4,16.481,3.479,25.067,1.963,32.171c1.21,7.547-7.172,21.72,5.264,22.316,5.2.256,11.891,6.269,16.814,1.806,23.73,16.081,86.42,3.083,115.687-1.227,22.112-5.826,47.409-4.685,68.38-12.674,3.441,5.008,9.676,1.227,14.463,1.7,4.991-.818,10.715,2.76,14.7-1.244,6.15,5.5,16.848,5.383,22.316-.988-1.039,7.938,8.194,7.291,13.288,8.961,8.756,4.4,12.9-4.123,9.88-11.652a6.629,6.629,0,0,0,6.235-6.9Z" transform="translate(0.456 0.435)" fill="#f05f7c"/><path d="M289.465,32.742l.443-.1a19.583,19.583,0,0,1-.29-4.14c0-1.567.051-3.339.051-5.145a30.894,30.894,0,0,0-.988-9.08,8.072,8.072,0,0,0-1.908-3.339,5.519,5.519,0,0,0-3.458-1.584h0c-5.554-.307-11.277-2.266-17-4.174S254.866,1.431,249.3,1.431A20.022,20.022,0,0,0,238.325,4.5l.239.392.392-.221A8.275,8.275,0,0,0,234.833.937,14.605,14.605,0,0,0,229.3,0c-4.225,0-8.944,1.039-12.964,1.039A16.2,16.2,0,0,1,212.84.7h0a10.644,10.644,0,0,0-2.181-.221c-3.9,0-7.649,1.84-11.482,1.84h-.119a12.967,12.967,0,0,1-2.2.153c-1.244,0-2.572-.1-3.884-.1a11.009,11.009,0,0,0-4.037.6,6.012,6.012,0,0,0-3.169,2.862l.409.221.153-.426A32.137,32.137,0,0,0,176.64,4.31,39.961,39.961,0,0,0,166.4,5.588c-3.186.886-5.962,2.232-7.717,4.191l.341.307.119-.443a30.776,30.776,0,0,0-8.007-.9,44.113,44.113,0,0,0-10.988,1.346c-3.458.92-6.456,2.334-8.177,4.4l.358.29.119-.443a33.691,33.691,0,0,0-8.5-.937,44.263,44.263,0,0,0-10.528,1.21c-3.3.835-6.2,2.112-7.973,4.02l.341.307.136-.443a40.594,40.594,0,0,0-10.92-1.329c-6.116,0-12.521,1.073-15.894,3.986l.307.341.153-.426a50.24,50.24,0,0,0-15.144-2.385c-4.344,0-8.484.664-11.38,2.436l.238.392.187-.426C47.9,18.688,40.544,16.507,33.9,16.507a22.46,22.46,0,0,0-6.525.869l.136.443.273-.358a43.816,43.816,0,0,0-9.438-4.77C14.395,11.175,10.085,10.017,6.729,10a7.172,7.172,0,0,0-4.174,1.039H2.521a.172.172,0,0,1-.017.051A7.779,7.779,0,0,0,0,17.138a28.974,28.974,0,0,0,1.107,6.627,27.986,27.986,0,0,1,1.073,6.593,10.136,10.136,0,0,1-.221,2.163v.085c-.017,0,0,.085,0,.085a9.978,9.978,0,0,1,.119,1.635,38.971,38.971,0,0,1-.886,6.695,39.621,39.621,0,0,0-.886,6.95,7.724,7.724,0,0,0,1.516,5.111c1.141,1.363,3.032,2.181,5.843,2.317a20.589,20.589,0,0,1,6,1.772A18.77,18.77,0,0,0,20.2,58.857,6.634,6.634,0,0,0,24.8,57.1l-.307-.341-.256.375c8.722,5.894,22.453,7.9,37.8,7.9,27.171,0,59.522-6.3,78.192-9.063h.034c22.027-5.826,47.324-4.668,68.431-12.691l-.17-.426-.375.256a6.093,6.093,0,0,0,2.623,2.232,7.663,7.663,0,0,0,3.1.579c2.76,0,5.707-.971,8.228-.954a7.408,7.408,0,0,1,.869.034h.1a9.632,9.632,0,0,1,1.584-.119c2.538,0,5.3.818,7.938.818a7.231,7.231,0,0,0,5.434-2.078l-.324-.324-.307.341a16.791,16.791,0,0,0,11.141,4.088,15.487,15.487,0,0,0,11.823-5.111l-.341-.29-.46-.051a10.377,10.377,0,0,0-.085,1.227,5.791,5.791,0,0,0,1.533,4.14c1.431,1.5,3.612,2.2,5.843,2.709,2.232.494,4.565.8,6.3,1.38l.136-.426-.2.409a10.527,10.527,0,0,0,4.668,1.244,6.184,6.184,0,0,0,5.094-2.521A9.7,9.7,0,0,0,284.61,44.6a13.841,13.841,0,0,0-1.005-5.111l-.426.17v.46a7.1,7.1,0,0,0,6.695-7.019v-.426l-.443.1h-.46v.341a6.176,6.176,0,0,1-5.809,6.1l-.647.034.238.6a12.8,12.8,0,0,1,.954,4.77,8.878,8.878,0,0,1-1.567,5.3,5.325,5.325,0,0,1-4.361,2.163,9.5,9.5,0,0,1-4.259-1.158h-.034l-.034-.017c-2.5-.818-5.826-1.09-8.5-1.976a7.843,7.843,0,0,1-3.271-1.874,4.766,4.766,0,0,1-1.278-3.509,9,9,0,0,1,.068-1.124l.2-1.516-.988,1.158a14.581,14.581,0,0,1-11.141,4.787A15.86,15.86,0,0,1,238.018,43l-.324-.29-.307.307A6.33,6.33,0,0,1,232.6,44.82c-2.453,0-5.213-.818-7.938-.818a9.956,9.956,0,0,0-1.738.136l.068.443.051-.46a8.712,8.712,0,0,0-.954-.051c-2.726,0-5.673.971-8.228.954a6.483,6.483,0,0,1-2.726-.511,5.327,5.327,0,0,1-2.232-1.925l-.2-.29-.341.119c-20.851,7.956-46.132,6.814-68.329,12.657l.119.443-.068-.443c-18.7,2.76-51.021,9.046-78.056,9.046-15.281,0-28.875-2.027-37.29-7.751l-.29-.2-.273.238a5.627,5.627,0,0,1-3.986,1.516A18.2,18.2,0,0,1,13.969,56.3a21.4,21.4,0,0,0-6.286-1.823c-2.675-.136-4.242-.886-5.2-1.993a6.813,6.813,0,0,1-1.295-4.514,39.238,39.238,0,0,1,.886-6.78,39.316,39.316,0,0,0,.886-6.865,9.961,9.961,0,0,0-.136-1.772l-.443.068.443.1a10.8,10.8,0,0,0,.238-2.351A29.475,29.475,0,0,0,1.959,23.56,27.649,27.649,0,0,1,.886,17.155a7.051,7.051,0,0,1,2.163-5.417l-.324-.324L3,11.788a6.441,6.441,0,0,1,3.646-.869c3.152,0,7.41,1.141,11.294,2.623a42.877,42.877,0,0,1,9.216,4.651l.187.136.221-.068a21.711,21.711,0,0,1,6.269-.835c6.439,0,13.731,2.129,19.216,4.5l.221.085.2-.119c2.64-1.635,6.661-2.3,10.9-2.3a49.462,49.462,0,0,1,14.855,2.351l.256.085.2-.17c3-2.658,9.3-3.782,15.3-3.765a39.982,39.982,0,0,1,10.664,1.295l.273.085.187-.2c1.55-1.687,4.31-2.947,7.53-3.748a43.179,43.179,0,0,1,10.306-1.175,33.116,33.116,0,0,1,8.262.9l.29.068.187-.221c1.5-1.823,4.361-3.2,7.717-4.106a42.805,42.805,0,0,1,10.749-1.312,30.027,30.027,0,0,1,7.751.869l.273.085.187-.2a15.216,15.216,0,0,1,7.274-3.918,38.54,38.54,0,0,1,9.983-1.244,31.552,31.552,0,0,1,9.4,1.261l.358.119.187-.341a5.023,5.023,0,0,1,2.692-2.453,10.22,10.22,0,0,1,3.7-.545c1.261,0,2.589.1,3.884.1a15.285,15.285,0,0,0,2.351-.153l-.068-.443v.46h.051c4.106,0,7.887-1.84,11.482-1.84a9.9,9.9,0,0,1,1.993.2l.1-.443-.1.443a16.2,16.2,0,0,0,3.7.375c4.174,0,8.875-1.039,12.964-1.039a13.444,13.444,0,0,1,5.179.852,7.239,7.239,0,0,1,3.663,3.322l.238.426.409-.256a19.327,19.327,0,0,1,10.477-2.93c5.383,0,11.022,1.806,16.729,3.714,5.724,1.908,11.516,3.9,17.24,4.225v-.46a4.145,4.145,0,0,1-.017.46,4.613,4.613,0,0,1,2.913,1.329,9.221,9.221,0,0,1,2.164,4.94,39.883,39.883,0,0,1,.46,6.831c0,1.806-.051,3.56-.051,5.145a19.951,19.951,0,0,0,.324,4.361l.443-.1h-.46a4.145,4.145,0,0,0,.46,0Z" transform="translate(0 0)" fill="#020202"/><path d="M5.213,31.378c-2.01-.63-3.032-.971-5.042-1.687v-10c2.01.715,3.032,1.039,5.042,1.687.6,2.913,1.738,4.634,3.39,5.111,1.21.341,1.806-.17,1.806-1.516a2.155,2.155,0,0,0-.63-1.925A26.454,26.454,0,0,0,6.933,20.1a36.4,36.4,0,0,1-4.02-4.259A13.985,13.985,0,0,1,.852,11.975,13.591,13.591,0,0,1,0,7.256c0-2.9.681-4.923,2.027-6.1A4.9,4.9,0,0,1,6.985.306a9.4,9.4,0,0,1,4.991,3.748V2.128c2.027.545,3.049.784,5.077,1.261v8.875c-2.01-.46-3-.715-5.008-1.244C11.431,8.414,10.34,6.9,8.79,6.438,7.7,6.115,7.155,6.609,7.155,7.9s.17,1.141.46,1.55a37.988,37.988,0,0,0,2.913,3.015c2.2,2.129,3.68,3.611,4.412,4.5A10.336,10.336,0,0,1,16.1,18.687a14.917,14.917,0,0,1,.971,2.146,14.087,14.087,0,0,1,.886,4.957,8.647,8.647,0,0,1-2.1,6.15,4.908,4.908,0,0,1-5.281,1.4,10.27,10.27,0,0,1-5.366-4.02v2.044Z" transform="translate(8.961 18.689)" fill="#b7cf61"/><path d="M5.5,31.55l.085-.29c-2.01-.63-3.015-.971-5.025-1.669l-.1.29H.767v-10H.46l-.1.29c2.01.715,3.032,1.056,5.042,1.687l.085-.29-.29.068a10.266,10.266,0,0,0,1.346,3.577,4.146,4.146,0,0,0,2.266,1.772,3.106,3.106,0,0,0,.75.119,1.342,1.342,0,0,0,1.107-.528A2.44,2.44,0,0,0,11,25.2a3.541,3.541,0,0,0-.681-2.1,23.634,23.634,0,0,0-2.9-2.981,35.652,35.652,0,0,1-3.986-4.225,14.568,14.568,0,0,1-2.01-3.782A13.015,13.015,0,0,1,.6,7.5c0-2.862.681-4.787,1.925-5.86A4.219,4.219,0,0,1,5.4.545a6.517,6.517,0,0,1,1.806.29,9.186,9.186,0,0,1,4.838,3.629l.545.784V2.368h-.307l-.085.29c2.027.545,3.049.784,5.077,1.261l.068-.29h-.307V12.5h.307l.068-.29c-2.01-.46-3-.715-4.991-1.244l-.085.29.29-.068a8.85,8.85,0,0,0-1.329-3.2,4.094,4.094,0,0,0-2.146-1.6,2.429,2.429,0,0,0-.664-.1,1.178,1.178,0,0,0-1.039.528A2.423,2.423,0,0,0,7.121,8.16,2.884,2.884,0,0,0,7.649,9.9,39.518,39.518,0,0,0,10.6,12.947c2.2,2.112,3.663,3.611,4.4,4.463h0A9.117,9.117,0,0,1,16.1,19.08a14.263,14.263,0,0,1,.954,2.1h0a13.9,13.9,0,0,1,.869,4.855,8.39,8.39,0,0,1-2.01,5.945,4.464,4.464,0,0,1-3.39,1.55,6.007,6.007,0,0,1-1.584-.221,9.974,9.974,0,0,1-5.2-3.918L5.2,28.653v2.964H5.5l.085-.29-.085.29h.307V29.573H5.5l-.238.187a10.57,10.57,0,0,0,5.519,4.14,6.5,6.5,0,0,0,1.738.256,5.084,5.084,0,0,0,3.833-1.738,8.991,8.991,0,0,0,2.181-6.354,14.668,14.668,0,0,0-.9-5.06h0a14.587,14.587,0,0,0-.988-2.181,9.955,9.955,0,0,0-1.192-1.772l-.238.2.238-.187c-.767-.9-2.232-2.385-4.429-4.514A33.7,33.7,0,0,1,8.143,9.574a2.252,2.252,0,0,1-.409-1.38,1.926,1.926,0,0,1,.2-1.005.571.571,0,0,1,.545-.256,1.432,1.432,0,0,1,.494.085A3.34,3.34,0,0,1,10.8,8.381a8.685,8.685,0,0,1,1.227,3l.034.17.17.051c2.01.528,3.015.784,5.025,1.244l.375.085V3.441l-.238-.051c-2.027-.46-3.032-.715-5.06-1.261l-.375-.1V4.344h.307l.256-.17A9.754,9.754,0,0,0,7.376.307,6.9,6.9,0,0,0,5.4,0,4.852,4.852,0,0,0,2.129,1.227C.681,2.487,0,4.6,0,7.547a13.711,13.711,0,0,0,.869,4.821A14.754,14.754,0,0,0,2.981,16.3,38.607,38.607,0,0,0,7.036,20.6a24.435,24.435,0,0,1,2.811,2.9,3.089,3.089,0,0,1,.579,1.755,1.855,1.855,0,0,1-.238,1.039.665.665,0,0,1-.613.273,2.076,2.076,0,0,1-.579-.1A3.482,3.482,0,0,1,7.07,24.94a9.954,9.954,0,0,1-1.261-3.356l-.034-.17-.17-.051c-2.01-.63-3.015-.971-5.025-1.669L.17,19.557V30.2l.2.068c2.01.715,3.032,1.056,5.042,1.686l.392.119v-.409H5.5Z" transform="translate(8.671 18.517)" fill="#020202"/><path d="M21.328,34A147.514,147.514,0,0,1,0,31.192V23.73c.8.153,1.21.238,2.01.392V7.853C1.21,7.7.8,7.632,0,7.461V0C5.128,1.005,7.683,1.4,12.811,2.01V9.472c-.852-.1-1.278-.153-2.129-.273V25.468c2.112.273,3.186.392,5.3.613V21.073c2.146.221,3.2.307,5.349.46V34Z" transform="translate(31.055 23.185)" fill="#b7cf61"/><path d="M21.618,34.343v-.307A146.909,146.909,0,0,1,.358,31.226l-.051.307H.613V24.071H.307l-.051.307c.8.153,1.21.238,2.01.392l.358.068V7.956L2.368,7.9c-.8-.153-1.21-.221-2.01-.375l-.051.307H.613V.375H.307L.256.681c5.128,1.005,7.7,1.414,12.828,2.01l.034-.307h-.307V9.846h.307l.034-.307c-.852-.1-1.278-.153-2.129-.273l-.341-.051V26.081l.273.034c2.112.273,3.186.409,5.315.613l.341.034V21.431H16.3l-.034.307c2.146.221,3.22.307,5.349.46V21.89h-.29V34.36h.307l.017-.307v.307h.29V21.6h-.29c-2.129-.17-3.2-.256-5.332-.477l-.341-.034v5.349h.307l.034-.307c-2.112-.221-3.169-.341-5.3-.613l-.034.307h.307V9.574h-.307l-.034.307c.852.119,1.278.17,2.129.273l.341.034V2.112l-.273-.034C8.041,1.465,5.485,1.073.375.068L.017,0V8.092l.238.051c.8.153,1.21.238,2.01.392l.051-.307H2.01V24.48h.307l.051-.307c-.8-.153-1.21-.221-2.01-.375L0,23.73v8.092l.238.051A145.674,145.674,0,0,0,21.6,34.7h.324v-.307h-.307Z" transform="translate(30.766 22.844)" fill="#020202"/><path d="M1.721,7.547,0,7.461V0C4.583.256,6.882.307,11.465.307V7.768H10.409V18.279a17.179,17.179,0,0,0,.511,5.145,1.85,1.85,0,0,0,1.857,1.346,1.672,1.672,0,0,0,1.6-1.158,13.8,13.8,0,0,0,.494-4.6V7.751H13.748V.29C17.121.256,18.807.2,22.163.051V7.513c-.715.034-1.056.051-1.772.068V18.892a23.757,23.757,0,0,1-.9,7.121,8.66,8.66,0,0,1-3,4.361,8.3,8.3,0,0,1-5.145,1.6,10.651,10.651,0,0,1-4.361-.869,7.138,7.138,0,0,1-3.066-2.555,12.036,12.036,0,0,1-1.652-4.037,33.021,33.021,0,0,1-.545-6.984V7.547Z" transform="translate(55.535 26.183)" fill="#b7cf61"/><path d="M2.044,7.888V7.581L.341,7.5V7.8H.63V.341H.324V.648C4.906.9,7.223.955,11.805.955V.648H11.5V8.109h.307V7.8H10.443V18.62a17.48,17.48,0,0,0,.528,5.247,2.5,2.5,0,0,0,.818,1.141,2.119,2.119,0,0,0,1.295.392h0a1.9,1.9,0,0,0,1.141-.358,2.349,2.349,0,0,0,.75-.988,13.81,13.81,0,0,0,.528-4.719V7.769H14.071v.307h.307V.614h-.307V.921C17.444.886,19.131.835,22.5.682V.375H22.18V7.837h.307V7.53c-.716.034-1.073.051-1.789.068h-.29V19.217a22.941,22.941,0,0,1-.886,7.019,8.4,8.4,0,0,1-2.9,4.225,7.923,7.923,0,0,1-4.957,1.533h0v0a10.352,10.352,0,0,1-4.242-.852A6.664,6.664,0,0,1,4.5,28.688a12,12,0,0,1-1.618-3.935,33.336,33.336,0,0,1-.545-6.916V7.547h-.29v.29H1.738v10A32.71,32.71,0,0,0,2.3,24.889,12.814,12.814,0,0,0,4,29.029a7.355,7.355,0,0,0,3.186,2.658,11.009,11.009,0,0,0,4.48.9h0v0h0v0A8.547,8.547,0,0,0,17,30.92a9.041,9.041,0,0,0,3.1-4.514,23.916,23.916,0,0,0,.92-7.206V7.888h-.307v.307c.716-.034,1.073-.034,1.772-.068h.29V.035h-.324c-3.373.153-5.042.2-8.415.238h-.307V8.348h1.431V8.041h-.307V19.3a13.665,13.665,0,0,1-.477,4.48,1.83,1.83,0,0,1-.545.733,1.3,1.3,0,0,1-.784.238v0h0a1.568,1.568,0,0,1-.937-.273,1.812,1.812,0,0,1-.613-.869A16.663,16.663,0,0,1,11,18.586V8.075H10.7v.307h1.38V.307h-.307C7.189.307,4.906.256.324,0H0V8.058H.29c.681.051,1.039.068,1.721.1V7.854h.017Z" transform="translate(55.212 25.842)" fill="#020202"/><path d="M12.18,31.488c-4.872.477-7.308.681-12.18.971V25c.733-.051,1.09-.068,1.823-.119V8.609C1.09,8.66.733,8.677,0,8.728V1.267C4.872.977,7.308.773,12.18.3c1.09-.1,2.112-.187,3.049-.238s1.738-.068,2.4-.051a14.717,14.717,0,0,1,1.84.17,5.671,5.671,0,0,1,3.816,2.555,9.394,9.394,0,0,1,1.482,5.417,11.363,11.363,0,0,1-.9,4.514A7.69,7.69,0,0,1,21.5,15.832c1.244,2.692,1.857,4.037,3.083,6.729.647-.085.971-.136,1.618-.221V29.8c-3.22.443-4.838.647-8.058,1.022-1.959-4.872-2.93-7.308-4.872-12.2-1.107.119-1.652.17-2.76.273v5.264c.681-.068,1.022-.1,1.687-.17v7.461ZM10.494,7.3v5.945l.971-.085a12.871,12.871,0,0,0,2.572-.426,2.407,2.407,0,0,0,1.227-1.022,3.55,3.55,0,0,0,.494-1.959,3.142,3.142,0,0,0-.494-1.874,1.825,1.825,0,0,0-1.278-.767,17.335,17.335,0,0,0-2.709.119C10.954,7.263,10.8,7.28,10.494,7.3Z" transform="translate(81.702 24.78)" fill="#b7cf61"/><path d="M12.436,31.771l-.034-.307c-4.872.477-7.291.681-12.163.971v.307H.562V25.281H.255v.307c.75-.051,1.107-.068,1.84-.119h.29V8.586L2.061,8.6c-.733.051-1.09.068-1.823.119v.307H.562V1.567H.255l.017.307C5.145,1.584,7.581,1.38,12.453.9c1.09-.1,2.1-.187,3.032-.238C16.15.63,16.746.613,17.257.613h.6a13.876,13.876,0,0,1,1.789.17A5.432,5.432,0,0,1,23.253,3.2,9.07,9.07,0,0,1,24.684,8.45a11,11,0,0,1-.869,4.4,7.39,7.39,0,0,1-2.266,3.049l-.187.153.1.221c1.244,2.692,1.857,4.054,3.083,6.729l.085.2.221-.034c.647-.085.971-.136,1.618-.221l-.034-.307h-.307V30.1h.307l-.034-.307c-3.22.443-4.838.647-8.058,1.022l.034.307.29-.119c-1.959-4.872-2.93-7.308-4.872-12.2l-.085-.221h-.221c-1.107.136-1.652.187-2.76.29l-.273.034v5.877l.341-.034c.681-.068,1.022-.1,1.687-.17l-.034-.307h-.307v7.461h.307l-.034-.307.034.307h.307v-7.8l-.341.034-1.687.17.034.307h.307V19.182h-.307l.034.307c1.107-.1,1.652-.153,2.76-.273l-.034-.307-.29.119c1.959,4.889,2.93,7.342,4.872,12.2l.085.221.239-.034c3.22-.375,4.838-.579,8.075-1.022l.256-.034V22.282l-.341.051c-.647.085-.971.136-1.6.221l.034.307.273-.119c-1.244-2.692-1.857-4.037-3.083-6.729l-.273.119.187.239a7.992,7.992,0,0,0,2.47-3.288,11.657,11.657,0,0,0,.92-4.634,9.793,9.793,0,0,0-1.533-5.588A5.945,5.945,0,0,0,19.8.187,15.5,15.5,0,0,0,17.921,0h-.613C16.78,0,16.167.017,15.5.051,14.565.1,13.543.187,12.453.29,7.581.767,5.162.971.29,1.261H0V9.352H.324c.732-.068,1.09-.085,1.823-.136V8.909H1.823V25.161h.307l-.017-.307c-.732.051-1.09.068-1.823.119H0v8.092l.324-.017c4.872-.29,7.308-.494,12.18-.971l.273-.034v-.273h-.341ZM10.749,7.581h-.307v6.286l.341-.034.971-.085a14.387,14.387,0,0,0,2.64-.426,2.661,2.661,0,0,0,1.38-1.158,3.912,3.912,0,0,0,.545-2.129,3.436,3.436,0,0,0-.562-2.061,2.1,2.1,0,0,0-1.482-.886c-.153,0-.341-.017-.545-.017-.545,0-1.278.051-2.215.136-.324.034-.477.051-.784.068l-.273.034v.273h.307l.034.307c.324-.034.477-.051.784-.068.937-.085,1.652-.136,2.163-.136a3.722,3.722,0,0,1,.477.017,1.428,1.428,0,0,1,1.056.647,2.812,2.812,0,0,1,.443,1.687,3.3,3.3,0,0,1-.443,1.789,2.093,2.093,0,0,1-1.056.9,13.379,13.379,0,0,1-2.5.409l-.971.085.034.307h.307V7.581h-.307l.034.307-.034-.307Z" transform="translate(81.446 24.497)" fill="#020202"/><path d="M12.163,31.788c-4.872.8-7.308,1.175-12.163,1.874V26.2l1.823-.256V9.676L0,9.932V2.47C4.872,1.772,7.308,1.4,12.163.6c1.09-.17,2.112-.324,3.049-.426a23.218,23.218,0,0,1,2.4-.17,12.585,12.585,0,0,1,1.84.085A5.311,5.311,0,0,1,23.27,2.453,9.132,9.132,0,0,1,24.752,7.8a11.589,11.589,0,0,1-.9,4.548,8.362,8.362,0,0,1-2.368,3.288c1.244,2.64,1.857,3.952,3.083,6.593.647-.119.971-.17,1.618-.29V29.4c-3.22.562-4.838.852-8.058,1.4-1.959-4.77-2.93-7.155-4.872-11.925-1.107.187-1.652.273-2.76.443v5.264c.681-.1,1.022-.17,1.687-.273v7.461ZM10.477,7.7v5.945c.392-.068.579-.085.971-.153a15.035,15.035,0,0,0,2.572-.579,2.608,2.608,0,0,0,1.226-1.107,3.673,3.673,0,0,0,.494-1.993,2.927,2.927,0,0,0-.494-1.84,1.667,1.667,0,0,0-1.278-.681,15.621,15.621,0,0,0-2.709.29C10.937,7.632,10.783,7.649,10.477,7.7Z" transform="translate(111.531 20.425)" fill="#b7cf61"/><path d="M12.453,32.044l-.051-.307c-4.872.8-7.291,1.175-12.163,1.874l.051.307H.6V26.456H.29l.051.307,1.823-.256.256-.034V9.608l-.341.051L.256,9.915l.051.307H.613V2.76H.307l.051.307c4.872-.7,7.308-1.073,12.18-1.874,1.09-.17,2.1-.324,3.032-.426.92-.1,1.721-.153,2.368-.17H18.3a12.436,12.436,0,0,1,1.431.085A5.032,5.032,0,0,1,23.338,2.93a8.859,8.859,0,0,1,1.431,5.179,11,11,0,0,1-.886,4.429A7.934,7.934,0,0,1,21.6,15.707l-.187.153.1.221c1.244,2.64,1.857,3.952,3.083,6.593l.1.2.221-.034c.647-.119.971-.17,1.618-.29l-.051-.307h-.307V29.71h.307l-.051-.307c-3.22.562-4.838.852-8.058,1.4l.051.307.29-.119c-1.959-4.77-2.93-7.155-4.872-11.925l-.085-.221-.238.034c-1.107.187-1.652.273-2.76.443l-.256.034v5.877l.358-.051c.681-.1,1.022-.17,1.686-.273L12.5,24.6H12.2v7.461H12.5l-.051-.307.051.307h.307V24.241l-.358.051c-.681.1-1.022.17-1.686.273l.051.307h.307V19.608h-.307l.051.307c1.107-.17,1.652-.273,2.76-.443l-.051-.307-.29.119c1.959,4.77,2.93,7.155,4.872,11.925l.085.221.238-.034c3.22-.545,4.838-.835,8.075-1.4l.255-.051V21.873l-.358.068c-.647.119-.971.17-1.618.29l.051.307.273-.136c-1.244-2.64-1.857-3.952-3.083-6.593l-.273.136.187.238a8.5,8.5,0,0,0,2.453-3.407,11.884,11.884,0,0,0,.92-4.668,9.456,9.456,0,0,0-1.533-5.519,5.643,5.643,0,0,0-4.02-2.5A14.01,14.01,0,0,0,18.3,0h-.375A23.739,23.739,0,0,0,15.5.187c-.937.1-1.959.238-3.066.426C7.564,1.414,5.145,1.789.273,2.487l-.256.034V10.6l.341-.051,1.823-.256-.051-.307H1.823V26.234h.307l-.051-.307-1.823.256L0,26.217v8.075l.341-.051c4.872-.7,7.308-1.073,12.18-1.874l.256-.034v-.256H12.47ZM10.766,7.956H10.46v6.3l.358-.051c.392-.068.579-.085.971-.153a14.981,14.981,0,0,0,2.64-.6,2.855,2.855,0,0,0,1.363-1.227,4.014,4.014,0,0,0,.545-2.146,3.292,3.292,0,0,0-.562-2.027,1.932,1.932,0,0,0-1.5-.8h-.153a19.278,19.278,0,0,0-2.606.29c-.324.051-.477.068-.784.119l-.256.034v.256h.307l.051.307c.324-.051.477-.068.784-.119a18.98,18.98,0,0,1,2.521-.29h.136a1.315,1.315,0,0,1,1.039.579,2.627,2.627,0,0,1,.443,1.652,3.351,3.351,0,0,1-.46,1.823,2.3,2.3,0,0,1-1.073.971,15.462,15.462,0,0,1-2.521.562c-.392.068-.579.1-.971.153l.051.307h.307V7.956h-.307l.051.307-.051-.307Z" transform="translate(111.241 20.17)" fill="#020202"/><path d="M12.163,31.845C7.291,32.7,4.855,33.14,0,34.009V26.547c.733-.136,1.09-.187,1.823-.324V9.955c-.733.136-1.09.187-1.823.324V2.817C4.872,1.948,7.308,1.522,12.163.653c1.09-.187,2.112-.341,3.049-.46.937-.1,1.738-.17,2.4-.187a12.7,12.7,0,0,1,1.84.068A5.311,5.311,0,0,1,23.27,2.442a9.152,9.152,0,0,1,1.482,5.366,11.59,11.59,0,0,1-.9,4.548,8.3,8.3,0,0,1-2.368,3.271c1.244,2.64,1.857,3.969,3.083,6.61.647-.1.971-.153,1.618-.273v7.461c-3.22.528-4.838.818-8.058,1.363-1.959-4.753-2.93-7.138-4.872-11.891-1.107.187-1.652.29-2.76.494v5.264c.681-.119,1.022-.187,1.687-.307v7.461ZM10.477,7.791v5.945l.971-.17a14.153,14.153,0,0,0,2.572-.613,2.7,2.7,0,0,0,1.227-1.107,3.714,3.714,0,0,0,.494-1.993,3,3,0,0,0-.494-1.84,1.667,1.667,0,0,0-1.278-.681,16.827,16.827,0,0,0-2.709.324C10.937,7.706,10.783,7.74,10.477,7.791Z" transform="translate(141.342 15.189)" fill="#b7cf61"/><path d="M12.5,32.095l-.051-.307C7.581,32.64,5.145,33.083.29,33.951l.051.307H.647V26.8H.341l.051.307c.733-.136,1.09-.187,1.823-.324l.256-.051V9.863l-.358.068c-.733.136-1.09.187-1.823.324l.051.307H.647V3.1H.341l.051.307C5.264,2.538,7.7,2.112,12.555,1.244c1.09-.187,2.1-.341,3.032-.46.92-.1,1.721-.17,2.368-.187h.409a11.536,11.536,0,0,1,1.38.085A5.033,5.033,0,0,1,23.356,2.93a8.773,8.773,0,0,1,1.431,5.179,11,11,0,0,1-.886,4.429,7.753,7.753,0,0,1-2.283,3.152l-.187.153.1.221c1.244,2.64,1.857,3.969,3.083,6.61l.1.2.221-.034c.647-.1.971-.153,1.6-.273l-.051-.307h-.307v7.461h.307l-.051-.307c-3.22.528-4.838.818-8.075,1.363l.051.307.29-.119c-1.959-4.753-2.93-7.138-4.872-11.891l-.085-.221-.238.034c-1.107.187-1.652.29-2.76.494l-.255.051v5.877l.358-.068c.681-.119,1.022-.187,1.687-.307l-.051-.307H12.18v7.461h.307l-.051-.307.051.307h.307V24.275l-.358.068c-.681.119-1.022.187-1.687.307l.051.307h.307V19.693H10.8l.051.307c1.107-.187,1.652-.29,2.76-.494L13.56,19.2l-.29.119c1.959,4.753,2.93,7.121,4.872,11.891l.085.221.239-.034c3.22-.562,4.838-.835,8.058-1.363L26.78,30V21.925l-.358.051c-.647.1-.971.153-1.618.273l.051.307.273-.136c-1.244-2.64-1.857-3.969-3.083-6.61l-.273.136.187.238a8.562,8.562,0,0,0,2.453-3.39,11.885,11.885,0,0,0,.92-4.668A9.549,9.549,0,0,0,23.8,2.589a5.643,5.643,0,0,0-4.02-2.5A12.985,12.985,0,0,0,18.33,0H17.9c-.681.017-1.482.085-2.419.2s-1.959.273-3.066.46C7.547,1.516,5.111,1.959.256,2.828L0,2.879v8.075l.358-.068c.733-.136,1.09-.187,1.823-.324l-.051-.307H1.823V26.507h.307L2.078,26.2c-.732.136-1.09.187-1.823.324L0,26.575V34.65l.358-.068c4.872-.869,7.308-1.295,12.163-2.163l.256-.051v-.256H12.47ZM10.817,8.041h-.307v6.3l.358-.068.971-.17a14.225,14.225,0,0,0,2.64-.63,2.855,2.855,0,0,0,1.363-1.227,4.015,4.015,0,0,0,.545-2.146,3.292,3.292,0,0,0-.562-2.027,1.866,1.866,0,0,0-1.5-.784h-.1a16.734,16.734,0,0,0-2.657.324c-.324.051-.477.085-.784.136l-.256.051v.256h.307l.051.307c.324-.051.477-.085.784-.136A16.514,16.514,0,0,1,14.224,7.9h.085a1.3,1.3,0,0,1,1.039.562,2.627,2.627,0,0,1,.443,1.652,3.414,3.414,0,0,1-.46,1.84,2.342,2.342,0,0,1-1.073.988,14.421,14.421,0,0,1-2.521.6l-.971.17.051.307h.307V8.075h-.307l.051.307-.051-.307Z" transform="translate(141.002 14.94)" fill="#020202"/><path d="M12.163,31.622C7.291,32.3,4.855,32.678,0,33.462V26c.733-.119,1.09-.17,1.823-.29V9.442c-.733.119-1.09.17-1.823.29V2.27C4.872,1.486,7.308,1.112,12.163.43,13.254.277,14.276.158,15.213.09s1.738-.1,2.4-.085a12.168,12.168,0,0,1,1.84.153A5.639,5.639,0,0,1,23.27,2.73a9.525,9.525,0,0,1,1.482,5.434,11.22,11.22,0,0,1-.9,4.5,7.743,7.743,0,0,1-2.368,3.152c1.244,2.709,1.857,4.054,3.083,6.78l1.618-.17v7.461c-3.22.341-4.838.528-8.075.937-1.959-4.855-2.93-7.274-4.872-12.1-1.107.153-1.652.221-2.76.392v5.264c.681-.1,1.022-.153,1.687-.238V31.6ZM10.477,7.5v5.945c.392-.051.579-.085.971-.136A17.259,17.259,0,0,0,14.02,12.8a2.574,2.574,0,0,0,1.227-1.056,3.611,3.611,0,0,0,.494-1.976,3.016,3.016,0,0,0-.494-1.857,1.781,1.781,0,0,0-1.278-.733A15.166,15.166,0,0,0,11.26,7.4c-.324.051-.477.068-.784.119Z" transform="translate(171.137 10.558)" fill="#b7cf61"/><path d="M12.47,31.941l-.034-.307c-4.872.681-7.308,1.056-12.18,1.84l.051.307H.613V26.32H.307l.051.307c.733-.119,1.09-.17,1.823-.29l.255-.034V9.438l-.358.051c-.733.119-1.09.17-1.823.29l.051.307H.613V2.623H.307l.051.307C5.23,2.146,7.649,1.772,12.521,1.09c1.09-.153,2.1-.273,3.015-.341.8-.068,1.482-.085,2.078-.085h.29a11.479,11.479,0,0,1,1.789.153A5.341,5.341,0,0,1,23.3,3.254a9.2,9.2,0,0,1,1.431,5.264,10.917,10.917,0,0,1-.869,4.378A7.268,7.268,0,0,1,21.6,15.911l-.2.153.1.221c1.244,2.709,1.857,4.054,3.083,6.78l.085.2h.221c.647-.1.971-.136,1.6-.2l-.034-.307h-.307v7.461h.307l-.034-.307c-3.22.341-4.838.528-8.075.937l.034.307.29-.119c-1.959-4.855-2.93-7.274-4.872-12.1l-.085-.221-.239.034c-1.107.153-1.652.238-2.76.392l-.255.034v5.877l.341-.051c.681-.1,1.022-.153,1.687-.238l-.034-.307h-.307v7.461h.307l-.034-.307.034.307h.307V24.105l-.341.051c-.681.1-1.022.136-1.687.238l.051.307h.307V19.437h-.307l.051.307c1.107-.153,1.652-.239,2.76-.392l-.034-.307-.29.119c1.959,4.821,2.93,7.24,4.872,12.1l.085.221.238-.034c3.22-.409,4.838-.6,8.058-.937l.273-.034V22.4l-.341.034-1.618.17.034.307.273-.119c-1.244-2.709-1.857-4.071-3.083-6.78l-.273.119.187.238a7.933,7.933,0,0,0,2.47-3.271,11.516,11.516,0,0,0,.92-4.617,9.849,9.849,0,0,0-1.533-5.6A5.993,5.993,0,0,0,19.812.17,12.757,12.757,0,0,0,17.938,0h-.307C17.018,0,16.3.034,15.5.085c-.937.068-1.959.187-3.066.341C7.564,1.107,5.128,1.482.255,2.266L0,2.3v8.075l.358-.051c.733-.119,1.09-.17,1.823-.29l-.051-.307H1.823V25.979h.307l-.051-.307c-.733.119-1.09.17-1.823.29L0,26v8.075l.358-.051c4.872-.784,7.291-1.158,12.163-1.84l.256-.034v-.273H12.47ZM10.783,7.819h-.307v6.3l.341-.051c.392-.051.579-.085.971-.136a16.857,16.857,0,0,0,2.64-.528,2.732,2.732,0,0,0,1.38-1.192,3.912,3.912,0,0,0,.545-2.129,3.381,3.381,0,0,0-.562-2.044,2.065,2.065,0,0,0-1.5-.852h-.307a17.254,17.254,0,0,0-2.47.238c-.324.051-.477.068-.784.119l-.256.034v.256h.307l.051.307c.324-.051.477-.068.784-.119A18.916,18.916,0,0,1,14,7.8h.256a1.413,1.413,0,0,1,1.056.613,2.775,2.775,0,0,1,.443,1.687,3.249,3.249,0,0,1-.46,1.806,2.059,2.059,0,0,1-1.073.937,14.094,14.094,0,0,1-2.521.494c-.392.051-.579.085-.971.136l.051.307h.307V7.836h-.307l.051.307-.051-.307Z" transform="translate(170.831 10.238)" fill="#020202"/><path d="M12.18,31.264c-4.872.273-7.308.46-12.18.92V24.723l1.823-.17V8.284L0,8.454V.992C4.872.533,7.308.345,12.18.073,13.271.021,14.293-.013,15.23,0a19.089,19.089,0,0,1,2.4.136,11.4,11.4,0,0,1,1.84.341,6.437,6.437,0,0,1,3.816,2.964,10.3,10.3,0,0,1,1.482,5.6,10.5,10.5,0,0,1-.9,4.4,6.58,6.58,0,0,1-2.368,2.9c1.244,2.828,1.857,4.259,3.084,7.1H26.2v7.461c-3.22,0-4.838,0-8.075.119-1.959-5.042-2.93-7.547-4.872-12.538-1.107.051-1.652.085-2.76.153v5.264c.681-.034,1.022-.068,1.687-.1v7.461ZM10.494,7.006v5.945c.392-.017.579-.034.971-.051a14.872,14.872,0,0,0,2.572-.29,2.261,2.261,0,0,0,1.226-.954,3.391,3.391,0,0,0,.494-1.925,3.3,3.3,0,0,0-.494-1.908,1.92,1.92,0,0,0-1.278-.835,13.654,13.654,0,0,0-2.709,0c-.324.017-.477.034-.784.051Z" transform="translate(200.932 7.9)" fill="#b7cf61"/><path d="M12.4,31.515v-.307c-4.889.273-7.325.46-12.2.92l.034.307H.545V24.974H.238l.034.307L2.1,25.11h.273V8.211l-.324.034-1.823.17.034.307H.562V1.261H.255l.034.307C5.162,1.107,7.581.92,12.453.647,13.339.6,14.19.579,14.974.579h.511a18.506,18.506,0,0,1,2.368.136,12.918,12.918,0,0,1,1.789.324,6.2,6.2,0,0,1,3.646,2.828A9.981,9.981,0,0,1,24.718,9.3a10.2,10.2,0,0,1-.869,4.276A6.336,6.336,0,0,1,21.6,16.354l-.221.136.1.238c1.244,2.828,1.857,4.259,3.083,7.1l.085.187h1.806v-.307h-.307v7.461h.307v-.307H25.178c-2.436,0-4.02.034-6.8.119v.307l.29-.1c-1.959-5.042-2.93-7.547-4.872-12.538l-.085-.2h-.221l-2.76.17h-.29v5.894l.324-.017c.681-.034,1.005-.068,1.687-.1v-.307h-.324V31.55h.307v0h.324V23.764h-.324c-.681.051-1.022.068-1.686.119v.307h.324V18.926h-.307v.307c1.124-.068,1.669-.1,2.777-.153v-.307l-.307.1c1.959,4.991,2.93,7.513,4.872,12.538l.085.2h.221c2.777-.085,4.344-.119,6.78-.119H26.78V23.424H24.854v.307l.273-.119c-1.243-2.845-1.857-4.276-3.083-7.1l-.273.119.17.256a6.83,6.83,0,0,0,2.47-3.032,10.68,10.68,0,0,0,.937-4.531A10.61,10.61,0,0,0,23.815,3.56,6.676,6.676,0,0,0,19.829.477,12.221,12.221,0,0,0,17.955.136,23.684,23.684,0,0,0,15.519,0h-.511c-.8,0-1.652.017-2.555.068C7.581.341,5.145.528.273.988L0,1.022V9.1l.341-.034,1.823-.17-.034-.307H1.823V24.838h.307L2.1,24.531.273,24.7,0,24.735V32.81l.341-.034c4.872-.46,7.291-.647,12.163-.92h.29V31.55h-.307ZM10.715,7.257h-.307v6.269h.324a9.3,9.3,0,0,1,.971-.068,14.229,14.229,0,0,0,2.64-.307,2.53,2.53,0,0,0,1.4-1.073,3.752,3.752,0,0,0,.545-2.1A3.528,3.528,0,0,0,15.724,7.9a2.246,2.246,0,0,0-1.465-.971,7.577,7.577,0,0,0-1.209-.068c-.443,0-.954,0-1.55.051-.324.017-.477.034-.784.051h-.29v.307h.307v.307c.341-.017.494-.034.8-.051.6-.034,1.107-.051,1.516-.051a6.2,6.2,0,0,1,1.124.068,1.588,1.588,0,0,1,1.073.715A3.028,3.028,0,0,1,15.69,10a3.129,3.129,0,0,1-.443,1.755,1.936,1.936,0,0,1-1.056.835,15.782,15.782,0,0,1-2.521.273c-.392.017-.579.034-.971.051v.307h.324V7.274h-.307l.017.307V7.274Z" transform="translate(200.711 7.649)" fill="#020202"/><path d="M13.083,31.873c-5.23-.46-7.853-.579-13.083-.681V23.73c.869.017,1.312.034,2.181.051V7.513C1.312,7.479.869,7.479,0,7.461V0C5.5.1,8.245.256,13.73.75c3.152.29,5.468.988,6.916,2.044a9.473,9.473,0,0,1,3.22,3.986,12.825,12.825,0,0,1,1.039,5.077,11.035,11.035,0,0,1-1.226,5.281,6.235,6.235,0,0,1-3.237,2.743,15.307,15.307,0,0,1-6.116.29c-1.4-.136-2.1-.187-3.492-.29v4.378c.9.068,1.346.1,2.249.187v7.427ZM10.834,7.325v5.86c.681.051,1.022.085,1.687.136a4.12,4.12,0,0,0,2.572-.358c.511-.324.767-1.073.767-2.181a3.117,3.117,0,0,0-.426-1.908,2.044,2.044,0,0,0-1.073-1.039,8.372,8.372,0,0,0-2.2-.392c-.545-.051-.818-.068-1.346-.1Z" transform="translate(230.761 7.649)" fill="#b7cf61"/><path d="M13.39,32.163l.034-.307c-5.247-.46-7.87-.579-13.117-.681v.307H.6V24.02H.29v.307c.869.017,1.295.034,2.163.051H2.76V7.53H2.47C1.6,7.5,1.158,7.479.29,7.461v.307h.29V.307H.273V.613c5.485.1,8.228.256,13.714.75a14.058,14.058,0,0,1,6.78,1.976,9.159,9.159,0,0,1,3.117,3.867,12.517,12.517,0,0,1,1.005,4.957,9.8,9.8,0,0,1-1.176,5.128A5.855,5.855,0,0,1,20.63,19.9a9.49,9.49,0,0,1-3.2.409c-.818,0-1.755-.051-2.777-.153-1.4-.136-2.1-.187-3.492-.29h-.324v4.974l.29.017c.9.068,1.346.1,2.249.187l.034-.307H13.1V32.2h.307l.034-.307-.034.307h.307V24.463h-.273c-.9-.1-1.363-.136-2.266-.2v.307h.29V20.187h-.307v.307c1.38.1,2.061.17,3.458.29,1.039.1,1.993.153,2.845.153a10.031,10.031,0,0,0,3.407-.46,6.516,6.516,0,0,0,3.39-2.862,10.332,10.332,0,0,0,1.261-5.451,13.118,13.118,0,0,0-1.056-5.2,9.882,9.882,0,0,0-3.322-4.123c-1.516-1.09-3.884-1.806-7.07-2.1C8.569.256,5.809.119.307,0H0V8.058H.29c.869.017,1.295.034,2.164.068V7.819h-.29V24.071H2.47v-.307C1.6,23.73,1.175,23.73.307,23.713H0v8.058H.29c5.23.1,7.836.238,13.066.681l.324.034v-.324h-.29ZM11.141,7.615h-.307v6.15h.29c.681.068,1.005.1,1.687.153.29.017.545.034.8.034a3.637,3.637,0,0,0,1.959-.426,2.772,2.772,0,0,0,.92-2.453,4.406,4.406,0,0,0-.46-2.044,2.414,2.414,0,0,0-1.243-1.192A8.6,8.6,0,0,0,12.5,7.427c-.545-.051-.818-.068-1.363-.1h-.324v.307h.307v.307c.511.034.784.068,1.329.1a7.976,7.976,0,0,1,2.1.375,1.749,1.749,0,0,1,.92.9,3.78,3.78,0,0,1,.392,1.772c0,1.09-.255,1.7-.63,1.925a3.162,3.162,0,0,1-1.636.341,5.774,5.774,0,0,1-.75-.034c-.681-.051-1.022-.085-1.687-.136v.307h.29V7.632h-.307l-.017.307V7.632Z" transform="translate(230.454 7.359)" fill="#020202"/><path d="M13.1,34.1A132.692,132.692,0,0,0,0,31.192V23.73c.869.153,1.312.238,2.181.409V7.87C1.312,7.7.869,7.615,0,7.461V0A131.491,131.491,0,0,1,13.731,3.083a16.747,16.747,0,0,1,6.916,3.339,12.209,12.209,0,0,1,3.22,4.617,14.358,14.358,0,0,1,1.039,5.281,9.658,9.658,0,0,1-1.226,5.042,4.782,4.782,0,0,1-3.237,2.112c-1.312.221-3.356-.1-6.116-.852-1.4-.392-2.1-.562-3.492-.92v4.378c.9.221,1.346.341,2.249.579v7.461ZM10.852,9.165v5.86c.681.17,1.022.256,1.687.426a4.235,4.235,0,0,0,2.572.119q.767-.358.767-2.044a3.4,3.4,0,0,0-.426-1.976,2.785,2.785,0,0,0-1.073-1.244,8.547,8.547,0,0,0-2.2-.784c-.545-.136-.818-.2-1.346-.341Z" transform="translate(259.551 10.392)" fill="#b7cf61"/><path d="M13.407,34.446l.085-.29A134.1,134.1,0,0,0,.375,31.243l-.051.307H.63V24.088H.324l-.051.307c.869.153,1.295.238,2.163.409l.358.068V7.99l-.238-.051c-.869-.17-1.312-.256-2.181-.409l-.051.307H.63V.375H.324L.273.681A133.155,133.155,0,0,1,13.986,3.765a16.81,16.81,0,0,1,6.8,3.254,11.827,11.827,0,0,1,3.134,4.514,13.771,13.771,0,0,1,1.005,5.162,8.452,8.452,0,0,1-1.175,4.872,4.426,4.426,0,0,1-3.032,1.976,4.5,4.5,0,0,1-.869.068,20.971,20.971,0,0,1-5.111-.92c-1.4-.392-2.1-.562-3.509-.92l-.375-.1v5.008l.221.051c.9.221,1.346.341,2.249.579l.085-.29H13.1V34.48h.307l.085-.29-.085.29h.307v-7.7l-.221-.068c-.9-.238-1.363-.358-2.266-.579l-.068.29h.307V22.044h-.307l-.068.29c1.4.358,2.1.528,3.492.92a21.717,21.717,0,0,0,5.281.937,5.661,5.661,0,0,0,.971-.068,5.153,5.153,0,0,0,3.441-2.232,9.141,9.141,0,0,0,1.278-5.213A14.558,14.558,0,0,0,24.5,11.294a12.646,12.646,0,0,0-3.3-4.736,17.31,17.31,0,0,0-7.053-3.407A133.075,133.075,0,0,0,.375.068L.017,0V8.075l.256.051c.869.153,1.295.238,2.163.409l.051-.307H2.18V24.5h.307l.051-.307c-.869-.17-1.312-.256-2.18-.409L0,23.713v8.075l.255.051a133.04,133.04,0,0,1,13.066,2.9l.375.1v-.392h-.29ZM11.158,9.506h-.307v6.1l.221.051c.681.17,1.005.256,1.687.426a7.042,7.042,0,0,0,1.806.273,2.276,2.276,0,0,0,.988-.187,1.412,1.412,0,0,0,.732-.852,4.081,4.081,0,0,0,.221-1.465,5.041,5.041,0,0,0-.443-2.112,3.183,3.183,0,0,0-1.192-1.38,9.9,9.9,0,0,0-2.266-.818L11.243,9.2l-.375-.1v.392h.307l-.068.29c.545.136.818.2,1.346.341a8.728,8.728,0,0,1,2.112.75,2.3,2.3,0,0,1,.954,1.107,4.308,4.308,0,0,1,.392,1.857,3.809,3.809,0,0,1-.17,1.244.927.927,0,0,1-.426.528,1.678,1.678,0,0,1-.733.119,6.992,6.992,0,0,1-1.652-.256c-.681-.17-1.022-.273-1.687-.443l-.068.29h.307V9.455h-.307l-.068.29.068-.29Z" transform="translate(259.244 10.051)" fill="#020202"/></g></svg>