<svg xmlns="http://www.w3.org/2000/svg" width="255.292" height="122.842" viewBox="0 0 255.292 122.842"><path d="M41.14,0H214.152a41.157,41.157,0,0,1,41.14,41.14V81.7a41.157,41.157,0,0,1-41.14,41.14H41.14A41.157,41.157,0,0,1,0,81.7V41.14A41.157,41.157,0,0,1,41.14,0Z" transform="translate(0)" fill="#ff85c8"/><path d="M195.245,183.554a12.224,12.224,0,0,0-11.874-12.214,12.216,12.216,0,0,0-8.807-20.7c-6.746,0-7.53,1.925-9.761,4.872A12.231,12.231,0,0,0,152.98,146.4c-5.673,0-12.231,5.485-12.231,12.231s.17,2.215.443,3.254a12.483,12.483,0,0,0-2.9-.358,12.232,12.232,0,0,0-12.231,12.231c0,6.746,2.4,8.347,5.962,10.494a12.229,12.229,0,0,0,5.6,23.1c6.746,0,3.424-.375,4.94-1.039-.017.273-.034.545-.034.818a12.232,12.232,0,0,0,12.231,12.231c6.746,0,10.357-3.8,11.788-8.978A12.221,12.221,0,0,0,187.7,202.02c0-6.746-.715-4.651-1.908-6.559a12.206,12.206,0,0,0,9.472-11.908Z" transform="translate(-104.038 -121.46)" fill="#f9ad49"/><path d="M192.258,180.65h.613a12.842,12.842,0,0,0-12.47-12.828v.613c-.017,0,.426.426.426.426a12.834,12.834,0,1,0-19.505-16.609l.494.375.6-.153a12.843,12.843,0,0,0-25.263,3.271,12.378,12.378,0,0,0,.477,3.407l.6-.17.153-.6a12.84,12.84,0,0,0-9.642,23.492l.324-.528-.29-.545a12.841,12.841,0,0,0,11.056,23.168l-.256-.562-.613-.034c-.017.273-.051.545-.051.869a12.845,12.845,0,0,0,25.229,3.407l-.6-.17-.443.426a12.834,12.834,0,0,0,20.187-15.673l-.528.324.136.6a12.83,12.83,0,0,0,9.949-12.521h-1.244a11.619,11.619,0,0,1-8.995,11.311l-.852.2.477.733a11.6,11.6,0,0,1-18.245,14.173l-.75-.8-.29,1.056a11.617,11.617,0,0,1-22.81-3.1c0-.239.017-.494.034-.784l.068-1.022-.937.409a11.618,11.618,0,0,1-10.017-20.954l.988-.511-.954-.562a11.607,11.607,0,0,1,8.722-21.243l1.022.256-.273-1.022a11.6,11.6,0,1,1,22.4-6.048l.324,1.227.767-1.022a11.6,11.6,0,1,1,17.632,15.025l-.971,1.005,1.4.034a11.617,11.617,0,0,1,11.277,11.6h.613Z" transform="translate(-101.051 -118.556)" fill="#020202"/><ellipse cx="22.47" cy="22.47" rx="22.47" ry="22.47" transform="translate(28.857 79.324) rotate(-75.7)" fill="#e37f6e"/><path d="M239.936,257.983h-.613a21.869,21.869,0,1,1-6.405-15.451,21.728,21.728,0,0,1,6.405,15.451h1.244a23.083,23.083,0,1,0-23.083,23.083,23.09,23.09,0,0,0,23.083-23.083h-.613Z" transform="translate(-161.283 -194.884)" fill="#020202"/><path d="M258.844,391.529a15.036,15.036,0,0,1-13.322-8.041.655.655,0,0,1,1.158-.613,13.689,13.689,0,0,0,12.146,7.342,13.861,13.861,0,0,0,12.351-7.717.663.663,0,1,1,1.192.579,14.946,14.946,0,0,1-13.526,8.467Z" transform="translate(-203.633 -317.033)" fill="#020202"/><path d="M217.375,358.474a4.486,4.486,0,0,1-3.833-2.146.657.657,0,0,1,1.124-.681,3.129,3.129,0,0,0,2.709,1.516,3.174,3.174,0,0,0,3.169-3.169c0-1.755-.119-.988-.341-1.431a.657.657,0,0,1,.29-.886.672.672,0,0,1,.886.29,4.384,4.384,0,0,1,.477,2.027A4.486,4.486,0,0,1,217.375,358.474Z" transform="translate(-177.086 -291.713)" fill="#020202"/><path d="M392.58,358.438a4.486,4.486,0,0,1-4.48-4.48c0-2.47.17-1.4.477-2.027a.659.659,0,0,1,1.175.6,3.17,3.17,0,0,0,2.828,4.6,2.514,2.514,0,0,0,2.709-1.516.657.657,0,0,1,1.124.681,4.444,4.444,0,0,1-3.833,2.146Z" transform="translate(-321.986 -291.676)" fill="#020202"/><path d="M672.509,153.367h-8.637v2.658h-7.479v-5.4H662.9V143.93h-6.508V138.87h7.479v2.658h8.637V131h-31.43v7.87h2.606v17.155H641.13v7.87h31.379Zm-43.491,9.8a10.457,10.457,0,0,0,5.843-3,8.053,8.053,0,0,0,2.129-5.622,6.893,6.893,0,0,0-1.891-4.991,11.048,11.048,0,0,0-5.349-3.22,9.641,9.641,0,0,0,4.31-2.368,5.852,5.852,0,0,0,1.721-4.446,7.626,7.626,0,0,0-1.823-5.008,9,9,0,0,0-5.008-2.811,46.679,46.679,0,0,0-9.148-.681H599.7v7.87h2.862v17.155H599.7v7.87h18.62a58.212,58.212,0,0,0,10.715-.733Zm-11.38-24.957c2.334,0,3.765.307,4.276.92a3.1,3.1,0,0,1,.784,2.078,3.167,3.167,0,0,1-.852,2.181c-.6.545-1.857.835-3.765.835H615.27v-6.013Zm.443,11.993c2.027,0,3.407.256,4.123.784a2.883,2.883,0,0,1,1.056,2.487,2.765,2.765,0,0,1-1.175,2.5,8.14,8.14,0,0,1-3.952.715H615.27v-6.473h2.811Z" transform="translate(-497.539 -108.684)" fill="#f7eee5"/><path d="M669.605,150.381v-.613h-9.25v2.658H654.12v-4.157h6.508v-7.921H654.12v-3.833h6.235v2.64h9.863V127.4H637.545v9.114h2.606v15.911H637.6v9.114h32.623V149.784h-.613v.613h-.613v9.9H638.84v-6.644h2.555V135.27h-2.606v-6.644h30.2v9.284H661.6v-2.64h-8.705v6.3H659.4v5.451h-6.507v6.627H661.6v-2.658h8.024v-.613h0Zm-43.491,9.8.119.613a11.082,11.082,0,0,0,6.184-3.186,8.643,8.643,0,0,0,2.3-6.048,8.181,8.181,0,0,0-2.044-5.4,11.554,11.554,0,0,0-5.639-3.407l-.17.6.153.6a10.265,10.265,0,0,0,4.583-2.521,6.481,6.481,0,0,0,1.908-4.889,8.211,8.211,0,0,0-1.959-5.417A9.6,9.6,0,0,0,626.2,128.1a46.908,46.908,0,0,0-9.284-.7H596.2v9.114h2.862v15.911H596.2v9.114h19.233a58.24,58.24,0,0,0,10.834-.75l-.119-.613-.119-.613a58.07,58.07,0,0,1-10.6.715H597.444v-6.644h2.862V135.253h-2.862v-6.644h19.488a46.294,46.294,0,0,1,9.029.681,8.289,8.289,0,0,1,4.668,2.606,6.846,6.846,0,0,1,1.669,4.617,5.224,5.224,0,0,1-1.533,4,9.089,9.089,0,0,1-4.037,2.215l-2.112.562,2.1.63a10.37,10.37,0,0,1,5.06,3.032,6.822,6.822,0,0,1,1.738,4.583,7.4,7.4,0,0,1-1.959,5.213,9.727,9.727,0,0,1-5.5,2.811l.119.613Zm-11.38-24.957v.613c2.283-.034,3.629.392,3.816.7a2.566,2.566,0,0,1,.63,1.687,2.272,2.272,0,0,1-.664,1.738c-.324.341-1.482.664-3.322.647H613v-4.77h1.755v-1.227H611.77v7.24h3.441c1.959,0,3.322-.238,4.174-.988a3.584,3.584,0,0,0,1.056-2.623,3.838,3.838,0,0,0-.92-2.487c-.852-.92-2.368-1.107-4.753-1.141v.613Zm.443,11.993v.613a7.2,7.2,0,0,1,3.748.664,2.313,2.313,0,0,1,.818,1.993,2.056,2.056,0,0,1-.886,1.976,7.7,7.7,0,0,1-3.629.63H612.98v-5.247h2.2V146.6h-3.441v7.717h3.475a8.493,8.493,0,0,0,4.259-.8,3.307,3.307,0,0,0,1.482-3.032,3.578,3.578,0,0,0-1.312-2.981c-.954-.681-2.4-.886-4.48-.9v.613Z" transform="translate(-494.635 -105.697)" fill="#020202"/><path d="M730.958,385.732h-8.637v2.658h-7.478v-5.4h6.507v-6.695h-6.507v-5.06h7.478v2.658h8.637V363.364h-31.43v7.87h2.606v17.155h-2.555v7.87h31.379ZM680.7,388.969q-5.545,0-5.537-9.216c0-6.15,1.789-9.2,5.349-9.2s2.436.426,3.458,1.278a7.1,7.1,0,0,1,2.146,3.543h8.211v-12.01h-7.9v2.2a14.834,14.834,0,0,0-9.438-2.862,16.293,16.293,0,0,0-11.618,4.991,17.526,17.526,0,0,0-4.463,12.129,16.923,16.923,0,0,0,4.565,12.01q4.548,4.932,14,4.94c6.3,0,8.245-1.124,10.886-3.39a15.033,15.033,0,0,0,4.992-8.637l-8.535-3q-1.252,7.206-6.1,7.206Zm-23.884-.6h-3V371.218h3v-7.87H638.064v7.87H641.1v17.155h-3.032v7.87H656.82Zm-46.728,0h-2.913V376.788l13.867,19.9H631.88V371.235h2.862v-7.87H621.472v7.87h2.675v9.318l-11.959-17.189H596.6v7.87h2.879v17.155H596.6v7.87h13.509v-7.87Z" transform="translate(-494.967 -300.913)" fill="#f7eee5"/><path d="M727.888,382.5v-.613h-9.25v2.641H712.4v-4.157h6.507v-7.921H712.4v-3.833h6.235v2.64H728.5V359.5H695.828v9.114h2.606v15.911h-2.555v9.114H728.5V381.883h-.613v.613h-.613v9.9H697.122V385.75h2.555V367.369h-2.607v-6.644h30.2v9.284h-7.393v-2.64h-8.705v6.3h6.508v5.451h-6.508v6.627h8.705v-2.658h8.024v-.613h0Zm-50.254,3.237v-.613c-3.2,0-4.855-2.5-4.923-8.6.068-6.1,1.669-8.586,4.736-8.586a4.6,4.6,0,0,1,3.049,1.124,6.567,6.567,0,0,1,1.959,3.237l.119.443h9.3V359.481h-9.131v2.811h.613l.375-.494a17.019,17.019,0,0,0-21.89,2.2,18.192,18.192,0,0,0-4.634,12.555,17.674,17.674,0,0,0,4.736,12.436c3.186,3.458,8.041,5.145,14.463,5.145,4.719,0,8.5-1.158,11.277-3.526a15.684,15.684,0,0,0,5.2-8.978l.1-.528-9.744-3.424-.119.716c-.869,4.719-2.641,6.678-5.485,6.695v1.244c3.612.017,5.911-2.828,6.712-7.717l-.613-.1-.2.579,8.535,3,.2-.579-.613-.119a14.355,14.355,0,0,1-4.787,8.279c-2.487,2.129-5.945,3.237-10.477,3.237-6.218,0-10.664-1.618-13.543-4.736a16.329,16.329,0,0,1-4.4-11.6,16.887,16.887,0,0,1,4.31-11.72,15.8,15.8,0,0,1,20.2-2.061l1.005.784v-2.862h6.661v10.783h-7.581v.613l.6-.17a7.618,7.618,0,0,0-2.351-3.85,5.893,5.893,0,0,0-3.85-1.431,4.989,4.989,0,0,0-4.548,2.606c-.971,1.687-1.414,4.088-1.414,7.206,0,3.135.46,5.537,1.465,7.24a5.164,5.164,0,0,0,4.685,2.606v-.579Zm-23.884-.6v-.613h-2.385V368.612h3V359.5H634.381v9.114h3.032v15.911h-3.032v9.114h19.982v-9.114h-.613v.613h-.613v7.257H635.608V385.75h3.032V367.369h-3.032v-6.644H653.12v6.644h-3V385.75h3.629v-.613h0Zm-46.728,0v-.613h-2.3v-8.995l12.913,18.534h11.771V368.612h2.862V359.5h-14.5v9.114h2.674v6.729L609.424,359.5H592.9v9.114h2.879v15.911H592.9v9.114h14.736v-9.114h-.613v.613h-.613v7.257H594.144V385.75h2.9V367.369h-2.9v-6.644h14.65l12.913,18.552V367.369h-2.674v-6.644h12.027v6.644H628.2V392.82h-9.9l-14.8-21.243V385.75h3.526v-.613h0Z" transform="translate(-491.897 -297.677)" fill="#020202"/><path d="M293.506,322.118a1.433,1.433,0,0,1,2.64-.256,4.782,4.782,0,0,1,.409,4.242,1.508,1.508,0,0,1-2.76.238,9.364,9.364,0,0,1-.29-4.208Z" transform="translate(-243.405 -266.396)" fill="#020202"/><path d="M340.006,322.118a1.433,1.433,0,0,1,2.641-.256,4.783,4.783,0,0,1,.409,4.242,1.508,1.508,0,0,1-2.76.238,9.365,9.365,0,0,1-.29-4.208Z" transform="translate(-281.984 -266.396)" fill="#020202"/></svg>