<svg xmlns="http://www.w3.org/2000/svg" width="130.43" height="122.692" viewBox="0 0 130.43 122.692"><g transform="matrix(0.921, 0.391, -0.391, 0.921, 36.224, -12.284)"><path d="M201.258,298.5s-.386-23.8-42.222-23.8-40.291,24.558-40.291,24.558,13.438,19.572,45.675,22.264S201.269,298.5,201.269,298.5Z" transform="translate(-104.839 -242.521)" fill="#050505"/><path d="M109.034,434l-15.463,1.229c-.749.749-1.51,1.463-2.283,2.154a52.52,52.52,0,0,1-71.369-1.7l-.457-.456L4,434s4.659,41.531,50.954,41.684h.234C101.5,475.543,109.034,434,109.034,434Z" transform="translate(-3.532 -383.174)" fill="#d64027"/><path d="M106.032,431.175l-.023-.351-15.592,1.241-.094.094c-.749.749-1.5,1.451-2.271,2.13A52.179,52.179,0,0,1,17.163,432.6l-.457-.456-.094-.094L.6,430.8l.047.421a52.144,52.144,0,0,0,8.171,20.941c6.988,10.477,19.876,20.988,43.123,21.047v-.351H51.59v.363h.468c0-.012.105,0,.105,0h.363v-.363h-.351v.351c23.259-.07,36.849-10.57,44.563-21.035a56.154,56.154,0,0,0,9.622-20.93l.082-.445-.457.035.023.351-.339-.059s-.023.152-.094.457a56.458,56.458,0,0,1-10.9,22.124c-7.843,9.645-20.906,18.741-42.5,18.823h-.351v.363h.351v-.351h-.234v.351H52.3v-.351h-.351C28.916,472.46,16.321,462.124,9.4,451.8a53.062,53.062,0,0,1-6.625-14.2A47.4,47.4,0,0,1,1.63,432.93c-.105-.562-.176-1.007-.222-1.3s-.059-.457-.059-.457L1,431.21l-.023.351,15.463,1.229.023-.351-.246.246c.152.152.3.3.468.456a52.888,52.888,0,0,0,71.849,1.709c.784-.691,1.545-1.416,2.306-2.165l-.246-.246.023.351,15.463-1.229-.023-.351-.339-.058.339.058Z" transform="translate(-0.53 -380.349)"/><path d="M269.946,319.984a33.078,33.078,0,0,0,16.341,2.727,2.064,2.064,0,0,0,1.849-2.037v-14.4a2.039,2.039,0,0,0-2.212-2.037c-4.214.363-13.321,2.411-17.078,13.192a2.062,2.062,0,0,0,1.112,2.552Z" transform="translate(-237.276 -268.596)" fill="#fffef4"/><path d="M489.88,320.323a33.054,33.054,0,0,1-15.931,2.669,2.284,2.284,0,0,1-2.049-2.271v-13.93a2.272,2.272,0,0,1,2.47-2.271,19.1,19.1,0,0,1,16.751,12.97,2.274,2.274,0,0,1-1.241,2.844Z" transform="translate(-416.661 -268.841)" fill="#fffef4"/><path d="M79.372,116.712c-15.44-.363-22.8,10.3-22.8,10.3s-7.351-10.664-22.8-10.3C18.339,117.075,4,153.842,4,153.842s19.853,5.513,32.729-3.676c9.716-6.941,16.915-8.217,19.853-8.428,2.95.211,10.137,1.487,19.853,8.428,12.864,9.189,32.729,3.676,32.729,3.676S94.824,117.075,79.384,116.7Z" transform="translate(-3.532 -103.016)" fill="#d64027"/><path d="M75.841,114.151V113.8h-.773a28.676,28.676,0,0,0-16.809,5.221,23.622,23.622,0,0,0-5.5,5.244l.293.2.293-.2a23.622,23.622,0,0,0-5.5-5.244A28.676,28.676,0,0,0,31.032,113.8h-.784c-4,.105-7.866,2.528-11.413,6.064-5.326,5.3-9.985,13.11-13.333,19.619C2.166,145.967.14,151.153.14,151.164l-.14.363.375.105a56.119,56.119,0,0,0,13.461,1.65c6.251,0,13.625-1.147,19.56-5.385,9.669-6.906,16.786-8.159,19.677-8.37l-.023-.351-.023.351c2.88.211,10.008,1.463,19.677,8.37,5.946,4.237,13.309,5.385,19.56,5.385a56.119,56.119,0,0,0,13.461-1.65l.375-.105-.14-.363a139.987,139.987,0,0,0-9.13-18.483,66.477,66.477,0,0,0-9.563-12.818c-3.547-3.523-7.4-5.958-11.413-6.063v.351l-.012.351c3.722.082,7.445,2.388,10.933,5.853,5.232,5.2,9.868,12.97,13.2,19.443,1.662,3.231,3,6.145,3.921,8.241.457,1.054.819,1.9,1.054,2.482s.363.9.363.9l.328-.129-.094-.339s-.082.023-.258.07a56.5,56.5,0,0,1-13.017,1.557c-6.181,0-13.391-1.135-19.15-5.256-9.762-6.977-17.032-8.276-20.04-8.5h-.047c-3.008.211-10.266,1.522-20.04,8.5-5.759,4.12-12.982,5.256-19.15,5.256a56.8,56.8,0,0,1-9.423-.819c-1.194-.2-2.166-.41-2.833-.562-.328-.082-.585-.14-.761-.187s-.258-.07-.258-.07l-.094.339.328.129s.222-.574.644-1.569A133.6,133.6,0,0,1,12.033,129.6a53.4,53.4,0,0,1,8.627-10.488c3.1-2.774,6.356-4.542,9.61-4.612h.773a27.882,27.882,0,0,1,16.4,5.092,25.255,25.255,0,0,1,4.015,3.5c.445.48.773.866.995,1.147q.158.211.246.316l.082.105.293.421.293-.421.082-.105a24.483,24.483,0,0,1,5.946-5.431A28,28,0,0,1,75.1,114.514h.773v-.351Z" transform="translate(0 -100.455)"/><path d="M230.5,484.467s15.288-8.334,26.689-1.615c0,0,20.777-10.465,31.558,13.743s-5.443,37.715-23.119,35.456c-33.115-4.214-11.846-34.684-35.129-47.595Z" transform="translate(-203.519 -423.995)" fill="#e37f6e"/><path d="M227.056,481.082l.222.41.082-.047c.855-.457,8.135-4.132,16.048-4.132a19.721,19.721,0,0,1,10.1,2.552.462.462,0,0,0,.445.012l.047-.023a24.989,24.989,0,0,1,10.079-2.177,19.7,19.7,0,0,1,10.734,3.055c3.652,2.318,7.2,6.239,10.055,12.665a35.485,35.485,0,0,1,3.43,14.363,19.513,19.513,0,0,1-6.649,15.288,23.881,23.881,0,0,1-15.662,5.4,31.394,31.394,0,0,1-3.746-.234c-8.206-1.053-12.946-3.7-15.885-7.234a22.392,22.392,0,0,1-4.237-9.353c-1.241-5.232-1.627-11.1-3.348-16.6a23.424,23.424,0,0,0-11.495-14.351l-.222.41.222.41-.222-.41-.222.41a22.066,22.066,0,0,1,10.441,12.045c2.657,6.988,2.575,15.018,4.94,21.784a18.452,18.452,0,0,0,6.145,8.873c3.125,2.411,7.5,4.144,13.766,4.951a30.833,30.833,0,0,0,3.863.246,24.847,24.847,0,0,0,16.282-5.619,20.464,20.464,0,0,0,6.977-16,36.323,36.323,0,0,0-3.512-14.737c-2.915-6.555-6.59-10.64-10.406-13.075a20.644,20.644,0,0,0-11.237-3.207,25.563,25.563,0,0,0-10.547,2.306l.211.421.234-.4a20.631,20.631,0,0,0-10.57-2.681c-8.744,0-16.54,4.273-16.575,4.284a.464.464,0,0,0,0,.819l.222-.41Z" transform="translate(-200.075 -420.611)" fill="#3d342d"/><path d="M458.5,502.7s5.946,3.582,9.177,13.321" transform="translate(-404.83 -443.832)" fill="#e37f6e"/><path d="M454.592,499.524h0c.293.187,5.876,3.769,8.966,13.075a.47.47,0,0,0,.89-.3c-3.278-9.868-9.318-13.543-9.388-13.579a.47.47,0,0,0-.48.808h.012Z" transform="translate(-401.167 -440.258)" fill="#3d342d"/><path d="M598.774,17.132l11.952,3.336a.486.486,0,0,1,0,.936l-11.694,3.453a.492.492,0,0,0-.328.316L594.6,38.191a.485.485,0,0,1-.925,0l-4.343-12.9a.486.486,0,0,0-.339-.316L577.1,21.826a.49.49,0,0,1-.023-.936l11.893-3.652a.475.475,0,0,0,.316-.316L593.2,4.139a.487.487,0,0,1,.925-.012l4.3,12.677a.492.492,0,0,0,.328.316Z" transform="translate(-509.226 -3.331)" fill="#fffef4"/><path d="M595.563,13.6l-.129.457,11.951,3.336h0v.023h0l-11.694,3.453a.991.991,0,0,0-.644.632l-4.109,13.017h-.023V34.5l-4.343-12.9a.966.966,0,0,0-.655-.62l-11.893-3.149h0v-.023h0l11.893-3.652a.95.95,0,0,0,.632-.632L590.471.745h.024V.757l4.3,12.677a.957.957,0,0,0,.644.609l.129-.457.129-.457h0L591.4.441a.938.938,0,0,0-.9-.644.95.95,0,0,0-.913.679L585.66,13.258h0l-11.893,3.664a.926.926,0,0,0-.667.913,1,1,0,0,0,.176.562.958.958,0,0,0,.527.363L585.7,21.909h.012l4.343,12.9a.938.938,0,0,0,.9.644.964.964,0,0,0,.913-.667l4.109-13.017h0L607.667,18.3a.97.97,0,0,0,.515-.363.944.944,0,0,0-.527-1.463L595.7,13.141l-.129.457Z" transform="translate(-506.015 0.204)" fill="#3d342d"/><path d="M469.425,651.282a39.654,39.654,0,0,1-4.249.047c-.164-.936-.246-1.4-.4-2.341h.656c-.187-1.112-.293-1.674-.48-2.8-.258.023-.386.023-.656.047-.164-.937-.246-1.4-.4-2.341.258-.035.386-.047.644-.082l-.035-.176a4.462,4.462,0,0,1,.012-1.943,2.562,2.562,0,0,1,.7-1.217,3.5,3.5,0,0,1,1.744-.7c.375-.07.749-.129,1.112-.176.152.89.234,1.334.386,2.236a5.257,5.257,0,0,0-.667.047.921.921,0,0,0-.538.234.778.778,0,0,0-.2.456,4.075,4.075,0,0,0,.094.913c.4-.058.585-.082.983-.14.176.995.258,1.5.433,2.493-.4.047-.6.07-1,.105.2,1.17.3,1.744.5,2.914.351-.023.527-.035.878-.07.176.995.257,1.5.433,2.493Z" transform="translate(-409.598 -564.707)" fill="#f7eee5"/><path d="M466.864,648.28l-.023-.351c-1.007.058-1.7.082-2.446.082-.527,0-1.077-.012-1.768-.035v.351c-.012,0,.339-.059.339-.059-.164-.936-.246-1.4-.4-2.341l-.351.059v.351h1.077l-.07-.41c-.187-1.112-.293-1.674-.48-2.8l-.059-.316-.316.023c-.257.023-.386.023-.644.047l.023.351.351-.059c-.164-.936-.246-1.4-.4-2.341l-.351.059.035.351c.258-.035.386-.047.644-.082l.363-.047-.094-.539a6.3,6.3,0,0,1-.094-.983,2.709,2.709,0,0,1,.105-.808,2.368,2.368,0,0,1,.609-1.065,3.1,3.1,0,0,1,1.569-.609c.375-.07.737-.129,1.1-.176l-.047-.351-.351.058c.152.89.234,1.334.386,2.236l.351-.058v-.351a4.452,4.452,0,0,0-.726.059,1.306,1.306,0,0,0-.737.34,1.079,1.079,0,0,0-.293.667v.129a4.861,4.861,0,0,0,.094.878l.059.339.339-.047c.4-.058.6-.082.983-.14l-.047-.351-.351.059c.176.995.258,1.5.433,2.493l.351-.059-.035-.351c-.4.047-.6.07-.983.105l-.375.035.059.375c.2,1.171.3,1.744.5,2.915l.059.316.316-.023c.351-.023.539-.035.89-.07l-.023-.351-.351.059c.176.995.258,1.5.433,2.493l.351-.059-.023-.351.023.351.351-.058c-.176-.995-.258-1.5-.433-2.493l-.059-.316-.316.023c-.351.023-.527.047-.878.07l.023.351.351-.059c-.2-1.171-.3-1.744-.5-2.915l-.351.059.035.351c.4-.047.6-.07.995-.105l.375-.047-.058-.363c-.176-.995-.258-1.5-.433-2.493l-.059-.339-.34.047c-.4.058-.585.082-.983.141l.047.351.351-.058a5.243,5.243,0,0,1-.082-.761v-.07a.37.37,0,0,1,.105-.246.518.518,0,0,1,.339-.129,4.334,4.334,0,0,1,.62-.047h.41l-.07-.41c-.152-.89-.234-1.335-.386-2.236l-.059-.328-.328.047c-.375.047-.761.105-1.135.176a3.8,3.8,0,0,0-1.92.8,3.013,3.013,0,0,0-.8,1.381,3.884,3.884,0,0,0-.129,1.007,6.333,6.333,0,0,0,.105,1.1l.035.175.351-.058-.047-.351c-.258.035-.386.047-.644.082L461,640.6l.059.363c.164.936.246,1.4.4,2.341l.059.316.316-.023c.258-.023.4-.023.656-.047l-.023-.351-.351.059c.187,1.112.293,1.674.48,2.8l.351-.058v-.351h-1.077l.07.41c.164.937.246,1.4.4,2.341l.047.281h.281c.691.035,1.253.047,1.791.047.761,0,1.487-.024,2.493-.082l.4-.023-.07-.386-.351.059Z" transform="translate(-407.037 -561.705)" fill="#020202"/><path d="M506.065,663.434c-.246.035-.375.047-.62.082-.176-1.007-.269-1.51-.445-2.517,1.311-.2,1.966-.3,3.277-.527.281,1.557.433,2.329.714,3.886a4.809,4.809,0,0,0,.363,1.3.5.5,0,0,0,.55.269,1.167,1.167,0,0,0,.773-.515c-.2-1.053-.293-1.569-.492-2.622l-.7.117c-.187-1.03-.281-1.545-.48-2.575,1.346-.234,2.013-.363,3.348-.632.433,2.247.656,3.371,1.089,5.607.246-.058.375-.082.62-.141.2,1.03.3,1.545.5,2.564-1.323.316-1.99.445-3.336.667-.082-.421-.117-.62-.2-1.042a2.811,2.811,0,0,1-1.99,1.51,1.8,1.8,0,0,1-1.533-.644,5.781,5.781,0,0,1-1.112-2.915c-.141-.761-.2-1.147-.339-1.908Z" transform="translate(-445.887 -582.454)" fill="#f7eee5"/><path d="M502.887,660.7l-.047-.351c-.246.035-.375.047-.62.082l.047.351.351-.058c-.176-1.007-.269-1.51-.445-2.517l-.351.059.047.351c1.311-.2,1.978-.3,3.289-.527l-.059-.351-.339.059c.281,1.557.433,2.329.714,3.886a5.251,5.251,0,0,0,.4,1.4,1.045,1.045,0,0,0,.3.339.854.854,0,0,0,.445.129h.164a1.51,1.51,0,0,0,.995-.679l.082-.117-.023-.141c-.2-1.053-.293-1.569-.492-2.622l-.059-.339-.339.059-.7.117.059.351.339-.059c-.187-1.03-.281-1.545-.48-2.575l-.34.058.059.351c1.346-.234,2.025-.363,3.36-.632l-.07-.339-.34.07c.433,2.247.656,3.371,1.089,5.607l.07.351.351-.07c.246-.059.375-.082.62-.14l-.082-.339-.339.07c.2,1.03.3,1.545.5,2.564l.339-.07-.082-.339c-1.323.3-1.978.445-3.313.667l.059.351.339-.07c-.082-.421-.117-.62-.2-1.042l-.164-.89-.48.773a2.478,2.478,0,0,1-1.732,1.346h-.141a1.531,1.531,0,0,1-1.1-.538,5.475,5.475,0,0,1-1.018-2.727c-.141-.761-.2-1.147-.34-1.908l-.059-.328-.328.047.047.351-.351.058c.14.761.2,1.147.339,1.908a5.959,5.959,0,0,0,1.206,3.09,2.237,2.237,0,0,0,1.6.761h.222a3.208,3.208,0,0,0,2.247-1.686l-.293-.187-.339.07c.082.421.117.62.2,1.042l.058.34.339-.059c1.346-.222,2.025-.363,3.359-.667l.328-.082-.07-.328c-.2-1.03-.3-1.545-.5-2.563l-.07-.351-.351.082c-.246.058-.375.082-.62.14l.07.339.339-.07c-.433-2.247-.655-3.371-1.089-5.607l-.07-.351-.351.07c-1.334.269-2,.4-3.348.632l-.351.059.07.351c.187,1.03.281,1.545.48,2.575l.059.339.339-.058c.281-.047.433-.07.714-.129l-.059-.351-.339.07c.2,1.054.293,1.568.492,2.622l.339-.07-.293-.2a.8.8,0,0,1-.539.375H506.6l-.07-.012-.07-.082a4.7,4.7,0,0,1-.328-1.194c-.281-1.557-.433-2.33-.714-3.886l-.058-.339-.34.058c-1.311.222-1.955.328-3.266.527l-.351.059.059.351c.176,1.007.269,1.51.445,2.517l.059.328.328-.035c.246-.035.375-.047.632-.082l-.047-.351-.351.059.351-.059Z" transform="translate(-442.708 -579.717)" fill="#020202"/><path d="M584.83,653.564c-1.58.538-2.388.773-4.027,1.182-.2-1.018-.3-1.533-.5-2.564.269-.058.4-.094.655-.164-.246-1.206-.363-1.8-.6-3.008-.258.058-.4.094-.656.152-.2-1.018-.3-1.533-.5-2.564,1.323-.281,1.978-.421,3.278-.726.082.4.129.6.211,1.007a2.918,2.918,0,0,1,1.826-1.65,1.6,1.6,0,0,1,1.615.433,4.973,4.973,0,0,1,1.007,2.411c.164.761.246,1.147.4,1.92.234-.082.351-.129.574-.222.2.925.293,1.393.48,2.318-1.218.538-1.838.784-3.1,1.229-.293-1.381-.433-2.072-.726-3.453a5.751,5.751,0,0,0-.433-1.463.481.481,0,0,0-.585-.211,1.169,1.169,0,0,0-.655.62c.211,1,.3,1.5.515,2.493.293-.082.433-.129.726-.222.2.983.3,1.487.515,2.47Z" transform="translate(-511.401 -569.622)" fill="#f7eee5"/><path d="M581.564,650.856l-.117-.328c-1.58.538-2.365.773-3.992,1.182l.082.339.339-.07c-.2-1.018-.3-1.533-.5-2.564l-.34.07.082.34c.269-.059.4-.094.667-.164l.328-.082-.07-.328c-.246-1.206-.363-1.8-.6-3.009l-.07-.351-.351.082c-.258.059-.4.094-.656.152l.082.34.339-.07c-.2-1.019-.3-1.533-.5-2.564l-.339.07.07.339c1.323-.281,1.978-.421,3.289-.726l-.082-.339-.339.07c.082.4.129.6.211,1.007l.2.96.456-.878a2.559,2.559,0,0,1,1.592-1.463,1.6,1.6,0,0,1,.4-.047,1.166,1.166,0,0,1,.878.386,4.668,4.668,0,0,1,.913,2.236c.164.761.246,1.147.4,1.92l.082.4.386-.141c.234-.082.351-.129.574-.222l-.129-.328-.339.07c.2.925.293,1.393.48,2.318l.34-.07-.141-.316c-1.217.527-1.814.773-3.079,1.217l.117.328.339-.07c-.293-1.381-.433-2.072-.726-3.453-.082-.386-.152-.7-.234-.96a2.826,2.826,0,0,0-.246-.609.8.8,0,0,0-.7-.4,1.058,1.058,0,0,0-.269.035,1.57,1.57,0,0,0-.866.773l-.07.117.023.129c.211.995.3,1.5.515,2.493l.082.375.363-.106c.293-.082.445-.129.726-.222l-.105-.339-.339.07c.2.983.3,1.487.515,2.47l.339-.07-.117-.328.117.328.34-.07c-.2-.983-.3-1.487-.515-2.47l-.082-.375-.374.117c-.293.094-.433.129-.726.222l.105.339.34-.07c-.211-.995-.3-1.5-.515-2.493l-.34.07.3.176c.187-.316.363-.433.456-.457h.082c0-.012.117.059.117.059a1.647,1.647,0,0,1,.164.433c.07.234.14.538.222.9.293,1.381.433,2.072.726,3.453l.082.4.374-.141c1.264-.456,1.908-.7,3.126-1.241l.257-.117-.058-.281c-.2-.925-.293-1.393-.48-2.318l-.082-.4-.386.152c-.234.082-.339.129-.573.211l.117.328.339-.07c-.164-.761-.246-1.147-.4-1.92a5.337,5.337,0,0,0-1.1-2.587,1.909,1.909,0,0,0-1.381-.609,2.306,2.306,0,0,0-.562.07A3.236,3.236,0,0,0,579.094,644l.316.164.339-.07c-.082-.4-.129-.6-.211-1.007l-.07-.351-.351.082c-1.311.3-1.955.445-3.278.726l-.339.07.07.339c.2,1.018.3,1.533.5,2.564l.07.351.351-.082c.269-.059.4-.094.655-.152l-.082-.339-.339.07c.246,1.206.363,1.8.6,3.008l.34-.07-.082-.339c-.258.07-.4.094-.655.164l-.328.082.07.328c.2,1.018.3,1.533.5,2.564l.07.363.363-.094c1.639-.41,2.47-.655,4.05-1.194l.293-.105-.059-.3-.34.07Z" transform="translate(-508.135 -566.914)" fill="#020202"/><path d="M444.932,768.2l.386,2.259a1.236,1.236,0,0,1-.7.175,2.589,2.589,0,0,1-.983-.2,3.377,3.377,0,0,1-1.089-.714,4.627,4.627,0,0,1-.8-1.018,5.794,5.794,0,0,1-.269-.55c-.059-.152-.117-.328-.176-.5-.082-.3-.2-.9-.363-1.756-.082-.445-.129-.667-.211-1.112-.258-.094-.386-.141-.644-.246-.152-.819-.234-1.229-.386-2.037.258.082.386.129.644.2-.07-.41-.117-.609-.187-1.018a14.769,14.769,0,0,0,2.353-1.182c.2,1.147.3,1.721.5,2.868.433.094.656.129,1.1.2.164.925.234,1.381.4,2.306-.445-.094-.667-.14-1.1-.257.094.55.141.831.246,1.393a4.2,4.2,0,0,0,.246.937.664.664,0,0,0,.41.339.947.947,0,0,0,.609-.059Z" transform="translate(-388.23 -671.455)" fill="#f7eee5"/><path d="M441.577,763.611l-.351.059.386,2.259.351-.058-.211-.281a.9.9,0,0,1-.5.105h-.023a2.119,2.119,0,0,1-.831-.176,2.994,2.994,0,0,1-.972-.644,4.125,4.125,0,0,1-.726-.936l-.3.164.3-.164c-.105-.2-.187-.375-.246-.515a2.752,2.752,0,0,1-.152-.468c-.082-.281-.2-.878-.351-1.732-.082-.445-.129-.667-.211-1.112l-.035-.2-.187-.07c-.258-.094-.386-.14-.632-.246l-.129.328.339-.07c-.152-.819-.234-1.229-.386-2.037l-.339.07-.105.339c.258.082.4.129.655.2l.55.164-.105-.562c-.07-.41-.117-.609-.187-1.018l-.339.058.129.328a13.956,13.956,0,0,0,2.4-1.206l-.176-.3-.351.058c.2,1.147.3,1.721.5,2.868l.047.234.234.047c.433.094.667.129,1.112.2l.059-.351-.351.059c.164.925.234,1.381.4,2.306l.351-.058.07-.34c-.445-.094-.656-.14-1.089-.257l-.527-.129.094.539c.094.55.14.831.246,1.393a3.9,3.9,0,0,0,.281,1.03.977.977,0,0,0,.62.515.917.917,0,0,0,.3.047,1.41,1.41,0,0,0,.527-.105l-.129-.328-.351.059.351-.059-.129-.328a.613.613,0,0,1-.258.058h-.117a.368.368,0,0,1-.2-.176,3.647,3.647,0,0,1-.222-.843c-.094-.55-.14-.831-.246-1.393l-.351.059-.082.339c.445.117.667.164,1.112.258l.5.105-.094-.515c-.164-.925-.234-1.381-.4-2.306l-.047-.246-.246-.035c-.433-.07-.644-.105-1.089-.2l-.07.339.351-.058c-.2-1.147-.3-1.721-.5-2.868l-.082-.5-.433.257a14.664,14.664,0,0,1-2.306,1.159l-.269.105.047.281c.07.41.117.609.187,1.018l.339-.059.105-.339c-.258-.082-.386-.117-.632-.2l-.562-.187.105.585c.152.819.234,1.229.386,2.037l.035.187.176.07c.258.105.4.152.656.246l.117-.328-.339.059c.082.445.129.667.211,1.112.164.866.281,1.452.363,1.791a3.36,3.36,0,0,0,.187.55,6.363,6.363,0,0,0,.281.585h0a4.5,4.5,0,0,0,.855,1.1,3.84,3.84,0,0,0,1.194.784,2.978,2.978,0,0,0,1.1.222h.023a1.524,1.524,0,0,0,.913-.246l.176-.129-.035-.211c-.152-.9-.234-1.358-.386-2.259l-.07-.433-.4.164.129.328Z" transform="translate(-384.875 -666.864)" fill="#020202"/><path d="M489.724,790.4c-.9-.211-1.346-.339-2.224-.609a1.784,1.784,0,0,1,.89-1.4,4.9,4.9,0,0,1,2.247-.316,8.889,8.889,0,0,1,1.03.07,5.285,5.285,0,0,1,.831.152,2.542,2.542,0,0,1,1.206.6,2.948,2.948,0,0,1,.667.925,7.254,7.254,0,0,1,.445,1.627c.164.936.258,1.4.421,2.341.281-.012.421-.023.7-.035.187,1.03.281,1.533.468,2.563a20.345,20.345,0,0,1-3.582-.059c-.035-.211-.059-.328-.094-.538a1.994,1.994,0,0,1-1.861.433,3.007,3.007,0,0,1-1.861-1.065,3.755,3.755,0,0,1-.866-1.791,1.622,1.622,0,0,1,.421-1.58,2.182,2.182,0,0,1,1.744-.445,3.976,3.976,0,0,1,1.744.515,1.644,1.644,0,0,0-.047-.234,5.1,5.1,0,0,0-.258-1.03,1.287,1.287,0,0,0-.433-.538,1.331,1.331,0,0,0-.679-.246.842.842,0,0,0-.9.667Zm2.751,3.828c-.105-.585-.152-.866-.257-1.451a1.553,1.553,0,0,0-.855-.34.525.525,0,0,0-.538.234,1.042,1.042,0,0,0-.094.737,1.613,1.613,0,0,0,.363.8.878.878,0,0,0,.585.363.773.773,0,0,0,.784-.339Z" transform="translate(-430.435 -695.798)" fill="#f7eee5"/><path d="M487.075,787.781l.082-.339c-.89-.211-1.323-.328-2.212-.6l-.105.339.351.059a1.417,1.417,0,0,1,.7-1.147,4.06,4.06,0,0,1,1.756-.281h.316c.375,0,.7.035,1.007.059a5.945,5.945,0,0,1,.784.14,2.216,2.216,0,0,1,1.053.515,2.992,2.992,0,0,1,.6.819,6.726,6.726,0,0,1,.41,1.545c.164.936.258,1.4.421,2.341l.059.3h.3c.281-.023.433-.035.714-.047l-.023-.351-.34.059c.187,1.03.281,1.533.468,2.563l.339-.058-.023-.351c-.6.035-1.065.047-1.522.047-.609,0-1.182-.035-2.013-.105l-.035.351.351-.059c-.035-.211-.058-.328-.094-.539l-.117-.667-.48.48a1.374,1.374,0,0,1-1.053.375,2.854,2.854,0,0,1-2.154-.995,3.353,3.353,0,0,1-.784-1.616,2.493,2.493,0,0,1-.035-.4,1.1,1.1,0,0,1,.351-.878,1.552,1.552,0,0,1,1.135-.363c.105,0,.222,0,.34.012a3.613,3.613,0,0,1,1.592.456l.667.41-.129-.773a1.659,1.659,0,0,0-.047-.234,7.378,7.378,0,0,0-.269-1.112h0a1.742,1.742,0,0,0-.55-.691,1.584,1.584,0,0,0-.866-.3h-.082a1.123,1.123,0,0,0-.737.246,1.306,1.306,0,0,0-.433.667l.328.105.082-.34-.082.34.328.105a.649.649,0,0,1,.211-.339.429.429,0,0,1,.3-.094h.047a.892.892,0,0,1,.492.176,1.05,1.05,0,0,1,.328.4h0a5.285,5.285,0,0,1,.234.96,1.666,1.666,0,0,0,.047.234l.351-.059.187-.3a4.3,4.3,0,0,0-1.9-.562c-.141-.012-.269-.023-.4-.023a2.333,2.333,0,0,0-1.615.55,1.863,1.863,0,0,0-.574,1.381,2.633,2.633,0,0,0,.047.515,4.07,4.07,0,0,0,.948,1.955,3.351,3.351,0,0,0,2.072,1.182,3.846,3.846,0,0,0,.62.059,2.13,2.13,0,0,0,1.545-.585l-.246-.246-.351.058c.035.211.059.328.094.539l.047.269.269.023c.831.07,1.428.105,2.072.105.468,0,.948-.023,1.557-.047l.4-.023-.07-.386c-.187-1.03-.281-1.533-.468-2.563l-.059-.3-.316.023c-.281.023-.41.023-.691.035v.351c.012,0,.363-.059.363-.059-.164-.936-.258-1.4-.421-2.341a7.415,7.415,0,0,0-.468-1.721,3.474,3.474,0,0,0-.737-1.03,2.858,2.858,0,0,0-1.37-.679,6.207,6.207,0,0,0-.878-.152c-.316-.035-.679-.059-1.065-.07H487.7a4.53,4.53,0,0,0-2.084.363,2.144,2.144,0,0,0-1.065,1.662l-.047.3.293.094c.89.269,1.346.4,2.247.608l.316.07.105-.3-.328-.105Zm2.751,3.828.351-.059c-.105-.585-.152-.866-.258-1.452l-.023-.14-.117-.082a2,2,0,0,0-1.03-.41h-.094a.9.9,0,0,0-.773.4,1.2,1.2,0,0,0-.164.644,1.159,1.159,0,0,0,.035.34,2.043,2.043,0,0,0,.433.972,1.289,1.289,0,0,0,.819.492h.164a1.083,1.083,0,0,0,.96-.5l.07-.117-.024-.14-.351.059-.293-.187a.371.371,0,0,1-.363.187h-.094c-.07,0-.2-.07-.351-.246a1.261,1.261,0,0,1-.281-.632l-.023-.222a.509.509,0,0,1,.059-.269c.047-.059.047-.07.176-.07h.047a1.439,1.439,0,0,1,.667.281l.211-.281-.351.059c.105.585.152.866.258,1.451l.351-.058-.293-.187.293.187Z" transform="translate(-427.786 -693.176)" fill="#020202"/><path d="M564.1,787.83c-.7.117-1.053.164-1.756.234-.187-1.042-.293-1.557-.48-2.6.655-.07.983-.117,1.627-.222a1.694,1.694,0,0,0,1.557.737c.492-.105.714-.328.656-.632a.438.438,0,0,0-.234-.328,5.565,5.565,0,0,0-.96-.2c-.41-.07-.878-.187-1.381-.316a2.948,2.948,0,0,1-1.089-.527,2.474,2.474,0,0,1-.632-.714,3.346,3.346,0,0,1-.316-.983,2.644,2.644,0,0,1,.269-2.072,2.2,2.2,0,0,1,1.463-.89,2.607,2.607,0,0,1,1.756.234c-.035-.164-.047-.258-.082-.421.667-.152.995-.246,1.65-.433.187.948.281,1.416.468,2.364-.609.187-.913.269-1.533.421a1.71,1.71,0,0,0-1.545-.55c-.421.082-.6.292-.538.632a.343.343,0,0,0,.246.293,10.993,10.993,0,0,0,1.124.152,10.73,10.73,0,0,1,1.709.269,1.99,1.99,0,0,1,1.007.62,2.6,2.6,0,0,1,.539,1.229,3.118,3.118,0,0,1-.258,2.294,2.4,2.4,0,0,1-1.545,1.124,2.5,2.5,0,0,1-1.826-.211c.035.2.059.3.094.5Z" transform="translate(-495.338 -687.525)" fill="#f7eee5"/><path d="M561.971,784.21l-.058-.351c-.691.117-1.03.164-1.733.234l.035.351.34-.059c-.187-1.042-.293-1.557-.48-2.6l-.339.058.035.351c.656-.07.995-.117,1.651-.222l-.059-.351-.258.234a2.283,2.283,0,0,0,1.592.878.9.9,0,0,0,.3-.035,1.541,1.541,0,0,0,.644-.281.8.8,0,0,0,.293-.6v-.164a.866.866,0,0,0-.433-.574,1.81,1.81,0,0,0-.421-.117q-.246-.053-.632-.105c-.386-.07-.854-.176-1.358-.316a2.388,2.388,0,0,1-.948-.456,2.2,2.2,0,0,1-.538-.609,3.08,3.08,0,0,1-.281-.878,4.571,4.571,0,0,1-.07-.749,1.765,1.765,0,0,1,.281-1.053,1.856,1.856,0,0,1,1.241-.749A2.83,2.83,0,0,1,561.3,776a2.066,2.066,0,0,1,1.007.246l.656.351-.14-.726c-.035-.164-.047-.257-.082-.421l-.339.07.082.339c.667-.152,1.018-.246,1.674-.433l-.094-.339-.34.07c.187.948.281,1.417.468,2.365l.34-.07-.105-.339c-.609.176-.9.257-1.522.41l.082.339.246-.258a2.16,2.16,0,0,0-1.5-.679,1.9,1.9,0,0,0-.363.035,1.172,1.172,0,0,0-.585.269.746.746,0,0,0-.246.585l.023.2a.851.851,0,0,0,.164.363.64.64,0,0,0,.339.2c.152.035.527.094,1.171.164a10.717,10.717,0,0,1,1.651.258,1.645,1.645,0,0,1,.831.5,2.316,2.316,0,0,1,.456,1.065,4.509,4.509,0,0,1,.094.831,2.218,2.218,0,0,1-.3,1.206,2.056,2.056,0,0,1-1.334.972,2.655,2.655,0,0,1-.585.07,2.042,2.042,0,0,1-.983-.246l-.644-.351.14.726c.035.2.059.3.094.5l.339-.07-.058-.351.058.351.339-.07c-.035-.2-.058-.3-.094-.5l-.339.07-.164.3a2.61,2.61,0,0,0,1.323.328,3.365,3.365,0,0,0,.749-.094,2.763,2.763,0,0,0,1.768-1.288,2.92,2.92,0,0,0,.41-1.58,4.835,4.835,0,0,0-.105-.972,3,3,0,0,0-.609-1.381,2.383,2.383,0,0,0-1.182-.726,10.582,10.582,0,0,0-1.768-.281c-.62-.059-1.007-.129-1.077-.141v0h0v0l-.012.047.047-.023h-.023c0-.012-.023.023-.023.023l.047-.023v-.035l-.012-.07.023-.07a.457.457,0,0,1,.246-.094l.222-.023a1.459,1.459,0,0,1,1.007.48l.141.129.187-.047c.62-.152.948-.234,1.557-.421l.3-.094-.059-.316c-.187-.948-.281-1.416-.468-2.364l-.07-.375-.363.105c-.655.187-.971.269-1.639.421l-.328.082.07.328c.035.164.047.257.082.421l.339-.07.164-.3a2.782,2.782,0,0,0-1.335-.328,4.253,4.253,0,0,0-.655.059,2.534,2.534,0,0,0-1.686,1.03,2.5,2.5,0,0,0-.41,1.463,5.827,5.827,0,0,0,.082.878,3.964,3.964,0,0,0,.351,1.089,2.876,2.876,0,0,0,.714.819,3.027,3.027,0,0,0,1.217.585c.5.129.983.246,1.416.328.246.047.456.082.609.105a1.736,1.736,0,0,1,.257.059l.035.07v.035l-.035.059a1.083,1.083,0,0,1-.351.14h-.152c-.281.023-.644-.164-1.065-.632l-.129-.14-.187.035c-.644.105-.96.152-1.615.222l-.375.035.07.375c.187,1.042.293,1.557.48,2.6l.058.316.316-.035c.714-.07,1.077-.117,1.779-.234l.351-.059-.07-.351-.339.07Z" transform="translate(-493.212 -683.904)" fill="#020202"/><path d="M618.914,746.6c.2.948.293,1.416.492,2.365a3.856,3.856,0,0,1-.609.878,3.321,3.321,0,0,1-.9.726,1.569,1.569,0,0,1-1.065.187,1.52,1.52,0,0,1-.831-.55,3.776,3.776,0,0,1-.293-.48,3.483,3.483,0,0,1-.2-.539c-.105-.351-.258-1.053-.468-2.1l-.269-1.346c-.258.094-.4.14-.655.234-.2-1.018-.3-1.522-.515-2.54l.656-.211c-.106-.492-.152-.738-.246-1.229.9-1.147,1.335-1.732,2.2-2.9.258,1.252.386,1.873.644,3.125.41-.176.62-.269,1.018-.468.2.971.3,1.451.5,2.423-.4.211-.609.3-1.018.5.129.609.187.913.316,1.51a3.335,3.335,0,0,0,.293.948c.094.14.223.164.4.07a1.714,1.714,0,0,0,.539-.574Z" transform="translate(-541.775 -652.56)" fill="#f7eee5"/><path d="M616.265,739.893l-.339.07c.2.948.293,1.416.492,2.364l.339-.07-.316-.14a3.026,3.026,0,0,1-.55.784,2.736,2.736,0,0,1-.808.644,1.29,1.29,0,0,1-.62.175l-.2-.023a1.047,1.047,0,0,1-.62-.421l-.281.211.281-.2a2.2,2.2,0,0,1-.258-.433,2.776,2.776,0,0,1-.176-.48c-.094-.328-.246-1.03-.456-2.072-.105-.538-.164-.808-.269-1.346l-.082-.4-.386.141c-.258.094-.386.141-.644.222l.117.328.339-.07c-.2-1.018-.3-1.522-.515-2.54l-.34.07.105.34c.269-.082.4-.129.667-.222l.293-.105-.058-.3c-.105-.492-.152-.737-.246-1.229l-.339.07.281.222c.9-1.147,1.346-1.732,2.212-2.9l-.281-.211-.339.07c.258,1.253.386,1.873.644,3.125l.094.422.4-.176c.41-.176.632-.281,1.03-.468l-.152-.316-.339.07c.2.971.3,1.452.5,2.423l.34-.07-.164-.316c-.4.211-.6.3-1.007.5l-.246.117.059.269c.129.609.187.913.316,1.51.058.258.105.468.164.644a1.573,1.573,0,0,0,.187.421.591.591,0,0,0,.5.281.867.867,0,0,0,.351-.094,2.172,2.172,0,0,0,.667-.679l-.293-.2-.339.07.339-.07-.292-.2a1.346,1.346,0,0,1-.41.456h-.035v.012h0v.129l.07-.105-.07-.024v.129l.07-.105-.047.082.07-.07h-.023c0-.012-.047.07-.047.07l.07-.07h0a1.239,1.239,0,0,1-.094-.257,5.159,5.159,0,0,1-.141-.574c-.129-.609-.187-.913-.316-1.51l-.34.07.152.316c.41-.2.62-.3,1.03-.515l.234-.117-.059-.258c-.2-.972-.3-1.452-.5-2.423l-.094-.433-.4.187c-.41.187-.6.281-1.007.457l.14.316.34-.07c-.258-1.253-.386-1.873-.644-3.125l-.164-.773-.468.632c-.866,1.171-1.3,1.744-2.2,2.891l-.105.129.035.164c.105.492.152.737.246,1.229l.339-.07-.117-.328c-.258.094-.386.129-.644.211l-.3.094.058.3c.2,1.018.3,1.522.515,2.54l.082.386.375-.129.667-.234-.117-.328-.34.07.269,1.346c.211,1.042.363,1.744.468,2.119a3.057,3.057,0,0,0,.222.585,3.02,3.02,0,0,0,.328.539h0a1.738,1.738,0,0,0,1.03.691,1.785,1.785,0,0,0,.351.035,2.062,2.062,0,0,0,.948-.258,4.117,4.117,0,0,0,1.007-.8,3.757,3.757,0,0,0,.667-.96l.047-.105-.024-.117c-.2-.948-.293-1.416-.492-2.365l-.175-.819-.468.7.293.2Z" transform="translate(-539.126 -645.85)" fill="#020202"/><path d="M659.691,739.22a19.525,19.525,0,0,1-1.861,1.7c-.187-.913-.281-1.358-.48-2.271.3-.234.456-.351.749-.585.024-.375.035-.562.059-.925-1.112-1.6-1.7-2.482-2.891-4.308-.141.082-.223.117-.363.2-.2-.96-.3-1.44-.5-2.4a26.232,26.232,0,0,0,3.16-1.8c.187.89.281,1.346.457,2.236-.187.14-.293.211-.492.34.55.913.808,1.358,1.334,2.224.047-1.335.07-2,.117-3.3-.164.129-.246.2-.41.316-.176-.878-.269-1.323-.445-2.2.9-.621,1.346-.948,2.189-1.639.152.819.234,1.229.386,2.037-.152.152-.234.222-.4.363-.293,3.816-.4,5.829-.609,10Z" transform="translate(-577.799 -641.7)" fill="#f7eee5"/><path d="M656.513,734.54l-.246-.246a19,19,0,0,1-1.838,1.674l.222.269.339-.07c-.187-.913-.281-1.358-.48-2.271l-.339.07.211.281c.3-.234.457-.351.761-.6l.117-.094V733.4c.035-.374.047-.562.07-.925v-.129l-.058-.105c-1.112-1.6-1.7-2.47-2.891-4.3l-.175-.281-.281.164c-.14.082-.211.117-.363.2l.164.3.339-.07c-.2-.96-.3-1.44-.5-2.4l-.339.07.152.316a28.5,28.5,0,0,0,3.2-1.814l-.187-.293-.339.07c.187.89.281,1.346.456,2.236l.34-.07-.211-.281c-.187.14-.281.2-.48.339l-.269.187.164.281c.55.913.819,1.37,1.334,2.224l.609,1.007.035-1.182c.047-1.334.07-2,.117-3.3l.035-.761-.6.48c-.164.129-.246.187-.41.316l.211.281.339-.07c-.176-.878-.269-1.323-.445-2.2l-.339.07.2.293a23.727,23.727,0,0,0,2.212-1.662l-.222-.269-.339.07c.152.819.234,1.229.386,2.037l.339-.07-.246-.258c-.152.152-.234.222-.386.363l-.105.094v.141c-.293,3.816-.41,5.841-.62,10.008l.351.023-.246-.246.246.246.351.023c.222-4.167.328-6.181.609-9.985l-.351-.023.234.258c.164-.14.246-.222.4-.375l.141-.129-.035-.187c-.152-.819-.234-1.229-.386-2.037l-.117-.585-.457.375a24.885,24.885,0,0,1-2.166,1.627l-.187.129.047.234c.176.878.269,1.323.445,2.2l.117.55.445-.339c.164-.129.257-.2.421-.328l-.222-.269h-.351c-.047,1.288-.07,1.955-.117,3.289h.351l.3-.176c-.527-.854-.784-1.3-1.335-2.224l-.3.175.2.293c.2-.141.3-.211.492-.351l.187-.129-.047-.222c-.187-.89-.281-1.346-.456-2.236l-.105-.5-.433.281a25.608,25.608,0,0,1-3.125,1.779l-.246.117.059.269c.2.96.3,1.44.5,2.4l.094.457.41-.223c.152-.082.223-.117.375-.211l-.176-.3-.293.187c1.194,1.826,1.779,2.7,2.9,4.319l.293-.2-.351-.023c-.023.374-.035.55-.059.925l.351.023-.222-.269c-.293.246-.433.351-.737.573l-.176.129.047.222c.187.913.281,1.358.48,2.271l.117.562.445-.363a18.824,18.824,0,0,0,1.9-1.721l.094-.094v-.129l-.339-.023Z" transform="translate(-574.62 -637.02)" fill="#020202"/></g></svg>