<svg xmlns="http://www.w3.org/2000/svg" xmlns:xlink="http://www.w3.org/1999/xlink" width="181.307" height="194.021" viewBox="0 0 181.307 194.021"><defs><clipPath id="a"><path d="M121.792,105.983a48.332,48.332,0,0,1-48.96,47.444l-25.383-.392A48.376,48.376,0,0,1,.006,104.075L.892,47.449A48.376,48.376,0,0,1,49.851.006L75.234.4a48.332,48.332,0,0,1,47.444,48.96l-.886,56.626Z" transform="translate(0 0)" fill="none"/></clipPath></defs><g transform="matrix(0.883, -0.469, 0.469, 0.883, 0, 57.927)"><g transform="translate(0.352 0.352)" clip-path="url(#a)"><path d="M121.792,105.983a48.332,48.332,0,0,1-48.96,47.444l-25.383-.392A48.376,48.376,0,0,1,.006,104.075L.892,47.449A48.376,48.376,0,0,1,49.851.006L75.234.4a48.332,48.332,0,0,1,47.444,48.96l-.886,56.626Z" transform="translate(0 0)" fill="#8dac2b"/><path d="M108.566,45.509l-.392,25.229L0,69.051.392,43.822a3.7,3.7,0,0,1,.034-.613A43.085,43.085,0,0,1,1.993,32.664a29.943,29.943,0,0,1,.971-3.032A43.065,43.065,0,0,1,8.177,19.376c.545-.784,1.09-1.567,1.687-2.3a42.83,42.83,0,0,1,8.654-8.364c.715-.545,1.448-1.039,2.181-1.55a44.555,44.555,0,0,1,11.124-5.2c.835-.256,1.669-.494,2.538-.7A42.92,42.92,0,0,1,45.587.007l19.2.307A43.938,43.938,0,0,1,75.961,1.932q1.278.332,2.5.767A43.442,43.442,0,0,1,89.436,8.252c.733.511,1.448,1.039,2.129,1.6a42.861,42.861,0,0,1,8.364,8.654c.579.75,1.107,1.55,1.635,2.334a43.755,43.755,0,0,1,4.889,10.409,29.864,29.864,0,0,1,.869,3.049,43.344,43.344,0,0,1,1.244,10.579v.63Z" transform="translate(7.263 6.83)" fill="#ece8e8"/><path d="M109.06,45.825H108.7l-.392,24.855L.852,69.01l.392-24.872c0-.2,0-.392.017-.579h0v-.034A42.144,42.144,0,0,1,2.828,33.083h0A27.668,27.668,0,0,1,3.782,30.1h0a42.083,42.083,0,0,1,5.179-10.17h0c.528-.784,1.09-1.55,1.669-2.283h0a42.591,42.591,0,0,1,8.586-8.3h0c.715-.545,1.431-1.039,2.163-1.533l-.2-.307.187.307A44.293,44.293,0,0,1,32.384,2.675h0c.835-.256,1.652-.494,2.5-.681h0A43.035,43.035,0,0,1,45.314.733h.7l19.2.307A44.141,44.141,0,0,1,76.3,2.64h0c.835.221,1.669.477,2.47.767h0a43.771,43.771,0,0,1,10.869,5.5h0c.733.494,1.431,1.022,2.112,1.584h0a42.622,42.622,0,0,1,8.3,8.586h0c.579.75,1.107,1.533,1.618,2.317h0a44.04,44.04,0,0,1,4.855,10.323h0a25.457,25.457,0,0,1,.852,3.015h0A43.054,43.054,0,0,1,108.6,44.956v.273h0v.613h.715v-.647h-.358a2.542,2.542,0,0,0,.358.034v-.273a43.611,43.611,0,0,0-1.261-10.392l-.358.085.358-.085a26.675,26.675,0,0,0-.886-3.083l-.341.119.341-.1A44.189,44.189,0,0,0,102.229,21h0c-.511-.8-1.056-1.584-1.652-2.368l-.29.221.29-.2a44.018,44.018,0,0,0-8.433-8.722l-.221.29.221-.273c-.7-.562-1.4-1.107-2.146-1.618h0a44.139,44.139,0,0,0-11.056-5.6l-.119.341.119-.341c-.818-.29-1.669-.562-2.538-.784l-.085.341.1-.341A43.985,43.985,0,0,0,65.143.307L45.944,0h-.715a44.341,44.341,0,0,0-10.6,1.278l.085.358-.085-.358c-.886.187-1.738.443-2.572.7h0a45.508,45.508,0,0,0-11.209,5.23h0c-.733.494-1.465,1.005-2.2,1.55l.221.29-.2-.29a43.987,43.987,0,0,0-8.722,8.433h0c-.6.75-1.158,1.516-1.7,2.317h0a43.174,43.174,0,0,0-5.264,10.34l.341.119-.341-.136A29.241,29.241,0,0,0,2.01,32.9l.341.085-.341-.1A43.659,43.659,0,0,0,.426,43.508H.784l-.358-.034c-.017.221-.017.443-.034.647L0,69.709l108.907,1.7.392-25.587h-.238Z" transform="translate(6.769 6.513)"/><path d="M108.515,48.432,77.358,62.707l31.021-5.247L108.328,61,78.346,67.7l29.863,1.244-.034,1.772L0,69.027l.034-1.772,29.88-.307L.153,59.317.2,55.774l30.834,6.218L.341,46.762l.051-2.947A3.7,3.7,0,0,1,.426,43.2L33.2,57.375,1.976,32.657a29.944,29.944,0,0,1,.971-3.032L36.234,53.287,8.16,19.369c.545-.784,1.09-1.567,1.687-2.3L40.067,49.931,18.5,8.688c.715-.545,1.448-1.039,2.181-1.55L44.513,47.444,31.805,1.959c.835-.256,1.669-.494,2.538-.7l15.042,44.7L46.49,0,49.2.034l5.247,45.45L61.123.221l2.709.034L59.5,46.1,75.944,1.925q1.278.332,2.5.767L64.326,47.767,89.4,8.245c.733.511,1.448,1.039,2.129,1.6L68.687,50.391,99.9,18.5c.579.75,1.107,1.55,1.635,2.334L72.417,53.866l34-22.606a29.856,29.856,0,0,1,.869,3.049L75.33,58.04l33.2-13.151V45.5l-.051,2.947Z" transform="translate(7.263 6.854)" fill="#ff4b2b"/><path d="M108.907,48.823l-.153-.324L75.109,63.917,108.4,58.278l-.051,2.828-32.384,7.24,32.248,1.346v1.056L.733,69.078V68.022l32.3-.341L.886,59.436l.051-2.828,33.1,6.678L1.09,46.932l.034-2.726c0-.2,0-.392.017-.579l-.358-.034-.136.324,35.28,15.264L2.606,32.759l-.221.29.341.085a27.67,27.67,0,0,1,.954-2.981l-.341-.136-.2.29L38.653,55.552,8.841,19.523l-.273.221.29.2c.528-.784,1.09-1.55,1.669-2.283l-.29-.221-.273.238L42.043,52.571,19.216,8.927l-.324.17.221.29c.715-.545,1.431-1.039,2.163-1.533l-.2-.307-.307.187L46,50.408,32.538,2.249l-.341.1.1.341c.835-.256,1.652-.494,2.5-.681l-.085-.358-.341.119L50.288,49.079,47.239.784l2.01.034L54.786,48.67,61.821,1.005l2.01.034L59.283,49.215,76.676,2.436l-.341-.119-.085.341c.835.221,1.669.477,2.47.767l.119-.341-.341-.1L63.559,50.663,90.1,8.824l-.307-.187-.2.29c.733.494,1.431,1.022,2.112,1.584l.221-.273-.307-.17L67.426,53,100.56,19.148l-.256-.256-.29.221c.579.75,1.107,1.533,1.618,2.317l.307-.2-.273-.238L70.748,56.063l36.285-24.122-.2-.307-.341.119a25.46,25.46,0,0,1,.852,3.015l.358-.085-.221-.29L73.32,59.76,109.06,45.6l-.136-.341h-.358v.6l-.051,2.947h.358l-.153-.324.153.324h.358l.051-2.947v-.647l-.034-.494L78.141,57.034,108.089,34.8l-.051-.221a26.676,26.676,0,0,0-.886-3.083L107,31.055,74.887,52.4l27.478-31.175L102.212,21c-.511-.8-1.056-1.584-1.652-2.351l-.256-.324L70.714,48.568,92.366,10.136l-.239-.187c-.7-.562-1.4-1.107-2.146-1.618l-.307-.2L65.859,45.655,79.266,2.845l-.324-.119c-.818-.29-1.669-.562-2.538-.784L76.1,1.857,60.51,43.8,64.615.29,61.191.238,54.854,43.1,49.88.051,46.455,0l2.76,43.611L34.974,1.244l-.324.068c-.886.187-1.738.443-2.572.7l-.341.1,12.078,43.2L21.192,7.036l-.324.221c-.733.494-1.465,1.005-2.2,1.55l-.238.187L38.875,48.074,10.221,16.9l-.256.324c-.6.75-1.158,1.533-1.7,2.317l-.153.221L34.6,51.788,3.169,29.454,3,29.9a29.24,29.24,0,0,0-.971,3.066l-.068.221L31.192,56.353.477,43.065l-.051.494c-.017.221-.017.443-.034.647L.341,47.392,28.79,61.515.2,55.757.136,60.016l27.393,7.019-27.5.29L0,69.794l108.907,1.7.034-2.47L81.463,67.886l27.6-6.167.068-4.259L80.39,62.332l28.875-13.219v-.221h-.358Z" transform="translate(6.871 6.462)"/></g><path d="M122.144,106.335h-.358a47.976,47.976,0,0,1-47.835,47.086H73.2l-25.383-.392a48,48,0,0,1-47.1-47.835v-.75L1.6,47.818A48,48,0,0,1,49.437.715h.75l25.383.392a47.991,47.991,0,0,1,47.1,47.835v.75l-.886,56.626h.715l.886-56.626v-.767A48.7,48.7,0,0,0,75.586.375L50.2,0h-.767A48.718,48.718,0,0,0,.886,47.8L0,104.427v.767a48.7,48.7,0,0,0,47.8,48.551l25.383.392h.767a48.7,48.7,0,0,0,48.551-47.8h-.358Z" transform="translate(0 0)"/><path d="M93.439,11.175h-.92V0H86.284V3.134H87.34v8.041H86.284V14.31h7.155ZM76.574,6.167a2.418,2.418,0,0,1,1.192.273,1.3,1.3,0,0,1,.63.664A4.465,4.465,0,0,1,78.533,8.4v.307a7.693,7.693,0,0,0-3.083-.511,6.312,6.312,0,0,0-3.441.9,2.68,2.68,0,0,0-1.329,2.3,2.71,2.71,0,0,0,1.073,2.2,4.771,4.771,0,0,0,3.186.92,6.663,6.663,0,0,0,3.577-.869v.681h6.456V11.192H83.695V8.313a5.332,5.332,0,0,0-.273-2.01,2.933,2.933,0,0,0-.92-1.175,4.729,4.729,0,0,0-2.027-.8c-.443-.085-.937-.153-1.5-.2s-1.192-.068-1.908-.068a12.318,12.318,0,0,0-4.344.6,3.891,3.891,0,0,0-2.163,2.061l4.054.409a2.21,2.21,0,0,1,1.908-.954Zm.409,6.133a1.441,1.441,0,0,1-.971-.392,1.285,1.285,0,0,1-.409-.988,1.248,1.248,0,0,1,.409-.971,1.58,1.58,0,0,1,1.073-.375,3.173,3.173,0,0,1,1.465.375v1.823a2.24,2.24,0,0,1-1.567.528Zm-9.9-1.107H65.569a3.066,3.066,0,0,1,.307-1.465,2.073,2.073,0,0,1,1.09-.869,6.283,6.283,0,0,1,2.351-.324h.426V4.14a8.576,8.576,0,0,0-2.027.187A3.434,3.434,0,0,0,66.3,5.2a3.972,3.972,0,0,0-1.073,1.618V4.31h-6.2V7.444H60.39v3.714H59.028v3.135h8.058v-3.1ZM43.338,9.846c0,1.806.375,3.032,1.107,3.68a3.861,3.861,0,0,0,2.64.971,8.185,8.185,0,0,0,4.191-1.448V14.31h6.388V11.175h-1.21V4.327H49.914V7.461h1.363v3.186a2.967,2.967,0,0,1-1.6.46c-.579,0-.784-.136-.92-.426a3.814,3.814,0,0,1-.221-1.618V4.31H42.146V7.444h1.209V9.812ZM39.658,11c-.358,0-.6-.1-.7-.324a2.939,2.939,0,0,1-.17-1.261V7.478h2.1V4.344h-2.1v-4L33.611,2.794V4.327H32.333V7.461h1.278V9.148c0,1.295.017,2.181.068,2.623a2.8,2.8,0,0,0,.17.7A3,3,0,0,0,35.5,14.224a4.784,4.784,0,0,0,1.993.375,6.529,6.529,0,0,0,1.942-.273,5.071,5.071,0,0,0,1.465-.6V10.664a2.986,2.986,0,0,1-1.21.324ZM23,6.184a2.418,2.418,0,0,1,1.192.273,1.3,1.3,0,0,1,.63.664,4.465,4.465,0,0,1,.136,1.295v.307a7.693,7.693,0,0,0-3.083-.511,6.312,6.312,0,0,0-3.441.9,2.68,2.68,0,0,0-1.329,2.3,2.71,2.71,0,0,0,1.073,2.2,4.771,4.771,0,0,0,3.186.92,6.663,6.663,0,0,0,3.577-.869v.681H31.4V11.209H30.119V8.33a5.332,5.332,0,0,0-.273-2.01,2.933,2.933,0,0,0-.92-1.175,4.729,4.729,0,0,0-2.027-.8c-.443-.085-.937-.153-1.5-.2s-1.192-.068-1.908-.068a12.318,12.318,0,0,0-4.344.6,3.892,3.892,0,0,0-2.163,2.061l4.054.409a2.21,2.21,0,0,1,1.908-.954Zm.409,6.133a1.441,1.441,0,0,1-.971-.392,1.285,1.285,0,0,1-.409-.988,1.248,1.248,0,0,1,.409-.971,1.58,1.58,0,0,1,1.073-.375,3.174,3.174,0,0,1,1.465.375v1.823A2.24,2.24,0,0,1,23.407,12.317ZM7.921,11.209H6.473V8.075a2.666,2.666,0,0,1,1.482-.528,1.137,1.137,0,0,1,1.022.46,4.705,4.705,0,0,1,.238,1.908v4.429h6.371V11.209H14.395V8.637a5.025,5.025,0,0,0-.954-3.407,3.731,3.731,0,0,0-2.879-1.056A7,7,0,0,0,6.473,5.622V4.361H0V7.5H1.295v3.714H0v3.134H7.9V11.209Z" transform="translate(14.497 84.359)" fill="#f7eee5"/><path d="M93.66,11.414v-.239h-.681V0H86.267V3.611h1.056v7.564H86.267v3.612H93.9V11.175H93.66v.239h-.239v2.9H86.744V11.652H87.8V3.134H86.744V.477H92.5V11.652H93.66v-.239h0ZM76.8,6.405v.238a2.4,2.4,0,0,1,1.09.238,1.069,1.069,0,0,1,.528.545,4.307,4.307,0,0,1,.119,1.21v.307h.238l.1-.221a7.872,7.872,0,0,0-3.169-.528,6.278,6.278,0,0,0-3.577.937A2.931,2.931,0,0,0,70.7,11.618a3.068,3.068,0,0,0,1.158,2.368,4.977,4.977,0,0,0,3.339.988,6.938,6.938,0,0,0,3.714-.9l-.136-.2h-.238v.92h6.933V11.175H84.189V8.535a5.7,5.7,0,0,0-.29-2.112,3.245,3.245,0,0,0-.988-1.261,5.05,5.05,0,0,0-2.129-.852c-.443-.085-.954-.153-1.516-.2s-1.21-.068-1.925-.068a12.457,12.457,0,0,0-4.429.613,4.126,4.126,0,0,0-2.283,2.2l-.136.307,4.531.46.085-.119a1.939,1.939,0,0,1,1.721-.852V6.167a2.453,2.453,0,0,0-2.112,1.056l.2.136V7.121c.017,0-4.037-.409-4.037-.409V6.95a1.858,1.858,0,0,0,.187.1A3.6,3.6,0,0,1,73.1,5.111a12.05,12.05,0,0,1,4.259-.579c.7,0,1.329.017,1.874.068a10.849,10.849,0,0,1,1.465.2,4.384,4.384,0,0,1,1.925.75,2.855,2.855,0,0,1,.852,1.073,5.506,5.506,0,0,1,.256,1.925v3.117h1.278v2.658H79.027v-.886l-.375.238a6.289,6.289,0,0,1-3.458.835,4.414,4.414,0,0,1-3.032-.869,2.606,2.606,0,0,1-1.005-2.01,2.424,2.424,0,0,1,1.227-2.1,5.794,5.794,0,0,1,3.3-.852,7.772,7.772,0,0,1,2.981.477l.341.153V8.654a4.08,4.08,0,0,0-.153-1.38,1.612,1.612,0,0,0-.75-.8,2.607,2.607,0,0,0-1.312-.29v.221Zm.409,6.133V12.3a1.12,1.12,0,0,1-.8-.324,1.152,1.152,0,0,1-.017-1.618,1.277,1.277,0,0,1,.92-.307,2.87,2.87,0,0,1,1.346.341l.119-.2h-.239V12.01h.239l-.153-.187a2,2,0,0,1-1.4.46v.477a2.535,2.535,0,0,0,1.721-.579l.085-.068V10.034l-.119-.068a3.194,3.194,0,0,0-1.567-.392A1.809,1.809,0,0,0,76.1,10a1.6,1.6,0,0,0,.017,2.3,1.694,1.694,0,0,0,1.124.46v-.239Zm-9.9-1.107v-.238H65.791v.238h.238a2.889,2.889,0,0,1,.273-1.346,1.774,1.774,0,0,1,.971-.75,6.454,6.454,0,0,1,2.266-.307H70.2V4.157h-.238a8.3,8.3,0,0,0-2.1.2,3.551,3.551,0,0,0-1.516.937A4.423,4.423,0,0,0,65.211,7l.221.085h.239V4.344H58.993V7.956h1.363v3.22H58.993v3.611h8.535V11.175H67.29v.239h-.238v2.9H59.488V11.652H60.85V7.462H59.488V4.8h5.724V8.4l.46-1.244a3.858,3.858,0,0,1,1.022-1.516,3.138,3.138,0,0,1,1.329-.818,7.938,7.938,0,0,1,1.959-.187V4.4h-.239v4.4h.239V8.552h-.426a6.652,6.652,0,0,0-2.453.341,2.288,2.288,0,0,0-1.21.971,3.553,3.553,0,0,0-.341,1.567v.238h1.755v-.238h0ZM43.559,10.085h-.238c0,1.84.375,3.135,1.192,3.867a4.112,4.112,0,0,0,2.794,1.039,7.439,7.439,0,0,0,4.327-1.5L51.5,13.3h-.238v1.5h6.865V11.192h-1.21V4.344H49.9V7.956h1.363V10.9H51.5l-.119-.2a2.723,2.723,0,0,1-1.482.426c-.443,0-.63-.119-.716-.29a3.631,3.631,0,0,1-.2-1.5V4.344H42.111V7.956h1.209v2.129H43.8V7.479h-1.21V4.821H48.5V9.335a3.99,3.99,0,0,0,.256,1.738,1.2,1.2,0,0,0,1.141.545,3.314,3.314,0,0,0,1.738-.494l.119-.068V7.5H50.391V4.838h6.065v6.848h1.21v2.658H51.753V12.862l-.375.273a6.973,6.973,0,0,1-4.054,1.414,3.553,3.553,0,0,1-2.47-.92c-.664-.579-1.039-1.721-1.039-3.509h-.238Zm-3.68,1.158V11c-.324,0-.426-.085-.494-.187a2.857,2.857,0,0,1-.153-1.158v-1.7h2.1V4.344h-2.1V.2L33.577,2.9V4.344H32.3V7.956h1.278V9.387c0,1.295.017,2.181.068,2.658a4.636,4.636,0,0,0,.17.767,3.322,3.322,0,0,0,.375.733,3.121,3.121,0,0,0,1.4,1.141,5,5,0,0,0,2.1.409,7.481,7.481,0,0,0,1.993-.273,5.007,5.007,0,0,0,1.533-.63l.1-.068v-3.56l-.341.153a2.942,2.942,0,0,1-1.124.307V11.5a3.258,3.258,0,0,0,1.312-.341l-.1-.221h-.238V14h.238l-.136-.2a4.885,4.885,0,0,1-1.4.562,7.389,7.389,0,0,1-1.874.256,4.459,4.459,0,0,1-1.891-.358,2.642,2.642,0,0,1-1.192-.971,3.012,3.012,0,0,1-.477-1.295c-.051-.426-.068-1.295-.068-2.589V7.479H32.742V4.821H34.02V3.2l4.7-2.232v3.85h2.1V7.479h-2.1V9.659a3.118,3.118,0,0,0,.2,1.38.966.966,0,0,0,.92.443v-.238ZM23.219,6.422v.239a2.4,2.4,0,0,1,1.09.238,1.069,1.069,0,0,1,.528.545,4.307,4.307,0,0,1,.119,1.21v.307H25.2l.1-.221a7.872,7.872,0,0,0-3.169-.528,6.278,6.278,0,0,0-3.577.937,2.931,2.931,0,0,0-1.431,2.487A3.068,3.068,0,0,0,18.279,14a4.977,4.977,0,0,0,3.339.988,6.938,6.938,0,0,0,3.714-.9l-.136-.2h-.238v.92H31.89V11.192H30.613V8.552a5.7,5.7,0,0,0-.29-2.112,3.245,3.245,0,0,0-.988-1.261,5.05,5.05,0,0,0-2.129-.852c-.443-.085-.954-.153-1.516-.2s-1.21-.068-1.925-.068a12.457,12.457,0,0,0-4.429.613,4.126,4.126,0,0,0-2.283,2.2l-.136.307,4.531.46.085-.119a1.939,1.939,0,0,1,1.721-.852V6.184A2.453,2.453,0,0,0,21.141,7.24l.2.136V7.138c.017,0-4.037-.409-4.037-.409v.239a1.858,1.858,0,0,0,.187.1,3.6,3.6,0,0,1,2.027-1.942,12.05,12.05,0,0,1,4.259-.579c.7,0,1.329.017,1.874.068a10.854,10.854,0,0,1,1.465.2,4.384,4.384,0,0,1,1.925.75A2.855,2.855,0,0,1,29.9,6.644a5.506,5.506,0,0,1,.256,1.925v3.117H31.43v2.658H25.451v-.886l-.375.238a6.289,6.289,0,0,1-3.458.835,4.414,4.414,0,0,1-3.032-.869,2.606,2.606,0,0,1-1.005-2.01,2.424,2.424,0,0,1,1.227-2.1,5.794,5.794,0,0,1,3.3-.852,7.772,7.772,0,0,1,2.981.477l.341.153V8.671a4.08,4.08,0,0,0-.153-1.38,1.613,1.613,0,0,0-.75-.8,2.607,2.607,0,0,0-1.312-.29v.238Zm.409,6.133v-.239a1.12,1.12,0,0,1-.8-.324,1.152,1.152,0,0,1-.017-1.618,1.276,1.276,0,0,1,.92-.307,2.87,2.87,0,0,1,1.346.341l.119-.2h-.238v1.823H25.2l-.153-.187a2,2,0,0,1-1.4.46v.477a2.535,2.535,0,0,0,1.721-.579l.085-.068V10.051l-.119-.068a3.194,3.194,0,0,0-1.567-.392,1.809,1.809,0,0,0-1.244.426,1.6,1.6,0,0,0,.017,2.3,1.694,1.694,0,0,0,1.124.46v-.239ZM8.143,11.448v-.239H6.933v-2.9H6.695l.136.2a2.432,2.432,0,0,1,1.346-.494.869.869,0,0,1,.818.341,4.719,4.719,0,0,1,.221,1.789v4.685h6.848V11.226H14.872V8.909a5.169,5.169,0,0,0-1.022-3.56,3.96,3.96,0,0,0-3.066-1.141,6.85,6.85,0,0,0-4.225,1.5l.153.187H6.95V4.4H0V8.007H1.295v3.22H.017v3.611H8.4V11.226H8.16v.239H7.921v2.9H.494V11.7H1.789V7.513H.494V4.855H6.473v1.5l.392-.29a6.356,6.356,0,0,1,3.935-1.4,3.464,3.464,0,0,1,2.709.988,4.761,4.761,0,0,1,.9,3.254V11.72H15.6v2.658H9.727V10.187A4.791,4.791,0,0,0,9.455,8.16a1.333,1.333,0,0,0-1.227-.579,3.043,3.043,0,0,0-1.618.562l-.1.068V11.72H8.194v-.238h0Z" transform="translate(14.276 84.121)" fill="#3d342d"/><path d="M54.07,2.964H46.711V7.393H54.07ZM37.393,7.036H35.945V3.9a2.667,2.667,0,0,1,1.482-.528,1.137,1.137,0,0,1,1.022.46,4.705,4.705,0,0,1,.238,1.908V10.17h6.371V7.036H43.866V4.463a5.025,5.025,0,0,0-.954-3.407A3.731,3.731,0,0,0,40.033,0a7,7,0,0,0-4.088,1.448V.187H29.471V3.322h1.295V7.036H29.471V10.17h7.9V7.036ZM13.748,5.69c0,1.806.375,3.032,1.107,3.68a3.861,3.861,0,0,0,2.64.971,8.185,8.185,0,0,0,4.191-1.448v1.261h6.388V7.019h-1.21V.17H20.323V3.3h1.363V6.49a2.967,2.967,0,0,1-1.6.46c-.579,0-.784-.136-.92-.426a3.814,3.814,0,0,1-.221-1.618V.153H12.555V3.288h1.21V5.656ZM3.526,9.676a6.7,6.7,0,0,0,3.169.681A5.745,5.745,0,0,0,9.846,9.54a2.828,2.828,0,0,0,1.295-2.555c0-1.158-.17-1.175-.528-1.618a3.518,3.518,0,0,0-1.6-1.056,21.431,21.431,0,0,0-2.981-.8c-1.124-.238-1.772-.375-1.976-.443C3.816,3,3.7,2.879,3.7,2.675c0-.426.392-.63,1.192-.63A3.935,3.935,0,0,1,7.479,3.083h2.93V.187H7.24V.7A6.392,6.392,0,0,0,4.123,0,5.112,5.112,0,0,0,1.175.767,2.721,2.721,0,0,0,0,3.2c0,1.107.085.9.238,1.209a2.722,2.722,0,0,0,.9.954,5.206,5.206,0,0,0,1.772.8c.869.256,1.652.477,2.368.664a11.536,11.536,0,0,1,1.635.477.486.486,0,0,1,.307.443q0,.562-1.38.562A3.445,3.445,0,0,1,3.322,7.1h-3v3.169h3.2v-.6Z" transform="translate(34.088 106.164)" fill="#f7eee5"/><path d="M54.343,3.237V3h-7.6V7.921h7.836V3h-.239v.239H54.1V7.427H47.24V3.475H54.36V3.237h0ZM37.666,7.308V7.07H36.456v-2.9h-.239l.136.2A2.431,2.431,0,0,1,37.7,3.884a.869.869,0,0,1,.818.341,4.72,4.72,0,0,1,.221,1.789V10.7h6.848V7.087H44.395V4.77a5.17,5.17,0,0,0-1.022-3.56A3.96,3.96,0,0,0,40.306.068a6.85,6.85,0,0,0-4.225,1.5l.153.187h.238V.255h-6.95V3.867h1.295v3.22H29.54V10.7h8.381V7.087h-.238v.239h-.238v2.9H30.017V7.564h1.295V3.373H30.017V.715H36v1.5l.392-.29a6.355,6.355,0,0,1,3.935-1.4,3.464,3.464,0,0,1,2.709.988,4.761,4.761,0,0,1,.9,3.254V7.581H45.11v2.658H39.233V6.048A4.791,4.791,0,0,0,38.96,4.02a1.333,1.333,0,0,0-1.227-.579A3.044,3.044,0,0,0,36.115,4l-.1.068V7.581H37.7V7.342h0ZM14.021,5.962h-.238c0,1.84.375,3.135,1.192,3.867a4.112,4.112,0,0,0,2.794,1.039,7.439,7.439,0,0,0,4.327-1.5l-.136-.187h-.238v1.5h6.865V7.07h-1.21V.221H20.358V3.833h1.363V6.78h.239l-.119-.2A2.723,2.723,0,0,1,20.358,7c-.443,0-.63-.119-.715-.29a3.63,3.63,0,0,1-.2-1.5V.221H12.573V3.833h1.21V5.962h.477V3.356H13.05V.7h5.911V5.213a3.99,3.99,0,0,0,.256,1.738,1.2,1.2,0,0,0,1.141.545A3.313,3.313,0,0,0,22.1,7l.119-.068V3.373H20.852V.715h6.065V7.564h1.21v2.658H22.215V8.739l-.375.273a6.973,6.973,0,0,1-4.054,1.414,3.553,3.553,0,0,1-2.47-.92C14.651,8.926,14.276,7.785,14.276,6h-.238ZM3.8,9.949l-.119.2a6.922,6.922,0,0,0,3.271.716,5.885,5.885,0,0,0,3.271-.852,3.072,3.072,0,0,0,1.4-2.76,2.769,2.769,0,0,0-.579-1.772,4.107,4.107,0,0,0-1.7-1.141,22.467,22.467,0,0,0-3.015-.818c-1.107-.238-1.789-.375-1.959-.443-.187-.068-.17-.068-.187-.153,0-.2.153-.375.937-.392a3.424,3.424,0,0,1,2.436.971l.068.068h3.254V.187H7.223v.75h.238l.119-.2A6.519,6.519,0,0,0,4.362,0,5.469,5.469,0,0,0,1.278.818,2.945,2.945,0,0,0,0,3.458,2.843,2.843,0,0,0,.273,4.787a2.716,2.716,0,0,0,.971,1.022,5.786,5.786,0,0,0,1.84.835c.869.255,1.652.477,2.368.664a9,9,0,0,1,1.584.46c.153.085.17.119.17.238,0,.085,0,.119-.2.2a2.809,2.809,0,0,1-.937.119A3.19,3.19,0,0,1,3.714,7.189l-.068-.068H.307v3.646h3.68V9.915H3.748l-.119.2.119-.2H3.51v.375H.784V7.6h2.76V7.359l-.17.17A3.654,3.654,0,0,0,6.065,8.824c.9,0,1.567-.153,1.618-.8a.753.753,0,0,0-.426-.664,9.511,9.511,0,0,0-1.687-.511c-.7-.187-1.5-.409-2.351-.664a4.877,4.877,0,0,1-1.686-.767,2.631,2.631,0,0,1-.818-.852A2.448,2.448,0,0,1,.495,3.458,2.49,2.49,0,0,1,1.568,1.209,5.043,5.043,0,0,1,4.4.477a6.1,6.1,0,0,1,3,.664l.358.2V.664h2.675V3.083H7.752v.239l.17-.17a3.89,3.89,0,0,0-2.76-1.107c-.8,0-1.414.239-1.431.869a.671.671,0,0,0,.528.63c.221.068.869.2,1.993.443a20.739,20.739,0,0,1,2.947.8,3.488,3.488,0,0,1,1.5.988,2.291,2.291,0,0,1,.477,1.465A2.574,2.574,0,0,1,10,9.591a5.654,5.654,0,0,1-3.015.784,6.566,6.566,0,0,1-3.049-.647L3.578,9.54v.392h.238Z" transform="translate(33.815 105.892)" fill="#3d342d"/><path d="M66.029,11.465V.29H59.573V3.424H60.85v1.84a5.927,5.927,0,0,0-3.169-.818,6.448,6.448,0,0,0-4.02,1.4,5.192,5.192,0,0,0-1.5,4,4.256,4.256,0,0,0,1.618,3.68,5.912,5.912,0,0,0,3.731,1.295,6.19,6.19,0,0,0,3.339-.852v.664h6.473V11.5H66.029Zm-5.639-.187a1.648,1.648,0,0,1-1.278.545,1.539,1.539,0,0,1-1.295-.613,2.6,2.6,0,0,1-.426-1.55c0-1.516.579-2.283,1.755-2.283s1.005.2,1.295.613a2.7,2.7,0,0,1,.426,1.567,2.766,2.766,0,0,1-.477,1.7ZM44.173,12.555c-1.192,0-1.789-.818-1.806-2.436h7.87A5.619,5.619,0,0,0,48.38,5.758,7.159,7.159,0,0,0,43.764,4.31,6.991,6.991,0,0,0,39.1,5.826a4.866,4.866,0,0,0-1.738,3.816,4.691,4.691,0,0,0,1.755,3.782,8.1,8.1,0,0,0,5.247,1.448c2.317,0,2.572-.273,3.577-.8a4.722,4.722,0,0,0,1.261-.92,3.967,3.967,0,0,0,.8-1.192l-4.276-.528a1.6,1.6,0,0,1-1.55,1.107ZM42.418,8.62a2.619,2.619,0,0,1,.375-1.448,1.168,1.168,0,0,1,1.073-.579,1.267,1.267,0,0,1,1.09.528,2.145,2.145,0,0,1,.409,1.346c0,.545,0,.136-.017.358H42.435v-.2Zm-12.4-5.5a4.321,4.321,0,0,0,2.044.443,3.715,3.715,0,0,0,1.993-.477,1.452,1.452,0,0,0,.784-1.295,1.5,1.5,0,0,0-.75-1.278A3.551,3.551,0,0,0,32.078,0a3.948,3.948,0,0,0-2.044.494A1.466,1.466,0,0,0,29.2,1.806a1.443,1.443,0,0,0,.818,1.312Zm5.656,8.347H34.8V4.617H28.6V7.751h1.022v3.714H28.6V14.6h7.07Zm-11.039,0H23.117A3.066,3.066,0,0,1,23.424,10a2.073,2.073,0,0,1,1.09-.869,6.281,6.281,0,0,1,2.351-.324h.426v-4.4a8.578,8.578,0,0,0-2.027.187,3.434,3.434,0,0,0-1.414.869,3.972,3.972,0,0,0-1.073,1.618v-2.5h-6.2V7.717h1.363v3.714H16.575v3.135h8.058v-3.1Zm-10.766,0V.29H7.41V3.424H8.688v1.84a5.927,5.927,0,0,0-3.169-.818,6.448,6.448,0,0,0-4.02,1.4,5.192,5.192,0,0,0-1.5,4,4.256,4.256,0,0,0,1.618,3.68,5.912,5.912,0,0,0,3.731,1.295,6.19,6.19,0,0,0,3.339-.852v.664h6.473V11.5H13.867Zm-5.639-.187a1.648,1.648,0,0,1-1.278.545,1.539,1.539,0,0,1-1.295-.613,2.6,2.6,0,0,1-.426-1.55c0-1.516.579-2.283,1.755-2.283s1.005.2,1.295.613a2.7,2.7,0,0,1,.426,1.567,2.766,2.766,0,0,1-.477,1.7Z" transform="translate(27.648 119.401)" fill="#f7eee5"/><path d="M66.285,11.7h.239V.29H59.59V3.9h1.278V5.5h.238l.119-.2a6.809,6.809,0,0,0-7.5.6,5.469,5.469,0,0,0-1.584,4.174,4.631,4.631,0,0,0,1.721,3.867,6.15,6.15,0,0,0,3.884,1.346,6.658,6.658,0,0,0,3.458-.886l-.119-.2H60.85v.9H67.8V11.482H66.268v.239h0v.238h1.056v2.658h-6v-.852l-.358.221a6.2,6.2,0,0,1-3.22.818,5.59,5.59,0,0,1-3.594-1.244,4.163,4.163,0,0,1-1.533-3.492,4.91,4.91,0,0,1,1.431-3.816A5.488,5.488,0,0,1,57.92,4.923a5.753,5.753,0,0,1,3.049.784l.375.221v-2.5H60.067V.767h5.979V11.942h.239V11.7Zm-5.639-.187-.17-.17a1.349,1.349,0,0,1-1.09.46,1.2,1.2,0,0,1-1.09-.511A2.358,2.358,0,0,1,57.9,9.88c.034-1.465.477-2.01,1.516-2.044a1.234,1.234,0,0,1,1.09.511A2.451,2.451,0,0,1,60.9,9.778a2.249,2.249,0,0,1-.426,1.55l.187.153.187.153A2.766,2.766,0,0,0,61.4,9.761a2.907,2.907,0,0,0-.477-1.7,1.669,1.669,0,0,0-1.482-.716,1.845,1.845,0,0,0-1.516.664,3.005,3.005,0,0,0-.494,1.857A2.852,2.852,0,0,0,57.9,11.55a1.708,1.708,0,0,0,1.482.715,1.825,1.825,0,0,0,1.448-.63l-.17-.153ZM44.428,12.793v-.238c-1.039-.017-1.516-.613-1.567-2.2h-.238V10.6h8.109V10.34a5.888,5.888,0,0,0-1.959-4.531A7.364,7.364,0,0,0,44,4.31a7.028,7.028,0,0,0-4.821,1.584A5.1,5.1,0,0,0,37.359,9.88,4.961,4.961,0,0,0,39.2,13.85a8.326,8.326,0,0,0,5.4,1.5,7.574,7.574,0,0,0,3.68-.835,5.149,5.149,0,0,0,1.312-.971,4.3,4.3,0,0,0,.852-1.278l.119-.29-4.77-.579-.068.17a1.374,1.374,0,0,1-1.329.971v.477a1.886,1.886,0,0,0,1.772-1.261l-.221-.1-.034.238,4.276.528.034-.238-.221-.1a3.61,3.61,0,0,1-.75,1.124,4.224,4.224,0,0,1-1.192.869,7.457,7.457,0,0,1-3.458.784,7.837,7.837,0,0,1-5.094-1.4,4.38,4.38,0,0,1-1.669-3.594,4.6,4.6,0,0,1,1.652-3.629A6.542,6.542,0,0,1,44,4.77a6.794,6.794,0,0,1,4.463,1.4,5.3,5.3,0,0,1,1.772,4.174h.239v-.256H42.367v.239c0,1.652.715,2.675,2.061,2.675v-.2ZM42.674,8.858h.238a2.38,2.38,0,0,1,.341-1.312.932.932,0,0,1,.869-.46,1.076,1.076,0,0,1,.9.426,1.875,1.875,0,0,1,.358,1.192s0,.136-.017.341H45.6V8.824H42.691v.238l.239-.034v-.17h-.494V9.1l.034.2h3.356V9.08a2.132,2.132,0,0,0,.034-.375,2.451,2.451,0,0,0-.46-1.5,1.506,1.506,0,0,0-1.278-.613,1.484,1.484,0,0,0-1.278.681,2.945,2.945,0,0,0-.409,1.567h.238Zm-12.385-5.5-.119.2a4.393,4.393,0,0,0,2.146.477,4.149,4.149,0,0,0,2.129-.511,1.7,1.7,0,0,0,.9-1.5A1.772,1.772,0,0,0,34.5.562,3.793,3.793,0,0,0,32.35,0a4.158,4.158,0,0,0-2.163.528,1.733,1.733,0,0,0-.954,1.516,1.7,1.7,0,0,0,.937,1.533l.119-.2.119-.221a1.144,1.144,0,0,1-.681-1.107A1.22,1.22,0,0,1,30.442.937,3.638,3.638,0,0,1,32.35.477a3.31,3.31,0,0,1,1.874.477,1.268,1.268,0,0,1,.647,1.073A1.192,1.192,0,0,1,34.207,3.1a3.588,3.588,0,0,1-1.874.443,3.983,3.983,0,0,1-1.925-.409l-.119.2ZM35.945,11.7v-.238h-.63V4.617H28.619V8.228h1.022v3.22H28.619v3.611h7.547V11.448h-.238v.238h-.238v2.9H29.1V11.925h1.022V7.734H29.1V5.077H34.82v6.848h1.107v-.238h0Zm-11.039,0v-.238H23.39V11.7h.238a2.889,2.889,0,0,1,.273-1.346,1.774,1.774,0,0,1,.971-.75A6.455,6.455,0,0,1,27.137,9.3H27.8V4.429h-.238a8.292,8.292,0,0,0-2.1.2,3.551,3.551,0,0,0-1.516.937,4.422,4.422,0,0,0-1.141,1.7l.221.085h.238V4.617H16.592V8.228h1.363v3.22H16.592v3.611h8.535V11.448h-.238v.238H24.65v2.9H17.069V11.925h1.363V7.734H17.069V5.077h5.724V8.671l.46-1.244a3.858,3.858,0,0,1,1.022-1.516A3.138,3.138,0,0,1,25.6,5.094a7.937,7.937,0,0,1,1.959-.187V4.668h-.238v4.4h.238V8.824h-.426a6.651,6.651,0,0,0-2.453.341,2.288,2.288,0,0,0-1.21.971,3.553,3.553,0,0,0-.341,1.567v.239h1.755V11.7h.017Zm-10.766,0h.239V.29H7.444V3.9H8.722V5.5h.238l.119-.2a5.938,5.938,0,0,0-3.3-.852A5.973,5.973,0,0,0,1.584,5.894,5.469,5.469,0,0,0,0,10.068a4.631,4.631,0,0,0,1.721,3.867A6.15,6.15,0,0,0,5.6,15.281a6.658,6.658,0,0,0,3.458-.886l-.119-.2H8.705v.9h6.95V11.482H14.122v.239h0v.238h1.056v2.658h-6v-.852l-.358.221A6.2,6.2,0,0,1,5.6,14.8,5.591,5.591,0,0,1,2.01,13.56,4.163,4.163,0,0,1,.477,10.068,4.91,4.91,0,0,1,1.908,6.252,5.488,5.488,0,0,1,5.775,4.923a5.753,5.753,0,0,1,3.049.784l.375.221v-2.5H7.921V.767H13.9V11.942h.238ZM8.5,11.516l-.17-.17a1.349,1.349,0,0,1-1.09.46,1.2,1.2,0,0,1-1.09-.511A2.358,2.358,0,0,1,5.758,9.88c.034-1.465.477-2.01,1.516-2.044a1.234,1.234,0,0,1,1.09.511,2.451,2.451,0,0,1,.392,1.431,2.249,2.249,0,0,1-.426,1.55l.187.153.187.153A2.765,2.765,0,0,0,9.25,9.761a2.907,2.907,0,0,0-.477-1.7,1.669,1.669,0,0,0-1.482-.716,1.845,1.845,0,0,0-1.516.664,3.005,3.005,0,0,0-.494,1.857,2.852,2.852,0,0,0,.477,1.687,1.708,1.708,0,0,0,1.482.715,1.826,1.826,0,0,0,1.448-.63l-.17-.153Z" transform="translate(27.393 119.162)" fill="#3d342d"/></g></svg>