<svg xmlns="http://www.w3.org/2000/svg" width="155.681" height="155.681" viewBox="0 0 155.681 155.681"><g transform="translate(12.524) rotate(5)"><rect width="142.794" height="142.794" rx="14" transform="translate(0.454 0.454)" fill="#8dac2b"/><path d="M.454,132.469H.909V11.234A10.324,10.324,0,0,1,11.234.909H132.469a10.324,10.324,0,0,1,10.325,10.325V132.469a10.324,10.324,0,0,1-10.325,10.325H11.234A10.324,10.324,0,0,1,.909,132.469H0A11.233,11.233,0,0,0,11.234,143.7H132.469A11.233,11.233,0,0,0,143.7,132.469V11.234A11.233,11.233,0,0,0,132.469,0H11.234A11.233,11.233,0,0,0,0,11.234V132.469Z" transform="translate(0 0)"/><path d="M111.475,13.584a2.7,2.7,0,0,1-2.272-1,6.434,6.434,0,0,1-.768-3.745,6.974,6.974,0,0,1,.736-3.792,2.681,2.681,0,0,1,2.334-1.034,2.942,2.942,0,0,1,1.974.548,4.079,4.079,0,0,1,1.379,1.629h4.027V.345h-4.027V1.5A7.22,7.22,0,0,0,110.018,0a9.515,9.515,0,0,0-6.251,2.4,8.23,8.23,0,0,0-2.57,6.3,6.963,6.963,0,0,0,1.269,4.669,7.014,7.014,0,0,0,3.588,3.024,13.465,13.465,0,0,0,5.139.94,8.276,8.276,0,0,0,3.557-.6,6.7,6.7,0,0,0,2.82-1.911,6.757,6.757,0,0,0,1.567-2.616,16.138,16.138,0,0,0,.392-4.074h-7.473v3.181h1.708a1.994,1.994,0,0,1-2.256,2.256Zm-22,2.4A6.585,6.585,0,0,0,93.488,17.3a5.692,5.692,0,0,0,3.948-1.473A4.663,4.663,0,0,0,99,12.268a4.053,4.053,0,0,0-.658-2.554,6.874,6.874,0,0,0-.721-1.034,4.163,4.163,0,0,0-.862-.768,32.089,32.089,0,0,0-3.29-1.786,18.52,18.52,0,0,1-2.178-1.159.869.869,0,0,1-.345-.752c0-.705.407-1.05,1.222-1.05A2.494,2.494,0,0,1,94.6,5.139h3.745V.376H94.554V1.41A5.705,5.705,0,0,0,90.825.157a5.4,5.4,0,0,0-3.7,1.316,4.592,4.592,0,0,0-1.52,3.651,3.136,3.136,0,0,0,.642,2.366,5.2,5.2,0,0,0,1.535,1.692,18.928,18.928,0,0,0,3.008,1.6,12.185,12.185,0,0,1,2.131,1.128,1.157,1.157,0,0,1,.47.94c0,.721-.454,1.081-1.347,1.081a2.918,2.918,0,0,1-2.538-2.193h-3.76v5.358h3.76V16Zm-24.52-2.914H63.642V3.839l5,13.223h2.507L76.191,3.713v9.338H74.86v4.011h8.727V13.051H82.239V4.34h1.316V.329H73.528L71.006,6.784,68.546.329H58.456V4.34h1.316v8.711H58.487v4.011h6.486V13.051ZM43.1,14.681c-1.394,0-2.1-.94-2.115-2.836h9.181A6.6,6.6,0,0,0,47.99,6.753,8.271,8.271,0,0,0,42.6,5.076a8.076,8.076,0,0,0-5.452,1.786,5.646,5.646,0,0,0-2.037,4.45,5.511,5.511,0,0,0,2.052,4.418c1.363,1.128,3.416,1.692,6.126,1.692s3.008-.313,4.168-.94A5.514,5.514,0,0,0,48.93,15.4a4.562,4.562,0,0,0,.94-1.394L44.888,13.4a1.884,1.884,0,0,1-1.8,1.3ZM41.049,10.09a3,3,0,0,1,.439-1.676,1.381,1.381,0,0,1,1.253-.674,1.5,1.5,0,0,1,1.269.611A2.571,2.571,0,0,1,44.5,9.933c0,.642,0,.172-.016.407h-3.4v-.235Zm-8.116-1h1.159V5.421H28.076V9.087H29.2l-1.88,4.575L25.287,9.087h1.285V5.421H18.629V9.087h.909L24,17.689l-.6,1.191H21.449V22.42h5.092L32.918,9.072ZM7.614,16.294a7.813,7.813,0,0,0,4.011,1A6.178,6.178,0,0,0,16,15.511a5.9,5.9,0,0,0,1.316-1.974,6.408,6.408,0,0,0,.439-2.444,5.427,5.427,0,0,0-1.817-4.309A6.679,6.679,0,0,0,11.343,5.2,6.219,6.219,0,0,0,7.6,6.157V.345H0V4.011H1.551V13.4H.031v3.666H7.614v-.768ZM8.1,9.354a1.8,1.8,0,0,1,1.52-.705,1.79,1.79,0,0,1,1.473.642,2.868,2.868,0,0,1,.548,1.911c0,1.755-.658,2.616-1.99,2.616s-2.1-.877-2.1-2.632.172-1.347.533-1.833Z" transform="translate(11.704 24.081)" fill="#f7eee5"/><path d="M111.9,14.022v-.454a2.266,2.266,0,0,1-1.927-.83,6.121,6.121,0,0,1-.674-3.463,6.718,6.718,0,0,1,.658-3.541,2.271,2.271,0,0,1,1.974-.846,3.057,3.057,0,0,1,1.739.486,3.58,3.58,0,0,1,1.222,1.457l.125.251h4.763V.345h-4.92V1.958h.454l.3-.345A7.625,7.625,0,0,0,110.472,0a9.331,9.331,0,0,0-6.565,2.507,8.647,8.647,0,0,0-2.71,6.627,9.09,9.09,0,0,0,1.347,4.9,7.52,7.52,0,0,0,3.807,3.212,14.1,14.1,0,0,0,5.3.971,10.745,10.745,0,0,0,3.713-.627,7.345,7.345,0,0,0,3.008-2.037,7.164,7.164,0,0,0,1.661-2.789,15.938,15.938,0,0,0,.407-4.2V8.116h-8.382v4.074h2.162v-.454h-.454c-.063,1.347-.47,1.739-1.817,1.817v.893a2.746,2.746,0,0,0,2.005-.689,2.682,2.682,0,0,0,.689-2.005V11.3h-1.708V9.025h7.035V8.57h-.454a14.847,14.847,0,0,1-.376,3.948,6.306,6.306,0,0,1-1.473,2.428,6.411,6.411,0,0,1-2.648,1.786,10.058,10.058,0,0,1-3.4.58,12.925,12.925,0,0,1-4.967-.909,6.622,6.622,0,0,1-3.369-2.851,8.228,8.228,0,0,1-1.206-4.434A7.734,7.734,0,0,1,104.5,3.149,8.333,8.333,0,0,1,110.456.877a6.834,6.834,0,0,1,4.559,1.394l.736.642V1.222h3.134V6.173h-3.572v.454l.407-.2a4.405,4.405,0,0,0-1.535-1.817,3.971,3.971,0,0,0-2.225-.627A3.131,3.131,0,0,0,109.266,5.2a7.217,7.217,0,0,0-.815,4.058c0,1.88.235,3.2.862,4.011a3.2,3.2,0,0,0,2.632,1.175v-.454Zm-22,2.4-.266.36a7.129,7.129,0,0,0,4.277,1.394,5.958,5.958,0,0,0,4.246-1.6,5.12,5.12,0,0,0,1.708-3.886,5.55,5.55,0,0,0-.721-2.773,6.265,6.265,0,0,0-.783-1.112,4.265,4.265,0,0,0-.956-.846,31.767,31.767,0,0,0-3.337-1.817,21.066,21.066,0,0,1-2.1-1.112c-.125-.094-.172-.172-.172-.407.063-.486.078-.533.783-.6.971.016,1.551.47,2.005,1.676l.11.3h4.512V.345H94.523V1.833h.454l.282-.345A6.117,6.117,0,0,0,91.248.141a5.865,5.865,0,0,0-4,1.426,5.045,5.045,0,0,0-1.676,3.98,4.986,4.986,0,0,0,.705,2.6A5.425,5.425,0,0,0,87.958,9.98a19.17,19.17,0,0,0,3.071,1.629,12.175,12.175,0,0,1,2.037,1.065.7.7,0,0,1,.3.6c-.047.486-.094.564-.893.627-1.05-.016-1.661-.517-2.115-1.864l-.094-.313H85.717v6.267h4.653V16.451h-.454l-.266.36.266-.36h-.454v.642H86.595V12.628h3.322v-.454l-.423.125a3.059,3.059,0,0,0,2.961,2.507,1.954,1.954,0,0,0,1.285-.376,1.407,1.407,0,0,0,.5-1.159,1.618,1.618,0,0,0-.642-1.285,10.914,10.914,0,0,0-2.225-1.191,20.718,20.718,0,0,1-2.93-1.551,4.684,4.684,0,0,1-1.41-1.551,4.154,4.154,0,0,1-.58-2.146A4.08,4.08,0,0,1,87.817,2.24a5.047,5.047,0,0,1,3.416-1.206,5.314,5.314,0,0,1,3.447,1.144l.736.6V1.238H98.3v3.87h-3.29v.454l.423-.141A2.957,2.957,0,0,0,92.58,3.149a1.742,1.742,0,0,0-1.206.376,1.414,1.414,0,0,0-.47,1.128,1.353,1.353,0,0,0,.533,1.128,19.52,19.52,0,0,0,2.24,1.206A36.775,36.775,0,0,1,96.92,8.742a3.451,3.451,0,0,1,.768.705,5.84,5.84,0,0,1,.674.94,4.638,4.638,0,0,1,.611,2.334,4.16,4.16,0,0,1-1.426,3.228,5.029,5.029,0,0,1-3.635,1.363,6.194,6.194,0,0,1-3.745-1.222l-.721-.517v.877H89.9Zm-24.52-2.914v-.454H64.5V6.737l4.246,11.218h3.118L76.16,6.612v6.439H74.828v4.9h9.62v-4.9H83.1V5.233h1.316V.329H73.638L71.429,5.985,69.266.329H58.424v4.9h1.316v7.818H58.456v4.9h7.379v-4.9h-.454v.454h-.454v3.557H59.349v-3.1h1.285V4.34H59.318v-3.1h9.338l2.773,7.254,2.836-7.254H83.54v3.1H82.224v9.62h1.347v3.1H75.737v-3.1h1.332V1.708L71.256,17.062h-1.88L63.61,1.833V13.96h1.77v-.454h0ZM43.525,15.119v-.454c-1.112-.047-1.582-.58-1.676-2.4h-.454v.454h9.651v-.47a7.117,7.117,0,0,0-2.35-5.421,8.745,8.745,0,0,0-5.672-1.786,8.351,8.351,0,0,0-5.75,1.9A6.094,6.094,0,0,0,35.1,11.719a5.9,5.9,0,0,0,2.225,4.763c1.488,1.222,3.635,1.8,6.424,1.8a9.248,9.248,0,0,0,4.387-.987,6.355,6.355,0,0,0,1.582-1.159A5.3,5.3,0,0,0,50.747,14.6l.235-.548-5.922-.721-.125.313a1.436,1.436,0,0,1-1.394,1.034v.893a2.327,2.327,0,0,0,2.209-1.567l-.407-.172-.063.439,4.982.611.063-.439-.407-.172a4.283,4.283,0,0,1-.846,1.269,5.26,5.26,0,0,1-1.347.987,8.28,8.28,0,0,1-3.964.893c-2.663,0-4.591-.564-5.844-1.6a5.015,5.015,0,0,1-1.9-4.058A5.228,5.228,0,0,1,37.9,7.646a7.465,7.465,0,0,1,5.155-1.661,7.835,7.835,0,0,1,5.108,1.582,6.046,6.046,0,0,1,2.005,4.747h.454v-.47H40.986V12.3a4.062,4.062,0,0,0,.642,2.4,2.322,2.322,0,0,0,1.927.893v-.454Zm-2.052-4.591h.454a2.654,2.654,0,0,1,.36-1.441.956.956,0,0,1,.877-.47,1.1,1.1,0,0,1,.924.439,2.14,2.14,0,0,1,.392,1.3s0,.141-.016.376l.454.031v-.454h-3.4v.454l.439-.047v-.188h-.909v.3l.063.392h4.23l.031-.423c.016-.251.016-.376.016-.439a2.958,2.958,0,0,0-.58-1.849,1.961,1.961,0,0,0-1.629-.783A1.872,1.872,0,0,0,41.55,8.6a3.537,3.537,0,0,0-.5,1.927h.423Zm-8.1-1V9.98h1.614V5.421H28.061V9.98h.909l-1.222,2.977L26.431,9.98h1.05V5.421H18.644V9.98h1.081l4.246,8.163-.36.736H21.48v4.45h5.828l6.5-13.6L33.4,9.542v0L33,9.354l-6.251,13.1H22.373V19.8h1.786l.815-1.645L20.274,9.1h-.721V6.33H26.6V9.1h-1.52l2.742,6.173L30.348,9.1H29V6.33h5.123V9.1h-1L33,9.354l.407.188ZM8.053,16.733l-.235.392a8.293,8.293,0,0,0,4.246,1.065,6.368,6.368,0,0,0,4.7-1.911,6.261,6.261,0,0,0,1.41-2.115,6.983,6.983,0,0,0,.47-2.6A5.914,5.914,0,0,0,16.67,6.909a7.144,7.144,0,0,0-4.888-1.692A7.28,7.28,0,0,0,7.8,6.251l.235.376h.454V.376H0V4.935H1.551v8.492H.016v4.559H8.492V16.764H8.037l-.235.392.235-.392H7.583v.329H.909V14.32H2.444V4.027H.893V1.253H7.6V7.426L8.288,7A6.414,6.414,0,0,1,11.8,6.11a6.289,6.289,0,0,1,4.293,1.473,4.947,4.947,0,0,1,1.661,3.98,6.114,6.114,0,0,1-.407,2.272,5.315,5.315,0,0,1-1.222,1.817A5.35,5.35,0,0,1,12.064,17.3a7.24,7.24,0,0,1-3.792-.94L7.6,15.95v.783Zm.486-6.941.36.266a1.354,1.354,0,0,1,1.159-.533,1.343,1.343,0,0,1,1.128.486,2.509,2.509,0,0,1,.454,1.614c-.063,1.661-.47,2.131-1.535,2.178-1.159-.047-1.582-.517-1.645-2.178A2.668,2.668,0,0,1,8.9,10.043l-.36-.266-.36-.266a3.494,3.494,0,0,0-.611,2.1,3.476,3.476,0,0,0,.627,2.256,2.343,2.343,0,0,0,1.927.83,2.229,2.229,0,0,0,1.849-.83,3.645,3.645,0,0,0,.58-2.24,3.273,3.273,0,0,0-.658-2.193,2.334,2.334,0,0,0-1.817-.815,2.254,2.254,0,0,0-1.88.893l.36.266Z" transform="translate(11.281 23.642)" fill="#020202"/><path d="M35.358,64.995c9.369-.909,24-6.22,31.382-16.294C77.489,34.02,65.08,18.713,55.272,24.98c0,0,3.2-15.871-5.5-19.49-8.7-3.635-12.111,6.2-12.111,6.2S36.33.413,27.869.006C21.414-.308,17.8,12.258,17.8,12.258S14.051-.01,4.634,8.67,2.269,43.452,7.2,51.677s17.25,14.414,28.139,13.349Z" transform="translate(38.342 62.116)" fill="#fff"/><path d="M35.83,65.911A50.365,50.365,0,0,0,49.664,62.37,45.911,45.911,0,0,0,63.4,54.019c4.183-3.807,7.567-8.79,8.272-14.508a15.5,15.5,0,0,0-4.042-12.785c-3.275-3.29-8.1-4.215-12.111-1.692.219.172.439.345.658.5a27.866,27.866,0,0,0-.36-13.584,9.96,9.96,0,0,0-6.032-6.69,8.412,8.412,0,0,0-8.852,1.77,12.983,12.983,0,0,0-3.228,4.982c.3.047.6.078.877.125-.47-3.854-2.225-8.163-5.437-10.5C30.91.013,27.761-.63,25.27.765c-2.413,1.363-4.042,3.948-5.249,6.361a31.256,31.256,0,0,0-2.178,5.437h.862C17.734,9.4,15.29,5.779,11.717,5.544c-3.1-.2-6.2,2.146-8.037,4.45A17.28,17.28,0,0,0,.452,18c-1.128,6.941,0,14.258,1.77,20.995a68.812,68.812,0,0,0,3.04,9.15A26.556,26.556,0,0,0,9.743,55.6,32.662,32.662,0,0,0,32.618,66a24.459,24.459,0,0,0,3.212-.11c.564-.047.58-.956,0-.893a31.734,31.734,0,0,1-23.157-7.755,23.554,23.554,0,0,1-5.734-7.5,56.352,56.352,0,0,1-3.024-7.975A60.594,60.594,0,0,1,.969,21.775,22.935,22.935,0,0,1,2.818,13.1,12.208,12.208,0,0,1,9.4,6.828c4.152-1.488,7.082,2.225,8.335,5.719l.094.266a.449.449,0,0,0,.862,0,30,30,0,0,1,1.488-3.948,18.491,18.491,0,0,1,4.387-6.518A5.607,5.607,0,0,1,27.792.89a7.519,7.519,0,0,1,4.089,1A11.423,11.423,0,0,1,36.5,7.753a20.471,20.471,0,0,1,.94,3.071c.078.329.141.674.2,1l.047.3c.016.125,0-.094,0,0a.45.45,0,0,0,.877.125,12.067,12.067,0,0,1,2.256-3.807,7.506,7.506,0,0,1,7.771-2.6c6.392,1.645,7.458,8.821,7.254,14.461a31.643,31.643,0,0,1-.533,5,.452.452,0,0,0,.658.5,8.6,8.6,0,0,1,10.435.987,14.313,14.313,0,0,1,4.465,11.657C70.189,49.381,59.8,56.98,50.589,60.975a49.824,49.824,0,0,1-14.759,4c-.564.063-.58.956,0,.893Z" transform="translate(37.871 61.639)"/><path d="M6.555.2A33.149,33.149,0,0,0,2.717,8.22c-.689,1.974-1.206,4.387-2.6,6-.376.439.251,1.081.642.642C2.137,13.249,2.7,11.009,3.39,9.05A34.054,34.054,0,0,1,7.354.652C7.683.182,6.9-.272,6.587.2Z" transform="translate(86.98 86.663)"/><path d="M4.41.218A41.792,41.792,0,0,0,.9,8.271a24.3,24.3,0,0,0-.893,3.494c-.094.564.768.815.862.235a25.07,25.07,0,0,1,.862-3.353A41.354,41.354,0,0,1,5.193.672c.282-.5-.486-.956-.768-.454Z" transform="translate(71.468 72.871)"/><path d="M1.182.323a40.121,40.121,0,0,0-1.159,6.5,23.2,23.2,0,0,0,.768,6.486c.125.564,1,.329.862-.235A21.62,21.62,0,0,1,.916,6.825,38.957,38.957,0,0,1,2.044.558C2.169-.006,1.308-.241,1.182.323Z" transform="translate(54.641 73.659)"/><path d="M7.268,3.917C4.9,3.087,2.427,2.272.86.188.516-.266-.268.188.093.643A9.012,9.012,0,0,0,3.148,3.228,28.679,28.679,0,0,0,7.033,4.779C7.582,4.967,7.817,4.105,7.268,3.917Z" transform="translate(83.055 98.345)"/><path d="M.884,9.8C2.764,3.81,9.11,1.492,14.829.9c.564-.063.58-.956,0-.893C8.7.63,2.028,3.152.023,9.56-.15,10.109.712,10.344.884,9.8Z" transform="translate(26.659 57.043)"/><path d="M.9,8.291C2.467,3.309,7.747,1.382,12.494.9c.564-.063.58-.956,0-.893C7.324.536,1.715,2.651.023,8.056c-.172.548.689.783.862.235Z" transform="translate(30.56 61.868)"/><path d="M12.439.429C11.687,6.665,5.8,10.08.312,11.694c-.548.157-.313,1.034.235.862C6.469,10.817,12.533,7.1,13.332.429,13.395-.151,12.5-.135,12.439.429Z" transform="translate(101.01 119.146)"/><path d="M10.4.429C9.775,5.6,4.856,8.451.312,9.783c-.548.157-.313,1.034.235.862C5.545,9.171,10.621,6.038,11.3.429,11.358-.151,10.465-.135,10.4.429Z" transform="translate(98.597 116.592)"/></g></svg>