<svg xmlns="http://www.w3.org/2000/svg" width="726.543" height="259.613" viewBox="0 0 726.543 259.613"><g transform="translate(-1918.324 -371.682)"><path d="M5.6-8.16C5.52-4.64,5.6,0,11.2,0H37.84c4.24,0,4.96-.64,4.96-3.68V-8.8c0-3.12-1.52-4.64-5.04-4.4-2.56.16-10.16.24-15.36.24-.08-2.64-.08-5.36,0-8.64,4.48-.08,10.56,0,12.8,0,2.72-.08,3.6-.56,3.6-3.68v-4c0-2.64-1.84-3.68-4-3.6-1.76.08-7.68.08-12.16.08v-8.48c5.68,0,11.52,0,14.88.08,3.44.08,5.28-1.2,5.2-4.32v-4c0-2.96-.64-4.88-4.88-4.88H11.36c-7.44,0-5.44,5.28-5.36,9.2C6.08-42.56,5.92-17.2,5.6-8.16Z" transform="translate(1912.739 425.983) rotate(0.938)" fill="#4b1e1e"/><path d="M2.56-4.72C1.44-2.56,2.96,0,5.92,0H14c5.04,0,6.32-1.2,6.72-2.96,1.12-3.84,3.52-9.44,4.8-12.8h.56c.96,2.56,4,9.36,4.72,12C31.2-1.92,32.64,0,36.8,0H46c4.32,0,2.64-3.44,1.92-4.8C47.04-6.4,41.68-15.68,38.8-22c3.12-5.84,8.72-14.88,10.08-17.12C50.24-41.28,48.8-44,45.6-44H37.44c-5.12,0-6.24,1.36-6.64,3.12-1.28,3.92-3.36,9.12-4.88,12.72h-.48c-1.12-3.36-3.84-8.72-4.72-11.92C20.24-41.84,18.88-44,14.64-44H5.52c-4.4,0-2.72,3.52-1.84,4.96C5.6-36.08,10-28,12.88-22.08,9.76-16.24,3.76-6.96,2.56-4.72Z" transform="translate(1959.318 426.674) rotate(1.641)" fill="#4b1e1e"/><path d="M4.64,5.6C4.4,9.28,4.8,12,10.16,12h5.12c5.92,0,6.4-1.2,6.32-6,0-3.12-.24-9.12-.16-15.12h.64C22.24-5.68,26,.8,34,.8c9.6,0,14.8-8.4,14.48-22.4-.32-16.16-8.72-23.2-17.2-23.2-10.24,0-10.88,7.92-10.88,7.92h-.64c-.08-4.64-2.08-7.92-7.44-7.92a19.456,19.456,0,0,0-5.44.72c-3.52,1.28-1.76,5.44-1.76,8.24C5.28-27.52,4.8,1.68,4.64,5.6ZM21.36-15.92v-8.16c0-6,2-8.16,4.48-8.16,2.88,0,5.68,3.2,5.68,9.68,0,8.08-3.04,10.08-5.6,10.08C23.2-12.48,21.76-15.28,21.36-15.92Z" transform="matrix(0.998, 0.065, -0.065, 0.998, 2010.558, 427.974)" fill="#4b1e1e"/><path d="M4.8-12.16C4.72-4.32,6.32.8,15.2.8A28.929,28.929,0,0,0,25.44-1.04a3.561,3.561,0,0,0,2.4-4.08L27.6-8.08c-.16-1.52-.96-2.48-2.48-2.48-2.96,0-4,.08-4.08-2-.32-5.2,1.2-29.76,1.2-36.48,0-4.4-1.52-7.76-9.52-7.76-7.2,0-7.6,2-7.44,7.28S4.88-16.64,4.8-12.16Z" transform="matrix(0.991, 0.133, -0.133, 0.991, 2061.595, 431.484)" fill="#4b1e1e"/><path d="M2.96-22.16C2.88-9.12,10.24.88,24.88.88c14.56,0,21.84-10,22-22.88S39.44-44.8,24.72-44.8C10.24-44.8,3.04-34.88,2.96-22.16Zm21.76,9.84c-4.96,0-6.08-4.64-6.08-9.84,0-5.04.96-9.44,6.24-9.44,4.88,0,6.08,4.4,6.08,9.44C30.96-16.96,30-12.32,24.72-12.32Z" transform="matrix(0.967, 0.256, -0.256, 0.967, 2089.842, 434.299)" fill="#4b1e1e"/><path d="M5.12-3.68C5.68-1.68,6.88,0,10.16,0h6.16c5.76,0,5.76-3.36,5.44-6.64a142.587,142.587,0,0,1-.24-21.04c.24-1.36,1.52-3.92,3.44-3.92,1.84,0,2.64,1.36,2.64,3.68s.96,3.28,3.2,3.52c5.28.72,8.8-3.12,9.04-8.72.4-7.68-1.68-11.68-8.96-11.68a11.466,11.466,0,0,0-10.96,9.92h-.56c.08-5.44-1.28-9.92-8.4-9.92-5.84,0-6.24,2.24-6.24,5.6,0,1.04.16,2.4.24,4.16.08,4-.16,15.52-.4,25.2C4.48-7.52,4.4-5.36,5.12-3.68Z" transform="translate(2135.688 446.484) rotate(26.727)" fill="#4b1e1e"/><path d="M2.923-21.962C2.923-9.243,9.243.79,24.727.79,30.652.79,35-.553,37.051-1.659a6.356,6.356,0,0,0,3.713-6.952A9.3,9.3,0,0,0,38-13.983a26.212,26.212,0,0,1-10.981,2.765c-6.557,0-9.164-3.476-9.322-7.5l.158-.237h19.2c3.634,0,6.32-1.817,6.32-8.848,0-9.243-6.478-16.432-18.723-16.432C10.27-44.24,2.923-34.6,2.923-21.962Zm14.852-3.713c-.237-2.528.79-7.268,6.4-7.268,3.4,0,5.214,2.054,5.214,5.214a7.135,7.135,0,0,1-.237,2.054Z" transform="translate(2170.875 462.954) rotate(35.837)" fill="#4b1e1e"/><path d="M9.6-6.56C10.32-4,11.52,0,17.12,0h9.2c3.36,0,5.92-1.04,6.4-4.72.8-4.56,3.6-21.84,4.4-28.88h.48c.8,4.88,4.16,25.12,4.56,28.8C42.48-1.12,45.28,0,48.64,0h8.8c6.24,0,7.04-4.32,7.84-7.44.96-3.2,5.92-21.76,7.92-29.92.64-2.8,1.28-6.64-2.48-6.64H63.04c-4.88,0-5.2,2.16-5.68,5.28-.64,3.12-4,23.04-4.56,29.2h-.4c-.72-4.08-3.76-24-4.56-29.2-.24-1.6-.88-5.28-5.52-5.28H32.88c-4.72,0-5.12,2.16-5.6,5.28-.48,2.32-3.68,23.04-4.4,29.2h-.4c-.72-4.08-3.84-23.76-4.96-29.2C17.2-40.4,16.48-44,11.44-44H5.2c-5.12,0-3.84,3.76-3.04,6.96C3.68-30.88,8.48-10.64,9.6-6.56Z" transform="translate(2221.704 504.955) rotate(45.575)" fill="#4b1e1e"/><path d="M13.92-47.68c4.4,0,8-.56,7.92-6.08C21.6-59.36,18-60,13.52-60c-4.56,0-8.16.64-8,6.24C5.68-48.24,9.28-47.68,13.92-47.68ZM5.2-5.12C5.52-2.48,6.56,0,10.64,0h6.24c5.52,0,5.76-3.04,5.36-6.64a28.421,28.421,0,0,1-.32-4.16c-.4-6.64.24-16.88.48-25.6.24-5.92-2.64-7.6-9.76-7.6-9.28,0-7.2,3.84-7.2,7.28,0,6.72,0,14-.4,26.56A33.872,33.872,0,0,0,5.2-5.12Z" transform="matrix(0.844, 0.537, -0.537, 0.844, 2281.198, 563.613)" fill="#4b1e1e"/><path d="M7.11-12.245C7.189-4.5,10.27.79,19.671.79c3.634,0,9.243-.553,11.85-2.212A3.573,3.573,0,0,0,33.18-5.135l-.316-3.634a2.485,2.485,0,0,0-2.686-2.291c-1.264,0-2.607.316-3.871.237-1.817-.079-2.686-.711-2.844-3.239-.158-3.318.079-11.376.237-17.775h7.742c1.659,0,2.054-.711,2.054-2.054,0-2.765.079-5.688.079-7.426,0-1.264-.553-2.133-2.765-2.133-2.212.079-4.977.079-7.11,0,0-1.422,0-3.871.079-5.451.237-4.345-5.925-3.16-8.769-3.16-1.975,0-2.686.948-3.16,2.607-.474,2.133-1.185,5.451-7.268,6.873-2.212.711-2.528,1.659-2.607,2.607-.079,1.738.316,4.187.158,6.083-.079,1.5.79,2.133,2.449,2.133H7.426C7.505-28.44,7.031-16.353,7.11-12.245Z" transform="translate(2311.043 580.762) rotate(21.115)" fill="#4b1e1e"/><path d="M5.04-5.12C5.28-2.48,6.4,0,10.48,0h6.16C22.16,0,22.4-3.04,22-6.64c-.08-1.04-.24-2.56-.24-4.16-.24-3.2-.32-10.08-.24-17.2.72-.96,2.4-3.36,5.28-3.36,3.28,0,4.72,2.32,4.72,5.52,0,6.08-.96,12.24-.96,18.96C30.56-2.24,33.6.8,40.4.8c7.36,0,7.76-2.56,7.44-6.08-.56-7.92.24-14.48.48-21.04.16-6-.32-18.48-12.8-18.48-8.56,0-12.48,6.24-12.88,9.36H21.52c.08-5.12.24-9.84.32-12.88.24-6.08-2.24-8.48-9.44-8.48-9.2,0-7.12,3.84-7.12,7.28,0,6.72,0,26.8-.48,39.36A33.265,33.265,0,0,0,5.04-5.12Z" transform="translate(2350.026 596.744) rotate(12.69)" fill="#4b1e1e"/><path d="M15.642-8.058C15.563-4.582,15.642,0,21.251,0h6c7.268,0,5.451-5.214,5.135-9.085-.316-3.081-.158-9.085-.237-11.455,2.528-4.108,13.825-23.542,15.958-27.413,1.422-2.607-.158-5.767-3-5.767H37.92c-5.056,0-6.241,1.422-7.11,4.266-1.027,3.239-4.582,11.929-6.241,16.116H24.1c-1.264-3.239-4.977-12.087-6.083-15.642-.711-2.133-1.659-4.74-5.846-4.74H5.53c-5.609,0-4.029,4.266-3.239,5.846,1.422,2.607,11.3,21.725,13.588,26.939C15.879-18.723,15.721-12.64,15.642-8.058Z" transform="matrix(0.995, 0.097, -0.097, 0.995, 2423.776, 610.395)" fill="#4b1e1e"/><path d="M2.96-22.16C2.88-9.12,10.24.88,24.88.88c14.56,0,21.84-10,22-22.88S39.44-44.8,24.72-44.8C10.24-44.8,3.04-34.88,2.96-22.16Zm21.76,9.84c-4.96,0-6.08-4.64-6.08-9.84,0-5.04.96-9.44,6.24-9.44,4.88,0,6.08,4.4,6.08,9.44C30.96-16.96,30-12.32,24.72-12.32Z" transform="translate(2471.816 616.095) rotate(2.605)" fill="#4b1e1e"/><path d="M5.12,2.16l-.56,6.4c-.24,1.52.64,2.4,2.8,3.12a32.583,32.583,0,0,0,9.68,1.12c14.88,0,17.6-8.72,20-16.88,2.24-8,6.72-24.72,8.88-33.28,1.12-4.4,1.2-6.64-3.84-6.64h-7.2c-5.04,0-5.52,2.16-5.84,5.28-.56,2.88-3.2,17.68-4.48,24.88h-.48c-1.44-6.96-5.2-19.68-6.24-24.96-.48-1.84-1.04-5.2-6.48-5.2H5.2C-.16-44,1.04-40.24,2-37.04c1.44,4.96,7.44,22.32,8.64,26.32.88,2.8,1.76,6.16,7.36,6.16h3.68C20.88-1.68,20.08.4,16.4.4A30.14,30.14,0,0,1,9.28-.4C6.64-1.04,5.28-.08,5.12,2.16Z" transform="translate(2522.727 618.332) rotate(0.201)" fill="#4b1e1e"/><path d="M2.96-22.16C2.88-9.12,10.24.88,24.88.88c14.56,0,21.84-10,22-22.88S39.44-44.8,24.72-44.8C10.24-44.8,3.04-34.88,2.96-22.16Zm21.76,9.84c-4.96,0-6.08-4.64-6.08-9.84,0-5.04.96-9.44,6.24-9.44,4.88,0,6.08,4.4,6.08,9.44C30.96-16.96,30-12.32,24.72-12.32Z" transform="translate(2570.304 618.5) rotate(-1.679)" fill="#4b1e1e"/><path d="M12.877-22.2l2.528.632c3.16-4.266,9.243-12.719,9.48-21.8.158-6.715-3.713-11.139-10.033-11.139-6.715,0-8.927,4.977-9.006,9.085C5.688-39.1,12.008-29.625,12.877-22.2ZM6.083-6.557C6.083.079,9.954.79,14.615.79c4.582,0,8.3-.711,8.3-7.347-.158-6.794-4.108-7.584-8.611-7.584C9.559-14.141,5.846-13.351,6.083-6.557Z" transform="translate(2619.97 615.916) rotate(-2.952)" fill="#4b1e1e"/></g></svg>