<svg xmlns="http://www.w3.org/2000/svg" width="73.271" height="45" viewBox="0 0 73.271 45"><ellipse cx="36.473" cy="22.332" rx="36.473" ry="22.332" transform="translate(0.163 0.168)" fill="#4182c4"/><path d="M73.1,22.5h-.17c0,6.082-4.032,11.621-10.6,15.642s-15.653,6.513-25.694,6.513-19.13-2.492-25.694-6.513S.34,28.582.345,22.5s4.032-11.621,10.6-15.642S26.595.345,36.635.345s19.13,2.492,25.694,6.513,10.6,9.56,10.6,15.642h.345c0-6.247-4.134-11.876-10.76-15.936S46.733,0,36.635,0,17.392,2.5,10.76,6.564,0,16.253,0,22.5,4.134,34.376,10.76,38.436,26.538,45,36.635,45s19.244-2.5,25.875-6.564,10.76-9.69,10.76-15.936H73.1Z" transform="translate(0 0)"/><path d="M30.286,1.884h.548V.157H28V1.884h.532l-.885,2.161-.955-2.161H27.3V.157H23.549V1.884h.423l2.106,4.055L25.8,6.5h-.923V8.17h2.4l3-6.286ZM18.745,5.38a3.7,3.7,0,0,0,1.737.375,3.16,3.16,0,0,0,1.732-.445A1.551,1.551,0,0,0,22.92,3.9c0-.635-.1-.646-.288-.89a2.033,2.033,0,0,0-.879-.586,11.789,11.789,0,0,0-1.639-.44c-.613-.13-.977-.212-1.086-.244-.13-.033-.2-.1-.2-.217,0-.228.217-.347.651-.347a2.221,2.221,0,0,1,1.428.57h1.607V.152H20.781V.434a3.493,3.493,0,0,0-1.71-.385,2.826,2.826,0,0,0-1.623.423A1.5,1.5,0,0,0,16.8,1.813c0,.608.043.5.136.668A1.549,1.549,0,0,0,17.431,3a2.947,2.947,0,0,0,.972.44c.478.141.912.261,1.3.369a5.5,5.5,0,0,1,.9.266.261.261,0,0,1,.163.244c0,.206-.255.309-.76.309a1.892,1.892,0,0,1-1.39-.668H16.97V5.706h1.764V5.364Zm-7.4-4.213A1.411,1.411,0,0,1,12,1.314a.741.741,0,0,1,.353.369,2.351,2.351,0,0,1,.076.711v.163a4.268,4.268,0,0,0-1.694-.277,3.424,3.424,0,0,0-1.889.494A1.477,1.477,0,0,0,8.11,4.039a1.454,1.454,0,0,0,.6,1.205,2.6,2.6,0,0,0,1.748.51,3.68,3.68,0,0,0,1.971-.478v.375h3.55V3.925h-.7V2.34a3.128,3.128,0,0,0-.147-1.113,1.66,1.66,0,0,0-.5-.646A2.514,2.514,0,0,0,13.506.147a6.506,6.506,0,0,0-.825-.109C12.372.016,12.024,0,11.634,0A6.563,6.563,0,0,0,9.245.331a2.113,2.113,0,0,0-1.189,1.14l2.231.228a1.2,1.2,0,0,1,1.053-.527Zm.223,3.371a.743.743,0,0,1-.532-.217.705.705,0,0,1-.228-.543.7.7,0,0,1,.223-.532.849.849,0,0,1,.6-.206,1.768,1.768,0,0,1,.8.206v1A1.265,1.265,0,0,1,11.563,4.538ZM3.757,4.527c-.651,0-.988-.445-1-1.335H7.084A3.076,3.076,0,0,0,6.058.8,3.911,3.911,0,0,0,3.523.005,3.835,3.835,0,0,0,.955.841,2.665,2.665,0,0,0,0,2.937,2.581,2.581,0,0,0,.966,5.016a4.459,4.459,0,0,0,2.888.8,2.946,2.946,0,0,0,1.965-.44,2.7,2.7,0,0,0,.689-.5,2.076,2.076,0,0,0,.44-.662L4.6,3.919a.884.884,0,0,1-.852.613ZM2.79,2.361A1.459,1.459,0,0,1,3,1.569a.656.656,0,0,1,.592-.315.722.722,0,0,1,.6.288,1.179,1.179,0,0,1,.228.744c0,.3,0,.081-.011.19h-1.6c0-.033-.005-.071-.005-.114Z" transform="translate(20.721 21.706)" fill="#f7eee5"/><path d="M30.449,2.057V2.22h.711V.163H28V2.22h.451L27.8,3.795,27.1,2.22h.516V.163H23.544V2.22h.489l2.025,3.892-.2.4h-.983v2H27.55L30.6,2.123l-.147-.071v0L30.3,1.981,27.344,8.176H25.211V6.835h.863l.358-.727L24.239,1.889h-.358V.489H27.3v1.4H26.6l1.216,2.747L28.94,1.889h-.613V.489h2.508v1.4h-.489l-.043.092.147.071Zm-11.541,3.5-.076.147a3.853,3.853,0,0,0,1.813.391,3.319,3.319,0,0,0,1.824-.472,1.711,1.711,0,0,0,.782-1.542,1.561,1.561,0,0,0-.326-.993,2.235,2.235,0,0,0-.95-.635A12.449,12.449,0,0,0,20.314,2c-.613-.125-.983-.212-1.075-.239s-.065-.022-.076-.06c.005-.06.011-.071.076-.114a.859.859,0,0,1,.413-.065,1.837,1.837,0,0,1,1.314.527l.049.043h1.84V.163H20.786V.608h.163l.081-.141A3.656,3.656,0,0,0,19.239.06,3.047,3.047,0,0,0,17.524.51a1.666,1.666,0,0,0-.717,1.482,1.554,1.554,0,0,0,.157.744,1.619,1.619,0,0,0,.543.575,3.221,3.221,0,0,0,1.026.467c.478.141.912.261,1.3.369A5.146,5.146,0,0,1,20.7,4.4c.076.043.071.054.076.1,0,.027.005.033-.087.081a1.476,1.476,0,0,1-.5.065,1.722,1.722,0,0,1-1.27-.619l-.049-.049H16.986V6.053h2.09v-.5h-.163l-.076.147.076-.147h-.163v.174H17.317V4.3H18.8V4.142l-.119.114a2.077,2.077,0,0,0,1.509.722,1.677,1.677,0,0,0,.63-.092.425.425,0,0,0,.293-.385.436.436,0,0,0-.255-.391,5.793,5.793,0,0,0-.939-.282c-.385-.1-.82-.228-1.292-.364a2.825,2.825,0,0,1-.923-.418,1.424,1.424,0,0,1-.445-.461,1.261,1.261,0,0,1-.119-.6,1.324,1.324,0,0,1,.57-1.205,2.732,2.732,0,0,1,1.536-.4,3.316,3.316,0,0,1,1.629.364l.244.136v-.4h1.411v1.27H21.085v.163L21.2,1.8a2.18,2.18,0,0,0-1.542-.619,1.222,1.222,0,0,0-.565.1.445.445,0,0,0-.25.407.384.384,0,0,0,.315.375c.119.038.478.114,1.1.244a11.91,11.91,0,0,1,1.612.434,1.892,1.892,0,0,1,.809.532,1.233,1.233,0,0,1,.255.787A1.363,1.363,0,0,1,22.3,5.331a3.02,3.02,0,0,1-1.645.423A3.549,3.549,0,0,1,18.989,5.4l-.239-.125v.271h.163ZM11.5,1.341V1.5a1.208,1.208,0,0,1,.581.13.567.567,0,0,1,.271.277,2.239,2.239,0,0,1,.065.657v.163h.163l.065-.152a4.37,4.37,0,0,0-1.759-.293A3.481,3.481,0,0,0,8.9,2.807a1.648,1.648,0,0,0-.8,1.4,1.718,1.718,0,0,0,.651,1.33,2.767,2.767,0,0,0,1.857.548,3.911,3.911,0,0,0,2.063-.5l-.087-.136h-.163v.537H16.3V3.93h-.7V2.508a3.308,3.308,0,0,0-.157-1.173A1.908,1.908,0,0,0,14.9.624,2.682,2.682,0,0,0,13.707.152a7.921,7.921,0,0,0-.841-.114C12.551.011,12.2,0,11.807,0A6.781,6.781,0,0,0,9.354.342,2.307,2.307,0,0,0,8.078,1.563l-.092.206,2.557.261.054-.081a1.047,1.047,0,0,1,.917-.456V1.162a1.378,1.378,0,0,0-1.189.6l.136.092.016-.163L8.246,1.46l-.016.163.152.071A1.979,1.979,0,0,1,9.484.641,6.419,6.419,0,0,1,11.813.326c.385,0,.727.011,1.031.038a6.01,6.01,0,0,1,.8.109,2.385,2.385,0,0,1,1.042.4,1.516,1.516,0,0,1,.456.581A2.933,2.933,0,0,1,15.282,2.5V4.251h.7v1.4H12.757v-.51L12.5,5.3a3.45,3.45,0,0,1-1.884.451,2.37,2.37,0,0,1-1.645-.472A1.373,1.373,0,0,1,8.436,4.2a1.311,1.311,0,0,1,.657-1.129,3.153,3.153,0,0,1,1.8-.467,4.1,4.1,0,0,1,1.629.266l.233.1V2.557a2.528,2.528,0,0,0-.081-.771.9.9,0,0,0-.423-.456,1.573,1.573,0,0,0-.738-.168v.163Zm.223,3.371V4.549a.591.591,0,0,1-.423-.174.526.526,0,0,1-.174-.423.525.525,0,0,1,.168-.413.663.663,0,0,1,.483-.157,1.509,1.509,0,0,1,.727.185l.076-.147h-.163v1h.163L12.475,4.3a1.09,1.09,0,0,1-.755.25V4.88a1.436,1.436,0,0,0,.972-.331l.054-.049V3.322l-.087-.049a1.856,1.856,0,0,0-.879-.223.987.987,0,0,0-.706.25.861.861,0,0,0-.271.651.873.873,0,0,0,.277.662.93.93,0,0,0,.646.261ZM3.919,4.7V4.538c-.554-.016-.8-.309-.831-1.173H2.926v.168h4.5V3.366A3.282,3.282,0,0,0,6.335.847,4.065,4.065,0,0,0,3.691.016,3.9,3.9,0,0,0,1.015.9,2.854,2.854,0,0,0,0,3.116a2.729,2.729,0,0,0,1.026,2.2,4.631,4.631,0,0,0,2.991.836,4.259,4.259,0,0,0,2.041-.461,3.118,3.118,0,0,0,.733-.537,2.231,2.231,0,0,0,.472-.711l.087-.2L4.658,3.914l-.049.114a.715.715,0,0,1-.7.51v.331a1.041,1.041,0,0,0,1-.711l-.152-.065-.022.163,2.351.288.022-.163-.152-.065a1.993,1.993,0,0,1-.407.608A2.53,2.53,0,0,1,5.9,5.4a3.9,3.9,0,0,1-1.889.423,4.3,4.3,0,0,1-2.785-.76A2.39,2.39,0,0,1,.315,3.111a2.483,2.483,0,0,1,.9-1.971,3.573,3.573,0,0,1,2.459-.8A3.742,3.742,0,0,1,6.107,1.1a2.92,2.92,0,0,1,.966,2.275h.163V3.2H2.741v.168a1.892,1.892,0,0,0,.293,1.1,1.046,1.046,0,0,0,.874.4V4.707ZM2.953,2.535h.163A1.319,1.319,0,0,1,3.3,1.829a.482.482,0,0,1,.451-.239.551.551,0,0,1,.472.228,1.011,1.011,0,0,1,.19.641s0,.071-.011.185l.163.011V2.492h-1.6v.163l.163-.016V2.546H2.79a.962.962,0,0,0,.005.13l.016.147H4.717l.011-.152c.005-.114.011-.174.011-.2a1.329,1.329,0,0,0-.261-.841.9.9,0,0,0-.733-.353.84.84,0,0,0-.727.391,1.61,1.61,0,0,0-.228.879h.163Z" transform="translate(20.558 21.533)" fill="#020202"/><path d="M41.985,6.21a.4.4,0,0,1-.385-.174,1.634,1.634,0,0,1-.1-.695V4.278h1.151V2.551H41.5V.353L38.652,1.7v.847h-.7V4.278h.7V5.2c0,.711.011,1.194.038,1.444a1.6,1.6,0,0,0,.092.385,1.813,1.813,0,0,0,.2.38,1.6,1.6,0,0,0,.706.575,2.6,2.6,0,0,0,1.1.212,3.706,3.706,0,0,0,1.064-.147,2.648,2.648,0,0,0,.8-.331V6.031a1.643,1.643,0,0,1-.668.174Zm-8.9,1.558a3.7,3.7,0,0,0,1.737.375A3.16,3.16,0,0,0,36.551,7.7a1.551,1.551,0,0,0,.706-1.406c0-.635-.1-.646-.288-.89a2.033,2.033,0,0,0-.879-.586,11.786,11.786,0,0,0-1.639-.44c-.613-.13-.977-.212-1.086-.244-.13-.033-.2-.1-.2-.217,0-.228.217-.347.651-.347a2.221,2.221,0,0,1,1.428.57h1.607v-1.6H35.118v.282a3.493,3.493,0,0,0-1.71-.385,2.826,2.826,0,0,0-1.623.423A1.5,1.5,0,0,0,31.139,4.2c0,.608.043.5.136.668a1.549,1.549,0,0,0,.494.521,2.947,2.947,0,0,0,.972.44c.478.141.912.261,1.3.369a5.5,5.5,0,0,1,.9.266.261.261,0,0,1,.163.244c0,.206-.255.309-.76.309a1.892,1.892,0,0,1-1.39-.668h-1.65V8.094h1.764V7.752ZM26.8,6.911c-.651,0-.988-.445-1-1.335h4.327A3.076,3.076,0,0,0,29.1,3.181a3.911,3.911,0,0,0-2.535-.793,3.835,3.835,0,0,0-2.568.836,2.665,2.665,0,0,0-.955,2.1A2.581,2.581,0,0,0,24.005,7.4a4.459,4.459,0,0,0,2.888.8,2.946,2.946,0,0,0,1.965-.44,2.7,2.7,0,0,0,.689-.5,2.077,2.077,0,0,0,.44-.662L27.637,6.3a.884.884,0,0,1-.852.613Zm-.966-2.166a1.459,1.459,0,0,1,.206-.793.656.656,0,0,1,.592-.315.722.722,0,0,1,.6.288,1.179,1.179,0,0,1,.228.744c0,.3,0,.081-.011.19h-1.6c0-.033-.005-.071-.005-.114ZM15.77,10.38c.358.054.679.092.955.114s.592.033.95.033a7.9,7.9,0,0,0,1.911-.185,2.968,2.968,0,0,0,1.205-.575,2,2,0,0,0,.668-.928,5.209,5.209,0,0,0,.179-1.553V4.272h.684V2.546H18.8V2.9a3.492,3.492,0,0,0-1.808-.451,3.434,3.434,0,0,0-2.139.765,2.593,2.593,0,0,0-.89,2.068,2.3,2.3,0,0,0,.858,1.933,3.143,3.143,0,0,0,2.074.7A3.857,3.857,0,0,0,18.8,7.486a2.135,2.135,0,0,1-.114.787,1.06,1.06,0,0,1-.537.483A2.56,2.56,0,0,1,17,8.968a4.728,4.728,0,0,1-1.781-.277l-.782,1.4a7.053,7.053,0,0,0,1.33.309ZM17.1,4.424a.84.84,0,0,1,.738-.369.827.827,0,0,1,.717.353,1.455,1.455,0,0,1,.261.9,1.326,1.326,0,0,1-.244.841.859.859,0,0,1-.744.347.838.838,0,0,1-.727-.342,1.355,1.355,0,0,1-.255-.836A1.591,1.591,0,0,1,17.1,4.424ZM9.94,1.71a2.326,2.326,0,0,0,1.124.244,2.026,2.026,0,0,0,1.1-.266.8.8,0,0,0,.429-.706.81.81,0,0,0-.413-.7A1.918,1.918,0,0,0,11.074,0,2.153,2.153,0,0,0,9.951.271a.814.814,0,0,0-.456.717.811.811,0,0,0,.445.727ZM13.056,6.3h-.478V2.535H9.164V4.261h.565V6.3H9.164V8.029h3.892V6.3Zm-5.423,0V.152H4.082V1.878h.7v1.01A3.2,3.2,0,0,0,3.04,2.437,3.6,3.6,0,0,0,.825,3.2,2.854,2.854,0,0,0,0,5.4a2.351,2.351,0,0,0,.9,2.03,3.218,3.218,0,0,0,2.057.706,3.315,3.315,0,0,0,1.835-.472v.369H8.349V6.308H7.638Zm-3.1-.1a.9.9,0,0,1-.7.3.831.831,0,0,1-.706-.342A1.438,1.438,0,0,1,2.888,5.3c0-.836.32-1.254.966-1.254s.548.114.706.342a1.486,1.486,0,0,1,.239.863,1.529,1.529,0,0,1-.266.939Z" transform="translate(14.703 29.697)" fill="#f7eee5"/><path d="M42.159,6.373V6.21c-.168,0-.217-.043-.239-.087a1.547,1.547,0,0,1-.076-.619V4.6h1.151V2.546H41.844V.25L38.668,1.759v.782h-.7V4.6h.7v.76a14.6,14.6,0,0,0,.043,1.46,2.373,2.373,0,0,0,.1.429,2.247,2.247,0,0,0,.206.413A1.769,1.769,0,0,0,39.8,8.3a2.782,2.782,0,0,0,1.167.223,4.245,4.245,0,0,0,1.107-.152,2.815,2.815,0,0,0,.852-.353l.071-.049V5.939l-.233.1a1.518,1.518,0,0,1-.6.163v.331a1.833,1.833,0,0,0,.738-.19l-.065-.152h-.163V7.882h.163l-.092-.136a2.5,2.5,0,0,1-.755.3,4.115,4.115,0,0,1-1.021.141A2.445,2.445,0,0,1,39.933,8a1.454,1.454,0,0,1-.641-.521,1.716,1.716,0,0,1-.174-.347,1.536,1.536,0,0,1-.081-.353C39.01,6.542,39,6.064,39,5.353V4.267h-.7v-1.4H39V1.96L41.518.76v2.1h1.151v1.4H41.518V5.494a1.794,1.794,0,0,0,.114.776.56.56,0,0,0,.532.261V6.368Zm-8.9,1.558-.076.147a3.853,3.853,0,0,0,1.813.391A3.319,3.319,0,0,0,36.817,8,1.711,1.711,0,0,0,37.6,6.455a1.561,1.561,0,0,0-.326-.993,2.235,2.235,0,0,0-.95-.635,12.45,12.45,0,0,0-1.661-.451c-.613-.125-.983-.212-1.075-.239s-.065-.022-.076-.06c.005-.06.011-.071.076-.114A.859.859,0,0,1,34,3.9a1.837,1.837,0,0,1,1.314.527l.049.043H37.2V2.541H35.134v.445H35.3l.081-.141a3.656,3.656,0,0,0-1.791-.407,3.047,3.047,0,0,0-1.715.451,1.666,1.666,0,0,0-.717,1.482,1.554,1.554,0,0,0,.157.744,1.62,1.62,0,0,0,.543.575,3.222,3.222,0,0,0,1.026.467c.478.141.912.261,1.3.369a5.146,5.146,0,0,1,.869.255c.076.043.071.054.076.1,0,.027.005.033-.087.081a1.476,1.476,0,0,1-.5.065,1.722,1.722,0,0,1-1.27-.619l-.049-.049H31.334V8.431h2.09v-.5h-.163l-.076.147.076-.147H33.1V8.1H31.665V6.683h1.482V6.52l-.119.114a2.077,2.077,0,0,0,1.509.722,1.677,1.677,0,0,0,.63-.092.425.425,0,0,0,.293-.385.436.436,0,0,0-.255-.391,5.792,5.792,0,0,0-.939-.282c-.385-.1-.82-.228-1.292-.364a2.825,2.825,0,0,1-.923-.418,1.424,1.424,0,0,1-.445-.461,1.261,1.261,0,0,1-.119-.6,1.324,1.324,0,0,1,.57-1.205,2.732,2.732,0,0,1,1.536-.4,3.316,3.316,0,0,1,1.629.364l.244.136v-.4h1.411v1.27H35.433V4.3l.114-.119a2.18,2.18,0,0,0-1.542-.619,1.221,1.221,0,0,0-.565.1.445.445,0,0,0-.25.407.384.384,0,0,0,.315.375c.119.038.478.114,1.1.244a11.914,11.914,0,0,1,1.612.434,1.892,1.892,0,0,1,.809.532,1.233,1.233,0,0,1,.255.787,1.363,1.363,0,0,1-.635,1.265A3.02,3.02,0,0,1,35,8.132a3.549,3.549,0,0,1-1.661-.353L33.1,7.654v.271h.163Zm-6.286-.858V6.911c-.554-.016-.8-.309-.831-1.173h-.163v.168h4.5V5.738a3.282,3.282,0,0,0-1.091-2.519,4.065,4.065,0,0,0-2.644-.831,3.9,3.9,0,0,0-2.676.879,2.853,2.853,0,0,0-1.015,2.22,2.729,2.729,0,0,0,1.026,2.2,4.631,4.631,0,0,0,2.991.836,4.259,4.259,0,0,0,2.041-.461,3.118,3.118,0,0,0,.733-.537,2.231,2.231,0,0,0,.472-.711l.087-.2-2.693-.331-.049.114a.715.715,0,0,1-.7.51v.331a1.041,1.041,0,0,0,1-.711l-.152-.065-.022.163,2.351.288.022-.163L30,6.688A1.992,1.992,0,0,1,29.6,7.3a2.53,2.53,0,0,1-.651.478,3.9,3.9,0,0,1-1.889.423,4.3,4.3,0,0,1-2.785-.76,2.39,2.39,0,0,1-.907-1.954,2.483,2.483,0,0,1,.9-1.971,3.573,3.573,0,0,1,2.459-.8,3.742,3.742,0,0,1,2.432.755,2.92,2.92,0,0,1,.966,2.275h.163V5.575H25.791v.168a1.892,1.892,0,0,0,.293,1.1,1.046,1.046,0,0,0,.874.4V7.079ZM26,4.907h.163a1.319,1.319,0,0,1,.179-.706.482.482,0,0,1,.451-.239.551.551,0,0,1,.472.228,1.011,1.011,0,0,1,.19.641s0,.071-.011.185l.163.011V4.864h-1.6v.163l.163-.016V4.918H25.84a.962.962,0,0,0,.005.13l.016.147h1.905l.011-.152c.005-.114.011-.174.011-.2A1.329,1.329,0,0,0,27.529,4a.9.9,0,0,0-.733-.353.84.84,0,0,0-.727.391,1.61,1.61,0,0,0-.228.879H26ZM15.944,10.542l-.022.163c.364.054.684.092.966.114s.6.033.961.033a7.962,7.962,0,0,0,1.949-.19,3.052,3.052,0,0,0,1.27-.613,2.118,2.118,0,0,0,.717-1,5.272,5.272,0,0,0,.19-1.607V4.587h.684V2.53H18.8v.516h.163l.081-.141a3.66,3.66,0,0,0-1.889-.478,3.318,3.318,0,0,0-2.247.8,2.741,2.741,0,0,0-.945,2.193,2.519,2.519,0,0,0,.917,2.057,3.294,3.294,0,0,0,2.177.738,4.356,4.356,0,0,0,1.981-.445l-.076-.147H18.8a2.007,2.007,0,0,1-.1.727.87.87,0,0,1-.456.4,2.416,2.416,0,0,1-1.075.2,4.522,4.522,0,0,1-1.715-.266l-.136-.054-.945,1.683.174.071a6.821,6.821,0,0,0,1.368.32l.027-.163.027-.163a6.767,6.767,0,0,1-1.3-.3l-.06.152.141.081.782-1.4L15.4,8.827l-.065.152a4.882,4.882,0,0,0,1.84.288,2.71,2.71,0,0,0,1.221-.228,1.189,1.189,0,0,0,.613-.565,2.355,2.355,0,0,0,.125-.852V7.356l-.239.119a4,4,0,0,1-1.835.413,2.982,2.982,0,0,1-1.971-.662,2.2,2.2,0,0,1-.8-1.808,2.424,2.424,0,0,1,.831-1.943,3.016,3.016,0,0,1,2.036-.727,3.407,3.407,0,0,1,1.726.429l.25.147V2.85h3.192v1.4h-.684V7.426a4.916,4.916,0,0,1-.174,1.5,1.842,1.842,0,0,1-.613.852,2.818,2.818,0,0,1-1.145.548,7.719,7.719,0,0,1-1.867.185,6.145,6.145,0,0,1-.934-.033q-.407-.033-.945-.114l-.022.163Zm1.33-5.955.136.092a.684.684,0,0,1,.6-.3.675.675,0,0,1,.581.288,1.3,1.3,0,0,1,.228.8,1.251,1.251,0,0,1-.212.749A.679.679,0,0,1,18,6.5a.67.67,0,0,1-.592-.271,1.161,1.161,0,0,1-.223-.738,1.3,1.3,0,0,1,.228-.8L17.279,4.6l-.136-.092a1.655,1.655,0,0,0-.282.988,1.51,1.51,0,0,0,.288.939,1.124,1.124,0,0,0,1.732-.011,1.572,1.572,0,0,0,.271-.939,1.614,1.614,0,0,0-.293-1,1.078,1.078,0,0,0-1.721.022l.136.092Zm-7.16-2.714-.081.147a2.5,2.5,0,0,0,1.2.266A2.25,2.25,0,0,0,12.415,2a.955.955,0,0,0,.51-.847,1.014,1.014,0,0,0-.483-.836A2.122,2.122,0,0,0,11.243,0a2.346,2.346,0,0,0-1.205.293.969.969,0,0,0-.537.863.937.937,0,0,0,.532.869l.076-.147.076-.147a.605.605,0,0,1-.358-.581.637.637,0,0,1,.38-.575,1.98,1.98,0,0,1,1.037-.25,1.788,1.788,0,0,1,1.01.255.677.677,0,0,1,.342.565.627.627,0,0,1-.353.57,1.923,1.923,0,0,1-1.015.244,2.151,2.151,0,0,1-1.042-.223l-.076.147ZM13.23,6.466V6.3H12.92V2.535H9.174V4.593h.565V6.3H9.174V8.36h4.218V6.3H13.23v.163h-.163V8.029H9.506v-1.4h.565V4.261H9.506v-1.4h3.089V6.628h.641V6.466h0Zm-5.423,0h.163V.147H4.088V2.2h.7v.841h.163L5.038,2.9a3.391,3.391,0,0,0-1.829-.478,3.307,3.307,0,0,0-2.329.809A3.036,3.036,0,0,0,0,5.554,2.607,2.607,0,0,0,.955,7.709a3.4,3.4,0,0,0,2.161.744,3.664,3.664,0,0,0,1.916-.494l-.081-.141H4.788v.532H8.68V6.292H7.8v.163h0v.163h.548v1.4H5.114V7.524l-.25.147a3.342,3.342,0,0,1-1.753.445,3.052,3.052,0,0,1-1.954-.673,2.258,2.258,0,0,1-.831-1.9A2.691,2.691,0,0,1,1.1,3.463a2.979,2.979,0,0,1,2.1-.722,3.052,3.052,0,0,1,1.656.429l.25.157V1.857h-.7V.456H7.633V6.607H7.8V6.444Zm-3.1-.1-.119-.109a.721.721,0,0,1-.581.244.616.616,0,0,1-.57-.266,1.269,1.269,0,0,1-.212-.755c.022-.8.25-1.069.8-1.086a.629.629,0,0,1,.575.271,1.3,1.3,0,0,1,.206.765,1.247,1.247,0,0,1-.223.831l.125.109.125.109a1.539,1.539,0,0,0,.309-1.048,1.673,1.673,0,0,0-.266-.955.987.987,0,0,0-.841-.413,1.047,1.047,0,0,0-.858.375A1.666,1.666,0,0,0,2.9,5.472a1.613,1.613,0,0,0,.266.945.957.957,0,0,0,.841.407,1.083,1.083,0,0,0,.825-.353l-.119-.109Z" transform="translate(14.529 29.534)" fill="#020202"/><path d="M3.891.516s-.6-.841-2.144-.375S-.414,4.359.287,6.742s2.367,3.7,4.386,2.5L3.9.521Z" transform="translate(29.196 9.336)" fill="#fffef4"/><path d="M4.061.684,4.2.586A1.73,1.73,0,0,0,2.79,0a3.264,3.264,0,0,0-.923.147,2.526,2.526,0,0,0-1.4,1.672A8.685,8.685,0,0,0,0,4.707,8.053,8.053,0,0,0,.293,6.949a5.411,5.411,0,0,0,1.183,2.2,2.576,2.576,0,0,0,1.878.863,3.012,3.012,0,0,0,1.563-.478A.167.167,0,0,0,5,9.381L4.223.662,4.191.581l-.136.1L3.892.695l.776,8.718L4.831,9.4l-.087-.141a2.716,2.716,0,0,1-1.4.429,2.249,2.249,0,0,1-1.639-.76A5.026,5.026,0,0,1,.6,6.856a7.925,7.925,0,0,1-.277-2.15A8.351,8.351,0,0,1,.771,1.933,2.208,2.208,0,0,1,1.954.461,2.824,2.824,0,0,1,2.779.326a1.62,1.62,0,0,1,.885.233,1.228,1.228,0,0,1,.2.152L3.9.76l.011.011h0L3.968.733,3.914.771h0L3.968.733,3.914.771l.136-.1L3.887.689,4.05.673Z" transform="translate(29.025 9.163)" fill="#020202"/><path d="M.6,11.392a4.9,4.9,0,0,1-.326-3.8C1.513,4.6,3.207,5.6,3.712,3.173c.407-1.954-.054-3.751,1.645-3,1.52.673,2.508,4.375.586,5.765,0,0,4.625-.385,5.727.923a2.851,2.851,0,0,1,.157,3.018,2,2,0,0,1-.342,2.714A2.162,2.162,0,0,1,10.1,15.143a4.288,4.288,0,0,1-2.448.06,6.238,6.238,0,0,1-2.921.727A3.786,3.786,0,0,1,.59,11.392Z" transform="translate(31.827 2.69)" fill="#fffef4"/><path d="M.755,11.541.9,11.46l-.022-.043A5.4,5.4,0,0,1,.326,9.147,3.5,3.5,0,0,1,.581,7.8,4.5,4.5,0,0,1,2.519,5.456a3.955,3.955,0,0,0,.9-.733,2.92,2.92,0,0,0,.613-1.368c.174-.836.19-1.639.282-2.209A1.731,1.731,0,0,1,4.506.5a.377.377,0,0,1,.353-.19,1.591,1.591,0,0,1,.6.163A2.5,2.5,0,0,1,6.547,1.7a4.678,4.678,0,0,1,.461,2,2.676,2.676,0,0,1-.993,2.258.17.17,0,0,0-.06.19.161.161,0,0,0,.168.109l.423-.027c.266-.011.635-.027,1.064-.027a13.826,13.826,0,0,1,2.372.179,3.013,3.013,0,0,1,1.732.744,2.1,2.1,0,0,1,.494,1.4,3.121,3.121,0,0,1-.179,1.015,2.976,2.976,0,0,1-.125.309l-.038.081-.011.027a.18.18,0,0,0,.005.174l.016.022a2.433,2.433,0,0,1,.358,1.2,1.5,1.5,0,0,1-.679,1.27.167.167,0,0,0-.065.168v.033a2,2,0,0,1,.043.44,2.219,2.219,0,0,1-.233,1.026,1.78,1.78,0,0,1-1.08.858,4.213,4.213,0,0,1-1.287.2,4.394,4.394,0,0,1-.771-.071c-.092-.016-.163-.038-.212-.049L7.9,15.216H7.882a.153.153,0,0,0-.152.022l.022.033-.022-.033h0l.022.033-.022-.033a6.183,6.183,0,0,1-2.834.695c-.114.011-.233.016-.347.016A3.728,3.728,0,0,1,2.025,15,3.663,3.663,0,0,1,.89,12.225a5.341,5.341,0,0,1,.038-.646l-.022-.1-.147.081L.6,11.541a6.089,6.089,0,0,0-.043.684,3.964,3.964,0,0,0,1.238,3.018,4.068,4.068,0,0,0,2.747,1.031c.125,0,.255-.005.38-.016a6.281,6.281,0,0,0,3-.76l-.1-.13-.054.157a4.122,4.122,0,0,0,1.162.157,4.58,4.58,0,0,0,1.39-.217,2.1,2.1,0,0,0,1.27-1.015,2.508,2.508,0,0,0,.271-1.183,3.011,3.011,0,0,0-.049-.543l-.163.038.1.13a1.866,1.866,0,0,0,.814-1.536,2.764,2.764,0,0,0-.429-1.4L12,10.048l.147.081a3.6,3.6,0,0,0,.4-1.591,2.427,2.427,0,0,0-.575-1.612,3.313,3.313,0,0,0-1.927-.852A14.1,14.1,0,0,0,7.606,5.89c-.869,0-1.509.054-1.515.054l.016.163.1.136A3.01,3.01,0,0,0,7.34,3.719a5.018,5.018,0,0,0-.494-2.15A2.807,2.807,0,0,0,5.592.19,1.854,1.854,0,0,0,4.864,0a.71.71,0,0,0-.63.342,3.021,3.021,0,0,0-.3,1.254,15.353,15.353,0,0,1-.217,1.71,2.617,2.617,0,0,1-.543,1.221A8.146,8.146,0,0,1,1.835,5.554,4.811,4.811,0,0,0,.282,7.692,3.81,3.81,0,0,0,0,9.169a5.625,5.625,0,0,0,.619,2.47l.147-.081L.6,11.536l.163.022Z" transform="translate(31.669 2.541)" fill="#020202"/><path d="M.836.019A1.685,1.685,0,0,0,.418.345,1.456,1.456,0,0,0,0,1.36a1.689,1.689,0,0,0,.087.521A1.9,1.9,0,0,0,1.249,2.945a5.586,5.586,0,0,0,2.1.375,7.377,7.377,0,0,0,2.1-.309.165.165,0,0,0-.1-.315,7.083,7.083,0,0,1-2.009.293,5.318,5.318,0,0,1-1.976-.347A1.594,1.594,0,0,1,.4,1.778a1.435,1.435,0,0,1-.071-.423A1.114,1.114,0,0,1,.651.568a1.58,1.58,0,0,1,.228-.2L.955.323.977.312h0A.164.164,0,0,0,1.048.09.164.164,0,0,0,.825.019H.836Z" transform="translate(38.033 13.016)" fill="#020202"/><path d="M1.85,3.056S-.192,2.481.015,1A1.092,1.092,0,0,1,.72,0" transform="translate(37.653 15.526)" fill="#fffef4"/><path d="M2.052,3.054H2.036a3.959,3.959,0,0,1-.945-.461,2.028,2.028,0,0,1-.537-.516,1.216,1.216,0,0,1-.228-.706,1.085,1.085,0,0,1,.011-.185A1.118,1.118,0,0,1,.684.459.581.581,0,0,1,.858.345L.907.323H.917v0h0v0a.17.17,0,0,0,.125-.2A.17.17,0,0,0,.847,0a.934.934,0,0,0-.38.212,1.448,1.448,0,0,0-.451.928A1.61,1.61,0,0,0,0,1.371a1.57,1.57,0,0,0,.32.945,3.466,3.466,0,0,0,1.65,1.059.163.163,0,0,0,.087-.315h0Z" transform="translate(37.495 15.37)" fill="#020202"/><path d="M5.005.087S4.9.076,4.734.076a3.059,3.059,0,0,0-.765.092A1.737,1.737,0,0,0,3.132.63l.119.114L3.339.6A4.187,4.187,0,0,0,1.471,0,1.4,1.4,0,0,0,.315.521,1.358,1.358,0,0,0,0,1.373a1.6,1.6,0,0,0,.8,1.3,4.929,4.929,0,0,0,2.367.706c.217.016.418.027.6.027a3.329,3.329,0,0,0,1.954-.483,1.16,1.16,0,0,0,.456-.537.163.163,0,0,0-.309-.1h0a.947.947,0,0,1-.391.407,3.119,3.119,0,0,1-1.7.385A5.582,5.582,0,0,1,3.2,3.045,4.6,4.6,0,0,1,.988,2.4,1.282,1.282,0,0,1,.331,1.373,1.033,1.033,0,0,1,.575.727a1.1,1.1,0,0,1,.9-.4A3.063,3.063,0,0,1,2.622.608c.163.071.3.141.4.19a1.115,1.115,0,0,1,.109.065l.038.022A.159.159,0,0,0,3.371.858,1.407,1.407,0,0,1,4.055.489,2.857,2.857,0,0,1,4.739.407h.233A.158.158,0,0,0,5.152.261.158.158,0,0,0,5.005.081h0Z" transform="translate(37.897 10.423)" fill="#020202"/><path d="M2.731,0S4.2,3.691,0,5.689" transform="translate(34.966 9.067)" fill="#fffef4"/><path d="M2.743.234l.011.022a4.362,4.362,0,0,1,.228,1.411,4.016,4.016,0,0,1-.543,2.041,5.139,5.139,0,0,1-2.345,2,.158.158,0,0,0-.076.217A.158.158,0,0,0,.235,6,5.456,5.456,0,0,0,2.722,3.871a4.313,4.313,0,0,0,.586-2.209A4.52,4.52,0,0,0,3.047.1a.163.163,0,0,0-.3.119h0Z" transform="translate(34.802 8.888)" fill="#020202"/><path d="M3.027,1.842l1.623.516a.069.069,0,0,1,0,.13L3.033,2.9l-.043.043-.63,1.764a.066.066,0,0,1-.125,0L1.7,2.922l-.043-.043L.047,2.39a.069.069,0,0,1,0-.13L1.7,1.82l.043-.043.6-1.732a.066.066,0,0,1,.125,0L2.995,1.8l.043.043Z" transform="translate(39.91 3.017)" fill="#fffef4"/><path d="M3.2,2.02l-.049.157,1.623.516L4.8,2.6h-.1a.1.1,0,0,0,.071.092L4.8,2.6h0l-.022-.092a.109.109,0,0,0-.076.092h.1l-.022-.092-1.661.423L3.045,3l-.033.027-.646,1.8.092.033v-.1l-.092.065.092.033v0l.092-.027a.1.1,0,0,0-.092-.071v.1l.092-.027L2.009,3.008l-.076-.076L1.905,2.9.255,2.4l-.027.092h.1A.1.1,0,0,0,.255,2.4l-.027.092h0l.027.092a.1.1,0,0,0,.071-.092h-.1l.027.092,1.688-.451.076-.071.033-.027L2.665.266,2.573.234v.1A.106.106,0,0,0,2.665.266L2.573.234v0L2.481.261a.1.1,0,0,0,.092.071v-.1L2.481.261l.537,1.8.071.076.027.027.038.011L3.2,2.014,3.322,1.9l-.016-.016L2.8.163a.231.231,0,0,0-.44-.005L1.77,1.851l-.016.016.114.119L1.824,1.83l-1.65.44A.235.235,0,0,0,0,2.492a.241.241,0,0,0,.163.223l1.574.478.016.016.119-.114-.157.049L2.247,4.93a.232.232,0,0,0,.44.011L3.3,3.214,3.317,3.2l-.109-.119.043.157,1.618-.413A.228.228,0,0,0,5.043,2.6a.241.241,0,0,0-.163-.223L3.257,1.862l-.049.157.119-.114-.119.114Z" transform="translate(39.741 2.839)" fill="#020202"/><path d="M2.018,1.189l.939.3a.1.1,0,0,1-.005.185l-.934.239-.065.06-.38,1.059a.1.1,0,0,1-.185,0l-.32-1.075L1,1.889.069,1.607a.1.1,0,0,1,0-.19l.955-.255L1.09,1.1,1.448.065a.1.1,0,0,1,.185,0l.315,1.053.065.065Z" transform="translate(27.604 5.716)" fill="#fffef4"/><path d="M2.171,1.357l-.049.157.939.3.022-.065H3.018l.049.065.022-.065h0l-.016-.065-.049.065h.065l-.016-.065-.972.25L2,2.02l-.033.027-.391,1.1.065.022V3.1l-.065.043.065.022v0l.065-.022-.065-.049V3.16l.065-.022L1.379,2.025l-.092-.092-.027-.027L.288,1.613l-.022.065H.331L.282,1.613l-.022.065h0l.016.065.049-.065H.261l.016.065.993-.266.1-.092L1.4,1.357,1.775.283,1.71.261V.326L1.775.283,1.71.261v0L1.645.283,1.71.331V.266L1.645.288l.326,1.091.092.092L2.09,1.5l.038.011.049-.157L2.3,1.238,2.264,1.2,1.96.185A.257.257,0,0,0,1.71,0a.273.273,0,0,0-.25.174l-.347,1H1.107c0,.005-.912.25-.912.25a.269.269,0,0,0-.2.255.259.259,0,0,0,.185.25l.89.271H1.08c0,.005.309,1.042.309,1.042a.264.264,0,0,0,.25.19.258.258,0,0,0,.244-.174l.364-1.021h.005c0-.005.9-.233.9-.233a.262.262,0,0,0,.2-.255.268.268,0,0,0-.185-.25L2.22,1.2l-.049.157.119-.114-.119.114Z" transform="translate(27.45 5.548)" fill="#020202"/></svg>