<svg xmlns="http://www.w3.org/2000/svg" width="35.99" height="45" viewBox="0 0 35.99 45"><g transform="translate(0 0.1)"><path d="M34.532,44.261A2.157,2.157,0,0,0,35.99,42.5v-.953l-.137-.351a4.2,4.2,0,0,0-.321-.631l-.03-.042A7.719,7.719,0,0,0,34.186,38.9a8.569,8.569,0,0,1-1.393-1.542l-.31-.381A15.569,15.569,0,0,1,29.167,30.6c-.506-2.024-.8-4.1-1.137-6.162-.238-1.477-.494-2.965-.881-4.424A16.916,16.916,0,0,0,21.487,11.1a.967.967,0,0,1-.4-.953l.018-.208a1.071,1.071,0,0,0-.506-.994,2.785,2.785,0,0,0-.756-.333,21.8,21.8,0,0,0-2.483-.494,5.642,5.642,0,0,1-2.245-.816,6.936,6.936,0,0,1-1.59-1.459,6.26,6.26,0,0,1-.869-1.471,7.1,7.1,0,0,1-.506-1.75A9.281,9.281,0,0,0,11.735.954a1.471,1.471,0,0,0-1.167-1l-.2-.054h-.6A2.443,2.443,0,0,0,8.425.43a.758.758,0,0,0-.333.578,3.905,3.905,0,0,0,.06,1.024A16.337,16.337,0,0,0,8.966,4.6l.113.292c.167.452.351.911.476,1.387l.054.208a1.247,1.247,0,0,1-.333,1.3,10.84,10.84,0,0,1-.9.744c-.786.589-1.6,1.125-2.417,1.667A5.343,5.343,0,0,0,4.1,12.147a20.482,20.482,0,0,1-1.155,1.935A16.365,16.365,0,0,0,.72,18.642a15.007,15.007,0,0,0-.7,4.269v.03L0,23.292v1.435l.03.113c.03.31.054.619.1.923a17.984,17.984,0,0,0,1.6,5.3A26.294,26.294,0,0,0,4.87,35.914l.375.4A26.116,26.116,0,0,0,8.2,38.456c.3.185.613.357.929.542a50.8,50.8,0,0,0,16,5.608c.578.06,1.161.143,1.738.167a12.1,12.1,0,0,0,1.613.083l.107.036c.262,0,.518.012.768.006l.137-.012c.31,0,.619-.012.923-.024a25.351,25.351,0,0,0,3.566-.429l.554-.179Z" transform="translate(0 0)" fill="#381614"/><path d="M0,386.506l.035-.006L0,386.874Z" transform="translate(0 -363.579)" fill="#897673"/><path d="M11.511,194.225l.066.088a.954.954,0,0,0,1.287.572,4.719,4.719,0,0,0,1.87-1.028,7.467,7.467,0,0,0,1.31-1.349l.232.018a2.468,2.468,0,0,0,1.5.952,2.559,2.559,0,0,0,2.186-.531,3.1,3.1,0,0,0,.846-.987l.2-.018a3.951,3.951,0,0,0,1.394,1.191,1.808,1.808,0,0,0,2.722-1.547l.012-.082.524.321a3.066,3.066,0,0,0,1.721.45,1.817,1.817,0,0,0,1.608-.993c.131-.245.149-.257.363-.076a16.818,16.818,0,0,1,2.472,2.5,16.188,16.188,0,0,1,2.71,4.974,26.037,26.037,0,0,1,.888,3.614c.167.9.334,1.8.477,2.7.191,1.179.375,2.364.619,3.538a17.808,17.808,0,0,0,1.608,4.857,13.114,13.114,0,0,0,2,2.767c.328.35.655.695.983,1.045l.369.578a7.715,7.715,0,0,0,.643.671,7.706,7.706,0,0,1,1.388,1.676,1.887,1.887,0,0,1-1.162,2.843,13.122,13.122,0,0,1-2.383.415,24.074,24.074,0,0,1-2.6.093c-1.108-.029-2.216-.082-3.324-.2a39.4,39.4,0,0,1-4.962-.817,38.671,38.671,0,0,1-6.4-2.2c-1.68-.736-3.354-1.483-4.986-2.318a24.723,24.723,0,0,1-3.6-2.294,6.666,6.666,0,0,1-1.15-1.29,23,23,0,0,1-2.639-4.233A17.047,17.047,0,0,1,8.9,205.838a13.421,13.421,0,0,1-.2-2.014,16.441,16.441,0,0,1,1.257-6.842,13.647,13.647,0,0,1,1.4-2.569l.119-.163.042-.029Z" transform="translate(-8.179 -179.149)" fill="#ae332b"/><path d="M80.06,19.165a3.026,3.026,0,0,1-1.7-.555,4.5,4.5,0,0,1-.7-.543l-.134-.082-.134.163.047.234a1.352,1.352,0,0,1-1.792,1.8A3.111,3.111,0,0,1,74.041,18.7l-.07-.4-.269-.257-.222.286a2.375,2.375,0,0,1-1.874,2.09,2.1,2.1,0,0,1-2.113-.887l-.222-.269h-.315l-.514.6a6.886,6.886,0,0,1-2,1.676,1.816,1.816,0,0,1-.963.28.346.346,0,0,1-.356-.461,5.728,5.728,0,0,1,1.635-2.942,8.555,8.555,0,0,1,1.033-.741,24.994,24.994,0,0,0,2.82-2.049,1.85,1.85,0,0,0,.578-2.055,24.181,24.181,0,0,0-.917-2.528,21.151,21.151,0,0,1-.683-2.219l.146-.5a2.191,2.191,0,0,1,1.892-.508.989.989,0,0,1,.712.607,5.443,5.443,0,0,1,.35,1.354,7.9,7.9,0,0,0,1.279,3.427,6.321,6.321,0,0,0,4.344,2.7,11.772,11.772,0,0,1,1.354.175,4.371,4.371,0,0,1,1.477.73.861.861,0,0,1,.327.887,1.823,1.823,0,0,1-.461,1.08,1.328,1.328,0,0,1-.963.385Z" transform="translate(-61.308 -7.413)" fill="#849d42"/><path d="M105,345.892a11.674,11.674,0,0,1,5.447,1.249,9.1,9.1,0,0,1,4.344,4.32,7.081,7.081,0,0,1,.66,2.464,7.176,7.176,0,0,1-1.8,5.412,9.739,9.739,0,0,1-4.992,3.094,12.074,12.074,0,0,1-3.736.444,11.915,11.915,0,0,1-5.465-1.541,9.26,9.26,0,0,1-2.219-1.67,8.071,8.071,0,0,1-2.108-3.655,7.133,7.133,0,0,1,1.506-6.486,9.854,9.854,0,0,1,5.8-3.369A11.889,11.889,0,0,1,105,345.9Z" transform="translate(-89.107 -325.141)" fill="#381614"/><path d="M364.506,217.606a4.311,4.311,0,0,1,.765.724,16.6,16.6,0,0,1,3.269,6.311,19.867,19.867,0,0,1,.584,2.394c.023.152.093.333-.117.415-.123.047-.245-.076-.309-.327-.14-.578-.257-1.162-.4-1.74a19.778,19.778,0,0,0-2.867-6.44c-.274-.4-.566-.776-.864-1.15l-.064-.193Z" transform="translate(-342.735 -204.666)" fill="#391613"/><path d="M451.1,428.9l.017-.239.146-.163.152.14a3.023,3.023,0,0,1,.152.642c.035.234.058.473.082.712l-.029.234-.228.058-.082-.163a4.248,4.248,0,0,1-.2-1.226Z" transform="translate(-424.234 -403.061)" fill="#391613"/><path d="M159.439,416.386a12.311,12.311,0,0,1-.671,2.89,1.24,1.24,0,0,1-.479.613,10.483,10.483,0,0,1-4.665,1.81,11.6,11.6,0,0,1-6.953-1.15c-.315-.158-.619-.356-.922-.537a1.111,1.111,0,0,1-.485-.607,17.223,17.223,0,0,1-.864-3.631l.018-.14.105.088c.391.455.776.911,1.173,1.36l.467.105.041-.438a8.5,8.5,0,0,1-.654-.8,5.566,5.566,0,0,1-.993-2.645,11.074,11.074,0,0,1,.076-2.563l.2-.187c.543-.029,1.08-.07,1.623-.1,1.15-.064,2.294-.163,3.433-.339.321-.047.409-.146.444-.467l.1-.549c.053.245.111.49.158.741l.292.3a5.065,5.065,0,0,0,.94.018c1.08-.047,2.16-.023,3.234-.023h.409c.3-.018.409-.105.444-.409l.012-.146.105.315a.467.467,0,0,0,.479.385c.636.053,1.267.023,1.9.041.263.006.531.017.794.023l.193.158c.093.806.222,1.611.3,2.417a4.634,4.634,0,0,1-.782,2.884,10.71,10.71,0,0,1-.741,1.1l-.047.309.315-.012a8.6,8.6,0,0,0,1-.8Z" transform="translate(-135.675 -384.646)" fill="#dea375"/><path d="M228.826,547.956a4.126,4.126,0,0,1-2.329-.6l-.344-.28-.053-.28h.3a3.989,3.989,0,0,0,.987.52,3.84,3.84,0,0,0,3.544-.49l.339-.018-.053.356a2.934,2.934,0,0,1-1.477.706A3.782,3.782,0,0,1,228.826,547.956Z" transform="translate(-212.594 -514.322)" fill="#381715"/><path d="M318.109,462.4l.4.245a1.158,1.158,0,0,1,.1.753.366.366,0,0,1-.537.269.646.646,0,0,1-.368-.479v-.479A.358.358,0,0,1,318.109,462.4Z" transform="translate(-298.775 -434.944)" fill="#391715"/><path d="M203.284,461.061a.694.694,0,0,1-.315.66.374.374,0,0,1-.613-.234,1.021,1.021,0,0,1,.1-.73.414.414,0,0,1,.514-.251c.21.053.309.187.315.455Z" transform="translate(-190.276 -433.15)" fill="#391715"/><path d="M257.17,519.9l-.327.263a.921.921,0,0,1-.543-.414l.041-.35.333.012.379.286.111.2Z" transform="translate(-241.033 -488.56)" fill="#381a15"/><path d="M510.8,748.515c.625-.017,1.249-.052,1.88-.128l.175-.017a9.946,9.946,0,0,0,1.29-.222l.152-.047a23.923,23.923,0,0,1-3.5.42Z" transform="translate(-480.28 -703.645)" fill="#381614"/></g></svg>