<svg xmlns="http://www.w3.org/2000/svg" xmlns:xlink="http://www.w3.org/1999/xlink" width="36.023" height="45" viewBox="0 0 36.023 45"><defs><clipPath id="a"><path d="M37.622,33.007A14.11,14.11,0,0,1,23.329,46.858l-7.41-.114A14.123,14.123,0,0,1,2.068,32.45l.259-16.531A14.123,14.123,0,0,1,16.62,2.068l7.41.114A14.11,14.11,0,0,1,37.881,16.476l-.259,16.531Z" transform="translate(-2.066 -2.066)" fill="none"/></clipPath></defs><g transform="translate(0.103 0.103)" clip-path="url(#a)"><path d="M37.622,33.007A14.11,14.11,0,0,1,23.329,46.858l-7.41-.114A14.123,14.123,0,0,1,2.068,32.45l.259-16.531A14.123,14.123,0,0,1,16.62,2.068l7.41.114A14.11,14.11,0,0,1,37.881,16.476l-.259,16.531Z" transform="translate(-2.066 -2.066)" fill="#edc155"/><path d="M76.4,55.444l-.114,7.366L44.7,62.318l.114-7.366a1.081,1.081,0,0,1,.01-.179,12.578,12.578,0,0,1,.458-3.079,8.742,8.742,0,0,1,.283-.885,12.572,12.572,0,0,1,1.522-2.994c.159-.229.318-.458.492-.671A12.5,12.5,0,0,1,50.106,44.7c.209-.159.423-.3.637-.453a13.007,13.007,0,0,1,3.248-1.517c.244-.075.487-.144.741-.2a12.53,12.53,0,0,1,3.277-.368l5.6.09a12.827,12.827,0,0,1,3.262.472q.373.1.731.224a12.683,12.683,0,0,1,3.2,1.621c.214.149.423.3.622.467a12.513,12.513,0,0,1,2.442,2.526c.169.219.323.453.477.681a12.774,12.774,0,0,1,1.427,3.039,8.72,8.72,0,0,1,.254.89A12.654,12.654,0,0,1,76.4,55.26v.184Z" transform="translate(-42.58 -40.165)" fill="#8dac2b"/><path d="M73.639,53.678h-.1l-.114,7.256-31.372-.487.114-7.261c0-.06,0-.114,0-.169h0v-.01a12.3,12.3,0,0,1,.458-3.049h0a8.077,8.077,0,0,1,.279-.87h0a12.286,12.286,0,0,1,1.512-2.969h0c.154-.229.318-.453.487-.666h0A12.434,12.434,0,0,1,47.41,43.03h0c.209-.159.418-.3.632-.448l-.06-.09.055.09a12.931,12.931,0,0,1,3.218-1.5h0c.244-.075.482-.144.731-.2h0a12.564,12.564,0,0,1,3.044-.368h.2l5.6.09a12.886,12.886,0,0,1,3.238.467h0c.244.065.487.139.721.224h0A12.779,12.779,0,0,1,67.97,42.9h0c.214.144.418.3.617.463h0a12.444,12.444,0,0,1,2.422,2.507h0c.169.219.323.448.472.676h0A12.857,12.857,0,0,1,72.9,49.56h0a7.432,7.432,0,0,1,.249.88h0a12.569,12.569,0,0,1,.358,2.984v.08h0v.179h.209v-.189h-.1a.742.742,0,0,0,.1.01v-.08a12.732,12.732,0,0,0-.368-3.034l-.1.025.1-.025a7.791,7.791,0,0,0-.259-.9l-.1.035.1-.03a12.9,12.9,0,0,0-1.442-3.064h0c-.149-.234-.308-.463-.482-.691l-.085.065.085-.06A12.851,12.851,0,0,0,68.7,43.2l-.065.085.065-.08c-.2-.164-.408-.323-.627-.472h0A12.886,12.886,0,0,0,64.846,41.1l-.035.1.035-.1c-.239-.085-.487-.164-.741-.229l-.025.1.03-.1a12.842,12.842,0,0,0-3.292-.477l-5.6-.09H55a12.945,12.945,0,0,0-3.093.373l.025.1-.025-.1c-.259.055-.507.129-.751.2h0A13.286,13.286,0,0,0,47.887,42.4h0c-.214.144-.428.293-.642.453l.065.085-.06-.085A12.842,12.842,0,0,0,44.7,45.318h0c-.174.219-.338.443-.5.676h0a12.6,12.6,0,0,0-1.537,3.019l.1.035-.1-.04a8.537,8.537,0,0,0-.283.9l.1.025-.1-.03a12.746,12.746,0,0,0-.463,3.1h.1l-.1-.01c0,.065,0,.129-.01.189l-.114,7.47,31.794.5.114-7.47h-.07Z" transform="translate(-39.824 -38.399)"/><path d="M76.38,56.439l-9.1,4.168,9.056-1.532-.015,1.034-8.753,1.955,8.718.363-.01.517L44.7,62.452l.01-.517,8.723-.09-8.688-2.228.015-1.034,9,1.815L44.8,55.952l.015-.86a1.081,1.081,0,0,1,.01-.179l9.569,4.138-9.116-7.216a8.743,8.743,0,0,1,.283-.885l9.718,6.908-8.2-9.9c.159-.229.318-.458.492-.671L56.4,56.877l-6.3-12.04c.209-.159.423-.3.637-.453L57.7,56.151l-3.71-13.279c.244-.075.487-.144.741-.2l4.391,13.05L58.272,42.3l.791.01,1.532,13.269,1.95-13.214.791.01L62.072,55.758l4.8-12.9q.373.1.731.224l-4.123,13.16L70.8,44.707c.214.149.423.3.622.467L64.752,57.011l9.111-9.31c.169.219.323.453.477.681l-8.5,9.643,9.927-6.6a8.718,8.718,0,0,1,.254.89l-9.33,6.928L76.385,55.4v.179l-.015.86Z" transform="translate(-42.58 -40.299)" fill="#ff4b2b"/><path d="M74.194,54.254l-.045-.094-9.822,4.5,9.718-1.646-.015.826-9.454,2.114,9.415.393v.308l-31.377-.487v-.308l9.429-.1-9.385-2.407.015-.826,9.663,1.95L42.718,53.7l.01-.8c0-.06,0-.114,0-.169l-.1-.01-.04.094,10.3,4.456-9.728-7.714-.065.085.1.025a8.074,8.074,0,0,1,.279-.87l-.1-.04-.06.085,10.369,7.371L44.981,45.7l-.08.065.085.06c.154-.229.318-.453.487-.666l-.085-.065-.08.07,9.365,10.185L48.01,42.606l-.094.05.065.085c.209-.159.418-.3.632-.448l-.06-.09-.09.055,7.365,12.458L51.9,40.656l-.1.03.03.1c.244-.075.482-.144.731-.2l-.025-.1-.1.035,4.645,13.811-.89-14.1.587.01,1.616,13.97,2.054-13.915.587.01L59.707,54.368l5.078-13.657-.1-.035-.025.1c.244.065.487.139.721.224l.035-.1-.1-.03-4.362,13.92L68.7,42.576l-.09-.055-.06.085c.214.144.418.3.617.463l.065-.08-.09-.05L62.084,55.472l9.673-9.882-.075-.075-.085.065c.169.219.323.448.472.676l.09-.06-.08-.07-9.027,10.24,10.593-7.042-.06-.09-.1.035a7.436,7.436,0,0,1,.249.88l.1-.025-.065-.085-9.972,7.405,10.434-4.133-.04-.1h-.1v.174l-.015.86h.1l-.045-.094.045.094h.1l.015-.86V53.2l-.01-.144-9.081,3.6,8.743-6.49-.015-.065a7.786,7.786,0,0,0-.259-.9l-.045-.129L64.263,55.3l8.022-9.1-.045-.065c-.149-.234-.308-.463-.482-.686l-.075-.094-8.639,8.828,6.321-11.22L69.3,42.9c-.2-.164-.408-.323-.627-.472l-.09-.06L61.627,53.329l3.914-12.5-.094-.035c-.239-.085-.487-.164-.741-.229l-.09-.025L60.065,52.786l1.2-12.7-1-.015-1.85,12.513L56.962,40.015l-1-.015.806,12.732L52.61,40.363l-.094.02c-.259.055-.507.129-.751.2l-.1.03,3.526,12.612-6.6-11.175-.094.065c-.214.144-.428.293-.642.453l-.07.055,5.968,11.409-8.365-9.1-.075.094c-.174.219-.338.448-.5.676l-.045.065,7.734,9.35L43.325,48.6l-.05.129a8.538,8.538,0,0,0-.283.9l-.02.065,8.534,6.764-8.967-3.879-.015.144c0,.065,0,.129-.01.189l-.015.93L50.8,57.959,42.46,56.278l-.02,1.243,8,2.049-8.027.085-.01.721,31.794.5.01-.721-8.022-.333,8.057-1.8.02-1.243L65.869,58.2l8.43-3.859v-.065h-.1Z" transform="translate(-40.394 -38.113)"/></g><path d="M35.66,31.044h-.1A14.007,14.007,0,0,1,21.59,44.791h-.219l-7.41-.114A14.014,14.014,0,0,1,.209,30.711v-.219L.468,13.961A14.014,14.014,0,0,1,14.433.209h.219l7.41.114A14.011,14.011,0,0,1,35.814,14.289v.219l-.259,16.532h.209l.259-16.532v-.224A14.217,14.217,0,0,0,22.067.109L14.657,0h-.224A14.223,14.223,0,0,0,.259,13.956L0,30.487v.224A14.217,14.217,0,0,0,13.956,44.886l7.41.114h.224A14.217,14.217,0,0,0,35.764,31.044h-.1Z"/><path d="M112.334,498.48h-.268V495.2h-1.817v.92h.308v2.36h-.308v.92h2.085Zm-4.915-1.47a.7.7,0,0,1,.348.08.381.381,0,0,1,.184.195,1.32,1.32,0,0,1,.04.38v.09a2.229,2.229,0,0,0-.9-.15,1.83,1.83,0,0,0-1,.265.788.788,0,0,0-.387.675.8.8,0,0,0,.313.645,1.384,1.384,0,0,0,.928.27,1.932,1.932,0,0,0,1.043-.255v.2h1.882v-.92h-.372v-.845a1.575,1.575,0,0,0-.079-.59.86.86,0,0,0-.268-.345,1.374,1.374,0,0,0-.591-.235c-.129-.025-.273-.045-.437-.06s-.348-.02-.556-.02a3.567,3.567,0,0,0-1.266.175,1.138,1.138,0,0,0-.631.6l1.182.12a.643.643,0,0,1,.556-.28Zm.119,1.8a.418.418,0,0,1-.283-.115.379.379,0,0,1-.119-.29.368.368,0,0,1,.119-.285.458.458,0,0,1,.313-.11.92.92,0,0,1,.427.11v.535A.65.65,0,0,1,107.537,498.81Zm-2.885-.325h-.442a.9.9,0,0,1,.089-.43.605.605,0,0,1,.318-.255,1.818,1.818,0,0,1,.685-.1h.124v-1.29a2.481,2.481,0,0,0-.591.055,1,1,0,0,0-.412.255,1.167,1.167,0,0,0-.313.475v-.735H102.3v.92h.4v1.09h-.4v.92h2.348v-.91Zm-6.921-.395a1.419,1.419,0,0,0,.323,1.08,1.121,1.121,0,0,0,.77.285,2.375,2.375,0,0,0,1.221-.425v.37h1.862v-.92h-.353v-2.01H99.648v.92h.4v.935a.86.86,0,0,1-.467.135c-.169,0-.228-.04-.268-.125a1.126,1.126,0,0,1-.065-.475v-1.395H97.384v.92h.353v.695Zm-1.072.34c-.1,0-.174-.03-.2-.095a.868.868,0,0,1-.05-.37v-.57h.611v-.92h-.611V495.3l-1.509.72v.45h-.372v.92H94.9v.495c0,.38,0,.64.02.77a.826.826,0,0,0,.05.2.889.889,0,0,0,.1.2.877.877,0,0,0,.377.31,1.386,1.386,0,0,0,.581.11,1.892,1.892,0,0,0,.566-.08,1.475,1.475,0,0,0,.427-.175v-.9a.865.865,0,0,1-.353.095ZM91.8,497.015a.7.7,0,0,1,.348.08.381.381,0,0,1,.184.2,1.319,1.319,0,0,1,.04.38v.09a2.229,2.229,0,0,0-.9-.15,1.83,1.83,0,0,0-1,.265.788.788,0,0,0-.387.675.8.8,0,0,0,.313.645,1.384,1.384,0,0,0,.928.27,1.931,1.931,0,0,0,1.043-.255v.2h1.882v-.92h-.372v-.845a1.574,1.574,0,0,0-.079-.59.86.86,0,0,0-.268-.345,1.374,1.374,0,0,0-.591-.235c-.129-.025-.273-.045-.437-.06s-.348-.02-.556-.02a3.569,3.569,0,0,0-1.266.175,1.138,1.138,0,0,0-.631.605l1.182.12a.643.643,0,0,1,.556-.28Zm.119,1.8a.418.418,0,0,1-.283-.115.378.378,0,0,1-.119-.29.368.368,0,0,1,.119-.285.458.458,0,0,1,.313-.11.92.92,0,0,1,.427.11v.535A.65.65,0,0,1,91.922,498.815Zm-4.513-.325h-.422v-.92a.774.774,0,0,1,.432-.155.33.33,0,0,1,.3.135,1.39,1.39,0,0,1,.07.56v1.3h1.857v-.92H89.3v-.755a1.482,1.482,0,0,0-.278-1,1.083,1.083,0,0,0-.839-.31,2.032,2.032,0,0,0-1.192.425v-.37H85.1v.92h.377v1.09H85.1v.92h2.3v-.92Z" transform="translate(-80.845 -470.585)" fill="#f7eee5"/><path d="M111.1,497.15v-.07h-.2V493.8h-1.956v1.06h.308v2.22h-.308v1.06h2.224v-1.06h-.07v.07h-.07V498h-1.946v-.78h.308v-2.5h-.308v-.78h1.678v3.28h.338v-.07h0Zm-4.916-1.47v.07a.694.694,0,0,1,.318.07.313.313,0,0,1,.154.16,1.273,1.273,0,0,1,.035.355v.09h.07l.03-.065a2.282,2.282,0,0,0-.924-.155,1.821,1.821,0,0,0-1.043.275.862.862,0,0,0-.417.73.9.9,0,0,0,.338.695,1.444,1.444,0,0,0,.973.29,2.011,2.011,0,0,0,1.082-.265l-.04-.06h-.07v.27h2.021v-1.06h-.372V496.3a1.683,1.683,0,0,0-.084-.62.952.952,0,0,0-.288-.37,1.467,1.467,0,0,0-.621-.25c-.129-.025-.278-.045-.442-.06s-.353-.02-.561-.02a3.608,3.608,0,0,0-1.291.18,1.206,1.206,0,0,0-.665.645l-.04.09,1.321.135.025-.035a.564.564,0,0,1,.5-.25v-.14a.713.713,0,0,0-.616.31l.06.04v-.07l-1.177-.12v.07a.54.54,0,0,0,.055.03,1.053,1.053,0,0,1,.591-.57,3.49,3.49,0,0,1,1.241-.17c.2,0,.387,0,.546.02a3.139,3.139,0,0,1,.427.06,1.273,1.273,0,0,1,.561.22.837.837,0,0,1,.248.315,1.626,1.626,0,0,1,.074.565v.915h.372V498h-1.743v-.26l-.109.07a1.823,1.823,0,0,1-1.008.245,1.28,1.28,0,0,1-.884-.255.767.767,0,0,1-.293-.59.712.712,0,0,1,.358-.615,1.68,1.68,0,0,1,.963-.25,2.252,2.252,0,0,1,.869.14l.1.045v-.195a1.2,1.2,0,0,0-.045-.4.472.472,0,0,0-.218-.235.756.756,0,0,0-.382-.085v.065Zm.119,1.8v-.07a.325.325,0,0,1-.233-.095.34.34,0,0,1,0-.475.37.37,0,0,1,.268-.09.832.832,0,0,1,.392.1l.035-.06h-.07v.535h.07l-.045-.055a.581.581,0,0,1-.407.135v.14a.736.736,0,0,0,.5-.17l.025-.02v-.61l-.035-.02a.926.926,0,0,0-.457-.115.525.525,0,0,0-.362.125.473.473,0,0,0,0,.675.492.492,0,0,0,.328.135v-.07Zm-2.885-.325v-.07h-.442v.07h.07a.853.853,0,0,1,.079-.4.518.518,0,0,1,.283-.22,1.87,1.87,0,0,1,.66-.09h.194v-1.43h-.069a2.4,2.4,0,0,0-.611.06,1.033,1.033,0,0,0-.442.275,1.3,1.3,0,0,0-.333.5l.065.025h.069v-.8h-1.946v1.06h.4v.945h-.4v1.06h2.488v-1.06h-.07v.07h-.07V498h-2.2v-.78h.4v-1.23h-.4v-.78h1.668v1.055l.134-.365a1.133,1.133,0,0,1,.3-.445.913.913,0,0,1,.387-.24,2.3,2.3,0,0,1,.571-.055v-.07h-.07v1.29h.07v-.07h-.124a1.926,1.926,0,0,0-.715.1.668.668,0,0,0-.353.285,1.049,1.049,0,0,0-.1.46v.07h.511v-.07h0Zm-6.922-.4h-.07a1.484,1.484,0,0,0,.348,1.135,1.194,1.194,0,0,0,.814.3,2.159,2.159,0,0,0,1.261-.44l-.04-.055h-.07v.44h2v-1.06h-.353v-2.01H98.343v1.06h.4V497h.07l-.035-.06a.789.789,0,0,1-.432.125c-.129,0-.184-.035-.209-.085a1.072,1.072,0,0,1-.06-.44v-1.465h-2v1.06h.353v.625h.139v-.765h-.353v-.78h1.723v1.325a1.178,1.178,0,0,0,.074.51.349.349,0,0,0,.333.16.96.96,0,0,0,.506-.145l.035-.02V496h-.4v-.78h1.768v2.01h.353v.78H98.885v-.435l-.109.08a2.024,2.024,0,0,1-1.182.415,1.032,1.032,0,0,1-.72-.27,1.348,1.348,0,0,1-.3-1.03H96.5Zm-1.072.34v-.07c-.094,0-.124-.025-.144-.055a.844.844,0,0,1-.045-.34v-.5h.611v-1.06h-.611V493.86l-1.648.79v.425h-.372v1.06h.372v.42c0,.38,0,.64.02.78a1.37,1.37,0,0,0,.05.225.978.978,0,0,0,.109.215.911.911,0,0,0,.407.335,1.448,1.448,0,0,0,.611.12,2.169,2.169,0,0,0,.581-.08,1.455,1.455,0,0,0,.447-.185l.03-.02V496.9l-.1.045a.853.853,0,0,1-.328.09v.14a.944.944,0,0,0,.382-.1l-.03-.065H95.7v.9h.07l-.04-.06a1.42,1.42,0,0,1-.407.165,2.14,2.14,0,0,1-.546.075,1.292,1.292,0,0,1-.551-.105.771.771,0,0,1-.348-.285.888.888,0,0,1-.139-.38c-.015-.125-.02-.38-.02-.76v-.565h-.372v-.78h.372v-.475l1.37-.655v1.13H95.7v.78h-.611v.64a.921.921,0,0,0,.06.405.281.281,0,0,0,.268.13v-.07Zm-4.856-1.415v.07a.694.694,0,0,1,.318.07.313.313,0,0,1,.154.16,1.272,1.272,0,0,1,.035.355v.09h.07l.03-.065a2.28,2.28,0,0,0-.924-.155,1.82,1.82,0,0,0-1.043.275.862.862,0,0,0-.417.73.9.9,0,0,0,.338.695,1.444,1.444,0,0,0,.973.29,2.011,2.011,0,0,0,1.082-.265l-.04-.06h-.07v.27h2.021v-1.06h-.372v-.775a1.683,1.683,0,0,0-.084-.62.951.951,0,0,0-.288-.37,1.466,1.466,0,0,0-.621-.25c-.129-.025-.278-.045-.442-.06s-.353-.02-.561-.02a3.609,3.609,0,0,0-1.291.18,1.206,1.206,0,0,0-.665.645l-.04.09,1.321.135.025-.035a.564.564,0,0,1,.5-.25v-.14a.714.714,0,0,0-.616.31l.06.04v-.07l-1.177-.12v.07a.539.539,0,0,0,.055.03,1.053,1.053,0,0,1,.591-.57,3.488,3.488,0,0,1,1.241-.17c.2,0,.387.005.546.02a3.149,3.149,0,0,1,.427.06,1.274,1.274,0,0,1,.561.22.837.837,0,0,1,.248.315,1.626,1.626,0,0,1,.075.565v.915h.372v.78H91.218v-.26l-.109.07a1.823,1.823,0,0,1-1.008.245,1.28,1.28,0,0,1-.884-.255.767.767,0,0,1-.293-.59.712.712,0,0,1,.357-.615,1.68,1.68,0,0,1,.963-.25,2.252,2.252,0,0,1,.869.14l.1.045v-.195a1.205,1.205,0,0,0-.045-.4.472.472,0,0,0-.218-.235.755.755,0,0,0-.382-.085v.07Zm.119,1.8v-.07a.325.325,0,0,1-.233-.095.34.34,0,0,1,0-.475.37.37,0,0,1,.268-.09.832.832,0,0,1,.392.1l.035-.06h-.07v.535h.07l-.045-.055a.581.581,0,0,1-.407.135v.14a.736.736,0,0,0,.5-.17l.025-.02v-.61l-.035-.02a.926.926,0,0,0-.457-.115.525.525,0,0,0-.362.125.473.473,0,0,0,0,.675.492.492,0,0,0,.328.135v-.07Zm-4.513-.325v-.07h-.353v-.85h-.07l.04.06a.706.706,0,0,1,.392-.145.253.253,0,0,1,.238.1,1.393,1.393,0,0,1,.065.525v1.375h2v-1.06h-.348v-.68a1.524,1.524,0,0,0-.3-1.045,1.15,1.15,0,0,0-.894-.335,1.988,1.988,0,0,0-1.231.44l.045.055h.07v-.44H83.8v1.06h.377v.945H83.8v1.06h2.443v-1.06h-.07v.07h-.07v.85H83.944v-.78h.377V496h-.377v-.78h1.743v.44l.114-.085a1.845,1.845,0,0,1,1.147-.41,1.006,1.006,0,0,1,.789.29,1.4,1.4,0,0,1,.263.955v.825h.348v.78H86.635v-1.23a1.414,1.414,0,0,0-.079-.595.388.388,0,0,0-.358-.17.883.883,0,0,0-.472.165l-.03.02v1.03h.492v-.07h0Z" transform="translate(-79.61 -469.255)" fill="#3d342d"/><path d="M215.969,624.07h-2.16v1.3h2.16Zm-4.895,1.195h-.425v-.92a.782.782,0,0,1,.435-.155.334.334,0,0,1,.3.135,1.382,1.382,0,0,1,.07.56v1.3h1.87v-.92h-.35v-.755a1.475,1.475,0,0,0-.28-1,1.1,1.1,0,0,0-.845-.31,2.055,2.055,0,0,0-1.2.425v-.37h-1.9v.92h.38v1.09h-.38v.92h2.32v-.92Zm-6.939-.395a1.412,1.412,0,0,0,.325,1.08,1.133,1.133,0,0,0,.775.285,2.4,2.4,0,0,0,1.23-.425v.37h1.875v-.92h-.355v-2.01h-1.92v.92h.4v.935a.87.87,0,0,1-.47.135c-.17,0-.23-.04-.27-.125a1.12,1.12,0,0,1-.065-.475v-1.395h-1.875v.92h.355v.7Zm-3,1.17a1.966,1.966,0,0,0,.93.2,1.686,1.686,0,0,0,.925-.24.83.83,0,0,0,.38-.75c0-.34-.05-.345-.155-.475a1.034,1.034,0,0,0-.47-.31,6.292,6.292,0,0,0-.875-.235c-.33-.07-.52-.11-.58-.13s-.1-.055-.1-.115c0-.125.115-.185.35-.185a1.155,1.155,0,0,1,.76.3h.86v-.85h-.93v.15a1.876,1.876,0,0,0-.915-.2,1.5,1.5,0,0,0-.865.225.8.8,0,0,0-.345.715c0,.325.025.265.07.355a.8.8,0,0,0,.265.28,1.525,1.525,0,0,0,.52.235c.255.075.485.14.695.2a3.394,3.394,0,0,1,.48.14.142.142,0,0,1,.09.13q0,.165-.4.165a1.011,1.011,0,0,1-.74-.355h-.88v.93h.94v-.175Z" transform="translate(-190.189 -592.217)" fill="#f7eee5"/><path d="M214.446,622.55v-.07h-2.23v1.445h2.3V622.48h-.07v.07h-.07v1.23h-2.015v-1.16h2.09v-.07h0Zm-4.895,1.195v-.07H209.2v-.85h-.07l.04.06a.713.713,0,0,1,.395-.145.255.255,0,0,1,.24.1,1.384,1.384,0,0,1,.065.525v1.375h2.01v-1.06h-.35V623a1.517,1.517,0,0,0-.3-1.045,1.162,1.162,0,0,0-.9-.335,2.011,2.011,0,0,0-1.24.44l.045.055h.07v-.44h-2.04v1.06h.38v.945h-.375v1.06h2.46v-1.06h-.07v.07h-.07v.85h-2.18v-.78h.38v-1.23h-.38v-.78h1.755v.44l.115-.085a1.865,1.865,0,0,1,1.155-.41,1.017,1.017,0,0,1,.795.29,1.4,1.4,0,0,1,.265.955v.825h.345v.78h-1.725v-1.23a1.406,1.406,0,0,0-.08-.6.391.391,0,0,0-.36-.17.893.893,0,0,0-.475.165l-.03.02v1.03h.495v-.07h0Zm-6.939-.395h-.07a1.477,1.477,0,0,0,.35,1.135,1.207,1.207,0,0,0,.82.3,2.184,2.184,0,0,0,1.27-.44l-.04-.055h-.07v.44h2.015v-1.06h-.355v-2.01h-2.06v1.06h.4v.865h.07l-.035-.06a.8.8,0,0,1-.435.125c-.13,0-.185-.035-.21-.085a1.065,1.065,0,0,1-.06-.44v-1.465h-2.015v1.06h.355v.625h.14v-.765h-.355v-.78h1.735v1.325a1.171,1.171,0,0,0,.075.51.352.352,0,0,0,.335.16.971.971,0,0,0,.51-.145l.035-.02V622.59h-.4v-.78h1.78v2.01h.355v.78h-1.735v-.435l-.11.08a2.047,2.047,0,0,1-1.19.415,1.043,1.043,0,0,1-.725-.27,1.342,1.342,0,0,1-.3-1.03h-.07Zm-3,1.17-.035.06a2.032,2.032,0,0,0,.96.21,1.727,1.727,0,0,0,.96-.25.9.9,0,0,0,.41-.81.813.813,0,0,0-.17-.52,1.206,1.206,0,0,0-.5-.335,6.594,6.594,0,0,0-.885-.24c-.325-.07-.525-.11-.575-.13s-.05-.02-.055-.045c0-.06.045-.11.275-.115a1,1,0,0,1,.715.285l.02.02h.955v-.995h-1.07v.22h.07l.035-.06a1.913,1.913,0,0,0-.945-.215,1.6,1.6,0,0,0-.9.24.864.864,0,0,0-.375.775.835.835,0,0,0,.08.39.8.8,0,0,0,.285.3,1.7,1.7,0,0,0,.54.245c.255.075.485.14.695.2a2.643,2.643,0,0,1,.465.135c.045.025.05.035.05.07s0,.035-.06.06a.826.826,0,0,1-.275.035.936.936,0,0,1-.69-.335l-.02-.02h-.98v1.07h1.08v-.25h-.07l-.035.06.035-.06h-.07v.11h-.8v-.79h.81v-.07l-.05.05a1.072,1.072,0,0,0,.79.38c.265,0,.46-.045.475-.235a.221.221,0,0,0-.125-.195,2.8,2.8,0,0,0-.495-.15c-.2-.055-.44-.12-.69-.195a1.431,1.431,0,0,1-.495-.225.771.771,0,0,1-.24-.25.718.718,0,0,1-.065-.325.731.731,0,0,1,.315-.66,1.48,1.48,0,0,1,.83-.215,1.79,1.79,0,0,1,.88.2l.1.06v-.2h.785v.71h-.785v.07l.05-.05a1.142,1.142,0,0,0-.81-.325c-.235,0-.415.07-.42.255a.2.2,0,0,0,.155.185c.065.02.255.06.585.13a6.073,6.073,0,0,1,.865.235,1.023,1.023,0,0,1,.44.29.672.672,0,0,1,.14.43.755.755,0,0,1-.345.69,1.66,1.66,0,0,1-.885.23,1.927,1.927,0,0,1-.895-.19l-.1-.055v.115h.07Z" transform="translate(-188.666 -590.697)" fill="#3d342d"/><path d="M181.493,704.265v-3.28h-1.877v.92h.371v.54a1.71,1.71,0,0,0-.921-.24,1.862,1.862,0,0,0-1.169.41,1.531,1.531,0,0,0-.436,1.175,1.254,1.254,0,0,0,.47,1.08,1.708,1.708,0,0,0,1.084.38,1.786,1.786,0,0,0,.971-.25v.2h1.882v-.92h-.376Zm-1.639-.055a.476.476,0,0,1-.371.16.446.446,0,0,1-.376-.18.769.769,0,0,1-.124-.455c0-.445.168-.67.51-.67s.292.06.376.18a.8.8,0,0,1,.124.46.817.817,0,0,1-.139.5Zm-4.714.375c-.347,0-.52-.24-.525-.715H176.9a1.656,1.656,0,0,0-.54-1.28,2.067,2.067,0,0,0-1.342-.425,2.02,2.02,0,0,0-1.357.445,1.434,1.434,0,0,0-.505,1.12,1.382,1.382,0,0,0,.51,1.11,2.338,2.338,0,0,0,1.525.425,1.569,1.569,0,0,0,1.04-.235,1.37,1.37,0,0,0,.366-.27,1.165,1.165,0,0,0,.233-.35l-1.243-.155a.465.465,0,0,1-.451.325Zm-.51-1.155a.774.774,0,0,1,.109-.425.339.339,0,0,1,.312-.17.367.367,0,0,1,.317.155.634.634,0,0,1,.119.395c0,.16,0,.04,0,.1h-.847v-.06Zm-3.6-1.615a1.247,1.247,0,0,0,.594.13,1.072,1.072,0,0,0,.579-.14.426.426,0,0,0,.228-.38.441.441,0,0,0-.218-.375,1.025,1.025,0,0,0-.584-.15,1.139,1.139,0,0,0-.594.145.431.431,0,0,0-.243.385A.424.424,0,0,0,171.025,701.815Zm1.644,2.45h-.253v-2.01h-1.8v.92h.3v1.09h-.3v.92h2.055Zm-3.209,0h-.441a.906.906,0,0,1,.089-.43.6.6,0,0,1,.317-.255,1.809,1.809,0,0,1,.683-.095h.124v-1.29a2.475,2.475,0,0,0-.589.055,1,1,0,0,0-.411.255,1.166,1.166,0,0,0-.312.475v-.735h-1.8v.92h.4v1.09h-.4v.92h2.342v-.91Zm-3.13,0v-3.28h-1.877v.92h.371v.54a1.71,1.71,0,0,0-.921-.24,1.862,1.862,0,0,0-1.169.41,1.531,1.531,0,0,0-.436,1.175,1.254,1.254,0,0,0,.47,1.08,1.708,1.708,0,0,0,1.084.38,1.786,1.786,0,0,0,.971-.25v.2h1.882v-.92h-.376Zm-1.639-.055a.476.476,0,0,1-.371.16.446.446,0,0,1-.376-.18.77.77,0,0,1-.124-.455c0-.445.168-.67.51-.67s.292.06.376.18a.8.8,0,0,1,.124.46.817.817,0,0,1-.139.5Z" transform="translate(-154.186 -666.094)" fill="#f7eee5"/><path d="M180.069,702.935h.069v-3.35h-2.016v1.06h.371v.47h.069l.035-.06a1.964,1.964,0,0,0-2.179.175,1.613,1.613,0,0,0-.461,1.225,1.364,1.364,0,0,0,.5,1.135,1.777,1.777,0,0,0,1.129.4,1.92,1.92,0,0,0,1.005-.26l-.035-.06h-.069v.265h2.02v-1.06h-.446v.07h0v.07h.307v.78h-1.743v-.25l-.1.065a1.788,1.788,0,0,1-.936.24,1.615,1.615,0,0,1-1.045-.365,1.227,1.227,0,0,1-.446-1.025,1.448,1.448,0,0,1,.416-1.12,1.586,1.586,0,0,1,1.124-.39,1.66,1.66,0,0,1,.886.23l.109.065v-.735h-.371v-.78H180V703h.069Zm-1.639-.055-.05-.05a.39.39,0,0,1-.317.135.346.346,0,0,1-.317-.15.7.7,0,0,1-.114-.415c.01-.43.139-.59.441-.6a.358.358,0,0,1,.317.15.724.724,0,0,1,.114.42.664.664,0,0,1-.124.455l.054.045.054.045a.817.817,0,0,0,.158-.55.859.859,0,0,0-.139-.5.483.483,0,0,0-.431-.21.534.534,0,0,0-.441.195.889.889,0,0,0-.144.545.843.843,0,0,0,.139.495.5.5,0,0,0,.431.21.528.528,0,0,0,.421-.185l-.049-.045Zm-4.714.375v-.07c-.3,0-.441-.18-.456-.645h-.069v.07h2.357v-.075a1.735,1.735,0,0,0-.57-1.33,2.127,2.127,0,0,0-1.387-.44,2.03,2.03,0,0,0-1.4.465,1.5,1.5,0,0,0-.53,1.17,1.462,1.462,0,0,0,.535,1.165,2.4,2.4,0,0,0,1.57.44,2.184,2.184,0,0,0,1.07-.245,1.5,1.5,0,0,0,.381-.285,1.264,1.264,0,0,0,.248-.375l.035-.085-1.387-.17-.02.05a.4.4,0,0,1-.386.285v.14a.549.549,0,0,0,.515-.37l-.064-.03-.01.07,1.243.155.01-.07-.064-.03a1.061,1.061,0,0,1-.218.33,1.23,1.23,0,0,1-.347.255,2.152,2.152,0,0,1-1.005.23,2.262,2.262,0,0,1-1.481-.41,1.29,1.29,0,0,1-.485-1.055,1.355,1.355,0,0,1,.48-1.065,1.89,1.89,0,0,1,1.312-.43,1.963,1.963,0,0,1,1.3.41,1.562,1.562,0,0,1,.515,1.225h.069v-.075h-2.357v.07c0,.485.208.785.6.785v-.06Zm-.51-1.155h.069a.7.7,0,0,1,.1-.385.27.27,0,0,1,.253-.135.311.311,0,0,1,.262.125.553.553,0,0,1,.1.35s0,.04,0,.1h.069v-.065h-.847v.07l.069-.01v-.05h-.144v.07l.01.06h.976v-.065a.631.631,0,0,0,.01-.11.724.724,0,0,0-.134-.44.436.436,0,0,0-.371-.18.431.431,0,0,0-.371.2.871.871,0,0,0-.119.46h.069Zm-3.6-1.615-.035.06a1.267,1.267,0,0,0,.624.14,1.2,1.2,0,0,0,.619-.15.5.5,0,0,0,.262-.44.521.521,0,0,0-.248-.43,1.1,1.1,0,0,0-.624-.165,1.2,1.2,0,0,0-.629.155.509.509,0,0,0-.277.445.5.5,0,0,0,.272.45l.035-.06.035-.065a.336.336,0,0,1-.2-.325.359.359,0,0,1,.208-.325,1.05,1.05,0,0,1,.555-.135.956.956,0,0,1,.545.14.373.373,0,0,1,.188.315.35.35,0,0,1-.193.315,1.035,1.035,0,0,1-.545.13,1.149,1.149,0,0,1-.56-.12l-.035.06Zm1.644,2.45v-.07h-.183v-2.01H169.12v1.06h.3v.945h-.3v1.06h2.194v-1.06h-.069v.07h-.069v.85h-1.916V703h.3v-1.23h-.3v-.78h1.664V703h.322v-.07h0Zm-3.209,0v-.07H167.6v.07h.069a.855.855,0,0,1,.079-.4.517.517,0,0,1,.282-.22,1.861,1.861,0,0,1,.659-.09h.193V700.8h-.069a2.387,2.387,0,0,0-.609.06,1.03,1.03,0,0,0-.441.275,1.3,1.3,0,0,0-.332.5l.064.025h.069v-.8h-1.941v1.06h.4v.945h-.4v1.06H168.1v-1.06h-.069v.07h-.069v.85h-2.2V703h.4v-1.23h-.4v-.78h1.664v1.055l.134-.365a1.133,1.133,0,0,1,.3-.445.91.91,0,0,1,.386-.24,2.284,2.284,0,0,1,.569-.055v-.07h-.069v1.29h.069v-.07h-.124a1.915,1.915,0,0,0-.713.1.666.666,0,0,0-.352.285,1.051,1.051,0,0,0-.1.46V703h.51v-.07h0Zm-3.13,0h.069v-3.35h-2.016v1.06h.371v.47h.069l.035-.06a1.964,1.964,0,0,0-2.179.175,1.613,1.613,0,0,0-.461,1.225,1.364,1.364,0,0,0,.5,1.135,1.777,1.777,0,0,0,1.129.4,1.92,1.92,0,0,0,1.005-.26l-.035-.06h-.069v.265h2.02v-1.06h-.446v.07h0v.07h.307v.78h-1.743v-.25l-.1.065a1.788,1.788,0,0,1-.936.24,1.615,1.615,0,0,1-1.045-.365,1.227,1.227,0,0,1-.446-1.025,1.448,1.448,0,0,1,.416-1.12,1.586,1.586,0,0,1,1.124-.39,1.66,1.66,0,0,1,.886.23l.109.065v-.735H163.1v-.78h1.738V703h.069Zm-1.639-.055-.05-.05a.39.39,0,0,1-.317.135.347.347,0,0,1-.317-.15.7.7,0,0,1-.114-.415c.01-.43.139-.59.441-.6a.358.358,0,0,1,.317.15.724.724,0,0,1,.114.42.664.664,0,0,1-.124.455l.054.045.054.045a.817.817,0,0,0,.158-.55.859.859,0,0,0-.139-.5.483.483,0,0,0-.431-.21.534.534,0,0,0-.441.195.889.889,0,0,0-.144.545.843.843,0,0,0,.139.495.5.5,0,0,0,.431.21.528.528,0,0,0,.421-.185l-.05-.045Z" transform="translate(-152.761 -664.764)" fill="#3d342d"/></svg>