<svg xmlns="http://www.w3.org/2000/svg" width="49.723" height="45" viewBox="0 0 49.723 45"><path d="M51.95,24.477c.063,4.179-4.32,7.282-6.222,10.689-1.964,3.516-2.361,8.855-5.814,10.924-3.349,2.006-8.191-.115-12.371-.052s-8.959,2.33-12.365.428C11.661,44.5,11.1,39.177,9.034,35.724c-2-3.343-6.478-6.311-6.546-10.49s4.32-7.282,6.222-10.689c1.964-3.516,2.361-8.855,5.814-10.924,3.349-2.006,8.191.115,12.371.052s8.959-2.33,12.365-.428c3.516,1.964,4.075,7.288,6.144,10.741C47.41,17.335,51.887,20.3,51.95,24.477Z" transform="translate(-2.358 -2.358)" fill="#ffe7ca"/><path d="M49.592,22.119h-.131v.089c0,2.022-1.06,3.8-2.377,5.5a46.131,46.131,0,0,0-3.829,5.031A47.427,47.427,0,0,0,40.9,38.757c-.773,2.027-1.724,3.845-3.411,4.853a6.766,6.766,0,0,1-3.563.846c-2.68,0-5.741-.914-8.552-.919h-.188c-2.983.047-6.232,1.191-9.048,1.186a6.559,6.559,0,0,1-3.249-.742c-1.713-.956-2.722-2.743-3.558-4.749a47.629,47.629,0,0,0-2.539-5.945A47.476,47.476,0,0,0,2.779,28.34C1.405,26.664.293,24.9.266,22.86v-.089c0-2.022,1.06-3.8,2.377-5.5A46.131,46.131,0,0,0,6.473,12.24,47.427,47.427,0,0,0,8.829,6.222C9.6,4.195,10.553,2.377,12.24,1.369A6.766,6.766,0,0,1,15.8.522c2.68,0,5.741.914,8.552.919h.188C27.526,1.395,30.775.251,33.591.256A6.559,6.559,0,0,1,36.84,1c1.713.956,2.722,2.743,3.558,4.749a47.629,47.629,0,0,0,2.539,5.945,47.476,47.476,0,0,0,4.012,4.947c1.374,1.677,2.487,3.437,2.513,5.48h.261c-.031-2.142-1.191-3.949-2.575-5.642a46.868,46.868,0,0,1-3.991-4.916,46.575,46.575,0,0,1-2.518-5.914C39.8,3.631,38.768,1.781,36.965.773A6.773,6.773,0,0,0,33.591,0c-2.884,0-6.133,1.144-9.053,1.186h-.188c-2.758,0-5.814-.914-8.552-.919a7.04,7.04,0,0,0-3.7.883C10.328,2.21,9.356,4.1,8.578,6.133a47.462,47.462,0,0,1-2.34,5.987,45.823,45.823,0,0,1-3.808,5C1.107,18.838,0,20.666,0,22.787v.094c.037,2.142,1.191,3.949,2.575,5.642a46.867,46.867,0,0,1,3.991,4.916,46.574,46.574,0,0,1,2.518,5.914c.841,2.016,1.87,3.866,3.673,4.874A6.786,6.786,0,0,0,16.132,45c2.884,0,6.133-1.144,9.053-1.186h.183c2.758,0,5.814.914,8.552.919a7.04,7.04,0,0,0,3.7-.883c1.771-1.06,2.743-2.946,3.521-4.984a47.153,47.153,0,0,1,2.34-5.987,45.823,45.823,0,0,1,3.808-5,9.44,9.44,0,0,0,2.429-5.663v-.094h-.131Z" transform="translate(0 0)"/><circle cx="10.735" cy="10.735" r="10.735" transform="translate(9.791 22.495) rotate(-45)" fill="#fcb042"/><path d="M291.943,233.572h-.13v.167A10.581,10.581,0,0,1,281.4,244.312h-.167A10.581,10.581,0,0,1,270.656,233.9v-.167a10.581,10.581,0,0,1,10.417-10.573h.167a10.581,10.581,0,0,1,10.573,10.417h.261A10.835,10.835,0,0,0,281.239,222.9h-.167A10.835,10.835,0,0,0,270.4,233.734v.167a10.835,10.835,0,0,0,10.834,10.672h.167a10.835,10.835,0,0,0,10.672-10.834v-.167Z" transform="translate(-256.258 -211.239)"/><path d="M774.413,448.607a.68.68,0,0,0-.485-.256.686.686,0,0,0-.521.167.7.7,0,0,0-.256.48.717.717,0,0,0,.647.777.666.666,0,0,0,.532-.167.72.72,0,0,0,.084-1Z" transform="translate(-732.745 -424.925)" fill="#020202"/><path d="M654.325,615.479l.595-.595-.177-.183.516-.511.37.376-.454.443.459.464.454-.449.344.355-.516.511-.182-.182-.595.589.72.73,2.175-2.159-.537-.543-.183.177-1.174-1.184.172-.177-.537-.542-2.175,2.149Z" transform="translate(-619.451 -580.592)" fill="#020202"/><path d="M595.681,674.086a.52.52,0,0,1,.475-.047,1.241,1.241,0,0,1,.48.553,1.363,1.363,0,0,1,.235.7.505.505,0,0,1-.292.391.648.648,0,0,1-.381.094.831.831,0,0,1-.386-.141l-.673.381.553.975.673-.381-.11-.193a1.379,1.379,0,0,0,.949-.2,1.7,1.7,0,0,0,.819-.991,1.554,1.554,0,0,0-.167-1.294,1.681,1.681,0,0,0-.652-.657,1.331,1.331,0,0,0-.881-.167,2.586,2.586,0,0,0-.944.329,1.938,1.938,0,0,0-.537.438,1.428,1.428,0,0,0-.308,1.168,3.02,3.02,0,0,0,.318.715l1.247-.7-.3-.532-.287.162a.383.383,0,0,1,.162-.589Z" transform="translate(-563.446 -637.917)" fill="#020202"/><path d="M514.535,706.887a.525.525,0,0,1,.469.089,1.216,1.216,0,0,1,.308.662,1.406,1.406,0,0,1,.031.741.517.517,0,0,1-.391.3.7.7,0,0,1-.391-.016.756.756,0,0,1-.329-.245l-.751.177.256,1.09.751-.177-.052-.219a1.391,1.391,0,0,0,.97.068,1.714,1.714,0,0,0,1.064-.72,1.568,1.568,0,0,0,.2-1.288,1.68,1.68,0,0,0-.443-.814,1.34,1.34,0,0,0-.8-.407,2.639,2.639,0,0,0-1,.052,2.106,2.106,0,0,0-.636.266,1.35,1.35,0,0,0-.443.48,1.333,1.333,0,0,0-.177.553,3.02,3.02,0,0,0,.1.777l1.4-.329-.141-.595-.318.073a.383.383,0,0,1,.323-.522Z" transform="translate(-486.355 -669.2)" fill="#020202"/><path d="M462.9,728.091l1.643.005v-1H462.9Z" transform="translate(-438.717 -689.105)" fill="#020202"/><path d="M382.238,709.456l.365.068-.1.516-.542-.1-.125.642.542.1-.094.485-.7-.136.057-.282-.84-.162-.2,1.038,3.1.595.141-.756-.339-.063.313-1.643.334.063.141-.751-1.909-.37Z" transform="translate(-360.715 -671.665)" fill="#020202"/><path d="M304.153,672.07l.219.1-.24.485-.355-.172-.052-1.481-1.038-.506-.339.688.209.1.078.85a.855.855,0,0,0-.433.115.816.816,0,0,0-.313.349.83.83,0,0,0-.063.61,1,1,0,0,0,.355.522,1.979,1.979,0,0,0,.219.151q.125.078.3.172c.12.063.245.13.386.2l1.565.767.339-.688-.235-.115.735-1.5.235.115.339-.689-1.565-.767-.339.689Zm-.647,1.617c-.167-.083-.282-.146-.339-.182a.294.294,0,0,1-.125-.162.271.271,0,0,1,.021-.209.274.274,0,0,1,.151-.146.287.287,0,0,1,.2-.005,3.225,3.225,0,0,1,.339.146l.125.063-.266.548-.1-.047Z" transform="translate(-286.027 -635.458)" fill="#020202"/><path d="M228.545,626.467l.626.558.172-.193.548.485-.349.391-.475-.417-.433.485.48.422-.329.37-.548-.485.172-.193-.631-.558-.678.772,2.3,2.029.511-.579-.193-.167,1.106-1.252.188.162.506-.574-2.29-2.024Z" transform="translate(-215.234 -593.008)" fill="#020202"/><path d="M177.01,567.974l.469.7.214-.146.407.605-.433.292-.355-.527-.542.37.355.522-.407.276-.407-.6.214-.146-.475-.7-.85.574,1.721,2.54.631-.433-.141-.209,1.388-.939.136.209.636-.428-1.716-2.535Z" transform="translate(-166.046 -537.754)" fill="#020202"/><path d="M151.47,388.582a.709.709,0,0,0,1.007.1.713.713,0,0,0,.1-1.007.718.718,0,0,0-1.012-.094.724.724,0,0,0-.25.475.686.686,0,0,0,.156.522Z" transform="translate(-143.421 -367.175)" fill="#020202"/><path d="M219.219,168.465l-.605.589.183.183-.527.506-.365-.376.459-.443-.454-.464-.459.438-.339-.355.522-.506.177.188.605-.589-.715-.735-2.2,2.133.537.548.183-.172,1.163,1.2-.183.172.537.553,2.2-2.128Z" transform="translate(-204.24 -158.18)" fill="#020202"/><path d="M293.8,120.405a.518.518,0,0,1-.475.042,1.26,1.26,0,0,1-.475-.558,1.357,1.357,0,0,1-.229-.7.524.524,0,0,1,.3-.391.682.682,0,0,1,.381-.089.753.753,0,0,1,.381.146l.678-.37-.537-.981-.678.37.11.2a1.391,1.391,0,0,0-.955.193,1.667,1.667,0,0,0-.829.981,1.561,1.561,0,0,0,.151,1.3,1.662,1.662,0,0,0,.647.668,1.33,1.33,0,0,0,.882.177,2.525,2.525,0,0,0,.949-.318,1.932,1.932,0,0,0,.542-.428,1.25,1.25,0,0,0,.3-.584,1.323,1.323,0,0,0,.021-.584,2.848,2.848,0,0,0-.313-.72l-1.257.689.292.532.287-.156a.382.382,0,0,1-.172.589Z" transform="translate(-276.167 -111.371)" fill="#020202"/><path d="M375.743,94.485a.519.519,0,0,1-.469-.094,1.2,1.2,0,0,1-.3-.668,1.326,1.326,0,0,1-.021-.741.52.52,0,0,1,.391-.292.66.66,0,0,1,.391.021.769.769,0,0,1,.323.25l.751-.167-.245-1.1-.751.167.047.219a1.359,1.359,0,0,0-.97-.078,1.678,1.678,0,0,0-1.069.709,1.568,1.568,0,0,0-.219,1.288,1.663,1.663,0,0,0,.433.819,1.326,1.326,0,0,0,.8.417,2.62,2.62,0,0,0,1-.037,2.05,2.05,0,0,0,.642-.261,1.349,1.349,0,0,0,.449-.475,1.324,1.324,0,0,0,.182-.553,2.959,2.959,0,0,0-.1-.777l-1.4.313.13.595.318-.073a.383.383,0,0,1-.329.516Z" transform="translate(-354.038 -86.917)" fill="#020202"/><rect width="0.991" height="1.648" transform="translate(24.054 7.292) rotate(-89.9)" fill="#020202"/><path d="M505.566,94.085l-.365-.078.1-.511.542.11.13-.636-.542-.115.1-.48.7.141-.057.282.835.172.214-1.033-3.093-.636-.156.751.344.073-.339,1.638-.329-.068-.156.751,1.909.391Z" transform="translate(-477.194 -86.538)" fill="#020202"/><path d="M573.2,114.163l-.214-.11.245-.485.355.177.036,1.481,1.033.522.344-.683-.2-.1-.068-.855a.8.8,0,0,0,.433-.11.845.845,0,0,0,.318-.344.832.832,0,0,0,.068-.61.944.944,0,0,0-.349-.522,1.983,1.983,0,0,0-.219-.156c-.078-.052-.177-.11-.3-.177s-.245-.13-.386-.2l-1.554-.782-.344.683.235.115-.751,1.492-.235-.115-.344.683,1.554.782.344-.683Zm.668-1.607a2.864,2.864,0,0,1,.339.188.278.278,0,0,1,.12.162.272.272,0,0,1-.026.209.264.264,0,0,1-.151.141.261.261,0,0,1-.2,0,2.952,2.952,0,0,1-.339-.151l-.125-.063.276-.548.1.052Z" transform="translate(-541.451 -105.4)" fill="#020202"/><path d="M645.458,162.572l-.626-.569-.172.193-.542-.49.355-.386.469.423.438-.485-.469-.423.329-.365.543.485-.172.193.621.563.688-.762-2.269-2.05-.516.569.188.167-1.121,1.241-.183-.167-.516.569,2.269,2.05Z" transform="translate(-608.931 -150.598)" fill="#020202"/><path d="M697.14,223.556l-.459-.7-.219.141-.4-.61.443-.287.349.527.543-.355-.35-.532.412-.271.4.61-.214.141.459.7.861-.569-1.69-2.556-.642.423.141.214-1.393.918-.141-.209-.642.422,1.685,2.556Z" transform="translate(-658.308 -208.316)" fill="#020202"/><path d="M437.1,395.178a2.324,2.324,0,0,1-2.431,1.3,1.884,1.884,0,0,1-1.643-1.346,5.839,5.839,0,0,1-.261-3.02.611.611,0,0,1,.349-.433.579.579,0,0,1,.511.224,2.732,2.732,0,0,1,.214.882c.063.537.057,1.08.146,1.612a1.01,1.01,0,0,0,.928.824c.542.089.887.036,1.163-.438a15.672,15.672,0,0,0,.72-2.3c.089-.349.365-.563.615-.5a.551.551,0,0,1,.4.626,12.142,12.142,0,0,1-.715,2.566Z" transform="translate(-410.071 -371.212)" fill="#0a0a0a"/><path d="M346.5,377.752a4.024,4.024,0,0,1,.13-.616c.125-.323.308-.61.72-.579a.838.838,0,0,1,.809.584,1.942,1.942,0,0,1-.167,1.513.748.748,0,0,1-.808.464.725.725,0,0,1-.616-.626,4.91,4.91,0,0,1-.063-.746Z" transform="translate(-328.398 -356.882)" fill="#0a0a0a"/><path d="M574.1,406.452a4.033,4.033,0,0,1,.13-.616c.125-.323.308-.61.72-.579a.837.837,0,0,1,.808.584,1.942,1.942,0,0,1-.167,1.513.748.748,0,0,1-.809.464.725.725,0,0,1-.615-.626,4.9,4.9,0,0,1-.063-.746Z" transform="translate(-544.107 -384.082)" fill="#0a0a0a"/></svg>