<svg xmlns="http://www.w3.org/2000/svg" xmlns:xlink="http://www.w3.org/1999/xlink" width="48.471" height="45" viewBox="0 0 48.471 45"><defs><clipPath id="a"><path d="M32.693,6.324c-5.111-8.54-13.248-8.416-18.093.284L2.016,29.214c-4.839,8.694-.663,15.682,9.292,15.528l25.875-.4c9.95-.154,13.912-7.267,8.8-15.807L32.7,6.33Z" transform="translate(0 0)" fill="none"/></clipPath></defs><g transform="translate(0.129 0.127)" clip-path="url(#a)"><path d="M32.693,6.324c-5.111-8.54-13.248-8.416-18.093.284L2.016,29.214c-4.839,8.694-.663,15.682,9.292,15.528l25.875-.4c9.95-.154,13.912-7.267,8.8-15.807L32.7,6.33Z" transform="translate(0 0)" fill="#4182c4"/><path d="M.148,9.186A11.3,11.3,0,0,0,.355,7.664c.047-.61.065-1.2.053-1.771L.367,3.376A17.037,17.037,0,0,0,.255,1.6,10.156,10.156,0,0,0,0,.089L5.537,0,5.9,2.387a3.22,3.22,0,0,0-1.67-.249l-1.759.03L2.5,3.832l1.38-.024a11.762,11.762,0,0,0,1.374-.083l.024,1.392A10.6,10.6,0,0,0,3.9,5.075L2.517,5.1l.03,1.937,1.64-.024a8.22,8.22,0,0,0,1.338-.107,2.056,2.056,0,0,0,.7-.261L5.881,9.109.136,9.2Z" transform="translate(13.463 14.384)" fill="#fcb042"/><path d="M.29,9.316l.124.03a11.612,11.612,0,0,0,.207-1.54C.663,7.3.681,6.8.681,6.319v-.3L.64,3.506C.628,2.932.6,2.339.527,1.717A11.476,11.476,0,0,0,.272.19L.148.219V.343L5.579.261l.349,2.28.124-.018.077-.1a1.413,1.413,0,0,0-.592-.207,6.228,6.228,0,0,0-.965-.065H4.388l-1.883.03L2.535,4.1l1.5-.024a11.925,11.925,0,0,0,1.392-.089l-.018-.124H5.289l.024,1.392h.124l.012-.13c-.3-.03-.646-.047-1.06-.047H4.057l-1.5.024L2.588,7.29l1.765-.03a7.846,7.846,0,0,0,1.362-.113h0a2.185,2.185,0,0,0,.746-.278L6.39,6.763l-.124-.018L5.94,9.1.3,9.186V9.31l.124.03L.3,9.31v.124l5.857-.089.4-2.849-.231.154a1.844,1.844,0,0,1-.657.243h0A7.819,7.819,0,0,1,4.353,7l-1.51.024L2.819,5.342l1.25-.018H4.4a10.1,10.1,0,0,1,1.03.041l.142.018L5.549,3.707l-.142.018a11.452,11.452,0,0,1-1.362.083L2.8,3.826l-.024-1.41L4.4,2.393h.184a5.6,5.6,0,0,1,.924.059,1.181,1.181,0,0,1,.486.166l.249.184L5.81,0,0,.089.041.243a10.736,10.736,0,0,1,.249,1.5c.065.61.1,1.2.113,1.765L.444,6.023v.29c0,.474-.018.965-.059,1.463a10.966,10.966,0,0,1-.2,1.5l-.036.16h.16V9.31Z" transform="translate(13.321 14.254)"/><path d="M1.268,8.322A5.042,5.042,0,0,1,0,4.762a4.632,4.632,0,0,1,1.646-4A3.764,3.764,0,0,1,3.922,0a4.537,4.537,0,0,1,2.12.391l.024,2.416A2.722,2.722,0,0,0,4.3,2.2a2.032,2.032,0,0,0-1.534.634,2.7,2.7,0,0,0-.551,1.907A2.529,2.529,0,0,0,2.85,6.6a2.112,2.112,0,0,0,1.564.586,2.99,2.99,0,0,0,2.061-.77L6.516,8.9a6.824,6.824,0,0,1-2.505.509,3.761,3.761,0,0,1-2.742-1.09Z" transform="translate(20.232 14.158)" fill="#fcb042"/><path d="M1.4,8.451l.089-.089A4.917,4.917,0,0,1,.255,4.892V4.773A4.475,4.475,0,0,1,1.848.995h0a3.685,3.685,0,0,1,2.2-.734h.124A4.229,4.229,0,0,1,6.106.64L6.165.527H6.041l.024,2.422h.124l.083-.095a2.8,2.8,0,0,0-1.806-.64H4.424A2.145,2.145,0,0,0,2.8,2.89h0A2.753,2.753,0,0,0,2.221,4.8v.089A2.7,2.7,0,0,0,2.89,6.84h0A2.211,2.211,0,0,0,4.5,7.462h.047a3.139,3.139,0,0,0,2.144-.8L6.6,6.568H6.479l.041,2.481h.124L6.6,8.931a6.569,6.569,0,0,1-2.458.5H4.075A3.646,3.646,0,0,1,1.487,8.374L1.4,8.463l-.089.089A3.887,3.887,0,0,0,4.075,9.677H4.14a6.818,6.818,0,0,0,2.553-.521l.077-.036L6.728,6.266l-.207.2A2.86,2.86,0,0,1,4.548,7.2H4.507a1.942,1.942,0,0,1-1.433-.551h0a2.431,2.431,0,0,1-.592-1.771V4.791A2.51,2.51,0,0,1,3,3.056H3a1.9,1.9,0,0,1,1.439-.592h.041a2.564,2.564,0,0,1,1.635.574l.213.2L6.3.444,6.23.409A4.423,4.423,0,0,0,4.175,0H4.051A3.863,3.863,0,0,0,1.7.788l.077.1L1.7.788A4.734,4.734,0,0,0,0,4.773V4.9A5.152,5.152,0,0,0,1.309,8.546L1.4,8.457Z" transform="translate(20.102 14.029)"/><path d="M3.685,9.459A3.267,3.267,0,0,1,1.1,8.292,5.5,5.5,0,0,1,0,4.78,5.47,5.47,0,0,1,.99,1.232,3.273,3.273,0,0,1,3.543,0,3.274,3.274,0,0,1,6.137,1.155a5.521,5.521,0,0,1,1.1,3.518,5.514,5.514,0,0,1-.989,3.547,3.349,3.349,0,0,1-1.131.912,3.228,3.228,0,0,1-1.433.332ZM4.988,4.7c-.03-1.919-.6-2.932-1.421-2.914S2.2,2.82,2.234,4.75c.03,1.913.592,2.92,1.421,2.9S5.017,6.616,4.988,4.7Z" transform="translate(27.22 14.028)" fill="#fcb042"/><path d="M3.808,9.6V9.476H3.749A3.09,3.09,0,0,1,2.428,9.2a3.205,3.205,0,0,1-1.113-.847A5.411,5.411,0,0,1,.249,4.921V4.785a5.3,5.3,0,0,1,.959-3.334A3.14,3.14,0,0,1,3.666.267h.059a3.151,3.151,0,0,1,2.44,1.107h0A5.393,5.393,0,0,1,7.231,4.809v.13a5.315,5.315,0,0,1-.959,3.328,3.266,3.266,0,0,1-1.084.877,3.126,3.126,0,0,1-1.374.32v.249A3.4,3.4,0,0,0,5.3,9.369a3.528,3.528,0,0,0,1.173-.948A5.569,5.569,0,0,0,7.486,4.933V4.8A5.639,5.639,0,0,0,6.361,1.2h0A3.414,3.414,0,0,0,3.725,0H3.666A3.4,3.4,0,0,0,1.019,1.279,5.589,5.589,0,0,0,0,4.773v.142A5.646,5.646,0,0,0,1.125,8.51a3.525,3.525,0,0,0,1.2.912,3.39,3.39,0,0,0,1.427.3H3.82v-.13Zm1.3-4.756h.124a5.3,5.3,0,0,0-.426-2.233A1.264,1.264,0,0,0,3.7,1.8H3.678a1.039,1.039,0,0,0-.622.213,1.9,1.9,0,0,0-.622.995,5.888,5.888,0,0,0-.213,1.723v.154a5.275,5.275,0,0,0,.42,2.221,1.647,1.647,0,0,0,.474.6,1.091,1.091,0,0,0,.64.213h.018A1.227,1.227,0,0,0,4.85,7.125a4.889,4.889,0,0,0,.379-2.132V4.844H4.981v.148a4.723,4.723,0,0,1-.355,2.02.981.981,0,0,1-.853.651H3.761a.809.809,0,0,1-.486-.16,1.77,1.77,0,0,1-.557-.9,6.018,6.018,0,0,1-.237-1.717V4.732a4.747,4.747,0,0,1,.349-2.025,1.336,1.336,0,0,1,.379-.492.763.763,0,0,1,.474-.16H3.7a1.006,1.006,0,0,1,.882.669,4.96,4.96,0,0,1,.4,2.12h.136Z" transform="translate(27.097 13.887)"/><path d="M.142,9.2A15.382,15.382,0,0,0,.391,5.9L.349,3.382A15.734,15.734,0,0,0,0,.089L5.6,0,5.97,2.4a3.244,3.244,0,0,0-1.682-.261l-1.824.03.03,1.86,1.2-.018a10.755,10.755,0,0,0,1.4-.083L5.111,5.36a11.277,11.277,0,0,0-1.433-.041l-1.155.018.012.622a13.3,13.3,0,0,0,.361,3.2L.154,9.2Z" transform="translate(9.561 28.142)" fill="#fcb042"/><path d="M.308,9.351l.124.024A14.656,14.656,0,0,0,.687,6.443V6.053L.646,3.53A15.543,15.543,0,0,0,.29.213L.166.243V.367L5.65.284l.355,2.292.124-.018L6.2,2.452a2.963,2.963,0,0,0-1.593-.284H4.442L2.493,2.2l.036,2.114L3.85,4.288h0A9.9,9.9,0,0,0,5.265,4.2l-.024-.124H5.117l.024,1.433h.124l.012-.13c-.3-.03-.651-.047-1.09-.047H3.826l-1.285.018.012.752A13.312,13.312,0,0,0,2.92,9.328l.124-.036V9.168L.3,9.209v.124l.124.024L.3,9.334v.124L3.21,9.411l-.041-.16a13.32,13.32,0,0,1-.355-3.163v-.5l1.019-.018h.361a10.5,10.5,0,0,1,1.06.041l.142.018L5.372,3.909l-.148.024a10.085,10.085,0,0,1-1.374.083l-1.066.018-.024-1.6L4.454,2.4h.16a2.911,2.911,0,0,1,1.445.237l.243.172L5.863,0,0,.089.036.243A15,15,0,0,1,.379,3.506L.42,6.029v.385A14.117,14.117,0,0,1,.172,9.3l-.036.154H.3v-.13Z" transform="translate(9.395 27.988)"/><path d="M3.685,9.464a3.22,3.22,0,0,1-1.433-.29A3.327,3.327,0,0,1,1.1,8.3,5.54,5.54,0,0,1,0,4.786,5.534,5.534,0,0,1,.984,1.232,3.273,3.273,0,0,1,3.537,0,3.274,3.274,0,0,1,6.131,1.155a5.521,5.521,0,0,1,1.1,3.518,5.514,5.514,0,0,1-.989,3.547,3.349,3.349,0,0,1-1.131.912,3.3,3.3,0,0,1-1.427.332Zm1.3-4.756c-.03-1.925-.6-2.932-1.421-2.92S2.2,2.82,2.234,4.75c.03,1.913.592,2.92,1.421,2.908S5.017,6.622,4.988,4.709Z" transform="translate(16.039 27.904)" fill="#fcb042"/><path d="M3.808,9.588V9.464H3.749a3.09,3.09,0,0,1-1.321-.278,3.205,3.205,0,0,1-1.113-.847A5.417,5.417,0,0,1,.249,4.9V4.767a5.3,5.3,0,0,1,.959-3.334A3.14,3.14,0,0,1,3.666.249h.059a3.151,3.151,0,0,1,2.44,1.107h0A5.4,5.4,0,0,1,7.231,4.8v.136a5.315,5.315,0,0,1-.959,3.328,3.319,3.319,0,0,1-1.09.882,3.126,3.126,0,0,1-1.374.32v.249a3.4,3.4,0,0,0,1.487-.343,3.6,3.6,0,0,0,1.173-.948A5.607,5.607,0,0,0,7.486,4.933V4.8A5.627,5.627,0,0,0,6.361,1.2h0A3.414,3.414,0,0,0,3.725,0H3.666A3.388,3.388,0,0,0,1.019,1.279,5.589,5.589,0,0,0,0,4.773v.142A5.646,5.646,0,0,0,1.125,8.51a3.525,3.525,0,0,0,1.2.912,3.41,3.41,0,0,0,1.427.3H3.82v-.13Zm1.3-4.756h.124A5.284,5.284,0,0,0,4.809,2.6,1.264,1.264,0,0,0,3.7,1.789H3.678A1.039,1.039,0,0,0,3.056,2,1.924,1.924,0,0,0,2.434,3,5.888,5.888,0,0,0,2.221,4.72v.154a5.275,5.275,0,0,0,.42,2.221,1.647,1.647,0,0,0,.474.6,1.052,1.052,0,0,0,.64.213h.018A1.227,1.227,0,0,0,4.85,7.113a4.889,4.889,0,0,0,.379-2.132V4.827H4.981v.148a4.723,4.723,0,0,1-.355,2.02.981.981,0,0,1-.853.651H3.755a.809.809,0,0,1-.486-.16,1.8,1.8,0,0,1-.557-.9,6.018,6.018,0,0,1-.237-1.717V4.714a4.729,4.729,0,0,1,.349-2.025A1.286,1.286,0,0,1,3.21,2.2a.763.763,0,0,1,.474-.16H3.7c.349,0,.646.207.882.675a4.96,4.96,0,0,1,.4,2.12h.136Z" transform="translate(15.915 27.78)"/><path d="M3.685,9.464A3.267,3.267,0,0,1,1.1,8.3,5.54,5.54,0,0,1,0,4.786,5.5,5.5,0,0,1,.99,1.232,3.237,3.237,0,0,1,3.543,0,3.274,3.274,0,0,1,6.137,1.155a5.521,5.521,0,0,1,1.1,3.518,5.514,5.514,0,0,1-.989,3.547,3.349,3.349,0,0,1-1.131.912,3.31,3.31,0,0,1-1.433.332ZM4.988,4.7c-.03-1.925-.6-2.932-1.421-2.92S2.2,2.814,2.234,4.744c.03,1.913.592,2.92,1.421,2.908S5.017,6.616,4.988,4.7Z" transform="translate(23.903 27.78)" fill="#fcb042"/><path d="M3.8,9.594V9.47H3.743a3.09,3.09,0,0,1-1.321-.278,3.206,3.206,0,0,1-1.113-.847A5.417,5.417,0,0,1,.243,4.91V4.773A5.3,5.3,0,0,1,1.2,1.439,3.122,3.122,0,0,1,3.66.255h.059a3.151,3.151,0,0,1,2.44,1.107h0A5.386,5.386,0,0,1,7.225,4.8v.136a5.315,5.315,0,0,1-.959,3.328,3.36,3.36,0,0,1-1.084.882,3.126,3.126,0,0,1-1.374.32v.249a3.328,3.328,0,0,0,1.487-.349,3.6,3.6,0,0,0,1.173-.948A5.607,5.607,0,0,0,7.486,4.933V4.8A5.615,5.615,0,0,0,6.361,1.2h0A3.414,3.414,0,0,0,3.725,0H3.666A3.4,3.4,0,0,0,1.019,1.279,5.589,5.589,0,0,0,0,4.773v.142A5.646,5.646,0,0,0,1.125,8.51a3.525,3.525,0,0,0,1.2.912,3.41,3.41,0,0,0,1.427.3H3.82v-.13Zm1.3-4.762h.124A5.284,5.284,0,0,0,4.8,2.6,1.264,1.264,0,0,0,3.69,1.789H3.672A1.039,1.039,0,0,0,3.05,2,1.924,1.924,0,0,0,2.428,3,5.888,5.888,0,0,0,2.215,4.72v.154a5.275,5.275,0,0,0,.42,2.221,1.647,1.647,0,0,0,.474.6,1.052,1.052,0,0,0,.64.213h.018a1.227,1.227,0,0,0,1.078-.794,4.888,4.888,0,0,0,.379-2.132V4.827H4.975v.148a4.723,4.723,0,0,1-.355,2.02.981.981,0,0,1-.853.651H3.755a.809.809,0,0,1-.486-.16,1.731,1.731,0,0,1-.557-.9,6.018,6.018,0,0,1-.237-1.717V4.714a4.729,4.729,0,0,1,.349-2.025A1.336,1.336,0,0,1,3.2,2.2a.763.763,0,0,1,.474-.16H3.69a1.006,1.006,0,0,1,.882.669,4.96,4.96,0,0,1,.4,2.12h.124Z" transform="translate(23.786 27.65)"/><path d="M.148,9.157A11.3,11.3,0,0,0,.355,7.635c.047-.61.065-1.2.053-1.771L.367,3.341C.355,2.772.326,2.18.255,1.564A10.393,10.393,0,0,0,0,.048L3.026,0a3.688,3.688,0,0,1,2.9,1.131A4.887,4.887,0,0,1,7.03,4.478a4.886,4.886,0,0,1-1,3.394A3.647,3.647,0,0,1,3.168,9.1L.142,9.151Zm2.4-2.132.728-.012a1.331,1.331,0,0,0,1.113-.651A3.171,3.171,0,0,0,4.8,4.519a3.077,3.077,0,0,0-.474-1.812A1.339,1.339,0,0,0,3.2,2.1l-.728.012L2.547,7.03Z" transform="translate(31.752 27.839)" fill="#fcb042"/><path d="M.308,9.3l.124.03A11.612,11.612,0,0,0,.64,7.788C.681,7.279.7,6.787.7,6.307v-.3L.657,3.482C.646,2.908.61,2.316.545,1.694A11.582,11.582,0,0,0,.29.16L.166.19V.314L3.2.267h.083A3.529,3.529,0,0,1,6,1.356H6A4.773,4.773,0,0,1,7.071,4.619v.136A4.662,4.662,0,0,1,6.1,7.924h0a3.531,3.531,0,0,1-2.766,1.19L.308,9.162v.124l.124.03-.124-.03v.124L3.34,9.363A3.787,3.787,0,0,0,6.3,8.084h0A4.878,4.878,0,0,0,7.326,4.75V4.608A5.017,5.017,0,0,0,6.183,1.173h0A3.784,3.784,0,0,0,3.281,0H3.192L0,.053.041.207a10.894,10.894,0,0,1,.249,1.5c.065.61.1,1.2.113,1.765L.444,5.993v.3c0,.474-.018.959-.059,1.463a10.968,10.968,0,0,1-.2,1.5l-.036.16h.16V9.3Zm2.4-2.132V7.29l.734-.012a1.456,1.456,0,0,0,1.22-.711h0A3.158,3.158,0,0,0,5.1,4.756v-.1a3.258,3.258,0,0,0-.5-1.889h0a1.476,1.476,0,0,0-1.214-.657H3.364l-.859.012.083,5.17h.124V7.16h.124L2.76,2.369l.6-.012h.018a1.212,1.212,0,0,1,1.007.551h0a2.975,2.975,0,0,1,.45,1.741v.1a2.906,2.906,0,0,1-.4,1.67h0a1.21,1.21,0,0,1-1.013.6L2.7,7.03v.124h.006Z" transform="translate(31.592 27.697)"/><path d="M6.066,6.485S-.555,7.486.037,0C4.615.545,6.422,2.316,6.066,6.485Z" transform="translate(19.034 6.655)" fill="#0a8c60"/><path d="M6.2,6.621,6.183,6.5a.268.268,0,0,0-.047.006,6.126,6.126,0,0,1-.687.036A5.715,5.715,0,0,1,2.256,5.65c-1.09-.752-1.99-2.1-1.99-4.6Q.267.628.3.148L.178.136.16.261A8.209,8.209,0,0,1,4.7,1.871,4.709,4.709,0,0,1,6.118,5.65c0,.3-.012.622-.041.959l.124.012L6.183,6.5l.018.124.124.012c.03-.344.041-.669.041-.977a4.974,4.974,0,0,0-1.5-3.968A8.436,8.436,0,0,0,.178.018L.047,0,.036.13Q0,.619,0,1.054C0,3.613.942,5.07,2.1,5.863a5.983,5.983,0,0,0,3.34.93,5.593,5.593,0,0,0,.77-.047l.1-.018v-.1l-.118-.012Z" transform="translate(18.9 6.519)"/></g><path d="M32.823,6.45l.107-.065C30.395,2.144,27.1,0,23.791,0c-3.382,0-6.71,2.245-9.174,6.669L2.031,29.281A14.4,14.4,0,0,0,0,36.187,7.942,7.942,0,0,0,2.938,42.56,12.765,12.765,0,0,0,11.111,45h.326l25.876-.4a13.16,13.16,0,0,0,8.221-2.535,7.887,7.887,0,0,0,2.938-6.325,14.134,14.134,0,0,0-2.251-7.143L32.936,6.391l-.107.065-.107.065,13.284,22.2a13.894,13.894,0,0,1,2.215,7.012,7.643,7.643,0,0,1-2.849,6.13,12.916,12.916,0,0,1-8.067,2.476l-25.876.4h-.32A12.518,12.518,0,0,1,3.1,42.364,7.692,7.692,0,0,1,.255,36.187a14.126,14.126,0,0,1,2-6.781L14.842,6.793C17.276,2.422,20.534.255,23.791.255c3.18,0,6.408,2.067,8.919,6.26l.107-.065Z" transform="translate(0 0)"/></svg>