<svg xmlns="http://www.w3.org/2000/svg" width="43.891" height="45" viewBox="0 0 43.891 45"><path d="M33.9,10.088S33.737,0,16.553,0,0,10.41,0,10.41s5.52,8.3,18.761,9.438S33.9,10.088,33.9,10.088Z" transform="translate(5.892 13.061)" fill="#050505"/><path d="M43.439,0l-6.4.521c-.31.318-.625.62-.944.913A21.335,21.335,0,0,1,6.584.715L6.4.521,0,0S1.927,17.605,21.073,17.67h.1C40.322,17.61,43.439,0,43.439,0Z" transform="translate(0.198 20.433)" fill="#d64027"/><path d="M43.612.159,43.6.01l-6.45.526-.039.04c-.31.318-.62.615-.939.9a21.248,21.248,0,0,1-14.3,5.538A21.136,21.136,0,0,1,6.851.764L6.663.571,6.624.531,0,0,.019.179A22.458,22.458,0,0,0,3.4,9.056c2.891,4.441,8.222,8.9,17.838,8.922v-.149h-.145v.154h.194s.044,0,.044,0h.15v-.154h-.145v.149c9.621-.03,15.243-4.481,18.434-8.917A24.116,24.116,0,0,0,43.748.189L43.782,0l-.189.015.01.149-.14-.025s-.01.065-.039.194a24.2,24.2,0,0,1-4.508,9.378c-3.244,4.089-8.648,7.944-17.581,7.979h-.145v.154h.145v-.149h-.1v.149h.15v-.149h-.145C11.713,17.66,6.5,13.278,3.641,8.9A22.757,22.757,0,0,1,.9,2.883C.663,2.064.513,1.379.426.9.383.665.353.476.334.352S.31.159.31.159L.165.174.155.323l6.4.521.01-.149-.1.1c.063.065.126.129.194.194A21.442,21.442,0,0,0,21.876,7.329a21.554,21.554,0,0,0,14.5-5.612c.324-.293.639-.6.954-.918l-.1-.1.01.149,6.4-.521-.01-.149-.14-.025.14.025Z" transform="translate(0.03 20.274)"/><path d="M.514,6.677A14.021,14.021,0,0,0,7.441,7.833a.875.875,0,0,0,.784-.863V.867A.864.864,0,0,0,7.288,0,8.117,8.117,0,0,0,.048,5.6.874.874,0,0,0,.519,6.677Z" transform="translate(12.941 14.666)" fill="#fffef4"/><path d="M7.622,6.7A14.012,14.012,0,0,1,.868,7.835.968.968,0,0,1,0,6.872V.967A.963.963,0,0,1,1.047,0a8.1,8.1,0,0,1,7.1,5.5.964.964,0,0,1-.526,1.206Z" transform="translate(22.725 14.68)" fill="#fffef4"/><path d="M31.173,0a11.309,11.309,0,0,0-9.431,4.367A11.3,11.3,0,0,0,12.311,0C5.931.159,0,15.744,0,15.744s8.211,2.337,13.536-1.558c4.018-2.942,7-3.483,8.211-3.573,1.22.089,4.193.63,8.211,3.573,5.321,3.9,13.536,1.558,13.536,1.558S37.563.159,31.178,0Z" transform="translate(0.198 5.801)" fill="#d64027"/><path d="M31.373.149V0h-.32A11.67,11.67,0,0,0,24.1,2.213a9.9,9.9,0,0,0-2.276,2.223l.121.084.121-.084a9.9,9.9,0,0,0-2.276-2.223A11.67,11.67,0,0,0,12.837,0h-.324A7.266,7.266,0,0,0,7.791,2.57a34.6,34.6,0,0,0-5.515,8.316C.9,13.636.058,15.834.058,15.839L0,15.992l.155.045a22.692,22.692,0,0,0,5.569.7,13.672,13.672,0,0,0,8.092-2.283c4-2.928,6.944-3.459,8.14-3.548l-.01-.149-.01.149c1.191.089,4.14.62,8.14,3.548a13.681,13.681,0,0,0,8.092,2.283,22.692,22.692,0,0,0,5.569-.7l.155-.045-.058-.154A59.986,59.986,0,0,0,40.056,8,28.138,28.138,0,0,0,36.1,2.57C34.632,1.077,33.039.045,31.378,0V.149l0,.149c1.54.035,3.08,1.012,4.523,2.481a34.385,34.385,0,0,1,5.462,8.242c.688,1.37,1.24,2.605,1.622,3.493.189.447.339.8.436,1.052s.15.382.15.382l.136-.055-.039-.144-.107.03a22.842,22.842,0,0,1-5.385.66,13.374,13.374,0,0,1-7.922-2.228c-4.039-2.957-7.046-3.508-8.29-3.6h-.019c-1.244.089-4.247.645-8.29,3.6a13.383,13.383,0,0,1-7.922,2.228,22.946,22.946,0,0,1-3.9-.347c-.494-.084-.9-.174-1.172-.238-.136-.035-.242-.06-.315-.079l-.107-.03L.2,15.888l.136.055S.426,15.7.6,15.278A57.159,57.159,0,0,1,4.978,6.7,22.526,22.526,0,0,1,8.547,2.253,6.358,6.358,0,0,1,12.522.3h.32a11.348,11.348,0,0,1,6.784,2.158A10.531,10.531,0,0,1,21.287,3.94c.184.2.32.367.412.486q.065.089.1.134l.034.045.121.179.121-.179.034-.045a10.237,10.237,0,0,1,2.46-2.3A11.385,11.385,0,0,1,31.068.3h.32V.154Z" transform="translate(0 5.657)"/><path d="M0,1.795S6.48-1.738,11.313,1.11c0,0,8.808-4.436,13.378,5.825s-2.307,15.988-9.8,15.03C.853,20.179,9.869,7.263,0,1.79Z" transform="translate(10.778 22.727)" fill="#e37f6e"/><path d="M.194,1.985l.094.174.035-.02A16.2,16.2,0,0,1,7.125.387a8.36,8.36,0,0,1,4.282,1.082.2.2,0,0,0,.189,0l.02-.01A10.593,10.593,0,0,1,15.888.541a8.353,8.353,0,0,1,4.55,1.3A11.7,11.7,0,0,1,24.7,7.2a15.042,15.042,0,0,1,1.454,6.088,8.272,8.272,0,0,1-2.818,6.48A10.123,10.123,0,0,1,16.7,22.061a13.306,13.306,0,0,1-1.588-.1c-3.478-.447-5.488-1.568-6.733-3.066a9.491,9.491,0,0,1-1.8-3.965c-.526-2.218-.69-4.7-1.419-7.036A9.93,9.93,0,0,0,.288,1.811l-.094.174.094.174L.194,1.985.1,2.158A9.354,9.354,0,0,1,4.525,7.264c1.126,2.962,1.092,6.366,2.094,9.234A7.822,7.822,0,0,0,9.224,20.26a11.794,11.794,0,0,0,5.835,2.1,13.076,13.076,0,0,0,1.637.1,10.533,10.533,0,0,0,6.9-2.382A8.675,8.675,0,0,0,26.557,13.3a15.4,15.4,0,0,0-1.489-6.247,12.158,12.158,0,0,0-4.411-5.543A8.751,8.751,0,0,0,15.893.149a10.836,10.836,0,0,0-4.471.978l.089.179.1-.169A8.746,8.746,0,0,0,7.13,0,16.555,16.555,0,0,0,.1,1.816a.2.2,0,0,0,0,.347L.2,1.99Z" transform="translate(10.582 22.537)" fill="#3d342d"/><path d="M0,0A10.558,10.558,0,0,1,3.89,5.647" transform="translate(22.15 24.268)" fill="#e37f6e"/><path d="M.1.37h0A10.479,10.479,0,0,1,3.9,5.912a.2.2,0,1,0,.377-.129A10.744,10.744,0,0,0,.3.027.2.2,0,0,0,.027.1.2.2,0,0,0,.1.37h0Z" transform="translate(21.944 24.066)" fill="#3d342d"/><path d="M9.342,5.652l5.066,1.414a.206.206,0,0,1,0,.4L9.451,8.927a.208.208,0,0,0-.139.134L7.57,14.578a.206.206,0,0,1-.392,0L5.337,9.11a.206.206,0,0,0-.144-.134L.152,7.641a.208.208,0,0,1-.01-.4L5.183,5.7a.2.2,0,0,0,.134-.134L6.98.144a.207.207,0,0,1,.392,0L9.193,5.513a.208.208,0,0,0,.139.134Z" transform="translate(27.533 0.199)" fill="#fffef4"/><path d="M9.522,5.85l-.055.194,5.066,1.414h0v.01h0L9.577,8.932A.42.42,0,0,0,9.3,9.2L7.562,14.717h-.01v0L5.711,9.244a.41.41,0,0,0-.278-.263L.392,7.647h0v-.01h0L5.433,6.089A.4.4,0,0,0,5.7,5.821L7.364.4h.01v0L9.195,5.781a.406.406,0,0,0,.273.258l.055-.194.055-.194h0L7.756.273A.4.4,0,0,0,7.374,0a.4.4,0,0,0-.387.288L5.324,5.706h0L.283,7.26a.4.4,0,0,0-.213.154A.4.4,0,0,0,0,7.647a.422.422,0,0,0,.074.238A.406.406,0,0,0,.3,8.039L5.339,9.373h0l1.841,5.468a.4.4,0,0,0,.382.273.409.409,0,0,0,.387-.283L9.7,9.314h0l4.957-1.469a.411.411,0,0,0,.218-.154.4.4,0,0,0-.223-.62L9.582,5.657l-.055.194Z" transform="translate(27.353 0)" fill="#3d342d"/><path d="M2.342,4.952a16.811,16.811,0,0,1-1.8.02c-.069-.4-.1-.6-.169-.992H.65c-.079-.471-.124-.71-.2-1.186-.109.01-.164.01-.278.02-.069-.4-.1-.6-.169-.992l.273-.035L.258,1.712a1.891,1.891,0,0,1,0-.824,1.086,1.086,0,0,1,.3-.516A1.483,1.483,0,0,1,1.3.074C1.459.045,1.618.02,1.771,0c.065.377.1.566.164.948a2.222,2.222,0,0,0-.283.02.391.391,0,0,0-.228.1.329.329,0,0,0-.084.194,1.725,1.725,0,0,0,.04.387l.417-.06c.074.422.109.635.184,1.057-.169.02-.253.03-.422.045.084.5.129.739.213,1.236.149-.01.223-.015.372-.03.074.422.109.635.184,1.057Z" transform="translate(22.433 30.889)" fill="#f7eee5"/><path d="M2.486,5.121l-.01-.149c-.427.025-.719.035-1.037.035-.223,0-.456,0-.749-.015v.149l.144-.025c-.069-.4-.1-.6-.169-.992l-.149.025V4.3H.973l-.03-.174c-.079-.471-.124-.71-.2-1.186L.715,2.8l-.134.01c-.109.01-.164.01-.273.02l.01.149.149-.025c-.069-.4-.1-.6-.169-.992L.149,1.99l.015.149L.437,2.1l.154-.02-.04-.228a2.666,2.666,0,0,1-.04-.417A1.146,1.146,0,0,1,.556,1.1,1,1,0,0,1,.814.645,1.315,1.315,0,0,1,1.479.387c.159-.03.313-.055.466-.074L1.925.164,1.776.189c.065.377.1.566.164.948l.149-.025V.963a1.884,1.884,0,0,0-.308.025.554.554,0,0,0-.313.144.457.457,0,0,0-.124.283v.055a2.06,2.06,0,0,0,.04.372l.025.144.144-.02c.169-.025.253-.035.417-.06l-.02-.149L1.8,1.781c.074.422.109.635.184,1.057l.149-.025-.015-.149c-.169.02-.253.03-.417.045l-.159.015.025.159c.084.5.129.739.213,1.236l.025.134.134-.01c.149-.01.228-.015.377-.03l-.01-.149-.149.025c.074.422.109.635.184,1.057l.149-.025-.01-.149.01.149L2.64,5.1c-.074-.422-.109-.635-.184-1.057l-.025-.134-.134.01c-.149.01-.223.02-.372.03l.01.149.149-.025c-.084-.5-.129-.739-.213-1.236l-.149.025.015.149c.169-.02.253-.03.422-.045l.159-.02-.025-.154c-.074-.422-.109-.635-.184-1.057l-.025-.144-.144.02-.417.06.02.149.149-.025a2.222,2.222,0,0,1-.035-.323v-.03a.157.157,0,0,1,.045-.1.219.219,0,0,1,.144-.055,1.838,1.838,0,0,1,.263-.02h.174l-.03-.174C2.188.71,2.154.521,2.089.139L2.064,0,1.925.02C1.766.04,1.6.065,1.444.094A1.612,1.612,0,0,0,.63.432a1.277,1.277,0,0,0-.337.586,1.646,1.646,0,0,0-.055.427,2.684,2.684,0,0,0,.045.466L.3,1.985.447,1.96l-.02-.149-.273.035L0,1.866l.025.154c.069.4.1.6.169.992l.025.134.134-.01c.109-.01.169-.01.278-.02L.62,2.967l-.149.025c.079.471.124.71.2,1.186l.149-.025V4H.367l.03.174c.069.4.1.6.169.992l.02.119H.7c.293.015.531.02.759.02.323,0,.63-.01,1.057-.035l.169-.01L2.66,5.1l-.149.025Z" transform="translate(22.288 30.718)" fill="#020202"/><path d="M.452,1.583c-.1.015-.159.02-.263.035C.114,1.191.074.978,0,.551.556.466.834.422,1.389.327c.119.66.184.987.3,1.647a2.039,2.039,0,0,0,.154.551.213.213,0,0,0,.233.114.494.494,0,0,0,.327-.218c-.084-.447-.124-.665-.208-1.111l-.3.05C1.821.923,1.781.7,1.7.268,2.268.169,2.55.114,3.116,0c.184.953.278,1.429.461,2.377.1-.025.159-.035.263-.06.084.437.129.655.213,1.087-.561.134-.844.189-1.414.283-.035-.179-.05-.263-.084-.442a1.192,1.192,0,0,1-.844.64.762.762,0,0,1-.65-.273A2.451,2.451,0,0,1,.59,2.377c-.06-.323-.084-.486-.144-.809Z" transform="translate(24.394 31.882)" fill="#f7eee5"/><path d="M.63,1.737.61,1.588c-.1.015-.159.02-.263.035l.02.149.149-.025C.442,1.32.4,1.107.327.68L.179.7.2.853C.754.769,1.037.724,1.593.63L1.568.481,1.424.506c.119.66.184.987.3,1.647a2.224,2.224,0,0,0,.169.6.443.443,0,0,0,.129.144.362.362,0,0,0,.189.055h.069A.64.64,0,0,0,2.7,2.66l.035-.05-.01-.06c-.084-.447-.124-.665-.208-1.111L2.5,1.3l-.144.025-.3.05.025.149.144-.025C2.144,1.057,2.1.839,2.02.4L1.876.427,1.9.576c.571-.1.858-.154,1.424-.268L3.295.164l-.144.03c.184.953.278,1.429.461,2.377l.03.149.149-.03c.1-.025.159-.035.263-.06l-.035-.144-.144.03c.084.437.129.655.213,1.087l.144-.03L4.2,3.429c-.561.129-.839.189-1.4.283l.025.149.144-.03c-.035-.179-.05-.263-.084-.442l-.069-.377-.2.327a1.051,1.051,0,0,1-.734.571h-.06a.649.649,0,0,1-.466-.228A2.321,2.321,0,0,1,.913,2.526C.853,2.2.829,2.039.769,1.717L.744,1.578.605,1.6l.02.149-.149.025c.06.323.084.486.144.809a2.526,2.526,0,0,0,.511,1.31.948.948,0,0,0,.68.323h.094A1.36,1.36,0,0,0,2.858,3.5l-.124-.079-.144.03c.035.179.05.263.084.442l.025.144.144-.025c.571-.094.858-.154,1.424-.283l.139-.035-.03-.139c-.084-.437-.129-.655-.213-1.087l-.03-.149-.149.035c-.1.025-.159.035-.263.06l.03.144.144-.03C3.712,1.573,3.617,1.1,3.434.149L3.4,0,3.255.03C2.689.144,2.407.2,1.836.3L1.687.323l.03.149c.079.437.119.655.2,1.092l.025.144.144-.025c.119-.02.184-.03.3-.055l-.025-.149-.144.03c.084.447.124.665.208,1.111l.144-.03-.124-.084a.337.337,0,0,1-.228.159H2.2l-.03,0-.03-.035A1.994,1.994,0,0,1,2,2.119c-.119-.66-.184-.987-.3-1.647L1.677.328,1.533.352C.978.447.7.491.149.576L0,.6.025.749c.074.427.114.64.189,1.067l.025.139L.377,1.94c.1-.015.159-.02.268-.035l-.02-.149-.149.025.149-.025Z" transform="translate(24.214 31.726)" fill="#020202"/><path d="M2.387,3.559a17.782,17.782,0,0,1-1.707.5C.6,3.629.551,3.411.466,2.974c.114-.025.169-.04.278-.069C.64,2.393.59,2.14.491,1.629l-.278.065C.129,1.262.084,1.044,0,.607.561.488.839.428,1.389.3c.035.169.055.253.089.427a1.237,1.237,0,0,1,.774-.7A.676.676,0,0,1,2.937.21a2.108,2.108,0,0,1,.427,1.022c.069.323.1.486.169.814.1-.035.149-.055.243-.094.084.392.124.59.2.982-.516.228-.779.332-1.315.521-.124-.586-.184-.878-.308-1.464a2.437,2.437,0,0,0-.184-.62.2.2,0,0,0-.248-.089.5.5,0,0,0-.278.263c.089.422.129.635.218,1.057.124-.035.184-.055.308-.094.084.417.129.63.218,1.047Z" transform="translate(27.98 31.176)" fill="#f7eee5"/><path d="M2.57,3.712l-.05-.139c-.67.228-1,.328-1.692.5l.035.144.144-.03C.923,3.756.878,3.538.794,3.1l-.144.03.035.144c.114-.025.169-.04.283-.069l.139-.035-.03-.139c-.1-.511-.154-.764-.253-1.275l-.03-.149-.149.035-.278.065L.4,1.851l.144-.03C.461,1.389.417,1.171.332.734L.189.764l.03.144C.779.789,1.057.729,1.613.6L1.578.457l-.144.03c.035.169.055.253.089.427l.084.407L1.8.948a1.085,1.085,0,0,1,.675-.62.679.679,0,0,1,.169-.02.494.494,0,0,1,.372.164,1.979,1.979,0,0,1,.387.948c.069.323.1.486.169.814l.035.169.164-.06c.1-.035.149-.055.243-.094L3.96,2.109l-.144.03c.084.392.124.59.2.982l.144-.03L4.1,2.957c-.516.223-.769.327-1.3.516l.05.139.144-.03C2.868,3,2.808,2.7,2.684,2.119c-.035-.164-.065-.3-.1-.407a1.2,1.2,0,0,0-.1-.258.337.337,0,0,0-.3-.169.451.451,0,0,0-.114.015.666.666,0,0,0-.367.327l-.03.05.01.055c.089.422.129.635.218,1.057l.035.159L2.089,2.9c.124-.035.189-.055.308-.094l-.045-.144-.144.03c.084.417.129.63.218,1.047l.144-.03-.05-.139.05.139.144-.03c-.084-.417-.129-.63-.218-1.047l-.035-.159-.159.05c-.124.04-.184.055-.308.094l.045.144.144-.03c-.089-.422-.129-.635-.218-1.057l-.144.03.129.074c.079-.134.154-.184.194-.194h.035s.05.025.05.025A.7.7,0,0,1,2.3,1.8c.03.1.06.228.094.382.124.586.184.878.308,1.464l.035.169.159-.06c.536-.194.809-.3,1.325-.526l.109-.05L4.3,3.057c-.084-.392-.124-.59-.2-.982l-.035-.169L3.9,1.97c-.1.035-.144.055-.243.089l.05.139.144-.03c-.069-.323-.1-.486-.169-.814a2.263,2.263,0,0,0-.466-1.1A.809.809,0,0,0,2.63,0a.979.979,0,0,0-.238.03A1.372,1.372,0,0,0,1.523.8l.134.069L1.8.844C1.766.675,1.747.59,1.712.417L1.682.268,1.533.3C.978.432.7.491.144.61L0,.64.03.784c.084.432.129.65.213,1.087l.03.149.149-.035C.536,1.96.59,1.945.7,1.92L.665,1.776l-.144.03c.1.511.154.764.253,1.275l.144-.03L.883,2.908c-.109.03-.169.04-.278.069l-.139.035.03.139c.084.432.129.65.213,1.087l.03.154.154-.04c.695-.174,1.047-.278,1.717-.506L2.734,3.8l-.025-.129-.144.03Z" transform="translate(27.794 31.022)" fill="#020202"/><path d="M2.218,3.265l.164.958a.524.524,0,0,1-.3.074,1.1,1.1,0,0,1-.417-.084,1.432,1.432,0,0,1-.461-.3,1.958,1.958,0,0,1-.337-.432,2.452,2.452,0,0,1-.114-.233C.729,3.181.7,3.106.68,3.032.645,2.9.6,2.65.526,2.287.491,2.1.471,2,.437,1.816c-.109-.04-.164-.06-.273-.1C.1,1.365.065,1.191,0,.848.109.883.164.9.273.933.243.759.223.675.194.5a6.254,6.254,0,0,0,1-.5c.084.486.129.729.213,1.216.184.04.278.055.466.084.069.392.1.586.169.978-.189-.04-.283-.06-.466-.109.04.233.06.352.1.59a1.781,1.781,0,0,0,.1.4.281.281,0,0,0,.174.144.4.4,0,0,0,.258-.025Z" transform="translate(21.262 36.634)" fill="#f7eee5"/><path d="M2.407,3.523l-.149.025.164.958.149-.025-.089-.119a.38.38,0,0,1-.213.045h-.01a.9.9,0,0,1-.352-.074,1.27,1.27,0,0,1-.412-.273,1.747,1.747,0,0,1-.308-.4l-.129.069.129-.069c-.045-.084-.079-.159-.1-.218a1.162,1.162,0,0,1-.064-.2C.982,3.126.933,2.873.868,2.511.834,2.322.814,2.228.779,2.039L.764,1.955l-.079-.03c-.109-.04-.164-.06-.268-.1L.362,1.96l.144-.03c-.065-.347-.1-.521-.164-.863L.2,1.1.154,1.24c.109.035.169.055.278.084l.233.069L.62,1.156C.59.982.571.9.541.724L.4.749.452.888A5.917,5.917,0,0,0,1.469.377L1.394.248,1.245.273c.084.486.129.729.213,1.216l.02.1.1.02c.184.04.283.055.471.084l.025-.149-.149.025c.069.392.1.586.169.978l.149-.025.03-.144c-.189-.04-.278-.06-.461-.109l-.223-.055.04.228c.04.233.06.352.1.59a1.656,1.656,0,0,0,.119.437.414.414,0,0,0,.263.218.389.389,0,0,0,.129.02.6.6,0,0,0,.223-.045l-.055-.139-.149.025.149-.025-.055-.139a.259.259,0,0,1-.109.025H2.2a.156.156,0,0,1-.084-.074,1.546,1.546,0,0,1-.094-.357c-.04-.233-.06-.352-.1-.59l-.149.025-.035.144c.189.05.283.069.471.109l.213.045-.04-.218c-.069-.392-.1-.586-.169-.978l-.02-.1-.1-.015c-.184-.03-.273-.045-.461-.084l-.03.144.149-.025C1.657.943,1.613.7,1.528.213L1.494,0,1.31.109A6.213,6.213,0,0,1,.332.6L.218.645l.02.119c.03.174.05.258.079.432l.144-.025.045-.144C.4.992.342.978.238.943L0,.863l.045.248c.065.347.1.521.164.863l.015.079.074.03c.109.045.169.064.278.1l.05-.139-.144.025c.035.189.055.283.089.471.069.367.119.615.154.759A1.426,1.426,0,0,0,.8,3.538a2.7,2.7,0,0,0,.119.248h0a1.906,1.906,0,0,0,.362.466,1.628,1.628,0,0,0,.506.332,1.262,1.262,0,0,0,.466.094h.01a.646.646,0,0,0,.387-.1l.074-.055-.015-.089c-.065-.382-.1-.576-.164-.958l-.03-.184-.169.069.055.139Z" transform="translate(21.074 36.376)" fill="#020202"/><path d="M.943.989C.561.9.372.845,0,.731a.756.756,0,0,1,.377-.6A2.078,2.078,0,0,1,1.33,0a3.776,3.776,0,0,1,.437.03A2.239,2.239,0,0,1,2.119.1,1.077,1.077,0,0,1,2.63.349a1.251,1.251,0,0,1,.283.392,3.074,3.074,0,0,1,.189.69c.069.4.109.6.179.992l.3-.015c.079.437.119.65.2,1.087A8.625,8.625,0,0,1,2.258,3.47c-.015-.089-.025-.139-.04-.228a.845.845,0,0,1-.789.184A1.274,1.274,0,0,1,.64,2.974a1.592,1.592,0,0,1-.367-.759.688.688,0,0,1,.179-.67.925.925,0,0,1,.739-.189,1.686,1.686,0,0,1,.739.218.7.7,0,0,0-.02-.1A2.16,2.16,0,0,0,1.8,1.039.545.545,0,0,0,1.618.81a.564.564,0,0,0-.288-.1A.357.357,0,0,0,.948.989ZM2.109,2.611C2.064,2.363,2.044,2.244,2,2a.658.658,0,0,0-.362-.144.223.223,0,0,0-.228.1.442.442,0,0,0-.04.313.684.684,0,0,0,.154.337.372.372,0,0,0,.248.154A.328.328,0,0,0,2.1,2.611Z" transform="translate(23.553 38.002)" fill="#f7eee5"/><path d="M1.092,1.136,1.126.992C.749.9.566.853.189.739L.144.883.293.908A.6.6,0,0,1,.59.422,1.719,1.719,0,0,1,1.335.3h.134c.159,0,.3.015.427.025a2.525,2.525,0,0,1,.332.06.939.939,0,0,1,.447.218,1.268,1.268,0,0,1,.253.347,2.85,2.85,0,0,1,.174.655c.069.4.109.6.179.992l.025.129h.129c.119-.01.184-.015.3-.02l-.01-.149-.144.025c.079.437.119.65.2,1.087l.144-.025L3.915,3.5c-.253.015-.452.02-.645.02-.258,0-.5-.015-.853-.045L2.4,3.622,2.55,3.6c-.015-.089-.025-.139-.04-.228l-.05-.283-.2.2a.582.582,0,0,1-.447.159,1.138,1.138,0,0,1-.213-.02,1.129,1.129,0,0,1-.7-.4,1.422,1.422,0,0,1-.332-.685,1.06,1.06,0,0,1-.015-.169A.468.468,0,0,1,.7,1.8a.658.658,0,0,1,.481-.154c.045,0,.094,0,.144,0A1.531,1.531,0,0,1,2,1.846l.283.174-.055-.327a.7.7,0,0,0-.02-.1,3.124,3.124,0,0,0-.114-.471h0A.738.738,0,0,0,1.861.829.672.672,0,0,0,1.494.7H1.459a.476.476,0,0,0-.313.1.554.554,0,0,0-.184.283l.139.045L1.136.987,1.1,1.131l.139.045a.276.276,0,0,1,.089-.144.182.182,0,0,1,.129-.04h.02a.379.379,0,0,1,.208.074.445.445,0,0,1,.139.169h0a2.241,2.241,0,0,1,.1.407.7.7,0,0,0,.02.1l.149-.025.079-.129a1.822,1.822,0,0,0-.8-.238c-.06,0-.114-.01-.169-.01a.989.989,0,0,0-.685.233.79.79,0,0,0-.243.586,1.117,1.117,0,0,0,.02.218,1.725,1.725,0,0,0,.4.829,1.42,1.42,0,0,0,.878.5,1.622,1.622,0,0,0,.263.025.9.9,0,0,0,.655-.248l-.1-.1L2.238,3.4c.015.089.025.139.04.228l.02.114.114.01c.352.03.605.045.878.045.2,0,.4-.01.66-.02l.169-.01-.03-.164c-.079-.437-.119-.65-.2-1.087l-.025-.129-.134.01c-.119.01-.174.01-.293.015v.149l.154-.025c-.069-.4-.109-.6-.179-.992a3.146,3.146,0,0,0-.2-.729A1.474,1.474,0,0,0,2.9.382,1.211,1.211,0,0,0,2.322.094,2.633,2.633,0,0,0,1.95.03C1.816.015,1.662,0,1.5,0H1.355A1.92,1.92,0,0,0,.471.154a.909.909,0,0,0-.452.7L0,.987l.124.04c.377.114.571.169.953.258l.134.03.045-.129-.139-.045ZM2.258,2.759l.149-.025c-.045-.248-.065-.367-.109-.615l-.01-.06-.05-.035A.848.848,0,0,0,1.8,1.851h-.04a.381.381,0,0,0-.327.169.509.509,0,0,0-.069.273.49.49,0,0,0,.015.144.866.866,0,0,0,.184.412.546.546,0,0,0,.347.208H1.98a.459.459,0,0,0,.407-.213l.03-.05-.01-.06-.149.025-.124-.079a.157.157,0,0,1-.154.079H1.94c-.03,0-.084-.03-.149-.1a.535.535,0,0,1-.119-.268l-.01-.094a.216.216,0,0,1,.025-.114c.02-.025.02-.03.074-.03h.02a.61.61,0,0,1,.283.119l.089-.119L2,2.173c.045.248.065.367.109.615l.149-.025-.124-.079.124.079Z" transform="translate(23.403 37.855)" fill="#020202"/><path d="M1.31,3.87c-.3.05-.447.069-.744.1-.079-.442-.124-.66-.2-1.1.278-.03.417-.05.69-.094a.718.718,0,0,0,.66.313c.208-.045.3-.139.278-.268a.186.186,0,0,0-.1-.139A2.356,2.356,0,0,0,1.483,2.6c-.174-.03-.372-.079-.586-.134a1.251,1.251,0,0,1-.461-.223,1.049,1.049,0,0,1-.268-.3,1.418,1.418,0,0,1-.134-.417A1.121,1.121,0,0,1,.149.64.933.933,0,0,1,.769.263a1.1,1.1,0,0,1,.744.1C1.5.293,1.493.253,1.478.184c.283-.065.422-.1.7-.184l.2,1c-.258.079-.387.114-.65.179A.725.725,0,0,0,1.071.948c-.179.035-.253.124-.228.268a.145.145,0,0,0,.1.124,4.687,4.687,0,0,0,.476.064,4.544,4.544,0,0,1,.724.114.844.844,0,0,1,.427.263A1.1,1.1,0,0,1,2.8,2.3a1.322,1.322,0,0,1-.109.973,1.017,1.017,0,0,1-.655.476,1.059,1.059,0,0,1-.774-.089c.015.084.025.129.04.213Z" transform="translate(27.121 37.537)" fill="#f7eee5"/><path d="M1.429,4.074,1.4,3.925c-.293.05-.437.069-.734.1l.015.149.144-.025c-.079-.442-.124-.66-.2-1.1l-.144.025L.5,3.22c.278-.03.422-.05.7-.094l-.025-.149-.109.1a.967.967,0,0,0,.675.372.383.383,0,0,0,.129-.015.654.654,0,0,0,.273-.119.338.338,0,0,0,.124-.253V2.992a.367.367,0,0,0-.184-.243A.77.77,0,0,0,1.9,2.7q-.1-.022-.268-.045c-.164-.03-.362-.074-.576-.134a1.013,1.013,0,0,1-.4-.194.932.932,0,0,1-.228-.258A1.31,1.31,0,0,1,.308,1.7a1.94,1.94,0,0,1-.03-.318A.748.748,0,0,1,.4.933.787.787,0,0,1,.923.615,1.2,1.2,0,0,1,1.146.6a.877.877,0,0,1,.427.1l.278.149L1.791.541C1.776.471,1.771.432,1.757.362l-.144.03.035.144c.283-.065.432-.1.71-.184L2.317.208l-.144.03c.079.4.119.6.2,1l.144-.03-.045-.144c-.258.074-.382.109-.645.174l.035.144.1-.109A.916.916,0,0,0,1.33.987.808.808,0,0,0,1.176,1a.5.5,0,0,0-.248.114.316.316,0,0,0-.1.248l.01.084A.361.361,0,0,0,.9,1.6a.271.271,0,0,0,.144.084c.065.015.223.04.5.069a4.538,4.538,0,0,1,.7.109.7.7,0,0,1,.352.213.982.982,0,0,1,.194.452,1.913,1.913,0,0,1,.04.352.94.94,0,0,1-.129.511.871.871,0,0,1-.566.412,1.125,1.125,0,0,1-.248.03.866.866,0,0,1-.417-.1L1.2,3.583l.06.308c.015.084.025.129.04.213l.144-.03-.025-.149.025.149.144-.03c-.015-.084-.025-.129-.04-.213L1.4,3.86l-.069.129a1.107,1.107,0,0,0,.561.139,1.427,1.427,0,0,0,.318-.04,1.171,1.171,0,0,0,.749-.546,1.237,1.237,0,0,0,.174-.67,2.047,2.047,0,0,0-.045-.412,1.272,1.272,0,0,0-.258-.586,1.01,1.01,0,0,0-.5-.308,4.48,4.48,0,0,0-.749-.119c-.263-.025-.427-.055-.456-.06v0h0v0l0,.02.02-.01h-.01s-.01.01-.01.01l.02-.01V1.384l0-.03.01-.03a.193.193,0,0,1,.1-.04l.094-.01a.619.619,0,0,1,.427.2l.06.055.079-.02c.263-.065.4-.1.66-.179l.129-.04L2.67,1.161l-.2-1L2.441,0,2.287.045c-.278.079-.412.114-.695.179L1.454.258,1.484.4c.015.069.02.109.035.179l.144-.03L1.732.417A1.179,1.179,0,0,0,1.166.278,1.8,1.8,0,0,0,.888.3,1.074,1.074,0,0,0,.174.739,1.06,1.06,0,0,0,0,1.36a2.472,2.472,0,0,0,.035.372,1.681,1.681,0,0,0,.149.461,1.219,1.219,0,0,0,.3.347A1.284,1.284,0,0,0,1,2.789c.213.055.417.1.6.139.1.02.194.035.258.045A.733.733,0,0,1,1.97,3l.015.03v.015l-.015.025a.458.458,0,0,1-.149.06H1.757c-.119.01-.273-.069-.452-.268L1.25,2.8l-.079.015c-.273.045-.407.065-.685.094l-.159.015.03.159c.079.442.124.66.2,1.1l.025.134L.719,4.3c.3-.03.457-.05.754-.1l.149-.025-.03-.149-.144.03Z" transform="translate(26.999 37.334)" fill="#020202"/><path d="M2.253,3.181c.084.4.124.6.208,1a1.634,1.634,0,0,1-.258.372,1.408,1.408,0,0,1-.382.308.665.665,0,0,1-.452.079.644.644,0,0,1-.352-.233,1.606,1.606,0,0,1-.124-.2,1.486,1.486,0,0,1-.084-.228C.764,4.128.7,3.831.61,3.389L.5,2.818l-.278.1C.134,2.486.089,2.273,0,1.841l.278-.089c-.045-.208-.065-.313-.1-.521C.556.744.739.5,1.107,0c.109.531.164.794.273,1.325.174-.074.263-.114.432-.2.084.412.129.615.213,1.027-.169.089-.258.129-.432.213.055.258.079.387.134.64a1.416,1.416,0,0,0,.124.4c.04.06.094.069.169.03A.726.726,0,0,0,2.248,3.2Z" transform="translate(29.67 35.572)" fill="#f7eee5"/><path d="M2.4,3.558l-.144.03c.084.4.124.6.208,1l.144-.03L2.476,4.5a1.282,1.282,0,0,1-.233.332,1.162,1.162,0,0,1-.342.273.547.547,0,0,1-.263.074l-.084-.01a.444.444,0,0,1-.263-.179l-.119.089L1.29,5a.934.934,0,0,1-.109-.184,1.182,1.182,0,0,1-.074-.2c-.04-.139-.1-.437-.194-.878C.868,3.5.844,3.389.8,3.161L.764,2.992.6,3.052c-.109.04-.164.06-.273.094l.05.139.144-.03C.437,2.823.392,2.61.3,2.178l-.144.03L.2,2.352c.114-.035.169-.055.283-.094L.61,2.213.586,2.084c-.045-.208-.065-.313-.1-.521l-.144.03.119.094C.839,1.2,1.027.953,1.394.456L1.275.367,1.131.4c.109.531.164.794.273,1.325l.04.179.169-.074c.174-.074.268-.119.437-.2l-.065-.134-.144.03c.084.412.129.615.213,1.027l.144-.03-.069-.134c-.169.089-.253.129-.427.213l-.1.05.025.114c.055.258.079.387.134.64.025.109.045.2.069.273a.666.666,0,0,0,.079.179.25.25,0,0,0,.213.119.368.368,0,0,0,.149-.04.921.921,0,0,0,.283-.288l-.124-.084-.144.03.144-.03L2.3,3.478a.57.57,0,0,1-.174.194H2.114v0h0v.055l.03-.045-.03-.01v.055l.03-.045-.02.035.03-.03h-.01s-.02.03-.02.03l.03-.03h0a.529.529,0,0,1-.04-.109,2.183,2.183,0,0,1-.06-.243C2,3.081,1.975,2.952,1.92,2.7l-.144.03.065.134c.174-.084.263-.129.437-.218l.1-.05-.025-.109c-.084-.412-.129-.615-.213-1.027L2.1,1.275l-.169.079c-.174.079-.253.119-.427.194l.06.134.144-.03L1.434.327,1.365,0l-.2.268C.8.764.615,1.007.233,1.494l-.045.055L.2,1.618c.045.208.065.313.1.521l.144-.03L.4,1.97c-.109.04-.164.055-.273.089L0,2.1l.025.129c.084.432.129.645.218,1.077l.035.164.159-.055.283-.1L.67,3.176l-.144.03.114.571c.089.442.154.739.2.9a1.3,1.3,0,0,0,.094.248,1.279,1.279,0,0,0,.139.228h0a.737.737,0,0,0,.437.293.757.757,0,0,0,.149.015.874.874,0,0,0,.4-.109,1.745,1.745,0,0,0,.427-.337A1.594,1.594,0,0,0,2.769,4.6l.02-.045-.01-.05c-.084-.4-.124-.6-.208-1L2.5,3.161l-.2.3.124.084Z" transform="translate(29.519 35.195)" fill="#020202"/><path d="M2.243,5.265a8.261,8.261,0,0,1-.789.719c-.079-.387-.119-.576-.2-.963.129-.1.194-.149.318-.248.01-.159.015-.238.025-.392C1.121,3.7.873,3.33.367,2.555c-.06.035-.094.05-.154.084C.129,2.233.084,2.029,0,1.623A11.121,11.121,0,0,0,1.34.858c.079.377.119.571.194.948-.079.06-.124.089-.208.144.233.387.342.576.566.943.02-.566.03-.849.05-1.4-.069.055-.1.084-.174.134-.074-.372-.114-.561-.189-.933A11.582,11.582,0,0,0,2.506,0c.065.347.1.521.164.863-.065.065-.1.094-.169.154-.124,1.618-.169,2.471-.258,4.238Z" transform="translate(31.639 34.962)" fill="#f7eee5"/><path d="M2.421,5.528l-.1-.1a8.045,8.045,0,0,1-.779.71l.094.114.144-.03c-.079-.387-.119-.576-.2-.963l-.144.03.089.119c.129-.1.194-.149.323-.253l.05-.04V5.046c.015-.159.02-.238.03-.392V4.6L1.9,4.555C1.424,3.875,1.176,3.508.67,2.734L.6,2.615l-.119.069c-.06.035-.089.05-.154.084L.392,2.9l.144-.03C.452,2.461.407,2.258.323,1.851l-.144.03.065.134A12.075,12.075,0,0,0,1.6,1.245l-.079-.124-.144.03c.079.377.119.571.194.948l.144-.03L1.623,1.95c-.079.06-.119.084-.2.144l-.114.079.069.119c.233.387.347.581.566.943l.258.427.015-.5c.02-.566.03-.849.05-1.4l.015-.323-.253.2-.174.134L1.94,1.9l.144-.03C2.01,1.494,1.97,1.305,1.9.933l-.144.03.084.124a10.059,10.059,0,0,0,.938-.7L2.679.268,2.536.3c.065.347.1.521.164.863l.144-.03-.1-.109c-.065.065-.1.094-.164.154l-.045.04v.06c-.124,1.618-.174,2.476-.263,4.242l.149.01-.1-.1.1.1.149.01c.094-1.766.139-2.62.258-4.233L2.675,1.3l.1.109c.069-.06.1-.094.169-.159L3,1.191l-.015-.079C2.923.764,2.888.59,2.823.248L2.774,0,2.58.159a10.545,10.545,0,0,1-.918.69L1.583.9,1.6,1c.074.372.114.561.189.933l.05.233.189-.144.179-.139-.094-.114H1.965c-.02.546-.03.829-.05,1.394h.149l.129-.074c-.223-.362-.332-.551-.566-.943L1.5,2.223l.084.124c.084-.06.129-.089.208-.149l.079-.055-.02-.094c-.079-.377-.119-.571-.194-.948L1.613.888l-.184.119A10.87,10.87,0,0,1,.1,1.762l-.1.05.025.114c.084.407.129.61.213,1.017l.04.194.174-.094c.065-.035.094-.05.159-.089L.536,2.823.412,2.9c.506.774.754,1.146,1.231,1.831l.124-.084-.149-.01c-.01.159-.015.233-.025.392l.149.01-.094-.114c-.124.1-.184.149-.313.243l-.074.055.02.094c.079.387.119.576.2.963l.05.238.189-.154a7.957,7.957,0,0,0,.8-.729l.04-.04V5.543l-.144-.01Z" transform="translate(31.458 34.699)" fill="#020202"/></svg>