<svg xmlns="http://www.w3.org/2000/svg" width="201.334" height="48.494" viewBox="0 0 201.334 48.494"><g transform="matrix(1, 0.017, -0.017, 1, 0.785, 0)"><path d="M199.956,22.351c-.872-3.677,1.638-15.3-4.29-15.876-10.431-.578-21.427-9.393-30.939-3.418-3.229-5.822-12.246-1.3-17.844-2.593-3.076-.66-6.152,1.131-9.429,1.12-3.064.5-7.142-1.108-8.958,2.275C123.546,2.2,113.221,2.7,109.709,6.653c-4.738-1.332-15.275-.589-18.469,3.253C86.5,8.621,76.248,9.151,72.865,12.781c-4.7-1.391-14.568-1.45-18.257,1.78-4.844-1.65-13.754-2.664-18.08,0-5.151-2.216-12.552-4.149-17.844-2.546C15.525,9.658,4.871,5.262,1.594,7.584c-3.948,3.819.813,9.759-.236,14.673C2.2,27.478-3.6,37.284,5,37.7c3.595.177,8.227,4.337,11.633,1.249,16.418,11.126,59.791,2.133,80.04-.849,15.3-4.031,32.8-3.241,47.31-8.769,2.381,3.465,6.695.849,10.006,1.179,3.453-.566,7.413,1.909,10.171-.86,4.255,3.807,11.657,3.724,15.44-.684-.719,5.492,5.669,5.044,9.193,6.2,6.058,3.041,8.922-2.852,6.836-8.062a4.586,4.586,0,0,0,4.314-4.773Z" transform="translate(0.316 0.302)" fill="#f05f7c"/><path d="M200.272,22.653l.306-.071a13.549,13.549,0,0,1-.2-2.864c0-1.084.035-2.31.035-3.559a21.374,21.374,0,0,0-.684-6.282,5.585,5.585,0,0,0-1.32-2.31,3.818,3.818,0,0,0-2.393-1.1h0c-3.842-.212-7.8-1.568-11.763-2.888S176.334.99,172.48.99a13.853,13.853,0,0,0-7.59,2.122l.165.271.271-.153A5.726,5.726,0,0,0,162.474.648,10.1,10.1,0,0,0,158.643,0c-2.923,0-6.188.719-8.969.719a11.2,11.2,0,0,1-2.416-.236h0A7.365,7.365,0,0,0,145.749.33c-2.7,0-5.292,1.273-7.944,1.273h-.082a8.972,8.972,0,0,1-1.52.106c-.86,0-1.78-.071-2.687-.071a7.617,7.617,0,0,0-2.793.413,4.16,4.16,0,0,0-2.192,1.98l.283.153.106-.295a22.234,22.234,0,0,0-6.706-.908,27.648,27.648,0,0,0-7.084.884,11.106,11.106,0,0,0-5.339,2.9l.236.212.083-.306a21.293,21.293,0,0,0-5.54-.625,30.52,30.52,0,0,0-7.6.931,11.043,11.043,0,0,0-5.657,3.041l.248.2.083-.306a23.31,23.31,0,0,0-5.881-.648,30.624,30.624,0,0,0-7.284.837,11.307,11.307,0,0,0-5.516,2.782l.236.212.094-.306a28.086,28.086,0,0,0-7.555-.919c-4.231,0-8.663.743-11,2.758l.212.236.106-.295a34.759,34.759,0,0,0-10.478-1.65c-3.005,0-5.87.46-7.873,1.685l.165.271L37,14.58a36.622,36.622,0,0,0-13.542-3.159,15.539,15.539,0,0,0-4.514.6l.094.306.189-.248a30.315,30.315,0,0,0-6.53-3.3A24.829,24.829,0,0,0,4.656,6.919a4.962,4.962,0,0,0-2.888.719H1.744a.119.119,0,0,1-.012.035A5.382,5.382,0,0,0,0,11.857a20.047,20.047,0,0,0,.766,4.585A19.363,19.363,0,0,1,1.509,21a7.013,7.013,0,0,1-.153,1.5v.059c-.012,0,0,.059,0,.059a6.9,6.9,0,0,1,.083,1.131,26.963,26.963,0,0,1-.613,4.632A27.412,27.412,0,0,0,.212,33.19a5.344,5.344,0,0,0,1.049,3.536,5.336,5.336,0,0,0,4.043,1.6,14.245,14.245,0,0,1,4.149,1.226,12.987,12.987,0,0,0,4.526,1.167,4.59,4.59,0,0,0,3.182-1.214l-.212-.236-.177.259C22.806,43.609,32.306,45,42.926,45c18.8,0,41.181-4.361,54.1-6.27h.024c15.24-4.031,32.742-3.229,47.345-8.781l-.118-.295-.259.177a4.216,4.216,0,0,0,1.815,1.544,5.3,5.3,0,0,0,2.145.4c1.909,0,3.948-.672,5.693-.66a5.125,5.125,0,0,1,.6.024h.071a6.664,6.664,0,0,1,1.1-.083c1.756,0,3.666.566,5.492.566a5,5,0,0,0,3.76-1.438l-.224-.224-.212.236a11.618,11.618,0,0,0,7.708,2.829,10.715,10.715,0,0,0,8.18-3.536l-.236-.2-.318-.035a7.177,7.177,0,0,0-.059.849,4.007,4.007,0,0,0,1.061,2.864,7.908,7.908,0,0,0,4.043,1.874c1.544.342,3.159.554,4.361.955l.094-.295-.141.283a7.283,7.283,0,0,0,3.229.86A4.278,4.278,0,0,0,195.7,34.9a6.71,6.71,0,0,0,1.214-4.043,9.576,9.576,0,0,0-.7-3.536l-.295.118v.318a4.909,4.909,0,0,0,4.632-4.856v-.295l-.306.071h-.318v.236a4.273,4.273,0,0,1-4.019,4.219l-.448.024.165.413a8.855,8.855,0,0,1,.66,3.3,6.143,6.143,0,0,1-1.084,3.666,3.684,3.684,0,0,1-3.017,1.5,6.572,6.572,0,0,1-2.947-.8h-.024l-.024-.012c-1.733-.566-4.031-.754-5.881-1.367a5.426,5.426,0,0,1-2.263-1.3,3.3,3.3,0,0,1-.884-2.428,6.225,6.225,0,0,1,.047-.778l.141-1.049-.684.8a10.088,10.088,0,0,1-7.708,3.312,10.973,10.973,0,0,1-7.284-2.664l-.224-.2-.212.212a4.379,4.379,0,0,1-3.312,1.249c-1.7,0-3.607-.566-5.492-.566a6.888,6.888,0,0,0-1.2.094l.047.306.035-.318a6.028,6.028,0,0,0-.66-.035c-1.886,0-3.925.672-5.693.66a4.485,4.485,0,0,1-1.886-.354,3.686,3.686,0,0,1-1.544-1.332l-.141-.2-.236.083c-14.426,5.5-31.917,4.715-47.275,8.757l.083.306-.047-.306c-12.941,1.909-35.3,6.259-54,6.259-10.572,0-19.978-1.4-25.8-5.363l-.2-.141-.189.165a3.893,3.893,0,0,1-2.758,1.049,12.59,12.59,0,0,1-4.3-1.12,14.805,14.805,0,0,0-4.349-1.261,4.764,4.764,0,0,1-3.595-1.379,4.714,4.714,0,0,1-.9-3.123A27.148,27.148,0,0,1,1.438,28.5a27.2,27.2,0,0,0,.613-4.75,6.892,6.892,0,0,0-.094-1.226l-.306.047.306.071a7.469,7.469,0,0,0,.165-1.627A20.393,20.393,0,0,0,1.356,16.3a19.129,19.129,0,0,1-.743-4.432,4.878,4.878,0,0,1,1.5-3.748L1.886,7.9l.189.259a4.456,4.456,0,0,1,2.522-.6A24.319,24.319,0,0,1,12.411,9.37a29.665,29.665,0,0,1,6.376,3.218l.13.094.153-.047a15.021,15.021,0,0,1,4.337-.578A35.921,35.921,0,0,1,36.7,15.169l.153.059L37,15.145c1.827-1.131,4.608-1.591,7.543-1.591a34.221,34.221,0,0,1,10.278,1.627l.177.059.141-.118c2.074-1.839,6.435-2.617,10.584-2.6a27.663,27.663,0,0,1,7.378.9l.189.059.13-.141a10.716,10.716,0,0,1,5.21-2.593,29.874,29.874,0,0,1,7.131-.813,22.912,22.912,0,0,1,5.716.625l.2.047.13-.153A10.573,10.573,0,0,1,97.143,7.6a29.616,29.616,0,0,1,7.437-.908,20.775,20.775,0,0,1,5.363.6l.189.059.13-.141A10.528,10.528,0,0,1,115.293,4.5a26.664,26.664,0,0,1,6.907-.86,21.83,21.83,0,0,1,6.506.872l.247.083.13-.236a3.476,3.476,0,0,1,1.862-1.7,7.071,7.071,0,0,1,2.558-.377c.872,0,1.791.071,2.687.071a10.575,10.575,0,0,0,1.627-.106l-.047-.306v.318h.035c2.84,0,5.457-1.273,7.944-1.273a6.846,6.846,0,0,1,1.379.141L147.2.825l-.071.306a11.206,11.206,0,0,0,2.558.259c2.888,0,6.141-.719,8.969-.719a9.3,9.3,0,0,1,3.583.589,5.008,5.008,0,0,1,2.534,2.3l.165.295.283-.177a13.372,13.372,0,0,1,7.249-2.027c3.724,0,7.626,1.249,11.574,2.569s7.967,2.7,11.928,2.923V6.824a2.87,2.87,0,0,1-.012.318,3.191,3.191,0,0,1,2.015.919,6.38,6.38,0,0,1,1.5,3.418,27.6,27.6,0,0,1,.318,4.726c0,1.249-.035,2.463-.035,3.559a13.8,13.8,0,0,0,.224,3.017l.306-.071h-.318a2.867,2.867,0,0,0,.318,0Z" transform="translate(0 0)" fill="#020202"/><path d="M3.615,21.759c-1.394-.437-2.1-.673-3.5-1.17V13.655c1.394.5,2.1.721,3.5,1.17.413,2.02,1.2,3.213,2.351,3.544.839.236,1.252-.118,1.252-1.051a1.494,1.494,0,0,0-.437-1.335,18.345,18.345,0,0,0-1.973-2.044A25.244,25.244,0,0,1,2.02,10.986,9.7,9.7,0,0,1,.591,8.3,9.425,9.425,0,0,1,0,5.032C0,3.023.473,1.618,1.406.8A3.4,3.4,0,0,1,4.843.212,6.515,6.515,0,0,1,8.3,2.811V1.476c1.406.378,2.115.543,3.52.874V8.5c-1.394-.319-2.079-.5-3.473-.862C7.927,5.835,7.171,4.784,6.1,4.465c-.756-.224-1.134.118-1.134,1.016s.118.791.319,1.075A26.343,26.343,0,0,0,7.3,8.647c1.524,1.477,2.552,2.5,3.06,3.119a7.167,7.167,0,0,1,.8,1.193,10.345,10.345,0,0,1,.673,1.488,9.769,9.769,0,0,1,.614,3.438A6,6,0,0,1,11,22.149a3.4,3.4,0,0,1-3.662.969A7.122,7.122,0,0,1,3.615,20.33v1.418Z" transform="translate(6.214 12.899)" fill="#b7cf61"/><path d="M3.816,21.878l.059-.2C2.481,21.24,1.784,21,.39,20.52l-.071.2H.532V13.786H.319l-.071.2c1.394.5,2.1.732,3.5,1.17l.059-.2L3.6,15a7.119,7.119,0,0,0,.933,2.481,2.875,2.875,0,0,0,1.571,1.229,2.153,2.153,0,0,0,.52.083.931.931,0,0,0,.768-.366,1.692,1.692,0,0,0,.236-.957,2.456,2.456,0,0,0-.473-1.453,16.389,16.389,0,0,0-2.008-2.067,24.723,24.723,0,0,1-2.764-2.93A10.1,10.1,0,0,1,.992,8.4,9.025,9.025,0,0,1,.413,5.2c0-1.985.473-3.32,1.335-4.064a2.925,2.925,0,0,1,2-.756A4.52,4.52,0,0,1,5,.579,6.37,6.37,0,0,1,8.352,3.1l.378.543v-2H8.517l-.059.2c1.406.378,2.115.543,3.52.874l.047-.2h-.213V8.671h.213l.047-.2c-1.394-.319-2.079-.5-3.461-.862l-.059.2.2-.047A6.137,6.137,0,0,0,7.832,5.54,2.839,2.839,0,0,0,6.344,4.43a1.684,1.684,0,0,0-.461-.071.817.817,0,0,0-.721.366,1.68,1.68,0,0,0-.224.933,2,2,0,0,0,.366,1.2A27.4,27.4,0,0,0,7.348,8.978c1.524,1.465,2.54,2.5,3.048,3.1h0a6.322,6.322,0,0,1,.768,1.158,9.891,9.891,0,0,1,.662,1.453h0a9.637,9.637,0,0,1,.6,3.367,5.818,5.818,0,0,1-1.394,4.123,3.1,3.1,0,0,1-2.351,1.075,4.165,4.165,0,0,1-1.1-.154,6.917,6.917,0,0,1-3.6-2.717L3.6,19.87v2.056h.213l.059-.2-.059.2h.213V20.508H3.816l-.165.13a7.33,7.33,0,0,0,3.828,2.871,4.509,4.509,0,0,0,1.2.177,3.526,3.526,0,0,0,2.658-1.2,6.235,6.235,0,0,0,1.512-4.406,10.172,10.172,0,0,0-.626-3.509h0a10.115,10.115,0,0,0-.685-1.512,6.9,6.9,0,0,0-.827-1.229l-.165.142.165-.13c-.532-.626-1.548-1.654-3.071-3.131a23.366,23.366,0,0,1-2-2.067,1.562,1.562,0,0,1-.284-.957,1.335,1.335,0,0,1,.142-.7.4.4,0,0,1,.378-.177.993.993,0,0,1,.343.059,2.316,2.316,0,0,1,1.264.945A6.023,6.023,0,0,1,8.34,7.891l.024.118.118.035c1.394.366,2.091.543,3.485.862l.26.059V2.386l-.165-.035c-1.406-.319-2.1-.5-3.509-.874l-.26-.071V3.012h.213l.177-.118A6.764,6.764,0,0,0,5.115.213,4.781,4.781,0,0,0,3.745,0,3.365,3.365,0,0,0,1.477.851C.473,1.725,0,3.19,0,5.233A9.508,9.508,0,0,0,.6,8.576a10.231,10.231,0,0,0,1.465,2.729,26.772,26.772,0,0,0,2.812,2.977,16.944,16.944,0,0,1,1.949,2.008,2.142,2.142,0,0,1,.4,1.217,1.286,1.286,0,0,1-.165.721.461.461,0,0,1-.425.189,1.44,1.44,0,0,1-.4-.071A2.414,2.414,0,0,1,4.9,17.295a6.9,6.9,0,0,1-.874-2.327L4,14.849l-.118-.035C2.493,14.377,1.8,14.14.4,13.656l-.284-.095v7.383l.142.047c1.394.5,2.1.732,3.5,1.17l.272.083v-.284H3.816Z" transform="translate(6.013 12.779)" fill="#020202"/><path d="M14.79,23.579A102.294,102.294,0,0,1,0,21.63V16.456c.555.106.839.165,1.394.272V5.446C.839,5.34.555,5.292,0,5.174V0C3.556.7,5.328.969,8.884,1.394V6.568C8.293,6.5,8,6.462,7.407,6.379V17.661c1.465.189,2.209.272,3.674.425V14.613c1.488.154,2.221.213,3.709.319v8.647Z" transform="translate(21.536 15.975)" fill="#b7cf61"/><path d="M14.991,23.816V23.6A101.875,101.875,0,0,1,.248,21.654l-.035.213H.425V16.692H.213L.177,16.9c.555.106.839.165,1.394.272l.248.047V5.517l-.177-.035C1.087,5.375.8,5.328.248,5.221l-.035.213H.425V.26H.213L.177.473c3.556.7,5.34.981,8.9,1.394L9.1,1.654H8.884V6.828H9.1l.024-.213c-.591-.071-.886-.106-1.477-.189l-.236-.035v11.7l.189.024c1.465.189,2.209.284,3.686.425l.236.024v-3.7h-.213l-.024.213c1.488.154,2.233.213,3.709.319V15.18h-.2v8.647H15l.012-.213v.213h.2V14.979h-.2c-1.477-.118-2.221-.177-3.7-.331l-.236-.024v3.709h.213l.024-.213c-1.465-.154-2.2-.236-3.674-.425l-.024.213h.213V6.639H7.62L7.6,6.852c.591.083.886.118,1.477.189l.236.024v-5.6L9.12,1.441C5.576,1.016,3.8.744.26.047L.012,0V5.611l.165.035c.555.106.839.165,1.394.272l.035-.213H1.394v11.27h.213l.035-.213C1.087,16.657.8,16.609.248,16.5L0,16.456v5.611l.165.035a101.019,101.019,0,0,0,14.814,1.961H15.2v-.213h-.213Z" transform="translate(21.335 15.739)" fill="#020202"/><path d="M1.193,5.233,0,5.174V0C3.178.177,4.773.213,7.95.213V5.387H7.218v7.289a11.913,11.913,0,0,0,.354,3.568,1.283,1.283,0,0,0,1.288.933,1.159,1.159,0,0,0,1.11-.8,9.566,9.566,0,0,0,.343-3.19V5.375h-.78V.2C11.872.177,13.042.142,15.369.035V5.21c-.5.024-.732.035-1.229.047V13.1a16.474,16.474,0,0,1-.626,4.938,6.005,6.005,0,0,1-2.079,3.024,5.759,5.759,0,0,1-3.568,1.11,7.386,7.386,0,0,1-3.024-.6A4.95,4.95,0,0,1,2.717,19.8,8.346,8.346,0,0,1,1.571,17a22.9,22.9,0,0,1-.378-4.843V5.233Z" transform="translate(38.416 18.054)" fill="#b7cf61"/><path d="M1.418,5.47V5.257L.236,5.2v.213h.2V.237H.224V.449C3.4.627,5.009.662,8.187.662V.449H7.974V5.624h.213V5.411H7.242v7.5a12.122,12.122,0,0,0,.366,3.638,1.735,1.735,0,0,0,.567.791,1.469,1.469,0,0,0,.9.272h0a1.314,1.314,0,0,0,.791-.248,1.629,1.629,0,0,0,.52-.685,9.577,9.577,0,0,0,.366-3.272V5.387H9.758V5.6H9.97V.426H9.758V.638C12.1.615,13.266.579,15.605.473V.26h-.224V5.435h.213V5.222c-.5.024-.744.035-1.24.047h-.2v8.057a15.908,15.908,0,0,1-.614,4.867,5.824,5.824,0,0,1-2.008,2.93,5.5,5.5,0,0,1-3.438,1.063h0v0A7.179,7.179,0,0,1,5.151,21.6a4.621,4.621,0,0,1-2.032-1.7A8.318,8.318,0,0,1,2,17.165a23.117,23.117,0,0,1-.378-4.8V5.234h-.2v.2H1.2v6.934a22.683,22.683,0,0,0,.39,4.891A8.886,8.886,0,0,0,2.776,20.13a5.1,5.1,0,0,0,2.209,1.843,7.635,7.635,0,0,0,3.107.626h0v0h0v0a5.927,5.927,0,0,0,3.7-1.158,6.27,6.27,0,0,0,2.15-3.131,16.585,16.585,0,0,0,.638-5V5.47h-.213v.213c.5-.024.744-.024,1.229-.047h.2V.024H15.57c-2.339.106-3.5.142-5.836.165H9.521v5.6h.992V5.576H10.3v7.809a9.476,9.476,0,0,1-.331,3.107A1.269,1.269,0,0,1,9.592,17a.9.9,0,0,1-.543.165v0h0a1.087,1.087,0,0,1-.65-.189,1.256,1.256,0,0,1-.425-.6,11.555,11.555,0,0,1-.343-3.485V5.6H7.419v.213h.957V.213H8.163C4.985.213,3.4.178.224,0H0V5.588H.2c.473.035.721.047,1.193.071V5.446h.012Z" transform="translate(38.192 17.817)" fill="#020202"/><path d="M8.447,21.835c-3.379.331-5.068.473-8.447.673V17.335c.508-.035.756-.047,1.264-.083V5.97C.756,6.006.508,6.017,0,6.053V.879C3.379.678,5.068.536,8.447.205,9.2.134,9.911.075,10.561.04s1.2-.047,1.666-.035A10.206,10.206,0,0,1,13.5.123a3.933,3.933,0,0,1,2.646,1.772,6.514,6.514,0,0,1,1.028,3.757,7.88,7.88,0,0,1-.626,3.131,5.333,5.333,0,0,1-1.642,2.2c.862,1.867,1.288,2.8,2.138,4.666.449-.059.673-.095,1.122-.154v5.174c-2.233.307-3.355.449-5.588.709C11.223,18,10.549,16.307,9.2,12.916c-.768.083-1.146.118-1.914.189v3.65l1.17-.118v5.174ZM7.277,5.061V9.183l.673-.059a8.925,8.925,0,0,0,1.784-.3,1.669,1.669,0,0,0,.851-.709,2.462,2.462,0,0,0,.343-1.359,2.179,2.179,0,0,0-.343-1.3A1.266,1.266,0,0,0,9.7,4.931a12.021,12.021,0,0,0-1.878.083C7.6,5.037,7.49,5.049,7.277,5.061Z" transform="translate(56.514 17.081)" fill="#b7cf61"/><path d="M8.624,22.032,8.6,21.819c-3.379.331-5.056.473-8.435.673v.213H.39V17.531H.177v.213c.52-.035.768-.047,1.276-.083h.2V5.954l-.224.012C.921,6,.673,6.013.165,6.048v.213H.39V1.087H.177L.189,1.3C3.568,1.1,5.257.957,8.635.626c.756-.071,1.453-.13,2.1-.165.461-.024.874-.035,1.229-.035h.413a9.622,9.622,0,0,1,1.24.118,3.767,3.767,0,0,1,2.5,1.677,6.29,6.29,0,0,1,.992,3.638,7.628,7.628,0,0,1-.6,3.048,5.124,5.124,0,0,1-1.571,2.115l-.13.106.071.154c.862,1.866,1.288,2.812,2.138,4.666l.059.142.154-.024c.449-.059.673-.095,1.122-.154l-.024-.213h-.213v5.174h.213l-.024-.213c-2.233.307-3.355.449-5.588.709l.024.213.2-.083c-1.359-3.379-2.032-5.068-3.379-8.458l-.059-.154H9.356c-.768.095-1.146.13-1.914.2l-.189.024v4.076l.236-.024,1.17-.118-.024-.213H8.423v5.174h.213L8.612,21.8l.024.213h.213V16.6l-.236.024-1.17.118.024.213h.213V13.3H7.466l.024.213c.768-.071,1.146-.106,1.914-.189l-.024-.213-.2.083c1.359,3.39,2.032,5.092,3.379,8.458l.059.154.165-.024c2.233-.26,3.355-.4,5.6-.709l.177-.024v-5.6l-.236.035c-.449.059-.673.095-1.11.154l.024.213.189-.083c-.862-1.866-1.288-2.8-2.138-4.666l-.189.083.13.165a5.542,5.542,0,0,0,1.713-2.28,8.084,8.084,0,0,0,.638-3.213,6.791,6.791,0,0,0-1.063-3.875A4.123,4.123,0,0,0,13.727.13a10.745,10.745,0,0,0-1.3-.13H12c-.366,0-.791.012-1.252.035C10.1.071,9.392.13,8.635.2,5.257.532,3.579.673.2.874H0V6.485H.224c.508-.047.756-.059,1.264-.095V6.178H1.264v11.27h.213l-.012-.213c-.508.035-.756.047-1.264.083H0V22.93l.224-.012c3.379-.2,5.068-.343,8.446-.673l.189-.024v-.189H8.624ZM7.454,5.257H7.242V9.616l.236-.024.673-.059a9.977,9.977,0,0,0,1.831-.3,1.845,1.845,0,0,0,.957-.8,2.713,2.713,0,0,0,.378-1.477,2.383,2.383,0,0,0-.39-1.429A1.459,1.459,0,0,0,9.9,4.914c-.106,0-.236-.012-.378-.012-.378,0-.886.035-1.536.095-.224.024-.331.035-.543.047l-.189.024v.189h.213l.024.213c.224-.024.331-.035.543-.047.65-.059,1.146-.095,1.5-.095a2.581,2.581,0,0,1,.331.012.99.99,0,0,1,.732.449,1.95,1.95,0,0,1,.307,1.17A2.285,2.285,0,0,1,10.6,8.2a1.451,1.451,0,0,1-.732.626,9.278,9.278,0,0,1-1.737.284l-.673.059.024.213H7.69V5.257H7.478L7.5,5.47l-.024-.213Z" transform="translate(56.337 16.884)" fill="#020202"/><path d="M8.435,22.044c-3.379.555-5.068.815-8.435,1.3V18.169l1.264-.177V6.71L0,6.887V1.713C3.379,1.229,5.068.969,8.435.413,9.191.3,9.9.189,10.549.118A16.1,16.1,0,0,1,12.215,0a8.727,8.727,0,0,1,1.276.059A3.683,3.683,0,0,1,16.137,1.7,6.333,6.333,0,0,1,17.165,5.41a8.037,8.037,0,0,1-.626,3.154,5.8,5.8,0,0,1-1.642,2.28c.862,1.831,1.288,2.741,2.138,4.572.449-.083.673-.118,1.122-.2V20.39c-2.233.39-3.355.591-5.588.969-1.359-3.308-2.032-4.962-3.379-8.269-.768.13-1.146.189-1.914.307v3.65c.473-.071.709-.118,1.17-.189v5.174ZM7.265,5.34V9.462c.272-.047.4-.059.673-.106a10.426,10.426,0,0,0,1.784-.4,1.808,1.808,0,0,0,.851-.768A2.547,2.547,0,0,0,10.915,6.8a2.03,2.03,0,0,0-.343-1.276,1.156,1.156,0,0,0-.886-.473,10.832,10.832,0,0,0-1.878.2C7.584,5.292,7.478,5.3,7.265,5.34Z" transform="translate(77.147 14.097)" fill="#b7cf61"/><path d="M8.635,22.221,8.6,22.008c-3.379.555-5.056.815-8.435,1.3L.2,23.52H.413V18.346H.2l.035.213L1.5,18.381l.177-.024V6.663L1.441,6.7.177,6.875l.035.213H.425V1.914H.213l.035.213c3.379-.484,5.068-.744,8.446-1.3C9.451.709,10.148.6,10.8.532S11.99.425,12.439.413h.248a8.624,8.624,0,0,1,.992.059,3.49,3.49,0,0,1,2.5,1.559,6.143,6.143,0,0,1,.992,3.591,7.629,7.629,0,0,1-.614,3.071,5.5,5.5,0,0,1-1.583,2.2l-.13.106.071.154c.862,1.831,1.288,2.741,2.138,4.572l.071.142.154-.024c.449-.083.673-.118,1.122-.2l-.035-.213h-.213V20.6h.213l-.035-.213c-2.233.39-3.355.591-5.588.969l.035.213.2-.083c-1.359-3.308-2.032-4.962-3.379-8.269l-.059-.154-.165.024c-.768.13-1.146.189-1.914.307l-.177.024V17.5l.248-.035c.473-.071.709-.118,1.169-.189l-.035-.213H8.458v5.174h.213l-.035-.213.035.213h.213V16.81l-.248.035c-.473.071-.709.118-1.169.189l.035.213h.213V13.6H7.5l.035.213c.768-.118,1.146-.189,1.914-.307l-.035-.213-.2.083c1.359,3.308,2.032,4.962,3.379,8.269l.059.154.165-.024c2.233-.378,3.355-.579,5.6-.969l.177-.035v-5.6l-.248.047c-.449.083-.673.118-1.122.2l.035.213.189-.095c-.862-1.831-1.288-2.741-2.138-4.572l-.189.095.13.165a5.9,5.9,0,0,0,1.7-2.363,8.241,8.241,0,0,0,.638-3.237A6.557,6.557,0,0,0,16.527,1.8,3.913,3.913,0,0,0,13.739.059,9.715,9.715,0,0,0,12.687,0h-.26A16.462,16.462,0,0,0,10.75.13C10.1.2,9.392.3,8.624.425,5.245.981,3.568,1.24.189,1.725l-.177.024v5.6l.236-.035,1.264-.177-.035-.213H1.264v11.27h.213l-.035-.213-1.264.177L0,18.181v5.6l.236-.035C3.615,23.26,5.3,23,8.683,22.445l.177-.024v-.177H8.647ZM7.466,5.517H7.253V9.888L7.5,9.852c.272-.047.4-.059.673-.106a10.389,10.389,0,0,0,1.831-.413,1.98,1.98,0,0,0,.945-.851,2.783,2.783,0,0,0,.378-1.488,2.283,2.283,0,0,0-.39-1.406A1.34,1.34,0,0,0,9.9,5.032H9.793a13.368,13.368,0,0,0-1.807.2c-.224.035-.331.047-.543.083l-.177.024v.177h.213l.035.213c.224-.035.331-.047.543-.083a13.162,13.162,0,0,1,1.748-.2H9.9a.912.912,0,0,1,.721.4,1.821,1.821,0,0,1,.307,1.146,2.324,2.324,0,0,1-.319,1.264,1.592,1.592,0,0,1-.744.673,10.722,10.722,0,0,1-1.748.39c-.272.047-.4.071-.673.106l.035.213H7.69V5.517H7.478l.035.213-.035-.213Z" transform="translate(76.946 13.919)" fill="#020202"/><path d="M8.435,21.987c-3.379.588-5.068.894-8.435,1.494V18.329c.508-.094.756-.129,1.264-.223V6.873C.756,6.967.508,7,0,7.1V1.945c3.379-.6,5.068-.894,8.435-1.494C9.191.322,9.9.216,10.549.134S11.754.016,12.215,0a8.848,8.848,0,0,1,1.276.047,3.685,3.685,0,0,1,2.646,1.635,6.3,6.3,0,0,1,1.028,3.7,7.972,7.972,0,0,1-.626,3.14A5.731,5.731,0,0,1,14.9,10.79c.862,1.823,1.288,2.74,2.138,4.564.449-.071.673-.106,1.122-.188v5.152c-2.233.365-3.355.565-5.588.941-1.359-3.281-2.032-4.928-3.379-8.21-.768.129-1.146.2-1.914.341v3.634c.473-.082.709-.129,1.17-.212v5.152ZM7.265,5.379v4.1l.673-.118a9.85,9.85,0,0,0,1.784-.423,1.87,1.87,0,0,0,.851-.765A2.556,2.556,0,0,0,10.915,6.8a2.061,2.061,0,0,0-.343-1.27,1.158,1.158,0,0,0-.886-.47,11.718,11.718,0,0,0-1.878.223C7.584,5.321,7.478,5.344,7.265,5.379Z" transform="translate(97.768 10.533)" fill="#b7cf61"/><path d="M8.671,22.161l-.035-.212c-3.379.588-5.068.894-8.435,1.494l.035.212H.449V18.5H.236l.035.212c.508-.094.756-.129,1.264-.223l.177-.035V6.811l-.248.047C.957,6.952.709,6.987.2,7.081l.035.212H.449V2.141H.236l.035.212C3.65,1.753,5.34,1.459,8.706.859c.756-.129,1.453-.235,2.1-.318S12,.423,12.451.412h.284a8.034,8.034,0,0,1,.957.059,3.492,3.492,0,0,1,2.5,1.553A6.038,6.038,0,0,1,17.188,5.6a7.568,7.568,0,0,1-.614,3.058,5.355,5.355,0,0,1-1.583,2.176l-.13.106.071.153c.862,1.823,1.288,2.741,2.138,4.564l.071.141.154-.024c.449-.071.673-.106,1.11-.188l-.035-.212h-.213v5.152h.213l-.035-.212c-2.233.365-3.355.565-5.6.941l.035.212.2-.082c-1.359-3.282-2.032-4.929-3.379-8.21l-.059-.153-.165.024c-.768.129-1.146.2-1.914.341l-.177.035v4.058l.248-.047c.473-.082.709-.129,1.17-.212l-.035-.212H8.446v5.152h.213l-.035-.212.035.212h.213v-5.4l-.248.047c-.473.082-.709.129-1.17.212l.035.212H7.7V13.6H7.49l.035.212c.768-.129,1.146-.2,1.914-.341L9.4,13.256l-.2.082c1.359,3.282,2.032,4.917,3.379,8.21l.059.153.165-.024c2.233-.388,3.355-.576,5.588-.941l.177-.024V15.138l-.248.035c-.449.071-.673.106-1.122.188l.035.212.189-.094c-.862-1.823-1.288-2.741-2.138-4.564l-.189.094.13.165a5.913,5.913,0,0,0,1.7-2.341,8.175,8.175,0,0,0,.638-3.223A6.572,6.572,0,0,0,16.5,1.788,3.915,3.915,0,0,0,13.715.059a9.043,9.043,0,0,0-1-.059h-.3c-.473.012-1.028.059-1.677.141S9.38.329,8.612.459c-3.379.588-5.068.894-8.435,1.494L0,1.988V7.563l.248-.047c.508-.094.756-.129,1.264-.223l-.035-.212H1.264V18.3h.213l-.035-.212c-.508.094-.756.129-1.264.223L0,18.35v5.575l.248-.047c3.379-.6,5.068-.894,8.435-1.494l.177-.035v-.176H8.647ZM7.5,5.552H7.289V9.9l.248-.047.673-.118A9.9,9.9,0,0,0,10.041,9.3a1.977,1.977,0,0,0,.945-.847,2.763,2.763,0,0,0,.378-1.482,2.266,2.266,0,0,0-.39-1.4,1.3,1.3,0,0,0-1.04-.541H9.864a11.652,11.652,0,0,0-1.843.223c-.224.035-.331.059-.543.094L7.3,5.387v.176h.213l.035.212c.224-.035.331-.059.543-.094a11.5,11.5,0,0,1,1.772-.223h.059a.9.9,0,0,1,.721.388,1.808,1.808,0,0,1,.307,1.141,2.35,2.35,0,0,1-.319,1.27,1.622,1.622,0,0,1-.744.682,10.036,10.036,0,0,1-1.748.412l-.673.118.035.212h.213V5.575H7.5l.035.212L7.5,5.575Z" transform="translate(97.532 10.36)" fill="#020202"/><path d="M8.435,21.928C5.056,22.4,3.367,22.661,0,23.2V18.03c.508-.083.756-.118,1.264-.2V6.548c-.508.083-.756.118-1.264.2V1.574C3.379,1.031,5.068.771,8.435.3,9.191.192,9.9.109,10.549.062s1.2-.071,1.666-.059a8.438,8.438,0,0,1,1.276.106,3.91,3.91,0,0,1,2.646,1.784,6.605,6.605,0,0,1,1.028,3.768,7.78,7.78,0,0,1-.626,3.119A5.369,5.369,0,0,1,14.9,10.966c.862,1.878,1.288,2.812,2.138,4.7l1.122-.118v5.174c-2.233.236-3.355.366-5.6.65-1.359-3.367-2.032-5.044-3.379-8.387-.768.106-1.146.154-1.914.272v3.65c.473-.071.709-.106,1.17-.165v5.174ZM7.265,5.2V9.324c.272-.035.4-.059.673-.095a11.968,11.968,0,0,0,1.784-.354,1.785,1.785,0,0,0,.851-.732,2.5,2.5,0,0,0,.343-1.37,2.091,2.091,0,0,0-.343-1.288,1.235,1.235,0,0,0-.886-.508,10.517,10.517,0,0,0-1.878.154c-.224.035-.331.047-.543.083Z" transform="translate(118.378 7.287)" fill="#b7cf61"/><path d="M8.647,22.15l-.024-.213c-3.379.473-5.068.732-8.446,1.276l.035.213H.425V18.252H.213l.035.213c.508-.083.756-.118,1.264-.2l.177-.024V6.545l-.248.035c-.508.083-.756.118-1.264.2l.035.213H.425V1.819H.213l.035.213C3.627,1.488,5.3,1.229,8.683.756,9.439.65,10.136.567,10.774.52,11.329.473,11.8.461,12.215.461h.2a7.96,7.96,0,0,1,1.24.106,3.7,3.7,0,0,1,2.5,1.689,6.38,6.38,0,0,1,.992,3.65,7.571,7.571,0,0,1-.6,3.036,5.04,5.04,0,0,1-1.571,2.091l-.142.106.071.154c.862,1.878,1.288,2.812,2.138,4.7l.059.142h.154c.449-.071.673-.095,1.11-.142l-.024-.213h-.213v5.174h.213l-.024-.213c-2.233.236-3.355.366-5.6.65l.024.213.2-.083c-1.359-3.367-2.032-5.044-3.379-8.387l-.059-.154-.165.024c-.768.106-1.146.165-1.914.272l-.177.024v4.076l.236-.035c.473-.071.709-.106,1.17-.165l-.024-.213H8.423v5.174h.213l-.024-.213.024.213h.213V16.716l-.236.035c-.473.071-.709.094-1.17.165l.035.213H7.69v-3.65H7.478l.035.213c.768-.106,1.146-.165,1.914-.272L9.4,13.207l-.2.083c1.358,3.343,2.032,5.021,3.379,8.387l.059.154.165-.024c2.233-.284,3.355-.413,5.588-.65l.189-.024v-5.6l-.236.024-1.122.118.024.213.189-.083c-.862-1.878-1.288-2.823-2.138-4.7l-.189.083.13.165a5.5,5.5,0,0,0,1.713-2.268,7.986,7.986,0,0,0,.638-3.2A6.83,6.83,0,0,0,16.527,2,4.156,4.156,0,0,0,13.739.118,8.846,8.846,0,0,0,12.439,0h-.213c-.425,0-.921.024-1.477.059C10.1.106,9.392.189,8.624.3,5.245.768,3.556,1.028.177,1.571L0,1.595v5.6l.248-.035c.508-.083.756-.118,1.264-.2l-.035-.213H1.264v11.27h.213L1.441,17.8c-.508.083-.756.118-1.264.2L0,18.027v5.6l.248-.035c3.379-.543,5.056-.8,8.435-1.276l.177-.024V22.1H8.647ZM7.478,5.422H7.265V9.793L7.5,9.758c.272-.035.4-.059.673-.095A11.69,11.69,0,0,0,10.006,9.3a1.894,1.894,0,0,0,.957-.827,2.713,2.713,0,0,0,.378-1.477,2.344,2.344,0,0,0-.39-1.418,1.432,1.432,0,0,0-1.04-.591H9.7a11.965,11.965,0,0,0-1.713.165c-.224.035-.331.047-.543.083l-.177.024v.177h.213l.035.213c.224-.035.331-.047.543-.083A13.117,13.117,0,0,1,9.71,5.41h.177a.98.98,0,0,1,.732.425,1.925,1.925,0,0,1,.307,1.17,2.253,2.253,0,0,1-.319,1.252,1.428,1.428,0,0,1-.744.65,9.773,9.773,0,0,1-1.748.343c-.272.035-.4.059-.673.095l.035.213H7.69V5.434H7.478l.035.213-.035-.213Z" transform="translate(118.165 7.066)" fill="#020202"/><path d="M8.447,21.68C5.068,21.869,3.379,22,0,22.318V17.144l1.264-.118V5.744L0,5.862V.688C3.379.369,5.068.239,8.447.05,9.2.015,9.911-.009,10.561,0A13.238,13.238,0,0,1,12.227.1,7.908,7.908,0,0,1,13.5.334a4.464,4.464,0,0,1,2.646,2.056,7.146,7.146,0,0,1,1.028,3.887,7.284,7.284,0,0,1-.626,3.048,4.563,4.563,0,0,1-1.642,2.008c.862,1.961,1.288,2.953,2.138,4.926h1.122v5.174c-2.233,0-3.355,0-5.6.083-1.359-3.5-2.032-5.233-3.379-8.695-.768.035-1.146.059-1.914.106v3.65c.473-.024.709-.047,1.17-.071V21.68ZM7.277,4.858V8.981c.272-.012.4-.024.673-.035a10.313,10.313,0,0,0,1.784-.2,1.568,1.568,0,0,0,.851-.662,2.352,2.352,0,0,0,.343-1.335,2.285,2.285,0,0,0-.343-1.323A1.332,1.332,0,0,0,9.7,4.847a9.469,9.469,0,0,0-1.878,0c-.224.012-.331.024-.543.035Z" transform="translate(138.987 5.478)" fill="#b7cf61"/><path d="M8.6,21.855v-.213c-3.39.189-5.08.319-8.458.638l.024.213H.378V17.318H.165l.024.213,1.264-.118h.189V5.694l-.224.024L.154,5.836l.024.213H.39V.874H.177L.2,1.087C3.579.768,5.257.638,8.635.449,9.25.413,9.84.4,10.384.4h.354A12.833,12.833,0,0,1,12.38.5a8.958,8.958,0,0,1,1.24.224,4.3,4.3,0,0,1,2.528,1.961,6.921,6.921,0,0,1,.992,3.768,7.075,7.075,0,0,1-.6,2.965,4.394,4.394,0,0,1-1.559,1.926l-.154.095.071.165c.862,1.961,1.288,2.953,2.138,4.926l.059.13h1.252v-.213h-.213v5.174h.213v-.213H17.46c-1.689,0-2.788.024-4.713.083V21.7l.2-.071c-1.358-3.5-2.032-5.233-3.379-8.695l-.059-.142H9.356l-1.914.118h-.2V17l.224-.012c.473-.024.7-.047,1.17-.071V16.7H8.411v5.174h.213v0h.224v-5.4H8.624c-.473.035-.709.047-1.169.083v.213h.224v-3.65H7.466v.213c.78-.047,1.158-.071,1.926-.106v-.213l-.213.071c1.359,3.461,2.032,5.21,3.379,8.695l.059.142h.154c1.926-.059,3.012-.083,4.7-.083h1.1v-5.6H17.235v.213l.189-.083c-.862-1.973-1.288-2.965-2.138-4.926l-.189.083.118.177a4.737,4.737,0,0,0,1.713-2.1,7.406,7.406,0,0,0,.65-3.142,7.358,7.358,0,0,0-1.063-3.993A4.629,4.629,0,0,0,13.751.331a8.474,8.474,0,0,0-1.3-.236A16.424,16.424,0,0,0,10.762,0h-.354C9.852,0,9.262.012,8.635.047,5.257.236,3.568.366.189.685L0,.709v5.6l.236-.024L1.5,6.167l-.024-.213H1.264v11.27h.213l-.024-.213-1.264.118L0,17.153v5.6l.236-.024c3.379-.319,5.056-.449,8.435-.638h.2v-.213H8.659ZM7.431,5.032H7.218V9.38h.224a6.449,6.449,0,0,1,.673-.047A9.867,9.867,0,0,0,9.947,9.12a1.754,1.754,0,0,0,.969-.744,2.6,2.6,0,0,0,.378-1.453,2.446,2.446,0,0,0-.39-1.441,1.557,1.557,0,0,0-1.016-.673,5.254,5.254,0,0,0-.839-.047c-.307,0-.662,0-1.075.035-.224.012-.331.024-.543.035h-.2v.213h.213v.213c.236-.012.343-.024.555-.035.414-.024.768-.035,1.051-.035a4.3,4.3,0,0,1,.78.047,1.1,1.1,0,0,1,.744.5,2.1,2.1,0,0,1,.307,1.2,2.17,2.17,0,0,1-.307,1.217,1.342,1.342,0,0,1-.733.579,10.944,10.944,0,0,1-1.748.189c-.272.012-.4.024-.673.035v.213h.224V5.044H7.431l.012.213V5.044Z" transform="translate(138.833 5.304)" fill="#020202"/><path d="M9.073,22.1C5.446,21.784,3.627,21.7,0,21.63V16.456c.6.012.91.024,1.512.035V5.21C.91,5.186.6,5.186,0,5.174V0C3.816.071,5.718.177,9.521.52a9.823,9.823,0,0,1,4.8,1.418A6.569,6.569,0,0,1,16.55,4.7a8.894,8.894,0,0,1,.721,3.52,7.652,7.652,0,0,1-.851,3.662,4.324,4.324,0,0,1-2.245,1.9,10.615,10.615,0,0,1-4.241.2c-.969-.095-1.453-.13-2.422-.2v3.036c.626.047.933.071,1.559.13V22.1ZM7.513,5.08V9.143c.473.035.709.059,1.17.095a2.857,2.857,0,0,0,1.784-.248c.354-.224.532-.744.532-1.512a2.161,2.161,0,0,0-.3-1.323,1.417,1.417,0,0,0-.744-.721,5.806,5.806,0,0,0-1.524-.272c-.378-.035-.567-.047-.933-.071Z" transform="translate(159.563 5.304)" fill="#b7cf61"/><path d="M9.285,22.3l.024-.213c-3.638-.319-5.458-.4-9.1-.473v.213h.2V16.657H.2v.213c.6.012.9.024,1.5.035h.213V5.221h-.2C1.111,5.2.8,5.186.2,5.174v.213H.4V.213H.189V.425C3.993.5,5.895.6,9.7.945a9.749,9.749,0,0,1,4.7,1.37A6.352,6.352,0,0,1,16.562,5a8.68,8.68,0,0,1,.7,3.438,6.8,6.8,0,0,1-.815,3.556A4.061,4.061,0,0,1,14.306,13.8a6.581,6.581,0,0,1-2.221.284c-.567,0-1.217-.035-1.926-.106-.969-.095-1.453-.13-2.422-.2H7.513v3.449l.2.012c.626.047.933.071,1.559.13l.024-.213H9.084v5.174H9.3l.024-.213-.024.213H9.51V16.964H9.321c-.626-.071-.945-.095-1.571-.142v.213h.2V14H7.738v.213c.957.071,1.429.118,2.4.2.721.071,1.382.106,1.973.106a6.956,6.956,0,0,0,2.363-.319,4.518,4.518,0,0,0,2.351-1.985,7.165,7.165,0,0,0,.874-3.78,9.1,9.1,0,0,0-.733-3.6,6.853,6.853,0,0,0-2.3-2.859A10.089,10.089,0,0,0,9.758.52C5.942.177,4.028.083.213,0H0V5.588H.2c.6.012.9.024,1.5.047V5.422H1.5v11.27h.213V16.48c-.6-.024-.9-.024-1.5-.035H0v5.588H.2c3.627.071,5.434.165,9.061.473l.224.024V22.3h-.2ZM7.726,5.281H7.513V9.545h.2c.473.047.7.071,1.17.106.2.012.378.024.555.024a2.522,2.522,0,0,0,1.359-.3,1.922,1.922,0,0,0,.638-1.7,3.055,3.055,0,0,0-.319-1.418,1.674,1.674,0,0,0-.862-.827,5.966,5.966,0,0,0-1.583-.284C8.293,5.115,8.1,5.1,7.726,5.08H7.5v.213h.213V5.5c.354.024.543.047.921.071a5.531,5.531,0,0,1,1.453.26,1.213,1.213,0,0,1,.638.626A2.621,2.621,0,0,1,11,7.69c0,.756-.177,1.181-.437,1.335a2.193,2.193,0,0,1-1.134.236,4,4,0,0,1-.52-.024c-.473-.035-.709-.059-1.17-.095v.213h.2V5.292H7.726L7.714,5.5V5.292Z" transform="translate(159.35 5.103)" fill="#020202"/><path d="M9.084,23.65A92.015,92.015,0,0,0,0,21.63V16.456c.6.106.91.165,1.512.284V5.458C.91,5.34.6,5.281,0,5.174V0A91.183,91.183,0,0,1,9.522,2.138a11.613,11.613,0,0,1,4.8,2.315,8.466,8.466,0,0,1,2.233,3.2,9.957,9.957,0,0,1,.721,3.662,6.7,6.7,0,0,1-.851,3.5,3.316,3.316,0,0,1-2.245,1.465,11.253,11.253,0,0,1-4.241-.591c-.969-.272-1.453-.39-2.422-.638v3.036c.626.154.933.236,1.559.4v5.174ZM7.525,6.356v4.064c.473.118.709.177,1.17.3a2.937,2.937,0,0,0,1.784.083q.532-.248.532-1.418a2.356,2.356,0,0,0-.3-1.37,1.931,1.931,0,0,0-.744-.862A5.927,5.927,0,0,0,8.447,6.6c-.378-.095-.567-.142-.933-.236Z" transform="translate(179.527 7.171)" fill="#b7cf61"/><path d="M9.3,23.886l.059-.2a93,93,0,0,0-9.1-2.02l-.035.213H.437V16.7H.224l-.035.213c.6.106.9.165,1.5.284l.248.047V5.54L1.772,5.5c-.6-.118-.91-.177-1.512-.284l-.035.213H.437V.26H.224L.189.473A92.337,92.337,0,0,1,9.7,2.611a11.657,11.657,0,0,1,4.714,2.256A8.2,8.2,0,0,1,16.586,8a9.55,9.55,0,0,1,.7,3.579,5.861,5.861,0,0,1-.815,3.379,3.07,3.07,0,0,1-2.1,1.37,3.117,3.117,0,0,1-.6.047,14.542,14.542,0,0,1-3.544-.638c-.969-.272-1.453-.39-2.434-.638l-.26-.071V18.5l.154.035c.626.154.933.236,1.559.4l.059-.2H9.084V23.91H9.3l.059-.2-.059.2H9.51V18.57l-.154-.047c-.626-.165-.945-.248-1.571-.4l-.047.2H7.95V15.286H7.738l-.047.2c.969.248,1.453.366,2.422.638a15.06,15.06,0,0,0,3.662.65,3.926,3.926,0,0,0,.673-.047,3.573,3.573,0,0,0,2.386-1.548,6.339,6.339,0,0,0,.886-3.615,10.1,10.1,0,0,0-.732-3.733A8.77,8.77,0,0,0,14.7,4.548,12,12,0,0,0,9.8,2.185,92.282,92.282,0,0,0,.26.047L.012,0V5.6l.177.035c.6.106.9.165,1.5.284l.035-.213H1.512V16.987h.213l.035-.213c-.6-.118-.91-.177-1.512-.284L0,16.444v5.6l.177.035a92.258,92.258,0,0,1,9.061,2.008l.26.071v-.272H9.3ZM7.738,6.592H7.525v4.229l.154.035c.473.118.7.177,1.17.3a4.883,4.883,0,0,0,1.252.189,1.578,1.578,0,0,0,.685-.13.979.979,0,0,0,.508-.591A2.83,2.83,0,0,0,11.447,9.6a3.5,3.5,0,0,0-.307-1.465,2.207,2.207,0,0,0-.827-.957,6.865,6.865,0,0,0-1.571-.567L7.8,6.379l-.26-.071V6.58H7.75l-.047.2c.378.095.567.142.933.236a6.052,6.052,0,0,1,1.465.52,1.6,1.6,0,0,1,.662.768,2.987,2.987,0,0,1,.272,1.288,2.641,2.641,0,0,1-.118.862.643.643,0,0,1-.3.366,1.164,1.164,0,0,1-.508.083,4.849,4.849,0,0,1-1.146-.177c-.473-.118-.709-.189-1.17-.307l-.047.2h.213V6.556H7.75l-.047.2.047-.2Z" transform="translate(179.315 6.936)" fill="#020202"/></g></svg>