<svg xmlns="http://www.w3.org/2000/svg" width="45" height="45" viewBox="0 0 45 45"><rect width="44.715" height="44.715" rx="3" transform="translate(0.142 0.142)" fill="#d6ab80"/><path d="M.142,41.482H.285V3.518A3.233,3.233,0,0,1,3.518.285H41.482a3.233,3.233,0,0,1,3.233,3.233V41.482a3.233,3.233,0,0,1-3.233,3.233H3.518A3.233,3.233,0,0,1,.285,41.482H0A3.518,3.518,0,0,0,3.518,45H41.482A3.518,3.518,0,0,0,45,41.482V3.518A3.518,3.518,0,0,0,41.482,0H3.518A3.518,3.518,0,0,0,0,3.518V41.482Z" transform="translate(0 0)"/><path d="M34.9,4.258a.844.844,0,0,1-.711-.314,2.019,2.019,0,0,1-.24-1.174,2.188,2.188,0,0,1,.231-1.189.839.839,0,0,1,.731-.324.92.92,0,0,1,.618.172,1.278,1.278,0,0,1,.432.511h1.261V.108H35.96V.471A2.259,2.259,0,0,0,34.445,0a2.977,2.977,0,0,0-1.957.751,2.581,2.581,0,0,0-.8,1.974,2.184,2.184,0,0,0,.4,1.464,2.2,2.2,0,0,0,1.123.948,4.211,4.211,0,0,0,1.609.295,2.588,2.588,0,0,0,1.113-.187,2.1,2.1,0,0,0,.883-.6,2.118,2.118,0,0,0,.491-.82,5.064,5.064,0,0,0,.123-1.277h-2.34v1h.535a.625.625,0,0,1-.706.707Zm-6.887.751a2.06,2.06,0,0,0,1.256.413,1.781,1.781,0,0,0,1.236-.462A1.462,1.462,0,0,0,31,3.845a1.272,1.272,0,0,0-.206-.8,2.155,2.155,0,0,0-.226-.324,1.3,1.3,0,0,0-.27-.241,10.041,10.041,0,0,0-1.03-.56,5.8,5.8,0,0,1-.682-.363.273.273,0,0,1-.108-.236c0-.221.128-.329.383-.329a.781.781,0,0,1,.76.619H30.79V.118H29.6V.442A1.785,1.785,0,0,0,28.436.049a1.689,1.689,0,0,0-1.158.413A1.44,1.44,0,0,0,26.8,1.606a.984.984,0,0,0,.2.742,1.63,1.63,0,0,0,.481.53,5.923,5.923,0,0,0,.942.5,3.813,3.813,0,0,1,.667.354.363.363,0,0,1,.147.295c0,.226-.142.339-.422.339a.914.914,0,0,1-.795-.688H26.846v1.68h1.177V5.014ZM20.337,4.1h-.412V1.2L21.49,5.348h.785l1.579-4.184V4.091h-.417V5.348h2.732V4.091h-.422V1.36h.412V.1H23.02l-.79,2.023L21.46.1H18.3V1.36h.412V4.091h-.4V5.348h2.031V4.091ZM13.494,4.6c-.437,0-.657-.295-.662-.889h2.874a2.068,2.068,0,0,0-.682-1.6,2.588,2.588,0,0,0-1.687-.525,2.526,2.526,0,0,0-1.707.56,1.771,1.771,0,0,0-.638,1.395,1.728,1.728,0,0,0,.643,1.385,2.959,2.959,0,0,0,1.918.53,1.944,1.944,0,0,0,1.3-.295,1.727,1.727,0,0,0,.461-.339,1.43,1.43,0,0,0,.294-.437L14.053,4.2a.59.59,0,0,1-.564.408Zm-.643-1.439a.942.942,0,0,1,.137-.525.432.432,0,0,1,.392-.211.469.469,0,0,1,.4.192.807.807,0,0,1,.152.5c0,.2,0,.054,0,.128H12.862V3.168Zm-2.541-.314h.363V1.7H8.79V2.848h.353L8.555,4.283,7.917,2.848h.4V1.7H5.832V2.848h.285l1.4,2.7-.186.373H6.715v1.11H8.309l2-4.184ZM2.384,5.108a2.444,2.444,0,0,0,1.256.314,1.933,1.933,0,0,0,1.369-.56,1.848,1.848,0,0,0,.412-.619,2.011,2.011,0,0,0,.137-.766,1.7,1.7,0,0,0-.569-1.351,2.089,2.089,0,0,0-1.437-.5,1.945,1.945,0,0,0-1.172.3V.108H0V1.257H.486V4.2H.01V5.348H2.384V5.108Zm.152-2.176a.563.563,0,0,1,.476-.221.56.56,0,0,1,.461.2.9.9,0,0,1,.172.6c0,.55-.206.82-.623.82s-.657-.275-.657-.825.054-.422.167-.575Z" transform="translate(3.669 7.539)" fill="#f7eee5"/><path d="M35.033,4.4V4.253a.709.709,0,0,1-.6-.26,1.921,1.921,0,0,1-.211-1.085,2.108,2.108,0,0,1,.206-1.11.711.711,0,0,1,.618-.265.956.956,0,0,1,.544.152,1.122,1.122,0,0,1,.383.457l.039.079H37.5V.108h-1.54V.614H36.1L36.2.506A2.385,2.385,0,0,0,34.587,0a2.919,2.919,0,0,0-2.055.786,2.712,2.712,0,0,0-.849,2.077A2.852,2.852,0,0,0,32.105,4.4,2.355,2.355,0,0,0,33.3,5.407a4.409,4.409,0,0,0,1.658.3,3.361,3.361,0,0,0,1.163-.2,2.3,2.3,0,0,0,.942-.638A2.246,2.246,0,0,0,37.579,4a5,5,0,0,0,.128-1.316V2.544H35.083V3.821h.677V3.678h-.142c-.02.422-.147.545-.569.57v.28a.859.859,0,0,0,.628-.216.841.841,0,0,0,.216-.629V3.541h-.535V2.829h2.2V2.686h-.142A4.659,4.659,0,0,1,37.3,3.924a1.977,1.977,0,0,1-.461.761,2.007,2.007,0,0,1-.829.56,3.145,3.145,0,0,1-1.064.182,4.042,4.042,0,0,1-1.555-.285,2.074,2.074,0,0,1-1.055-.894,2.582,2.582,0,0,1-.378-1.39,2.426,2.426,0,0,1,.76-1.871A2.607,2.607,0,0,1,34.582.275,2.138,2.138,0,0,1,36.01.712l.231.2V.383h.981V1.935H36.1v.142l.128-.064a1.38,1.38,0,0,0-.481-.57,1.242,1.242,0,0,0-.7-.2.98.98,0,0,0-.844.383A2.265,2.265,0,0,0,33.954,2.9a2.1,2.1,0,0,0,.27,1.257,1,1,0,0,0,.824.368V4.386Zm-6.887.751-.083.113A2.23,2.23,0,0,0,29.4,5.7a1.864,1.864,0,0,0,1.329-.5,1.606,1.606,0,0,0,.535-1.218,1.741,1.741,0,0,0-.226-.869A1.964,1.964,0,0,0,30.8,2.76a1.336,1.336,0,0,0-.3-.265,9.942,9.942,0,0,0-1.045-.57,6.59,6.59,0,0,1-.657-.349c-.039-.029-.054-.054-.054-.128.02-.152.025-.167.245-.187.3,0,.486.147.628.525l.034.093H31.06V.108H29.594V.575h.142l.088-.108A1.914,1.914,0,0,0,28.568.044a1.835,1.835,0,0,0-1.251.447,1.582,1.582,0,0,0-.525,1.247,1.564,1.564,0,0,0,.221.815,1.7,1.7,0,0,0,.525.575,6,6,0,0,0,.961.511,3.81,3.81,0,0,1,.638.334.219.219,0,0,1,.093.187c-.015.152-.029.177-.28.2-.329,0-.52-.162-.662-.584l-.029-.1H26.837V5.638h1.457V5.157h-.142l-.083.113.083-.113h-.142v.2h-.9v-1.4h1.04V3.816l-.132.039a.958.958,0,0,0,.927.786.611.611,0,0,0,.4-.118.441.441,0,0,0,.157-.363.507.507,0,0,0-.2-.4,3.415,3.415,0,0,0-.7-.373A6.484,6.484,0,0,1,27.69,2.9a1.468,1.468,0,0,1-.441-.486,1.3,1.3,0,0,1-.181-.673A1.28,1.28,0,0,1,27.494.7,1.579,1.579,0,0,1,28.563.324a1.662,1.662,0,0,1,1.079.359l.231.187V.388h.9V1.6h-1.03v.142l.132-.044a.926.926,0,0,0-.893-.712.545.545,0,0,0-.378.118.444.444,0,0,0-.147.354.424.424,0,0,0,.167.354,6.111,6.111,0,0,0,.7.378,11.51,11.51,0,0,1,1.015.55,1.081,1.081,0,0,1,.24.221,1.831,1.831,0,0,1,.211.295,1.455,1.455,0,0,1,.191.732A1.3,1.3,0,0,1,30.54,5a1.574,1.574,0,0,1-1.138.427,1.938,1.938,0,0,1-1.172-.383L28,4.882v.275h.142ZM20.47,4.233V4.091H20.2V2.112l1.329,3.516H22.5l1.344-3.556V4.091h-.417V5.628h3.012V4.091h-.422V1.64h.412V.1H23.055l-.692,1.773L21.686.1H18.292V1.64H18.7V4.091h-.4V5.628h2.31V4.091H20.47v.142h-.142V5.348H18.581V4.376h.4V1.36h-.412V.388h2.924l.868,2.274L23.251.388h2.9V1.36h-.412V4.376h.422v.972H23.712V4.376h.417V.535l-1.82,4.813h-.589L19.915.575v3.8h.554V4.233h0Zm-6.843.506V4.6c-.348-.015-.5-.182-.525-.751H12.96v.142h3.022V3.841a2.232,2.232,0,0,0-.736-1.7,2.736,2.736,0,0,0-1.776-.56,2.613,2.613,0,0,0-1.8.594,1.911,1.911,0,0,0-.682,1.5,1.852,1.852,0,0,0,.7,1.493,3.1,3.1,0,0,0,2.011.565,2.892,2.892,0,0,0,1.373-.309,1.99,1.99,0,0,0,.5-.363,1.661,1.661,0,0,0,.324-.481l.074-.172-1.854-.226-.039.1a.45.45,0,0,1-.437.324v.28a.729.729,0,0,0,.692-.491L14.2,4.337l-.02.138,1.56.192.02-.138-.128-.054a1.343,1.343,0,0,1-.265.4,1.647,1.647,0,0,1-.422.309,2.59,2.59,0,0,1-1.241.28,2.828,2.828,0,0,1-1.83-.5,1.573,1.573,0,0,1-.594-1.272A1.64,1.64,0,0,1,11.866,2.4a2.335,2.335,0,0,1,1.614-.521,2.451,2.451,0,0,1,1.6.5,1.9,1.9,0,0,1,.628,1.488h.142V3.713H12.832v.142a1.274,1.274,0,0,0,.2.751.727.727,0,0,0,.6.28V4.744ZM12.984,3.3h.142a.833.833,0,0,1,.113-.452.3.3,0,0,1,.275-.147.345.345,0,0,1,.289.138.671.671,0,0,1,.123.408s0,.044,0,.118l.142.01V3.232H13v.142l.137-.015V3.3h-.285v.093l.02.123H14.2l.01-.133c0-.079,0-.118,0-.138a.928.928,0,0,0-.181-.58.614.614,0,0,0-.51-.246.586.586,0,0,0-.51.275,1.11,1.11,0,0,0-.157.6h.132Zm-2.536-.314v.142h.505V1.7H8.785V3.128H9.07l-.383.933-.412-.933H8.6V1.7H5.837V3.128h.338L7.505,5.687l-.113.231H6.725V7.313H8.55L10.586,3.05l-.128-.059v0l-.128-.059L8.373,7.038H7v-.83h.559l.255-.516L6.347,2.853H6.122V1.984H8.329v.869H7.853l.858,1.935L9.5,2.853H9.08V1.984h1.6v.869H10.37l-.039.079.128.059ZM2.521,5.245l-.074.123A2.594,2.594,0,0,0,3.777,5.7a1.992,1.992,0,0,0,1.472-.6A1.963,1.963,0,0,0,5.69,4.44a2.191,2.191,0,0,0,.147-.815,1.855,1.855,0,0,0-.618-1.459,2.235,2.235,0,0,0-1.53-.53,2.277,2.277,0,0,0-1.246.324l.074.118h.142V.118H0V1.547H.486V4.209H0V5.638H2.659V5.255H2.516l-.074.123.074-.123H2.374v.1H.285V4.489H.765V1.262H.28V.393h2.1V2.328L2.595,2.2a2.006,2.006,0,0,1,1.1-.28,1.968,1.968,0,0,1,1.344.462,1.552,1.552,0,0,1,.52,1.247,1.919,1.919,0,0,1-.128.712,1.666,1.666,0,0,1-.383.57,1.674,1.674,0,0,1-1.27.516A2.265,2.265,0,0,1,2.59,5.127L2.379,5v.246Zm.152-2.176.113.083a.424.424,0,0,1,.363-.167.42.42,0,0,1,.353.152.787.787,0,0,1,.142.506c-.02.521-.147.668-.481.683-.363-.015-.5-.162-.515-.683a.837.837,0,0,1,.137-.5l-.113-.083-.113-.083a1.1,1.1,0,0,0-.191.658,1.091,1.091,0,0,0,.2.707.733.733,0,0,0,.6.26.7.7,0,0,0,.579-.26,1.143,1.143,0,0,0,.181-.7,1.027,1.027,0,0,0-.206-.688A.73.73,0,0,0,3.154,2.7a.705.705,0,0,0-.589.28l.113.083Z" transform="translate(3.536 7.402)" fill="#020202"/><path d="M11.084,20.373c2.937-.285,7.524-1.95,9.837-5.108,3.369-4.6-.521-9.4-3.595-7.436,0,0,1-4.975-1.724-6.11s-3.8,1.945-3.8,1.945S11.388.129,8.736,0C6.713-.1,5.578,3.842,5.578,3.842S4.4,0,1.453,2.718s-.742,10.9.805,13.481a9.894,9.894,0,0,0,8.821,4.184Z" transform="translate(11.995 19.426)" fill="#fff"/><path d="M11.231,20.661a15.787,15.787,0,0,0,4.337-1.11,14.391,14.391,0,0,0,4.307-2.618,7.577,7.577,0,0,0,2.593-4.548A4.857,4.857,0,0,0,21.2,8.378a3.011,3.011,0,0,0-3.8-.53c.069.054.138.108.206.157A8.735,8.735,0,0,0,17.5,3.746a3.122,3.122,0,0,0-1.891-2.1,2.637,2.637,0,0,0-2.775.555,4.07,4.07,0,0,0-1.012,1.562c.093.015.187.025.275.039a4.844,4.844,0,0,0-1.7-3.291A2.344,2.344,0,0,0,7.921.24,4.539,4.539,0,0,0,6.276,2.234a9.8,9.8,0,0,0-.683,1.7h.27c-.3-.992-1.071-2.127-2.19-2.2A3.306,3.306,0,0,0,1.154,3.132,5.416,5.416,0,0,0,.142,5.642,16.135,16.135,0,0,0,.7,12.223a21.571,21.571,0,0,0,.953,2.868,8.324,8.324,0,0,0,1.4,2.338,10.238,10.238,0,0,0,7.17,3.261,7.665,7.665,0,0,0,1.007-.034c.177-.015.182-.3,0-.28a9.947,9.947,0,0,1-7.259-2.431,7.383,7.383,0,0,1-1.8-2.352,17.664,17.664,0,0,1-.948-2.5A18.994,18.994,0,0,1,.3,6.826,7.189,7.189,0,0,1,.883,4.1,3.827,3.827,0,0,1,2.946,2.14c1.3-.467,2.22.7,2.613,1.793l.029.083a.141.141,0,0,0,.27,0,9.406,9.406,0,0,1,.467-1.238A5.8,5.8,0,0,1,7.7.736,1.758,1.758,0,0,1,8.712.279,2.357,2.357,0,0,1,9.994.593,3.581,3.581,0,0,1,11.442,2.43a6.417,6.417,0,0,1,.295.963c.025.1.044.211.064.314l.015.093c0,.039,0-.029,0,0a.141.141,0,0,0,.275.039A3.783,3.783,0,0,1,12.8,2.646a2.353,2.353,0,0,1,2.436-.815c2,.516,2.338,2.765,2.274,4.533a9.919,9.919,0,0,1-.167,1.567.142.142,0,0,0,.206.157,2.7,2.7,0,0,1,3.271.309,4.487,4.487,0,0,1,1.4,3.654c-.216,3.428-3.472,5.81-6.36,7.062a15.618,15.618,0,0,1-4.626,1.252c-.177.02-.182.3,0,.28Z" transform="translate(11.847 19.276)"/><path d="M2.055.062a10.391,10.391,0,0,0-1.2,2.515A5.7,5.7,0,0,1,.036,4.458c-.118.138.079.339.2.2a5.569,5.569,0,0,0,.825-1.822A10.674,10.674,0,0,1,2.305.2c.1-.147-.142-.29-.241-.142Z" transform="translate(27.236 27.135)"/><path d="M1.382.068a13.1,13.1,0,0,0-1.1,2.524A7.618,7.618,0,0,0,0,3.688c-.029.177.241.255.27.074a7.856,7.856,0,0,1,.27-1.051A12.961,12.961,0,0,1,1.628.211c.088-.157-.152-.3-.241-.142Z" transform="translate(22.379 22.817)"/><path d="M.371.1A12.576,12.576,0,0,0,.007,2.14,7.273,7.273,0,0,0,.248,4.173c.039.177.314.1.27-.074A6.777,6.777,0,0,1,.287,2.14,12.211,12.211,0,0,1,.641.175C.68,0,.41-.075.371.1Z" transform="translate(17.11 23.064)"/><path d="M2.278,1.228A3.954,3.954,0,0,1,.27.059C.162-.083-.084.059.029.2a2.825,2.825,0,0,0,.958.81A8.993,8.993,0,0,0,2.2,1.5C2.377,1.557,2.45,1.287,2.278,1.228Z" transform="translate(26.007 30.795)"/><path d="M.277,3.07C.867,1.194,2.856.468,4.648.281c.177-.02.182-.3,0-.28C2.728.2.636.988.007,3-.047,3.169.223,3.242.277,3.07Z" transform="translate(8.347 17.861)"/><path d="M.282,2.6C.773,1.037,2.428.433,3.916.281c.177-.02.182-.3,0-.28C2.3.168.538.831.007,2.525c-.054.172.216.246.27.074Z" transform="translate(9.569 19.373)"/><path d="M3.9.134C3.663,2.089,1.817,3.16.1,3.666c-.172.049-.1.324.074.27,1.856-.545,3.757-1.709,4.008-3.8C4.2-.047,3.919-.042,3.9.134Z" transform="translate(31.628 37.302)"/><path d="M3.261.134C3.064,1.755,1.522,2.649.1,3.066c-.172.049-.1.324.074.27,1.567-.462,3.158-1.444,3.369-3.2C3.56-.047,3.28-.042,3.261.134Z" transform="translate(30.873 36.502)"/></svg>