<?xml version="1.0" encoding="UTF-8"?>
<svg id="uuid-8f912334-d781-461e-8f39-cce7b7e9fffb" data-name="Layer 1" xmlns="http://www.w3.org/2000/svg" viewBox="0 0 287.9 132.2">
  <defs>
    <style>
      .uuid-eba93f17-14ec-41ca-ab94-501f8de7498f {
        isolation: isolate;
      }

      .uuid-bdf81302-2a10-462d-8b52-791a23595b97 {
        fill: #4b1e1e;
      }
    </style>
  </defs>
  <g id="uuid-63191c09-3c05-4145-b301-edc9ac77f239" data-name="H" class="uuid-eba93f17-14ec-41ca-ab94-501f8de7498f">
    <g class="uuid-eba93f17-14ec-41ca-ab94-501f8de7498f">
      <path class="uuid-bdf81302-2a10-462d-8b52-791a23595b97" d="m3,99.1c-1.7-2.4-5.3-4.9-.8-8.1l3.8-2.6c3.4-2.4,5.5.4,7,2.7.6,1.1,4.1,6.3,7.9,11.9l15.7-10.9-7.6-11c-1.7-2.4-5.3-4.9-.7-8.1l3.8-2.6c3.4-2.4,5.5.4,6.9,2.8,1.7,2.5,17.3,26.2,20,29.6,1.8,2.3,5.4,4.9.8,8l-3.8,2.6c-3.5,2.4-5.6-.4-7.1-2.7-1.3-2.2-4.3-6.6-7.5-11.3l-15.7,10.9c3.4,4.9,6.4,9.2,7.4,10.4,1.8,2.3,5.3,4.9.8,8.1l-3.8,2.6c-3.4,2.4-5.5-.5-7-2.8-3.7-5.8-18.8-27.9-20-29.5Z"/>
    </g>
  </g>
  <g id="uuid-499d6abe-4dbd-4dce-a23c-ef98b8f5a072" data-name="i" class="uuid-eba93f17-14ec-41ca-ab94-501f8de7498f">
    <g class="uuid-eba93f17-14ec-41ca-ab94-501f8de7498f">
      <path class="uuid-bdf81302-2a10-462d-8b52-791a23595b97" d="m48.9,61c-2.4-4-.2-5.8,2.8-7.5,3-1.7,5.7-2.6,8.2,1.4,2.3,3.9,0,5.7-2.9,7.4-3.1,1.7-5.8,2.6-8.1-1.3Zm18.7,34.1c-4.8-9.3-8.8-16.6-11.5-21.5-1.3-2.3-4-4.2,1.9-7.5,4.8-2.7,7.2-2.6,9.1,1.3,3.8,7.4,8.3,16.3,11.4,21.5.8,1.5,1.6,2.8,2.2,3.5,1.8,2.5,2.8,4.8-.8,6.8l-4,2.2c-2.9,1.6-4.6,0-5.8-2-.7-1.1-1.6-2.7-2.5-4.4Z"/>
    </g>
  </g>
  <g id="uuid-c9cd11f6-f1bc-4d35-8a14-b88bbf6a7461" data-name="Y" class="uuid-eba93f17-14ec-41ca-ab94-501f8de7498f">
    <g class="uuid-eba93f17-14ec-41ca-ab94-501f8de7498f">
      <path class="uuid-bdf81302-2a10-462d-8b52-791a23595b97" d="m109.8,63.2c-3.9-3.6-20.1-16.5-21.9-18-1.1-.9-3.4-3.5.4-5l4.9-2c2.9-1.2,4.4.4,5.5,1.7,2.7,2.8,10.4,9.5,13.1,12l.5-.2c.3-4.3,1.3-15.5,1.1-18.2-.1-2.2.3-3.6,3.9-5.1l4.9-2c2.1-.8,4.1,1.1,3.8,3.3-.6,3.5-3.9,24.8-4.7,29.1.9,2,3.6,9.1,4.7,11.2,1.3,2.7,4.2,5.9-1,8l-4.2,1.7c-3.9,1.6-5.4-1.6-6.3-4.2-1.2-3.3-4-10.5-4.8-12.3Z"/>
    </g>
  </g>
  <g id="uuid-813adef9-8559-46e3-aa52-26c316860696" data-name="o" class="uuid-eba93f17-14ec-41ca-ab94-501f8de7498f">
    <g class="uuid-eba93f17-14ec-41ca-ab94-501f8de7498f">
      <path class="uuid-bdf81302-2a10-462d-8b52-791a23595b97" d="m149.8,27c12.2-3.6,21.1,3.2,24.2,14.3,3.1,11.2-.4,21.7-12.6,25.2-12.2,3.6-20.9-3.3-24.1-14.6-3.1-11,.4-21.3,12.6-24.9Zm12.7,17.5c-1.6-5.5-4.5-9.6-9.9-8.1-5.7,1.7-5.5,6.7-4,12.1,1.6,5.5,4.3,10.1,9.9,8.5,5.7-1.7,5.5-7,3.9-12.5Z"/>
    </g>
  </g>
  <g id="uuid-5cd10f50-8ded-46d1-b696-1fd63db6e691" data-name="y-2" class="uuid-eba93f17-14ec-41ca-ab94-501f8de7498f">
    <g class="uuid-eba93f17-14ec-41ca-ab94-501f8de7498f">
      <path class="uuid-bdf81302-2a10-462d-8b52-791a23595b97" d="m189.2,59.7c1.7.2,3.9.1,6.2-.3,3.4-.6,4.2-2.9,4.6-6.9l-2.9.5c-3.9.7-5.1-1.3-6.2-3.4-2-3.6-11.8-20.3-13.7-23.9-1.2-2.3-2.5-5,1.4-5.7l4.4-.8c4-.7,4.9,1.5,5.7,3.1,1.6,3.7,9.1,17.2,11.8,23.1h.4c.2-6.8.9-22,1.1-25.5,0-2.4,0-4.1,3.9-4.8l5.2-.9c3.6-.6,3.9,1.2,3.7,4.5-.5,6.8-2.4,24.5-3.2,32.1-.9,8.1-2.5,15.7-13.8,17.7-3.5.6-6.6.7-8.4.3-1.9-.3-2.6-.9-2.5-2.3l-.3-4.6c-.1-1.8.9-2.6,2.9-2.3Z"/>
    </g>
  </g>
  <g id="uuid-5c840dad-f14d-4af4-b8f6-3a255602d873" data-name="o-2" class="uuid-eba93f17-14ec-41ca-ab94-501f8de7498f">
    <g class="uuid-eba93f17-14ec-41ca-ab94-501f8de7498f">
      <path class="uuid-bdf81302-2a10-462d-8b52-791a23595b97" d="m241.4,10.5c12.7-.9,20,7.5,20.6,19,.7,11.6-5,21.1-17.6,22-12.7.9-19.8-7.6-20.5-19.3-.8-11.4,4.9-20.8,17.5-21.7Zm8.7,19.8c-.4-5.7-2.4-10.4-7.9-10-6,.4-6.8,5.4-6.4,11,.4,5.7,2.1,10.8,7.9,10.3,6-.4,6.9-5.7,6.5-11.4Z"/>
    </g>
  </g>
  <g id="uuid-a8f5ceef-b31c-4341-b99e-f872ed4cc446" data-name=" 2" class="uuid-eba93f17-14ec-41ca-ab94-501f8de7498f">
    <g class="uuid-eba93f17-14ec-41ca-ab94-501f8de7498f">
      <path class="uuid-bdf81302-2a10-462d-8b52-791a23595b97" d="m279.1,37.7c3.7,0,7,.8,7.1,6.6,0,5.7-3.2,6.2-7,6.2-3.9,0-7.1-.7-7-6.4,0-5.8,3-6.4,6.9-6.4Zm-6.1-30.3c.1-3.5,1.8-7.4,7.2-7.3,5.1,0,7.9,3.6,7.7,9.2-.2,7.6-4.9,15.8-7.6,20.8l-2.2-.4c-.5-6.9-5.4-16.5-5.2-22.3Z"/>
    </g>
  </g>
</svg>