<svg xmlns="http://www.w3.org/2000/svg" xmlns:xlink="http://www.w3.org/1999/xlink" width="186.49" height="50" viewBox="0 0 186.49 50"><defs><clipPath id="a"><rect width="186.49" height="50" fill="none"/></clipPath></defs><g transform="translate(0 0)"><g transform="translate(0 0)" clip-path="url(#a)"><path d="M7.521,31.161V21.109L0,7.474H3.514l3.338,6.537C7.732,15.8,8.469,17.244,9.208,18.9h.07c.633-1.547,1.477-3.093,2.39-4.886l3.409-6.537h3.445l-7.907,13.6V31.161Z" transform="translate(0 1.639)" fill="#4b1e1e"/><path d="M30.775,21.378c0,6.29-4.392,9.033-8.469,9.033-4.569,0-8.153-3.374-8.153-8.752,0-5.658,3.76-9,8.435-9,4.885,0,8.188,3.549,8.188,8.716m-13.459.176c0,3.725,2.107,6.537,5.131,6.537,2.951,0,5.165-2.776,5.165-6.607,0-2.881-1.44-6.5-5.1-6.5-3.62,0-5.2,3.374-5.2,6.572" transform="translate(3.104 2.776)" fill="#4b1e1e"/><path d="M32.313,12.95,36,23c.422,1.124.844,2.459,1.125,3.479H37.2c.316-1.019.667-2.319,1.089-3.549l3.374-9.981H44.93L40.291,25.075c-2.214,5.834-3.725,8.786-5.834,10.649a8.77,8.77,0,0,1-3.8,1.968l-.773-2.565a8.2,8.2,0,0,0,2.707-1.512,9.782,9.782,0,0,0,2.6-3.443,2.231,2.231,0,0,0,.245-.739,2.136,2.136,0,0,0-.245-.808L28.939,12.95Z" transform="translate(6.346 2.839)" fill="#4b1e1e"/><path d="M52.342,31.161V7.474h3.374l7.556,11.985a66.187,66.187,0,0,1,4.218,7.7l.1-.035c-.28-3.163-.351-6.044-.351-9.735V7.474h2.882V31.161H67.032l-7.521-12.02a68.864,68.864,0,0,1-4.393-7.907l-.1.035c.176,2.987.211,5.833.211,9.77V31.161Z" transform="translate(11.479 1.639)" fill="#4b1e1e"/><path d="M83.41,25.946a28.574,28.574,0,0,0,.246,4.077H80.88l-.246-2.145h-.106a6.333,6.333,0,0,1-5.2,2.531,4.846,4.846,0,0,1-5.2-4.886c0-4.111,3.654-6.361,10.226-6.326v-.351c0-1.372-.387-3.937-3.865-3.9a8.2,8.2,0,0,0-4.464,1.266l-.7-2.074a11.019,11.019,0,0,1,5.622-1.475c5.2,0,6.467,3.549,6.467,6.923Zm-2.987-4.6c-3.374-.071-7.2.527-7.2,3.831A2.709,2.709,0,0,0,76.1,28.125a4.3,4.3,0,0,0,4.182-2.847,3.507,3.507,0,0,0,.14-.984Z" transform="translate(15.379 2.776)" fill="#4b1e1e"/><path d="M89.072,9.607v4.077H93.5v2.354H89.072v9.173c0,2.108.6,3.3,2.319,3.3a5.743,5.743,0,0,0,1.792-.211l.141,2.354a8.435,8.435,0,0,1-2.742.422,4.412,4.412,0,0,1-3.338-1.3c-.844-.949-1.195-2.461-1.195-4.464V16.039H83.413V13.684h2.636V10.52Z" transform="translate(18.293 2.106)" fill="#4b1e1e"/><path d="M108.791,25.286c0,1.792.035,3.338.14,4.675H106.19l-.176-2.776h-.071a6.353,6.353,0,0,1-5.622,3.163c-2.672,0-5.87-1.512-5.87-7.451V12.95h3.092v9.384c0,3.234,1.019,5.447,3.8,5.447a4.447,4.447,0,0,0,4.077-2.846,4.244,4.244,0,0,0,.282-1.581V12.95h3.092Z" transform="translate(20.714 2.839)" fill="#4b1e1e"/><path d="M110.446,18.321c0-2-.037-3.725-.141-5.306h2.706l.14,3.374h.107A5.141,5.141,0,0,1,118,12.662a6.294,6.294,0,0,1,.844.071v2.917a4.891,4.891,0,0,0-1.056-.07c-2.178,0-3.725,1.617-4.147,3.936a9.194,9.194,0,0,0-.106,1.441v9.067h-3.091Z" transform="translate(24.19 2.776)" fill="#4b1e1e"/><path d="M131.891,25.946a28.574,28.574,0,0,0,.246,4.077h-2.776l-.246-2.145h-.106a6.333,6.333,0,0,1-5.2,2.531,4.846,4.846,0,0,1-5.2-4.886c0-4.111,3.654-6.361,10.226-6.326v-.351c0-1.372-.387-3.937-3.865-3.9a8.2,8.2,0,0,0-4.464,1.266l-.7-2.074a11.019,11.019,0,0,1,5.622-1.475c5.2,0,6.467,3.549,6.467,6.923Zm-2.987-4.6c-3.374-.071-7.2.527-7.2,3.831a2.709,2.709,0,0,0,2.882,2.952,4.3,4.3,0,0,0,4.182-2.847,3.507,3.507,0,0,0,.14-.984Z" transform="translate(26.011 2.776)" fill="#4b1e1e"/><path d="M145.967,32.036a9.73,9.73,0,0,0,1.535-.7c1.3.449,2.2,1.769,4.2,1.364,1.617-.358,3.349-2.142,5.586-3.023-3.851.5-4.5-1.552-8.385.541,1.257-1.481.969-3.021,2.147-5.311-1.367,1.651-3.456,2.062-4.487,3.051-1.339,1.294-1,2.89-1.7,4.2a11.42,11.42,0,0,0-1.479.407c1.411-1.278,1.323-2.836,2.751-4.91-1.533,1.418-3.618,1.519-4.746,2.346-1.467,1.083-1.336,2.709-2.185,3.9a11.018,11.018,0,0,0-1.495.2c1.54-1.064,1.653-2.618,3.3-4.459-1.67,1.178-3.714.984-4.92,1.644-1.569.867-1.653,2.495-2.637,3.559a10.786,10.786,0,0,0-1.488-.011c1.645-.844,1.959-2.367,3.805-3.955-1.78.93-3.749.458-5.015.946-1.768.689-1.981,2.49-3.308,3.354a10.673,10.673,0,0,0,2.875.112c.975.934,1.271,2.5,3.176,2.941,1.55.326,3.718-.591,5.982-.46-2.612-.79-3.18-2.252-4.972-2.739a9.3,9.3,0,0,0,1.609-.251c1.1.79,1.608,2.3,3.579,2.475,1.6.107,3.654-1.106,5.948-1.3-2.728-.413-3.491-1.785-5.358-2.017a9.358,9.358,0,0,0,1.585-.476c1.213.629,1.919,2.058,3.924,1.95,1.62-.122,3.531-1.623,5.818-2.151-2.8-.012-3.747-1.266-5.656-1.225" transform="translate(27.952 5.461)" fill="#f0ac1e"/><path d="M151.229,28.118c1.247-1.135,1.72-3.293,3.224-5.092-3.713,2.768-5.313.872-8.361,6.473,1.575-.576,3.381.144,5.137-1.381" transform="translate(32.039 5.049)" fill="#f0ac1e"/><path d="M147.482,27.777c.313-.055.625-.107.935-.171a18.615,18.615,0,0,0,1.842-1.318c.05-.045.111.01.062.06a6.282,6.282,0,0,1-1.417,1.15,5.417,5.417,0,0,0,2.48-1.247c.038-.034.084.007.046.041a5.841,5.841,0,0,1-3.949,1.585.05.05,0,0,1,0-.1" transform="translate(32.333 5.754)" fill="#e37626"/><path d="M144.449,43.271c.048.1-6.367.68-13.861-4.154-3.293-2.215-6.354-4.03-8.741-5.32a42.344,42.344,0,0,0,6.518,1.079,2.557,2.557,0,0,0,2.008,2.47c1.247.447,2.62-.21,4.453.243-1.894-1.791-1.369-3.237-5.856-3.242,2.257-.255,1.614-2.076,3.7-3.326-1.6.517-2.363.187-3.5.476-1.512.382-1.9,1.778-3,2.423A41.178,41.178,0,0,1,116.745,31l-.01,0a40.776,40.776,0,0,1-4.132-2.14q.3.9.641,1.789,1.829.909,3.729,1.63c.7,1.228,1.735,3.063,2.97,5.053a8.8,8.8,0,0,0,5.486,4.124,10.775,10.775,0,0,1-5.109-4.665c-1.024-1.748-2.03-3.245-2.814-4.314.289.106.58.209.872.307,1.35,1.511,3.374,3.805,5.736,6.262,4.337,4.353,8.938,4.187,8.919,4.138.016.073-4.348-.578-8.553-5.009-1.872-2.051-3.651-3.782-5.044-5.034,2.407,1.646,6.351,4.427,10.933,7.343,7.655,4.678,14.124,2.856,14.08,2.792" transform="translate(24.694 6.328)" fill="#f0ac1e"/><path d="M134.445,3.569V.421h-1.163V0h2.8V.421h-1.168V3.569Z" transform="translate(29.229 0)" fill="#231f20"/><path d="M135.957,3.569V0h.7l.836,2.526c.077.235.133.412.168.529.04-.13.1-.321.188-.572L138.7,0h.629V3.569h-.451V.582l-1.027,2.987h-.421L136.408.53V3.569Z" transform="translate(29.816 0)" fill="#231f20"/></g></g></svg>